<svg xmlns="http://www.w3.org/2000/svg" width="222.457" height="651.99" viewBox="0 0 222.457 651.98999"><path d="M64.735 640.077c.896-2.128 1.792-5.152 1.792-8.4 0-5.376-3.248-8.064-6.832-8.064-3.472 0-7.056 2.128-10.304 3.696L.111 650.717v-19.375l42-18.032-42-17.696V576.91l58.688 26.88c16.239 7.392 22.512 13.664 22.512 26.544 0 4.256-1.12 8.064-1.792 9.744H64.735zm6.384-116.48h8.736v17.248h-8.736c-.783 20.496-11.983 34.608-32.031 34.608-19.264 0-30.464-13.776-31.136-34.608H.112v-17.248h7.84c.672-20.832 11.872-34.608 31.136-34.608 20.048 0 31.248 14.112 32.031 34.608zm-50.511 17.248c.448 11.536 7.168 17.696 18.48 17.696 10.64 0 18.479-6.496 18.928-17.696zm0-17.248h37.408c-.448-11.2-8.288-17.808-18.928-17.808-11.312 0-18.032 6.272-18.48 17.808zm35.84-78.512v33.712H42.224v-33.712zm23.407-81.199v17.472H15.008v32.592h64.848v17.472H.112v-67.535h79.743zm-65.407-75.264v42.448h17.36v-38.976h13.776v38.976h19.6v-43.231h14.672v60.591H.112v-59.809h14.336zm6.832-9.407H.112v-17.472h21.392c9.632 0 13.104-3.472 13.104-12.432 0-4.816-1.344-13.216-1.792-15.792H.112v-17.473h79.744v17.473H46.928c.784 3.808 2.24 12.432 2.24 17.136-.001 17.92-7.393 28.56-27.888 28.56zm58.575-148.063v18.368l-17.808 6.271v29.68l17.808 6.496v17.92L0 179.535v-18.032zM19.6 170.576l29.68 10.64v-21.168zm-4.592-97.105v23.968h64.848v17.584H15.008v23.968H.112v-65.52zm64.847-44.24v35.28H.112v-17.36h28.672V28.336C28.784 12.32 36.848 0 54.208 0c17.583 0 25.647 11.984 25.647 29.231zM42.56 30.687v16.464h22.96V30.576c0-8.4-3.024-13.553-11.536-13.553-8.401 0-11.424 5.824-11.424 13.664zm80.82 621.014v-5.52l15.277-6.878-15.277-7.039v-5.399l22.677 11.079c4.879 2.399 6.479 4.959 6.479 8.119a8.69 8.69 0 0 1-.72 3.359h-4.199c.32-.52.72-1.44.72-3.2 0-1.839-1.64-2.839-4.399-4.319l-.08-.04zm28.475-37.837h-17.037v6.319l9.038.28c5.399.16 8.479 2.439 8.479 6.159 0 1-.199 2.2-.439 2.799h-3.56c.16-.32.2-1.2.2-1.64 0-1.36-.96-2.759-5.119-2.879l-12.198-.36v-15.238h20.637v4.56zm0-20.16v10.878h-20.637v-4.56h7.479v-6.279c0-4.519 2.52-7.039 6.56-7.039 4.079.001 6.598 2.521 6.598 7zm-9.598.6v5.719h6.039v-5.799c0-2.08-1.279-2.959-2.959-2.959-1.8-.001-3.08 1.079-3.08 3.039zm-7.439-18.12h17.037v4.559h-17.037v6.799h-3.6v-18.157h3.6zm-.84-13.76c-2.319-1.44-3.359-4.04-3.359-6.719 0-5.719 4.319-9.398 10.998-9.398 6.519 0 10.758 3.599 10.758 9.158 0 2.8-.959 5.079-3.239 6.719h10.358v4.52h-28.275v-4.279h2.759zm7.559-.08c4.479 0 7.199-2.16 7.199-5.799 0-3.479-2.72-5.639-7.119-5.639-4.479 0-7.318 2.2-7.318 5.719 0 3.599 2.719 5.719 7.238 5.719zm-10.958-28.839c0-4.879 1.8-8.479 6.239-8.479h10.478c1.2 0 1.521-.24 1.521-1.08 0-.32 0-.48-.08-1.04h3.199c.359 1.44.439 2.08.439 2.959 0 1.76-.68 3.04-2.479 3.359 1.8 1.88 2.479 4.52 2.479 7.239 0 4.279-2.359 6.959-6.158 6.959-5.479 0-5.999-5.119-6.52-9.238-.399-3.16-.6-4.08-1.199-4.52-.24-.2-.721-.28-1.48-.28-2.119 0-3.119 1.36-3.119 4.239 0 2.959 1 4.239 3.68 4.599v4.319c-5.08-.518-7-3.997-7-9.036zm12.038.72c.319 2.12.72 4.519 3.439 4.519 1.959 0 3.079-1.36 3.079-3.719 0-1.88-.6-3.64-1.64-4.679-.96-.96-2.319-.92-3.56-.92h-2.439c.841 1.479.881 3.159 1.121 4.799zm9.798-34.919c0 1.52-.92 3.479-1.919 4.279v.12h8.998v4.559h-8.998v.12c.999.8 1.919 2.76 1.919 4.279 0 6.159-5.438 8.398-11.198 8.398-6.519 0-10.598-3.199-10.598-8.119 0-1.759 1.04-3.799 2.119-4.559v-.12h-9.358v-4.559h9.358v-.12c-1.079-.76-2.119-2.799-2.119-4.559 0-4.919 4.079-8.119 10.598-8.119 5.76.002 11.198 2.242 11.198 8.4zm-15.837 8.959c-1.84.56-2.439 2.36-2.439 3.72 0 3.079 2.68 4.519 7.158 4.519 3.88 0 7.599-1.12 7.599-4.719 0-1.919-1.079-3.279-2.279-3.52zm-2.439-8.278c0 1.36.6 3.159 2.439 3.719h10.038c1.2-.24 2.279-1.6 2.279-3.52 0-3.599-3.719-4.719-7.599-4.719-4.478 0-7.157 1.44-7.157 4.52zm17.716-12.923h-20.637v-4.56h15.039v-.12l-15.038-7.719v-5.759h20.637v4.559h-15.037v.12l15.037 7.719v5.76zm-10.318-42.837c6.719 0 10.958 4 10.958 10.318 0 6.439-4.239 10.518-10.958 10.518-6.639 0-10.918-4.119-10.918-10.518 0-6.318 4.239-10.318 10.918-10.318zm0 16.238c4.64 0 7.398-2.2 7.398-5.879 0-3.6-2.799-5.759-7.438-5.759-4.52 0-7.278 2.2-7.278 5.799s2.799 5.839 7.318 5.839zm10.318-32.798h-17.037v6.319l9.038.28c5.399.16 8.479 2.439 8.479 6.159 0 1-.199 2.2-.439 2.799h-3.56c.16-.32.2-1.2.2-1.64 0-1.36-.96-2.759-5.119-2.879l-12.198-.36v-15.238h20.637v4.56zm.68-18.401c0 6.359-4.599 10.158-10.758 10.158-6.479 0-11.158-4.199-11.158-9.998 0-6.039 4.439-9.798 11.558-9.798h.48v15.237c4.159-.12 6.519-2.16 6.519-5.679 0-2.52-1.12-3.999-3.759-4.919v-4.359c4.519 1.039 7.118 4.719 7.118 9.358zm-18.516.2c0 3 1.96 4.879 5.599 5.319v-10.598c-3.48.28-5.599 2.28-5.599 5.279zm.799-22h17.037v4.559h-17.037v6.799h-3.6v-18.157h3.6zm6.719-28.558c6.719 0 10.958 3.999 10.958 10.318 0 6.439-4.239 10.518-10.958 10.518-6.639 0-10.918-4.119-10.918-10.518 0-6.319 4.239-10.318 10.918-10.318zm0 16.237c4.64 0 7.398-2.2 7.398-5.879 0-3.6-2.799-5.759-7.438-5.759-4.52 0-7.278 2.2-7.278 5.799s2.799 5.839 7.318 5.839zm10.318-30.918v10.838h-20.637v-11.398c0-3.839 1.84-6.119 5.039-6.119 2.28 0 3.439 1 4.359 2.96h.08c.68-2.6 2.56-3.88 5.319-3.88 3.72 0 5.84 2.719 5.84 7.599zm-17.197 6.279h4.76v-5.799c0-1.68-.88-2.64-2.48-2.64s-2.279.88-2.279 2.76v5.679zm8.079 0h5.679v-6.278c0-2-.96-3.08-2.8-3.08-1.8 0-2.879 1.08-2.879 3.08zm-12.158-26.52c0-4.879 1.8-8.479 6.239-8.479h10.478c1.2 0 1.521-.24 1.521-1.08 0-.319 0-.479-.08-1.039h3.199c.359 1.439.439 2.079.439 2.959 0 1.76-.68 3.04-2.479 3.359 1.8 1.88 2.479 4.52 2.479 7.239 0 4.279-2.359 6.959-6.158 6.959-5.479 0-5.999-5.119-6.52-9.239-.399-3.159-.6-4.079-1.199-4.519-.24-.2-.721-.28-1.48-.28-2.119 0-3.119 1.359-3.119 4.239 0 2.96 1 4.239 3.68 4.6v4.319c-5.08-.519-7-3.999-7-9.038zm12.038.72c.319 2.12.72 4.52 3.439 4.52 1.959 0 3.079-1.359 3.079-3.72 0-1.879-.6-3.639-1.64-4.679-.96-.96-2.319-.92-3.56-.92h-2.439c.841 1.479.881 3.159 1.121 4.799zm9.238-26.999h-8.318v3.879l8.318 6.359v5.359l-8.839-6.879c-1.159 3.639-3.479 4.438-6.079 4.438-3.599 0-5.719-2.399-5.719-6.799v-10.918h20.637zm-17.157 0v5.519c0 2.08.88 3.08 2.64 3.08 1.88 0 2.88-1.04 2.88-3.04v-5.559zm17.157-20.482h-20.637v-18.157h20.637v4.56h-17.037v9.038h17.037zm.68-32.079c0 6.359-4.599 10.159-10.758 10.159-6.479 0-11.158-4.199-11.158-9.999 0-6.039 4.439-9.798 11.558-9.798h.48v15.237c4.159-.12 6.519-2.16 6.519-5.679 0-2.52-1.12-4-3.759-4.92v-4.359c4.519 1.041 7.118 4.721 7.118 9.359zm-18.516.2c0 3 1.96 4.88 5.599 5.319v-10.599c-3.48.281-5.599 2.281-5.599 5.28zm10.158-18.88c0 4.12-2.159 6.52-6.159 6.52h-6.799v-4.56h5.199c2.64 0 3.92-1.24 3.92-3.76 0-1.56-.561-3.879-1-4.919h-8.119v-4.559h20.637v4.559h-8.759c.4 1.28 1.08 4.239 1.08 6.719zm-13.598-24.759c0-4.879 1.8-8.479 6.239-8.479h10.478c1.2 0 1.521-.24 1.521-1.08 0-.319 0-.479-.08-1.039h3.199c.359 1.439.439 2.079.439 2.959 0 1.76-.68 3.04-2.479 3.359 1.8 1.88 2.479 4.52 2.479 7.239 0 4.279-2.359 6.959-6.158 6.959-5.479 0-5.999-5.119-6.52-9.239-.399-3.159-.6-4.079-1.199-4.519-.24-.2-.721-.28-1.48-.28-2.119 0-3.119 1.359-3.119 4.239 0 2.96 1 4.239 3.68 4.6v4.319c-5.08-.52-7-3.999-7-9.038zm12.038.72c.319 2.12.72 4.52 3.439 4.52 1.959 0 3.079-1.359 3.079-3.72 0-1.879-.6-3.639-1.64-4.679-.96-.96-2.319-.92-3.56-.92h-2.439c.841 1.479.881 3.159 1.121 4.799zm-7.799-23.28h17.037v4.559h-17.037v6.799h-3.6v-18.156h3.6zm17.037-20.278v10.878h-20.637v-4.56h7.479v-6.278c0-4.52 2.52-7.039 6.56-7.039 4.079 0 6.598 2.519 6.598 6.999zm-9.598.6v5.719h6.039v-5.799c0-2.08-1.279-2.96-2.959-2.96-1.8-.001-3.08 1.08-3.08 3.04zm64.2 492.521v-460h16v460z" fill="#fff"/></svg>