<svg xmlns="http://www.w3.org/2000/svg" viewBox="0 0 358.55701 571.836" height="571.836" width="358.557"><path d="M.12 499.199v72.358h85.437v-18.72H16.08v-34.919h69.477v-18.719zm69.718-81.48v46.318h-21v-41.758H34.079v41.758H15.48v-45.478H.12v64.078h85.437v-64.918zm-17.16-39.84c0-5.04-1.56-14.279-2.399-18.359h35.278V340.8H.12v18.72h35.039c.48 2.76 1.92 11.76 1.92 16.919 0 9.6-3.72 13.319-14.04 13.319H.12v18.72h22.679c21.96 0 29.879-11.4 29.879-30.599zm13.8-69.84V276.24l19.079-6.72v-19.679L0 282.36v19.319l85.557 32.519v-19.199zM20.999 292.08l31.799-11.279v22.679zM.12 188.04v70.197h15.96v-25.679h69.477v-18.839H16.08V188.04zm57.958-78.72c-18.599 0-27.239 13.2-27.239 30.359v20.159H.12v18.599h85.437v-37.798c0-18.479-8.64-31.319-27.479-31.319zm12.12 50.519H45.599v-17.64c0-8.399 3.24-14.64 12.24-14.64 9.12 0 12.359 5.521 12.359 14.52zm106.52 392.998v-34.919h36.839v-18.719H128.12v18.719h32.16v34.919h-32.16v18.72h85.437v-18.72zm17.76-87v-31.799l19.079-6.72v-19.679L128 440.158v19.319l85.557 32.519v-19.199zm-45.479-15.959l31.799-11.28v22.68zm-20.879-83.041h85.437v-18.48h-27.599l-10.799-10.919 38.398-25.918V288l-51.718 36.599-33.719-33.479v23.639l35.519 33.598H128.12zm-2.04-122.878c0 25.559 17.76 42.358 44.878 42.358 26.759 0 44.639-16.92 44.639-42.238 0-25.079-17.999-41.999-44.639-41.999-26.758 0-44.878 16.92-44.878 41.879zm74.038 0c-.12 14.52-11.159 23.398-29.519 23.398-17.76 0-29.159-8.999-29.159-23.158 0-14.279 11.16-23.159 29.159-23.159 18.239 0 29.519 8.76 29.519 22.919zm-13.32-98.521h26.759v-17.999h-26.759l-10.439-9.24L213.557 95.4V72.121l-50.518 34.198-34.919-31.078V97.8l34.919 29.639H128.12v17.999h34.919l-34.919 29.639v22.559l34.919-31.079 50.518 34.199v-23.159l-37.198-22.919zm11.039-99.12h-20.999V4.561h-14.759v41.757H143.48V.84h-15.36v64.078h85.437V0h-15.72zm140.72 525.518v-412h20v412z" fill="#fff"/></svg>