<svg xmlns="http://www.w3.org/2000/svg" viewBox="0 0 281.65302 594.86499" height="594.865" width="281.653"><path d="M261.653 594.566v-412h20v412zm-261.561.299h65.501v-14.351H12.328v-26.771h53.265v-14.351H.092zm26.035-82.431H11.868v-34.867H.092v49.126h65.501v-49.77H53.542v35.511H37.443V480.42H26.127zm14.259-66.055c0-3.864-1.196-10.948-1.84-14.076h27.047v-14.351H.093v14.351h26.862c.368 2.116 1.472 9.016 1.472 12.972 0 7.359-2.852 10.211-10.764 10.211H.092v14.351h17.387c16.836 0 22.907-8.739 22.907-23.458zm10.58-53.544v-24.379l14.627-5.151v-15.087L0 373.149v14.812l65.593 24.929v-14.719zM16.099 380.6l24.379-8.647v17.387zM.092 354.653h12.236v-19.687h53.265v-14.443H12.328v-19.687H.092zm44.434-114.168c-14.259 0-20.883 10.119-20.883 23.275v15.455H.092v14.259h65.5v-28.979c.001-14.166-6.623-24.01-21.066-24.01zm9.292 38.73H34.959v-13.523c0-6.44 2.484-11.223 9.383-11.223 6.992 0 9.476 4.231 9.476 11.131zm46.274 274.528h24.655v26.771h-24.655v14.351h65.501v-14.351H137.35v-26.771h28.243v-14.351h-65.501zm50.874-39.929v-24.379l14.627-5.151v-15.087L100 494.128v14.812l65.593 24.931v-14.719zm-34.867-12.236l24.379-8.647v17.387zm2.944-120.702h46.55v-13.523h-65.501v20.055l44.986 14.903-44.986 15.271v20.515h65.501V424.39h-46.09l46.09-16.283v-11.132zm34.499-75.992v35.51h-16.099V308.38h-11.316v32.014h-14.259v-34.866h-11.776v49.125h65.501v-49.769zm-53.45-4.694h12.236v-19.687h53.265V266.06h-53.265v-19.687h-12.236zm65.501-62.101l-14.627-5.335v-24.379l14.627-5.152v-15.087L100 213.067v14.812l65.593 24.931zm-49.494-17.57l24.379-8.648v17.388zm23.827-45.173c13.431.368 15.363 3.496 15.363 7.359 0 1.84-.552 3.956-1.104 5.06h11.591c.644-1.932 1.104-5.52 1.104-8.096 0-11.223-8.188-17.57-26.771-18.215l-27.782-.92v-17.571h53.265v-14.351h-65.5v45.629zm0-66.423c13.431.368 15.363 3.496 15.363 7.359 0 1.84-.552 3.956-1.104 5.06h11.591c.644-1.932 1.104-5.52 1.104-8.096 0-11.223-8.188-17.57-26.771-18.215l-27.782-.92V76.54h53.265V62.189h-65.5v45.63zm-28.058-73.414V.644h-11.776v49.125h65.501V0h-12.051v35.509h-16.099V3.496h-11.316v32.013z" fill="#fff"/></svg>