<svg xmlns="http://www.w3.org/2000/svg" viewBox="0 0 256.892 645.95502" height="645.955" width="256.892"><path d="M.084 645.955h59.808v-13.104H11.256v-24.444h48.636v-13.103H.084zm23.772-75.265h-13.02v-31.835H.084v44.856h59.808v-45.444H48.888v32.423h-14.7v-29.231H23.856zm13.02-60.311c0-3.527-1.092-9.995-1.68-12.852h24.696v-13.104H.084v13.104h24.528c.336 1.932 1.344 8.232 1.344 11.844 0 6.72-2.604 9.324-9.828 9.324H.084v13.104H15.96c15.372 0 20.916-7.98 20.916-21.42zm9.66-48.887v-22.26l13.356-4.704v-13.776L0 443.516v13.524l59.892 22.764v-13.439zM14.7 450.32l22.26-7.896V458.3zM.084 426.632h11.172v-17.977h48.636v-13.187H11.256v-17.976H.084zm40.572-104.243c-13.02 0-19.068 9.24-19.068 21.252v14.112H.084v13.02h59.808v-26.46c0-12.936-6.048-21.924-19.236-21.924zm8.484 35.364H31.92v-12.349c0-5.88 2.268-10.248 8.568-10.248 6.384 0 8.652 3.864 8.652 10.164zm42.944 250.654h22.512v24.444H92.084v13.104h59.808v-13.104h-25.788v-24.444h25.788v-13.103H92.084zm46.453-36.456v-22.26l13.355-4.704v-13.776L92 553.975v13.524l59.892 22.764v-13.439zm-31.836-11.172l22.26-7.896v15.876zm15.371-55.356c18.732 0 31.248-11.844 31.248-29.567 0-17.556-12.6-29.4-31.248-29.4-18.731 0-31.415 11.845-31.415 29.316 0 17.891 12.431 29.651 31.415 29.651zm-.252-45.695c12.769 0 20.664 6.132 20.664 16.044-.084 10.164-7.812 16.38-20.664 16.38-12.432 0-20.411-6.3-20.411-16.212 0-9.997 7.811-16.212 20.411-16.212zm-29.736-22.344h59.808v-13.021h-21.504v-13.439c0-12.012-6.048-21.252-19.068-21.252-13.188 0-19.235 8.988-19.235 21.924v25.788zm19.404-34.945c6.637 0 8.568 4.368 8.568 10.248v11.676h-17.22v-11.76c0-5.795 2.268-10.164 8.652-10.164zM92.084 381.44h59.808v-13.104h-48.636v-28.56H92.084zm29.82-45.948c18.9 0 31.416-11.508 31.416-28.896 0-16.38-9.912-25.452-24.527-26.796v13.02c8.735 1.093 13.439 5.796 13.439 13.692 0 9.66-7.896 15.792-20.244 15.792-9.995 0-20.327-4.452-20.327-15.96 0-7.056 3.863-11.928 10.416-13.272V280.22c-12.349 1.008-21.42 11.508-21.42 25.872 0 18.312 13.859 29.4 31.247 29.4zm-18.648-107.435H92.084v49.139h11.172V259.22h48.636v-13.188h-48.636zm-.42-51.744H92.084v44.856h59.808v-45.444h-11.004v32.424h-14.7v-29.232h-10.332v29.232h-13.02zm49.056-9.744v-12.936h-19.32l-7.56-7.644 26.88-18.143v-16.464l-36.204 25.619-23.604-23.436v16.548l24.865 23.52H92.084v12.936zm-23.436-67.114c12.264.336 14.027 3.191 14.027 6.72 0 1.68-.504 3.612-1.008 4.62h10.584c.588-1.765 1.008-5.04 1.008-7.393 0-10.247-7.476-16.044-24.443-16.632l-25.368-.84V69.886h48.636V56.782H92.084v41.663zm-25.62-67.03V.589H92.084v44.855h59.808V0h-11.004v32.425h-14.7V3.192h-10.332v29.233zm138.056 613.326v-412h16v412z" fill="#fff"/></svg>