<svg xmlns="http://www.w3.org/2000/svg" viewBox="0 0 357.64401 462.414" height="462.414" width="357.644"><path d="M85.557 389.879H.121v72.357h85.436v-18.719H16.08v-34.919h69.477zm-36.719-76.921H34.079v41.759H15.48v-45.478H.121v64.077h85.436v-64.918H69.838v46.319h-21zm3.84-44.4c0-5.04-1.56-14.279-2.399-18.359h35.278V231.48H.121v18.719H35.16c.48 2.76 1.92 11.759 1.92 16.919 0 9.6-3.72 13.319-14.04 13.319H.121v18.719H22.8c21.959.001 29.878-11.399 29.878-30.598zm13.8-69.84V166.92l19.079-6.72v-19.68L0 173.039v19.319l85.557 32.519v-19.199zm-45.479-15.959l31.799-11.279v22.679zM16.08 78.72H.121v70.196H16.08v-25.678h69.477v-18.84H16.08zm14.759-48.361v20.159H.121v18.599h85.437V31.319C85.558 12.84 76.918 0 58.079 0c-18.6 0-27.24 13.2-27.24 30.359zm39.359 2.4v17.76H45.599v-17.64c0-8.399 3.24-14.64 12.24-14.64 9.119 0 12.359 5.521 12.359 14.52zm143.359 357.12h-85.436v18.719h32.158v34.919h-32.158v18.719h85.436v-18.719h-36.838v-34.919h36.838zm-19.079-33.362v-31.799l19.079-6.72v-19.679L128 330.838v19.319l85.557 32.519v-19.199zm-45.479-15.959l31.799-11.28v22.679zm64.558-82.802v-18.719H144.08v-34.918h69.477v-18.72h-85.436v72.357zM149.6 101.279c-15.119 0-21.479 12.24-21.479 27.239v40.438h85.437v-42.718c0-16.08-8.76-28.918-25.439-28.918-11.879 0-18.359 6.72-20.879 15.599-3.121-6.959-9.361-11.64-17.64-11.64zm-6.96 49.439v-17.039c0-7.2 1.44-14.159 10.08-14.159s9.959 7.319 9.959 14.159v17.039zm56.038-18.84v18.839h-23.279v-17.879c0-8.399 1.32-16.799 11.639-16.799 10.08 0 11.64 7.8 11.64 15.839zm-70.557-62.521v21.84l40.798-27.84 44.638 30.119V72.117l-29.639-18.959 29.639-18.719V12l-44.638 29.999-40.798-27.48v20.64L155.6 52.318zm209.523 393.057v-412h20v412z" fill="#fff"/></svg>