<svg xmlns="http://www.w3.org/2000/svg" viewBox="0 0 329.55701 464.51501" height="464.515" width="329.557"><path d="M.12 462.236h85.437v-18.72H16.08v-34.919h69.477v-18.719H.12zm33.959-107.52H15.48v-45.478H.12v64.078h85.437v-64.918H69.838v46.318h-21v-41.758H34.079zm18.599-86.158c0-5.04-1.56-14.279-2.399-18.359h35.278v-18.72H.12v18.72h35.039c.48 2.76 1.92 11.76 1.92 16.919 0 9.6-3.72 13.319-14.04 13.319H.12v18.72h22.679c21.96 0 29.879-11.4 29.879-30.599zm13.8-69.84v-31.799l19.079-6.72V140.52L0 173.039v19.319l85.557 32.519v-19.199zm-45.479-15.959l31.799-11.279v22.679zM.12 148.916h15.96v-25.679h69.477v-18.839H16.08V78.719H.12zM30.839 30.359v20.159H.12v18.599h85.437V31.319C85.557 12.84 76.917 0 58.078 0 39.479-.001 30.839 13.2 30.839 30.359zm39.359 2.399v17.76H45.599v-17.64c0-8.399 3.24-14.64 12.24-14.64 9.119.001 12.359 5.521 12.359 14.52zm80.705 392.351h23.583v25.606h-23.583v13.728h62.654v-13.728h-27.016v-25.606h27.016V411.38h-62.654zm62.654-33.09l-13.991-5.104v-23.319l13.991-4.928v-14.432l-62.742 23.848v14.167l62.742 23.848zm-47.343-16.807l23.319-8.272v16.632zm-38.094-71.824h85.437v-18.72h-69.478v-34.919h69.478v-18.718H128.12zm21.48-156.477c-15.12 0-21.479 12.239-21.479 27.239v40.438h85.436V171.87c0-16.079-8.76-28.919-25.439-28.919-11.879 0-18.358 6.72-20.879 15.6-3.119-6.961-9.36-11.64-17.639-11.64zm-6.96 49.438v-17.04c0-7.199 1.439-14.159 10.079-14.159s9.96 7.319 9.96 14.159v17.04zm56.038-18.84v18.84h-23.279v-17.88c0-8.399 1.319-16.799 11.64-16.799 10.079 0 11.639 7.8 11.639 15.839zm14.879-38.4v-21.36L183.918 98.79l29.639-18.718v-22.44l-44.639 29.999-40.798-27.479v20.639l27.479 17.16-27.479 17.039v21.839l40.798-27.839zm96 325.406v-412h20v412z" fill="#fff"/></svg>