<svg xmlns="http://www.w3.org/2000/svg" viewBox="0 0 149 107.70176" height="107.702" width="149"><path d="M90.85 24.587c.48-.016.874-.4.877-.858.002-.461-.383-.827-.866-.812-.479.01-.874.395-.877.858-.002.458.385.822.867.812zm-16.865-7.974c.737-.026 1.34-.62 1.342-1.336.006-.705-.588-1.27-1.318-1.244-.74.027-1.34.62-1.342 1.334-.005.708.584 1.267 1.318 1.246zM26.496 83.184h-3.143v4.065c0 .692.75 1.24 1.73 1.24h1.615c2.133 0 3.172-.98 3.172-2.48 0-2.134-1.068-2.825-3.374-2.825zm73.84 20.331h2.174l-1.077-2.931zm11.484-.437h-1.657v2.316h1.657c.927 0 1.39-.374 1.39-1.149 0-.784-.454-1.167-1.39-1.167zM29.553 77.733c0-1.73-1.587-2.277-3.057-2.277h-1.47c-.491 0-1.154.115-1.702.202v4.47h3.028c1.758-.001 3.2-.694 3.2-2.395zm.48 25.782h2.174l-1.078-2.931zM5.475 83.818h6.113c-.663-2.768-2.019-6.085-3.057-7.93-1.152 2.047-2.393 5.19-3.056 7.93zm59.554 19.697h2.173l-1.077-2.931zm-57.786-3.012H5.746v2.317h1.613c.81 0 1.433-.223 1.433-1.159 0-1.015-.72-1.158-1.55-1.158zm120.89.874c0 1.577-.33 3.225-.722 4.018h3.119v-4.882h-2.397v.864zm11.887-25.489c-1.153 2.047-2.394 5.19-3.057 7.93h6.113c-.663-2.768-2.019-6.085-3.057-7.93zm5.094 25.712c0 .784.509 1.104 1.444 1.104h1.604v-2.21h-1.604c-.927 0-1.444.33-1.444 1.105zm-99.454-1.24c-1.497 0-2.192 1.23-2.192 2.584 0 1.586.864 2.61 2.21 2.61 1.327 0 2.191-1.032 2.191-2.61 0-1.567-.864-2.583-2.21-2.583z" fill="none"/><path d="M24.938 92.093h2.134c3.605 0 6.777-2.22 6.777-6.2 0-1.73-1.5-3.776-3.49-4.324 1.962-.577 3.143-1.99 3.143-4.182 0-3.23-2.68-5.219-6.46-5.219H24.65c-1.644 0-4.268.548-5.22.893v14.332c0 3.085 1.818 4.7 5.508 4.7zm1.76-3.604h-1.615c-.981 0-1.73-.549-1.73-1.241v-4.065h3.142c2.307 0 3.374.691 3.374 2.825 0 1.5-1.038 2.481-3.172 2.481zm-3.374-12.832c.547-.086 1.21-.202 1.7-.202h1.471c1.47 0 3.057.548 3.057 2.278 0 1.7-1.442 2.393-3.201 2.393h-3.028v-4.469zm-11.563-1.586c-.548-.951-1.615-1.817-3.2-1.817H6.945C3.918 75.628.226 87.25.226 90.104c0 1.21.52 1.903 1.818 1.903h1.528A78.045 78.045 0 0 1 4.61 86.96h7.872c.202.836.375 1.846.548 3.143.143.951 1.009 1.903 2.652 1.903h1.615c-.779-6.229-3.748-14.735-5.536-17.936zm-6.286 9.747c.663-2.74 1.904-5.883 3.056-7.93 1.038 1.845 2.394 5.162 3.057 7.93zm100.375 5.536c0 1.73 1.153 2.653 2.306 2.653h1.587V74.33c0-1.269-1.096-2.076-2.105-2.076h-1.788v7.959h-7.987V74.33c0-1.124-.836-2.076-1.96-2.076H93.97v17.1c0 1.73 1.067 2.652 2.394 2.652h1.499V83.53h7.987zm-54.008 2.653h1.586V72.254h-1.99c-2.566 0-4.238 1.5-5.478 4.009l-3.374 6.863c-.404.807-1.297 2.739-1.787 3.315v-12.11c0-1.125-.837-2.077-1.961-2.077h-1.932v19.753h1.615c1.989 0 3.632-.952 5.564-4.73l3.806-7.439c.721-1.413 1.24-2.277 1.644-2.681v12.198c0 1.729 1.153 2.652 2.307 2.652zm75.836 0h1.586V74.33c0-1.269-1.096-2.076-2.105-2.076h-1.788v7.959h-7.987V74.33c0-1.124-.836-2.076-1.96-2.076h-1.933v17.1c0 1.73 1.067 2.652 2.393 2.652h1.5V83.53h7.987v5.825c0 1.729 1.154 2.652 2.307 2.652zm-41.811-3.259c-3.056 0-4.18-.663-4.18-4.094V83.5h5.218c1.586 0 2.394-.518 2.394-1.816V80.27h-7.612c0-1.24.086-3.172.288-4.613h6.776c1.817 0 2.652-.692 2.652-2.076v-1.327H81.08c-1.615 0-2.71.606-3.028 2.97-.23 1.587-.374 3.692-.374 5.566v3.663c0 5.045 2.537 7.698 7.353 7.698h2.105c3.46 0 4.267-.865 4.296-2.45l.029-1.385c-1.413.318-2.884.432-4.325.432h-1.269zm49.193 3.259a78.045 78.045 0 0 1 1.038-5.046h7.872c.202.836.375 1.846.548 3.143.144.951 1.009 1.903 2.652 1.903h1.615c-.779-6.228-3.749-14.735-5.536-17.935-.548-.952-1.615-1.817-3.2-1.817h-1.615c-3.028 3.374-6.72 14.994-6.72 17.85 0 1.21.52 1.902 1.818 1.902h1.528zm4.96-16.119c1.037 1.845 2.393 5.162 3.056 7.93h-6.113c.663-2.74 1.904-5.883 3.056-7.93zM72.66 88.546v-14.33c0-1.155-1.095-1.962-2.046-1.962h-1.847v16.292H65.54c-3.374 0-4.47-1.068-4.47-4.21V74.157c0-1.153-1.008-1.903-1.99-1.903h-1.903v11.591c0 5.422 2.538 8.16 7.584 8.16h7.208v2.437c0 1.447.808 2.466 2.624 2.466h1.067V90.91c0-2.104-1.326-2.364-2.999-2.364zm-59.956 15.103L10.85 99.78h-.918l2.317 4.687-.107.223c-.214.445-.499.872-.945.872-.392 0-.596-.088-.713-.16v.714c.18.08.5.16.785.16.624 0 1.149-.356 1.684-1.443l2.468-5.052h-.9zm-8.535-3.137v-.73H0v6.343h.837v-5.613zm57.536 0v5.613h.837v-6.344h-5.024v6.344h.837v-5.613zm-54.186-.731h-2.61v6.344h.837v-2.601h1.72c1.238 0 2.164-.482 2.164-1.916 0-1.318-.9-1.827-2.111-1.827zm-.16 3.039H5.746v-2.317h1.497c.829 0 1.55.142 1.55 1.158 0 .936-.624 1.159-1.434 1.159zm125.559-3.039v6.344h1.05l3.119-5.39h.018v5.39h.837v-6.344h-1.06l-3.11 5.373h-.018V99.78zm-94.876 0h-.837v6.344h.837v-2.227l1.051-.998 2.299 3.225h1.069l-2.78-3.795 2.673-2.549h-1.096l-3.216 3.146zm27.628 0l-2.494 6.344h.89l.722-1.942h2.664l.704 1.942h.936l-2.477-6.344zm-.641 3.734l1.095-2.931 1.078 2.93zm-44.752-3.003v5.613h.837v-6.344H16.09v6.344h.837v-5.613zm10.397-.731l-2.494 6.344h.89l.722-1.942h2.664l.703 1.942h.936l-2.477-6.344zm-.64 3.734l1.095-2.931 1.078 2.93zM45.66 99.63c-1.845 0-3.03 1.274-3.03 3.252 0 1.845 1.007 3.394 3.038 3.394 2.014 0 3.038-1.514 3.038-3.376 0-1.89-1.078-3.27-3.047-3.27zm.017 5.924c-1.345 0-2.21-1.023-2.21-2.61 0-1.354.696-2.583 2.192-2.583 1.346 0 2.21 1.015 2.21 2.583 0 1.578-.864 2.61-2.192 2.61zm95.108-5.042v5.613h.837v-5.613h2.13v-.73h-5.097v.73zm5.487-.731c-1.238 0-2.004.625-2.004 1.818 0 1.06.588 1.657 1.577 1.792l-2.12 2.734h1.034l2.094-2.708h1.31v2.708H149v-6.344zm1.89 2.923h-1.604c-.936 0-1.444-.32-1.444-1.105 0-.775.517-1.105 1.444-1.105h1.603zM26.71 100.512v5.613h.837v-6.344h-5.025v6.344h.838v-5.613zm23.057 5.613h.8v-5.292l2.024 5.292h.73l1.988-5.292v5.292h.792v-6.344h-1.168l-1.968 5.373-2.04-5.373h-1.158zm19.956-6.344v6.344h.838v-2.967h3.35v2.967h.837v-6.344h-.838v2.647h-3.35v-2.647zm36.761 6.344v-5.613h2.129v-.73h-5.096v.73h2.129v5.613zm5.621-3.768h-1.942V99.78h-.837v6.344h2.779c1.238 0 1.951-.686 1.951-1.88 0-1.203-.704-1.888-1.951-1.888zm-.285 3.037h-1.657v-2.316h1.657c.936 0 1.39.383 1.39 1.167 0 .775-.463 1.15-1.39 1.15zm5.756-5.613v6.344h1.051l3.117-5.39h.018v5.39h.838v-6.344h-1.06l-3.11 5.373h-.018V99.78zm-26.068 6.344h.8v-5.292l2.023 5.292h.73l1.988-5.292v5.292h.792v-6.344h-1.167l-1.968 5.373-2.04-5.373h-1.158zm9.47-6.344l-2.495 6.344h.891l.721-1.942h2.665l.703 1.942h.936l-2.477-6.344zm-.642 3.734l1.097-2.931 1.077 2.93zm-24.179-3.734v6.344h1.05l3.119-5.39h.017v5.39h.838v-6.344h-1.06l-3.11 5.373h-.018V99.78zm10.28-1.665h-.454c-.142.428-.428.694-.89.694-.455 0-.767-.266-.892-.694h-.454c.09.712.615 1.23 1.354 1.23.776 0 1.22-.518 1.336-1.23zm-3.847 1.665v6.344h1.05l3.118-5.39h.018v5.39h.837v-6.344h-1.06l-3.11 5.373h-.017V99.78zm48.777 0h-4.054v1.23c0 1.746-.347 3.529-.828 4.383h-.624v2.308h.811v-1.577h4.588v1.577h.811v-2.308h-.704v-5.613zm-.838 5.613h-3.119c.393-.792.722-2.44.722-4.018v-.864h2.397v4.882z" fill="#404041"/><path d="M47.193 32.277c2.414-1.527 5.144-1.732 7.953-1.127 8.918 1.91 15.148 8.991 24.958 10.307-3.12-7.03-12.665-7.386-13.303-13.849-.36-3.7 2.136-6.246 6.048-6.156 1.804.042 3.354.661 5.04 1.194.764.245 1.388.393 1.523.229.445-.57-2.02-2.926-.88-4.281 4.612-5.483 4.54-12.353-.607-16.231-5.038-3.8-11.894-2.624-17.852.749-2.095.439-4.74.543-6.977.12-.151-.04-.2.106-.1.184.955.746 2.17 1.519 3.514 2.047-8.098 5.565-12.584 15.848-13.214 21.962-.639 6.29-.397 9.064.638 13.381-.002-3.275.646-6.862 3.26-8.529zM74.01 14.033c.73-.026 1.324.54 1.318 1.244-.003.717-.605 1.31-1.342 1.336-.734.021-1.323-.538-1.318-1.246.002-.714.603-1.307 1.342-1.334z" fill="#ffc63b"/><path d="M69.55 39.241c-5.411-2.772-10.43-6.096-16.12-6.283-2.604-.05-5.001.494-6.622 2.008-7.51 7.035 6.315 32.116 31.562 31.38 10.934-.422 22.207-7.056 26.59-15.776-2.773 3.214-14.603 10.654-28.636 9.045-.518-.01-1.03-.3-.24-.486 11.796.933 33.522-6.491 32.8-18.881-5.634 6.746-21.766 14.8-40.449 8.634-1.05-.294-.915-1.046.026-.671 11.87 3.714 28.72 1.565 38.725-7.705 1.67-1.543 4.84-6.664 4.061-9.594-5.617 6.01-12.072 9.991-20.587 11.526-7.765 1.402-14.336.267-21.11-3.197z" fill="#ffc63b"/><path d="M83.407 41.73c5.54.437 13.29-1.354 18.707-4.658l-.005-.005.057-.02c-.307-1.163-1.706-2.783-2.939-3.701-1.675-1.23-3.586-1.785-4.99-1.298-1.34.468-1.9 1.763-1.65 3.34.022.127.05.262.076.4.219.905-.294.27-.358-.016-.055-.132-.1-.262-.147-.395-.608-1.855-.14-3.475 1.384-4.055 1.459-.554 3.506-.005 5.285 1.27a9.924 9.924 0 0 1-.744-2.154c-.325-1.524-.226-3.05-.265-4.546-.107-3.54-1.938-6.465-6.019-6.21-2.01.124-3.734 1.365-4.697 3.29-.566.9-2.27.852-2.392 1.199-.125.264.89.943 1.451 1.614.858 1.023.702 2.424.351 3.459-1.056 3.11-6.207 7.454-3.105 12.486zm7.454-18.813c.484-.015.869.35.866.812-.002.458-.398.842-.876.858-.481.01-.868-.354-.866-.812.003-.463.397-.847.876-.858z" fill="#ffc63b"/></svg>