<svg xmlns="http://www.w3.org/2000/svg" viewBox="0 0 175 76.120094" height="76.12" width="175"><path d="M169.054 5.942C163.116 0 154.18 0 148.24 0h-16.466c-1.579 0-3.571 0-5.149 1.578-1.61 1.584-1.61 3.56-1.61 5.155v2.764h23.818c1.579 0 3.964 0 5.548 1.599 1.583 1.578 1.583 3.96 1.583 5.553v23.787c0 1.578 0 3.969-1.583 5.548-1.584 1.588-3.97 1.588-5.548 1.588h-11.505c-1.982 0-4.563 0-5.553-2.187-.99-2.175.393-4.159 1.589-5.746l15.47-20.604h-23.819l-9.502 12.685c-1.583 2.124-2.968 3.96-2.968 6.335 0 2.38 1.27 4.1 2.968 6.35l2.391 3.167c2.36 3.168 4.75 6.346 7.918 7.934 3.179 1.579 6.943 1.579 12.104 1.579h10.315c5.941 0 14.876 0 20.813-5.941C175 45.19 175 36.47 175 33.292v-9.516c0-3.173 0-11.893-5.946-17.834zM118.25 19.036H94.464l-28.548 38.06h23.787zM71.972 38.055c0-2.376-1.294-4.09-2.977-6.335l-2.366-3.183c-2.391-3.167-4.771-6.345-7.95-7.934-3.161-1.568-6.938-1.568-12.093-1.568H6.744c-1.594 0-3.577 0-5.16 1.568C0 22.192 0 24.179 0 25.757v2.78h9.517V76.12h19.031V28.537h18.626c1.992 0 4.567 0 5.569 2.183.985 2.191-.4 4.173-1.594 5.751l-15.47 20.625h23.797l9.518-12.691c1.6-2.13 2.978-3.968 2.978-6.35z" fill="#e21a1a"/></svg>