<svg xmlns="http://www.w3.org/2000/svg" viewBox="0 0 145 50.562484" height="50.562" width="145"><path d="M69.594 21.278c6.807 0 12.207 2.227 14.99 4.313a1.55 1.55 0 0 0 2.173-.313 1.55 1.55 0 0 0-.309-2.176c-4.126-3.089-10.425-4.934-16.853-4.934-6.453 0-12.769 1.845-16.897 4.934a1.562 1.562 0 0 0-.312 2.177 1.56 1.56 0 0 0 1.245.623c.326 0 .653-.102.93-.31 2.786-2.087 8.198-4.314 15.033-4.314z" fill="#be0027" stroke-width=".477"/><path d="M84.918 28.167a1.06 1.06 0 0 0-.148-1.495c-3.57-2.933-9.24-4.683-15.174-4.683-5.962 0-11.65 1.75-15.22 4.683a1.065 1.065 0 0 0 1.351 1.643c3.151-2.592 8.467-4.2 13.87-4.2 5.454 0 10.622 1.57 13.826 4.199a1.062 1.062 0 0 0 1.495-.147zM46.715 13.309h.024c.635 0 1.261-.171 1.81-.496a3.538 3.538 0 0 0 1.636-2.18c.239-.922.1-1.882-.385-2.7a3.586 3.586 0 0 0-3.076-1.752 3.573 3.573 0 0 0-3.447 2.679 3.545 3.545 0 0 0 .385 2.7 3.599 3.599 0 0 0 3.053 1.749zm22.858 2.743c1.966 0 3.563-1.6 3.563-3.565a3.567 3.567 0 0 0-3.563-3.562 3.57 3.57 0 0 0-3.568 3.562 3.571 3.571 0 0 0 3.568 3.565zm0-8.926c1.966 0 3.563-1.6 3.563-3.564A3.567 3.567 0 0 0 69.666 0h-.184a3.572 3.572 0 0 0-3.477 3.562 3.571 3.571 0 0 0 3.568 3.564zM59.149 10.29a3.57 3.57 0 0 0-2.499 4.379c.418 1.53 1.827 2.607 3.423 2.626h.084a3.74 3.74 0 0 0 .879-.127 3.537 3.537 0 0 0 2.153-1.673 3.535 3.535 0 0 0 .34-2.705 3.573 3.573 0 0 0-4.38-2.5zm-11.327 6.252a3.57 3.57 0 0 0 .382 2.703 3.61 3.61 0 0 0 3.059 1.747l.018.001c.639 0 1.26-.173 1.811-.495a3.533 3.533 0 0 0 1.637-2.183c.237-.922.1-1.88-.383-2.699a3.593 3.593 0 0 0-3.08-1.751c-.633 0-1.258.17-1.805.497a3.53 3.53 0 0 0-1.639 2.18zm30.292.625c.31.085.627.128.943.128a3.575 3.575 0 0 0 3.436-2.625 3.572 3.572 0 0 0-2.499-4.38 3.574 3.574 0 0 0-4.376 2.5 3.565 3.565 0 0 0 2.496 4.377zm2.356-8.608c.307.086.625.127.94.127 1.6 0 3.017-1.081 3.437-2.625a3.57 3.57 0 0 0-3.439-4.505 3.573 3.573 0 0 0-3.436 2.625A3.57 3.57 0 0 0 80.47 8.56zm3.95 9.756a3.526 3.526 0 0 0 1.635 2.182 3.586 3.586 0 0 0 1.814.496 3.58 3.58 0 0 0 3.069-1.75c.485-.82.62-1.78.383-2.7a3.542 3.542 0 0 0-1.637-2.18 3.543 3.543 0 0 0-1.808-.497 3.58 3.58 0 0 0-3.071 1.75 3.533 3.533 0 0 0-.386 2.699zm6.18-5.503a3.558 3.558 0 0 0 4.884-1.253 3.537 3.537 0 0 0 .382-2.698 3.567 3.567 0 0 0-3.448-2.677 3.582 3.582 0 0 0-3.07 1.747 3.536 3.536 0 0 0-.384 2.7 3.527 3.527 0 0 0 1.636 2.181zM57.718 8.685h.022c.318 0 .634-.043.94-.126a3.566 3.566 0 1 0-4.385-2.497 3.591 3.591 0 0 0 3.423 2.623zm65.164 39.812V34.201a2.064 2.064 0 1 0-4.126 0v14.296a2.064 2.064 0 1 0 4.126 0zm-59.029-1.935l-3.888-.003a.224.224 0 0 1-.223-.223l.001-11.823a2.011 2.011 0 0 0-4.02 0v14.715c0 .619.5 1.12 1.12 1.12l7.01.001a1.893 1.893 0 1 0 0-3.787zm52.8 1.268V34.05a1.913 1.913 0 0 0-3.824 0v8.259l-.118.118-.098-.058-4.813-8.503c-.47-.837-1.28-1.289-2.373-1.289-1.395 0-2.563 1.13-2.563 2.523v13.55c0 1.055.896 1.911 1.952 1.911 1.055 0 1.952-.856 1.952-1.911l-.001-8.261c0-.066.053-.118.118-.118l.102.057 4.941 8.735a2.523 2.523 0 0 0 2.203 1.288 2.52 2.52 0 0 0 2.522-2.521zm20.235-15.692a1.912 1.912 0 0 0-1.911 1.91v8.26l-.12.117-.097-.056-4.813-8.503c-.47-.837-1.282-1.289-2.373-1.289-1.394 0-2.565 1.13-2.565 2.52V48.65c0 1.056.898 1.912 1.953 1.912 1.055 0 1.952-.856 1.952-1.912l-.002-8.261a.12.12 0 0 1 .122-.116l.098.056 4.943 8.736a2.525 2.525 0 0 0 4.725-1.234V34.048c0-1.054-.857-1.91-1.912-1.91zm-92.946 2.345a1.868 1.868 0 0 0-3.224-1.287L36.32 37.83a.263.263 0 0 1-.373 0l-4.4-4.633a1.867 1.867 0 1 0-2.727 2.55l5.344 6.199.084 6.518a1.886 1.886 0 0 0 3.768 0l.088-6.518 5.34-6.199a1.85 1.85 0 0 0 .498-1.263zm-22.889-1.839a8.876 8.876 0 0 0-8.877 8.877 8.878 8.878 0 0 0 8.877 8.879c4.9 0 8.877-3.977 8.877-8.88 0-4.902-3.977-8.876-8.877-8.876zm0 13.655a4.777 4.777 0 1 1 0-9.555 4.777 4.777 0 0 1 0 9.555zm70.061-13.128a2.032 2.032 0 0 0-1.54-.706c-1.122 0-2.032.562-2.032 1.684v14.264c0 1.07.868 1.934 1.936 1.934 1.07 0 2.047-.864 2.047-1.934l.017-1.582h4.87l2.062 2.749a1.914 1.914 0 1 0 3.06-2.305zm2.261 9.779l-1.835-.003V40.02l1.971 2.673.03.092c0 .09-.075.165-.166.165zM51.234 32.464c-.617 0-1.168.276-1.541.707L39.276 47.276a1.915 1.915 0 0 0 3.058 2.304l2.063-2.747h4.869l.016 1.579c0 1.07.98 1.937 2.047 1.937a1.936 1.936 0 0 0 1.936-1.937V34.495c0-1.121-.91-2.03-2.031-2.03zm-1.967 10.483l-1.835.002a.163.163 0 0 1-.164-.166l.026-.09 1.973-2.673v2.927zm36.775 4.611a1.87 1.87 0 0 0 .438-1.208 1.884 1.884 0 0 0-2.748-1.678l-1.546 1.042a4.633 4.633 0 0 1-2.522.745c-2.621 0-4.698-2.188-4.698-4.886 0-2.699 2.077-4.886 4.698-4.886.927 0 1.79.273 2.522.743l1.496.996c.26.132.553.206.865.206a1.884 1.884 0 0 0 1.447-3.093c-1.463-1.718-3.598-2.792-6.137-2.792a8.824 8.824 0 0 0-8.824 8.825c0 5.513 4.652 8.826 8.35 8.826 2.54.001 5.197-1.121 6.66-2.84zm-73.825 1.029c0-.3-.075-.58-.2-.832L9.12 43.159c1.441-.753 2.531-2.515 2.531-4.485 0-3.3-2.321-5.777-5.714-5.978-1.894-.11-3.281.565-4.327 1.54C.398 35.365.01 36.918 0 38.592v.093l.28 9.823a1.886 1.886 0 1 0 3.773 0l.068-4.715c0-.114.091-.208.205-.208l.097.024 4.63 6.292c.325.305.761.495 1.243.495.998-.001 1.921-.811 1.921-1.81zM5.735 40.5c-1.143 0-2.072-.856-2.072-1.915 0-1.06.929-1.917 2.072-1.917 1.146 0 2.076.858 2.076 1.917 0 1.059-.93 1.915-2.076 1.915zm138.089-6.757c0-.527-.385-.661-.845-.661h-.639c-.215 0-.26.106-.26.236v1.748c0 .183.055.274.253.274.2 0 .257-.114.257-.274V34.4h.169l.355.666c.075.135.13.274.313.274.188 0 .265-.074.265-.201l-.034-.117-.4-.657c.362-.019.566-.221.566-.622zm-.81.247h-.424v-.503h.424c.187 0 .299.05.299.256 0 .203-.112.247-.299.247z" fill="#be0027" stroke-width=".477"/><path d="M142.916 32.089a2.087 2.087 0 0 0-2.083 2.083c0 1.148.936 2.081 2.083 2.081a2.085 2.085 0 0 0 2.084-2.08 2.086 2.086 0 0 0-2.084-2.084zm0 3.658c-.87 0-1.573-.703-1.573-1.574 0-.872.703-1.575 1.573-1.575.872 0 1.575.703 1.575 1.575 0 .87-.703 1.574-1.575 1.574z" fill="#be0027" stroke-width=".477"/></svg>