<svg xmlns="http://www.w3.org/2000/svg" width="365.186" height="114.456" viewBox="0 0 365.186 114.456"><path d="M307.958 0c31.605 0 57.228 25.621 57.228 57.228 0 31.605-25.622 57.228-57.228 57.228S250.73 88.834 250.73 57.228C250.731 25.621 276.352 0 307.958 0zm0 31.81c14.038 0 25.418 11.38 25.418 25.418 0 14.037-11.38 25.417-25.418 25.417-14.038 0-25.418-11.38-25.418-25.417 0-14.038 11.38-25.418 25.418-25.418z" clip-rule="evenodd" fill="#f33" fill-rule="evenodd"/><path d="M215.509 0c15.803 0 30.11 6.405 40.466 16.761l-22.493 22.493a25.337 25.337 0 0 0-17.973-7.444c-14.038 0-25.418 11.38-25.418 25.418 0 14.037 11.38 25.417 25.418 25.417 6.02 0 11.551-2.093 15.905-5.59V57.228h31.809v55.667h-.001l-20.278-5.434c-8.145 4.458-17.494 6.994-27.435 6.994-31.607 0-57.228-25.622-57.228-57.228S183.903 0 215.509 0z" clip-rule="evenodd" fill="#c0f" fill-rule="evenodd"/><path d="M115.68 0c31.606 0 57.227 25.621 57.227 57.228 0 31.605-25.621 57.228-57.227 57.228-31.606 0-57.227-25.622-57.227-57.228C58.453 25.621 84.074 0 115.68 0zm0 31.81c14.038 0 25.418 11.38 25.418 25.418 0 14.037-11.38 25.417-25.418 25.417-14.037 0-25.418-11.38-25.418-25.417 0-14.038 11.381-25.418 25.418-25.418z" clip-rule="evenodd" fill="#36f" fill-rule="evenodd"/><path clip-rule="evenodd" fill="#0c3" fill-rule="evenodd" d="M0 1.561h31.81v79.523h47.714v31.811H0z"/></svg>