<svg xmlns="http://www.w3.org/2000/svg" viewBox="0 0 29.718 17.402" height="17.402" width="29.718"><path d="M24.687 8.533s3.916-5.523 4.305-7.339c.13-.648-.156-1.012-.83-1.012h-3.397c-.778 0-1.063.337-1.296.83 0 0-1.836 3.914-4.072 6.38-.717.797-1.082 1.037-1.478 1.037-.32 0-.467-.267-.467-.985V1.142c0-.882-.104-1.142-.83-1.142h-5.446c-.415 0-.674.241-.674.57 0 .831 1.271 1.019 1.271 3.268V8.48c0 .934-.052 1.296-.493 1.296-1.167 0-3.941-4.019-5.497-8.583C5.472.259 5.135 0 4.253 0H.856C.363 0 0 .338 0 .83c0 .907 1.064 5.109 5.238 10.736 2.801 3.786 6.483 5.835 9.802 5.835 2.023 0 2.516-.338 2.516-1.193v-2.904c0-.727.285-1.037.7-1.037.467 0 1.291.149 3.215 2.049 2.282 2.178 2.438 3.086 3.683 3.086h3.812c.389 0 .752-.182.752-.83 0-.855-1.115-2.386-2.827-4.201-.7-.934-1.841-1.945-2.204-2.411-.519-.545-.364-.856 0-1.427z" fill="#fff"/></svg>