<svg xmlns="http://www.w3.org/2000/svg" viewBox="0 0 109 112.61957" height="112.62" width="109"><path d="M31.763 87.993l.003-.998c.045-1.215-.213-1.874-1.285-1.383l-1.478.677c-1.258.742-1.412 1.557-1.412 2.974 0 1.078.1 2.069 1.447 1.586.442-.173.836-.331 1.288-.52 1.157-.533 1.36-1.192 1.437-2.336zm28.847-1.946c-.019.231-.038.455-.048.68-.04.215-.078.44-.107.656-.049.208-.107.416-.165.624-.068.216-.147.416-.224.616-.234.531-.506 1.032-.77 1.547l6.162-2.613v-5.802l-4.848 2.051v2.24zm-8.747-17.042c-.107-.75-.74-.941-1.613-.563l-2.573 1.07v2.527l3.232-1.369c.725-.43 1.01-.982.954-1.665zM38.228 82.303a14.55 14.55 0 0 0-.988.42c-1.043.412-1.718 1.226-1.718 2.56v1.32c0 1.392.796 1.177 1.853.72.322-.14.645-.28.968-.413 1.027-.476 1.275-1.094 1.3-2.155v-1.288c-.044-1.211-.316-1.552-1.415-1.164zm-1.736 11.783l-2.814 1.218c-1.19.7-1.774 1.596-1.774 2.918v1.42c0 1.297.591 1.75 2.039 1.186l3.049-1.27c1.005-.592 1.713-1.097 1.922-2.45l.01-1.854c-.052-1.99-1.185-1.725-2.432-1.168zm5.628-21.984l-2.737 1.185v2.272l2.778-1.161c.833-.388 1.31-.987 1.151-1.799-.18-.644-.578-.704-1.193-.497zm1.032-2.473c.108-.772-.326-1.057-1.102-.737l-2.667 1.128v2.186a40 40 0 0 0 .856-.38c1.193-.449 2.76-.8 2.913-2.197zm-17.957 6.62c-.634.2-1.32.527-1.931.786-.078.023-.156.07-.233.1a3.22 3.22 0 0 1-.254.14c-.078.06-.155.122-.224.177a9.499 9.499 0 0 1-.194.216c-.059.092-.117.177-.166.255-.039.1-.078.2-.117.293a8.44 8.44 0 0 1-.087.309c-.02.139-.04.255-.049.363l-.03.71 4.443-1.849c-.016-.906.118-2.055-1.158-1.5zm-9.193 26.532c-.32.137-.632.273-.943.402-.166.084-.331.167-.487.243l-.438.275a13.47 13.47 0 0 1-.38.314c-.107.123-.214.237-.32.36-.088.13-.176.262-.254.392l-.175.416-.117.47-.03.456v1.414c.01.154.02.31.04.456l.116.419c.069.116.147.233.224.341.108.079.214.156.331.22.127.04.253.071.38.103.136 0 .273-.006.418-.012.147-.03.302-.067.458-.105.204-.076.409-.159.614-.234.281-.122.554-.243.826-.357l2.082-.902-.007-5.68zm76.763-41.143l-2.602 1.076v2.374l3.02-1.303c.682-.404 1.035-.929.984-1.572-.101-.704-.582-.93-1.402-.575zm-66.97 38.294a4.377 4.377 0 0 1-.224-.335 7.53 7.53 0 0 1-.322-.226c-.136-.025-.263-.064-.39-.096-.135.007-.272.006-.408.02-.156.03-.312.067-.457.097-.214.09-.419.166-.623.242l-2.887 1.211.004 5.686 2.435-1.029.837-.356c.156-.084.321-.16.487-.236l.438-.275.38-.321c.097-.107.204-.23.31-.345a8.97 8.97 0 0 1 .254-.392 8.21 8.21 0 0 1 .185-.439c.03-.146.068-.3.107-.455.01-.154.02-.308.039-.478v-1.407a6.202 6.202 0 0 1-.039-.448 6.805 6.805 0 0 1-.126-.418zm35.802-27.531c-.6.19-1.248.498-1.825.743-1.11.326-1.295 1.414-1.336 2.442l4.255-1.768c-.016-.855.112-1.941-1.094-1.417zm15.316-4.029l-2.602 1.076v2.374l3.02-1.303c.682-.404 1.035-.929.984-1.571-.101-.705-.582-.931-1.402-.576zM32.115 78.425c.467-.183.882-.35 1.36-.549 1.221-.563 1.436-1.258 1.516-2.466l.004-1.33c.047-1.283-.225-1.979-1.357-1.46l-1.56.715c-1.328.783-1.491 1.92-1.492 3.415 0 1.139.107 2.185 1.529 1.675z" fill="none"/><path fill="#988b65" d="M60.673 58.341l6.596-2.95-.013-3.724-6.6 2.945zm41.731-5.963l6.596-2.95-.014-3.724-6.599 2.945z"/><path fill="#053844" d="M13.277 87.898v-6.424l4.283-1.82v6.42l1.548-.65v-7.88l-7.378 3.128v7.88zm8.643-7.225c.604-.255 1.208-.509 1.821-.778l3.913-1.664V76.98c-.01-.123-.01-.239-.01-.355-.01-.093-.019-.208-.029-.3a2.642 2.642 0 0 1-.039-.295 8.633 8.633 0 0 1-.059-.278 1.159 1.159 0 0 1-.078-.224c-.028-.077-.058-.147-.087-.232a.598.598 0 0 1-.107-.193.89.89 0 0 1-.117-.155.674.674 0 0 1-.127-.14c-.048-.023-.097-.061-.146-.092-.058-.023-.117-.054-.165-.07a1.408 1.408 0 0 1-.195-.031h-.214c-.088 0-.176.023-.254.03-.097.03-.184.054-.272.077-.107.046-.214.069-.312.123-.915.385-1.84.778-2.764 1.171-.068.03-.137.07-.195.092-.068.039-.127.07-.185.1-.058.039-.117.07-.175.108-.059.039-.117.07-.166.116l-.155.123c-.049.039-.098.093-.147.139-.048.031-.097.093-.146.139-.048.062-.097.108-.136.154-.048.062-.087.108-.126.162-.04.046-.078.116-.117.17a1.702 1.702 0 0 0-.108.17c-.038.062-.068.1-.097.17-.039.061-.068.124-.097.17-.03.069-.059.139-.078.193a2.476 2.476 0 0 0-.078.185c-.03.07-.049.131-.068.193-.02.07-.04.131-.059.193-.019.07-.039.131-.048.193-.02.07-.03.131-.04.193-.018.07-.029.117-.038.194l-.03.193c-.01.062-.019.131-.019.185-.01.062-.01.124-.01.185-.009.07-.009.132-.009.193v2.094c0 .116.01.216.02.325 0 .108.009.208.018.309.01.092.03.185.05.27.018.085.038.17.058.255.029.07.058.132.087.217.03.062.059.132.088.193.039.055.078.116.117.17.039.04.078.093.117.147.039.047.087.078.136.116.049.031.097.054.156.085.049.016.107.039.165.062.059.008.117.009.185.024.068 0 .137 0 .205-.008.067 0 .145-.015.223-.03.078-.015.166-.038.253-.07.088-.03.175-.068.273-.099.03-.023.068-.03.107-.046.916-.385 1.83-.778 2.745-1.163.088-.039.185-.093.283-.131.087-.047.175-.1.262-.14.078-.053.156-.099.244-.16a2.24 2.24 0 0 0 .233-.163c.068-.062.137-.108.205-.17.058-.054.117-.13.185-.185.048-.062.107-.123.165-.185.049-.07.098-.139.156-.216.039-.07.078-.14.126-.216a5.91 5.91 0 0 0 .117-.224c.03-.077.058-.163.097-.24a3.62 3.62 0 0 1 .078-.247c.02-.085.04-.17.068-.27.01-.085.02-.178.04-.27.009-.108.019-.194.028-.301 0-.047 0-.093.01-.132-.516.205-1.011.462-1.535.64 0 .687-.42 1.072-.908 1.397-.301.123-.593.239-.885.377-.41.17-.818.347-1.217.516-.088.031-.323.117-.4.132-.848.15-.788-.861-.788-1.446l.001-.472zm-.01-1.075l.03-.71c.01-.109.03-.224.049-.364.029-.093.058-.2.087-.308.04-.093.078-.193.117-.294.049-.077.107-.162.166-.255.058-.061.127-.139.194-.216l.224-.177c.078-.04.166-.085.254-.14.077-.03.155-.077.233-.1.61-.259 1.297-.585 1.931-.786 1.276-.555 1.142.595 1.158 1.5zm7.078-6.256v9.954l1.548-.657V79.38c.525 1.319 2.75-.043 3.562-.311.36-.16.76-.4 1.051-.675 1.09-1.027 1.005-2.04 1.164-3.432v-1.815c-.062-2.307-.787-2.69-2.721-1.729l-1.793.736c-.49.275-.893.64-1.263 1.287v-.753zm3.09-.007l1.56-.714c1.132-.52 1.404.176 1.357 1.46l-.004 1.329c-.08 1.208-.295 1.903-1.517 2.467a64.59 64.59 0 0 1-1.36.549c-1.421.51-1.528-.537-1.528-1.675.001-1.496.164-2.633 1.492-3.416zm12.688-.911c-.12-1.119-.642-1.398-1.178-1.353.795-.89.988-1.425.868-2.511-.472-1.809-2.278-.783-3.276-.394l-3.344 1.423v7.881c.438-.182.885-.371 1.323-.554.828-.349 1.645-.69 2.473-1.047 1.574-.66 3.27-1.377 3.134-3.445zm-5.383-2.404l2.667-1.128c.776-.32 1.21-.035 1.103.737-.153 1.397-1.72 1.748-2.913 2.197-.282.13-.574.258-.856.38V70.02zm2.777 4.378l-2.777 1.161v-2.271l2.736-1.186c.615-.206 1.012-.147 1.193.498.158.812-.318 1.41-1.152 1.798zm11.02-5.772c-.097-1.486-1.64-1.911-2.507-1.545l-2.996 1.284v-2.94l-1.558.665v7.874l5.302-2.246c1.497-.74 1.865-1.81 1.758-3.092zm-2.271 2.044l-3.232 1.368v-2.526l2.573-1.07c.872-.379 1.506-.188 1.613.562.055.684-.23 1.236-.954 1.666zm4.961-.852v-7.894l-1.508.667-.002 7.887zm9.156-11.756l-2.004.847-3.984 8.001v-6.308l-1.364.578v7.891l2.073-.877 3.905-8.019v6.364l1.374-.594zM31.912 90.82c1.032-.973.95-1.933 1.102-3.251V86.11c-.06-2.184-.86-2.529-2.577-1.657l-1.698.716c-.465.261-.846.606-1.197 1.219v-.713l-1.466.62v9.428l1.466-.623v-3.347c.498 1.25 2.605-.041 3.374-.295.34-.152.72-.378.996-.639zm-2.874.03c-1.347.482-1.447-.509-1.447-1.586 0-1.418.154-2.233 1.412-2.975l1.478-.676c1.072-.492 1.33.167 1.285 1.383l-.003.997c-.077 1.145-.28 1.803-1.437 2.337-.452.188-.846.346-1.288.52zm28.021-12.635c.009.088.028.176.046.256l.055.241c.028.066.055.124.083.204l.082.183c.037.051.074.11.11.161a.966.966 0 0 1 .111.139c.037.044.083.073.13.11.045.028.09.05.146.08.047.014.102.036.157.058.055.008.11.008.174.022.064 0 .13 0 .194-.007.064 0 .137-.015.211-.029.074-.014.156-.036.24-.065.082-.03.165-.065.257-.095.028-.022.064-.029.101-.043.865-.364 1.729-.735 2.594-1.099 1.561-.717 1.992-1.637 2.15-2.952l-1.43.586c-.098.649-.398.913-.858 1.22l-1.987.844c-1.293.569-1.215-.553-1.199-1.468l5.495-2.287V73.09c-.01-.117-.01-.226-.01-.335l-.027-.285a2.363 2.363 0 0 1-.037-.278 9.642 9.642 0 0 1-.055-.262 1.088 1.088 0 0 1-.074-.213c-.027-.072-.055-.138-.082-.219a.57.57 0 0 1-.102-.182.86.86 0 0 1-.11-.146.635.635 0 0 1-.12-.132c-.046-.022-.092-.058-.138-.088-.055-.022-.11-.051-.156-.066-.064-.007-.129-.014-.184-.029h-.202c-.083 0-.166.021-.24.029-.092.029-.174.05-.257.072-.102.044-.203.066-.295.117-.864.364-1.738.735-2.612 1.106-.064.029-.129.066-.184.087-.064.037-.12.066-.175.095-.055.036-.11.066-.165.102-.056.036-.11.065-.156.11l-.147.116c-.046.036-.093.087-.138.13-.046.03-.093.088-.138.132-.047.059-.093.102-.13.146-.045.058-.082.102-.119.153-.037.043-.074.11-.11.16-.037.051-.074.11-.102.16-.036.059-.064.095-.091.161-.037.058-.065.117-.092.16a4.754 4.754 0 0 0-.074.183 2.322 2.322 0 0 0-.074.175 1.874 1.874 0 0 0-.064.182c-.018.066-.037.124-.055.183-.018.065-.037.124-.046.183a1.438 1.438 0 0 0-.037.182c-.018.065-.028.11-.036.183-.01.065-.02.116-.028.182a1.18 1.18 0 0 0-.019.175c-.009.058-.009.117-.009.175-.01.066-.01.124-.01.183v1.738c0 .11.01.204.019.307 0 .102.01.197.019.292zm2.713-5.071c.577-.245 1.225-.553 1.825-.743 1.206-.524 1.078.562 1.094 1.417l-4.255 1.768c.04-1.028.225-2.116 1.336-2.442zm17.539-6.051l-3 1.277v-2.528l-1.463.624v7.164l4.982-2.11c1.406-.694 1.821-1.722 1.721-2.928a1.649 1.649 0 0 0-2.24-1.499zm.02 3.426l-3.02 1.303V69.45l2.602-1.076c.82-.356 1.3-.13 1.401.575.052.643-.301 1.167-.983 1.571zM93.163 60.36l-3 1.275V59.11l-1.463.621v7.165l4.982-2.106c1.406-.695 1.822-1.727 1.721-2.933a1.648 1.648 0 0 0-2.24-1.498zm.02 3.425l-3.02 1.303v-2.374l2.602-1.076c.82-.355 1.3-.13 1.401.576.052.642-.302 1.167-.983 1.57zm-43.94 12.682l-1.934.818-3.845 7.252V78.92l-1.316.557v7.145l2-.846 3.77-7.268v5.67l1.325-.573zm50.135-14.082l2-.846 3.77-7.269v5.67l1.326-.572V52.23l-1.935.818-3.845 7.251v-5.617l-1.316.558zM17.69 92.097v-.254c-.009-.054-.009-.124-.009-.193a.942.942 0 0 1-.019-.177.923.923 0 0 1-.02-.162c-.01-.046-.019-.1-.029-.154a.53.53 0 0 1-.038-.13.371.371 0 0 1-.04-.116.426.426 0 0 1-.047-.093l-.058-.092c-.03-.016-.049-.047-.068-.07-.03-.023-.049-.047-.068-.062-.029-.023-.048-.046-.068-.062l-.087-.046c-.029 0-.058-.023-.087-.031-.04-.008-.078-.008-.107-.016a.423.423 0 0 1-.106-.015h-.117c-.048.007-.097.014-.136.007l-.145.022c-.058.016-.107.031-.155.03-.059.024-.117.039-.175.054-.068.031-.126.046-.184.061-.068.023-.126.046-.185.061l-.203.092c-.194.076-.378.16-.562.237-.601.253-1.203.52-1.814.765-.087.046-.165.077-.242.123-.078.046-.156.084-.223.13-.078.054-.146.1-.214.154l-.203.16a3.491 3.491 0 0 0-.185.185c-.058.07-.116.138-.165.2-.058.076-.107.138-.155.215-.048.085-.097.161-.135.23-.049.085-.088.177-.126.254-.04.085-.078.17-.117.262-.029.092-.058.176-.087.269-.029.092-.058.184-.077.276l-.059.285c-.019.116-.039.215-.048.308l-.029.315c-.01.116-.01.224-.01.324v1.8c.077 1.878 1.08 2.057 2.531 1.486.63-.268 1.251-.535 1.872-.803.068-.024.146-.062.223-.1l.203-.091c.059-.031.117-.07.184-.1.058-.038.117-.077.185-.115.049-.03.107-.069.165-.107.048-.03.097-.07.145-.108.04-.038.088-.077.136-.115.039-.03.078-.077.126-.115.039-.039.078-.085.117-.123a3.77 3.77 0 0 1 .107-.13c.029-.031.058-.078.096-.124a.977.977 0 0 0 .088-.13 1.78 1.78 0 0 1 .077-.13c.02-.04.039-.086.068-.131.02-.047.04-.093.058-.139.01-.054.03-.1.049-.154.01-.038.02-.092.039-.146.01-.054.019-.1.038-.162l.03-.161c.009-.054.02-.116.028-.177 0-.054.01-.123.02-.177 0-.062 0-.123.01-.193 0-.061 0-.123.009-.2v-.2a.937.937 0 0 1-.175.085c-.068.03-.126.053-.184.076-.34.138-.679.283-1.028.428v.208c-.01.046-.01.085-.01.115a.423.423 0 0 0-.019.108.358.358 0 0 0-.019.093c-.01.038-.02.069-.03.1a.55.55 0 0 0-.038.092.774.774 0 0 0-.048.085c-.02.038-.04.06-.048.084l-.059.07c-.029.03-.048.053-.067.068-.03.031-.05.054-.068.07-.03.015-.059.046-.087.069-.039.023-.068.038-.097.053-.04.023-.068.046-.097.054-.039.03-.077.046-.116.07a7.49 7.49 0 0 0-.33.137c-.243.107-.495.214-.747.321-.242.107-.494.214-.737.313-1.096.502-1.15-.282-1.115-1.057v-1.286c0-.838.265-1.577 1.065-2.048l1.687-.704c.619-.37.982-.127.992.47v.015c.453-.193.908-.392 1.374-.59zm7.423-5.397l-6.522 2.75v1.396l2.522-1.064v5.778l1.479-.627v-5.775l2.521-1.074zm31.355-13.292l-6.522 2.752v1.396l2.521-1.066v5.779l1.48-.626v-5.776l2.52-1.073zm-17.921 7.584l-2.152.912c-1.443.755-2.171 1.53-2.171 3.25l-.01 2.046c0 1.422.625 2.488 2.151 1.877l2.463-1.064c1.513-.555 2.152-1.757 2.152-3.035l-.02-2.375c-.073-1.476-.41-2.572-2.413-1.61zm1.095 3.763c-.025 1.06-.273 1.68-1.3 2.155-.323.133-.645.273-.968.413-1.057.457-1.853.672-1.853-.72v-1.32c0-1.334.675-2.148 1.718-2.56.333-.156.666-.297.988-.42 1.099-.388 1.371-.047 1.415 1.164v1.288zm26.035-11.334v.379c-.01.062-.01.123-.01.177-.009.054-.009.1-.009.155-.01.054-.01.1-.01.146-.009.054-.019.1-.019.14-.01.046-.01.084-.01.123a.558.558 0 0 0-.019.116c-.01.03-.02.07-.029.1-.01.039-.02.062-.029.1-.01.032-.02.062-.03.101a.352.352 0 0 0-.038.085.683.683 0 0 0-.049.085c-.019.024-.039.062-.048.078a.343.343 0 0 0-.049.077.232.232 0 0 0-.068.062c-.029.023-.048.047-.068.062a.538.538 0 0 1-.068.061c-.03.024-.058.039-.087.062-.03.016-.058.039-.078.046-.04.024-.068.039-.097.062-.078.031-.166.085-.244.116v1.406c.185-.077.37-.154.555-.24.068-.022.146-.069.224-.1.068-.046.137-.084.214-.13.068-.055.136-.094.204-.147.059-.047.117-.109.176-.163.058-.054.116-.116.175-.177.048-.062.097-.132.155-.201.05-.07.098-.14.146-.217.04-.077.078-.154.127-.24a4.15 4.15 0 0 0 .117-.254c.029-.085.058-.17.097-.263.03-.1.058-.193.088-.286.019-.1.039-.2.068-.309l.058-.316c.01-.11.02-.225.04-.34l.028-.356v-3.113l2.989-1.283v5.772l1.47-.622v-7.172l-5.87 2.489c-.002 1.305-.002 2.623-.002 3.93zm14.837-10.224v7.165l1.48-.624v-3.271l3.797-1.602v3.264l1.479-.627v-7.167l-1.48.624v2.515l-3.796 1.615v-2.518zm15.882-6.729l.01 7.167 1.48-.63v-7.168zM67.61 79.605l-9.043 3.833v3.326c-.01.185-.01.379-.01.564l-.058.548c-.04.185-.068.37-.097.548-.049.178-.097.355-.136.524-.059.178-.117.355-.166.517-.078.177-.146.339-.214.508-.088.161-.165.323-.243.485-.117.192-.234.37-.341.555l-.857.364v4.12l1.908-.809v-2.796l8.595-3.648v2.795l1.908-.81V86.11l-1.246.53v-7.035zm-2.152 7.952l-6.161 2.613c.263-.515.535-1.016.769-1.547.078-.2.156-.4.224-.616.058-.208.116-.416.165-.624.029-.217.068-.44.107-.656.01-.225.03-.449.048-.68v-2.241l4.848-2.051zM43.51 89.828v8.357l2.143-.908v-3.968l6.375-2.717v3.982l2.141-.908v-8.358l-2.14.908v3.077l-6.376 2.703V88.92zm-5.784 2.417l-4.35 1.842c-2.058.894-3.426 2.065-3.525 4.613l.002 2.366c.108 1.597 1.723 2.19 3.257 1.563l5.135-2.228c1.793-.897 2.662-2.27 2.692-4.251.02-.575.02-1.142.01-1.702-.139-2.533-1.071-3.03-3.22-2.203zm1.188 4.864c-.21 1.353-.917 1.857-1.922 2.45l-3.05 1.27c-1.447.564-2.038.11-2.038-1.187v-1.42c0-1.321.585-2.218 1.774-2.918l2.814-1.218c1.247-.556 2.38-.822 2.432 1.169zm-14.054.63l-4.38 1.836v-.768l-2.151.926v.731l-4.536 1.951c-.137.069-.263.137-.39.206a5.298 5.298 0 0 0-.37.236 9.407 9.407 0 0 0-.33.23c-.108.092-.214.175-.312.26-.098.091-.195.184-.292.268-.088.1-.176.2-.253.284-.088.107-.166.207-.244.307-.068.1-.136.207-.204.315l-.175.323c-.049.107-.098.223-.147.33-.048.116-.087.24-.126.355a4.754 4.754 0 0 0-.097.362c-.03.131-.049.255-.069.378a5.605 5.605 0 0 0-.039.386c-.01.139-.01.27-.01.402v2.009c0 .154.01.309.02.456.02.139.04.27.068.402.03.108.069.224.108.333a.57.57 0 0 0 .068.147c.02.054.049.093.078.14.029.04.058.078.087.124.03.032.059.07.088.102a.38.38 0 0 0 .107.094c.04.03.078.054.117.085.744.451 1.762.103 2.472-.23l4.38-1.876v3.777a235.41 235.41 0 0 0 2.152-.918v-3.752l3.25-1.36c.478-.204.964-.402 1.432-.638.165-.106.34-.198.516-.304.146-.108.301-.23.457-.337.068-.06.136-.122.214-.184.127-.13.263-.268.4-.398.106-.13.223-.268.34-.407.087-.138.185-.285.282-.422.078-.154.156-.3.244-.454.058-.146.116-.293.184-.454.049-.162.098-.316.146-.47l.088-.464c.01-.154.029-.316.049-.478 0-.75 0-1.499.01-2.248-.263-2.307-1.62-2.296-3.232-1.593zm-8.595 10.615c-.272.113-.545.235-.826.356-.205.076-.41.159-.614.235a13.21 13.21 0 0 1-.458.105c-.146.006-.282.013-.418.011a6.858 6.858 0 0 1-.38-.103 2.666 2.666 0 0 1-.33-.22 4.66 4.66 0 0 1-.225-.34l-.117-.42a6.838 6.838 0 0 1-.039-.455v-1.414l.03-.456c.039-.154.078-.308.117-.47l.175-.416c.078-.13.165-.262.253-.392.107-.123.214-.238.321-.36.127-.1.253-.207.38-.314l.438-.275c.156-.076.321-.16.487-.243.31-.13.622-.266.943-.402l2.338-1.01.007 5.68zm9.695-6.15c-.02.17-.029.325-.038.48-.04.154-.078.308-.107.454-.068.146-.127.293-.186.439-.087.13-.175.261-.253.392-.107.114-.214.238-.311.345l-.38.321-.438.275c-.165.076-.33.152-.486.236l-.838.356-2.434 1.029-.005-5.686 2.887-1.21c.205-.076.409-.152.623-.243.146-.03.302-.067.457-.097.137-.014.273-.013.41-.02.126.032.253.071.389.096.107.078.214.156.321.226.068.117.146.226.224.335.04.139.078.278.127.418.009.147.02.302.038.448v1.407z"/><path fill="#988b65" d="M0 16.206l.046 4.363 15.779-6.704.004 49.192 22.102-9.046V0z"/><path fill="#053844" d="M12.094 62.83V19.704l-12 4.937v54.234l37.83-16.06.124-4.839L12.09 68.494l-.001-5.664z"/></svg>