<svg xmlns="http://www.w3.org/2000/svg" viewBox="0 0 281.42801 661.64801" height="661.648" width="281.428"><path d="M65.594 606H.093v55.473h65.501v-14.351H12.328v-26.771h53.266zm-28.151-58.972H26.128v32.014h-14.26v-34.866H.093v49.125h65.501v-49.769H53.542v35.51H37.443zm2.944-34.041c0-3.864-1.196-10.948-1.84-14.076h27.046V484.56H.093v14.351h26.862c.369 2.117 1.473 9.016 1.473 12.972 0 7.359-2.852 10.211-10.764 10.211H.093v14.351H17.48c16.835.001 22.907-8.738 22.907-23.458zm10.579-53.544v-24.379l14.627-5.151v-15.087L0 439.757v14.811l65.593 24.931V464.78zM16.1 447.208l24.379-8.647v17.387zm-3.772-79.764H.093v53.818h12.235v-19.687h53.266v-14.444H12.328zm32.199-60.351c-14.259 0-20.883 10.119-20.883 23.275v15.455H.093v14.259h65.5v-28.979c.001-14.166-6.623-24.01-21.066-24.01zm9.291 38.73H34.959V332.3c0-6.439 2.484-11.223 9.383-11.223 6.992 0 9.476 4.231 9.476 11.131zM165.594 606h-65.501v14.351h24.655v26.771h-24.655v14.351h65.501v-14.351h-28.243v-26.771h28.243zm-14.628-25.578v-24.379l14.627-5.151v-15.087L100 560.736v14.812l65.593 24.931V585.76zM116.1 568.187l24.379-8.647v17.387zm49.494-63.481v-14.351h-53.266v-26.771h53.266v-14.352h-65.501v55.474zm0-122.173h-65.5v45.629l39.834 1.104c13.431.368 15.363 3.496 15.363 7.359 0 1.84-.552 3.956-1.104 5.06h11.591c.644-1.932 1.104-5.52 1.104-8.096 0-11.224-8.188-17.571-26.771-18.215l-27.782-.92v-17.571h53.265zm-65.593-30.177l65.593 24.931v-14.719l-14.627-5.336v-24.379l14.627-5.151v-15.087l-65.593 24.93zm40.478 1.38l-24.379-8.74 24.379-8.647zm14.535-75.9c0 10.58-8.647 17.296-22.171 17.296-10.947 0-22.263-4.876-22.263-17.479 0-7.728 4.232-13.063 11.407-14.535v-14.075c-13.523 1.104-23.458 12.604-23.458 28.334 0 20.056 15.179 32.198 34.222 32.198 20.699 0 34.406-12.603 34.406-31.646 0-17.939-10.855-27.875-26.863-29.347v14.259c9.569 1.197 14.72 6.348 14.72 14.995zm10.58-66.24h-53.266V191.91h-12.235v53.816h12.235V226.04h53.266zm-65.501-27.232h65.501v-16.192l-45.446-24.654v-.276h45.446V128.89h-65.501v16.192l45.354 24.655v.275h-45.354zm0-82.524v14.168h65.501V101.84h-21.159l-8.28-8.371 29.439-19.871V55.567l-39.65 28.059-25.851-25.667v18.123l27.231 25.758zm26.035-98.344v32.013h-14.26V.644h-11.775v49.125h65.501V0h-12.052v35.509h-16.099V3.496zm135.3 658.152v-412h20v412z" fill="#fff"/></svg>