<svg xmlns="http://www.w3.org/2000/svg" viewBox="0 0 336.246 637.758" height="637.758" width="336.246"><path d="M79.855 569.741H.111v67.536h79.744v-17.472H15.007v-32.592h64.848zm-34.272-71.792H31.807v38.976h-17.36v-42.448H.111v59.808h79.744v-60.592H65.183v43.232h-19.6zm3.584-41.439c0-4.704-1.456-13.328-2.24-17.136h32.928v-17.472H.111v17.472h32.704c.448 2.576 1.792 10.976 1.792 15.792 0 8.96-3.472 12.432-13.104 12.432H.111v17.472h21.168c20.496 0 27.888-10.64 27.888-28.56zm12.88-65.183v-29.68l17.808-6.272v-18.368L0 367.359v18.032l79.855 30.352v-17.92zm-42.448-14.896l29.68-10.528v21.168zm-4.592-97.106H.111v65.52h14.896v-23.967h64.848v-17.584H15.007zm13.776-45.134v18.815H.111v17.36h79.744v-35.28c0-17.248-8.064-29.231-25.648-29.231-17.36 0-25.424 12.32-25.424 28.336zm36.736 2.24v16.575h-22.96v-16.464c0-7.84 3.024-13.664 11.424-13.664 8.512 0 11.536 5.152 11.536 13.553zm134.336 333.31h-79.744v17.472h30.016v32.592h-30.016v17.472h79.744v-17.472h-34.384v-32.592h34.384zm-17.808-31.136v-29.68l17.808-6.272v-18.368L120 514.637v18.032l79.855 30.352v-17.92zm-42.448-14.896l29.68-10.528v21.168zm80.752-154.895h-35.392v8.848h-64.848v56.784h12.096c23.52 0 40.208 3.36 52.752 12.768v6.048h35.392V436.35h-20.496v-50.624h20.496zm-35.392 26.319v32.592c-12.88-7.056-27.44-10.64-49.28-10.64h-1.344v-21.952zm14.896-35.84v-60.592h-14.672v43.232h-19.6v-38.976h-13.776v38.976h-17.36v-42.447h-14.336v59.807zm-79.744-107.071v34.384h79.744v-17.36h-28.672v-17.92c0-16.016-8.064-28.336-25.424-28.336-17.584-.001-25.648 11.984-25.648 29.232zm37.296 1.456v15.567h-22.96v-15.68c0-7.728 3.024-13.552 11.536-13.552 8.848.001 11.424 5.825 11.424 13.665zm-5.6-59.024h-17.36v-42.448h-14.336v59.809h79.744v-60.592h-14.672v43.231h-19.6v-38.975h-13.776zm4.816-107.407c-2.912-6.496-8.736-10.864-16.464-10.864-14.112 0-20.048 11.425-20.048 25.425v37.743h79.744V99.68c0-15.009-8.176-26.992-23.744-26.992-11.088 0-17.136 6.271-19.488 14.559zm-22.96 35.281v-15.904c0-6.72 1.344-13.216 9.408-13.216s9.296 6.832 9.296 13.216v15.904zm52.304-17.584v17.584h-21.728V105.84c0-7.84 1.232-15.68 10.864-15.68 9.408-.001 10.864 7.28 10.864 14.784zM151.807 4.256v38.976h-17.36V.783h-14.336v59.809h79.744V0h-14.672v43.232h-19.6V4.256zm164.439 633.502v-412h20v412z" fill="#fff"/></svg>