<svg xmlns="http://www.w3.org/2000/svg" viewBox="0 0 270.629 546.362" height="546.362" width="270.629"><path d="M45.629 503.869H.065v38.589h45.564v-9.983H8.576v-18.622h37.053zm-19.583-41.024h-7.871v22.27H8.256v-24.254H.065v34.173h45.564v-34.621h-8.383v24.702h-11.2zm2.048-23.681c0-2.688-.832-7.615-1.28-9.791h18.815v-9.983H.065v9.983h18.687c.256 1.472 1.024 6.271 1.024 9.022 0 5.12-1.984 7.104-7.488 7.104H.065v9.983h12.094c11.712 0 15.935-6.079 15.935-16.318zm7.36-37.248v-16.959l10.175-3.584v-10.495L0 388.221v10.303l45.629 17.343v-10.239zm-24.255-8.512l16.959-6.016v12.096zm-2.623-55.487H.065v37.437h8.511v-13.695h37.053v-10.047H8.576zm22.398-41.983c-9.919 0-14.527 7.04-14.527 16.191v10.751H.065v9.919h45.564v-20.158c0-9.856-4.607-16.703-14.655-16.703zm6.464 26.942h-13.12v-9.407c0-4.479 1.728-7.808 6.528-7.808 4.863 0 6.591 2.944 6.591 7.743v9.472zm8.191-89.277H.065v9.983h17.15v18.622H.065v9.983h45.564v-9.983H25.983v-18.622h19.646zm-10.175-17.794v-16.959l10.175-3.584v-10.495L0 202.11v10.304l45.629 17.342v-10.239zm-24.255-8.512l16.959-6.016v12.096zm106.43 329.406v-28.927h11.711v-9.663h-20.223v5.056H72.064v32.445h6.911c13.439 0 22.975 1.92 30.142 7.296v3.456h20.223v-9.663zM80.96 525.691h-.769v-12.543h28.926v18.623c-7.359-4.032-15.678-6.08-28.157-6.08zm22.654-43.008H72.065v9.983h45.564v-11.263l-31.613-17.151v-.191h31.613v-9.984H72.065v11.264l31.549 17.15zm-17.983-36.161v-9.472c-4.415-.384-6.783-3.52-6.783-8.447 0-4.096 1.984-6.848 5.504-6.848 3.968 0 6.207 2.752 6.207 8.256 0 .576 0 1.92-.063 2.688h6.783v-3.455c0-4.416 1.216-8.576 6.399-8.576 4.16 0 7.296 3.2 7.296 7.872 0 5.375-2.432 9.663-8.575 9.855v9.919c10.303-.128 16.254-7.424 16.254-19.774 0-10.176-6.207-17.919-15.038-17.919-5.824 0-9.983 3.712-10.752 8.64-.896-4.096-4.607-6.912-9.151-6.912-7.615 0-12.606 6.976-12.606 16.191-.001 9.599 4.35 17.79 14.525 17.982zm21.823-51.774v-16.959l10.175-3.584V363.71L72 381.053v10.304l45.629 17.342V398.46zm-24.255-8.512l16.959-6.016v12.096zm-23.422-38.847v3.583c6.591 0 9.215-4.224 9.215-10.431 0-6.208-2.624-10.432-9.215-10.432v3.584c2.943.576 4.224 3.392 4.224 6.848s-1.28 6.271-4.224 6.848zm57.852-26.111H72.065v11.264l31.549 17.15v.192H72.065v9.983h45.564v-11.263l-31.613-17.151v-.191h31.613zm0-18.818H97.983v-18.622h19.646v-9.984H72.065v9.984h17.15v18.622h-17.15v9.983h45.564zm0-37.44v-34.622h-8.384v24.703H98.046V232.83h-7.871v22.271h-9.919v-24.254h-8.191v34.173zm-45.564-41.536h45.564v-9.92h-16.383v-10.239c0-9.15-4.607-16.19-14.527-16.19-10.047 0-14.654 6.848-14.654 16.703v19.646zm14.782-26.622c5.056 0 6.528 3.327 6.528 7.808v8.895H80.256v-8.959c0-4.417 1.727-7.744 6.591-7.744zm31.87-36.288c0-12.479-7.552-19.391-18.687-20.415v9.92c6.655.832 10.239 4.415 10.239 10.431 0 7.36-6.016 12.031-15.423 12.031-7.615 0-15.487-3.392-15.487-12.159 0-5.375 2.944-9.087 7.936-10.111v-9.791c-9.407.768-16.318 8.768-16.318 19.711 0 13.951 10.559 22.398 23.806 22.398 14.399 0 23.934-8.768 23.934-22.015zm-46.652-37.121v9.856h45.564v-9.856H102.91l-5.76-5.823 20.479-13.823V91.264l-27.582 19.518-17.982-17.854v12.607l18.942 17.918zm-1.088-55.679c0 13.631 9.471 22.591 23.934 22.591 14.271 0 23.807-9.023 23.807-22.526 0-13.375-9.6-22.398-23.807-22.398-14.271-.001-23.934 9.023-23.934 22.333zm39.484 0c-.063 7.744-5.951 12.479-15.742 12.479-9.472 0-15.551-4.8-15.551-12.352 0-7.615 5.951-12.351 15.551-12.351 9.727.002 15.742 4.674 15.742 12.224zM72.065 28.605v9.984h45.564V27.326L86.016 10.175v-.192h31.613V0H72.065v11.263l31.549 17.151v.191zm-3.073-9.342c0-6.208-2.624-10.432-9.215-10.432v3.584c2.943.576 4.224 3.392 4.224 6.848s-1.28 6.271-4.224 6.848v3.584c6.591-.001 9.215-4.225 9.215-10.432zm83.327 489.278h-8.255v33.789h45.565v-21.311c0-9.854-4.607-16.702-14.655-16.702-9.919 0-14.526 7.039-14.526 16.19v11.903h-8.128v-23.869zm15.999 13.311c0-4.479 1.728-7.808 6.527-7.808 4.864 0 6.592 2.944 6.592 7.744v10.623h-13.119zm13.696-31.361c0 1.855-.512 3.584-1.024 4.8h8.447c.385-.96 1.024-3.136 1.024-5.567 0-7.359-3.584-10.943-12.863-15.167l-33.533-15.359v10.688l23.998 10.111-23.998 10.303v11.071l28.158-13.375c1.855-.896 3.903-2.111 5.887-2.111 2.047-.001 3.904 1.534 3.904 4.606zm-6.656-60.67l-31.293 10.623v14.271h45.564v-9.535h-32.062l32.062-11.327v-7.744l-32.382-11.199h32.382v-9.407h-45.564v13.951zm4.096-42.113v-16.959l10.175-3.584V356.67L144 374.013v10.304l45.629 17.342V391.42zm-24.255-8.512l16.959-6.016v12.096zm-11.134-26.369h45.564v-9.983h-37.054v-21.758h-8.51zm45.564-36.735v-34.621h-8.384v24.702h-11.199v-22.271h-7.871v22.271h-9.919v-24.254h-8.191v34.173zm70 226.782v-412h11v412z" fill="#fff"/></svg>