<svg xmlns="http://www.w3.org/2000/svg" viewBox="0 0 108 18.189604" height="18.19" width="108"><path d="M7.093 0L14.5 11.87l-2.914 6.32zm16.079 0h7.094v18.182h-7.094zM0 6.056h7.094v12.126H0zM0 0h7.093v4.928H0zm23.172 0L11.586 18.19l7.094-.002 3.634-5.702zm9.609 18.182h68.952L108 11.915V0H32.781zM49.503 6.115L45.806 7.15c-.074-.351-.13-.61-.333-.924-.628-.98-1.96-1.016-2.2-1.016-.295 0-.924.018-1.589.406-1.59.906-1.497 3.124-1.497 3.457 0 .499.037 1.072.166 1.553.277.961.98 1.793 1.94 2.125a3.23 3.23 0 0 0 1.091.167c.628 0 1.294-.147 1.793-.555.167-.129.314-.295.425-.48.167-.315.222-.72.24-.813h-2.42V8.445h5.988v7.228h-3.068v-.906a9.791 9.791 0 0 1-.85.555c-1.22.647-2.68.702-3.088.702-.462 0-1.57-.037-2.735-.573-1.275-.61-3.678-2.403-3.678-6.21 0-.833.11-3.05 1.7-4.9 1.35-1.57 3.235-2.255 5.25-2.255 2.107 0 4.473.758 5.785 2.496.48.645.665 1.237.777 1.533zm13.937 9.556h-4.62l-2.533-4.602h-1.202v4.602h-4.14V2.621h7.06c.37 0 .758.019 1.128.056.573.055 2.237.203 3.18 1.775.221.388.61 1.201.61 2.347 0 1.239-.48 2.366-1.535 3.069-.277.185-.517.296-1.145.535zM58.8 6.873c0 .258-.073.5-.092.573-.296.85-1.146.943-1.904.943h-1.719V5.357h1.682c.48 0 .961.019 1.386.259a1.1 1.1 0 0 1 .388.333c.167.258.26.609.26.924zm18.91 2.163c0 .794-.13 3.308-1.996 5.176-1.848 1.848-4.233 1.885-5.065 1.885-.831 0-3.253-.037-5.047-1.867-1.275-1.275-1.903-3.18-1.903-5.084 0-.868.148-3.327 1.941-5.12.814-.795 2.366-1.885 5.083-1.885.851 0 3.161.018 4.973 1.793.776.757 2.014 2.366 2.014 5.102zm-4.159-.019c0 1.572-.425 2.422-.924 2.958-.517.592-1.127.813-1.904.813a3.112 3.112 0 0 1-1.293-.258 2.433 2.433 0 0 1-.87-.684c-.739-.943-.72-2.459-.72-2.699 0-1.534.48-2.459.943-2.94.683-.72 1.626-.776 1.94-.776.24 0 .851.037 1.442.388 1.442.869 1.386 2.847 1.386 3.198zm17.357 1.423c0 .833-.111 1.534-.406 2.31-.906 2.367-3.272 3.273-5.601 3.273-.48 0-1.775-.037-3.068-.61-.555-.24-1.886-.887-2.496-2.495-.24-.647-.333-1.184-.333-2.552V2.621h4.14v8.152c0 .13-.018.592.13.998.333.998 1.368 1.054 1.664 1.054.277 0 1.313-.056 1.682-1.035.129-.333.129-.629.129-1.017V2.62h4.16zm13.882-3.567c0 .258-.018 1.09-.314 1.867-.167.444-.832 1.812-2.274 2.347-.776.296-1.553.333-2.366.333h-3.18v4.251h-4.14V2.621h7.45c1.275 0 2.458.092 3.475.98 1.312 1.128 1.35 2.699 1.35 3.272zm-4.103.128c0 1.036-.573 1.443-.942 1.572-.278.092-.685.111-.74.111h-2.347V5.357h2.33c.221 0 1.09 0 1.497.739.202.37.202.758.202.905zm2.995 11.181L108 13.864v4.318z" fill="#fff" clip-rule="evenodd" fill-rule="evenodd"/></svg>