<svg xmlns="http://www.w3.org/2000/svg" viewBox="0 0 23.851999 23.851999" height="23.852" width="23.852"><g transform="translate(-307.492 -227.929)" fill="#fff"><path d="M307.492 244.673v-9.642a7.347 7.347 0 0 1 .052-.857v-.001c.016-.128.034-.255.057-.38.009-.054.02-.107.03-.16l.039-.183a6.67 6.67 0 0 1 .082-.324l.052-.178a7.9 7.9 0 0 1 .221-.614c.136-.329.295-.645.477-.948.03-.05.059-.099.09-.147h.001a7.003 7.003 0 0 1 .282-.411 7.212 7.212 0 0 1 1.978-1.831 7.06 7.06 0 0 1 3.631-1.068h9.872c3.826.062 6.927 3.162 6.988 6.988v9.872a7.06 7.06 0 0 1-1.069 3.631 7.16 7.16 0 0 1-1.298 1.546c-.17.152-.348.297-.532.433l-.138.1a6.47 6.47 0 0 1-.273.182 7.063 7.063 0 0 1-1.095.568 6.708 6.708 0 0 1-.615.22 8.07 8.07 0 0 1-.502.134l-.182.039a7.942 7.942 0 0 1-.541.087h-.001l-.155.017h-.001a7.08 7.08 0 0 1-.702.035h-9.641c-3.919-.003-7.107-3.19-7.107-7.108zm21.453 0v-9.642a4.706 4.706 0 0 0-4.706-4.706h-9.641a4.706 4.706 0 0 0-4.706 4.706v9.642a4.706 4.706 0 0 0 4.706 4.706h9.641a4.707 4.707 0 0 0 4.706-4.706z"/><path d="M319.418 243.621a3.77 3.77 0 1 1 0-7.54 3.77 3.77 0 0 1 0 7.54zm0-9.938a6.176 6.176 0 0 0-6.169 6.169 6.175 6.175 0 0 0 6.169 6.169 6.176 6.176 0 0 0 6.169-6.169 6.175 6.175 0 0 0-6.169-6.169z"/><circle r="1.478" cy="233.729" cx="325.599"/></g></svg>