<svg xmlns="http://www.w3.org/2000/svg" viewBox="0 0 143 111.05603" height="111.056" width="143"><g transform="translate(-152.546 -70.428) scale(.23327)"><radialGradient gradientUnits="userSpaceOnUse" r="40.321" cy="536.538" cx="919.833" id="a"><stop offset="0" stop-color="#f78d1e"/><stop offset=".75" stop-color="#f78d1e"/><stop offset="1" stop-color="#ef6821"/></radialGradient><path d="M878.607 522.968l7.868 23.59s23.881 21.258 67.271 20.383c43.396-.869 13.984-7.576 13.984-7.576s-12.527-19.8-30.005-26.208c-17.466-6.403-43.39-26.208-43.39-26.208z" clip-rule="evenodd" fill="url(#a)" fill-rule="evenodd"/><radialGradient gradientUnits="userSpaceOnUse" r="112.708" cy="441.858" cx="970.755" id="b"><stop offset="0" stop-color="#f78d1e"/><stop offset=".75" stop-color="#f78d1e"/><stop offset="1" stop-color="#ef6821"/></radialGradient><path d="M852.691 368.895c-41.063 30.589 1.457 60.874 1.457 60.874s56.493 26.797 72.52 33.783c16.014 6.992 64.354 28.833 86.784 43.686 22.431 14.848 15.729 31.744 15.729 31.744s29.119-15.147 44.848-34.951c15.729-19.799 14.27-38.73 12.52-43.097-1.744-4.369 1.166-17.77-94.646-55.34-95.817-37.562-99.901-60.862-99.901-60.862z" clip-rule="evenodd" fill="url(#b)" fill-rule="evenodd"/><radialGradient gradientUnits="userSpaceOnUse" r="38.075" cy="328.857" cx="996.256" id="c"><stop offset="0" stop-color="#f78d1e"/><stop offset=".75" stop-color="#f78d1e"/><stop offset="1" stop-color="#ef6821"/></radialGradient><path d="M953.745 313.277c26.507 25.923 66.699 41.645 66.699 41.645s11.933-2.041 14.557-5.243c2.625-3.202 24.173-2.326 2.041-23.882-22.137-21.548-73.976-23.006-73.976-23.006s-14.265 2.624-9.321 10.486z" clip-rule="evenodd" fill="url(#c)" fill-rule="evenodd"/><radialGradient gradientUnits="userSpaceOnUse" r="190.23" cy="388.022" cx="1001.67" id="d"><stop offset="0" stop-color="#5471b7"/><stop offset=".14" stop-color="#5471b7"/><stop offset=".56" stop-color="#283a97"/><stop offset=".68" stop-color="#292980"/><stop offset=".76" stop-color="#292980"/><stop offset=".9" stop-color="#283a97"/><stop offset="1" stop-color="#5471b7"/><stop offset="1" stop-color="#283a97"/></radialGradient><path d="M1025.397 349.394c-72.235 46.596-138.631 47.464-195.131 103.381 0 38.153 40.771 85.917 56.792 94.651 0 0-11.355-14.555 11.063-29.118 22.424-14.562 79.221-38.735 97.86-45.722 18.639-6.999 60.867-25.928 71.638-34.372 10.778-8.44 16.896-11.063 23.298-25.043-6.693-42.235-28.242-72.228-57.76-91.338 0 0 12.508 14.825-7.76 27.561z" clip-rule="evenodd" fill="url(#d)" fill-rule="evenodd"/><radialGradient gradientUnits="userSpaceOnUse" gradientTransform="matrix(1 0 0 .9936 0 3.287)" r="66.618" cy="513.552" cx="990.205" id="e"><stop offset="0" stop-color="#292980"/><stop offset=".41" stop-color="#292980"/><stop offset=".66" stop-color="#283a97"/><stop offset="1" stop-color="#5471b7"/></radialGradient><path d="M1009.084 535.49c-41.425 18.477-49.507 25.333-54.166 30.868.583 2.625 3.493 2.041 6.695 2.041 3.207 0 35.241-2.618 62.908-16.887 27.668-14.272 46.306-34.083 59.415-64.952.001-.001-31.747 29.714-74.852 48.93z" clip-rule="evenodd" fill="url(#e)" fill-rule="evenodd"/><radialGradient gradientUnits="userSpaceOnUse" r="190.187" cy="388.021" cx="990.805" id="f"><stop offset="0" stop-color="#5471b7"/><stop offset=".14" stop-color="#5471b7"/><stop offset=".56" stop-color="#283a97"/><stop offset=".68" stop-color="#292980"/><stop offset=".76" stop-color="#292980"/><stop offset=".9" stop-color="#283a97"/><stop offset="1" stop-color="#5471b7"/><stop offset="1" stop-color="#283a97"/></radialGradient><path d="M967.73 301.916h-6.629c-23.685.6-94.503 8.527-124.431 85.916 0 0 27.036-30.143 63.778-46.598 39.033-17.472 78.637-39.021 67.282-39.318z" clip-rule="evenodd" fill="url(#f)" fill-rule="evenodd"/></g><path d="M13.186 80.518a8.166 8.166 0 0 0-2.837-1.287c-1.028-.256-2.293-.385-3.757-.385H0v26.187h4.337v-9.331h2.126c1.769 0 3.262-.234 4.442-.694a8.805 8.805 0 0 0 3.114-2.074c.7-.729 1.258-1.628 1.658-2.673a9.176 9.176 0 0 0 .594-3.292c0-1.474-.275-2.758-.817-3.82a7.362 7.362 0 0 0-2.268-2.63zm101.687 7.03h-7.61v23.508h4.177v-5.832c.516.079 1.003.13 1.608.157.692.029 1.352.06 2.34-.029 2.621-.236 4.413-1.042 5.804-2.612 1.522-1.713 2.293-4.028 2.293-6.882 0-5.123-3.235-8.31-8.612-8.31zm3.17 12.825c-.76.912-1.81 1.356-3.211 1.356-1.073 0-2.379-.049-3.393-.416V91.24h3.413c3.008 0 4.358 2.241 4.358 4.925 0 1.86-.392 3.274-1.167 4.208zm22.608-10.846c-1.563-1.616-3.662-2.435-6.236-2.435-2.564 0-4.665.822-6.243 2.443-1.576 1.617-2.374 3.893-2.374 6.764 0 2.789.774 5.037 2.3 6.685 1.539 1.657 3.665 2.5 6.317 2.5 2.575 0 4.674-.813 6.236-2.415 1.56-1.603 2.349-3.88 2.349-6.77 0-2.884-.79-5.161-2.349-6.772zm-3.072 11.087c-.745.907-1.779 1.349-3.164 1.349-1.402 0-2.446-.45-3.191-1.375-.763-.944-1.15-2.386-1.15-4.29 0-1.97.385-3.433 1.146-4.348.741-.896 1.786-1.332 3.196-1.332 1.397 0 2.434.436 3.172 1.33.756.917 1.138 2.382 1.138 4.35 0 1.938-.386 3.39-1.147 4.316zm-35.396-13.067h-12.17v.578c0 2.844-.322 5.497-.955 7.886-.594 2.247-1.352 4.103-2.255 5.525H85.35v7.413h3.97v-3.96h10.678v3.96h3.97v-7.413h-1.785zm-4.176 13.988h-6.875c.686-1.204 1.276-2.631 1.757-4.262.561-1.902.928-4.005 1.089-6.259h4.029zm-26.395-3.261V87.547h-4.148v17.486h3.617l7.577-10.91v10.91h4.148V87.547h-3.71zm-1.947-19.428v4.113H58.649v22.074h-4.337V78.846zm-21.627 8.723c-2.117-.592-4.591-.527-6.603.21-1.13.41-2.093 1.008-2.863 1.78-.76.768-1.37 1.716-1.82 2.821-.452 1.11-.68 2.433-.68 3.932 0 1.507.219 2.844.652 3.97.436 1.146 1.062 2.11 1.862 2.867a7.75 7.75 0 0 0 2.867 1.702c1.094.363 2.298.548 3.576.548.662 0 1.226-.04 1.679-.119.42-.078.9-.184 1.416-.323.42-.102.86-.247 1.302-.427.453-.182.833-.338 1.134-.466l.351-.15v-4.045h-.97l-.162.141a8.148 8.148 0 0 1-2.205 1.34 6.715 6.715 0 0 1-2.593.51c-1.466 0-2.571-.462-3.378-1.411-.821-.969-1.239-2.361-1.239-4.137 0-1.814.43-3.224 1.279-4.187 1.127-1.275 2.768-1.746 4.835-1.218.533.137.998.297 1.38.477a9.8 9.8 0 0 1 1.166.624c.32.199.576.375.772.531l.159.126h.957v-4.033l-.337-.155a16.889 16.889 0 0 0-2.537-.908zM26.737 98.676l-4.515-11.129h-4.525l6.768 16.104-3.494 7.405h4.524l10.159-23.509h-4.42zm-15.223-9.733a4.139 4.139 0 0 1-.906 1.448c-.453.484-1.012.814-1.71 1.008-.736.203-1.735.306-2.966.306H4.337v-8.848h2.06c.95 0 1.752.07 2.382.206.587.127 1.11.346 1.55.649.496.346.856.778 1.098 1.324.25.559.376 1.237.376 2.018 0 .736-.095 1.353-.289 1.889z" clip-rule="evenodd" fill="#1b4e9a" fill-rule="evenodd"/></svg>