<svg xmlns="http://www.w3.org/2000/svg" viewBox="0 0 128.69165 43.999981" height="44" width="128.692"><path fill="#fff" d="M34.441 0l24.076 43.872h-28.42l4.53-8.256h8.993L29.258 9.445 10.365 43.872H0L24.076 0z"/><path d="M15.032 43.872h10.35l6.793-12.38h4.517l-7.433-13.544zM39.225 0l4.53 8.257h11.556l-5.778 10.528 5.183 9.444L70.207 0zm85.952 28.5v-1.74l.383-1.802h-.383v-1.59h.716l.531-2.495h-.85a2.89 2.89 0 0 0-.396.025v-1.615a7.13 7.13 0 0 1 .445-.013h3.069l-1.957 9.23h-1.558zm0-9.218v1.615c-.345.047-.62.159-.827.335-.28.241-.42.595-.42 1.063 0 .331.115.594.346.786.221.186.522.28.902.287v1.59h-.357l-2.62 3.543h-1.834v-.583l2.789-3.566c-.45-.286-.77-.594-.957-.924-.187-.332-.282-.723-.282-1.173 0-.939.323-1.672.97-2.197.561-.458 1.324-.716 2.29-.776zm0 7.478l-.37 1.74h.37zm-4.812 15.343v-7.462h1.576zm0-20.678l.455-2.155h-.455zm0-2.155v2.155l-1.496 7.076h-1.742c.395-1.877.699-3.312.91-4.306.21-.993.388-1.793.537-2.394l-.051-.013-3.979 5.537v-2.671l3.942-5.386h1.88zm0 8.648l-.456.583h.456zm0 6.723v7.462l-.374 1.77h-1.976l1.95-9.232zm-5.822 9.19V42.2c.263-.06.482-.16.656-.3.309-.247.462-.594.462-1.04 0-.685-.373-1.043-1.118-1.071v-1.606c1.002.003 1.763.225 2.283.664.524.442.785 1.082.785 1.918 0 .997-.332 1.765-.996 2.302-.515.413-1.205.669-2.072.763zm0-6.84v-2.35h.5zm0-15.304l.514-2.418h-.514zm0-2.417v2.417l-.415 1.953a83.345 83.345 0 0 1-.53 2.221h.062l.883-1.205v2.671l-.844 1.174h-2.216v-.724l1.8-8.508h1.26zm0 15.37v2.35l-.253 1.193h.252v1.606a3.29 3.29 0 0 0-.1-.002h-.487l-.53 2.482h.435c.254 0 .48-.023.682-.07v1.631a7.325 7.325 0 0 1-.807.043h-2.252v-1.539l1.627-7.693h1.433zm-3.059-14.646l.154-.724h-.154zm0-.724v.724l-.237 1.12V19.27zm0 8.507v.724h-.153zm0 14.556v1.539h-.237v-.42zm-.237-7.274v-.418h.088zm0-15.79v1.845l-1.562 7.387h-1.767l.915-4.37a58.3 58.3 0 0 1 .662-2.785h-.03l-3.592 7.155h-1.774l-.386-7.155h-.025c-.046.371-.126.858-.24 1.46-.113.6-.508 2.499-1.181 5.695h-1.524v-1.004l1.74-8.227h2.549l.428 6.902h.026l3.478-6.902zm0 15.372v.418l-1.864 8.813h-1.767l.916-4.37a58.01 58.01 0 0 1 .66-2.785h-.029l-3.593 7.155h-1.773l-.386-7.155h-.026a24.01 24.01 0 0 1-.239 1.46c-.114.601-.51 2.5-1.18 5.695h-1.223v-2.43l1.437-6.801h2.55l.428 6.902h.026l3.477-6.902h2.586zm0 8.813l-.088.418h.088zM100.743 20.27l.212-1h-.212zm0-1v1l-.128.603h-3.232l-.422 2.03h3.01l-.347 1.603h-3.012l-.504 2.378h3.231l-.34 1.617h-3.255v-9.007l.048-.224h4.951zm0 8.227l-.212 1.004h.212zm0 13.944v2.43h-.513zm-4.998.232v-1.641h1.052l-.164-2.211a20.13 20.13 0 0 1-.065-1.597v-.226a17.438 17.438 0 0 1-.687 1.603l-.137.278V34.6h2.246l.926 9.27h-1.874l-.15-2.198h-1.147zm0-22.18V28.5h-1.904zm0 15.108v3.278l-1.051 2.153h1.051v1.641h-1.84l-1.086 2.199h-1.632v-.742l4.448-8.53h.11zm-4.558 1.853l.388-1.813h-.388zm0-5.264V20.995l.02-.096h-.02v-1.63h2.338l-1.617 7.603h1.175l-.916 4.318h-.98zm0-11.92v1.629h-1.242a49.688 49.688 0 0 1-.713 1.922V19.27h1.955zm0 1.725l-1.254 5.877h-.7V28.5h1.603l-.582 2.689h.934V20.995zm0 13.646v1.813l-1.583 7.418h-.372v-7.246l.076-.356h-.076v-1.63zm0 8.49l-.386.741h.386zM89.232 19.27v3.552c-.664 1.676-1.322 3.027-1.976 4.05h1.976V28.5h-3.347l-.585 2.69h-1.833v-.323l.842-3.995h.814a22.944 22.944 0 0 0 1.942-3.422 39.246 39.246 0 0 0 1.624-4.18zm0 15.37v1.63h-1.64a58.658 58.658 0 0 1-1.017 3.644c-.345 1.083-.672 1.911-.983 2.486-.308.575-.653.985-1.034 1.233-.291.188-.655.303-1.092.348v-1.824c.17-.134.334-.342.495-.625.168-.295.361-.752.584-1.373.22-.623.467-1.405.738-2.346.272-.944.556-2.002.856-3.172zm0 1.986l-1.54 7.246h1.54zM83.467 28.5h.068l-.068-.682zm0-.682v.682h-.838v-9.067zm0 3.048v.323h-.068zm0 11.289v1.824c-.136.013-.278.02-.428.02-.142 0-.28-.009-.41-.027v-1.609c.047.004.093.007.139.007.273 0 .5-.066.677-.198l.022-.017zm-.838-6.904v-.612h.492zm0-15.818V28.5h-.97l-.15-2.198h-1.146V24.66h1.051l-.163-2.21a20.191 20.191 0 0 1-.066-1.598v-.226a17.733 17.733 0 0 1-.687 1.603l-.136.278V19.23h2.245l.022.204zm0 15.207v.612l-2.266 2.816v-2.687l.586-.741zm0 7.724v1.609a2.278 2.278 0 0 1-.493-.124v-1.605c.172.064.336.105.493.12zm-2.266 1.507v-2.37l.945 2.37zm0-24.642v3.278l-1.052 2.153h1.052v1.641h-1.84L77.437 28.5h-1.331v-1.318l4.147-7.952h.11zm0 16.151v2.687l-.916 1.139.916 2.294v2.37h-1.188l-1.717-4.54-.959 4.54h-.393v-7.245l.42-1.986h1.93l-.922 4.318zm-4.257-15.257l.687-.854h-.687zm0-.854v.854l-1.45 1.8V19.27zm0 7.913V28.5h-.688zm0 9.443v7.246h-1.45v-.393zm-1.45-1.595v-.391h.083zm0-6.53v-.812l.325.812zm-9.361-2.198h-1.147V24.66H65.2l-.164-2.21a20.523 20.523 0 0 1-.065-1.598v-.226a17.736 17.736 0 0 1-.687 1.603l-.136.278V19.23h2.245l.927 9.27h-1.874zm9.361-7.033v2.655l-1.538 1.91 1.538 3.854v.812h-1.808l-1.718-4.54-.958 4.54h-1.927l1.953-9.23h1.93l-.922 4.318 3.416-4.318zm0 15.37v.391l-.258 1.213h-3.232l-.423 2.03h3.01l-.346 1.604h-3.013l-.504 2.378h3.232l-.34 1.616h-5.16l1.953-9.231zm0 8.838l-.083.394h.083zm-10.508-2.92v-1.615c.358-.062.654-.193.89-.393.343-.292.515-.681.515-1.168 0-.759-.409-1.138-1.23-1.138h-.175V34.64h.25c1.017 0 1.788.224 2.31.672.521.448.782 1.12.782 2.017 0 1.015-.356 1.812-1.068 2.39-.58.47-1.337.748-2.274.837zm0-14.255h-1.84L61.222 28.5h-2.02l4.836-9.27h.11v3.277l-1.051 2.153h1.051zm0 8.338v1.603h-.293l-.582 2.74h.354c.186 0 .36-.013.521-.041v1.614a7.38 7.38 0 0 1-.679.03h-.543l-.687 3.285h-1.926l1.952-9.231z" fill="#fff" stroke-width=".741"/></svg>