<svg xmlns="http://www.w3.org/2000/svg" viewBox="0 0 360.39801 19.344999" height="19.345" width="360.398"><path d="M9.953 19.345c4.121 0 6.476-2.271 7.822-4.598l-3.42-1.654c-.785 1.542-2.467 2.719-4.401 2.719-3.393 0-5.86-2.606-5.86-6.14 0-3.532 2.467-6.14 5.86-6.14 1.934 0 3.616 1.206 4.401 2.72l3.42-1.683C16.457 2.242 14.074 0 9.953 0 4.345 0 0 3.925 0 9.672c0 5.747 4.345 9.673 9.953 9.673zm56.304 0c5.663 0 9.784-4.037 9.784-9.673C76.041 4.037 71.92 0 66.257 0c-5.635 0-9.756 4.037-9.756 9.672 0 5.636 4.121 9.673 9.756 9.673zm0-3.533c-3.448 0-5.663-2.663-5.663-6.14 0-3.504 2.215-6.14 5.663-6.14 3.448 0 5.691 2.636 5.691 6.14.001 3.477-2.243 6.14-5.691 6.14zM121.665.309h-5.579v18.699h3.981V5.916l5.271 13.092h1.738l5.271-13.092v13.092h4.009V.309h-5.608l-4.541 11.298zm59.613 18.699v-6.645h4.767c4.037 0 6.28-2.775 6.28-6.027 0-3.28-2.215-6.027-6.28-6.027h-8.747v18.699zm4.234-10.148h-4.234V3.813h4.234c1.569 0 2.747.953 2.747 2.523 0 1.543-1.178 2.524-2.747 2.524zm61.884 10.148L240.191.309H235.2l-7.233 18.699h4.542l1.178-3.168h8.018l1.149 3.168zm-6.785-6.671h-5.831l2.915-8.047zM290.467.309h-4.093v18.699h3.981V6.813l8.916 12.195h3.841V.309h-3.982v11.747zm60.791 7.513L346.604.309h-4.542l7.205 11.046v7.653h3.981v-7.653l7.15-11.046h-4.542z" clip-rule="evenodd" fill="#fff" fill-rule="evenodd"/></svg>