<svg xmlns="http://www.w3.org/2000/svg" height="32" width="32" id="Capa_1"><path d="M30 12v-1a1 1 0 0 0-1-1H3a1 1 0 0 0-1 1v1c0 5.722 3.456 10.648 8.388 12.816L6.2 30.4a1 1 0 1 0 1.6 1.2l4.57-6.094c1.16.312 2.372.494 3.63.494 1.256 0 2.47-.182 3.628-.494L24.2 31.6a1.002 1.002 0 0 0 1.602-1.2l-4.188-5.584C26.544 22.648 30 17.722 30 12z" id="path2" fill="#3687bd" stroke-width=".063"/><path d="M21.872 3.512c-.664-1.182-.248-1.712-.182-1.786a1 1 0 0 0 .058-1.388.997.997 0 0 0-1.412-.084c-.07.062-1.71 1.566-.208 4.238.678 1.204.234 1.732.208 1.762a1 1 0 1 0 1.328 1.496c.07-.062 1.71-1.566.208-4.238z" id="path8" fill="#3687bd" stroke-width=".063"/><path d="M16.872 3.512c-.664-1.182-.248-1.712-.182-1.786.388-.37.416-.984.058-1.388a.997.997 0 0 0-1.412-.084c-.072.062-1.71 1.566-.208 4.238.678 1.204.232 1.732.208 1.762a1 1 0 1 0 1.328 1.496c.072-.062 1.71-1.566.208-4.238z" id="path14" fill="#3687bd" stroke-width=".063"/><path d="M11.872 3.512c-.664-1.182-.248-1.712-.182-1.786.388-.37.416-.984.058-1.388a.997.997 0 0 0-1.412-.084c-.072.062-1.71 1.566-.208 4.238.678 1.204.232 1.732.208 1.762a1 1 0 1 0 1.328 1.496c.072-.062 1.71-1.566.208-4.238z" id="path20" fill="#3687bd" stroke-width=".063"/></svg>