<svg xmlns="http://www.w3.org/2000/svg" height="32" width="32" id="Layer_1"><path d="M11.25 7v21h9.5V7zm1 4.5a.25.25 0 0 1 .25-.25h7a.25.25 0 0 1 .25.25v3a.25.25 0 0 1-.25.25h-7a.25.25 0 0 1-.25-.25zm0 4a.25.25 0 0 1 .25-.25h7a.25.25 0 0 1 .25.25v1a.25.25 0 0 1-.25.25h-7a.25.25 0 0 1-.25-.25zm7.01 9h-6.52a.5.5 0 0 1 0-1h6.52a.5.5 0 0 1 0 1zm0-1.75h-6.52a.5.5 0 0 1 0-1h6.52a.5.5 0 0 1 0 1z" id="path2" fill="#3687bd" stroke-width=".063"/><circle r=".75" cy="13" cx="26.735" id="circle8" fill="#3687bd" stroke-width=".063"/><path d="M30.25 7h-8.5v21h8.5c.965 0 1.75-.785 1.75-1.75V8.75C32 7.785 31.215 7 30.25 7zm-3.516 4.25a1.75 1.75 0 1 1 0 3.5 1.75 1.75 0 0 1 0-3.5zm0 14c-2.205 0-4-1.794-4-4 0-2.205 1.795-4 4-4 2.206 0 4 1.794 4 4 0 2.205-1.794 4-4 4z" id="path14" fill="#3687bd" stroke-width=".063"/><path d="M26.735 19c-1.241 0-2.25 1.01-2.25 2.25s1.009 2.25 2.25 2.25c1.24 0 2.25-1.01 2.25-2.25S27.974 19 26.735 19zm0 3.25a1.001 1.001 0 0 1 0-2 1.001 1.001 0 0 1 0 2z" id="path20" fill="#3687bd" stroke-width=".063"/><circle r=".75" cy="13" cx="5.267" id="circle26" fill="#3687bd" stroke-width=".063"/><path d="M1.75 7C.786 7 0 7.785 0 8.75v17.5C0 27.215.786 28 1.75 28h8.5V7zm3.516 4.25a1.75 1.75 0 1 1 0 3.5 1.75 1.75 0 0 1 0-3.5zm0 14c-2.205 0-4-1.794-4-4 0-2.205 1.795-4 4-4 2.206 0 4 1.794 4 4 0 2.205-1.794 4-4 4z" id="path32" fill="#3687bd" stroke-width=".063"/><path d="M5.266 19c-1.24 0-2.25 1.01-2.25 2.25s1.01 2.25 2.25 2.25c1.241 0 2.25-1.01 2.25-2.25S6.508 19 5.266 19zm0 3.25a1.001 1.001 0 0 1 0-2 1.001 1.001 0 0 1 0 2z" id="path38" fill="#3687bd" stroke-width=".063"/></svg>