<svg xmlns="http://www.w3.org/2000/svg" height="32" width="32" id="Capa_1"><path d="M21.926 11.643l-6.14-6.14a5.82 5.82 0 0 1 .075-.654l.003-.019c.012-.07.025-.139.04-.208l.005-.027c.015-.068.03-.136.048-.203l.007-.027a5.64 5.64 0 0 1 .056-.204l.005-.016c.084-.281.19-.557.318-.826l.021-.044a3.8 3.8 0 0 1 .073-.142l.044-.084a5.986 5.986 0 0 1 .337-.546 6.167 6.167 0 0 1 .242-.323l.068-.085.112-.13.06-.067A5.852 5.852 0 0 1 19.15.54a5.853 5.853 0 0 1 4.907 0 5.776 5.776 0 0 1 1.665 1.167 5.826 5.826 0 0 1-.19 8.422l-.069.06a5.838 5.838 0 0 1-.129.112l-.085.068a5.666 5.666 0 0 1-.117.093l-.095.07a6.148 6.148 0 0 1-.434.29 5.78 5.78 0 0 1-.097.056 3.961 3.961 0 0 1-.126.07l-.082.044c-.048.025-.096.05-.144.073l-.042.02c-.27.128-.547.235-.83.32-.004 0-.009.003-.013.004a5.71 5.71 0 0 1-.206.056l-.025.006a5.802 5.802 0 0 1-.44.093l-.018.003a5.666 5.666 0 0 1-.654.075zm4.355 9.067a5.42 5.42 0 0 0-3.86-1.598 5.421 5.421 0 0 0-3.858 1.598l-8.438 8.438a3.66 3.66 0 0 1-2.605 1.08 3.66 3.66 0 0 1-2.606-1.08l-.065-.065a3.689 3.689 0 0 1 0-5.21L7.09 21.63l.636.636a.885.885 0 0 0 1.179.067l11.814-9.396c-.015-.014-.032-.027-.046-.042l-6.14-6.14c-.018-.018-.034-.037-.051-.056L5.018 18.44a.886.886 0 0 0 .063 1.183l.756.755-2.241 2.241a5.464 5.464 0 0 0 0 7.718l.065.065A5.422 5.422 0 0 0 7.52 32a5.421 5.421 0 0 0 3.858-1.598l8.439-8.439a3.66 3.66 0 0 1 2.605-1.079c.984 0 1.91.383 2.605 1.08l2.347 2.346a.886.886 0 0 0 1.253-1.253z" id="path2" fill="#3687bd" stroke-width=".118"/></svg>