<svg xmlns="http://www.w3.org/2000/svg" height="32" width="32" id="Capa_1"><path d="M21.224 21.055a2.689 2.689 0 0 0-2.237-1.197h-5.374l-.13-1.381 4.333.597a2.15 2.15 0 0 0 .586-4.26l-4.475-.617-.986-1.467-.173-1.836c-.14-1.478-1.46-2.574-2.928-2.423a2.688 2.688 0 0 0-2.425 2.928L8.49 22.798a2.688 2.688 0 0 0 2.677 2.435h6.38l3.71 5.569a2.687 2.687 0 1 0 4.475-2.98z" id="XMLID_289_" fill="#3687bd" stroke-width=".066"/><path d="M11.212 7.167A3.584 3.584 0 1 0 11.21 0a3.584 3.584 0 0 0 0 7.167z" id="XMLID_290_" fill="#3687bd" stroke-width=".066"/><path d="M15.109 26.804H7.546L6.142 15.587a1.075 1.075 0 0 0-2.133.267L5.53 28.011c.067.538.525.942 1.066.942h8.512a1.075 1.075 0 1 0 0-2.15z" id="XMLID_291_" fill="#3687bd" stroke-width=".066"/><path d="M27.235 21.067c0-1.418 1.605-2.04 1.605-4.072 0-1.349-1.027-1.998-1.719-2.282a.212.212 0 0 0-.265.3 3.97 3.97 0 0 1 .51 1.982c0 1.595-1.49 1.804-1.49 4.072 0 1.516 1.006 2.247 1.707 2.573.188.087.376-.123.269-.3a4.384 4.384 0 0 1-.617-2.273z" id="XMLID_292_" fill="#3687bd" stroke-width=".066"/><path d="M24.762 16.466c.188.088.377-.122.27-.3a4.384 4.384 0 0 1-.618-2.272c0-1.418 1.606-2.04 1.606-4.073 0-1.348-1.027-1.997-1.72-2.281-.184-.076-.363.125-.264.298a3.97 3.97 0 0 1 .51 1.983c0 1.595-1.49 1.804-1.49 4.073 0 1.516 1.005 2.247 1.706 2.572z" id="XMLID_293_" fill="#3687bd" stroke-width=".066"/></svg>