<svg xmlns="http://www.w3.org/2000/svg" height="32" width="32" id="Capa_1"><circle r="3.271" cy="24.729" cx="16.066" id="circle2" fill="#3687bd" stroke-width="1.348"/><path d="M23.884 16.848c-.049-.05-.1-.095-.15-.14l-.147-.14c-.024-.025-.051-.044-.082-.068a10.671 10.671 0 0 0-14.74.346l-.473.475-.656.655c-.798.799-.794 2.1.006 2.9a2.05 2.05 0 0 0 2.899.005l1.13-1.13a6.592 6.592 0 0 1 9.309-.001l.815.79c.79.79 2.08.788 2.874-.007.384-.383.596-.894.597-1.437a2 2 0 0 0-.592-1.434z" id="path4" fill="#3687bd" stroke-width="1.348"/><path d="M29.457 12.804l-.68-.68c-.003-.002-.004-.006-.01-.008l-.536-.539a1.936 1.936 0 0 0-.305-.244c-6.894-6.053-17.38-5.867-24.054.554-.033.03-.07.05-.101.082l-1.227 1.229a1.866 1.866 0 0 0 .008 2.641c.73.731 1.913.736 2.641.007L6.42 14.62c.008-.01.015-.02.023-.027 5.397-5.214 13.96-5.246 19.4-.106l.965.967a1.87 1.87 0 0 0 2.643-.007c.73-.732.732-1.916.006-2.643z" id="path6" fill="#3687bd" stroke-width="1.348"/></svg>