<svg xmlns="http://www.w3.org/2000/svg" height="32" width="32" id="Capa_1"><path d="M27.99 14.696a5.214 5.214 0 0 0-5.207 5.208v.951c-1.153-.412-3.383-.95-7.16-.95-3.778 0-6.007.538-7.16.95v-.95a5.214 5.214 0 0 0-5.208-5.209A3.258 3.258 0 0 0 0 17.951c0 1.317.786 2.499 2.004 3.006.365.152.6.505.6.9l.65 2.604a4.563 4.563 0 0 0 4.04 4.525A1.583 1.583 0 0 0 7.975 32c.877 0 1.588-.71 1.588-1.587 0-.608-.347-1.129-.849-1.397h13.822a1.58 1.58 0 0 0-.85 1.397 1.587 1.587 0 1 0 3.175 0 1.58 1.58 0 0 0-.908-1.427 4.563 4.563 0 0 0 4.038-4.525l.651-2.604c0-.395.235-.747.6-.9a3.248 3.248 0 0 0 2.004-3.006 3.257 3.257 0 0 0-3.254-3.255z" id="path2" fill="#3687bd" stroke-width=".651"/><path d="M10.252 18.382c1.355-.247 3.118-.43 5.37-.43 2.253 0 4.016.183 5.371.43a7.181 7.181 0 0 1 4.395-5.143V9.764C25.388 4.372 21.016 0 15.623 0 10.23 0 5.859 4.372 5.859 9.764v3.476a7.182 7.182 0 0 1 4.393 5.142z" id="path4" fill="#3687bd" stroke-width=".651"/></svg>