<svg xmlns="http://www.w3.org/2000/svg" height="32" width="32" id="Capa_1"><path d="M31.665 6.674a.924.924 0 0 0-.76-.196C30.84 6.49 24.418 7.692 16 7.692S1.16 6.49 1.096 6.478A.923.923 0 0 0 0 7.385v10.374l9.6-2.649a.923.923 0 0 1 .55.018l8.286 2.883 7.063-2.866a.922.922 0 0 1 .74.02L32 17.875V7.386a.923.923 0 0 0-.335-.711zm-14.434 9.018a2.156 2.156 0 0 1-2.154-2.154c0-1.187.966-2.153 2.154-2.153 1.187 0 2.154.966 2.154 2.153a2.156 2.156 0 0 1-2.154 2.154z" id="path2" fill="#3687bd" stroke-width=".063"/><path d="M9.814 16.966L0 19.674v7.403a.923.923 0 0 0 1.096.907c.063-.012 6.485-1.215 14.904-1.215s14.84 1.203 14.904 1.215A.925.925 0 0 0 32 27.077v-2.394z" id="path8" fill="#3687bd" stroke-width=".063"/><path transform="translate(0 1.23) scale(.0625)" id="polygon14" fill="#3687bd" d="M337.284 283.191L512 343.961v-44.996l-98.9-46.541z"/></svg>