<svg xmlns="http://www.w3.org/2000/svg" height="32" width="32" id="Capa_1"><path d="M9.331 6.975c0 .388-.347.701-.776.701-.43 0-.776-.313-.776-.7V3.83c0-.387.347-.701.776-.701.429 0 .776.314.776.701zM24.549 0H6.24C5.002 0 4 1.074 4 2.4v8.321h22.787V2.4c0-1.326-1.002-2.4-2.238-2.4z" id="path2" fill="#3687bd" stroke-width=".052"/><path d="M7.779 17.035c0-.512.347-.928.776-.928.429 0 .776.416.776.928V21.2c0 .513-.347.927-.776.927-.43 0-.776-.414-.776-.927zM4 29.934C4 31.075 5.003 32 6.239 32H24.55c1.235 0 2.237-.925 2.237-2.066V12.277H4.001z" id="path4" fill="#3687bd" stroke-width=".052"/></svg>