<svg xmlns="http://www.w3.org/2000/svg" height="32" width="32" id="Capa_1"><path d="M30.002 0H4C2.898 0 2 .898 2 2v18.001c0 1.104.898 2 2 2h12v3h-1a1 1 0 0 0-1 1V31a1 1 0 0 0 1 1h4.001a1 1 0 0 0 1-1v-4.998a1 1 0 0 0-1-1h-1v-3h12a2 2 0 0 0 2-2V2c0-1.102-.895-2-2-2zM12 2h2v2.358A5.953 5.953 0 0 0 12 4zM6 20.001H4v-18h2zm4 0H8v-5.556c.575.52 1.247.934 2 1.2zm0-15.633A5.978 5.978 0 0 0 8 5.56V2h2zm4 15.633h-2v-3.954l2 .246zm-1.956-8a2.01 2.01 0 0 1-2.01-2c0-1.106.87-2 1.968-2h.04c1.098 0 1.99.894 1.99 2 0 1.106-.888 2-1.988 2zM18 20h-2v-3.46l2 .246zm0-13.183l-2-1.354V2h2zM22 20h-2v-3c.732 0 1.41-.212 2-.556zm0-10.476l-2-1.352V2h2zM26 20h-2V2h2zm4 0h-2V2h2v18h.003z" id="path2" fill="#3687bd" stroke-width=".063"/></svg>