<svg xmlns="http://www.w3.org/2000/svg" height="80" viewBox="-54 0 44.339 60.08" width="59.118" id="svg10"><path d="M-10.855 23.43h-2.516l.463-1.85h1.128c.51 0 .925-.415.925-.925v-5.55a.925.925 0 0 0-.925-.925h-40.698a.925.925 0 0 0-.925.925v5.55c0 .51.414.925.925.925h1.127l.463 1.85h-2.515a.925.925 0 0 0-.925.925v3.7c0 .51.414.924.925.924h3.902l1.624 6.494-4.582 21.99a.928.928 0 0 0 .906 1.115h3.7a.926.926 0 0 0 .905-.736l1.388-6.664h26.861l1.388 6.664c.09.428.467.736.906.736h3.7a.927.927 0 0 0 .905-1.114l-4.581-21.991 1.623-6.494h3.903c.51 0 .925-.414.925-.924v-3.7a.925.925 0 0 0-.925-.925zm-36.998-3.7v-3.7h1.85v3.7zm3.7-3.7h1.85v3.7h-1.85zm3.7 0h1.85v3.7h-1.85zm3.699 0h1.85v3.7h-1.85zm3.7 0h1.85v3.7h-1.85zm3.7 0h1.85v3.7h-1.85zm3.7 0h1.85v3.7h-1.85zm3.7 0h1.85v3.7h-1.85zm3.699 0h1.85v3.7h-1.85zm5.55 3.7h-1.85v-3.7h1.85zm-38.848-3.7h1.85v3.7h-1.85zm36.738 5.55l-3.238 12.95h-28.153l-3.238-12.95zm-37.663 5.55v-1.85h2.052l.463 1.85zm3.873 29.598h-1.81l4.239-20.349h1.81zm3.431-7.4l2.698-12.949h20.695l2.698 12.95zm29.52 7.4l-4.238-20.349h1.81l4.239 20.349zm3.874-29.598h-2.516l.463-1.85h2.053zm0 0" id="path2" fill="#2980b9" stroke-width=".116"/><path d="M-32.13 6.398a3.135 3.135 0 0 0-.924 2.233c0 .843.328 1.637.925 2.232l1.196 1.196 1.308-1.308-1.196-1.195a1.317 1.317 0 0 1-.383-.925c0-.345.14-.682.383-.925l.542-.542a3.14 3.14 0 0 0 .925-2.233c0-.844-.329-1.637-.925-2.233l-1.196-1.196-1.308 1.308 1.196 1.196c.243.243.383.58.383.925 0 .344-.14.681-.383.925zm0 0" id="path4" fill="#2980b9" stroke-width=".116"/><path d="M-22.88 6.398a3.135 3.135 0 0 0-.925 2.233c0 .843.329 1.637.925 2.232l1.196 1.196 1.308-1.308-1.196-1.195a1.317 1.317 0 0 1-.383-.925c0-.345.14-.682.383-.925l.542-.542c.597-.596.925-1.39.925-2.233 0-.844-.328-1.637-.925-2.233l-1.196-1.196-1.308 1.308 1.196 1.196c.244.243.383.58.383.925 0 .344-.14.681-.383.925zm0 0" id="path6" fill="#2980b9" stroke-width=".116"/><path d="M-41.379 6.398a3.135 3.135 0 0 0-.925 2.233c0 .843.329 1.637.925 2.232l1.196 1.196 1.308-1.308-1.196-1.195a1.317 1.317 0 0 1-.383-.925c0-.345.14-.682.383-.925l.542-.542c.597-.596.925-1.39.925-2.233 0-.844-.328-1.637-.925-2.233l-1.196-1.196-1.308 1.308 1.196 1.196c.244.243.383.58.383.925 0 .344-.14.681-.383.925zm0 0" id="path8" fill="#2980b9" stroke-width=".116"/></svg>