<svg xmlns="http://www.w3.org/2000/svg" height="65" width="62.795" id="Layer_1"><path d="M59.424 16.25h-7.991L61.517 1.643c.225-.323.253-.744.07-1.081A1.049 1.049 0 0 0 60.66 0h-7.008c-.31 0-.604.126-.8.365L39.142 16.25H3.33C1.517 16.25 0 17.767 0 19.579c0 1.924 1.489 3.497 3.329 3.497h1.755l.73.983.015.014c1.01 1.292 1.095 3.708.547 5.07 0 .014-.014.028-.014.028C4.466 34.396 4.2 39.944 5.59 45.225a25.886 25.886 0 0 0 5.576 10.491l-7.374 7.5a1.047 1.047 0 0 0 .014 1.489c.21.197.478.295.745.295.266 0 .547-.112.758-.309l7.317-7.458a24.323 24.323 0 0 0 1.784 1.587 26.517 26.517 0 0 0 16.98 6.124 26.48 26.48 0 0 0 16.967-6.124 24.151 24.151 0 0 0 1.783-1.6l7.318 7.457a1.088 1.088 0 0 0 1.503.014 1.047 1.047 0 0 0 .014-1.489l-7.388-7.514c2.612-3.034 4.438-6.629 5.38-10.59 1.25-5.309.814-10.87-1.25-16.095-.408-1.39-.31-3.427.673-4.55l1.264-1.391h1.812c1.84 0 3.329-1.573 3.329-3.497-.042-1.784-1.573-3.315-3.37-3.315zM54.115 2.107h4.523L48.862 16.25h-6.966zm-7.12 55.112c-9.06 7.528-22.206 7.528-31.279 0-8.118-6.601-11.01-17.317-7.401-27.303.744-1.868.688-4.86-.632-6.84H54.76c-1.559 1.798-1.657 4.677-1.081 6.601.014.028.014.056.028.084 3.96 9.944 1.264 20.983-6.714 27.458zm12.43-36.25H3.3c-.675 0-1.222-.632-1.222-1.39 0-.632.59-1.222 1.222-1.222h56.11c.645 0 1.221.576 1.221 1.222.014.772-.534 1.39-1.208 1.39z" id="path4" fill="#2980b9" stroke-width=".14"/><path d="M50.323 45.688a1.048 1.048 0 0 0-1.362.604c-1.278 3.357-3.736 6.208-6.91 8.034-.492.28-.675.927-.38 1.432.197.352.548.534.913.534a.964.964 0 0 0 .52-.14c3.595-2.079 6.376-5.31 7.823-9.101a1.048 1.048 0 0 0-.604-1.363z" id="path6" fill="#2980b9" stroke-width=".14"/></svg>