<svg xmlns="http://www.w3.org/2000/svg" height="65" width="108.333" id="Capa_1"><path d="M79.444 10.833H28.89c-1.083 0-1.806.723-1.806 1.806v5.055c0 3.07 2.528 5.778 5.778 5.778H45.14v1.806c0 3.07 2.347 5.416 5.417 5.416h1.805v23.473h-5.417c-3.069 0-5.416 2.347-5.416 5.416v3.611c0 1.084.722 1.806 1.805 1.806H65c1.083 0 1.806-.722 1.806-1.806v-3.61c0-3.07-2.348-5.417-5.417-5.417h-5.417V30.694h1.806c3.07 0 5.416-2.347 5.416-5.416v-1.806h12.278c3.07 0 5.778-2.528 5.778-5.778V12.64c0-1.083-.722-1.806-1.806-1.806zM61.39 57.778c1.083 0 1.805.722 1.805 1.805v1.806H45.14v-1.806c0-1.083.722-1.805 1.805-1.805zm-1.806-32.5c0 1.083-.722 1.805-1.805 1.805h-7.222c-1.084 0-1.806-.722-1.806-1.805v-1.806h10.833zm18.056-7.584c0 1.084-.903 2.167-2.167 2.167h-42.61c-1.265 0-2.168-.903-2.168-2.167v-3.25H77.64z" id="path2" fill="#2980b9" stroke-width=".226"/><path d="M23.472 28.889H10.833V5.417C10.833 2.347 8.486 0 5.417 0H1.806C.722 0 0 .722 0 1.806v61.388C0 64.278.722 65 1.806 65c1.083 0 1.805-.722 1.805-1.806V39.722h21.667v23.472c0 1.084.722 1.806 1.805 1.806 1.084 0 1.806-.722 1.806-1.806V34.306c0-3.07-2.347-5.417-5.417-5.417zM3.612 3.61h1.805c1.083 0 1.805.722 1.805 1.806v23.472h-3.61zm21.666 32.5H3.61V32.5h19.861c1.084 0 1.806.722 1.806 1.806z" id="path8" fill="#2980b9" stroke-width=".226"/><path d="M106.528 0h-3.611C99.847 0 97.5 2.347 97.5 5.417v23.472H84.861c-3.07 0-5.417 2.347-5.417 5.417v28.888c0 1.084.723 1.806 1.806 1.806 1.083 0 1.806-.722 1.806-1.806V39.722h21.666v23.472c0 1.084.722 1.806 1.806 1.806 1.083 0 1.805-.722 1.805-1.806V1.806c0-1.084-.722-1.806-1.805-1.806zm-1.806 36.111H83.056v-1.805c0-1.084.722-1.806 1.805-1.806h19.861zm0-7.222h-3.61V5.417c0-1.084.721-1.806 1.805-1.806h1.805z" id="path14" fill="#2980b9" stroke-width=".226"/></svg>