<svg xmlns="http://www.w3.org/2000/svg" height="16" width="17.524" id="Layer_1"><path d="M4 9.143H1.143V2.857a.571.571 0 0 0-1.143 0V15.43a.572.572 0 0 0 1.143 0v-2.86h2.286v2.858a.572.572 0 0 0 1.142 0V9.714A.572.572 0 0 0 4 9.143z" id="path2" stroke-width=".034" fill="#fff"/><path d="M16.952 2.286a.571.571 0 0 0-.571.571v6.286h-2.857a.572.572 0 0 0-.572.571v5.715a.572.572 0 0 0 1.143 0V12.57h2.286v2.858a.572.572 0 0 0 1.143 0V2.857a.571.571 0 0 0-.572-.571z" id="path8" stroke-width=".034" fill="#fff"/><path d="M13.333 4.571H11.62V3.323a1.711 1.711 0 0 0 1.143-1.609V.571A.571.571 0 0 0 12.19 0H9.905a.571.571 0 0 0-.572.571v1.143c0 .744.48 1.373 1.143 1.61V4.57H7.048V3.323A1.711 1.711 0 0 0 8.19 1.714V.571A.571.571 0 0 0 7.62 0H5.333a.571.571 0 0 0-.571.571v1.143c0 .744.48 1.373 1.143 1.61V4.57H4.19c-.945 0-1.714.77-1.714 1.715v1.143c0 .315.256.57.572.57h2.36l.593.89a.572.572 0 0 0 .95 0L7.545 8h.647v6.857H6.476a.572.572 0 0 0 0 1.143h4.572a.572.572 0 0 0 0-1.143H9.333V8h5.143a.572.572 0 0 0 .572-.571V6.286c0-.946-.77-1.715-1.715-1.715zM5.905 1.143h1.143v.571a.572.572 0 0 1-1.143 0zm.571 6.398L5.258 5.714h2.436L6.476 7.541zm4.572-5.255a.572.572 0 0 1-.572-.572v-.571h1.143v.571a.572.572 0 0 1-.571.572z" id="path14" stroke-width=".034" fill="#fff"/></svg>