<svg xmlns="http://www.w3.org/2000/svg" height="65" width="65" id="svg4"><path d="M63.952 10.484c.58 0 1.048-.47 1.048-1.049v-6.29c0-.578-.468-1.048-1.048-1.048H42.365c-.016-.017-.03-.036-.048-.052l-.201-.203A6.257 6.257 0 0 0 37.668 0h-.284a5.208 5.208 0 0 0-3.708 1.535L32.5 2.71l-1.175-1.175A5.208 5.208 0 0 0 27.617 0h-.284a6.255 6.255 0 0 0-4.448 1.842l-.202.203c-.017.016-.032.035-.048.052H1.048C.468 2.097 0 2.567 0 3.145v6.29c0 .579.468 1.049 1.048 1.049h3.146v44.032H3.145c-.58 0-1.048.47-1.048 1.049v3.145H1.048c-.58 0-1.048.47-1.048 1.048v4.194C0 64.53.468 65 1.048 65h22.017c.58 0 1.048-.47 1.048-1.048V46.129c0-6.326-3.865-11.991-9.516-14.438a24.134 24.134 0 0 0 14.458-10.885l2.829 2.057a1.044 1.044 0 0 0 1.232.001l2.83-2.058a24.131 24.131 0 0 0 14.457 10.885c-5.65 2.447-9.516 8.112-9.516 14.438v17.823c0 .578.468 1.048 1.048 1.048h22.017c.58 0 1.048-.47 1.048-1.048v-4.194c0-.578-.468-1.048-1.048-1.048h-1.049v-3.145c0-.579-.468-1.049-1.048-1.049h-1.049V10.484zm-1.049-6.29v4.193H45.065a9.37 9.37 0 0 0-1.138-4.193zM52.42 25.709a17.88 17.88 0 0 1-11.36-8.623l.135-.098a9.472 9.472 0 0 0 3.819-6.505h7.406zM2.097 4.194h18.977a9.356 9.356 0 0 0-1.138 4.193H2.096zm10.484 6.29h7.407a9.467 9.467 0 0 0 3.817 6.505l.135.099a17.877 17.877 0 0 1-11.36 8.62V10.485zm-6.29 0h4.193v44.032H6.29zM4.193 56.613h8.387v2.097H4.194zm7.338 6.29H2.097v-2.097h12.58v2.097zM22.016 46.13v16.774h-5.242v-3.145c0-.578-.468-1.048-1.048-1.048h-1.049v-3.145c0-.579-.468-1.049-1.048-1.049h-1.048V33.164c5.537 1.795 9.435 7.048 9.435 12.965zm-9.435-16.128v-2.144A19.98 19.98 0 0 0 25.65 18.33l1.707 1.241a22.027 22.027 0 0 1-14.776 10.43zm25.064-10.43l1.706-1.242a19.978 19.978 0 0 0 13.07 9.527v2.145a22.017 22.017 0 0 1-14.776-10.43zm5.339 26.558c0-5.917 3.898-11.17 9.435-12.966v21.353h-1.048c-.58 0-1.048.47-1.048 1.049v3.145h-1.049c-.58 0-1.048.47-1.048 1.048v3.145h-5.242zm19.92 16.774H50.322v-2.097h12.58zM52.418 58.71v-2.097h8.387v2.097zm6.29-4.194h-4.193V10.484h4.194z" id="path2" fill="#2980b9" stroke-width=".131"/></svg>