<svg xmlns="http://www.w3.org/2000/svg" height="65" width="73.672" id="Layer_1"><path d="M12.322 5.34a6.99 6.99 0 0 0-6.982 6.982 6.99 6.99 0 0 0 6.982 6.982 6.99 6.99 0 0 0 6.982-6.982 6.99 6.99 0 0 0-6.982-6.981z" id="path2" fill="#2980b9" stroke-width=".144"/><path d="M12.322 0c-.598 0-1.082.485-1.082 1.083V3.26a1.083 1.083 0 1 0 2.165 0V1.083C13.405.485 12.921 0 12.322 0z" id="path8" fill="#2980b9" stroke-width=".144"/><path d="M21.036 3.61a1.083 1.083 0 0 0-1.532 0l-1.54 1.54a1.083 1.083 0 1 0 1.532 1.53l1.54-1.54a1.083 1.083 0 0 0 0-1.53z" id="path14" fill="#2980b9" stroke-width=".144"/><path d="M23.562 11.24h-2.178a1.083 1.083 0 1 0 0 2.165h2.178a1.083 1.083 0 1 0 0-2.165z" id="path20" fill="#2980b9" stroke-width=".144"/><path d="M21.036 19.504l-1.54-1.54a1.083 1.083 0 0 0-1.532 1.532l1.54 1.54a1.08 1.08 0 0 0 1.532 0 1.083 1.083 0 0 0 0-1.532z" id="path26" fill="#2980b9" stroke-width=".144"/><path d="M12.322 20.301c-.598 0-1.082.485-1.082 1.083v2.178a1.083 1.083 0 1 0 2.165 0v-2.178c0-.598-.484-1.083-1.083-1.083z" id="path32" fill="#2980b9" stroke-width=".144"/><path d="M6.68 17.964a1.083 1.083 0 0 0-1.53 0l-1.54 1.54a1.083 1.083 0 1 0 1.53 1.532l1.54-1.54a1.083 1.083 0 0 0 0-1.532z" id="path38" fill="#2980b9" stroke-width=".144"/><path d="M3.26 11.24H1.084a1.083 1.083 0 1 0 0 2.165H3.26a1.083 1.083 0 1 0 0-2.165z" id="path44" fill="#2980b9" stroke-width=".144"/><path d="M6.68 5.15L5.14 3.61a1.083 1.083 0 1 0-1.53 1.53l1.54 1.54a1.08 1.08 0 0 0 1.53 0 1.083 1.083 0 0 0 0-1.53z" id="path50" fill="#2980b9" stroke-width=".144"/><path d="M73.148 61.448a10.114 10.114 0 0 0-6.236-1.743c-1.994-2.747-5.757-5.102-10.94-6.838-3.218-1.078-6.809-1.855-10.627-2.317l7.758-19.464a13.7 13.7 0 0 1 3.028 2.985c.275.375.701.588 1.17.474 2.563-.465 5.28-.167 7.861.861 2.601 1.037 4.79 2.706 6.333 4.829a1.083 1.083 0 0 0 1.948-.483c.04-.287.978-7.103-1.255-14.528a1.083 1.083 0 0 0-2.074.623c1.304 4.335 1.446 8.526 1.366 11.083-1.546-1.496-3.416-2.699-5.516-3.536-2.387-.95-4.884-1.355-7.316-1.194l.054-.166c.846-2.585 1.477-5.249 1.787-7.953.284-2.475.31-4.974-.001-7.447a23.454 23.454 0 0 0-.928-4.224l-.01-.03c3.885 2.104 6.872 5.206 8.9 9.25a1.083 1.083 0 1 0 1.935-.972C67.698 15.3 63.482 11.444 57.85 9.2c-7.745-3.086-15.806-2.071-23.31 2.936-5.603 3.738-8.883 8.323-9.02 8.516a1.083 1.083 0 0 0 1.081 1.69c2.58-.48 5.318-.185 7.918.852 2.563 1.021 4.727 2.657 6.266 4.736.299.404.735.653 1.248.5a13.71 13.71 0 0 1 4.212-.078l-8.651 21.707c-.218-.002-.436-.006-.655-.006-4.99 0-9.76.497-14.176 1.478a1.083 1.083 0 1 0 .47 2.114c4.201-.933 8.941-1.426 13.706-1.426 2.259 0 4.519.107 6.766.33l.024.002c4.18.414 8.097 1.212 11.555 2.37 4.127 1.382 7.314 3.204 9.184 5.223-.943.293-1.856.727-2.707 1.305a7.938 7.938 0 0 1-8.956 0 10.093 10.093 0 0 0-11.388 0 7.938 7.938 0 0 1-8.956 0 10.093 10.093 0 0 0-11.387 0 7.938 7.938 0 0 1-8.957 0 10.22 10.22 0 0 0-2.707-1.305c1.868-2.016 5.049-3.836 9.168-5.218a1.083 1.083 0 0 0-.688-2.053c-5.175 1.735-8.931 4.089-10.924 6.833A10.116 10.116 0 0 0 .73 61.448a1.083 1.083 0 1 0 1.216 1.792 7.95 7.95 0 0 1 5.326-1.337c.066.014.133.023.2.025a7.989 7.989 0 0 1 3.43 1.312 10.093 10.093 0 0 0 11.387 0 7.938 7.938 0 0 1 8.957 0 10.093 10.093 0 0 0 11.387 0 7.938 7.938 0 0 1 8.956 0A10.127 10.127 0 0 0 57.283 65a10.13 10.13 0 0 0 5.694-1.76 7.99 7.99 0 0 1 3.422-1.311c.071-.001.142-.011.212-.027a7.95 7.95 0 0 1 5.322 1.338 1.083 1.083 0 1 0 1.215-1.792zM43.502 26.083l.035-.073c1.009-2.112 2.186-4.153 3.558-6.05a1.102 1.102 0 0 0-.242-1.511 1.105 1.105 0 0 0-1.512.242 40.343 40.343 0 0 0-2.96 4.796c-.318.6-.64 1.208-.913 1.83l-.014.03c-1.654-1.79-3.745-3.214-6.133-4.165a16.914 16.914 0 0 0-6.437-1.229c1.446-1.625 3.82-3.999 6.912-6.052 3.065-2.036 6.23-3.365 9.403-3.95 3.072-.567 6.17-.434 9.245.392a23.914 23.914 0 0 0-4.644 3.34 32.238 32.238 0 0 0-1.59 1.547 1.083 1.083 0 0 0 1.568 1.494c1.388-1.456 2.955-2.787 4.666-3.863a17.12 17.12 0 0 1 2.471-1.307c.226.513.52 1.27.795 2.264 1.306 4.703.953 9.78-.191 14.476a40.81 40.81 0 0 1-.854 3l-.01.031c-1.473-1.559-3.283-2.832-5.331-3.748l-.084-.037c-2.423-1.07-5.09-1.603-7.738-1.457zm-.395 24.234a69.07 69.07 0 0 0-1.516-.114 60.547 60.547 0 0 0-1.688-.09l8.493-21.307c.514.147 1.02.323 1.515.523.08.033 1.321.601 1.319.607z" id="path56" fill="#2980b9" stroke-width=".144"/></svg>