<svg xmlns="http://www.w3.org/2000/svg" height="65" width="41.159" id="Capa_1"><path id="path2" d="M34.727 40.34l-7.645-1.18v-3.413a10.82 10.82 0 0 0 4.328-8.655V17.34H14.085v-2.166h2.166v-3.25h2.166v3.25h4.332v-3.25h2.167v3.25h6.494v-4.796a5.42 5.42 0 0 0 3.249-4.945V5.43A5.421 5.421 0 0 0 29.244.014c-1.77 0-3.344.854-4.333 2.17a5.412 5.412 0 0 0-8.66-.007A5.408 5.408 0 0 0 11.933 0h-.018a5.415 5.415 0 1 0-2.166 10.38v16.712a10.82 10.82 0 0 0 4.337 8.662v3.405L6.43 40.34A7.54 7.54 0 0 0 0 47.833V65h2.166V47.833a5.385 5.385 0 0 1 4.595-5.352l8.191-1.264c.467.26.948.484 1.437.674l.842 3.366L8.5 46.6a1.083 1.083 0 0 0-.92 1.07V65h2.167V48.6l13.162-2.025c.43-.066.778-.384.885-.807l.968-3.874c.492-.191.975-.416 1.444-.677l8.191 1.264a5.385 5.385 0 0 1 4.594 5.352V65h2.166V47.833a7.54 7.54 0 0 0-6.43-7.493zM11.914 27.092v-5.416h17.33v5.416c0 4.778-3.888 8.664-8.665 8.664-4.778 0-8.665-3.887-8.665-8.664zm8.665 10.83a10.77 10.77 0 0 0 4.337-.908v2.437a9.408 9.408 0 0 1-8.665.004v-2.437c1.326.58 2.79.905 4.328.905zm1.29 6.622l-2.488.382-.597-2.388c1.188.187 2.398.187 3.586 0z" stroke-width=".127" fill="#2980b9"/><path id="rect4" stroke-width=".127" fill="#2980b9" d="M14.085 56.332h2.166v2.166h-2.166z"/><path id="rect6" stroke-width=".127" fill="#2980b9" d="M14.085 49.833h2.166v2.166h-2.166z"/><path id="rect8" stroke-width=".127" fill="#2980b9" d="M14.085 62.831h2.166v2.166h-2.166z"/><path id="rect10" stroke-width=".127" fill="#2980b9" d="M24.916 56.332h2.166v2.166h-2.166z"/><path id="rect12" stroke-width=".127" fill="#2980b9" d="M24.916 49.833h2.166v2.166h-2.166z"/><path id="rect14" stroke-width=".127" fill="#2980b9" d="M24.916 62.831h2.166v2.166h-2.166z"/><path id="rect16" stroke-width=".127" fill="#2980b9" d="M31.414 48.75h2.166v16.246h-2.166z"/></svg>