<svg xmlns="http://www.w3.org/2000/svg" height="32" width="32" id="Capa_1"><path d="M14.046 25.947c-.152-1.92-.287-4.02-.03-5.924a138.37 138.37 0 0 0-1.948-2.328c-2.026-2.376-3.602-4.226-4.72-6.863-1.008 1.72-2.156 2.918-3.69 4.519a99.07 99.07 0 0 0-2.373 2.548c.262.806.536 1.578.804 2.314.716 1.965.77 4.227.727 6.059a5.637 5.637 0 0 0 1.61 4.037A5.567 5.567 0 0 0 8.437 32a5.544 5.544 0 0 0 4.117-1.796 5.644 5.644 0 0 0 1.492-4.257z" id="path2" stroke-width=".063" fill="#deb887"/><path d="M7.5 0C3.365 0 0 4.626 0 10.313c0 2.072.275 3.863.67 5.472a133.04 133.04 0 0 1 1.634-1.732c1.951-2.035 3.145-3.29 4.258-5.82v-1.67a.937.937 0 1 1 1.875 0V8.29c1.001 3.42 2.619 5.327 5.058 8.19.293.343.598.703.912 1.075.33-2.084.593-4.401.593-7.242C15 4.625 11.635 0 7.5 0z" id="path8" stroke-width=".063" fill="#deb887"/><path d="M30.715 17.9a99.49 99.49 0 0 0-2.373-2.55c-1.534-1.6-2.745-2.797-3.753-4.518-1.117 2.637-2.693 4.486-4.72 6.863-.602.708-1.256 1.48-1.947 2.328.257 1.904.121 4.004-.03 5.924a5.644 5.644 0 0 0 1.492 4.257A5.544 5.544 0 0 0 23.5 32c1.522 0 3.009-.6 4.074-1.691a5.637 5.637 0 0 0 1.61-4.037c-.043-1.832.01-4.094.727-6.06.268-.735.542-1.507.804-2.313z" id="path14" stroke-width=".063" fill="#deb887"/><path d="M24.438 0c-4.136 0-7.5 4.626-7.5 10.313 0 2.84.262 5.158.592 7.242.314-.372.62-.732.913-1.076 2.439-2.862 4.056-4.768 5.057-8.19V6.564a.937.937 0 1 1 1.875 0v1.67c1.113 2.53 2.37 3.785 4.32 5.82.49.51 1.04 1.09 1.635 1.732.395-1.609.67-3.4.67-5.473C32 4.627 28.573 0 24.437 0z" id="path20" stroke-width=".063" fill="#deb887"/></svg>