<svg xmlns="http://www.w3.org/2000/svg" height="32" width="28.632" id="Layer_1"><path d="M26.654 14.73c-1.341-1.788-3.15-2.772-5.096-2.772h-2.021v-1.853h-7.41v9.937h7.41V13.98h2.02c1.295 0 2.53.697 3.48 1.964 1.015 1.353 1.574 3.167 1.574 5.11 0 1.942-.56 3.757-1.574 5.11-.95 1.266-2.185 1.963-3.48 1.963h-2.02v-6.063h-7.41v4.884h2.02v2.021H8.084v-2.02h2.021v-4.885h-7.41V32h16.842v-1.853h2.02c1.946 0 3.756-.984 5.097-2.772 1.275-1.7 1.978-3.946 1.978-6.322 0-2.377-.703-4.622-1.978-6.323z" id="path2" fill="#deb887" stroke-width=".063"/><path transform="translate(-1.684) scale(.0625)" id="polygon8" fill="#deb887" d="M188.632 320.674v-158.99H26.947l43.116 64.674v94.316z"/><path d="M12.126 1.814V0h-2.02v1.814c-4.175.374-7.411 3.039-7.411 6.27h16.842c0-3.231-3.236-5.896-7.41-6.27z" id="path14" fill="#deb887" stroke-width=".063"/></svg>