<svg xmlns="http://www.w3.org/2000/svg" height="27" width="29.969" id="Layer_1"><path d="M23.195 14.68a3.102 3.102 0 0 0 2.158 3.814l.027.008a3.108 3.108 0 0 0 3.788-2.166 3.078 3.078 0 0 0-.29-2.354 3.08 3.08 0 0 0-1.869-1.46l-.026-.008a3.108 3.108 0 0 0-3.788 2.166z" id="path2" fill="#fff" stroke-width=".055"/><path d="M.878 17.932c-.54 2.011.076 3.93 1.372 4.277l15.123 4.052c1.296.347 2.788-1.006 3.327-3.018.539-2.01-.077-3.93-1.373-4.276L4.204 14.915C2.91 14.567 1.416 15.92.878 17.932z" id="path4" fill="#fff" stroke-width=".055"/><path d="M4.382 14.251l15.123 4.052c.093.025.182.056.27.092.18-1.088.631-4.578-.422-7.201-.105-.263-.219-.535-.329-.798-.901-2.162-1.923-4.612-.373-6.53a.343.343 0 0 1 .535.431c-.66.816-.749 1.775-.563 2.796 3.641 1.705 4.98 4.252 5.399 5.31a3.813 3.813 0 0 1 1.752-.657c-.062-.868-.5-3.573-3.438-7.34C20.374 1.89 18.04.639 15.4.688c-1.981.037-3.409.831-3.423.839l-.008.005c-4.722 2.521-7.423 10.95-7.928 12.657.114.012.228.032.34.062z" id="path8" fill="#ff5240" stroke-width=".055"/><path d="M.214 17.754c-.637 2.377.197 4.673 1.858 5.118l15.123 4.053c1.662.445 3.532-1.127 4.168-3.504.509-1.897.08-3.742-.959-4.636.13-.67.835-4.738-.413-7.847a65.261 65.261 0 0 0-.332-.807c-.302-.722-.606-1.453-.822-2.166 3.313 1.738 4.385 4.23 4.625 4.913-.428.44-.754.988-.929 1.618a3.79 3.79 0 0 0 2.637 4.66l.032.009a3.797 3.797 0 0 0 4.628-2.646 3.76 3.76 0 0 0-.353-2.876 3.761 3.761 0 0 0-2.284-1.784l-.032-.009a3.763 3.763 0 0 0-.697-.117c-.055-.96-.5-3.79-3.587-7.75C20.248.612 17.336-.043 15.355.003c-2.111.047-3.603.863-3.712.924-2.318 1.24-4.43 3.874-6.276 7.831a38.748 38.748 0 0 0-2.052 5.47c-1.33.279-2.599 1.651-3.101 3.526zm22.98-3.074a3.108 3.108 0 0 1 3.789-2.166l.026.008c.798.22 1.462.74 1.87 1.46.407.72.51 1.556.289 2.354a3.108 3.108 0 0 1-3.788 2.166l-.027-.008a3.103 3.103 0 0 1-2.158-3.814zm-3.42 3.715a2.199 2.199 0 0 0-.269-.092L4.382 14.251a2.206 2.206 0 0 0-.34-.062C4.547 12.482 7.248 4.053 11.97 1.53a.033.033 0 0 0 .008-.004c.014-.008 1.441-.802 3.422-.839 2.64-.05 4.974 1.201 6.936 3.718 2.937 3.766 3.376 6.472 3.438 7.34-.634.07-1.236.3-1.753.657-.417-1.058-1.757-3.606-5.399-5.31-.185-1.021-.096-1.98.563-2.796a.344.344 0 0 0-.534-.432c-1.55 1.918-.528 4.369.373 6.53.11.263.224.535.33.798 1.052 2.623.6 6.113.42 7.202zM.877 17.932c.54-2.01 2.032-3.365 3.327-3.017l15.123 4.052c1.296.347 1.912 2.265 1.373 4.276-.539 2.012-2.032 3.365-3.327 3.018L2.25 22.209C.954 21.862.339 19.943.877 17.932z" id="path10" fill="#4f413b" stroke-width=".055"/></svg>