<svg xmlns="http://www.w3.org/2000/svg" height="80" width="33.418" id="svg8"><path d="M33.418 47.342V1.266c0-.7-.567-1.266-1.266-1.266H1.266C.566 0 0 .567 0 1.266v46.076c0 .641.478 1.17 1.097 1.253v.903A1.265 1.265 0 0 0 0 50.75v26.97c0 .7.567 1.266 1.266 1.266h1.122a1.266 1.266 0 0 0 2.481 0h23.68a1.266 1.266 0 0 0 2.48 0h1.123c.699 0 1.266-.566 1.266-1.265V50.75c0-.642-.478-1.17-1.097-1.253v-.903a1.265 1.265 0 0 0 1.097-1.253zm-2.532 29.114H2.532V62.532h.123a3.34 3.34 0 0 0 3.337-3.337v-7.178h24.894zM4.304 52.016v7.179c0 .91-.74 1.649-1.65 1.649h-.122v-8.827zm-.675-2.53v-.878h26.16v.877zm.675-3.41H2.532V36.54h.123c.91 0 1.649.74 1.649 1.649zM30.886 2.532v43.544H5.992v-7.887a3.34 3.34 0 0 0-3.337-3.337h-.123V2.532z" id="path2" stroke-width=".169" fill="#2980b9"/><path d="M16.709 11.561a2.788 2.788 0 0 0 2.785-2.785 2.788 2.788 0 0 0-2.785-2.784 2.788 2.788 0 0 0-2.785 2.784 2.788 2.788 0 0 0 2.785 2.785zm0-3.882a1.098 1.098 0 0 1 0 2.194 1.098 1.098 0 0 1-1.097-1.097c0-.605.492-1.097 1.097-1.097z" id="path4" stroke-width=".169" fill="#2980b9"/></svg>