<svg xmlns="http://www.w3.org/2000/svg" height="40" width="27.955" id="Слой_1"><path id="path2" d="M5.936 33.309c6.464-3.38 12.601-4.414 20.586-4.551 2.26-.039-2.844 5.48-3.494 6.028-8.957-3.69-15.15-.834-22.772 3.928l5.68-5.405zM13.933 0c19.6 18.307 19.583 25.926-5.967 29.834C14.463 23.315 17.198 13.938 13.933 0zM25.84 35.347c-2.96 4.966-5.834 5.236-11.58 3.525 4.36-.257 5.924-.414 7.716-1.258C17.113 38.317 9.574 35.224 0 40c13.986-9.842 18.04-1.86 25.89-4.736-.021.032-.044.062-.066.092l.016-.01z" fill="#333" stroke-width=".283"/></svg>