<svg xmlns="http://www.w3.org/2000/svg" height="40" width="40" id="Слой_1"><circle id="circle2" r="20" cy="20" cx="20" fill="#3687bd"/><path d="M13.968 27.982c4.848-2.536 9.451-3.31 15.44-3.413 1.694-.029-2.133 4.11-2.621 4.521-6.717-2.768-11.363-.626-17.079 2.946l4.26-4.054zM19.966 3c14.7 13.731 14.687 19.445-4.475 22.376 4.872-4.89 6.924-11.923 4.475-22.376zm8.931 26.51c-2.221 3.724-4.376 3.927-8.685 2.644 3.27-.192 4.443-.311 5.787-.943-3.648.526-9.302-1.793-16.483 1.789 10.49-7.381 13.53-1.395 19.418-3.552-.016.024-.033.046-.05.069z" id="path2" fill="#fff"/></svg>