<svg xmlns="http://www.w3.org/2000/svg" height="16" width="15.829" id="Layer_1"><circle r="2.398" cy="8.472" cx="8.476" id="circle2" stroke-width=".031" fill="#fff"/><path d="M6.445 1.635c-1.107 1.726-.752 3.278-.235 4.25a3.427 3.427 0 0 1 2.266-.854c.81 0 1.556.281 2.144.751 1.015-.91 2.51-.874 3.064-2.381.787-2.142-4.908-5.402-7.24-1.766z" id="path8" stroke-width=".031" fill="#fff"/><path d="M15.413 10.131c-.94-1.82-2.461-2.289-3.561-2.328a3.447 3.447 0 0 1-2.118 3.873c.28 1.332-.498 2.609.53 3.842 1.462 1.752 7.133-1.55 5.15-5.387z" id="path14" stroke-width=".031" fill="#fff"/><path d="M5.035 8.472c0-.174.013-.345.038-.512-1.294-.425-2.01-1.736-3.592-1.462-2.248.39-2.224 6.951 2.09 7.152 2.047.096 3.213-.987 3.797-1.92a3.447 3.447 0 0 1-2.333-3.258z" id="path20" stroke-width=".031" fill="#fff"/></svg>