<svg xmlns="http://www.w3.org/2000/svg" height="80" width="63.281" id="Capa_1"><path d="M62.11 0H1.171C.525 0 0 .525 0 1.172v77.656C0 79.475.525 80 1.172 80h60.937c.648 0 1.172-.525 1.172-1.172V1.172C63.281.525 62.757 0 62.11 0zM2.343 7.031h9.375a3.52 3.52 0 0 1 3.515 3.516v1.57a8.22 8.22 0 0 0-6.946 6.945h-.476a1.172 1.172 0 1 0 0 2.344H25a1.172 1.172 0 1 0 0-2.343h-.476a8.22 8.22 0 0 0-6.946-6.947v-1.57a5.865 5.865 0 0 0-5.86-5.858H2.345V2.344H30.47v70.625H2.344zm14.062 7.344a5.87 5.87 0 0 1 5.742 4.688H10.665a5.87 5.87 0 0 1 5.741-4.688zm44.532 63.281H2.343v-2.344h58.593zm0-4.687H32.811V2.344h28.126z" id="path2" fill="#2980b9" stroke-width=".156"/><path d="M36.328 29.453c-.647 0-1.172.525-1.172 1.172v14.063a1.172 1.172 0 1 0 2.344 0V30.624c0-.647-.525-1.172-1.172-1.172z" id="path8" fill="#2980b9" stroke-width=".156"/><path d="M26.953 29.453c-.647 0-1.172.525-1.172 1.172v14.063a1.172 1.172 0 1 0 2.344 0V30.624c0-.647-.525-1.172-1.172-1.172z" id="path14" fill="#2980b9" stroke-width=".156"/><path d="M16.406 23.75c-.647 0-1.172.525-1.172 1.172v2.344a1.172 1.172 0 1 0 2.344 0v-2.344c0-.647-.525-1.172-1.172-1.172z" id="path20" fill="#2980b9" stroke-width=".156"/><path d="M11.719 23.75c-.647 0-1.172.525-1.172 1.172v2.344a1.172 1.172 0 1 0 2.344 0v-2.344c0-.647-.525-1.172-1.172-1.172z" id="path26" fill="#2980b9" stroke-width=".156"/><path d="M21.094 23.75c-.647 0-1.172.525-1.172 1.172v2.344a1.172 1.172 0 1 0 2.344 0v-2.344c0-.647-.525-1.172-1.172-1.172z" id="path32" fill="#2980b9" stroke-width=".156"/><path d="M16.406 30.781c-.647 0-1.172.525-1.172 1.172v2.344a1.172 1.172 0 1 0 2.344 0v-2.344c0-.647-.525-1.172-1.172-1.172z" id="path38" fill="#2980b9" stroke-width=".156"/><path d="M11.719 30.781c-.647 0-1.172.525-1.172 1.172v2.344a1.172 1.172 0 1 0 2.344 0v-2.344c0-.647-.525-1.172-1.172-1.172z" id="path44" fill="#2980b9" stroke-width=".156"/><path d="M21.094 30.781c-.647 0-1.172.525-1.172 1.172v2.344a1.172 1.172 0 1 0 2.344 0v-2.344c0-.647-.525-1.172-1.172-1.172z" id="path50" fill="#2980b9" stroke-width=".156"/><path d="M16.406 37.813c-.647 0-1.172.524-1.172 1.171v2.344a1.172 1.172 0 1 0 2.344 0v-2.344c0-.647-.525-1.172-1.172-1.172z" id="path56" fill="#2980b9" stroke-width=".156"/><path d="M11.719 37.813c-.647 0-1.172.524-1.172 1.171v2.344a1.172 1.172 0 1 0 2.344 0v-2.344c0-.647-.525-1.172-1.172-1.172z" id="path62" fill="#2980b9" stroke-width=".156"/><path d="M21.094 37.813c-.647 0-1.172.524-1.172 1.171v2.344a1.172 1.172 0 1 0 2.344 0v-2.344c0-.647-.525-1.172-1.172-1.172z" id="path68" fill="#2980b9" stroke-width=".156"/><path d="M16.406 44.844c-.647 0-1.172.524-1.172 1.172v2.343a1.172 1.172 0 1 0 2.344 0v-2.343c0-.648-.525-1.172-1.172-1.172z" id="path74" fill="#2980b9" stroke-width=".156"/><path d="M11.719 44.844c-.647 0-1.172.524-1.172 1.172v2.343a1.172 1.172 0 1 0 2.344 0v-2.343c0-.648-.525-1.172-1.172-1.172z" id="path80" fill="#2980b9" stroke-width=".156"/><path d="M21.094 44.844c-.647 0-1.172.524-1.172 1.172v2.343a1.172 1.172 0 1 0 2.344 0v-2.343c0-.648-.525-1.172-1.172-1.172z" id="path86" fill="#2980b9" stroke-width=".156"/><path d="M16.406 51.875c-.647 0-1.172.525-1.172 1.172v2.344a1.172 1.172 0 1 0 2.344 0v-2.344c0-.647-.525-1.172-1.172-1.172z" id="path92" fill="#2980b9" stroke-width=".156"/><path d="M11.719 51.875c-.647 0-1.172.525-1.172 1.172v2.344a1.172 1.172 0 1 0 2.344 0v-2.344c0-.647-.525-1.172-1.172-1.172z" id="path98" fill="#2980b9" stroke-width=".156"/><path d="M21.094 51.875c-.647 0-1.172.525-1.172 1.172v2.344a1.172 1.172 0 1 0 2.344 0v-2.344c0-.647-.525-1.172-1.172-1.172z" id="path104" fill="#2980b9" stroke-width=".156"/><path d="M16.406 58.906c-.647 0-1.172.525-1.172 1.172v2.344a1.172 1.172 0 1 0 2.344 0v-2.344c0-.647-.525-1.172-1.172-1.172z" id="path110" fill="#2980b9" stroke-width=".156"/><path d="M11.719 58.906c-.647 0-1.172.525-1.172 1.172v2.344a1.172 1.172 0 1 0 2.344 0v-2.344c0-.647-.525-1.172-1.172-1.172z" id="path116" fill="#2980b9" stroke-width=".156"/><path d="M21.094 58.906c-.647 0-1.172.525-1.172 1.172v2.344a1.172 1.172 0 1 0 2.344 0v-2.344c0-.647-.525-1.172-1.172-1.172z" id="path122" fill="#2980b9" stroke-width=".156"/><path d="M16.406 65.938c-.647 0-1.172.524-1.172 1.171v2.344a1.172 1.172 0 1 0 2.344 0V67.11c0-.647-.525-1.171-1.172-1.171z" id="path128" fill="#2980b9" stroke-width=".156"/><path d="M11.719 65.938c-.647 0-1.172.524-1.172 1.171v2.344a1.172 1.172 0 1 0 2.344 0V67.11c0-.647-.525-1.171-1.172-1.171z" id="path134" fill="#2980b9" stroke-width=".156"/><path d="M21.094 65.938c-.647 0-1.172.524-1.172 1.171v2.344a1.172 1.172 0 1 0 2.344 0V67.11c0-.647-.525-1.171-1.172-1.171z" id="path140" fill="#2980b9" stroke-width=".156"/></svg>