<svg xmlns="http://www.w3.org/2000/svg" id="Слой_1" width="16" height="16"><path d="M11.585 0h-7.17A4.42 4.42 0 0 0 0 4.416v7.169A4.42 4.42 0 0 0 4.415 16h7.17A4.42 4.42 0 0 0 16 11.585v-7.17A4.42 4.42 0 0 0 11.585 0zm2.995 11.585a2.999 2.999 0 0 1-2.995 2.995h-7.17a2.999 2.999 0 0 1-2.995-2.995v-7.17A3 3 0 0 1 4.415 1.42h7.17a3 3 0 0 1 2.995 2.996zm0 0" id="path2" stroke-width=".118" fill="#fff"/><path d="M8 3.878A4.127 4.127 0 0 0 3.877 8 4.127 4.127 0 0 0 8 12.123 4.128 4.128 0 0 0 12.123 8 4.128 4.128 0 0 0 8 3.878zm0 6.825A2.706 2.706 0 0 1 5.297 8 2.707 2.707 0 0 1 8 5.297 2.707 2.707 0 0 1 10.703 8 2.706 2.706 0 0 1 8 10.703zm0 0" id="path4" stroke-width=".118" fill="#fff"/><path d="M12.296 2.674a1.044 1.044 0 0 0-1.041 1.041 1.046 1.046 0 0 0 1.041 1.041c.274 0 .542-.112.736-.305a1.05 1.05 0 0 0 .305-.736c0-.275-.111-.544-.305-.737a1.045 1.045 0 0 0-.736-.304zm0 0" id="path6" stroke-width=".118" fill="#fff"/></svg>