<svg xmlns="http://www.w3.org/2000/svg" id="svg2" width="16" height="13.49"><path d="M7.555 13.49H5.722L5.705 8.4 5.69 3.31l-.729-.018-.729-.019-.28.215a1.712 1.712 0 0 0-.41.465c-.114.222-.12.282-.048.524.052.176.195.384.402.585.176.17.32.345.32.386 0 .041-.194.726-.431 1.522-.238.796-.457 1.473-.488 1.506-.033.034-.255-.014-.537-.117a5.195 5.195 0 0 1-.88-.436 5.209 5.209 0 0 1-.783-.67 4.643 4.643 0 0 1-.592-.804 5.567 5.567 0 0 1-.356-.915C.032 5.119.002 4.838 0 4.16c0-.634.028-.949.116-1.243.065-.216.21-.57.325-.785.113-.216.398-.586.632-.82.326-.329.571-.5 1.048-.732A7.82 7.82 0 0 1 3.168.158c.395-.11.88-.12 6.629-.138L16 0v3.343h-3.224c-1.774.001-3.374-.022-3.374-.022s-.013.402 0 1.27l-.005 1.141 2.508.018c1.887.012 2.572.046 2.572.046s.016.786.016 1.585c.001 1.233-.036 1.658-.036 1.658H9.388v4.451z" id="path825" fill="#fff" stroke-width=".065"/></svg>