<svg xmlns="http://www.w3.org/2000/svg" height="80" viewBox="-4 0 53.1 60" width="70.8" id="svg32"><path d="M37.4 26.4a2.7 2.7 0 0 0 2.7-2.7v-8.1h2.7a.9.9 0 0 0 .9-.9v-3.6a.9.9 0 0 0-.9-.9h-2.7V8.4h.9a.9.9 0 0 0 .9-.9V3.9A.9.9 0 0 0 41 3H5a.9.9 0 0 0-.9.9v3.6a.9.9 0 0 0 .9.9h.9v15.3a2.7 2.7 0 0 0 2.7 2.7h2.7v1.8H9.5a.9.9 0 0 0-.9.9v3.6a.9.9 0 0 0 .9.9h1.8v2.7a11.635 11.635 0 0 0 3.986 8.777L13.33 51.6H10.4a.9.9 0 0 0-.9.9v3.6a.9.9 0 0 0 .9.9h25.2a.9.9 0 0 0 .9-.9v-3.6a.9.9 0 0 0-.9-.9h-2.93l-1.956-6.523A11.635 11.635 0 0 0 34.7 36.3v-2.7h1.8a.9.9 0 0 0 .9-.9v-3.6a.9.9 0 0 0-.9-.9h-1.8v-1.8zM41.9 12v1.8h-1.8V12zm-36-7.2h34.2v1.8H5.9zm2.7 19.8a.9.9 0 0 1-.9-.9V8.4h30.6v15.3a.9.9 0 0 1-.9.9h-2.7v-2.7c0-6.462-5.238-11.7-11.7-11.7-6.462 0-11.7 5.238-11.7 11.7v2.7zm26.1 30.6H11.3v-1.8h23.4zm-19.49-3.6l1.607-5.36c.122.076.246.144.37.215.09.05.181.105.27.154.262.14.526.27.796.394.03.013.063.024.09.038.244.106.491.203.741.291.096.034.195.063.291.09.189.061.38.12.571.171a11.316 11.316 0 0 0 .896.2c.11.02.221.041.333.059.203.031.408.055.614.076.098.01.195.022.293.03.303.023.61.038.917.038.308 0 .614-.015.917-.038.098-.007.195-.02.292-.03.207-.02.412-.045.614-.076a13.65 13.65 0 0 0 .9-.176c.11-.027.22-.053.33-.083.192-.05.383-.11.574-.172.095-.03.193-.059.287-.09.255-.09.507-.19.755-.298l.08-.031c.27-.12.54-.254.798-.396.09-.047.173-.1.26-.15.126-.072.253-.14.376-.217L30.79 51.6zM32.9 36.3a9.885 9.885 0 0 1-9.9 9.9c-.281 0-.56-.011-.838-.034a9.777 9.777 0 0 1-5.292-2.085A9.869 9.869 0 0 1 13.1 36.3v-2.7h19.8zm2.7-4.5H10.4V30h25.2zm-22.5-3.6v-6.3c0-5.468 4.432-9.9 9.9-9.9s9.9 4.432 9.9 9.9v6.3zm0 0" id="path2" fill="#2980b9" stroke-width=".113"/><path d="M-.4 12a.9.9 0 0 0 .9-.9v-.9a.9.9 0 0 0-1.8 0v.9a.9.9 0 0 0 .9.9zm0 0" id="path4" fill="#2980b9" stroke-width=".113"/><path d="M-2.2 12h-.9a.9.9 0 0 0 0 1.8h.9a.9.9 0 0 0 0-1.8zm0 0" id="path6" fill="#2980b9" stroke-width=".113"/><path d="M-.4 13.8a.9.9 0 0 0-.9.9v.9a.9.9 0 0 0 1.8 0v-.9a.9.9 0 0 0-.9-.9zm0 0" id="path8" fill="#2980b9" stroke-width=".113"/><path d="M1.4 13.8h.9a.9.9 0 0 0 0-1.8h-.9a.9.9 0 0 0 0 1.8zm0 0" id="path10" fill="#2980b9" stroke-width=".113"/><path d="M5 39a.9.9 0 0 0 .9-.9v-.9a.9.9 0 0 0-1.8 0v.9a.9.9 0 0 0 .9.9zm0 0" id="path12" fill="#2980b9" stroke-width=".113"/><path d="M3.2 39h-.9a.9.9 0 0 0 0 1.8h.9a.9.9 0 0 0 0-1.8zm0 0" id="path14" fill="#2980b9" stroke-width=".113"/><path d="M5 40.8a.9.9 0 0 0-.9.9v.9a.9.9 0 0 0 1.8 0v-.9a.9.9 0 0 0-.9-.9zm0 0" id="path16" fill="#2980b9" stroke-width=".113"/><path d="M7.7 39h-.9a.9.9 0 0 0 0 1.8h.9a.9.9 0 0 0 0-1.8zm0 0" id="path18" fill="#2980b9" stroke-width=".113"/><path d="M42.8 45.3a.9.9 0 0 0-.9.9v.9a.9.9 0 0 0 1.8 0v-.9a.9.9 0 0 0-.9-.9zm0 0" id="path20" fill="#2980b9" stroke-width=".113"/><path d="M41 48h-.9a.9.9 0 0 0 0 1.8h.9a.9.9 0 0 0 0-1.8zm0 0" id="path22" fill="#2980b9" stroke-width=".113"/><path d="M42.8 49.8a.9.9 0 0 0-.9.9v.9a.9.9 0 0 0 1.8 0v-.9a.9.9 0 0 0-.9-.9zm0 0" id="path24" fill="#2980b9" stroke-width=".113"/><path d="M45.5 48h-.9a.9.9 0 0 0 0 1.8h.9a.9.9 0 0 0 0-1.8zm0 0" id="path26" fill="#2980b9" stroke-width=".113"/><path d="M46.4 31.8a2.7 2.7 0 1 0 0 5.4 2.7 2.7 0 0 0 0-5.4zm0 3.6a.9.9 0 1 1 0-1.8.9.9 0 0 1 0 1.8zm0 0" id="path28" fill="#2980b9" stroke-width=".113"/><path d="M4.1 27.3a2.7 2.7 0 1 0-5.4 0 2.7 2.7 0 0 0 5.4 0zm-3.6 0a.9.9 0 1 1 1.8 0 .9.9 0 0 1-1.8 0zm0 0" id="path30" fill="#2980b9" stroke-width=".113"/></svg>