<svg xmlns="http://www.w3.org/2000/svg" height="32" width="36.8" id="Capa_1"><path transform="translate(0 -2.4) scale(.08366)" id="polygon2" fill="#deb887" d="M392.062 372.938V306h-28.687v66.938z"/><path d="M36 0a.8.8 0 0 0-.8.8V2c0 .665-.218 1.2-.4 1.2h-3.493a3.04 3.04 0 0 0-.502.8c-.1.23-.186.498-.253.8a6.67 6.67 0 0 0-.152 1.466V22.4h2.4V4.8h2c1.196 0 2-1.126 2-2.8V.8A.8.8 0 0 0 36 0z" id="path4" fill="#deb887" stroke-width=".084"/><path d="M1.6 2V.8A.8.8 0 1 0 0 .8V2c0 1.334 1.466 2.8 2.8 2.8h1.207c.028-.47.156-1.057.442-1.6H2.8c-.438 0-1.2-.762-1.2-1.2z" id="path6" fill="#deb887" stroke-width=".084"/><path d="M31.117 2.4H7.2c-.888 0-1.447.354-1.8.8-.44.56-.557 1.26-.587 1.6A3.02 3.02 0 0 0 4.8 5v20.6h24.8V6.266c0-.553.054-1.036.145-1.467.061-.294.144-.557.238-.8a4.16 4.16 0 0 1 .412-.8c.22-.325.465-.593.722-.799z" id="path8" fill="#deb887" stroke-width=".084"/><path d="M7.2 26.4H4.8V32h24.8v-5.6H8z" id="path12" fill="#deb887" stroke-width=".084"/></svg>