<svg xmlns="http://www.w3.org/2000/svg" height="14.08" width="16" id="Слой_1"><path id="path2" d="M16 14.08s-.031-3.03-.216-3.343c-.276-.468-.918-.79-2.108-1.287-1.186-.496-1.566-.915-1.566-1.81 0-.538.363-.363.522-1.348.066-.408.386-.006.447-.939 0-.372-.174-.465-.174-.465s.088-.55.122-.973c.044-.528-.265-1.89-1.912-1.89-1.647 0-1.956 1.362-1.913 1.89.035.423.123.973.123.973s-.174.093-.174.465c.061.933.381.53.447.94.159.984.522.809.522 1.347 0 .608-.176.997-.662 1.34 2.592 1.297 2.94 1.561 2.94 2.722v2.378zM8.179 9.9c-1.583-.661-2.088-1.219-2.088-2.413 0-.717.482-.483.695-1.797.087-.545.515-.01.596-1.253 0-.496-.233-.618-.233-.618s.119-.734.165-1.299C7.372 1.817 6.959 0 4.764 0c-2.197 0-2.609 1.817-2.55 2.52.045.565.163 1.299.163 1.299s-.232.122-.232.618c.082 1.244.508.708.596 1.253.212 1.313.696 1.079.696 1.797 0 1.194-.507 1.752-2.089 2.413C.866 10.102 0 10.414 0 11.166v2.914h11.115v-2.185c0-.686-1.35-1.331-2.936-1.995zm0 0" stroke-width=".2" fill="#fff"/></svg>