<svg xmlns="http://www.w3.org/2000/svg" height="10" width="14.075" id="svg2"><path id="path817" d="M5.134 9.927c-.134-.035-.273-.142-.31-.238C4.763 9.525 7.872.538 8.136.115c.125-.2.77-.125 1.018.117.068.067-.581 2.117-1.444 4.556L6.001 9.624c-.136.387-.315.45-.867.303zM1.399 6.942C-.355 4.887-.301 5.115.69 3.902a68.268 68.268 0 0 1 1.386-1.641l.54-.609.394.259c.217.142.394.343.394.446 0 .103-.427.701-.95 1.33-.522.628-.95 1.22-.95 1.314 0 .095.428.687.95 1.315.523.629.95 1.224.95 1.322 0 .178-.547.634-.76.634-.06 0-.62-.598-1.245-1.33zm9.49 1.037c-.179-.166-.324-.35-.324-.406.001-.057.429-.61.95-1.228.522-.618.948-1.22.948-1.337 0-.117-.427-.727-.95-1.355-.522-.628-.95-1.182-.95-1.231 0-.197.72-.75.861-.662.127.079.639.672 2.597 3.014.164.196.002.455-1.137 1.827-.73.879-1.406 1.617-1.5 1.64-.094.022-.317-.096-.496-.262z" fill="#fff" stroke-width=".146"/></svg>