<svg xmlns="http://www.w3.org/2000/svg" height="10" width="9.957" id="svg2"><path id="path823" d="M0 9.919c.003-.166.174-.32.682-.613.636-.367.955-.883 1.447-2.345.443-1.314.613-1.653 1.02-2.03.693-.641 1.056-.682 1.31-.147.32.675 1.115 1.228 2.216 1.544.207.06.166.622-.097 1.324-.47 1.255-1.47 1.893-3.447 2.196-1.053.162-3.134.209-3.131.07zm5.72-4.451C5 5.03 4.624 4.446 4.783 4.019c.059-.158.69-1.127 1.404-2.153L7.484 0H8.69c.936 0 1.22.035 1.266.155.05.13-2.514 5.126-2.84 5.533-.196.243-.786.15-1.395-.22z" fill="#fff" stroke-width=".11"/></svg>