<svg width="24" height="24" fill="none" xmlns="http://www.w3.org/2000/svg"><g clip-path="url(#clip0)" fill="#E5097F"><path d="M20.385 15.295v5.483H3.615v-5.483H.392v7.094c0 .89.72 1.611 1.614 1.611h19.988a1.61 1.61 0 0 0 1.614-1.61v-7.095h-3.223zm-8.68-.543L7.09 9.176s-.702-.663.06-.663h2.6V.395S9.646 0 10.242 0h3.66c.43 0 .42.333.42.333v8.012h2.4c.924 0 .228.694.228.694s-3.926 5.212-4.473 5.76c-.394.395-.772-.047-.772-.047z"/></g><defs><clipPath id="clip0"><path fill="#fff" d="M0 0h24v24H0z"/></clipPath></defs></svg>