<svg xmlns="http://www.w3.org/2000/svg" width="96" height="96"><path fill="#EEC100" d="M44.818 43L71.5 65c.857 6.649-.608 8.221-6.5 7.5L41 46.229 44.818 43zM46 90h4v4h-4zm0-88h4v4h-4zm44 44h4v4h-4zM2 46h4v4H2z"/><path fill="#376785" d="M71.634 62.45L56.723 49.667l14.399-14.4 4.33-14.721-14.72 4.33-13.381 13.382 2.078 2.078 11.039-11.039a1.47 1.47 0 0 1 2.078 0 1.47 1.47 0 0 1 0 2.078L50.01 43.911 37.97 33.59c1.228-2.955.562-6.271-2.001-8.834-2.611-2.611-9.489-3.877-12.158-3.162-1.223.328-1.65 1.034-1.794 1.569-.144.538-.124 1.371.791 2.286 2.449 2.449 1.841 3.745.999 5.539-.656 1.397-1.648 3.51.387 5.544 1.733 1.733 3.811 2.6 5.888 2.6a7.66 7.66 0 0 0 2.947-.599l6.484 7.564L20.638 64.97l10.391 10.391 16.419-16.419-2.078-2.078-5.336 5.336-6.235-6.235 7.631-7.631 1.919 2.238-5.739 5.74 2.078 2.078 5.58-5.58 16.619 19.387a6.93 6.93 0 0 0 5.245 2.413c1.826 0 3.595-.73 4.891-2.025a6.936 6.936 0 0 0 2.02-5.153 6.934 6.934 0 0 0-2.409-4.982zm-40.605 8.755l-6.235-6.235 3.464-3.464 6.235 6.235-3.464 3.464zm6.927-6.927l-1.385 1.385-6.235-6.235 1.385-1.385 6.235 6.235zm33.157-39.392l-2.014 6.847a4.368 4.368 0 0 0-3.198-1.636 4.387 4.387 0 0 0-1.635-3.197l6.847-2.014zm-6.489 8.568a1.458 1.458 0 0 1 1.039-.431 1.47 1.47 0 0 1 1.039 2.509L54.486 47.749l-2.238-1.918 12.376-12.377zm-38.352 1c-.496-.496-.523-.687.196-2.217.85-1.81 2.098-4.469-.713-7.911 2.261.048 6.555.926 8.137 2.508 2.314 2.314 2.314 5.305 0 7.62-2.315 2.314-5.306 2.314-7.62 0zm15.853 10.175l-6.591-7.689c.147-.131.293-.266.436-.408.143-.143.278-.289.409-.436l7.688 6.591a6.166 6.166 0 0 1-1.942 1.942zm27.82 25.878a3.944 3.944 0 0 1-2.962 1.161 3.934 3.934 0 0 1-2.865-1.385L44.051 46.875a9.138 9.138 0 0 0 2.262-2.262l23.409 20.068a3.933 3.933 0 0 1 1.384 2.865 3.932 3.932 0 0 1-1.161 2.961z"/><path fill="#376785" d="M93.061 8.564A4.416 4.416 0 0 0 96 4.408 4.413 4.413 0 0 0 91.592 0a4.413 4.413 0 0 0-4.408 4.408 4.414 4.414 0 0 0 2.939 4.155v23.419a45.068 45.068 0 0 0-10.259-15.846A45 45 0 0 0 52.408 3.155V0h-8.816v3.155a44.993 44.993 0 0 0-27.455 12.982 45.07 45.07 0 0 0-10.26 15.846V8.564a4.416 4.416 0 0 0 2.939-4.155C8.816 1.977 6.839 0 4.408 0S0 1.977 0 4.408a4.414 4.414 0 0 0 2.939 4.155v35.028H0v8.816h2.939v35.028A4.417 4.417 0 0 0 0 91.592C0 94.023 1.977 96 4.408 96s4.408-1.977 4.408-4.408a4.414 4.414 0 0 0-2.939-4.155v-23.42a45.043 45.043 0 0 0 10.26 15.846 44.993 44.993 0 0 0 27.455 12.982V96h8.816v-3.157a44.994 44.994 0 0 0 27.455-12.98A45.079 45.079 0 0 0 90.122 64.02v23.417a4.416 4.416 0 0 0-2.939 4.155A4.413 4.413 0 0 0 91.591 96 4.413 4.413 0 0 0 96 91.592a4.414 4.414 0 0 0-2.939-4.155V52.408H96v-8.816h-2.939V8.564zM4.408 2.939c.81 0 1.469.659 1.469 1.469a1.47 1.47 0 0 1-1.469 1.469 1.47 1.47 0 0 1 0-2.938zm0 90.122a1.47 1.47 0 0 1 0-2.939 1.47 1.47 0 0 1 0 2.939zm1.469-43.592H2.938V46.53h2.939v2.939zM46.53 2.939h2.939v2.939H46.53V2.939zm2.939 90.122H46.53v-2.939h2.939v2.939zm28.316-15.276A42.054 42.054 0 0 1 52.408 89.89v-2.706h-8.816v2.708a42.06 42.06 0 0 1-25.377-12.106A42.057 42.057 0 0 1 6.11 52.408h2.706v-8.816H6.11a42.048 42.048 0 0 1 12.105-25.377A42.053 42.053 0 0 1 43.592 6.109v2.707h8.816V6.109c9.57.998 18.53 5.26 25.376 12.106a42.06 42.06 0 0 1 12.105 25.377h-2.706v8.816h2.708a42.058 42.058 0 0 1-12.106 25.377zM91.592 2.939c.81 0 1.469.659 1.469 1.469a1.47 1.47 0 0 1-1.469 1.469 1.47 1.47 0 0 1 0-2.938zm0 90.122a1.47 1.47 0 0 1 0-2.939 1.47 1.47 0 0 1 0 2.939zm1.469-43.592h-2.939V46.53h2.939v2.939z"/></svg>