<svg xmlns="http://www.w3.org/2000/svg" width="96" height="96"><path fill="#B5CF58" d="M8 31h7v3H8zm74 0h7v3h-7zM4.5 51l6.5 4.5L21.5 58h56l9.5-4 4-3v11l-4 7H11l-5.5-4.5-1-13.5z"/><path fill="#376785" d="M17.195 54.347a4.857 4.857 0 0 0 4.485-2.996 4.853 4.853 0 1 0-4.485 2.996zm0-7.082a2.233 2.233 0 0 1 2.059 1.375 2.226 2.226 0 0 1-1.624 3.039 2.227 2.227 0 1 1-.435-4.414zm61.611 7.082a4.86 4.86 0 0 0 4.485-2.996 4.858 4.858 0 0 0-1.052-5.289 4.852 4.852 0 1 0-3.433 8.285zm0-7.082a2.226 2.226 0 0 1 2.059 1.376 2.226 2.226 0 0 1-1.624 3.039 2.227 2.227 0 0 1-2.01-3.761 2.232 2.232 0 0 1 1.575-.654zm-53.278 2.61h44.944a1.312 1.312 0 1 0 0-2.624H25.528a1.312 1.312 0 1 0 0 2.624zm0 4.313h44.944a1.312 1.312 0 1 0 0-2.624H25.528a1.312 1.312 0 1 0 0 2.624z"/><path fill="#376785" d="M90.447 42.445c-.656-2.281-2.19-4.354-4.154-5.883h4.27a1.312 1.312 0 0 0 1.312-1.312 6.007 6.007 0 0 0-6-6h-.563a5.99 5.99 0 0 0-4.742 2.33l-3.496-8.051a8.82 8.82 0 0 0-8.08-5.314l-41.778-.028h-.003a8.838 8.838 0 0 0-8.031 5.196l-3.059 6.776a5.969 5.969 0 0 0-3.936-1.471h-.563a6.003 6.003 0 0 0-6 6A1.312 1.312 0 0 0 6.938 36h3.535c-2.336 1.564-4.197 3.878-4.934 6.458-1.306 4.608-1.731 6.582-1.849 7.496a1.307 1.307 0 0 0-.127.56v10.862a9.139 9.139 0 0 0 7.125 8.95v6.524a3.282 3.282 0 0 0 3.224 3.275h8.856a3.34 3.34 0 0 0 3.294-3.276V70.5h43.5v6.349a3.31 3.31 0 0 0 3.253 3.275h9.272a3.278 3.278 0 0 0 3.225-3.275v-6.524a9.14 9.14 0 0 0 7.125-8.95V50.514c0-.146-.025-.291-.073-.429-.078-.931-.492-2.929-1.917-7.64zm-5.134-10.57h.563a3.376 3.376 0 0 1 3.109 2.062h-6.781a3.382 3.382 0 0 1 3.109-2.062zm-63.739-7.411a6.21 6.21 0 0 1 5.639-3.651h.003l41.778.028a6.19 6.19 0 0 1 5.673 3.728l4.065 9.368H39.083a8.813 8.813 0 0 0-17.04 0h-3.904a5.983 5.983 0 0 0-.287-1.231l3.722-8.242zm14.754 9.474h-11.53a6.19 6.19 0 0 1 11.53 0zm-24.703-2.625h.563a3.371 3.371 0 0 1 2.765 1.444l-.28.619H8.516a3.382 3.382 0 0 1 3.109-2.063zM8.063 43.177c1.024-3.585 5.04-6.614 8.77-6.614h62.324c3.728 0 7.744 3.029 8.77 6.615l.006.019c.814 2.689 1.688 5.931 1.816 6.942-.511.598-2.251 1.924-3.718 2.923-3.369 2.248-9.636 4.125-13.686 4.125H23.869c-4.052 0-10.334-1.862-13.718-4.091-.006-.004-.013.002-.019-.002-1.672-1.06-3.356-2.332-3.839-2.892.147-1.008.992-4.28 1.77-7.025zm55.208 16.636l-.666 1.972c-.49 1.441-2.254 2.716-3.776 2.716h-23.99c-1.515 0-3.257-1.275-3.727-2.715l-.64-1.972h32.799zM23.438 76.849a.722.722 0 0 1-.669.651h-8.856a.658.658 0 0 1-.6-.65V70.5h10.125v6.349zm58.65.651h-9.272a.686.686 0 0 1-.628-.65V70.5h10.5v6.349a.655.655 0 0 1-.6.651zm1.168-9.625H12.744a6.52 6.52 0 0 1-6.052-4 6.51 6.51 0 0 1-.504-2.498v-7.794c.654.496 1.481 1.049 2.53 1.713 3.806 2.503 10.6 4.519 15.152 4.519h3.841l.906 2.787c.827 2.531 3.56 4.525 6.222 4.525h23.99c2.656 0 5.406-1.981 6.261-4.496l.954-2.818h6.3c4.559 0 11.352-2.037 15.153-4.575.894-.609 1.667-1.147 2.316-1.658v7.795a6.51 6.51 0 0 1-4.054 6.018 6.513 6.513 0 0 1-2.503.482z"/></svg>