<svg width="132" height="80" fill="none" xmlns="http://www.w3.org/2000/svg"><path d="M91.079 47.934h-8.695V78H70V8h11.092v28.387h10.363L106.121 8h16.26L105.43 37.077 129 78h-21.737L91.079 47.934z" fill="#E68773"/><path d="M19.773 32.871h8.075c6.398 0 9.597-3.131 9.597-9.394 0-2.438-.761-4.418-2.285-5.942-1.523-1.557-3.673-2.336-6.45-2.336-2.267 0-4.248.66-5.94 1.98-1.66 1.321-2.489 2.963-2.489 4.927H3.168c0-3.894 1.083-7.364 3.25-10.41 2.167-3.048 5.163-5.417 8.988-7.11 3.86-1.727 8.091-2.59 12.696-2.59 8.226 0 14.692 1.879 19.398 5.637 4.706 3.758 7.059 8.92 7.059 15.488 0 3.182-.982 6.195-2.946 9.04-1.93 2.81-4.756 5.094-8.48 6.855 3.927 1.422 7.008 3.588 9.242 6.5 2.234 2.877 3.352 6.449 3.352 10.715 0 6.601-2.54 11.882-7.618 15.843-5.078 3.961-11.747 5.942-20.007 5.942-4.842 0-9.344-.914-13.508-2.743-4.13-1.861-7.262-4.417-9.395-7.667C3.066 64.322 2 60.598 2 56.434h17.215c0 2.268.914 4.231 2.742 5.89 1.828 1.66 4.08 2.489 6.754 2.489 3.013 0 5.417-.83 7.21-2.489 1.795-1.692 2.692-3.842 2.692-6.449 0-3.724-.93-6.365-2.793-7.922-1.862-1.557-4.435-2.336-7.718-2.336h-8.329V32.871zm71.532 15.063h-8.694V78H64.227V2H82.61v29.387h7.07L104.348 2h22.261l-20.951 35.077L129.227 78H107.49L91.306 47.934z" stroke="#376785" stroke-width="3"/></svg>