<svg id="Слой_1" xmlns="http://www.w3.org/2000/svg" width="24" height="24"><linearGradient id="SVGID_1_" gradientUnits="userSpaceOnUse" y1="26" x2="24" y2="2" gradientTransform="matrix(1 0 0 -1 0 26)"><stop offset="0" stop-color="#9b51e0"/><stop offset="1" stop-color="#eb5757"/></linearGradient><path fill="url(#SVGID_1_)" d="M16.85 0h-9.7A7.157 7.157 0 0 0 0 7.15v9.701C0 20.793 3.207 24 7.15 24h9.701c3.942 0 7.15-3.207 7.15-7.15v-9.7C24 3.207 20.793 0 16.85 0zm4.736 16.85a4.735 4.735 0 0 1-4.735 4.735H7.15a4.735 4.735 0 0 1-4.735-4.735v-9.7A4.735 4.735 0 0 1 7.15 2.415h9.701a4.735 4.735 0 0 1 4.735 4.735v9.7z"/><linearGradient id="SVGID_2_" gradientUnits="userSpaceOnUse" y1="26" x2="24" y2="2" gradientTransform="matrix(1 0 0 -1 0 26)"><stop offset="0" stop-color="#9b51e0"/><stop offset="1" stop-color="#eb5757"/></linearGradient><path fill="url(#SVGID_2_)" d="M12 5.793A6.214 6.214 0 0 0 5.793 12 6.214 6.214 0 0 0 12 18.207 6.214 6.214 0 0 0 18.207 12 6.213 6.213 0 0 0 12 5.793zm0 10a3.793 3.793 0 1 1 0-7.586 3.793 3.793 0 0 1 0 7.586z"/><linearGradient id="SVGID_3_" gradientUnits="userSpaceOnUse" x1=".029" y1="26.029" x2="24.029" y2="2.029" gradientTransform="matrix(1 0 0 -1 0 26)"><stop offset="0" stop-color="#9b51e0"/><stop offset="1" stop-color="#eb5757"/></linearGradient><path fill="url(#SVGID_3_)" d="M18.219 19.648a1.487 1.487 0 1 0 0-2.973 1.487 1.487 0 0 0 0 2.973z"/></svg>