<svg width="72" height="72" fill="none" xmlns="http://www.w3.org/2000/svg"><g clip-path="url(#clip0)" filter="url(#filter0_d)" fill="#fff"><path d="M67.04 33.263l-4.473-4.474c-1.266-1.266-3.377-1.266-4.642 0L37.073 49.64c-4.573 4.573-12.226 4.545-16.768-.05-4.556-4.608-4.489-12.131.149-16.769L41.206 12.07c1.265-1.265 1.263-3.379 0-4.642l-4.474-4.474c-1.265-1.265-3.377-1.263-4.64 0l-8.872 8.872a.937.937 0 0 0 1.326 1.325l2.874-2.874 6.463 6.464-14.755 14.755c-5.365 5.365-5.435 14.074-.157 19.414 5.267 5.327 14.137 5.348 19.428.056l14.855-14.855 6.464 6.464L44.992 57.3a23.32 23.32 0 0 1-10.516 6.068.938.938 0 0 0-.667 1.146.95.95 0 0 0 1.146.667 25.197 25.197 0 0 0 11.363-6.555L67.04 37.904a3.285 3.285 0 0 0 0-4.641zM28.746 8.952l4.671-4.672a1.42 1.42 0 0 1 1.99 0l4.473 4.474a1.42 1.42 0 0 1 0 1.99l-4.67 4.671-6.464-6.463zm36.969 27.626l-4.672 4.671-6.463-6.463 4.671-4.672a1.418 1.418 0 0 1 1.99.001l4.474 4.474c.548.548.548 1.44 0 1.989z"/><path d="M31.898 64.856a.937.937 0 0 0-1.023-.843c-.719.07-1.44.106-2.163.106-6.101 0-11.83-2.372-16.147-6.689-4.355-4.355-6.73-10.146-6.69-16.307.042-6.039 2.463-11.764 6.819-16.12l9.2-9.2a.937.937 0 0 0-1.326-1.326l-9.2 9.2a25.19 25.19 0 0 0-5.402 7.993 24.444 24.444 0 0 0-1.965 9.44c-.045 6.667 2.526 12.934 7.238 17.646 4.671 4.672 10.87 7.238 17.472 7.238.783 0 1.565-.04 2.344-.114a.937.937 0 0 0 .843-1.023z"/></g><defs><filter id="filter0_d" x="0" y="0" width="72" height="72" filterUnits="userSpaceOnUse" color-interpolation-filters="sRGB"><feFlood flood-opacity="0" result="BackgroundImageFix"/><feColorMatrix in="SourceAlpha" values="0 0 0 0 0 0 0 0 0 0 0 0 0 0 0 0 0 0 127 0"/><feOffset dy="2"/><feGaussianBlur stdDeviation="2"/><feColorMatrix values="0 0 0 0 0 0 0 0 0 0 0 0 0 0 0 0 0 0 0.15 0"/><feBlend in2="BackgroundImageFix" result="effect1_dropShadow"/><feBlend in="SourceGraphic" in2="effect1_dropShadow" result="shape"/></filter><clipPath id="clip0"><path fill="#fff" transform="translate(4 2)" d="M0 0h64v64H0z"/></clipPath></defs></svg>