<svg width="72" height="70" fill="none" xmlns="http://www.w3.org/2000/svg"><g clip-path="url(#clip0)" filter="url(#filter0_d)" fill="#fff"><path d="M21.516 40.056a.938.938 0 0 0-1.326 0l-1.092 1.091a.938.938 0 0 0 1.326 1.326l1.092-1.091a.937.937 0 0 0 0-1.326zm12.06 12.06a.938.938 0 0 0-1.326 0l-1.091 1.091a.938.938 0 0 0 0 1.326.944.944 0 0 0 1.326 0l1.091-1.091a.938.938 0 0 0 0-1.326zm-5.284-2.926a.937.937 0 0 0-.999-.873 1.848 1.848 0 0 1-1.42-.557 1.847 1.847 0 0 1-.558-1.421.938.938 0 1 0-1.87-.126 3.721 3.721 0 0 0 1.101 2.873 3.736 3.736 0 0 0 2.634 1.11c.586 0 1.156-.347 1.112-1.006z"/><path d="M67.067 27.059L46.573 6.565c-1.23-1.23-3.283-1.23-4.513 0L39.844 8.78 24.689 2.71c-1.618-.648-3.501.159-4.149 1.775L4.224 45.208c-.647 1.613.159 3.5 1.775 4.148l20.52 8.222 5.015 5.015c1.23 1.23 3.283 1.229 4.512 0l6.792-6.792a.938.938 0 0 0-1.326-1.326l-6.792 6.792a1.326 1.326 0 0 1-1.86 0L12.366 40.772a1.335 1.335 0 0 1 0-1.86l5.772-5.772L43.386 7.89a1.329 1.329 0 0 1 1.861 0l20.494 20.494a1.317 1.317 0 0 1 0 1.86L44.137 51.85a.937.937 0 1 0 1.326 1.326l21.604-21.604a3.194 3.194 0 0 0 0-4.512zM36.401 12.224L25.088 7.691a.946.946 0 0 0-1.22.522l-1.741 4.347a.938.938 0 0 0 1.74.697L25.26 9.78l9.699 3.886-18.78 18.78 6.296-15.713a.937.937 0 1 0-1.74-.697l-7.926 19.78-1.77 1.77c-1.214 1.215-1.22 3.292 0 4.513l12.11 12.109-16.453-6.592a1.33 1.33 0 0 1-.732-1.711L22.281 5.182a1.335 1.335 0 0 1 1.71-.732l14.41 5.773-2 2.001z"/><path d="M62.33 28.652l-17.35-17.35a.946.946 0 0 0-1.326 0L20.525 34.431a.944.944 0 0 0 0 1.326l17.35 17.35a.944.944 0 0 0 .664.265.93.93 0 0 0 .663-.266L62.33 29.978a.938.938 0 0 0 0-1.326zM38.539 51.117L22.514 35.094l1.28-1.28.894.185a3.12 3.12 0 0 1 2.404 2.405 4.956 4.956 0 0 0 1.353 2.512 5.001 5.001 0 0 0 2.512 1.353 3.128 3.128 0 0 1 2.406 2.405c.393 1.91 1.954 3.474 3.864 3.864a3.12 3.12 0 0 1 2.406 2.407l.184.894-1.278 1.279zm2.858-2.858l-.008-.026a4.995 4.995 0 0 0-1.211-2.114 4.992 4.992 0 0 0-2.11-1.296c-.618-.19-1.255-.323-1.772-.738a3.108 3.108 0 0 1-1.096-1.788 4.995 4.995 0 0 0-1.353-2.512 4.997 4.997 0 0 0-2.259-1.291c-1.295-.338-2.372-1.072-2.658-2.468a5.001 5.001 0 0 0-1.353-2.512 4.997 4.997 0 0 0-2.18-1.271l-.024-.008 2.58-2.58c.91.188 1.772.341 2.457 1.026.62.62.75 1.473 1.04 2.262 0 .004.003.008.005.013a5.021 5.021 0 0 0 2.63 2.82c.888.399 1.873.454 2.595 1.176.42.421.723.98.843 1.563a5.008 5.008 0 0 0 3.544 3.787c.7.192 1.357.394 1.883.92.555.556.782 1.264.935 2.014l.091.444-2.58 2.58zm4.16-4.159l-.008-.024c-.495-1.78-1.994-3.16-3.797-3.537a3.115 3.115 0 0 1-2.392-2.401 4.984 4.984 0 0 0-1.354-2.512 4.987 4.987 0 0 0-2.511-1.353 3.127 3.127 0 0 1-2.408-2.414 4.994 4.994 0 0 0-1.302-2.452 5.007 5.007 0 0 0-2.253-1.33l2.579-2.58c.903.186 1.768.336 2.448 1.016l.005.006c.422.421.725.974.847 1.567a5.014 5.014 0 0 0 3.76 3.842c.626.144 1.21.407 1.668.865.378.379.658.86.798 1.377.326 1.208.858 2.324 1.864 3.107.646.502 1.368.777 2.155.969a3.117 3.117 0 0 1 2.088 1.738c.216.48.286 1.025.39 1.538L45.557 44.1zm-7.514-14.879a5.174 5.174 0 0 1 1.353-2.355 5.177 5.177 0 0 1 3.685-1.526c1.392 0 2.7.542 3.685 1.526a5.218 5.218 0 0 1 0 7.37 5.175 5.175 0 0 1-2.355 1.354c-.017-.016-.034-.031-.05-.048a3.134 3.134 0 0 1-.843-1.563 5.008 5.008 0 0 0-1.353-2.512 4.95 4.95 0 0 0-2.158-1.267c-.724-.204-1.365-.376-1.918-.928l-.046-.051zm9.651 7.475l-.184.313c-.18-.11-.37-.2-.56-.294a4.95 4.95 0 0 0-.216-.091 7.095 7.095 0 0 0 1.358-11.084 7.04 7.04 0 0 0-5.01-2.076 7.04 7.04 0 0 0-5.012 2.076 7.091 7.091 0 0 0-1.062 1.358 4.858 4.858 0 0 0-.385-.777l.314-.183a.937.937 0 0 0 .415-.513l.477-1.436 1.504-.168a.937.937 0 0 0 .588-.3l1.02-1.117 1.443.457c.216.069.45.057.658-.034l1.387-.606 1.132 1.005c.17.15.388.235.616.236l1.513.01.625 1.379a.94.94 0 0 0 .466.466l1.378.625.01 1.513a.938.938 0 0 0 .237.616l1.005 1.132-.606 1.387a.937.937 0 0 0-.035.658l.458 1.443-1.118 1.02a.938.938 0 0 0-.3.588l-.168 1.504-1.436.477a.94.94 0 0 0-.512.416zm2.02 3.245c-.001-.008-.005-.016-.007-.025a5.046 5.046 0 0 0-.784-1.61l.21-.357 1.67-.556a.938.938 0 0 0 .636-.785l.197-1.75 1.3-1.187a.937.937 0 0 0 .26-.976l-.531-1.678.704-1.613a.938.938 0 0 0-.158-.998l-1.168-1.316-.013-1.76a.938.938 0 0 0-.55-.848l-1.603-.727-.727-1.603a.938.938 0 0 0-.848-.55l-1.76-.013-1.316-1.169a.938.938 0 0 0-.998-.158l-1.613.705-1.678-.532a.938.938 0 0 0-.976.261l-1.187 1.3-1.75.197a.937.937 0 0 0-.785.635l-.556 1.67-.356.21-.029-.02a4.975 4.975 0 0 0-1.58-.763l-.027-.008L44.317 13.29 60.34 29.315 49.715 39.941z"/></g><defs><filter id="filter0_d" x="0" y="-1" width="72" height="72" filterUnits="userSpaceOnUse" color-interpolation-filters="sRGB"><feFlood flood-opacity="0" result="BackgroundImageFix"/><feColorMatrix in="SourceAlpha" values="0 0 0 0 0 0 0 0 0 0 0 0 0 0 0 0 0 0 127 0"/><feOffset dy="2"/><feGaussianBlur stdDeviation="2"/><feColorMatrix values="0 0 0 0 0 0 0 0 0 0 0 0 0 0 0 0 0 0 0.15 0"/><feBlend in2="BackgroundImageFix" result="effect1_dropShadow"/><feBlend in="SourceGraphic" in2="effect1_dropShadow" result="shape"/></filter><clipPath id="clip0"><path fill="#fff" transform="translate(4 1)" d="M0 0h64v64H0z"/></clipPath></defs></svg>