<svg width="70" height="70" fill="none" xmlns="http://www.w3.org/2000/svg"><g filter="url(#filter0_d)" fill="#fff"><path d="M65.064 25.412a.657.657 0 0 0-.019-.063 30.97 30.97 0 0 0-9.3-15.384A30.934 30.934 0 0 0 35 2a30.99 30.99 0 0 0-20.275 7.549.908.908 0 1 0 1.189 1.373A29.175 29.175 0 0 1 35 3.816a29.12 29.12 0 0 1 19.528 7.498 29.13 29.13 0 0 1 9.33 17.344 31.05 31.05 0 0 0-2.287-.087c-8.281 0-16.066 3.224-21.921 9.08-5.855 5.854-9.08 13.639-9.08 21.92 0 .756.031 1.522.088 2.288a29.13 29.13 0 0 1-17.344-9.33A29.12 29.12 0 0 1 5.816 33c0-7.24 2.67-14.183 7.517-19.551a.908.908 0 1 0-1.348-1.217A30.936 30.936 0 0 0 4 33a30.933 30.933 0 0 0 7.965 20.744 31.053 31.053 0 0 0 9.43 7.116l.053.029A30.709 30.709 0 0 0 35 64c8.28 0 16.065-3.225 21.92-9.08S66 41.28 66 33c0-2.568-.315-5.12-.936-7.588zM32.387 59.571c0-7.796 3.035-15.124 8.547-20.636 5.513-5.513 12.841-8.548 20.637-8.548.425 0 .855.012 1.285.031L32.418 60.856c-.019-.43-.031-.86-.031-1.285zm23.25-5.935C50.123 59.148 42.794 62.184 35 62.184c-.438 0-.874-.013-1.309-.032L64.154 31.69c.02.436.03.873.03 1.311 0 7.795-3.036 15.124-8.548 20.636z"/><path d="M22.56 26.082c-.383-.203-.84-.018-1.021.413-.185.44-.352.898-.495 1.357-.14.448.069.94.469 1.1a.69.69 0 0 0 .254.048c.317 0 .613-.221.724-.576.126-.404.273-.806.436-1.194.18-.431.016-.945-.367-1.148zM48.254 28a.94.94 0 0 0 .281-.043c.382-.121.565-.46.41-.756a9.068 9.068 0 0 0-.54-.893c-.193-.283-.645-.39-1.009-.24-.364.15-.502.502-.309.785.175.255.334.52.475.786.118.225.397.361.692.361zM21.566 39.104c-.52.23-.717.768-.442 1.202.28.443.593.88.927 1.298.205.257.542.396.886.396.203 0 .408-.049.59-.15.488-.272.62-.825.294-1.233a13.03 13.03 0 0 1-.817-1.144c-.275-.434-.919-.6-1.438-.37zm4.411-17.892c-.553.343-1.09.713-1.597 1.1-.496.377-.508.999-.028 1.389.245.199.57.299.897.299.313 0 .626-.092.868-.277.447-.34.921-.667 1.409-.97.54-.336.632-.954.205-1.38-.427-.425-1.213-.498-1.754-.161zm12.616-1.241c.095.02.191.029.285.029.498 0 .952-.255 1.085-.64.157-.46-.2-.93-.8-1.05a23.799 23.799 0 0 0-1.867-.3c-.613-.073-1.186.247-1.282.716-.096.469.322.908.934.982.553.067 1.106.155 1.645.263zM30.845 20c.085 0 .17-.013.255-.039.402-.124.813-.23 1.226-.314a.832.832 0 0 0 .656-.983.846.846 0 0 0-1-.647c-.467.096-.935.216-1.39.358a.83.83 0 0 0-.553 1.044.845.845 0 0 0 .806.581zm12.624 2.75c.175.168.392.25.608.25.256 0 .51-.115.694-.34a1.063 1.063 0 0 0-.085-1.415c-.39-.373-.804-.729-1.227-1.058-.415-.322-.99-.218-1.287.232-.296.45-.2 1.076.214 1.398.373.29.737.604 1.083.934zM20 33.139c.013.63.052 1.264.118 1.885.059.563.466.976.936.976a.802.802 0 0 0 .117-.009c.518-.075.886-.63.822-1.24a19.407 19.407 0 0 1-.103-1.664c-.013-.614-.45-1.104-.967-1.087-.521.015-.935.524-.923 1.139zm6.168 11.152c-.289.314-.196.75.206.974.412.23.844.446 1.283.642.14.063.294.093.445.093.31 0 .613-.126.779-.35.246-.335.098-.762-.332-.954a14.332 14.332 0 0 1-1.13-.565c-.402-.225-.962-.153-1.251.16z"/></g><defs><filter id="filter0_d" x="-1" y="-1" width="72" height="72" filterUnits="userSpaceOnUse" color-interpolation-filters="sRGB"><feFlood flood-opacity="0" result="BackgroundImageFix"/><feColorMatrix in="SourceAlpha" values="0 0 0 0 0 0 0 0 0 0 0 0 0 0 0 0 0 0 127 0"/><feOffset dy="2"/><feGaussianBlur stdDeviation="2"/><feColorMatrix values="0 0 0 0 0 0 0 0 0 0 0 0 0 0 0 0 0 0 0.15 0"/><feBlend in2="BackgroundImageFix" result="effect1_dropShadow"/><feBlend in="SourceGraphic" in2="effect1_dropShadow" result="shape"/></filter></defs></svg>