<svg width="72" height="72" fill="none" xmlns="http://www.w3.org/2000/svg"><g filter="url(#filter0_d)" fill="#fff"><path d="M31.066 10.877L10.155 7.862a.951.951 0 0 0-1.086.941v39.324a.95.95 0 0 0 1.9 0V9.9l19.01 2.74v42.72L10.97 58.1v-6.804a.95.95 0 0 0-1.9 0v7.901a.95.95 0 0 0 1.086.94l20.91-3.014a.95.95 0 0 0 .816-.94V11.817a.95.95 0 0 0-.815-.94z"/><path d="M66.363 3.743a4.737 4.737 0 0 0-3.78-1.11L49.13 4.574a.95.95 0 0 0 .271 1.882l13.454-1.94a2.838 2.838 0 0 1 3.244 2.81v53.35a2.838 2.838 0 0 1-3.244 2.81L36.951 59.75V8.25l8.805-1.27a.95.95 0 1 0-.271-1.881L36 6.466 9.416 2.634A4.737 4.737 0 0 0 4 7.325v53.35a4.737 4.737 0 0 0 5.416 4.691L36 61.534l26.584 3.832A4.736 4.736 0 0 0 68 60.674V7.326a4.737 4.737 0 0 0-1.637-3.582zM35.05 59.75L9.145 63.485a2.838 2.838 0 0 1-3.244-2.81V7.325a2.838 2.838 0 0 1 3.244-2.81L35.049 8.25v51.5z"/><path d="M61.98 33.05H41.07a.95.95 0 0 0 0 1.9h20.91a.95.95 0 0 0 0-1.9zm-.034-6.3l-12.534.453a.95.95 0 1 0 .069 1.9l12.534-.452a.95.95 0 1 0-.069-1.9zm-15.755.569l-5.156.186a.95.95 0 1 0 .068 1.9l5.157-.187a.95.95 0 1 0-.069-1.9zm16.737-5.986a.951.951 0 0 0-1.016-.88L41 21.961a.95.95 0 0 0 .137 1.896l20.91-1.508a.95.95 0 0 0 .88-1.016zM62.925 15a.95.95 0 0 0-1.047-.843l-4.541.491a.95.95 0 1 0 .204 1.89l4.541-.49A.95.95 0 0 0 62.925 15zm-7.588.82a.95.95 0 0 0-1.047-.842l-13.323 1.44a.95.95 0 0 0 .204 1.89l13.323-1.44a.95.95 0 0 0 .843-1.047zm-32.542 2.018c-1.59 0-3.073 1.023-4.158 2.839a3.731 3.731 0 0 0-1.12-.176c-3.305 0-5.893 4.384-5.893 9.98 0 5.177 2.215 9.314 5.164 9.904l2.86 9.474a.95.95 0 0 0 1.846-.11l2.115-12.045c2.905-.653 5.078-4.76 5.078-9.887 0-5.596-2.588-9.98-5.892-9.98zm-7.94 18.571c-.858-1.568-1.33-3.673-1.33-5.928s.472-4.36 1.33-5.928c.748-1.367 1.718-2.15 2.661-2.15.943 0 1.913.783 2.661 2.15.858 1.567 1.331 3.673 1.331 5.928s-.473 4.36-1.33 5.928c-.749 1.367-1.719 2.15-2.662 2.15-.943 0-1.913-.783-2.66-2.15zm5.458 9.075l-1.579-5.229c1.14-.39 2.148-1.321 2.935-2.634l.023.008-1.38 7.855zm5.143-11.739c-.748 1.367-1.718 2.15-2.662 2.15-.097 0-.195-.008-.293-.025.576-1.545.908-3.389.908-5.39 0-3.892-1.253-7.196-3.128-8.848.725-1.211 1.618-1.893 2.514-1.893.943 0 1.913.783 2.66 2.15.859 1.567 1.332 3.672 1.332 5.927 0 2.255-.473 4.361-1.331 5.93z"/></g><defs><filter id="filter0_d" x="0" y="0" width="72" height="72" filterUnits="userSpaceOnUse" color-interpolation-filters="sRGB"><feFlood flood-opacity="0" result="BackgroundImageFix"/><feColorMatrix in="SourceAlpha" values="0 0 0 0 0 0 0 0 0 0 0 0 0 0 0 0 0 0 127 0"/><feOffset dy="2"/><feGaussianBlur stdDeviation="2"/><feColorMatrix values="0 0 0 0 0 0 0 0 0 0 0 0 0 0 0 0 0 0 0.15 0"/><feBlend in2="BackgroundImageFix" result="effect1_dropShadow"/><feBlend in="SourceGraphic" in2="effect1_dropShadow" result="shape"/></filter></defs></svg>