<svg width="72" height="70" fill="none" xmlns="http://www.w3.org/2000/svg"><g filter="url(#filter0_d)" fill="#fff"><path d="M68 44.5v-32a3.005 3.005 0 0 0-2-2.828V8.5a1 1 0 0 0-2 0v1H53v-2h2a1 1 0 0 0 1-1V3.875c0-.758-.617-1.375-1.375-1.375h-5.25C48.617 2.5 48 3.117 48 3.875V6.5a1 1 0 0 0 1 1h2v2H21v-2h2a1 1 0 0 0 1-1V3.875c0-.758-.617-1.375-1.375-1.375h-5.25C16.617 2.5 16 3.117 16 3.875V6.5a1 1 0 0 0 1 1h2v2H8v-1a1 1 0 0 0-2 0v1.172A3.005 3.005 0 0 0 4 12.5v32c0 1.304.836 2.415 2 2.828V61.5H5a1 1 0 0 0 0 2h4a1 1 0 0 0 0-2H8v-14h56v14h-1a1 1 0 0 0 0 2h4a1 1 0 0 0 0-2h-1V47.328a3.005 3.005 0 0 0 2-2.828zm-18-40h4v1h-4v-1zm-32 0h4v1h-4v-1zm-12 8c0-.551.449-1 1-1h58c.551 0 1 .449 1 1v32c0 .551-.449 1-1 1H7c-.551 0-1-.449-1-1v-32z"/><path d="M47 28.5c0-6.065-4.935-11-11-11s-11 4.935-11 11 4.935 11 11 11 11-4.935 11-11zm-20 0c0-4.963 4.037-9 9-9s9 4.037 9 9-4.037 9-9 9-9-4.037-9-9z"/><path d="M37 34.5a1 1 0 0 0 0-2v-6a1 1 0 0 0 0-2h-2a1 1 0 1 0 0 2v6a1 1 0 0 0 0 2h2zm-1-11c.264 0 .521-.106.708-.293a1.006 1.006 0 0 0 0-1.415 1.006 1.006 0 0 0-1.416 0 1.006 1.006 0 0 0 0 1.415c.187.187.444.293.708.293zm16-8h2a1 1 0 0 0 0-2h-2a1 1 0 1 0 0 2z"/><path d="M9 43.5h5a1 1 0 0 0 0-2h-4v-26h38a1 1 0 0 0 0-2H9a1 1 0 0 0-1 1v28a1 1 0 0 0 1 1zm49-28h4v26H18a1 1 0 0 0 0 2h45a1 1 0 0 0 1-1v-28a1 1 0 0 0-1-1h-5a1 1 0 0 0 0 2z"/></g><defs><filter id="filter0_d" x="0" y="-1" width="72" height="72" filterUnits="userSpaceOnUse" color-interpolation-filters="sRGB"><feFlood flood-opacity="0" result="BackgroundImageFix"/><feColorMatrix in="SourceAlpha" values="0 0 0 0 0 0 0 0 0 0 0 0 0 0 0 0 0 0 127 0"/><feOffset dy="2"/><feGaussianBlur stdDeviation="2"/><feColorMatrix values="0 0 0 0 0 0 0 0 0 0 0 0 0 0 0 0 0 0 0.15 0"/><feBlend in2="BackgroundImageFix" result="effect1_dropShadow"/><feBlend in="SourceGraphic" in2="effect1_dropShadow" result="shape"/></filter></defs></svg>