<svg width="72" height="65" fill="none" xmlns="http://www.w3.org/2000/svg"><g clip-path="url(#clip0)" filter="url(#filter0_d)" fill="#fff"><path d="M67.159 7.661a4.808 4.808 0 0 0-4.092-2.286H8.684a4.808 4.808 0 0 0-4.808 4.808v13.412c0 .047.001.093.004.14v.014a2.344 2.344 0 0 0 2.336 2.186H7.73v26.939a3.554 3.554 0 0 0-3.042 3.512v1.138a1.19 1.19 0 0 0 1.188 1.188h8.954a1.19 1.19 0 0 0 1.187-1.188v-1.138a3.554 3.554 0 0 0-3.041-3.513V25.936h1.979v16.003c0 .517.42.937.937.937h5.968a.937.937 0 1 0 0-1.875h-5.03V19.486h38.093V33.68h-6.384a.937.937 0 0 0-.938.937V41H25.61a.937.937 0 1 0 0 1.875c24.345 0 23.183.135 23.591-.275 7.594-7.593 7.592-7.345 7.596-7.984v-8.681h1.98v26.938a3.555 3.555 0 0 0-3.042 3.512v1.14a1.19 1.19 0 0 0 1.188 1.187h8.953a1.19 1.19 0 0 0 1.188-1.188v-1.139a3.555 3.555 0 0 0-3.042-3.512V25.935h1.514c1.29 0 2.34-1.049 2.34-2.34V10.183c0-.924-.262-1.789-.716-2.522zM14.14 56.386v.45H6.563v-.45c0-.923.75-1.674 1.673-1.674h4.231c.923 0 1.674.75 1.674 1.674zm-3.04-3.549H9.604V25.935H11.1v26.902zm5.729-35.226v-3.43a.937.937 0 1 0-1.875 0v9.879h-8.74a.465.465 0 0 1-.464-.465V10.184A2.935 2.935 0 0 1 8.683 7.25h6.27v3.18a.938.938 0 0 0 1.876 0V7.25h38.093v3.18a.937.937 0 1 0 1.875 0V7.25h6.27A2.934 2.934 0 0 1 66 10.184v13.41a.465.465 0 0 1-.465.465h-8.738v-9.878a.937.937 0 1 0-1.875 0v3.43H16.828zm32.646 17.943h4.12l-4.12 4.12v-4.12zm15.713 20.832v.45h-7.579v-.45c0-.923.751-1.674 1.674-1.674h4.231c.923 0 1.674.75 1.674 1.674zm-3.042-3.549h-1.495V25.935h1.495v26.902z"/><path d="M22.318 9.657a2.652 2.652 0 0 0-2.649 2.649c0 1.46 1.189 2.65 2.65 2.65 1.46 0 2.649-1.19 2.649-2.65a2.652 2.652 0 0 0-2.65-2.65zm0 3.423a.775.775 0 1 1 .002-1.55.775.775 0 0 1-.002 1.55zm10.245-1.711H27.75a.937.937 0 1 0 0 1.875h4.813a.938.938 0 0 0 0-1.875zm-.683 11.756h-5.469a.937.937 0 0 0-.937.937v11.305c0 .517.42.937.937.937h13.75c.518 0 .938-.42.938-.937v-5.841a.938.938 0 0 0-.938-.938h-1.443a.938.938 0 0 0-.657.268l-1.887 1.85a.937.937 0 1 0 1.312 1.339l1.615-1.582h.123v3.966h-6.406v-3.966h2.13a.938.938 0 0 0 0-1.875h-2.13v-4.526a.937.937 0 0 0-.937-.938zm-.937 11.304H27.35v-9.43h3.594v3.59h-2.206a.937.937 0 1 0 0 1.874h2.206v3.966zm12.505 1.869a.938.938 0 0 0 0 1.875h1.89a.937.937 0 1 0 0-1.875h-.007v-12.11h.008a.937.937 0 1 0 0-1.874h-1.891a.938.938 0 0 0 0 1.875h.008v12.11h-.008z"/></g><defs><filter id="filter0_d" x="0" y="-2" width="72" height="72" filterUnits="userSpaceOnUse" color-interpolation-filters="sRGB"><feFlood flood-opacity="0" result="BackgroundImageFix"/><feColorMatrix in="SourceAlpha" values="0 0 0 0 0 0 0 0 0 0 0 0 0 0 0 0 0 0 127 0"/><feOffset dy="2"/><feGaussianBlur stdDeviation="2"/><feColorMatrix values="0 0 0 0 0 0 0 0 0 0 0 0 0 0 0 0 0 0 0.15 0"/><feBlend in2="BackgroundImageFix" result="effect1_dropShadow"/><feBlend in="SourceGraphic" in2="effect1_dropShadow" result="shape"/></filter><clipPath id="clip0"><path fill="#fff" transform="translate(4)" d="M0 0h64v64H0z"/></clipPath></defs></svg>