<svg width="72" height="72" fill="none" xmlns="http://www.w3.org/2000/svg"><g filter="url(#filter0_d)" fill="#fff"><path d="M61.6 2c-4.978 0-6.293 3.769-6.346 3.93a1.072 1.072 0 0 0-.054.337v6.4H5.067c-.59 0-1.067.477-1.067 1.066v51.2C4 65.523 4.478 66 5.067 66H61.6a6.406 6.406 0 0 0 6.4-6.4V6.267a1.07 1.07 0 0 0-.054-.337C67.893 5.769 66.578 2 61.6 2zm-4.267 4.48A4.373 4.373 0 0 1 61.6 4.133a4.373 4.373 0 0 1 4.267 2.34v47.989a7.843 7.843 0 0 0-8.534 0V6.48zM61.6 63.867H6.133V14.8H55.2v42.667a1.066 1.066 0 0 0 2.08.337c.008-.025.862-2.47 4.32-2.47a4.373 4.373 0 0 1 4.267 2.346v1.92a4.267 4.267 0 0 1-4.267 4.267z"/><path d="M31.42 23.646a1.067 1.067 0 0 0-1.508 0l-12.8 12.8a1.068 1.068 0 0 0 .754 1.82h1.067v13.867c0 .59.478 1.067 1.067 1.067h21.333c.59 0 1.067-.478 1.067-1.067V38.267h1.066a1.067 1.067 0 0 0 .755-1.821l-12.8-12.8zm-.754 2.262l10.225 10.225h-20.45l10.225-10.225zM32.8 51.067v-8.534h4.266v8.534H32.8zm7.466 0H39.2v-9.6c0-.59-.478-1.067-1.067-1.067h-6.4c-.589 0-1.067.478-1.067 1.067v9.6h-9.6v-12.8h19.2v12.8z"/><path d="M23.2 46.8h4.267c.589 0 1.066-.478 1.066-1.067v-4.266c0-.59-.477-1.067-1.066-1.067H23.2c-.59 0-1.067.478-1.067 1.067v4.266c0 .59.478 1.067 1.067 1.067zm1.067-4.267H26.4v2.134h-2.133v-2.134zm-13.867-16h2.133v24.534H10.4V53.2h6.4v-2.133h-2.133V26.533H16.8V24.4h-6.4v2.133zm8.533-5.333H42.4v2.133h2.133v-6.4H42.4v2.134H18.933v-2.134H16.8v6.4h2.133V21.2zM8.267 57.467H10.4V59.6H8.267v-2.133zm4.266 0h2.133V59.6h-2.133v-2.133zm32 0h2.133V59.6h-2.133v-2.133zm4.267 0h2.133V59.6H48.8v-2.133z"/></g><defs><filter id="filter0_d" x="0" y="0" width="72" height="72" filterUnits="userSpaceOnUse" color-interpolation-filters="sRGB"><feFlood flood-opacity="0" result="BackgroundImageFix"/><feColorMatrix in="SourceAlpha" values="0 0 0 0 0 0 0 0 0 0 0 0 0 0 0 0 0 0 127 0"/><feOffset dy="2"/><feGaussianBlur stdDeviation="2"/><feColorMatrix values="0 0 0 0 0 0 0 0 0 0 0 0 0 0 0 0 0 0 0.15 0"/><feBlend in2="BackgroundImageFix" result="effect1_dropShadow"/><feBlend in="SourceGraphic" in2="effect1_dropShadow" result="shape"/></filter></defs></svg>