<svg width="72" height="72" fill="none" xmlns="http://www.w3.org/2000/svg"><g filter="url(#filter0_d)" fill="#fff"><path d="M46.24 32.75a1.25 1.25 0 1 0 0-2.5 1.25 1.25 0 0 0 0 2.5zm.215 4.106a1.25 1.25 0 0 0-1.42 1.053c-.342 2.307-2.292 4.22-5.216 5.119-3.126.96-7.465.638-10.112-2.245a1.25 1.25 0 0 0-1.841 1.691c1.532 1.669 3.613 2.806 6.018 3.289.85.17 1.73.255 2.617.255 1.37 0 2.753-.202 4.052-.6 3.869-1.188 6.469-3.858 6.955-7.142a1.25 1.25 0 0 0-1.053-1.42z"/><path d="M63.828 25.801c-2.272-2.633-5.407-4.341-9.182-5.027 3.614-2.439 6.731-4.866 8.953-6.984 3.39-3.228 4.525-5.497 3.577-7.14-1.056-1.83-4.104-1.817-9.592.04-4.637 1.569-10.414 4.294-16.266 7.672a126.57 126.57 0 0 0-2.992 1.783c-.727-2.052-.247-4.396 1.356-6.428 1.2-1.523 1.469-3.457.7-5.047-.806-1.667-2.576-2.665-4.736-2.67h-.06c-7.625 0-15.084 3.009-21.002 8.472-5.925 5.47-9.553 12.712-10.214 20.39-.796 9.248 2.16 18.04 8.323 24.756C18.747 62.216 27.331 66 36.242 66c4.797 0 9.301-.878 13.386-2.61a30.123 30.123 0 0 0 9.858-6.718 29.692 29.692 0 0 0 6.098-9.122c1.374-3.223 2.125-6.639 2.171-9.878.068-4.71-1.29-8.814-3.926-11.87zM38.472 19a121.312 121.312 0 0 1 4.096-2.471c5.41-3.124 10.799-5.698 15.172-7.246 4.813-1.704 6.784-1.593 7.244-1.373-.04.29-.401 1.585-3.56 4.494-2.638 2.429-6.49 5.286-10.846 8.043a122.474 122.474 0 0 1-10.214 5.795 18.794 18.794 0 0 0-3.545-6.18c.542-.355 1.094-.71 1.653-1.063zm-.372 8.35c-3.53 1.674-6.768 2.95-9.355 3.69a6.262 6.262 0 0 0-1.886-3.324c1.936-1.869 4.661-4.034 7.87-6.249A16.3 16.3 0 0 1 38.1 27.35zm27.157 10.286C65.076 50.075 53.933 63.5 36.242 63.5c-8.213 0-16.125-3.489-21.707-9.572-5.684-6.194-8.41-14.31-7.674-22.85C8.123 16.422 21.01 4.5 35.587 4.5h.056c1.196.003 2.103.461 2.488 1.258.355.733.2 1.634-.412 2.41-2.253 2.857-2.818 6.37-1.545 9.331-.67.432-1.329.866-1.965 1.296l-.009.006c-3.975 2.682-7.331 5.35-9.565 7.595a6.217 6.217 0 0 0-5.136.503c-2.597 1.5-6.007 8.49-6.664 9.877a1.25 1.25 0 0 0 1.028 1.781c.691.056 2.653.198 4.837.198 2.65 0 5.625-.209 7.049-1.031a6.236 6.236 0 0 0 2.982-4.088c3.065-.805 7.07-2.379 11.408-4.492a120.68 120.68 0 0 0 7.43-3.956 125.563 125.563 0 0 0 3.739-2.249l.022.002c10.418.299 14.025 7.787 13.925 14.695zm-38.888-5.09a3.745 3.745 0 0 1-1.869 3.013c-1.182.683-5.243.775-8.577.622 1.534-2.963 3.644-6.433 4.827-7.117a3.737 3.737 0 0 1 3.614-.075c.63.328 1.152.828 1.509 1.447a3.74 3.74 0 0 1 .496 2.11z"/><path d="M26.24 9.73c-2.757 0-5 2.243-5 5s2.243 5 5 5 5-2.243 5-5-2.243-5-5-5zm0 7.5a2.503 2.503 0 0 1-2.5-2.5c0-1.379 1.122-2.5 2.5-2.5 1.379 0 2.5 1.121 2.5 2.5 0 1.378-1.121 2.5-2.5 2.5zm-6.25 26.089c-2.757 0-5 2.243-5 5s2.243 5 5 5 5-2.243 5-5-2.243-5-5-5zm0 7.5a2.503 2.503 0 0 1-2.5-2.5c0-1.379 1.122-2.5 2.5-2.5 1.379 0 2.5 1.121 2.5 2.5 0 1.378-1.121 2.5-2.5 2.5zm12.5 0c-2.757 0-5 2.243-5 5s2.243 5 5 5 5-2.243 5-5-2.243-5-5-5zm0 7.5a2.503 2.503 0 0 1-2.5-2.5c0-1.379 1.122-2.5 2.5-2.5 1.379 0 2.5 1.121 2.5 2.5 0 1.378-1.121 2.5-2.5 2.5zm15-10c-2.757 0-5 2.243-5 5s2.243 5 5 5 5-2.243 5-5-2.243-5-5-5zm0 7.5a2.503 2.503 0 0 1-2.5-2.5c0-1.379 1.122-2.5 2.5-2.5 1.379 0 2.5 1.121 2.5 2.5 0 1.378-1.121 2.5-2.5 2.5zm10-20c-2.757 0-5 2.243-5 5s2.243 5 5 5 5-2.243 5-5-2.243-5-5-5zm0 7.5a2.503 2.503 0 0 1-2.5-2.5c0-1.379 1.122-2.5 2.5-2.5 1.379 0 2.5 1.121 2.5 2.5 0 1.378-1.121 2.5-2.5 2.5z"/></g><defs><filter id="filter0_d" x="0" y="0" width="72" height="72" filterUnits="userSpaceOnUse" color-interpolation-filters="sRGB"><feFlood flood-opacity="0" result="BackgroundImageFix"/><feColorMatrix in="SourceAlpha" values="0 0 0 0 0 0 0 0 0 0 0 0 0 0 0 0 0 0 127 0"/><feOffset dy="2"/><feGaussianBlur stdDeviation="2"/><feColorMatrix values="0 0 0 0 0 0 0 0 0 0 0 0 0 0 0 0 0 0 0.15 0"/><feBlend in2="BackgroundImageFix" result="effect1_dropShadow"/><feBlend in="SourceGraphic" in2="effect1_dropShadow" result="shape"/></filter></defs></svg>