<svg width="64" height="72" fill="none" xmlns="http://www.w3.org/2000/svg"><g filter="url(#filter0_d)" fill="#fff"><path d="M26.666 31.867h6.4a1.067 1.067 0 0 0 0-2.134h-6.4a1.067 1.067 0 0 0 0 2.134z"/><path d="M58.667 10.533h-32a1.067 1.067 0 0 0 0 2.134H57.6v48c0 1.704-1.495 3.2-3.2 3.2H9.6c-1.705 0-3.2-1.496-3.2-3.2V11.688a5.842 5.842 0 0 0 2.133.87v48.109a1.067 1.067 0 0 0 2.134 0V11.6c0-.585-.477-1.06-1.062-1.067-.535-.006-3.205-.188-3.205-3.2V6.267c0-1.177.957-2.134 2.133-2.134h50.134a1.067 1.067 0 0 0 0-2.133H8.533a4.271 4.271 0 0 0-4.266 4.267v54.4C4.267 63.557 6.709 66 9.6 66h44.8c2.89 0 5.333-2.443 5.333-5.333V11.6c0-.589-.477-1.067-1.066-1.067z"/><path d="M57.6 7.333c0-.588-.478-1.066-1.067-1.066H22.4c-.589 0-1.067.478-1.067 1.066V17.56l-2.446-2.447a1.065 1.065 0 0 0-1.508 0l-2.446 2.446V7.333c0-.588-.478-1.066-1.066-1.066H9.6a1.067 1.067 0 0 0 0 2.133h3.2v11.733c0 .431.26.82.658.986.399.164.857.074 1.163-.232l3.512-3.512 3.513 3.512a1.067 1.067 0 0 0 1.82-.754V8.4h33.067c.589 0 1.067-.478 1.067-1.067zM19.2 24.4v17.067c0 .588.478 1.066 1.067 1.066h23.466c.59 0 1.067-.478 1.067-1.066V24.4c0-.589-.478-1.067-1.067-1.067H20.267c-.589 0-1.067.478-1.067 1.067zm2.134 1.067h21.333V40.4H21.334V25.467z"/><path d="M37.333 34H26.667a1.067 1.067 0 0 0 0 2.133h10.666a1.067 1.067 0 0 0 0-2.133z"/></g><defs><filter id="filter0_d" x="-4" y="0" width="72" height="72" filterUnits="userSpaceOnUse" color-interpolation-filters="sRGB"><feFlood flood-opacity="0" result="BackgroundImageFix"/><feColorMatrix in="SourceAlpha" values="0 0 0 0 0 0 0 0 0 0 0 0 0 0 0 0 0 0 127 0"/><feOffset dy="2"/><feGaussianBlur stdDeviation="2"/><feColorMatrix values="0 0 0 0 0 0 0 0 0 0 0 0 0 0 0 0 0 0 0.15 0"/><feBlend in2="BackgroundImageFix" result="effect1_dropShadow"/><feBlend in="SourceGraphic" in2="effect1_dropShadow" result="shape"/></filter></defs></svg>