<svg width="64" height="72" fill="none" xmlns="http://www.w3.org/2000/svg"><g filter="url(#filter0_d)" fill="#fff"><path d="M39.283 27.994H24.716a.98.98 0 1 0 0 1.96h14.567a.98.98 0 0 0 0-1.96zm-3.2 4.116h-8.166a.98.98 0 1 0 0 1.959h8.166a.98.98 0 0 0 0-1.96zm4.183 11.25H23.734a.98.98 0 1 0 0 1.96h16.532a.98.98 0 1 0 0-1.96zM24.49 37.312a.98.98 0 0 0-.98.98v1.212a.98.98 0 1 0 1.96 0v-1.212a.98.98 0 0 0-.98-.98zm3.004 0a.98.98 0 0 0-.98.98v1.212a.98.98 0 1 0 1.96 0v-1.212a.98.98 0 0 0-.98-.98zm3.004 0a.98.98 0 0 0-.98.98v1.212a.98.98 0 1 0 1.96 0v-1.212a.98.98 0 0 0-.98-.98zm3.004 0a.98.98 0 0 0-.98.98v1.212a.98.98 0 1 0 1.96 0v-1.212a.98.98 0 0 0-.98-.98zm3.004 0a.98.98 0 0 0-.98.98v1.212a.98.98 0 1 0 1.96 0v-1.212a.98.98 0 0 0-.98-.98zm3.004 0a.98.98 0 0 0-.98.98v1.212a.98.98 0 1 0 1.96 0v-1.212a.98.98 0 0 0-.98-.98zM37.865 15.27c-1.58-1.055-3.663-1.637-5.865-1.637-2.201 0-4.284.582-5.865 1.638-1.702 1.138-2.639 2.69-2.639 4.371 0 1.681.937 3.234 2.64 4.371 1.58 1.057 3.663 1.639 5.864 1.639 2.202 0 4.285-.582 5.865-1.639 1.702-1.137 2.64-2.69 2.64-4.37 0-1.682-.938-3.234-2.64-4.372zM32 23.693c-3.548 0-6.545-1.855-6.545-4.05s2.997-4.05 6.545-4.05 6.545 1.855 6.545 4.05-2.997 4.05-6.545 4.05z"/><path d="M48.49 10.903a3.25 3.25 0 0 1-2.188-1.766 2.43 2.43 0 0 0-2.193-1.392h-2.08a2.6 2.6 0 0 0-2.28-1.355H24.25a2.6 2.6 0 0 0-2.28 1.355h-2.08c-.935 0-1.796.546-2.193 1.391a3.25 3.25 0 0 1-2.187 1.767 2.407 2.407 0 0 0-1.868 2.352v25.708a.98.98 0 1 0 1.959 0V13.255c0-.213.146-.395.356-.444a5.223 5.223 0 0 0 3.514-2.843.465.465 0 0 1 .42-.264h1.864a2.6 2.6 0 0 0 2.495 1.881h15.5a2.6 2.6 0 0 0 2.495-1.881h1.864c.18 0 .344.104.42.264a5.223 5.223 0 0 0 3.514 2.843c.21.049.356.231.356.444v33.304a.456.456 0 0 1-.356.444 5.223 5.223 0 0 0-3.514 2.843.464.464 0 0 1-.42.264h-1.944a2.6 2.6 0 0 0-2.416-1.648H24.25a2.6 2.6 0 0 0-2.415 1.648H19.89a.464.464 0 0 1-.42-.265 5.223 5.223 0 0 0-3.514-2.842.456.456 0 0 1-.356-.444v-3.155a.98.98 0 1 0-1.96 0v3.155c0 1.127.77 2.095 1.87 2.352a3.25 3.25 0 0 1 2.187 1.767 2.43 2.43 0 0 0 2.193 1.392h1.966a2.602 2.602 0 0 0 2.393 1.587h15.5a2.602 2.602 0 0 0 2.393-1.587h1.966c.936 0 1.797-.547 2.194-1.392a3.249 3.249 0 0 1 2.187-1.767 2.407 2.407 0 0 0 1.868-2.352V13.255a2.408 2.408 0 0 0-1.869-2.352zm-8.74-1.277h-15.5a.64.64 0 0 1 0-1.276h15.5a.64.64 0 0 1 0 1.276zm0 42.072h-15.5a.64.64 0 0 1 0-1.277h15.5a.64.64 0 0 1 0 1.277z"/><path d="M55.148 13.82a.98.98 0 0 0 .98-.98V5.135A3.142 3.142 0 0 0 52.983 2H11.016a3.142 3.142 0 0 0-3.143 3.134v58.45A2.421 2.421 0 0 0 10.295 66h4.038a2.422 2.422 0 0 0 2.422-2.416v-5.77h30.49v5.77A2.421 2.421 0 0 0 49.667 66h4.038a2.421 2.421 0 0 0 2.422-2.416V17.282a.98.98 0 1 0-1.96 0V54.68a1.18 1.18 0 0 1-1.183 1.175H11.016a1.18 1.18 0 0 1-1.184-1.175V5.134a1.18 1.18 0 0 1 1.184-1.175h41.968a1.18 1.18 0 0 1 1.184 1.175v7.707c0 .54.438.98.98.98zm-5.944 43.994h1.503v1.974a.98.98 0 1 0 1.959 0v-1.974h.318a3.13 3.13 0 0 0 1.184-.231v6.001a.46.46 0 0 1-.463.457h-4.038a.46.46 0 0 1-.462-.457v-5.77zm-38.188 0h.319v1.974a.98.98 0 1 0 1.959 0v-1.974h1.502v5.77a.46.46 0 0 1-.463.457h-4.038a.46.46 0 0 1-.463-.457v-6.001a3.15 3.15 0 0 0 1.184.231z"/></g><defs><filter id="filter0_d" x="-4" y="0" width="72" height="72" filterUnits="userSpaceOnUse" color-interpolation-filters="sRGB"><feFlood flood-opacity="0" result="BackgroundImageFix"/><feColorMatrix in="SourceAlpha" values="0 0 0 0 0 0 0 0 0 0 0 0 0 0 0 0 0 0 127 0"/><feOffset dy="2"/><feGaussianBlur stdDeviation="2"/><feColorMatrix values="0 0 0 0 0 0 0 0 0 0 0 0 0 0 0 0 0 0 0.15 0"/><feBlend in2="BackgroundImageFix" result="effect1_dropShadow"/><feBlend in="SourceGraphic" in2="effect1_dropShadow" result="shape"/></filter></defs></svg>