<svg id="Слой_1" xmlns="http://www.w3.org/2000/svg" width="72" height="72"><path fill="#FFF" d="M62.75 22.5h-.5v-7.25c0-.69-.56-1.25-1.25-1.25h-3.75V7.75A3.754 3.754 0 0 0 53.5 4H31.544a1.25 1.25 0 0 0 0 2.5H53.5c.689 0 1.25.561 1.25 1.25V22.5h-37.5V7.75c0-.689.561-1.25 1.25-1.25h3.044a1.25 1.25 0 0 0 0-2.5H18.5a3.754 3.754 0 0 0-3.75 3.75V14H11c-.69 0-1.25.56-1.25 1.25v7.25h-.5A5.256 5.256 0 0 0 4 27.75V56a5.256 5.256 0 0 0 5.25 5.25h4.247l-1.048 1.979a3.226 3.226 0 0 0 .088 3.197A3.226 3.226 0 0 0 15.322 68h41.356c1.15 0 2.191-.588 2.784-1.574a3.226 3.226 0 0 0 .088-3.197l-1.048-1.979h4.247a5.256 5.256 0 0 0 5.25-5.25V27.75a5.254 5.254 0 0 0-5.249-5.25zm-5.5-6h2.5v6h-2.5v-6zm-45 0h2.5v6h-2.5v-6zm45.071 48.637a.74.74 0 0 1-.643.363H15.322a.74.74 0 0 1-.643-.363.738.738 0 0 1-.02-.738l4.844-9.149h32.995l4.844 9.149a.74.74 0 0 1-.021.738zm-2.966-11.722a1.251 1.251 0 0 0-1.105-.665h-34.5c-.463 0-.888.256-1.105.665l-2.824 5.335H13.25v-9.5h45.5v9.5h-1.571l-2.824-5.335zM65.5 56a2.754 2.754 0 0 1-2.75 2.75h-1.5V48c0-.69-.56-1.25-1.25-1.25H12c-.69 0-1.25.56-1.25 1.25v10.75h-1.5A2.754 2.754 0 0 1 6.5 56V41.008h50.25a1.25 1.25 0 0 0 0-2.5H6.5V27.75A2.754 2.754 0 0 1 9.25 25h53.5a2.754 2.754 0 0 1 2.75 2.75V56z"/><path fill="#FFF" d="M15 27.508c-2.344 0-4.25 1.906-4.25 4.25s1.906 4.25 4.25 4.25 4.25-1.907 4.25-4.25-1.906-4.25-4.25-4.25zm0 6c-.965 0-1.75-.785-1.75-1.75s.785-1.75 1.75-1.75 1.75.785 1.75 1.75-.785 1.75-1.75 1.75zm11.544-6c-2.344 0-4.25 1.906-4.25 4.25s1.906 4.25 4.25 4.25 4.25-1.907 4.25-4.25-1.907-4.25-4.25-4.25zm0 6c-.965 0-1.75-.785-1.75-1.75s.785-1.75 1.75-1.75 1.75.785 1.75 1.75-.785 1.75-1.75 1.75zm11.402-6c-2.343 0-4.25 1.906-4.25 4.25s1.907 4.25 4.25 4.25c2.344 0 4.25-1.907 4.25-4.25s-1.906-4.25-4.25-4.25zm0 6c-.965 0-1.75-.785-1.75-1.75s.785-1.75 1.75-1.75 1.75.785 1.75 1.75-.785 1.75-1.75 1.75zm20.69-3H47.875a1.25 1.25 0 0 0 0 2.5h10.761a1.25 1.25 0 0 0 0-2.5zm3.114 7.999c-.33 0-.651.134-.884.366a1.26 1.26 0 0 0-.366.884 1.254 1.254 0 0 0 2.134.884c.232-.232.366-.554.366-.884 0-.329-.134-.651-.366-.884a1.262 1.262 0 0 0-.884-.366zM26.544 6.5c.329 0 .651-.134.884-.366s.366-.555.366-.884-.134-.651-.366-.884S26.872 4 26.544 4c-.329 0-.651.134-.884.366s-.366.555-.366.884.134.651.366.884.555.366.884.366z"/></svg>