<svg width="72" height="65" fill="none" xmlns="http://www.w3.org/2000/svg"><g clip-path="url(#clip0)" filter="url(#filter0_d)" fill="#fff"><path d="M43.356 56.745H7.437a1.564 1.564 0 0 1-1.562-1.563V27.704a.937.937 0 1 0-1.875 0v27.478a3.441 3.441 0 0 0 3.438 3.438h35.918a.937.937 0 1 0 0-1.875zM64.563 11.12h-6.938V8.938A3.442 3.442 0 0 0 54.189 5.5h-.376a3.442 3.442 0 0 0-3.438 3.438v2.182h-28.75V8.938A3.442 3.442 0 0 0 18.188 5.5h-.376a3.442 3.442 0 0 0-3.438 3.438v2.182H7.437A3.441 3.441 0 0 0 4 14.558v8.77a.937.937 0 1 0 1.875 0v-8.77c0-.862.7-1.563 1.563-1.563h6.936v2.182a3.442 3.442 0 0 0 3.438 3.438h.376a3.442 3.442 0 0 0 3.438-3.438v-2.182h28.748v2.182a3.441 3.441 0 0 0 3.438 3.438h.376a3.441 3.441 0 0 0 3.437-3.438v-2.182h6.938c.861 0 1.562.7 1.562 1.563v40.625c0 .86-.7 1.562-1.563 1.562H47.731a.937.937 0 1 0 0 1.875h16.831A3.442 3.442 0 0 0 68 55.183V14.558a3.441 3.441 0 0 0-3.438-3.438zM19.75 15.177c0 .862-.7 1.563-1.562 1.563h-.376a1.565 1.565 0 0 1-1.563-1.563v-6.24c0-.861.702-1.562 1.563-1.562h.376c.861 0 1.563.7 1.563 1.563v6.24zm36 0c0 .862-.7 1.563-1.562 1.563h-.376a1.565 1.565 0 0 1-1.563-1.563v-6.24c0-.861.702-1.562 1.563-1.562h.376c.861 0 1.563.7 1.563 1.563v6.24z"/><path d="M15.188 34.848h5.624a3.441 3.441 0 0 0 3.438-3.437v-5.582a3.441 3.441 0 0 0-3.438-3.438h-5.625a3.441 3.441 0 0 0-3.437 3.438v5.582a3.441 3.441 0 0 0 3.438 3.437zm-1.563-9.02c0-.861.7-1.562 1.563-1.562h5.624c.862 0 1.563.7 1.563 1.563v5.582c0 .861-.7 1.562-1.563 1.562h-5.625c-.861 0-1.562-.7-1.562-1.562v-5.582zm-1.875 23.23a3.441 3.441 0 0 0 3.438 3.437h5.624a3.441 3.441 0 0 0 3.438-3.437v-5.582a3.441 3.441 0 0 0-3.438-3.438h-5.625a3.441 3.441 0 0 0-3.437 3.438v5.582zm1.875-5.582c0-.862.7-1.563 1.563-1.563h5.624c.862 0 1.563.7 1.563 1.563v5.582c0 .861-.7 1.562-1.563 1.562h-5.625c-.861 0-1.562-.7-1.562-1.562v-5.582zm37.563-8.628h5.624a3.441 3.441 0 0 0 3.438-3.437v-5.582a3.441 3.441 0 0 0-3.438-3.438h-5.624a3.441 3.441 0 0 0-3.438 3.438v5.582a3.441 3.441 0 0 0 3.438 3.437zm-1.563-9.02c0-.861.7-1.562 1.563-1.562h5.624c.862 0 1.563.7 1.563 1.563v5.582c0 .861-.7 1.562-1.563 1.562h-5.624c-.862 0-1.563-.7-1.563-1.562v-5.582zm-1.875 23.23a3.441 3.441 0 0 0 3.438 3.437h5.624a3.441 3.441 0 0 0 3.438-3.437v-5.582a3.441 3.441 0 0 0-3.438-3.438h-5.624a3.441 3.441 0 0 0-3.438 3.438v5.582zm1.875-5.582c0-.862.7-1.563 1.563-1.563h5.624c.862 0 1.563.7 1.563 1.563v5.582c0 .861-.7 1.562-1.563 1.562h-5.624c-.862 0-1.563-.7-1.563-1.562v-5.582zM30.688 29.78a.937.937 0 0 0-.938.937v.694a3.441 3.441 0 0 0 3.438 3.437h5.624a3.441 3.441 0 0 0 3.438-3.437v-5.582a3.441 3.441 0 0 0-3.438-3.438h-5.624a3.441 3.441 0 0 0-3.438 3.438v.513a.938.938 0 0 0 1.875 0v-.513c0-.862.7-1.563 1.563-1.563h5.624c.862 0 1.563.7 1.563 1.563v5.582c0 .861-.7 1.562-1.563 1.562h-5.624c-.862 0-1.563-.7-1.563-1.562v-.694a.937.937 0 0 0-.938-.937zm-.938 19.278a3.441 3.441 0 0 0 3.438 3.437h5.624a3.441 3.441 0 0 0 3.438-3.437v-5.582a3.441 3.441 0 0 0-3.438-3.438h-5.624a3.441 3.441 0 0 0-3.438 3.438v5.582zm1.875-5.582c0-.862.7-1.563 1.563-1.563h5.624c.862 0 1.563.7 1.563 1.563v5.582c0 .861-.7 1.562-1.563 1.562h-5.624c-.862 0-1.563-.7-1.563-1.562v-5.582z"/></g><defs><filter id="filter0_d" x="0" y="-2" width="72" height="72" filterUnits="userSpaceOnUse" color-interpolation-filters="sRGB"><feFlood flood-opacity="0" result="BackgroundImageFix"/><feColorMatrix in="SourceAlpha" values="0 0 0 0 0 0 0 0 0 0 0 0 0 0 0 0 0 0 127 0"/><feOffset dy="2"/><feGaussianBlur stdDeviation="2"/><feColorMatrix values="0 0 0 0 0 0 0 0 0 0 0 0 0 0 0 0 0 0 0.15 0"/><feBlend in2="BackgroundImageFix" result="effect1_dropShadow"/><feBlend in="SourceGraphic" in2="effect1_dropShadow" result="shape"/></filter><clipPath id="clip0"><path fill="#fff" transform="translate(4)" d="M0 0h64v64H0z"/></clipPath></defs></svg>