<svg width="64" height="72" fill="none" xmlns="http://www.w3.org/2000/svg"><g clip-path="url(#clip0)" filter="url(#filter0_d)" fill="#fff"><path d="M54.905 23.558h-13.81V13.453h.337a2.36 2.36 0 0 0 2.357-2.358V9.41h.337a2.36 2.36 0 0 0 2.358-2.358V4.358A2.36 2.36 0 0 0 44.126 2h-4.042a1.01 1.01 0 1 0 0 2.021h4.042c.186 0 .337.151.337.337v2.695a.337.337 0 0 1-.337.337H19.874a.337.337 0 0 1-.337-.337V4.358c0-.186.15-.337.337-.337h16.168a1.01 1.01 0 1 0 0-2.021H19.874a2.36 2.36 0 0 0-2.358 2.358v2.695a2.36 2.36 0 0 0 2.358 2.358h.337v1.684a2.36 2.36 0 0 0 2.357 2.358h.337v10.105H9.095a2.36 2.36 0 0 0-2.358 2.358v2.694a2.36 2.36 0 0 0 2.358 2.358h8.084a1.01 1.01 0 1 0 0-2.02h-1.926l3.368-3.369h8.137l-3.368 3.368h-2.17a1.01 1.01 0 1 0 0 2.021h28.632v10.106h-6.346l-1.117-3.352a1.01 1.01 0 0 0-.958-.69H22.568a1.01 1.01 0 0 0-.958.69l-1.117 3.352h-6.346V34a1.01 1.01 0 1 0-2.02 0v8.084c0 .558.452 1.01 1.01 1.01h8.084c.435 0 .821-.278.959-.69l1.117-3.351h17.406l1.117 3.35c.138.414.524.692.959.692h8.084a1.01 1.01 0 0 0 1.01-1.01V30.967h3.032a2.36 2.36 0 0 0 2.358-2.357v-2.695a2.36 2.36 0 0 0-2.358-2.358zm-42.51 5.39h-3.3a.337.337 0 0 1-.337-.338v-2.694c0-.186.15-.337.337-.337h6.668l-3.368 3.368zM38.4 9.41h3.368v1.684a.337.337 0 0 1-.337.337h-2.694a.337.337 0 0 1-.337-.337V9.41zm-15.832 2.02a.337.337 0 0 1-.337-.336V9.41H25.6v1.684a.337.337 0 0 1-.337.337h-2.695zm2.358 12.127V13.453h.337a2.36 2.36 0 0 0 2.358-2.358V9.41h8.758v1.684a2.36 2.36 0 0 0 2.358 2.358h.337v2.02H27.958a1.01 1.01 0 1 0 0 2.022h11.116v2.02H27.958a1.01 1.01 0 1 0 0 2.022h11.116v2.02H24.926zm1.321 5.39l3.369-3.369h8.136l-3.368 3.368h-8.137zm10.995 0l3.368-3.369h8.137l-3.368 3.368h-8.137zm18-.338a.337.337 0 0 1-.337.337h-6.668l3.368-3.368h3.3c.186 0 .337.151.337.337v2.694zm-.337 29.981h-3.031v-9.77a1.01 1.01 0 0 0-1.01-1.01H40.811l-1.117-3.352a1.01 1.01 0 0 0-1.917.64l1.348 4.042c.137.413.523.69.958.69h9.769v8.759H14.147v-8.758h9.769c.435 0 .82-.279.958-.691l1.117-3.351h8.704a1.01 1.01 0 1 0 0-2.021h-9.432a1.01 1.01 0 0 0-.959.69l-1.117 3.352h-10.05a1.01 1.01 0 0 0-1.01 1.01v9.769H9.094a2.36 2.36 0 0 0-2.358 2.357v2.695A2.36 2.36 0 0 0 9.095 66h45.81a2.36 2.36 0 0 0 2.358-2.358v-2.695a2.36 2.36 0 0 0-2.358-2.358zm-45.81 5.389a.337.337 0 0 1-.337-.337v-2.695c0-.185.15-.337.337-.337h6.668l-3.368 3.369h-3.3zm6.158 0l3.368-3.368h8.137l-3.369 3.368h-8.136zm10.994 0l3.369-3.368h8.136l-3.368 3.368h-8.137zm10.995 0l3.368-3.368h8.137l-3.368 3.368h-8.137zm18-.337a.337.337 0 0 1-.337.337h-6.668l3.368-3.368h3.3c.186 0 .337.15.337.337v2.694z"/><path d="M29.305 13.453h5.39a1.01 1.01 0 1 0 0-2.021h-5.39a1.01 1.01 0 1 0 0 2.02z"/></g><defs><filter id="filter0_d" x="-4" y="0" width="72" height="72" filterUnits="userSpaceOnUse" color-interpolation-filters="sRGB"><feFlood flood-opacity="0" result="BackgroundImageFix"/><feColorMatrix in="SourceAlpha" values="0 0 0 0 0 0 0 0 0 0 0 0 0 0 0 0 0 0 127 0"/><feOffset dy="2"/><feGaussianBlur stdDeviation="2"/><feColorMatrix values="0 0 0 0 0 0 0 0 0 0 0 0 0 0 0 0 0 0 0.15 0"/><feBlend in2="BackgroundImageFix" result="effect1_dropShadow"/><feBlend in="SourceGraphic" in2="effect1_dropShadow" result="shape"/></filter><clipPath id="clip0"><path fill="#fff" transform="translate(0 2)" d="M0 0h64v64H0z"/></clipPath></defs></svg>