<svg xmlns="http://www.w3.org/2000/svg" viewBox="-49 141 30 34.909" height="34.909" width="30" id="Layer_1"><path id="path2" d="M-20.91 150.525a.273.273 0 0 0-.272-.252h-4.909v-1.364c0-4.361-3.548-7.909-7.909-7.909-4.36 0-7.91 3.548-7.91 7.91v1.363h-4.908a.273.273 0 0 0-.272.252l-1.91 25.09a.272.272 0 0 0 .273.294h29.454a.272.272 0 0 0 .272-.293zM-34 143.182a5.734 5.734 0 0 1 5.727 5.727v1.364h-11.454v-1.364A5.734 5.734 0 0 1-34 143.182zm-6.818 14.727a2.73 2.73 0 0 1-2.727-2.727c0-1.089.545-2.07 1.636-2.5v2.5a1.092 1.092 0 0 0 2.182 0v-2.498c1.09.43 1.636 1.418 1.636 2.498a2.73 2.73 0 0 1-2.727 2.727zm13.636 0a2.73 2.73 0 0 1-2.727-2.727c0-1.089.545-2.07 1.636-2.5v2.5a1.092 1.092 0 0 0 2.182 0v-2.498c1.091.43 1.636 1.418 1.636 2.498a2.73 2.73 0 0 1-2.727 2.727z" stroke-width=".068" fill="#212121"/></svg>