<svg xmlns="http://www.w3.org/2000/svg" height="85.936" width="244.361" id="Слой_1"><path id="path2" d="M221.428 64.508l.698.629-.24.853-.814.539h-1.393l-.463-.943 1.382-.449zm22.288-24.752l-.665.719-.59 1.302-.234 1.842-.357 2.022-.103 2.111-.483 2.74-.099 2.606-.584 2.291-.288 2.65-.552 2.112-.184 2.066-.582 1.258-.113 1.662-.584 2.291-.626 2.021-.623 2.516-.743 1.662-.763 1.527-1.181 2.112-1.461 2.426-1.297 1.751-2.378 2.022-1.371.898-2.067.764-2.042.629-2.592.18-2.26-.18-1.9-.18-1.617-.763-1.297-.539-1.015-1.123-.635-.989-.219-1.303.19-1.078.726-.179.529.449.564.629.613 1.123 1 .719 1.094.943 1.544.18 2.096.629 2.388-.27 2.016-.449 1.575-.764 1.798-1.258 1.296-1.482 1.391-1.752.968-1.662 1.257-2.022.642-2.111.722-2.561.624-2.515.292-1.662.106-1.617.108-1.123.526-2.471-2.048 1.168-2.32.674-2.624.359-1.958-.359-2.009-.584-1.979-1.258-1.136-.944-1.34-.808-.637-1.483-.608-1.392.562-1.662-.275-.989-.377-1.931.111-.629.58-2.785 1.033-2.291.832-1.662 1.786-1.213 1.271-1.348.579-1.752 1.453-.853.904-.539.697-.899 3.803-.674 2.317.36 1.443.224 1.223.449.788.629.759.539.913-.089.981-.719.502-.809 1.252-.224 1.023.314.502.719.082.808zm-6.012 5.031l-.788-.898-1.221.269-1.442.764-1.451.809-1.628 1.302-2.082.809-2.812 3.414-.414 1.842-.531 1.482.408 1.258.946 1.033.908 1.752 1.914 1.168 1.606.36 2.135-.09 2.183-.36.834-1.662.489-1.752-.001-1.527.293-1.662.4-1.752.421-3.414.07-1.932zm-27.895 17.34l-.513.359-.927-.089-.674-.764-.127-.809.124-1.213.174-.988-.129-1.303.139-1.302.206-1.168-.19-1.213.156-1.393-.331-2.201.407-3.324-.357-2.291-.9-.988-1.195-.584-.412-.719-.86-.449-1.512.449-1.094.359-1.077 1.033-1.131 1.079-1.456 1.662-.691 1.123-.443.988-.346.943-.89.989-1.032 1.033-.621 1.482-.382 1.662-.285 1.618-.535 2.021-.415 1.842-.293 1.662-.188 1.572.115 1.393.063 1.168-.108 1.123-.547.539-.45.494-.892.18h-.816l-.471-.405-.358-.539-.221-1.572-.05-1.258.097-2.605.174-.989.017-1.123.081-1.482.3-1.707.096-1.572.215-1.213.123-1.213-.08-1.348.293-1.662.171-1.482 1.007-5.705-.17-1.078-.388-.854-.234-.719-.193-.943.056-1.078.286-.854.591-.808.634-.539 1.168-.764 1.274-.09 1.287.09.877.629.825.674.813.988.376.674.169 1.078.901.494.999-.314 1.334-.18 1.322-.359 1.276-.36 1.604-.18 1.289-.179 1.224.449.502.719.355 1.303.29.898-.049 1.303.298.853.483 1.078.189 1.483-.14 1.302-.164 1.438.024 1.393-.156 1.392.138 1.258-.124 1.213-.23 1.303-.042 1.257.265 1.303-.051 1.303.545.988.177 1.033-.143.809zM184.591 20.44l-.787.898-.15.854.306.808.339.629-.23 1.303-.648 1.123-.876.898-1.078.764-1.185.09-1.286-.09-.677-.494-.787-.629-.643-.943-.811-1.258-.236-1.213-.021-.899.331-.853.623-.988.764-.764 1.429-.719 1.154-.18 1.695-.179 1.696-.449 1.139-.09.792.09.368.718-.307.719zm-4.553-2.965l.367-.809.677-.269.486.808-.798.449zM176.856 34.5l1.081-.269 1.076.269.681.719.69.674h1.033l.592.718.595.45.452.494-.143.808-.349.45-1.03.494-.724.539-.459 1.078-.442 1.482-.755 1.483.085 1.303-.595 1.078-.351 1.482-.457 1.572-.277 1.573-.161 1.931-.433 1.438-.278 1.572.056 1.213.198 1.168-.65 1.392.281 1.213-.372 2.112-.053.808.145 1.213-.14 1.303.201.898-.15.854.217.808-.592.809-.579.225-.319-.225-.247-.898-.087-1.034-.037-.808-.29-.899.15-.853-.383-1.393.221-1.258-.013-.943.222-1.258-.117-1.123.304-2.74-.045-.764.219-1.752.296-1.168.139-1.302.198-1.123-.29-.899-.685-.449-.436-.584-.23-1.752-.005-.988.634-3.594.457-1.572.023-1.662.1-1.079-.177-1.033.549-1.078.69-.853zM163 62.127l-.512.359-.927-.089-.675-.764-.127-.809.124-1.213.174-.988-.129-1.303.14-1.302.206-1.168-.191-1.213.156-1.393-.33-2.201.407-3.324-.358-2.291-.899-.988-1.196-.584-.411-.719-.861-.449-1.512.449-1.093.359-1.078 1.033-1.13 1.079-1.457 1.662-.69 1.123-.444.988-.345.943-.89.989-1.033 1.033-.62 1.482-.382 1.662-.286 1.618-.535 2.021-.415 1.842-.293 1.662-.187 1.572.114 1.393.063 1.168-.108 1.123-.547.539-.45.494-.892.18h-.815l-.472-.405-.358-.539-.221-1.572-.05-1.258.098-2.605.174-.989.017-1.123.08-1.482.301-1.707.096-1.572.214-1.213.123-1.213-.08-1.348.294-1.662.17-1.482 1.007-5.705-.17-1.078-.388-.854-.233-.719-.193-.943.055-1.078.286-.854.592-.808.634-.539 1.167-.764 1.274-.09 1.287.09.877.629.825.674.814.988.375.674.169 1.078.902.494.998-.314 1.335-.18 1.321-.359 1.276-.36 1.604-.18 1.29-.179 1.223.449.503.719.354 1.303.291.898-.05 1.303.298.853.484 1.078.188 1.483-.14 1.302-.164 1.438.025 1.393-.156 1.392.137 1.258-.124 1.213-.229 1.303-.043 1.257.265 1.303-.05 1.303.544.988.177 1.033-.142.809zm-28.831.719l-.735.09-.597-.18-.325-.449-.568-.854-.772-.719-.556-.673-.715-2.561.009-1.078-.148-.943-.142-.719h-.36l-.544.539-.697.898-.466.854-.427.898-.616.944-.681.808-.809.764-.893.988-1.332.674-.978.449-1.83.45-1.409.089-1.046-.179-1.102-.629-1.411-.405-.846-.808-1.102-.629-.584-.764-.875-.898-.114-1.393-.277-1.482-.106-1.438-.096-1.752-.177-1.033.515-1.392-.156-1.662.068-.899.156-1.393.027-1.167-.03-.854.296-1.168.436-.943 1.073-.989 1.3-.494.959-.09 1.136.18 1.02.584.698.629.566 1.123.274.988.114 1.393-.354.988-.779.854-.759.988-.319 1.303-.71 1.482-.222 1.258-.219 1.752.124 1.842.524.853.512 1.168 1.137.944 1.146.628 1.493.45 1.293-.45 1.278-.628 1.11-.944 1.152-1.437.888-1.213.753-1.213.671-1.258.652-1.662.565-1.932-.111-1.662-.008-1.482-.159-.629.394-1.213.117-1.168.346-.943.412-.809.393-1.213.621-.719.602-.359.762.27.277.718-.021.629.193.944-.249.898-.245 1.393-.605 1.392-.111.629-.499.539.026 1.123-.049 1.303.242 1.168-.234 1.842.235 1.213.082 1.572-.042 1.258.249 1.392.357 1.033.56.899.621.809 1.855.943.159.629-.584.763zm-14.904-15.094l.928.09.803.539 1.01 1.662-.552 2.111-1.532 1.303-.896-1.033-.494-1.527.382-1.663-.283-.943zm3.237-36.701l-.596-.18-1.795-.269-2.505-.315h-2.965l-3.633.225-3.959.539-3.474.09-3.166.629-2.55.449-2.845.853-2.117.539-2.011.45-.764.763-1.339.719-1.723.854-1.937.539-2.534.359-2.486.09-2.075-.719-1.152-.853-1.144-.899-.986-1.033.042-1.258.441-1.482 1.007-1.123.89-.719 1.232-.359 2.008-.944 1.831-.449 2.832-.27h3.01l3.816.27h3.863l4.18-.27 3.431-.089 1.53-.27 1.9.18 2.174-.36 2.212.45 2.127-.09 1.9.179 3.605.45h1.752l2.703 1.482.306.809-.118.674zM89.479 1.662l-.592-.719.615-.943.806.27-.118.673zm-18.744 69.36h-.674l-.656-.36-.848-.539-2.071-1.752-1.401-1.482-1.364-2.201-1.023-1.842-.783-1.932-1.131-1.482-1.512-2.381-1.828-2.111-1.697-1.842-1.216-2.022-1.816-2.695-1.226-2.471-1.364-2.201-1.306-2.021-1.638-1.662-1.898-1.213h-2.021l-.32 1.302-1.001 2.112-1.125 3.324-.446 2.021-.804 1.752-1.452 4.672-.655 2.696-.293 1.662-.935 3.773-.158.899.322.718.568.854.198 1.168-.343.674-.56.628-.872.36-.822-.18-.534-.539-.322-.719-.799-1.841.217-2.247.483-2.74.94-4.312.759-1.752.422-1.123.388-2.201.499-1.303.507-1.348.352-1.482.789-1.932.553-2.111.853-2.291.562-2.426.719-1.527.398-1.752.373-2.112.649-2.156.494-2.291 1.738-4.762.624-1.752.309-1.752.525-2.47.923-1.662.816-1.573-.082-1.572.652-1.662-.41-1.752.523-1.437.949-1.303 1.963-.18 2.161-1.303 1.89-.269 2.621-.09 2.724.09 3.007.269 1.372.629 1.171.494 1.128.989 1.237 1.392.605 1.662.635 1.752.405 2.291-.262 1.483.5 1.752-.447 2.021.051.989-.581 2.021-.669 1.752-.626 2.021-.414 1.842-.637 1.573-1.194 1.931-1.535 1.572-1.461.899-1.591 1.123-1.474.719-1.454.853-.309 1.752.212 1.348.294 1.392.085 1.303.711 3.1 1.361 3.234.592 1.482.484 1.842.883 2.381.457 1.483.904 1.752.288 1.931.455 1.752.844 1.842.674 1.527 1.128 1.752 1.459 1.662.983 1.303.693 1.168.301.584-.021.629zM58.593 27.807l.828-1.393-.164-.853.473-.899.293-1.662.367-1.572 1.432-2.022-.288-1.931.79-1.932-.307-.809.602-3.414-.693-1.392-1.739-.539-1.41-.629-.823.359-.611-.09-3.036.989-.687.853-.549 1.078-.619 1.483-.698 1.931-.293 1.663-1.873 4.761-1.311 2.336-.924 1.932-.568 2.201-.011 1.078-.44 1.483.805.763 1.28.36 1.328-.674 2.288-.539 2.96-.539 1.705-1.034zm2.983-11.59l-.11.629-.843.449-.339-.629.584-.764zm-28.713-1.483l-.56.629-1.379.944-1.443.539h-2.426l-1.358-.449-1.575-.495-1.839.495-2.497 1.168-2.072 1.302-2.267 1.393-.594 1.078-1.514.943-1.506 1.662-1.749 2.022-1.152 1.437-1.205 2.247-1.225 2.111-.69 2.381-.34 1.931-.822 2.112-.977 2.74-.592 2.336.191 2.74.827 1.932 1.073 1.302 1.731.629 2.109 1.034 2.481.449 1.889-.27h.944l.822-.584 1.662-1.527 1.279-1.393.538-3.054.61-1.932.658-2.201.895-2.022.803-.988.087-2.021.421-.854.605-.629.657-.674.782-.359 1.377.09 1.316.943.23 1.752.046 2.291-.026 1.932.351 1.572.363 2.022-.42 2.38-.283 2.112-.748 2.201-.459 2.605-.478 2.202-.53 3.009-.354 2.516.145 2.74-.242 2.651-.05 1.302.299.854-.508 1.347-.15.854-.47.629-.664.449-.761-.269-.558-1.168.05-1.303-.518-.629.204-1.662-.292-2.426-.747-1.617-.558-1.932-.201-1.662-.381-2.426.161-1.931-.78-1.438-.912-.943-1.527.764-1.445.808-3.916.809-1.406-.18-1.646-.09-3.029-1.168-1.945-.943-.037-.809-1.527-.763-.17-1.079-.628-.763L0 46.719v-1.527l.203-1.663.37-2.605.573-2.74.943-2.291.05-1.303.029-2.201.361-2.561.608-2.426 1.133-1.841L5.935 23l1.585-2.111 1.308-1.303.895-1.258 2.138-1.931 1.506-1.663 1.532-1.302 1.504-1.393 1.429-.719 1.721.18 1.698-.719 3.058-.269 1.484-1.033 2.524-.809 1.868.359 1.192.629.925 1.123.334 1.168.478.854-.043 1.258zM45.451 46.27l-.209.673-.679-.224-.011-.449.83-.629zM86.9 62.397l-.222-1.034.399-1.752-.096-.988-.024-1.392.808-4.582-.097-1.483.292-1.662.129-1.752.373-2.111.129-1.752.325-1.842.504-1.842.436-2.471.264-2.515.697-3.953.164-1.438.605-1.392.308-1.752.299-2.201-.391-2.112-.109-1.931-.458-1.483.083-1.482.221-1.258.811-1.033 1.321-1.123 1.469-.18 1.052.404 1.113 1.078.774 1.213.397 1.573-.637.808-.684 1.842-.293 1.662-.642 2.111-.325 1.842-.44 1.483-.582 1.257.177 1.034-.834 1.168-.412 1.572-.246 1.392-.668 1.752-.536 2.022-.457 1.572-.146 1.842-.731 2.111-.446 2.022-.294 1.662-.282 2.111-.225 2.291-.568 2.201-.419 2.381-.634 2.067-.161 1.931-.372 2.112-.251 1.931-.43 1.932-.74.629-.101-.449-.074-.854.478-1.437zm72.184.539l-.454.539-.481.179-.233-.718.846-.719zm46.809 0l-.454.539-.481.179-.233-.718.846-.719z" fill="#fff"/></svg>