<svg xmlns="http://www.w3.org/2000/svg" height="23.997" width="24" id="Слой_1"><path id="path2" d="M24 11.998C24 5.383 18.617 0 12.002 0a.482.482 0 0 0-.485.485v4.438h-.225a4.08 4.08 0 0 0-4.076 4.076v6.004a4.08 4.08 0 0 0 4.076 4.076h1.414a4.08 4.08 0 0 0 4.076-4.076v-6.01a4.08 4.08 0 0 0-4.076-4.075h-.225V.974c5.862.254 10.55 5.103 10.55 11.024 0 3.896-1.991 7.424-5.324 9.445-3.445 2.084-7.648 2.118-11.529.092a8.782 8.782 0 0 1-3.718-3.723C-.15 12.806.713 7.29 4.657 3.772a.487.487 0 0 0 .039-.684.487.487 0 0 0-.685-.04 12.058 12.058 0 0 0-3.802 6.7c-.529 2.793-.05 5.74 1.39 8.504a9.653 9.653 0 0 0 4.13 4.135c2.054 1.077 4.198 1.61 6.292 1.61a11.86 11.86 0 0 0 6.19-1.732A11.908 11.908 0 0 0 24 11.998zM12.71 5.887a3.112 3.112 0 0 1 3.107 3.107v6.004a3.112 3.112 0 0 1-3.107 3.107h-1.414a3.112 3.112 0 0 1-3.107-3.107V8.994a3.112 3.112 0 0 1 3.107-3.107zm0 0" fill="#fff" stroke-width=".061"/><path id="path4" d="M8.2 8.994v1.781h3.861V5.887h-.753a3.112 3.112 0 0 0-3.107 3.107z" fill="#ffca00" stroke-width=".061"/></svg>