<svg width="1172" height="58" fill="none" xmlns="http://www.w3.org/2000/svg"><path d="M5.597 21.819V6.341h15.478V1.3H.13V51h11.573c7.81 0 11.43-4.331 11.43-12.07v-5.467c0-7.952-3.975-11.644-11.714-11.644H5.597zm0 24.14v-19.17h5.822c4.047 0 6.177 1.491 6.177 6.319v6.177c0 4.615-1.846 6.674-5.893 6.674H5.597zm43.975-4.97L51.489 51h5.538L47.513 1.3H39.49L29.976 51h5.112l1.917-10.011h12.567zm-6.39-33.441l5.609 28.684H37.715l5.467-28.684zM94.08 57.816V46.101h-3.763V1.3H70.366l-1.917 37.559c-.142 3.053-.497 5.325-2.201 7.242h-3.195v11.715h5.325V51h20.306v6.816h5.396zM75.478 6.341h9.23v39.76H71.573c1.562-1.633 2.059-3.763 2.272-7.313l1.633-32.447zm26.288 37.772V51h5.325v-6.887h-5.325zm45.479-15.478V51h5.538V1.3h-5.538v22.365h-12.212V1.3h-5.538V51h5.538V28.635h12.212zm19.61-5.325V6.341h14.91V1.3h-20.448V51h20.448v-5.041h-14.91V28.28h12.141v-4.97h-12.141zm53.508 6.461V51h5.538V1.3h-11.076c-7.81 0-11.076 3.976-11.076 11.36v4.047c0 5.467 1.917 8.875 6.106 10.224-4.473 1.349-6.177 5.041-6.177 10.366v7.739c0 2.201-.142 4.26-.994 5.964h5.609c.639-1.42.923-2.698.923-6.035v-7.81c0-5.609 2.627-7.384 7.242-7.384h3.905zm0-23.43V24.73h-4.189c-4.331 0-6.958-1.42-6.958-6.816v-4.757c0-4.473 1.633-6.816 5.751-6.816h5.396zM234.389 1.3V51h11.431c7.739 0 11.36-4.189 11.36-11.644v-4.189c0-5.467-1.846-9.301-6.674-10.65 4.331-1.349 5.822-4.615 5.822-9.869v-2.343c0-7.313-3.053-11.005-10.792-11.005h-11.147zm5.538 21.087V6.341h5.467c3.976 0 5.467 2.13 5.467 6.532v2.911c0 5.183-2.272 6.603-6.674 6.603h-4.26zm0 23.572V27.428h4.828c4.757 0 6.958 1.846 6.958 7.384v4.402c0 4.615-1.846 6.745-5.893 6.745h-5.893zm45.199-39.618V51h5.538V1.3h-20.235l-1.349 37.63c-.142 4.757-.923 7.1-5.538 7.1v5.041h.923c7.597-.071 9.727-4.544 10.011-12.425l1.136-32.305h9.514zm31.051 23.43V51h5.538V1.3h-11.076c-7.81 0-11.076 3.976-11.076 11.36v4.047c0 5.467 1.917 8.875 6.106 10.224-4.473 1.349-6.177 5.041-6.177 10.366v7.739c0 2.201-.142 4.26-.994 5.964h5.609c.639-1.42.923-2.698.923-6.035v-7.81c0-5.609 2.627-7.384 7.242-7.384h3.905zm0-23.43V24.73h-4.189c-4.331 0-6.958-1.42-6.958-6.816v-4.757c0-4.473 1.633-6.816 5.751-6.816h5.396zm19.564 16.969V6.341h14.91V1.3h-20.448V51h20.448v-5.041h-14.91V28.28h12.141v-4.97h-12.141zM371.763 51V6.341h9.159V1.3h-23.856v5.041h9.159V51h5.538zM398.606.803c-7.597 0-11.147 4.97-11.147 12.496v25.702c0 7.526 3.55 12.496 11.147 12.496 7.668 0 11.218-4.97 11.218-12.496v-6.177h-5.254v6.461c0 4.473-1.775 7.171-5.822 7.171-3.976 0-5.822-2.698-5.822-7.171v-26.27c0-4.473 1.846-7.171 5.822-7.171 4.047 0 5.822 2.698 5.822 7.171v4.757h5.254v-4.473c0-7.526-3.55-12.496-11.218-12.496zm35.847 28.968V51h5.538V1.3h-11.076c-7.81 0-11.076 3.976-11.076 11.36v4.047c0 5.467 1.917 8.875 6.106 10.224-4.473 1.349-6.177 5.041-6.177 10.366v7.739c0 2.201-.142 4.26-.994 5.964h5.609c.639-1.42.923-2.698.923-6.035v-7.81c0-5.609 2.627-7.384 7.242-7.384h3.905zm0-23.43V24.73h-4.189c-4.331 0-6.958-1.42-6.958-6.816v-4.757c0-4.473 1.633-6.816 5.751-6.816h5.396zm47.984 0V51h5.538V1.3H467.74l-1.349 37.63c-.142 4.757-.923 7.1-5.538 7.1v5.041h.923c7.597-.071 9.727-4.544 10.011-12.425l1.136-32.305h9.514zm19.832 16.969V6.341h14.91V1.3h-20.448V51h20.448v-5.041h-14.91V28.28h12.141v-4.97h-12.141zM544.255 51h5.68l-12.993-27.051L549.509 1.3H543.9l-13.206 23.998V1.3h-5.538V51h5.538V34.315l2.911-4.899L544.255 51zm30.969-10.011L577.141 51h5.538l-9.514-49.7h-8.023L555.628 51h5.112l1.917-10.011h12.567zm-6.39-33.441l5.609 28.684h-11.076l5.467-28.684zM589.841 1.3V51h5.538V31.404h4.899c7.881 0 11.573-4.118 11.573-11.999v-5.964c0-7.526-3.337-12.141-11.147-12.141h-10.863zm5.538 25.134V6.341h5.325c4.047 0 5.68 2.272 5.68 6.816v6.603c0 4.757-1.988 6.674-6.106 6.674h-4.899zM629.75.803c-7.597 0-11.147 4.97-11.147 12.496v25.702c0 7.526 3.55 12.496 11.147 12.496 7.668 0 11.218-4.97 11.218-12.496v-6.177h-5.254v6.461c0 4.473-1.775 7.171-5.822 7.171-3.976 0-5.822-2.698-5.822-7.171v-26.27c0-4.473 1.846-7.171 5.822-7.171 4.047 0 5.822 2.698 5.822 7.171v4.757h5.254v-4.473c0-7.526-3.55-12.496-11.218-12.496zM661.976 51V6.341h9.159V1.3h-23.856v5.041h9.159V51h5.538zm16.122-49.7V51h11.431c7.739 0 11.36-4.189 11.36-11.644v-4.189c0-5.467-1.846-9.301-6.674-10.65 4.331-1.349 5.822-4.615 5.822-9.869v-2.343c0-7.313-3.053-11.005-10.792-11.005h-11.147zm5.538 21.087V6.341h5.467c3.976 0 5.467 2.13 5.467 6.532v2.911c0 5.183-2.272 6.603-6.674 6.603h-4.26zm0 23.572V27.428h4.828c4.757 0 6.958 1.846 6.958 7.384v4.402c0 4.615-1.846 6.745-5.893 6.745h-5.893zm30.643-22.649V6.341h14.91V1.3h-20.448V51h20.448v-5.041h-14.91V28.28h12.141v-4.97h-12.141zm40.637 5.325V51h5.538V1.3h-5.538v22.365h-12.212V1.3h-5.538V51h5.538V28.635h12.212zm31.823 0V51h5.538V1.3h-5.538v22.365h-12.212V1.3h-5.538V51h5.538V28.635h12.212zm19.61-7.739V1.3h-5.538V51h10.863c7.739 0 11.147-4.615 11.147-12.141v-5.964c0-7.881-3.692-11.999-11.573-11.999h-4.899zM827.436 1.3V51h5.467V1.3h-5.467zm-21.087 44.659V25.866h4.899c4.118 0 6.106 1.846 6.106 6.674v6.603c0 4.544-1.633 6.816-5.68 6.816h-5.325zm61.289-34.932V51h5.254V1.3h-7.739l-7.881 39.689L849.107 1.3h-7.739V51h4.828V11.382l8.236 39.547h5.325l7.881-39.902zM906.029.803c-7.597 0-11.147 4.97-11.147 12.496v25.702c0 7.526 3.55 12.496 11.147 12.496 7.668 0 11.218-4.97 11.218-12.496v-6.177h-5.254v6.461c0 4.473-1.775 7.171-5.822 7.171-3.976 0-5.822-2.698-5.822-7.171v-26.27c0-4.473 1.846-7.171 5.822-7.171 4.047 0 5.822 2.698 5.822 7.171v4.757h5.254v-4.473c0-7.526-3.55-12.496-11.218-12.496zm19.09.497V51h5.538V31.404h4.899c7.881 0 11.573-4.118 11.573-11.999v-5.964c0-7.526-3.337-12.141-11.147-12.141h-10.863zm5.538 25.134V6.341h5.325c4.047 0 5.68 2.272 5.68 6.816v6.603c0 4.757-1.988 6.674-6.106 6.674h-4.899zm29.188-3.124V6.341h14.91V1.3h-20.448V51h20.448v-5.041h-14.91V28.28h12.141v-4.97h-12.141zm52.775 34.506V46.101h-3.76V1.3h-19.951l-1.917 37.559c-.142 3.053-.497 5.325-2.201 7.242h-3.195v11.715h5.325V51h20.309v6.816h5.39zM994.021 6.341h9.229v39.76h-13.134c1.562-1.633 2.059-3.763 2.272-7.313l1.633-32.447zM1031.03.803c-7.6 0-11.15 4.97-11.15 12.496v25.702c0 7.526 3.55 12.496 11.15 12.496 7.67 0 11.22-4.97 11.22-12.496v-6.177h-5.26v6.461c0 4.473-1.77 7.171-5.82 7.171-3.97 0-5.82-2.698-5.82-7.171v-26.27c0-4.473 1.85-7.171 5.82-7.171 4.05 0 5.82 2.698 5.82 7.171v4.757h5.26v-4.473c0-7.526-3.55-12.496-11.22-12.496zM1063.26 51V6.341h9.15V1.3h-23.85v5.041h9.16V51h5.54zm16.12-49.7V51h11.43c7.74 0 11.36-4.189 11.36-11.644v-4.189c0-5.467-1.85-9.301-6.68-10.65 4.34-1.349 5.83-4.615 5.83-9.869v-2.343c0-7.313-3.06-11.005-10.8-11.005h-11.14zm5.54 21.087V6.341h5.46c3.98 0 5.47 2.13 5.47 6.532v2.911c0 5.183-2.27 6.603-6.67 6.603h-4.26zm0 23.572V27.428h4.82c4.76 0 6.96 1.846 6.96 7.384v4.402c0 4.615-1.84 6.745-5.89 6.745h-5.89zm24.68-6.958c0 7.526 3.76 12.496 11.36 12.496 7.66 0 11.43-4.97 11.43-12.496V13.299c0-7.597-3.77-12.496-11.43-12.496-7.6 0-11.36 4.899-11.36 12.496v25.702zm5.46-25.986c0-4.473 1.92-7.171 5.9-7.171 4.04 0 5.89 2.698 5.89 7.171v26.27c0 4.544-1.85 7.171-5.89 7.171-3.98 0-5.9-2.627-5.9-7.171v-26.27zm51.6-1.988V51h5.25V1.3h-7.74l-7.88 39.689-8.16-39.689h-7.74V51h4.82V11.382l8.24 39.547h5.33l7.88-39.902z" fill="#BDBDBD"/></svg>