<svg width="56" height="62" fill="none" xmlns="http://www.w3.org/2000/svg"><mask id="path-1-outside-1" maskUnits="userSpaceOnUse" x="18.067" y=".773" width="29.381" height="24.706" fill="#000"><path fill="#fff" d="M18.067.773h29.381v24.706H18.067z"/><path fill-rule="evenodd" clip-rule="evenodd" d="M36.132 7.45c.1.982.216 1.907.328 2.788.206 1.632.394 3.117.417 4.548 1.91.005 3.818.139 5.713.4-.673 2.975-1.565 4.89-3.45 5.905-1.258.659-2.65-.284-3.458-2.388a7.067 7.067 0 0 1-.286-.92c-.863.37-2.037.389-3.338.026-1.427-.398-2.448-1.102-2.961-1.962-2.458 1.188-4.643.72-5.436-1.182-1.239-2.966-.685-5.832.946-9.571.817.68 1.601 1.299 2.349 1.889 1.509 1.19 2.868 2.263 4.047 3.484 1.275-1.19 2.975-2.12 5.13-3.017z"/></mask><path fill-rule="evenodd" clip-rule="evenodd" d="M36.132 7.45c.1.982.216 1.907.328 2.788.206 1.632.394 3.117.417 4.548 1.91.005 3.818.139 5.713.4-.673 2.975-1.565 4.89-3.45 5.905-1.258.659-2.65-.284-3.458-2.388a7.067 7.067 0 0 1-.286-.92c-.863.37-2.037.389-3.338.026-1.427-.398-2.448-1.102-2.961-1.962-2.458 1.188-4.643.72-5.436-1.182-1.239-2.966-.685-5.832.946-9.571.817.68 1.601 1.299 2.349 1.889 1.509 1.19 2.868 2.263 4.047 3.484 1.275-1.19 2.975-2.12 5.13-3.017z" fill="#74BF43"/><path d="M36.46 10.238l-1.984.251 1.984-.25zm-.328-2.788l1.99-.2a2 2 0 0 0-2.758-1.646l.768 1.846zm.745 7.336l-2 .032a2 2 0 0 0 1.994 1.968l.006-2zm5.713.4l1.95.44a2 2 0 0 0-1.678-2.422l-.272 1.981zm-3.45 5.905l.928 1.771.02-.01-.949-1.761zm-3.458-2.388l-1.867.716 1.867-.716zm-.286-.92l1.948-.455a2 2 0 0 0-2.736-1.383l.788 1.838zm-3.338.026l-.537 1.926.537-1.926zm-2.961-1.962l1.717-1.025a2 2 0 0 0-2.587-.776l.87 1.8zm-5.436-1.182l1.846-.77v-.001l-1.846.77zm.946-9.571l1.28-1.537a2 2 0 0 0-3.114.737l1.834.8zm2.349 1.889l1.239-1.57-1.24 1.57zm4.047 3.484l-1.439 1.39a2 2 0 0 0 2.804.072l-1.365-1.462zm7.441-.48a108.38 108.38 0 0 1-.322-2.738l-3.98.402c.102 1.01.222 1.96.334 2.838l3.968-.502zm.433 4.767c-.026-1.561-.23-3.16-.433-4.767l-3.968.502c.209 1.656.38 3.028.401 4.33l4-.065zm3.985-1.55a44.811 44.811 0 0 0-5.98-.418l-.01 4c1.82.005 3.639.132 5.445.38l.545-3.962zm-2.774 9.648c2.704-1.457 3.758-4.156 4.453-7.226l-3.902-.882c-.652 2.882-1.38 4.011-2.448 4.586l1.897 3.522zm-6.273-3.433c.49 1.279 1.242 2.44 2.295 3.163 1.14.782 2.593.996 3.958.28L38.21 19.32c-.002.001.014-.007.046-.014a.356.356 0 0 1 .104-.006c.073.007.079.03.013-.015-.16-.11-.508-.473-.825-1.298l-3.734 1.433zm-.366-1.181c.091.39.214.786.366 1.181l3.734-1.433a5.053 5.053 0 0 1-.205-.658l-3.895.91zm-1.928 1.497c1.573.439 3.246.494 4.664-.114l-1.577-3.676c-.309.132-.984.224-2.013-.063l-1.074 3.853zm-4.141-2.863c.86 1.442 2.405 2.379 4.14 2.863l1.075-3.853c-1.118-.312-1.615-.783-1.78-1.06l-3.435 2.05zm-5.565-1.438c.654 1.568 1.938 2.594 3.517 2.936 1.507.326 3.13.005 4.635-.722l-1.74-3.602c-.952.46-1.651.5-2.05.414-.325-.07-.53-.23-.67-.565l-3.692 1.54zm.958-11.14c-1.701 3.903-2.515 7.413-.957 11.142l3.69-1.542c-.92-2.202-.625-4.424.934-8l-3.667-1.6zm5.422 1.119c-.75-.592-1.515-1.195-2.309-1.856L23.327 6.63c.84.7 1.644 1.334 2.39 1.922l2.478-3.14zm4.247 3.665c-1.29-1.336-2.76-2.492-4.247-3.665l-2.478 3.14c1.53 1.208 2.779 2.197 3.847 3.303l2.878-2.778zm2.922-3.474c-2.236.93-4.193 1.97-5.726 3.402l2.73 2.923c1.017-.95 2.46-1.77 4.533-2.632l-1.538-3.693z" fill="#fff" mask="url(#path-1-outside-1)"/><path d="M11.952 37.607a7.187 7.187 0 0 0 3.307 2.02 7.944 7.944 0 0 0 .321 6.705 7.797 7.797 0 0 0 2.817 3.016 7.64 7.64 0 0 0 3.947 1.132h.002a7.853 7.853 0 0 0 5.535-2.258 8.062 8.062 0 0 0 2.155-3.744 6.399 6.399 0 0 0 3.153.809 6.528 6.528 0 0 0 4.47-2.051 6.72 6.72 0 0 0 1.823-4.595 6.858 6.858 0 0 0-.698-3.139 5.953 5.953 0 0 0 2.58-1.655 6.052 6.052 0 0 0 1.226-2.033l-.94-.338.94.338a6.117 6.117 0 0 0 .356-2.326 6.163 6.163 0 0 0-.449-2.327 6.095 6.095 0 0 0-1.313-1.998l-.711.703.712-.703a5.992 5.992 0 0 0-1.977-1.33 5.922 5.922 0 0 0-2.33-.447c-.5.003-.997.065-1.48.185a7.02 7.02 0 0 0-2.123-2.963 6.855 6.855 0 0 0-4.49-1.551 7.504 7.504 0 0 0-4.167 1.648 6.709 6.709 0 0 0-1.71-2.896l-.706.708.706-.709a6.593 6.593 0 0 0-2.257-1.473 6.516 6.516 0 0 0-2.633-.441c-3.792.039-6.98 2.96-6.839 6.873a7.264 7.264 0 0 0 1.433 4.245 7.55 7.55 0 0 0-1.646 2.01l.871.492-.871-.491a7.664 7.664 0 0 0-.985 3.66 7.372 7.372 0 0 0 1.971 4.924z" fill="#EC1165" stroke="#fff" stroke-width="2" stroke-linejoin="round"/><path fill="#EF2472" d="M12.999 44h27v15h-27z"/><g clip-path="url(#clip0)"><path d="M47.776 32.08H4.212C2.437 32.08 1 33.488 1 35.227v3.49c0 1.739 1.437 3.147 3.212 3.147h1.006l3.1 16.46c.39 1.941 2.197 3.48 4.075 3.48h26.565c1.88 0 3.686-1.539 4.076-3.48l3.12-16.47h1.633c1.775 0 3.212-1.408 3.212-3.148v-3.489c-.01-1.73-1.447-3.137-3.223-3.137zM18.737 48.53v7.1c0 1.015-.842 1.78-1.817 1.78a1.795 1.795 0 0 1-1.817-1.78v-9.955c0-1.016.842-1.78 1.817-1.78 1.037 0 1.817.824 1.817 1.78v2.855zm5.83 0v7.1c0 1.015-.841 1.78-1.816 1.78a1.795 1.795 0 0 1-1.817-1.78v-9.955c0-1.016.841-1.78 1.817-1.78.975 0 1.817.824 1.817 1.78v2.855zm5.862 4.123v2.976c0 .956-.78 1.78-1.817 1.78-.975 0-1.817-.764-1.817-1.78v-9.954c0-.956.842-1.78 1.817-1.78s1.817.764 1.817 1.78v6.978zm5.83 0v2.976c0 .956-.78 1.78-1.817 1.78-.975 0-1.816-.764-1.816-1.78v-9.954c0-.956.78-1.78 1.816-1.78.975 0 1.817.764 1.817 1.78v6.978z" fill="#fff"/></g><defs><clipPath id="clip0"><path fill="#fff" transform="translate(1 32)" d="M0 0h50v30H0z"/></clipPath></defs></svg>