<svg width="24" height="24" fill="none" xmlns="http://www.w3.org/2000/svg"><g clip-path="url(#clip0)" fill="#EC1165"><path d="M22.907 17.165a.42.42 0 0 0-.403-.276c-1.15-1.434-3.41-4.028-5.523-3.72-2.176.315-2.408 2.738-2.143 4.491.069.454.167.898.2 1.357.082 1.175-2.37.294-2.868.081-1.792-.765-3.295-2.26-4.423-3.814-1.145-1.575-1.8-3.697-.904-5.547.428-.885 3.356-.192 4.14-.223.344-.014.648-.345.533-.7-1.022-3.154-3.934-4.767-5.497-7.528-.189-.334-.693-.132-.648.22-4.36.793-5.016 6.03-4.265 9.577.827 3.902 3.224 7.458 6.525 9.664 3.014 2.015 7.015 3.576 10.69 3.195 3.246-.336 5.647-3.526 4.586-6.777zM4.797 2.508c.23-.194.465-.388.7-.587.893 2.49 3.529 4.036 4.67 6.476-.405-.02-.81-.055-1.203-.08C8.106 7.4 7.266 6.567 6.538 5.5c-.183-.27-1.704-2.958-1.808-2.92a.116.116 0 0 0 .067-.072zm17.13 16.35c-.016-.012-.027-.027-.047-.037-1.904-.98-3.654-1.74-4.983-3.517-.21-.28-.68-.027-.48.28 1.176 1.816 3.16 3.178 5.222 3.81.08.024.152.013.213-.019-.12.718-.321 1.41-.816 2.046-.87 1.12-2.365 1.403-3.698 1.436-3.082.076-6.261-1.323-8.834-2.9-2.918-1.791-4.833-4.638-5.939-7.841-.643-1.864-.89-3.881-.462-5.817.333-1.51 1.203-2.482 2.233-3.393.032.545.521 1.254.739 1.641.536.957 1.16 1.857 1.83 2.723.23.296.513.69.837 1.036-1.151.087-2.05.57-2.283 2.323-.496 3.748 2.31 6.958 5.268 8.872 1.377.891 5.296 2.31 5.387-.484.046-1.385-.662-2.62-.003-3.983 1.212-2.507 4.683 1.632 5.639 2.612.096.1.2.149.302.163-.048.352-.083.703-.125 1.049zm-2.447-8.035c-.531-2.26-2.544-4.324-4.173-5.86-.75-.707-1.658-1.508-2.635-1.877-.76-.287-.935-.206-1.527.13-.084.049-.026.169.063.15.27-.055 1.085.534 1.322.68.837.517 1.56 1.244 2.245 1.941 1.41 1.436 2.924 3.204 3.516 5.164.23.761 1.37.446 1.189-.328z"/><path d="M19.23 5.193c-2.01-2.318-4.954-4.055-7.778-5.175-.27-.107-.386.29-.184.436 2.144 1.551 4.321 2.967 6.251 4.795.93.88 1.684 1.9 2.298 3.019.61 1.112.608 2.3 1.02 3.46.159.449.824.5.96 0 .638-2.322-1.123-4.871-2.567-6.535zM16.538.145c-.343-.12-.554.408-.244.58 1.299.721 2.453 1.613 3.36 2.799.788 1.03 1.142 2.193 1.763 3.302.268.48 1.168.303 1.095-.297-.367-3.018-3.28-5.435-5.974-6.384z"/></g><defs><clipPath id="clip0"><path fill="#fff" d="M0 0h24v24H0z"/></clipPath></defs></svg>