<svg width="28" height="43" fill="none" xmlns="http://www.w3.org/2000/svg"><path d="M6.061 6.043c-2.075 4.875-.653 9.795 3.467 12.334.012.14.065.256.176.326.125.079.3.089.496.054.184.095.367.193.56.278a1.32 1.32 0 0 0-.144.172c.006.004.078-.063.175-.157.365.162.743.31 1.14.438.184.059.37.108.558.16.05.146.148.267.343.321.267.072.59.047.892-.042 4.026.696 8.314-.516 9.941-4.643 2.202-5.577-2.433-11.47-7.122-13.861-3.212-3.073-9.161 1.513-10.482 4.62zm16.278 5.158c1.029 5.14-2.627 8.543-7.671 7.8a.697.697 0 0 0-.308-.581c-.342-.246-.903-.15-1.367.211a10.116 10.116 0 0 1-1.292-.493l.046-.047c.607-.624 1.091-1.142 1.079-1.158-.013-.015-.519.484-1.132 1.115l-.058.06c-.051-.024-.107-.045-.158-.07.03-.029.064-.056.094-.086.633-.638.925-1.44.693-1.823-.231-.382-.922-.185-1.584.466l-.457.448c-.048.047-.089.096-.133.145a8.061 8.061 0 0 1-1.915-2.027c.07-.065.14-.132.212-.203l1.446-1.454c.514-.516.932-1.092 1.083-1.453a3 3 0 0 0 .792 1.165c1.16 1.224 2.993 1.688 4.26.297.36-.394.586-.886.716-1.413.224.249.813.08 1.33-.452.333-.341.66-.678.982-1.01.647-.664 1.133-1.281 1.083-1.379-.05-.097-.432-.224-.85-.175-.418.05-1.117.524-1.585.954a4.298 4.298 0 0 0-.841 1.074c0-.786-.2-1.572-.583-2.195-.166-.27-.316-.534-.457-.817-.185-.37-.64-.316-1-.319-.976-.006-2.025.341-2.786.958-.98.793-1.394 1.918-1.155 2.975-.205.043-.59.321-1.04.772L8.01 14.261c-.08.08-.155.16-.228.239a9.176 9.176 0 0 1-.895-2.625c.102-.083.206-.174.314-.282 1.163-1.17 2.32-2.327 3.472-3.482.655-.655 1.478-1.888 1.995-2.658a8.334 8.334 0 0 1 1.795-1.94c.732-.568 1.42-.88 1.408-.885-.008-.004-.074-.069-.156-.149 3.399 1.877 5.847 4.844 6.623 8.723zM13.057 9.22c.541-.49 1.122-.54 1.28-.574 0 .128.236.645.52 1.35.205.515.336 1.052.3 1.682-.031.572-.2 1.232-.595 1.665-.169.186-.08.135-.378.01-.386-.16-.687-.481-.968-.778-1.048-.966-1.042-2.558-.16-3.355zm2.041-7.105a.423.423 0 0 0 .113.08c.083.041.157.091.236.134-.26.036-.793.397-1.337.924a2495.58 2495.58 0 0 0-7.008 6.84 5.873 5.873 0 0 0-.385.42 8.887 8.887 0 0 1 .285-2.695c.009-.009.018-.016.025-.025l4.96-4.653c.677-.634.466-1.088-.413-.79a7.49 7.49 0 0 0-2.622 1.564c1.542-1.71 4.46-3.48 6.146-1.799zM3.857 21.566C1.86 21.674-.207 24.211.9 26.146c.666 1.161 1.679 1.906 2.865 2.513.474.243 1.399.548 2.28.902-.037.119-.042.214.03.246.198.09.386.136.418.106l.056-.054.057-.057c1.14.51 2 1.106 1.333 1.76-2.581 2.52-6.355 6.224-3.877 9.933 1.444 2.16 4.045.685 5.459-.578 1.32-1.18 2.362-2.642 3.664-3.843 2.037-1.88 4.593 2.537 5.783 3.75 1.657 1.689 3.46 1.183 4.975-.333 2.68-2.684-1.08-6.519-2.963-9.29-.297-.44-.57-.792-.783-.975a5.26 5.26 0 0 0 .875-.296c2.997-1.28 7.606-3.883 6.49-6.828-2.305-6.082-11.224 4.49-12.611 2.584a.571.571 0 0 0-.268-.195l-.008-.005c-3.44-1.585-6.868-4.133-10.82-3.92zm2.702 1.662c.924.277 1.808.717 2.68 1.12 1.467.68 2.867 1.493 4.33 2.18 1.525 1.857 4.21-.197 5.68-1.188.612-.412 1.214-.829 1.828-1.232.776-.508 2.083-1.503 2.997-1.345.331.055.648.221.953.493.69.62.772 1.797.383 2.26a4.93 4.93 0 0 1-.792.754c-1.494 1.341-3.517 2.445-5.422 3.099-.294.1-.807.398-.655.798.561 1.5 1.489 2.717 2.45 3.988.755.999 1.412 1.964 1.92 3.123a2.141 2.141 0 0 1-.034 1.83c-.006-.008-.008-.02-.015-.027-.283-.334-1.074-.087-1.755.545l-.355.33c-.041.039-.077.079-.115.12a2.027 2.027 0 0 1-.648-.453c-.21-.213-.417-.454-.627-.708.087-.076.174-.156.264-.238l.218-.203c.678-.634 1.113-1.23.965-1.317-.15-.086-.81.383-1.466 1.038l-.065.065a7.412 7.412 0 0 0-.244.252c-1.166-1.455-2.44-3.164-4.33-3.203-2.374-.05-3.89 2.241-5.326 3.834-1.26 1.4-2.409 1.776-3.207 1.502a8413.6 8413.6 0 0 0 2.794-2.753c.66-.65 1.604-1.815 2.188-2.535.778-.96 1.648-1.854 2.395-2.592.66-.652.987-1.335.704-1.5-.283-.165-1.046.256-1.693.921-2.416 2.487-4.824 4.977-7.236 7.467-.025.024-.047.05-.07.075-.234-.564-.26-1.324-.018-2.193.027-.025.052-.044.08-.074 2.08-2.136 4.036-4.141 5.808-5.95.649-.662.805-1.361.349-1.563-.375-.165-.928-.054-1.366.231-.813-.507-1.7-.91-2.601-1.297.346-.397.515-.769.37-.884-.148-.116-.61.137-1.081.575-.802-.347-1.592-.71-2.322-1.157.053-.05.108-.098.16-.152l.77-.78c.652-.66 1.234-1.514 1.39-1.875.087-.2.198-.408.343-.624.048-.064.1-.122.155-.174.091-.09.035-.21-.134-.268-.169-.06-.849.416-1.517 1.061l-1.987 1.922a3.207 3.207 0 0 0-.18.19c-.017-.015-.03-.03-.046-.045l.19-.185c.716-.696 1.383-1.345 1.96-1.902.667-.646 1.195-1.17 1.178-1.174-.018-.005-.571.517-1.233 1.167-.635.622-1.275 1.252-1.921 1.895l-.188.187a6.58 6.58 0 0 1-.726-.703 2.885 2.885 0 0 1-.453-.683 2.24 2.24 0 0 0 .46-.353l.78-.757c.365-.357.48-.7.389-.898.976-.227 2.1-.216 2.697-.037z" fill="#EC1165"/><path d="M18.81 12.614c-.647.664-.907 1.51-.498 1.774.409.265 1.236-.15 1.752-.728.516-.579 1.009-1.508.948-2.07-.06-.563-.758-.455-1.407.209-.263.273-.529.544-.794.815zm-7.444 19.003c.65-.662 1.166-1.205 1.151-1.21-.014-.007-.55.527-1.195 1.194-2.463 2.54-3.527 3.648.044.016zm7.378-4.999c.29.14.586.374.704.502s.778-.328 1.439-.98l1.222-1.207c.309-.341.613-.681.916-1.022.504-.568.166-.884-.665-.472-.634.314-1.296.724-1.96 1.165-.773.513-1.563 1.13-1.78 1.351-.219.224-.166.524.124.663z" fill="#EC1165"/></svg>