<svg width="39" height="37" fill="none" xmlns="http://www.w3.org/2000/svg"><path d="M38.399 24.09V6.32c0-4.537-3.075-5.837-7.219-5.837H6.36c-.021 0-.044 0-.067.004-.036.004-.083.01-.104.01l-.038.001C.783 1.098.546 4.985.546 9.184v18.702c0 3.846.138 8.268 5.462 8.268h16.947c3.216 0 9.523 1.161 12.512-.673 4.036-2.476 2.932-7.38 2.932-11.392zM36.757 7.477c-.014.407-.029.792-.029 1.132v.295c0 .163-.278.555-.622.873l-1.754 1.63c-.342.319-.562.596-.485.61.075.015.415-.239.758-.559l1.486-1.391c.342-.321.618-.257.618.142s-.27.974-.604 1.285c-.333.31-.487.563-.344.563.142 0 .414-.131.604-.294.191-.161.344.08.344.54v4.993c0 1.18.027 2.373.06 3.573.013.46-.054 1.118-.173 1.465-.12.347-.137.52-.01.395.126-.124.239.147.251.606.012.45.02.898.029 1.347.007.46-.259 1.1-.594 1.428l-1.348 1.331c-.334.33-.613.308-.625-.05a21.058 21.058 0 0 1-.012-.648c0-2.53 1.591-10.536-1.757-11.483a.439.439 0 0 0-.073-.013c-.04-.003-.113-.015-.163-.021-.05-.007-.098-.021-.108-.037-.01-.016-.03-.017-.046-.003-.014.014-.106.026-.205.041a1.76 1.76 0 0 0-.176.038c-2.564.689-1.787 2.187-1.915 4.54a8.33 8.33 0 0 1-.814 3.18c-.2.417-.674 1-1.012 1.325l-.459.44c-.338.324-.492.572-.35.547.141-.024-.006.229-.36.538-1.628 1.42-3.763 2.314-6.008 2.58-.474.054-.776-.014-.67-.117.107-.102.047-.26-.132-.362-.177-.1-.502-.023-.731.18-.23.203-.802.353-1.276.297a10.84 10.84 0 0 1-2.254-.501 4.743 4.743 0 0 1-.311-.119c-.171-.068-.042-.387.287-.709.328-.32.31-.328-.042-.017v.003c-.352.31-.896.455-1.201.297-.307-.156-.259-.552.093-.862l1.19-1.052c.352-.311 1-.431 1.46-.31a9.375 9.375 0 0 0 1.9.299c2.12.106 4.117-.654 5.643-1.935.36-.302.374-.29.023.023a7.811 7.811 0 0 1-.706.556c-.388.268-.81.513-.91.6-.098.086-.062.202.084.253.145.052.535-.175.87-.502 1.526-1.498 3.053-2.998 4.577-4.5.335-.33.317-.348-.038-.04l-1.987 1.727c-.354.31-.409.26-.165-.134a7.513 7.513 0 0 0 .999-2.62c.03-.166.05-.33.062-.49.022-.273.303-.751.648-1.068.913-.836 1.798-1.65 2.648-2.43.345-.318.595-.61.554-.65-.04-.04-.35.187-.692.508-.847.795-1.687 1.587-2.523 2.376-.342.321-.344.322-.004 0l2.518-2.386c.34-.322.609-.591.6-.6-.01-.008-.291.245-.632.566l-2.486 2.338c-.341.321-.624.208-.707-.245a5.402 5.402 0 0 0-.149-.616c-.133-.44-.018-1.033.331-1.346l1.493-1.336c.349-.314.41-.703.122-.848-.288-.144-.817.014-1.168.326-.335.3-.669.6-1.005.898-.35.313-.785.355-.996.115-.211-.24-.112-.672.24-.983l.375-.33c.35-.312 1.02-.507 1.495-.486 1.215.05 2.495-.094 3.208-.094 1.872 0 2.54-1.037 2.755-2.348.076-.453.1-.842.12-.86l.037-.033 1.345-1.203.514-.499c.28-.275.504-.128.49.331zm-.64 2.5c-.503.48-.986.931-1.46 1.366-.344.317-.35.314-.006-.006.54-.503 1.022-.955 1.46-1.365.34-.321.345-.317.006.006zM32.331 31.3h-16.78c-1.266 0-9.313 1.024-9.313-1.238V17.338c0-1.64 1.238 2.458 1.244 2.573.153 2.828 1.968 5.31 4.092 7.109 3.476 2.945 8.504 2.97 12.63 1.562 2.206-.753 4-2.35 5.401-4.097.674-.841 1.09-1.874 1.474-2.853.15-.381.392-2.891.618-4.427.068-.455.427-.557.637-.144 1.275 2.498.302 8.5.302 10.116.001.22.222 4.123-.305 4.123zm-17.507-7.16c.285.171.244.545-.106.857l-.996.89c-.35.312-.838.41-1.079.202-.24-.208-.14-.643.21-.957l.835-.75c.349-.314.852-.414 1.136-.242zm3.489-12.16a6.528 6.528 0 0 1 1.719.002c7.213 1.173 8.166 12.193-.192 12.613-7.815.393-9.127-11.404-1.527-12.614zm14.27-1.415c-.127 1.059-1.882.674-2.611.674-.922 0-2.018.212-2.726-.469-.522-.502-.301-1.86-.301-2.485 0-.4-.169-1.726.09-2.51.143-.437.937-.599 1.413-.632 1.355-.097 3.087-.232 3.873.526.522.504.302 1.86.302 2.486 0 .8.055 1.617-.04 2.41zM2.753 4.028c.485-1.179 1.201-2.07 2.239-2.482a3.27 3.27 0 0 1 .933-.213c.055 0-.17.265-.505.593L3.08 4.22c-.334.328-.503.234-.327-.193zm-.812 9.102c-.006-.12-.014-.238-.021-.358-.028-.458.229-1.09.573-1.408 1.634-1.51 3.199-2.957 4.714-4.354.345-.318.625-.592.625-.61 0-.018-.28.225-.624.544C5.72 8.318 4.145 9.774 2.49 11.3c-.344.318-.633.414-.646.215l-.023-.36a32.82 32.82 0 0 1 .092-3.116c.037-.458.354-1.095.687-1.424l3.86-3.798c.333-.329.337-.327.005.003l-.903.9c-.33.332-.328.333.005.005L7.4 1.927c.334-.328.992-.594 1.47-.594h1.573c.477 0 .82.041.767.094-.054.052.015.058.155.018.14-.04.268-.072.284-.087.015-.014.416-.025.893-.025h16.313c2.247 0 4.401-.28 6.25 1.016.384.27.939.807 1.151 1.218.15.288.257.607.335.946.1.448-.156 1.077-.505 1.39l-1.127 1.009c-.35.313-.645.288-.657-.056a19.686 19.686 0 0 1-.012-.622.701.701 0 0 0-.008-.108c-.01-.059.198-.298.464-.534.264-.235.275-.427.025-.427s-.507.046-.57.103c-.066.056-.307-.247-.71-.496-1.37-.847-4.147-.424-5.421-.424a.621.621 0 0 0-.067.004c-.037.004-.085.01-.105.01h-.038c-3.308.37-2.587 3.556-2.587 5.92 0 .597.248 1.012.648 1.3.383.274.586.534.355.742l-.419.378-.25.236c-.138.131-.454.063-.719-.133-.267-.196-.355-.46-.184-.61.172-.152.258-.268.192-.258-.066.009-.223.12-.353.247-.129.126-.56.026-.986-.182a9.693 9.693 0 0 0-2.513-.814c-.47-.085-.933-.14-1.03-.148a1.917 1.917 0 0 0-.266.003c-.05.005-.477.034-.95.1-3.665.51-6.694 2.725-7.348 6.47a5.662 5.662 0 0 0 .416 3.374c.19.422.307.826.193.935-.114.111-.207.457-.207.776 0 .32.087.492.195.385l.194-.192.252-.251c.14-.14.49.046.83.368.073.072.15.142.227.208.352.31.394.793.057 1.119l-.79.76c-.336.326-.881.325-1.181-.034-1.843-2.2-2.653-5.175-2.429-8.063.047-.604-.194-1.115-.601-1.439-.369-.292-.777-.4-.777-.472 0-.072-.056-.076-.126-.008s-.266.114-.438.13c-.1.01-.2.027-.306.055-1.298.352-1.962 1.14-2.285 2.132-.143.438-.461 1.076-.798 1.402l-.996.969c-.337.326-.597.448-.587.27.009-.147.013-.258.013-.321a24.2 24.2 0 0 0-.033-.797c-.021-.438.23-1.061.562-1.39a1577.51 1577.51 0 0 1 4.387-4.32c.335-.327.606-.863.606-1.196 0-.333-.279-.345-.621-.025a5965.357 5965.357 0 0 0-4.436 4.137c-.342.32-.64.222-.666-.22-.026-.442.23-1.06.572-1.38 1.47-1.375 2.98-2.79 4.532-4.245.343-.32.62-.876.62-1.241 0-.365-.276-.398-.615-.075-1.542 1.475-3.083 2.945-4.613 4.407-.336.328-.633.217-.66-.241zm1.915 12.3l-1.039 1.03c-.332.33-.601.264-.601-.147 0-.41.268-1.012.6-1.342.385-.383.768-.765 1.15-1.143.331-.33.594-.239.56.204-.034.442-.338 1.068-.67 1.398zm.476 1.089c-.018.332-.3.865-.635 1.191l-.964.933c-.336.326-.592.314-.57-.027.023-.34.312-.882.65-1.207a557.373 557.373 0 0 1 1.407-1.35c.083-.079.13.128.112.46zm-2.116-3.883v-1.49l.021-.266c.011-.147.304-.52.654-.834l.912-.826c.347-.316.594-.198.591.26a17.3 17.3 0 0 0 .026 1.012c.024.46-.223 1.092-.563 1.415l-1.027.977c-.34.323-.614.212-.614-.248zm-.103 8.227a9.173 9.173 0 0 1-.022-.695c.002-.459.303-1.095.64-1.42l.959-.915c.339-.324.6-.213.61.246.004.185.011.368.023.548.028.46-.182 1.102-.507 1.438l-.99 1.017c-.327.334-.68.24-.713-.219zM3.62 33.84a4.27 4.27 0 0 1-.838-.92c-.259-.387-.11-.995.236-1.31.302-.275.607-.55.912-.826.348-.315.712-.201.92.212.357.703.922 1.156 1.809 1.156H6.7c.023 0-.241.255-.59.568l-1.16 1.04c-.35.312-.97.38-1.331.08zm33.264-5.641c-.011.46-.305 1.09-.649 1.409-.675.626-1.367 1.268-2.08 1.933-.343.318-.343.576 0 .576s.897-.263 1.236-.588c.265-.256.531-.512.799-.768.338-.325.592-.262.558.14-.034.402-.182.837-.323.972-.142.134-.151.244-.024.244.128 0 .227.061.22.137a3.52 3.52 0 0 1-.013.137c-.586 4.862-14.433 2.912-17.23 2.912-2.612 0-7.348.664-11.21.173-.474-.06-.583-.397-.248-.724l.07-.068c.335-.327.542-.686.475-.81-.068-.123-.404.027-.758.336a82.9 82.9 0 0 1-.485.423c-.354.307-.958.485-1.339.367-.38-.12-.39-.491-.036-.798l1.423-1.233c.354-.308.631-.616.624-.689-.006-.071.375-.13.852-.13H31.55c2.082 0 2.642-1.223 2.766-2.684.04-.458.098-.894.18-.97l.148-.14 1.65-1.599c.336-.326.61-.218.607.242 0 .401-.007.8-.016 1.2z" fill="#EC1165"/><path d="M7.44 5.091c-.694.68-1.41 1.383-2.147 2.11l-.192.187c-.107.102.085-.074.43-.392l1.81-1.671c.346-.318.64-.633.664-.702.023-.07-.23.14-.565.468zM2.892 15.954c-.992.98 1.706-1.555 4.32-4.007.343-.321.339-.323-.005-.004-1.362 1.256-2.787 2.588-4.315 4.01z" fill="#EC1165"/></svg>