<svg width="43" height="31" fill="none" xmlns="http://www.w3.org/2000/svg"><path d="M42.799 7.326c-.292-2.249-1.874-4.524-4.007-5.108.06-.156.015-.35-.188-.385-8.509-1.445-17.683-1-26.276-.56C9.09 1.44.346 1.07 1.54 6.418.56 11.344.786 16.747.881 21.741c.056 2.957.428 5.878 3.395 7.269 3.788 1.778 9.271.95 13.291.967 5.911.026 11.851.005 17.754-.356.027.069.052.127.094.219.055.118.24.014.177-.104-.021-.044-.05-.082-.075-.125.06-.003.121-.005.181-.009a.406.406 0 0 0 .306-.157c2.711.297 4.81-1.01 5.735-3.675.833-2.398.582-5.523.731-8.002.203-3.37.379-6.742.53-10.115.007-.173-.083-.28-.201-.327zm-.729 2.795c-4.991-.482-10.04-.395-15.037-.044-.077.005-.078.125 0 .12 5.026-.25 10-.091 15.018.167-.105 1.343-.208 2.688-.308 4.033-2.817.055-5.66.246-8.467.48-.057.005-.059.091 0 .091 2.807-.034 5.647-.113 8.449-.325-.057.761-.122 1.522-.175 2.283-.004.058-.005.126-.008.185-3.647-.114-7.3-.01-10.942.21-.114.008-.115.183 0 .18 3.645-.149 7.283-.15 10.93-.118-.058 1.184-.05 2.605-.144 4.055-5.568-.47-11.155-.21-16.673.66-.062.01-.048.119.015.11 5.562-.706 11.054-.836 16.644-.521a20.058 20.058 0 0 1-.205 1.807c-4.646-.055-9.33.24-13.95.712-.068.006-.07.112 0 .109 4.636-.267 9.267-.405 13.905-.586a10.65 10.65 0 0 1-.42 1.663c-.017-.044-.048-.083-.11-.085-5.64-.144-11.324.02-16.945.522-.056.005-.059.091 0 .089a686.29 686.29 0 0 1 16.945-.352c.022 0 .032-.014.048-.02-.714 1.882-2.063 3.268-4.68 3.322a.38.38 0 0 0-.26-.092c-8.523.129-17.026.439-25.551.203-3.092-.086-6.723.06-8.055-3.888-.638-1.89-.275-4.518-.247-6.482.053-3.842.446-7.777.117-11.615.078-.028.143-.084.13-.19C1.269-.484 32.47 2.317 38.097 2.42c.82.644 1.654 1.278 2.332 2.064-3.67-.265-7.438-.077-11.084.298-.086.009-.089.14 0 .136 3.786-.203 7.533-.151 11.316-.137.089.115.187.22.268.343.782 1.181 1.072 2.503 1.228 3.881-.031.372-.057.745-.086 1.117z" fill="#EC1165"/><path d="M29.239 14.209a150.056 150.056 0 0 0-8.285-4.541c-1.073-.546-3.35-2.242-4.573-1.474-.186.116-.198.351-.105.513-.593.695-.31 2.358-.328 3.031-.09 3.292-.072 6.587-.114 9.878-.004.339.328.454.57.356.07.075.172.116.293.073 4.38-1.535 8.367-4.474 12.246-6.984.443.056.755-.58.296-.852zm-12.587 7.153c.056-2.168.13-4.335.184-6.504.044-1.754-.345-4.264.024-6.013.887-.004 2.943 1.38 3.579 1.702.842.427 1.684.858 2.519 1.299 1.656.873 3.286 1.794 4.933 2.685-3.738 2.297-7.41 4.68-11.239 6.83zm22.694 5.488c-9.338.127-18.685.447-28.016.801-.101.004-.102.161 0 .16 9.336-.146 18.686-.326 28.016-.697.17-.007.17-.267 0-.264zm1.424-7.413a122.913 122.913 0 0 0-11.42-.108c-.083.003-.083.131 0 .13a189.1 189.1 0 0 1 11.42.227c.161.008.16-.24 0-.25zm.89-7.087c-3.965-.288-7.98-.24-11.952-.178-.087.002-.087.136 0 .136 3.986.021 7.968.213 11.952.25.137.002.133-.198 0-.209zm-.513-4.775C35.972 6.7 30.792 6.7 25.603 7.47c-.063.01-.049.123.015.115 5.197-.675 10.277-.551 15.453.265.179.03.258-.244.076-.275z" fill="#EC1165"/></svg>