<svg width="25" height="45" fill="none" xmlns="http://www.w3.org/2000/svg"><path d="M7.879 28.032c.465-.439.842-.808.841-.823 0-.015-.377.34-.842.796-.465.453-.464.466 0 .027z" fill="#EC1165"/><path d="M3.274 22.858c3.085 0 2.099 5.727 2.099 7.252v9.235c0 1.168-.546 4.649 1.143 5.105 2.086.565 10.258 1.56 10.258-2.275v-17.68c0-2.148 1.939-1.637 3.235-1.637 2.2 0 3.441-.779 3.711-2.97.244-1.972 1.283-5.144-1.763-5.144h-3.216c-2.459 0-2.592-5.908-.874-5.908 1.54 0 3.808.351 5.207-.58 1.899-1.264 1.411-5.014.907-6.88-.59-2.181-7.256-1.13-8.908-1.077C11.24.422 7.42 2.294 5.965 5.82a7.651 7.651 0 0 0-.469 1.64c-.002.018-.01.028-.01.038-.137 1.802.677 7.087-1.724 7.247C1.778 14.877.6 15.998.6 17.99c0 2.201-.334 4.868 2.674 4.868zM7.58 5.505c.714-1.668 1.955-2.724 3.468-3.394.844-.374 1.047-.017.397.636-1.055 1.057-2.11 2.113-3.164 3.171-.652.654-1.063.435-.7-.413zM2.982 16.192c.37-.379.743-.718.831-.758.089-.038-.226.332-.704.824-.478.493-.854.83-.835.754.018-.076.337-.442.708-.82zm-.77 1.366c0-.066.004-.128.008-.19.009-.104.43-.601.93-1.111.501-.51 1.416-1.1 2.034-1.349.617-.246.958-.396.79-.24-.168.155-.415.326-.515.43-.1.102.166-.013.635-.138a4.56 4.56 0 0 1 .866-.138 1.39 1.39 0 0 0 .22-.032c.119-.027.388-.24.606-.455.218-.215.62-.837.744-1.437.122-.6-.245-.7-.724-.21s-.727.569-.65.146c.077-.421.419-1.11.823-1.525.405-.416.733-.77.733-.79 0-.021-.327.3-.731.717-.403.416-.73.724-.727.687.003-.036.327-.391.728-.789.4-.397.727-1.021.72-1.4-.008-.378-.313-.412-.68-.074l-.66.609-.058.056c-.03.03-.085-.517-.133-1.221-.048-.705.418-1.772 1.026-2.385.61-.611 1.404-1.8 1.96-2.536a8.468 8.468 0 0 1 1.714-1.69c.74-.55 1.48-.933 1.555-1.007.074-.073.87-.278 1.787-.373 1.535-.16 3.112-.17 4.573-.17 3.816 0 4.11 7.204.521 7.204-1.356 0-3.335-.188-4.355.98-1.358 1.553-1.095 4.57.307 5.97 2.242 2.24 6.777-2.311 6.026 3.768-.197 1.597.01 3.304-2.137 3.304-.713 0-1.542-.117-2.245.073-4.356 1.177-2.745 7.497-2.745 11.027V41.5c0 3.358-2.825 2.556-5.398 2.556a4.18 4.18 0 0 1-.79-.07c-.43-.082-.647-.356-.521-.483.124-.128.11-.14-.028-.02-.137.122-.463.11-.678-.096-.215-.207-.178-.572.013-.754l.346-.332.195-.202c.108-.11.182-.662.205-1.232.023-.57-.298-.675-.732-.238-.434.437-.826.23-.811-.463.008-.43.026-.856.026-1.254v-.122c0-.069.354-.502.792-.969.438-.467.794-1.374.794-2.024 0-.65-.354-.83-.792-.4-.439.427-.794.025-.794-.897v-.215c0-.922.354-2.024.792-2.463.438-.44.794-.985.794-1.217v-.421c0-.023 0-.05.002-.076.002-.043-.354.251-.793.657-.44.404-.795.16-.795-.546v-1.28c0-.54.018-1.087.03-1.634.022-.904.307-1.914.678-2.257.37-.343.594-.86.445-1.127-.15-.268-.527-.26-.777-.028-.249.231-.48.189-.534-.093a6.597 6.597 0 0 0-.116-.506.783.783 0 0 0-.049-.129c-.032-.068-.046-.14-.02-.163.023-.021.01-.045-.033-.05-.041-.005-.45-.444-1.096-.626a4.589 4.589 0 0 0-1.201-.157c-.013 0-.024 0-.036-.002-.02-.002-.009-.03.023-.064.033-.033-.046-.202-.14-.395-.094-.194-.29-.218-.467-.04-.178.177-.907.07-1.208-.573-.3-.644.066-1.599.509-2.036.443-.437.804-.837.804-.892l.001-.1c0-.3.03-.58.085-.837.097-.454-.168-.336-.714.228-.546.564-.98.816-.969.56.008-.167.013-.322.013-.46z" fill="#EC1165"/></svg>