<svg width="269" height="102" fill="none" xmlns="http://www.w3.org/2000/svg"><path fill-rule="evenodd" clip-rule="evenodd" d="M221.952.86c3.932 3.316 7.371 5.699 10.125 8.688 2.404 2.558.829 5.84-3.079 7.79-3.908 1.95-7.395 1.238-8.621-1.764-1.876-4.578-.986-8.98 1.575-14.715z" fill="#74BF43"/><path fill-rule="evenodd" clip-rule="evenodd" d="M239.706 4.624c.45 4.826 1.184 8.75 1.043 12.501-.129 3.3-3.399 4.55-7.455 3.388-4.056-1.163-5.961-3.913-4.751-6.788 1.854-4.338 5.498-6.8 11.163-9.1z" fill="#74BF43"/><path fill-rule="evenodd" clip-rule="evenodd" d="M249.575 16.604a66.22 66.22 0 0 0-9.021-.686c-2.328.145-2.899 2.767-1.679 6.014 1.22 3.247 3.358 4.715 5.305 3.716 2.921-1.54 4.32-4.474 5.395-9.044z" fill="#74BF43"/><path fill-rule="evenodd" clip-rule="evenodd" d="M249.569 35.622a7.928 7.928 0 0 0-.555-3.039A7.842 7.842 0 0 0 247.342 30a7.705 7.705 0 0 0-2.528-1.724 7.61 7.61 0 0 0-2.988-.596 8.197 8.197 0 0 0-3.332.698 9.29 9.29 0 0 0-3.179-5.371 9.052 9.052 0 0 0-5.821-2.09c-1.531.1-3.02.55-4.354 1.317a10.217 10.217 0 0 0-3.354 3.111v-.397a8.877 8.877 0 0 0-.611-3.506 8.771 8.771 0 0 0-1.933-2.97 8.636 8.636 0 0 0-2.938-1.947 8.534 8.534 0 0 0-3.459-.601c-5.098 0-9.272 3.85-9.118 8.928a9.608 9.608 0 0 0 .754 3.716 9.491 9.491 0 0 0 2.127 3.119 10.053 10.053 0 0 0-3.491 3.58 10.237 10.237 0 0 0-1.359 4.843 9.795 9.795 0 0 0 2.575 6.57 9.517 9.517 0 0 0 6.283 3.056 10.66 10.66 0 0 0-.558 10.746 10.472 10.472 0 0 0 3.756 4.076 10.262 10.262 0 0 0 5.28 1.555 10.588 10.588 0 0 0 7.476-2.975 10.9 10.9 0 0 0 3.315-7.421 8.384 8.384 0 0 0 5.929 2.539 8.542 8.542 0 0 0 5.86-2.629 8.792 8.792 0 0 0 2.441-6.01 8.965 8.965 0 0 0-2.04-5.945 7.54 7.54 0 0 0 2.948-.66 7.64 7.64 0 0 0 2.467-1.767 7.763 7.763 0 0 0 1.598-2.599 7.848 7.848 0 0 0 .481-3.024z" fill="#EC1165"/><path d="M.425 56.027l3.965-27.56h.46l11.34 22.617 11.232-22.617h.447l4.014 27.56h-2.708l-2.757-19.655-9.865 19.703h-.713L5.853 36.17 3.181 56.027H.425zm48.868-27.56l12.79 27.608h-2.96l-4.315-9.079H42.992l-4.267 9.08h-3.067l12.969-27.609h.666zm-.357 5.874l-4.695 9.988h9.45l-4.755-9.988zm40.831 21.734H86.83l-8.937-21.328-9.065 21.328h-2.97l11.696-27.608h.632l11.58 27.608zm27.683 0h-2.83v-21.16l-17.949 21.16h-.613V28.467h2.724V50l18.055-21.532h.613v27.608zM125 28.467h2.693v11.58h13.581v-11.58h2.601v27.608h-2.658V42.75h-13.524v13.325h-2.67L125 28.467zm26.425.048h2.845v10.293l11.175-10.34h3.753l-13.427 12.418 14.529 15.19h-3.778L154.27 43.238v12.836h-2.845v-27.56zm45.3 27.56h-2.832v-21.16l-17.958 21.16h-.602V28.467h2.714V50l18.065-21.532h.613v27.608z" fill="#EC1165"/><path d="M.425 68.624h6.298l8.07 23.141 8.275-23.141h6.298l-11.614 32.627h-5.916L.425 68.624zm36.486-1.231c.502.004.998.112 1.457.32.459.206.87.507 1.21.882a3.858 3.858 0 0 1 1.114 2.776 3.81 3.81 0 0 1-.275 1.485 3.78 3.78 0 0 1-.828 1.256 3.554 3.554 0 0 1-1.204.847 3.51 3.51 0 0 1-1.438.283 3.605 3.605 0 0 1-1.47-.314 3.652 3.652 0 0 1-1.22-.888 3.852 3.852 0 0 1-.846-1.302 3.896 3.896 0 0 1-.268-1.535c0-1.014.397-1.988 1.103-2.707a3.753 3.753 0 0 1 2.665-1.127v.024zm-2.962 9.82h5.924v24.038H33.95V77.213zm9.26-8.589h17.616v6.042h-5.817v26.585h-6.173v-26.5h-5.627v-6.127zm32.733 0h6.294L94.8 101.251h-6.464l-2.546-6.706H72.45l-2.644 6.706h-6.464l12.6-32.627zm3.19 8.628l-4.378 11.19h8.731l-4.353-11.19z" fill="#74BF43"/><path d="M121.151 101.251l-8.682-23.926-8.821 23.926h-6.331l12.103-32.627h6.063l12.034 32.627h-6.366zm35.307-32.627v32.627h-6.239V80.817l-12.186 20.374h-5.483V68.624h6.251v21.063l12.393-21.063h5.264zm7.55 0h6.415v12.302h11.103V68.624h6.391v32.627h-6.391V86.919h-11.103v14.332h-6.415V68.624zm31.459 0h6.331v11.238l8.935-11.238h7.53l-11.49 14.501 12.602 18.126h-7.431l-10.146-14.5v14.5h-6.331V68.624zm52.85 0v32.627h-6.24V80.817l-12.246 20.434h-5.423V68.624h6.239v21.063l12.405-21.063h5.265z" fill="#EC1165"/><path d="M269 59c0 5.523-4.477 10-10 10s-10-4.477-10-10 4.477-10 10-10 10 4.477 10 10z" fill="#fff"/><path d="M267.975 59a8.974 8.974 0 1 1-17.949 0 8.974 8.974 0 0 1 17.949 0z" fill="#fff"/><path fill-rule="evenodd" clip-rule="evenodd" d="M259 66.692a7.693 7.693 0 1 0 .001-15.385A7.693 7.693 0 0 0 259 66.692zm0 1.282a8.974 8.974 0 1 0 .001-17.949 8.974 8.974 0 0 0-.001 17.95z" fill="#74BF43"/><path d="M259.304 60.126h-2.489v4.771h-1.405V53.103h3.508c1.193 0 2.11.302 2.751.907.645.605.968 1.485.968 2.64 0 .735-.18 1.375-.539 1.92-.354.546-1.303 1.183-1.303 1.183s.326.125.996.878c.67.753 1.311 4.266 1.311 4.266h-1.499s-.424-3.01-1.045-3.764c-.621-.753-1.254-1.007-1.254-1.007zm-2.489-1.272h2.147c.693 0 1.244-.2 1.652-.6.412-.399.618-.933.618-1.603 0-.73-.196-1.288-.589-1.677-.388-.389-.951-.586-1.689-.591h-2.139v4.471z" fill="#74BF43"/></svg>