<svg width="39" height="45" fill="none" xmlns="http://www.w3.org/2000/svg"><path fill-rule="evenodd" clip-rule="evenodd" d="M8.3 2.5c3.007 1.046 5.521 1.661 7.776 2.78 1.956.946 1.778 3.194-.043 5.19-1.82 1.995-3.991 2.357-5.367.893C8.566 9.13 8.1 6.386 8.3 2.5z" fill="#74BF43"/><path fill-rule="evenodd" clip-rule="evenodd" d="M19.382.738c1.333 2.692 2.63 4.8 3.383 7 .66 1.939-.948 3.388-3.547 3.615-2.599.228-4.31-.94-4.252-2.873.105-2.92 1.659-5.154 4.416-7.742z" fill="#74BF43"/><path fill-rule="evenodd" clip-rule="evenodd" d="M27.741 5.479a40.82 40.82 0 0 0-5.357 1.605c-1.311.6-1.057 2.244.37 3.852 1.426 1.608 2.986 1.982 3.888.973 1.343-1.54 1.497-3.548 1.1-6.43z" fill="#74BF43"/><path fill-rule="evenodd" clip-rule="evenodd" d="M31.97 16.483a4.924 4.924 0 0 0-.996-1.635 4.856 4.856 0 0 0-1.54-1.123 4.761 4.761 0 0 0-1.842-.437 4.694 4.694 0 0 0-1.857.319 5.055 5.055 0 0 0-1.767 1.143 5.762 5.762 0 0 0-3.03-2.402 5.584 5.584 0 0 0-3.823.083 6.21 6.21 0 0 0-2.219 1.728c-.6.74-1.024 1.61-1.243 2.544l-.088-.23a5.524 5.524 0 0 0-1.133-1.892 5.447 5.447 0 0 0-1.776-1.29 5.336 5.336 0 0 0-2.129-.474 5.26 5.26 0 0 0-2.129.42c-2.942 1.131-4.493 4.286-3.274 7.19a5.974 5.974 0 0 0 1.262 1.981c.547.57 1.2 1.023 1.921 1.333a6.222 6.222 0 0 0-1.217 2.846 6.356 6.356 0 0 0 .294 3.104 6.077 6.077 0 0 0 2.948 3.23 5.875 5.875 0 0 0 4.305.373 6.622 6.622 0 0 0 2.07 6.34 6.484 6.484 0 0 0 3.073 1.525c1.138.22 2.31.127 3.393-.272a6.536 6.536 0 0 0 3.651-3.38 6.77 6.77 0 0 0 .261-5.03 5.175 5.175 0 0 0 3.986.154 5.273 5.273 0 0 0 2.796-2.822 5.457 5.457 0 0 0 .07-4.02 5.566 5.566 0 0 0-2.499-2.986 4.652 4.652 0 0 0 1.555-1.035 4.721 4.721 0 0 0 1.03-1.57 4.83 4.83 0 0 0 .343-1.859 4.88 4.88 0 0 0-.395-1.856z" fill="#EC1165"/></svg>