<svg width="32" height="32" fill="none" xmlns="http://www.w3.org/2000/svg"><g clip-path="url(#clip0)"><path d="M28.61 23.224c-.915-1.018-3.106-3.602-4.908-4a.357.357 0 0 0-.125-.102l.001-.001c-.147-.067-.296-.127-.444-.19 3.635-4.67 1.004-12.236-2.842-15.874C15.408-1.563 7.927-.534 3.541 4.11c-4.144 4.387-4.936 12.395-.844 17.088 3.254 3.733 11.521 6.19 15.373 1.9 2.784 2.88 11.363 12.986 13.75 6.942.91-2.305-1.854-5.31-3.21-6.817zm-1.592-.157a44.396 44.396 0 0 1-.53-.361c-2.46-1.708-5.163-3.09-7.508-4.958.211-.328.395-.669.563-1.016.381.33.778.644 1.18.95.44.333.883.73 1.348 1.07-.003.017-.01.034-.012.05-.113.092-.114.291-.021.407l-.004.002c.003.004.009.006.013.01a.219.219 0 0 0 .04.036c.03.167.156.297.323.368-.008-.002-.006-.001.006.003l.006.004.01.003c.013.007.029.014.048.026a.846.846 0 0 1 .1.077c.05.199.214.38.45.406 1.415.15 2.97 1.88 3.988 2.923zm-9.506-5.254a.249.249 0 0 0-.186.112c-.11.178-.223.343-.338.502-.059.062-.11.13-.171.19a.595.595 0 0 0-.117.168c-1.83 2.156-4.347 2.121-7.027.681-3.512-1.886-5.188-5.855-3.42-9.519 1.673-3.468 5.31-4.607 8.625-3.35l1.048.6c.525.303 1.024.64 1.515.992 2.62 2.563 2.314 6.726.07 9.624zm2.415-2.02c.453.284.896.579 1.33.89.482.348.928.805 1.432 1.13-.118.182-.246.36-.384.532-.333-.21-.68-.403-.997-.618-.571-.385-1.12-.799-1.674-1.206.108-.239.204-.482.293-.727zm3.051 1.52c-.378-.356-.862-.636-1.278-.922a21.095 21.095 0 0 0-1.637-1.008 8.6 8.6 0 0 0 .331-1.502c.447.548 2.282 1.618 3.13 2.084a7.07 7.07 0 0 1-.546 1.349zm.712-2.047c-.481-.286-1.003-.529-1.48-.793-.387-.214-.773-.43-1.163-.64-.116-.063-.246-.165-.374-.2-.067-.02-.102-.006-.127.015a.094.094 0 0 0-.042-.048.325.325 0 0 0-.065-.028h-.008c.032-.375.048-.75.03-1.123 1.001.917 2.175 1.676 3.298 2.421a8.6 8.6 0 0 1-.069.396zm.145-1.102c-1.104-.786-2.359-1.332-3.409-2.205a7.706 7.706 0 0 0-.367-1.68c1.242 1.068 2.471 2.156 3.8 3.107.002.261-.007.521-.024.778zM19.553 3.796c.824.69 1.582 1.614 2.228 2.672-1.23-1.034-2.628-1.95-3.895-2.874-1.114-.814-2.364-1.752-3.71-2.273a11.248 11.248 0 0 1 5.377 2.475zm-6.797-2.61a.135.135 0 0 0 .07.056c3.86 1.283 6.18 5.03 9.733 6.735.01.004.018.004.027.007.201.442.388.894.547 1.359-3.84-3.047-8.18-5.387-12.273-8.073a10.877 10.877 0 0 1 1.896-.084zm-2.323.15c4.284 3.137 8.764 5.998 13.038 9.152.16.638.275 1.283.336 1.925-1.424-1.049-2.826-2.141-4.234-3.23a7.399 7.399 0 0 0-2.104-2.44 8.89 8.89 0 0 0-3.32-1.565c-1.81-1.23-3.682-2.358-5.671-3.296a10.58 10.58 0 0 1 1.955-.546zm-2.25.672c1.172 1.112 2.541 2.082 3.964 2.97a7.676 7.676 0 0 0-1.57.199c-.507-.395-1.124-.683-1.663-1.025-.708-.448-1.38-.95-2.01-1.502a10.34 10.34 0 0 1 1.28-.642zm-1.556.809c.575.57 1.201 1.077 1.851 1.56.44.326.916.709 1.42.995a7.73 7.73 0 0 0-1.202.519c-.39-.311-.807-.596-1.19-.91-.605-.497-1.2-1.005-1.8-1.507.296-.24.606-.455.921-.657zm-1.235.91c.591.531 1.177 1.068 1.774 1.593.319.28.647.607 1.004.88-.18.117-.358.24-.531.373-.16-.123-.342-.22-.518-.334-.371-.243-.73-.505-1.086-.77-.46-.343-.913-.702-1.37-1.05.234-.245.478-.474.727-.692zM4.27 4.839c.047-.055.1-.101.148-.155.392.434.86.803 1.32 1.17.405.323.918.835 1.445 1.103-.249.22-.49.452-.72.707a.195.195 0 0 0-.105-.131c-.99-.525-1.922-1.086-2.79-1.771.222-.32.453-.63.702-.923zm-.862 1.149c.815.763 1.727 1.434 2.727 1.925.03.015.06.022.09.024a8.153 8.153 0 0 0-.893 1.29c-.312-.213-.642-.403-.948-.62-.591-.42-1.151-.885-1.712-1.345-.004-.003-.008-.003-.013-.006.23-.437.48-.861.75-1.268zm-.935 1.617c.792.68 1.677 1.557 2.639 2.041-.163.334-.3.67-.408 1.007A113.578 113.578 0 0 0 1.98 8.721c.147-.38.313-.752.492-1.116zm-.626 1.488c.88.709 1.75 1.486 2.717 2.054-.088.356-.15.712-.183 1.067-.296-.508-.93-.877-1.396-1.197a9.215 9.215 0 0 0-1.49-.814c.101-.375.222-.744.352-1.11zm-.42 1.355c.42.218.829.452 1.223.717.586.394 1 1 1.581 1.373.048.03.09.025.129.008a7.268 7.268 0 0 0 .085 1.51c-.45-.36-.948-.69-1.371-1.042-.625-.519-1.24-1.048-1.858-1.574.057-.333.13-.663.211-.992zm-.274 1.414c.535.489 1.07.98 1.608 1.464.561.505 1.187 1.211 1.877 1.582.41 1.438 1.227 2.779 2.335 3.901C5 17.034 3.053 15.23 1.014 13.523c.005-.554.06-1.109.138-1.661zm1.92 8.18a9.719 9.719 0 0 1-1.541-2.96c1.087 1.242 2.679 2.366 3.686 3.246a96.142 96.142 0 0 0 3.771 3.133c.189.149.39.327.6.51-2.628-.622-5.095-2.083-6.516-3.93zm7.866 4.173c-.568-.513-1.302-.945-1.856-1.402a174.506 174.506 0 0 1-3.795-3.217c-1.146-1.001-2.29-2.006-3.38-3.068-.103-.1-.396-.348-.677-.612a11.458 11.458 0 0 1-.212-1.947c3.847 3.502 7.403 7.381 11.717 10.319-.593.026-1.195 0-1.797-.073zm2.61 0c-1.976-1.402-3.818-2.957-5.622-4.558.368.293.751.57 1.159.817.619.373 1.36.678 2.145.88 1.08 1.05 2.451 1.797 3.742 2.55a8.5 8.5 0 0 1-1.424.312zm1.8-.438a.24.24 0 0 0-.1-.293c-1.187-.759-2.515-1.218-3.65-2.047a8.307 8.307 0 0 0 1.948.186c.534.328 1.074.646 1.611.968.373.223.757.53 1.162.744a7.24 7.24 0 0 1-.97.442zm1.456-.733c-.348-.304-.804-.493-1.212-.702-.496-.255-.996-.503-1.495-.755.462-.05.903-.155 1.314-.31.64.474 1.295.925 1.969 1.348-.186.15-.378.29-.576.42zm10.654 7.258c-1.41-.728-2.597-1.91-3.74-2.99-1.693-1.6-3.274-3.638-5.338-4.803-.045-.23-.282-.396-.514-.278-.015-.007-.029-.017-.043-.024a.24.24 0 0 0-.089-.02 47.724 47.724 0 0 1-1.895-1.099c.261-.133.498-.3.719-.486 4.547 2.995 8.026 7.337 12.695 10.166a4.586 4.586 0 0 1-1.795-.466zm2.68.343c-4.901-2.837-8.384-7.516-13.349-10.255a3.25 3.25 0 0 0 .593-.824.576.576 0 0 0 .242-.142c.024-.023.045-.049.068-.072 4.29 3.582 8.58 7.367 13.138 10.602-.126.35-.375.57-.691.69zM17.892 19.143c.327-.342.62-.708.888-1.09 3.649 3.204 7.937 5.368 11.32 8.908a.25.25 0 0 0 .16.079c.385.735.641 1.503.66 2.282-4.003-3.706-8.525-7.114-13.028-10.179z" fill="#fff"/></g><defs><clipPath id="clip0"><path fill="#fff" d="M0 0h32v32H0z"/></clipPath></defs></svg>