<svg xmlns="http://www.w3.org/2000/svg" viewBox="0 0 881.59998 881.59998" height="881.6" width="881.6"><circle r="440.8" cy="561.1" cx="930.8" fill="#c4e0e1" transform="translate(-490 -120.3)"/><path d="M255.9 596.1l276 276C702.3 836.3 836.4 702 872.1 531.5L596.3 255.7z" fill="#b5cecf"/><circle r="240.4" cy="561.1" cx="930.8" fill="#d5534e" transform="translate(-490 -120.3)"/><circle r="200.3" cy="561.1" cx="930.8" fill="#fff" transform="translate(-490 -120.3)"/><path d="M440.8 237.8c-112.1 0-203 90.9-203 203s90.9 203 203 203 203-90.9 203-203-90.9-203-203-203zm8 392.5v-43.8h-16v43.8c-98.4-4.1-177.4-83.1-181.5-181.5H295v-16h-43.8c4.1-98.4 83.1-177.4 181.5-181.5v43.8h16v-43.8c98.4 4.1 177.4 83.1 181.5 181.5h-43.8v16h43.8c-4 98.4-83 177.4-181.4 181.5z" fill="#453c35"/><path d="M548.8 431.4H456c-3.2-5.1-8.8-8.5-15.2-8.5-1.9 0-3.8.3-5.6.9l-86.1-97.9c-2.6-2.9-7-3.2-10-.6-2.9 2.6-3.2 7-.6 10l86.1 97.9c-1.1 2.3-1.7 4.9-1.7 7.7 0 9.9 8 17.9 17.9 17.9 6.4 0 12.1-3.4 15.2-8.5h92.8c5.2 0 9.4-4.2 9.4-9.4 0-5.3-4.2-9.5-9.4-9.5z" fill="#453c35"/></svg>