<svg xmlns="http://www.w3.org/2000/svg" viewBox="0 0 122 115.90071" height="115.901" width="122"><path d="M82.553 95.716c-10.57-11.101-19.414-21.451-19.652-23-.238-1.548-5.618-8.057-11.955-14.464l-11.522-11.65-4.228 4.099c-2.657 2.574-4.562 3.56-5.124 2.649-1.53-2.475-3.753-1.59-3.023 1.202.767 2.933-3.008 8.52-7.315 10.824-2.388 1.278-3.78.415-11.23-6.97C3.827 53.771 0 49.023 0 47.856c0-3.566 7.445-9.745 10.71-8.89 2.43.635 2.752.297 2.12-2.223-.61-2.433 1.879-5.588 13.735-17.408 7.965-7.94 15.042-14.09 15.727-13.666.685.423 4.151-.701 7.703-2.5 7.293-3.691 13.599-4.18 17.417-1.35 2.478 1.838 2.277 2.236-4.704 9.338l-7.292 7.419 2.95 2.95 2.948 2.948-4.897 5.016-4.898 5.016L63.426 46.49c7.81 7.862 12.642 11.763 14.042 11.338 1.388-.422 7.215 4.142 16.655 13.045 7.987 7.531 17.526 16.516 21.2 19.966L122 97.113l-9.298 9.394c-5.113 5.166-9.664 9.394-10.113 9.394-.449 0-9.465-9.083-20.036-20.185zM60.081 50c-11.433-11.433-12.16-11.925-14.357-9.728-2.198 2.198-1.713 2.92 9.583 14.269 11.305 11.358 12.02 11.842 14.357 9.727 2.355-2.131 1.949-2.737-9.583-14.268z" fill="#060606"/></svg>