<svg xmlns="http://www.w3.org/2000/svg" viewBox="0 0 75.112685 116.65542" height="116.655" width="75.113"><path d="M22.532 111.222l-8.66-5.803-.38-12.13c-.293-9.327.066-12.503 1.553-13.737 2.8-2.322.737-8.276-5.804-16.754C2.081 53.517-.568 45.456.1 34.974.983 21.098 8.144 10.144 20.54 3.71c8.909-4.625 23.643-4.973 32.785-.773C67.423 9.41 75.201 21.96 75.112 38.086c-.06 11.014-.986 13.401-10.685 27.569-6.413 9.367-6.933 11.237-3.84 13.803 1.623 1.347 1.968 4.213 1.666 13.83l-.38 12.131-7.918 5.267c-6.286 4.18-9.448 5.377-15.34 5.803-6.947.502-7.98.164-16.083-5.267zM51.515 72.42c.84-3.117 4.286-9.365 7.656-13.886C69.587 44.56 70.246 32.11 61.228 19.66c-10.08-13.914-29.89-15.816-43.152-4.143-7.316 6.44-10.479 13.925-10.06 23.808.328 7.735 1.223 9.72 9.356 20.76 2.701 3.666 5.664 9.216 6.584 12.333l1.672 5.667h24.359zm-14.76-8.25c-.485-1.266-.883-4.303-.883-6.75 0-5.583-1.15-8.667-3.232-8.667-1.296 0-6.188-16.255-6.118-20.333.01-.55 4.817-1 10.684-1 11.777 0 11.757-.02 8.628 8.667-1.057 2.933-1.93 5.441-1.941 5.574-.012.132 1.07.432 2.404.666 2.165.381 1.832 1.693-3.117 12.286-4 8.559-5.787 11.219-6.424 9.557z" fill="#070707"/></svg>