<svg width="32" height="32" fill="none" xmlns="http://www.w3.org/2000/svg"><rect width="32" height="32" rx="16" fill="#EB5255"/><path d="M15.916 7.622c1.473 0 2.949.418 4.267 1.21a9.24 9.24 0 0 1 2.226 1.873l-2.202-.072a.468.468 0 1 0-.031.937l3.048.1a.469.469 0 0 0 .611-.612l-.1-3.047a.47.47 0 0 0-.938.02v.01l.059 1.759a10.226 10.226 0 0 0-2.19-1.773c-1.465-.878-3.107-1.343-4.75-1.343-2.625 0-5.046 1.083-6.814 3.048C7.535 11.472 6.6 13.816 6.6 16a.469.469 0 1 0 .937 0c0-1.959.845-4.067 2.262-5.64 1.588-1.766 3.76-2.738 6.117-2.738zm8.965 7.91a.469.469 0 0 0-.468.468c0 1.96-.846 4.068-2.262 5.642-1.589 1.765-3.76 2.737-6.117 2.737a8.303 8.303 0 0 1-4.267-1.21 9.246 9.246 0 0 1-2.227-1.873l2.203.072a.469.469 0 0 0 .03-.937l-3.047-.1a.47.47 0 0 0-.611.612l.1 3.047a.469.469 0 0 0 .938-.02v-.01l-.06-1.76c.645.69 1.382 1.286 2.19 1.773 1.464.878 3.107 1.343 4.75 1.343 2.625 0 5.045-1.082 6.814-3.048 1.567-1.74 2.502-4.084 2.502-6.268a.469.469 0 0 0-.469-.47z" fill="#fff"/></svg>