<svg width="40" height="40" fill="none" xmlns="http://www.w3.org/2000/svg"><g filter="url(#filter0_d)" fill="#EB5255"><path d="M20 0C11.178 0 4 7.177 4 16s7.178 16 16 16 16-7.177 16-16S28.822 0 20 0zm0 30.77c-8.143 0-14.77-6.627-14.77-14.77S11.858 1.23 20 1.23 34.77 7.858 34.77 16 28.142 30.77 20 30.77z"/><path d="M25.973 10.026a.615.615 0 0 0-.87 0L20 15.13l-5.104-5.104a.615.615 0 1 0-.87.87L19.13 16l-5.104 5.103a.615.615 0 1 0 .87.87L20 16.87l5.103 5.104a.614.614 0 0 0 .87 0 .616.616 0 0 0 0-.87L20.87 16l5.103-5.103a.616.616 0 0 0 0-.87z"/></g><defs><filter id="filter0_d" x="0" y="0" width="40" height="40" filterUnits="userSpaceOnUse" color-interpolation-filters="sRGB"><feFlood flood-opacity="0" result="BackgroundImageFix"/><feColorMatrix in="SourceAlpha" values="0 0 0 0 0 0 0 0 0 0 0 0 0 0 0 0 0 0 127 0"/><feOffset dy="4"/><feGaussianBlur stdDeviation="2"/><feColorMatrix values="0 0 0 0 0 0 0 0 0 0 0 0 0 0 0 0 0 0 0.25 0"/><feBlend in2="BackgroundImageFix" result="effect1_dropShadow"/><feBlend in="SourceGraphic" in2="effect1_dropShadow" result="shape"/></filter></defs></svg>