<svg width="56" height="56" fill="none" xmlns="http://www.w3.org/2000/svg"><path d="M56 28c0-1.32-.458-2.61-1.29-3.632l-2.348-2.893.586-3.685a5.766 5.766 0 0 0-3.634-6.291l-3.487-1.336-1.329-3.474a5.762 5.762 0 0 0-2.503-2.94 5.81 5.81 0 0 0-3.788-.698l-3.685.587-2.892-2.346a5.75 5.75 0 0 0-7.262-.003l-2.893 2.349-3.685-.586a5.766 5.766 0 0 0-6.291 3.634l-1.336 3.487-3.474 1.329a5.762 5.762 0 0 0-2.94 2.503 5.81 5.81 0 0 0-.698 3.789l.587 3.684-2.346 2.892a5.75 5.75 0 0 0-.003 7.262l2.349 2.893-.586 3.685a5.766 5.766 0 0 0 3.634 6.291l3.487 1.336 1.329 3.474a5.762 5.762 0 0 0 2.503 2.94 5.81 5.81 0 0 0 3.789.699l3.684-.588 2.892 2.346a5.75 5.75 0 0 0 7.262.003l2.893-2.349 3.685.586a5.766 5.766 0 0 0 6.291-3.634l1.336-3.487 3.474-1.329a5.762 5.762 0 0 0 2.94-2.503 5.81 5.81 0 0 0 .699-3.788l-.588-3.685 2.346-2.892A5.75 5.75 0 0 0 56 28z" fill="#fff"/><path d="M52 28a4.95 4.95 0 0 0-1.105-3.113l-2.013-2.48.502-3.159a4.942 4.942 0 0 0-3.115-5.392l-2.989-1.145-1.139-2.978a4.939 4.939 0 0 0-2.145-2.52 4.98 4.98 0 0 0-3.248-.598l-3.157.503-2.48-2.01a4.929 4.929 0 0 0-6.224-.003l-2.48 2.013-3.159-.502a4.943 4.943 0 0 0-5.392 3.115l-1.145 2.989-2.978 1.139a4.939 4.939 0 0 0-2.52 2.145 4.98 4.98 0 0 0-.598 3.248l.503 3.157-2.01 2.48a4.929 4.929 0 0 0-.003 6.224l2.013 2.48-.502 3.159a4.943 4.943 0 0 0 3.115 5.392l2.989 1.145 1.139 2.978a4.939 4.939 0 0 0 2.145 2.52 4.98 4.98 0 0 0 3.248.598l3.157-.503 2.48 2.01a4.928 4.928 0 0 0 6.224.003l2.48-2.013 3.159.502a4.942 4.942 0 0 0 5.392-3.115l1.145-2.989 2.978-1.139a4.939 4.939 0 0 0 2.52-2.145 4.98 4.98 0 0 0 .598-3.248l-.503-3.157 2.01-2.48A4.928 4.928 0 0 0 52 28z" fill="#EB5255"/><g clip-path="url(#clip0)" fill="#fff"><path d="M33.673 16.78a1.367 1.367 0 0 0-1.838.6l-10.17 20a1.367 1.367 0 1 0 2.438 1.24l10.17-20.002a1.367 1.367 0 0 0-.6-1.839zm-7.301 6.587a5.192 5.192 0 0 0-5.186-5.186A5.192 5.192 0 0 0 16 23.367a5.192 5.192 0 0 0 5.186 5.186 5.192 5.192 0 0 0 5.186-5.186zm-5.186 2.451a2.454 2.454 0 0 1-2.451-2.45c0-1.352 1.1-2.452 2.45-2.452 1.352 0 2.452 1.1 2.452 2.451 0 1.352-1.1 2.451-2.451 2.451zm13.628 1.629a5.192 5.192 0 0 0-5.186 5.186 5.192 5.192 0 0 0 5.186 5.186A5.192 5.192 0 0 0 40 32.633a5.192 5.192 0 0 0-5.186-5.186zm0 7.637a2.454 2.454 0 0 1-2.45-2.451 2.453 2.453 0 0 1 2.45-2.451c1.352 0 2.451 1.1 2.451 2.451s-1.1 2.451-2.45 2.451z"/></g><defs><clipPath id="clip0"><path fill="#fff" transform="translate(16 16)" d="M0 0h24v24H0z"/></clipPath></defs></svg>