<svg width="20" height="20" fill="none" xmlns="http://www.w3.org/2000/svg"><path d="M19.078 19.502L17.584 5.579a.456.456 0 0 0-.448-.398H14.37v-.847A4.337 4.337 0 0 0 10.037 0a4.337 4.337 0 0 0-4.333 4.334v.847h-2.84a.456.456 0 0 0-.448.398L.922 19.502a.446.446 0 0 0 .1.349c.074.1.198.149.323.149h17.31a.4.4 0 0 0 .324-.15.447.447 0 0 0 .1-.348zM13.923 7.696c.224 0 .398.174.398.399a.393.393 0 0 1-.398.398.393.393 0 0 1-.399-.398c0-.225.175-.399.399-.399zM6.6 4.334A3.444 3.444 0 0 1 10.037.897a3.444 3.444 0 0 1 3.437 3.437v.847H6.6v-.847zm-.448 3.362c.224 0 .398.174.398.399a.393.393 0 0 1-.398.398.393.393 0 0 1-.399-.398c0-.225.175-.399.399-.399zM1.868 19.078L3.263 6.052h2.44v.822a1.266 1.266 0 0 0-.846 1.196c0 .697.573 1.27 1.27 1.27.697 0 1.27-.573 1.27-1.27 0-.548-.348-1.021-.847-1.196v-.822h6.875v.822a1.266 1.266 0 0 0-.847 1.196c0 .697.573 1.27 1.27 1.27.697 0 1.27-.573 1.27-1.27 0-.548-.348-1.021-.847-1.196v-.822h2.54l1.396 13.026H1.868z" fill="#fff"/></svg>