<svg width="16" height="12" fill="none" xmlns="http://www.w3.org/2000/svg"><path d="M5.457 5.854c1.326 0 2.407-.814 2.407-1.811 0-.998-1.078-1.812-2.407-1.812-1.33 0-2.407.814-2.407 1.812 0 .997 1.081 1.811 2.407 1.811zm0-2.98c.965 0 1.763.535 1.763 1.169S6.412 5.21 5.457 5.21c-.956 0-1.764-.534-1.764-1.168 0-.634.808-1.171 1.764-1.171v.003z" fill="#69B4D9"/><path d="M15.66 7.39h-4.75V4.04c0-2.201-2.448-3.993-5.47-3.993C2.42.047-.03 1.839-.03 4.04v3.958c0 2.027 2.076 3.7 4.75 3.954h.055c.222.02.447.036.675.036h10.21a.322.322 0 0 0 .322-.322V7.71a.322.322 0 0 0-.322-.322zM5.457.692c2.654 0 4.827 1.503 4.827 3.35 0 1.847-2.16 3.35-4.827 3.35C2.789 7.393.63 5.89.63 4.043c0-1.847 2.175-3.35 4.827-3.35zm4.827 5.226v1.47H8.416a4.852 4.852 0 0 0 1.85-1.47h.017zm5.054 5.425h-.643V9.716a.322.322 0 0 0-.643 0v1.631h-1.288v-.885a.322.322 0 0 0-.643 0v.885h-1.287v-.885a.322.322 0 0 0-.644 0v.885H8.903V9.716a.322.322 0 0 0-.644 0v1.631H7.027v-.885a.322.322 0 0 0-.644 0v.885H5.097v-.885a.322.322 0 0 0-.644 0v.808C2.28 10.948.646 9.603.646 7.994V5.92c.92 1.258 2.732 2.114 4.827 2.114h9.865v3.311z" fill="#69B4D9"/></svg>