<svg width="16" height="20" fill="none" xmlns="http://www.w3.org/2000/svg"><path d="M16 17.103v-6.497c0-1.595-1.199-2.897-2.668-2.897h-1.727c-.292 0-.529.257-.529.574 0 .317.237.574.529.574h1.727c.89 0 1.615.788 1.615 1.754v6.501c0 .966-.726 1.754-1.615 1.754H2.668c-.89 0-1.615-.788-1.615-1.754v-6.506c0-.965.726-1.754 1.615-1.754h1.727c.292 0 .529-.256.529-.574 0-.317-.237-.573-.529-.573H2.668C1.198 7.705 0 9.006 0 10.602v6.5C0 18.699 1.199 20 2.668 20h10.664C14.806 20 16 18.703 16 17.103z" fill="#fff"/><path d="M4.026 4.877a.495.495 0 0 0 .743 0l2.707-2.939V12.66c0 .317.236.574.528.574.292 0 .529-.257.529-.574V1.943l2.706 2.94a.503.503 0 0 0 .748 0 .604.604 0 0 0 0-.808L8.382.161a.51.51 0 0 0-.743 0L4.034 4.075a.589.589 0 0 0-.008.802z" fill="#fff"/></svg>