<svg width="72" height="40" fill="none" xmlns="http://www.w3.org/2000/svg"><g filter="url(#filter0_d)"><path fill="#EB5255" d="M20 2h32v32H20z"/><path d="M68 18a3.3 3.3 0 0 0-.737-2.075l-1.342-1.654.335-2.106a3.296 3.296 0 0 0-2.077-3.594l-1.992-.763-.76-1.986a3.293 3.293 0 0 0-1.43-1.68 3.32 3.32 0 0 0-2.165-.399l-2.105.336-1.652-1.341a3.286 3.286 0 0 0-4.15-.001L48.27 4.079l-2.105-.335a3.295 3.295 0 0 0-3.595 2.077l-.763 1.992-1.986.76c-.703.265-1.3.772-1.68 1.43a3.32 3.32 0 0 0-.399 2.165l.336 2.105-1.341 1.652a3.286 3.286 0 0 0-.001 4.15l1.342 1.654-.335 2.105a3.296 3.296 0 0 0 2.077 3.595l1.992.763.76 1.986c.265.703.772 1.3 1.43 1.68a3.32 3.32 0 0 0 2.165.399l2.105-.336 1.652 1.341a3.286 3.286 0 0 0 4.15.001l1.654-1.342 2.105.335a3.296 3.296 0 0 0 3.595-2.077l.763-1.992 1.986-.76a3.293 3.293 0 0 0 1.68-1.43 3.32 3.32 0 0 0 .399-2.165l-.336-2.105 1.341-1.652A3.29 3.29 0 0 0 67.999 18z" fill="#EB5255"/><path d="M36 18a3.3 3.3 0 0 0-.737-2.075l-1.342-1.654.335-2.106a3.296 3.296 0 0 0-2.077-3.594l-1.992-.763-.76-1.986a3.293 3.293 0 0 0-1.43-1.68 3.32 3.32 0 0 0-2.165-.399l-2.105.336-1.652-1.341a3.286 3.286 0 0 0-4.15-.001L16.27 4.079l-2.106-.335a3.295 3.295 0 0 0-3.594 2.077l-.763 1.992-1.986.76c-.703.265-1.3.772-1.68 1.43a3.32 3.32 0 0 0-.399 2.165l.336 2.105-1.341 1.652a3.286 3.286 0 0 0-.001 4.15l1.342 1.654-.335 2.105a3.295 3.295 0 0 0 2.077 3.595l1.992.763.76 1.986c.265.703.772 1.3 1.43 1.68a3.32 3.32 0 0 0 2.165.399l2.105-.336 1.652 1.341a3.286 3.286 0 0 0 4.15.001l1.654-1.342 2.105.335a3.296 3.296 0 0 0 3.595-2.077l.763-1.992 1.986-.76a3.293 3.293 0 0 0 1.68-1.43 3.32 3.32 0 0 0 .399-2.165l-.336-2.105 1.341-1.652A3.29 3.29 0 0 0 35.999 18z" fill="#EB5255"/><path d="M28.512 24h-2.726l-4.031-7.078V24h-2.742V12.625h2.742l4.023 7.078v-7.078h2.735V24zm9.59-4.82h-4.313v2.71h5.094V24h-7.836V12.625h7.851v2.117H33.79v2.399h4.313v2.039zm11.51.578l1.305-7.133h2.719L51.222 24h-2.844l-1.523-6.484L45.363 24h-2.836l-2.422-11.375h2.726l1.305 7.133 1.562-7.133h2.329l1.585 7.133z" fill="#fff"/></g><defs><filter id="filter0_d" x="0" y="0" width="72" height="40" filterUnits="userSpaceOnUse" color-interpolation-filters="sRGB"><feFlood flood-opacity="0" result="BackgroundImageFix"/><feColorMatrix in="SourceAlpha" values="0 0 0 0 0 0 0 0 0 0 0 0 0 0 0 0 0 0 127 0"/><feOffset dy="2"/><feGaussianBlur stdDeviation="2"/><feColorMatrix values="0 0 0 0 0 0 0 0 0 0 0 0 0 0 0 0 0 0 0.15 0"/><feBlend in2="BackgroundImageFix" result="effect1_dropShadow"/><feBlend in="SourceGraphic" in2="effect1_dropShadow" result="shape"/></filter></defs></svg>