<svg xmlns="http://www.w3.org/2000/svg" height="40.961" width="48.43" id="Слой_1"><path id="path2" d="M45.158 36.804c-2.181 2.771-5.215 4.157-9.103 4.157-3.869 0-6.903-1.39-9.102-4.17-2.2-2.78-3.299-6.731-3.299-11.854V16.05c0-5.122 1.09-9.078 3.271-11.867C29.106 1.394 32.131 0 36.001 0c3.887 0 6.93 1.394 9.13 4.183 2.199 2.789 3.299 6.745 3.299 11.867v8.887c0 5.141-1.091 9.097-3.272 11.867zm-.014-21.3c0-4.084-.78-7.223-2.34-9.42-1.561-2.197-3.829-3.295-6.803-3.295-2.957 0-5.211 1.103-6.762 3.308-1.552 2.206-2.327 5.342-2.327 9.407v9.925c0 4.047.789 7.188 2.368 9.42 1.578 2.234 3.837 3.35 6.775 3.35 2.957 0 5.211-1.112 6.762-3.336 1.551-2.224 2.327-5.368 2.327-9.434zM.712 37.98l7.145-.355V4.047L0 5.168V2.871L11.143.465v37.16l7.145.355v2.406H.712z"/></svg>