<svg xmlns="http://www.w3.org/2000/svg" height="48" width="40" id="Слой_1"><path id="path2" d="M39.199 46.398h-2.398v-3.199h-4v-8.176a6.442 6.442 0 0 0-2.871-5.367L21.441 24l8.489-5.656a6.442 6.442 0 0 0 2.871-5.367V4.801h4V1.602h2.398a.802.802 0 0 0 0-1.602H.801a.801.801 0 0 0 0 1.602h2.398v3.199h4v8.176a6.442 6.442 0 0 0 2.871 5.367L18.559 24l-8.489 5.656a6.442 6.442 0 0 0-2.871 5.367v8.176h-4v3.199H.801a.802.802 0 0 0 0 1.602h38.398a.801.801 0 0 0 0-1.602zM4.801 3.199V1.602h30.398v1.597zm6.156 13.813a4.84 4.84 0 0 1-2.156-4.035V4.801h22.398v8.176a4.84 4.84 0 0 1-2.156 4.035L20 23.039zM8.801 35.023a4.84 4.84 0 0 1 2.156-4.035L20 24.961l9.043 6.027a4.84 4.84 0 0 1 2.156 4.035v8.176H8.801zm-4 9.778h30.398v1.597H4.801zm0 0"/><path id="path4" d="M12.734 14.348A1.637 1.637 0 0 1 12 12.977v-1.778a.802.802 0 0 0-1.602 0v1.778a3.24 3.24 0 0 0 1.45 2.703l3.711 2.472a.79.79 0 0 0 .441.137.807.807 0 0 0 .668-.355.803.803 0 0 0-.223-1.11zm0 0"/><path id="path6" d="M28.152 33.008l-3.711-2.473a.796.796 0 0 0-1.109.223.803.803 0 0 0 .223 1.109l3.711 2.473c.461.305.734.816.734 1.371v1.777a.801.801 0 0 0 1.602 0v-1.777c0-1.09-.543-2.102-1.45-2.703zm0 0"/></svg>