<svg xmlns="http://www.w3.org/2000/svg" height="516.375" width="516.374" id="Capa_1"><path d="M353.812 0C263.925 0 191.25 72.675 191.25 162.562c0 19.125 3.825 38.25 9.562 57.375L0 420.75v95.625h95.625V459H153v-57.375h57.375l86.062-86.062c17.213 5.737 36.338 9.562 57.375 9.562 89.888 0 162.562-72.675 162.562-162.562C516.374 72.676 443.7 0 353.812 0zm47.813 172.125c-32.513 0-57.375-24.862-57.375-57.375 0-32.513 24.862-57.375 57.375-57.375 32.513 0 57.375 24.862 57.375 57.375 0 32.513-24.862 57.375-57.375 57.375z" id="path2"/></svg>