<svg xmlns="http://www.w3.org/2000/svg" height="45.133" width="45.133" id="Слой_1"><path id="path2" d="M45.133 8.871L36.238 0H25.035l-4.414 4.402C9.641 3.484.789 9.66.668 9.75a.801.801 0 0 0-.188 1.117.809.809 0 0 0 1.118.184c.109-.079 7.769-5.422 17.504-5.137L4.801 20.172l.004.004L0 24.969l20.117 20.164 8.031-8.012c1.649.863 3.571 1.289 5.469 1.289 2.801 0 5.547-.91 7.281-2.645 5.891-5.894 3.555-12.359 2.754-14.105l1.477-1.477V8.871zm-9.555-7.27l7.953 7.934v9.984L27.902 35.097c-3.269-2.339-4.261-6.738-2.797-12.5a.797.797 0 0 0-.578-.972.795.795 0 0 0-.972.578c-2.071 8.133.715 12.144 3.199 14.035l-1.832 1.832L7.07 20.179 21.211 6.07c3.359.387 6.906 1.496 10.437 3.734-.031.176-.054.36-.054.543a3.152 3.152 0 0 0 3.148 3.149 3.15 3.15 0 0 0 3.149-3.149 3.152 3.152 0 0 0-3.149-3.148 3.13 3.13 0 0 0-2.41 1.148c-3.27-2.043-6.551-3.183-9.695-3.695l3.058-3.051zm-2.125 9.438a.795.795 0 0 0 1.117-.16.794.794 0 0 0-.16-1.117c-.246-.188-.496-.348-.742-.524a1.539 1.539 0 0 1 1.074-.437 1.55 1.55 0 0 1 1.551 1.546c0 .856-.695 1.551-1.551 1.551a1.55 1.55 0 0 1-1.426-.953c.043.031.09.059.137.094zM2.262 24.972l3.676-3.664 17.855 17.899-3.672 3.664zm37.504 9.661c-2.063 2.062-6.696 3-10.426 1.296l13.101-13.062c.797 1.98 2.086 7.008-2.675 11.766zm0 0"/></svg>