<svg xmlns="http://www.w3.org/2000/svg" height="368" width="304" id="Слой_1"><path id="path2" d="M304 296V8c0-4.414-3.574-8-8-8H8C3.574 0 0 3.586 0 8v288a7.987 7.987 0 0 0 4.754 7.312l144 64A7.892 7.892 0 0 0 152 368a7.892 7.892 0 0 0 3.246-.688l144-64A7.987 7.987 0 0 0 304 296zm-16-5.191l-136 60.437-136-60.437V64h272zM288 48H16V16h272zm0 0"/><path id="path4" d="M152 288c48.52 0 88-39.48 88-88 0-22.328-8.434-42.68-22.184-58.215l20.969-33.547c2.344-3.742 1.199-8.679-2.539-11.023-3.75-2.336-8.687-1.199-11.023 2.547l-19.285 30.855C191.016 118.992 172.328 112 152 112c-48.52 0-88 39.48-88 88s39.48 88 88 88zm0-160c17.215 0 33.031 6.09 45.441 16.207l-45.656 73.039-25.129-37.687c-2.457-3.672-7.418-4.68-11.097-2.215a7.993 7.993 0 0 0-2.215 11.097l32 48A8.012 8.012 0 0 0 152 240h.121a7.991 7.991 0 0 0 6.664-3.762l50.117-80.191C218.328 168.223 224 183.449 224 200c0 39.703-32.297 72-72 72s-72-32.297-72-72c0-39.695 32.297-72 72-72zm0 0"/></svg>