<svg xmlns="http://www.w3.org/2000/svg" height="496" width="496" id="Слой_1"><path id="path2" d="M488 304c4.414 0 8-3.586 8-8V184c0-22.055-17.945-40-40-40H264c-4.414 0-8 3.586-8 8v32c0 4.414 3.586 8 8 8h112v64h-48c-13.23 0-24 10.77-24 24v120H192v-24c0-4.414-3.586-8-8-8H96V176h136c4.414 0 8-3.586 8-8v-48h72a8.008 8.008 0 0 0 7.246-4.609 7.977 7.977 0 0 0-1.101-8.512L282.414 64l35.731-42.879a7.996 7.996 0 0 0 1.101-8.512A8.008 8.008 0 0 0 312 8H168c-4.414 0-8 3.586-8 8v48H96V52.945c4.922-5.633 8-12.906 8-20.945 0-17.648-14.352-32-32-32S40 14.352 40 32c0 8.039 3.078 15.312 8 20.945V368H8c-4.414 0-8 3.586-8 8v112c0 4.414 3.586 8 8 8h480c4.414 0 8-3.586 8-8v-48c0-4.414-3.586-8-8-8h-24V304zM265.855 58.879a8 8 0 0 0 0 10.242L294.922 104H240V72c0-2.398-1.113-4.488-2.785-5.953l.058-.063L189.289 24H294.91zM176 33.633L210.711 64H176zM224 80v80H96v-16h48v-16H96v-16h48V96H96V80zM72 16c8.824 0 16 7.176 16 16s-7.176 16-16 16-16-7.176-16-16 7.176-16 16-16zm-8 46.863c2.574.672 5.223 1.137 8 1.137s5.426-.465 8-1.137V368H64zM480 480H16v-96h160v24c0 4.414 3.586 8 8 8h168v24c0 4.414 3.586 8 8 8h120zm-64-48h-48v-24c0-4.414-3.586-8-8-8h-8v-96h64zm16 0V296c0-4.414-3.586-8-8-8h-80c-4.414 0-8 3.586-8 8v104h-16V280c0-4.406 3.594-8 8-8h56c4.414 0 8-3.586 8-8v-80c0-4.414-3.586-8-8-8H272v-16h184c13.23 0 24 10.77 24 24v104h-16v-80h-16v224zm0 0"/><path id="path4" d="M416 128c22.055 0 40-17.945 40-40V72c0-22.055-17.945-40-40-40s-40 17.945-40 40v16c0 22.055 17.945 40 40 40zm-24-56c0-13.23 10.77-24 24-24s24 10.77 24 24v16c0 13.23-10.77 24-24 24s-24-10.77-24-24zm0 0"/></svg>