<svg xmlns="http://www.w3.org/2000/svg" viewBox="0 0 845.33331 193.33333" height="193.333" width="845.333"><path d="M0 96.667V0h194.667v193.333H0zm112.374 84.777c3.086-1.173 3.171-1.541 2.127-9.176-4.01-29.318-27.415-55.563-59.18-66.36-8.693-2.954-13.817-3.742-27.83-4.28l-17.177-.661.952 7.626c2.187 17.502 10.877 34.873 24.1 48.177 16.942 17.047 37.33 25.695 60.88 25.825 7.103.04 14.36-.478 16.128-1.15zm30.475-11.538c20.177-12.667 34.73-33.912 39.187-57.207 2.408-12.587 2.408-18.354-.003-31.879-3.575-20.06-15.829-40.228-31.759-52.27-8.85-6.692-23.324-14.216-25.16-13.081-1.246.77-1.568 160.967-.326 162.209 1.023 1.023 10.646-3.118 18.06-7.772zM55.507 87.52c30.657-9.997 55.024-37.426 58.986-66.397 1.053-7.699.97-8.06-2.119-9.234-5.702-2.168-25.943-1.394-36.913 1.412-30.454 7.789-54.084 31.914-62.15 63.456C9.01 93.571 7.9 92.417 27.666 91.685c13.586-.504 19.176-1.34 27.84-4.165zm310.07 55.278c-13.005-4.492-21.425-15.747-22.584-30.188-1.962-24.444 15.759-42.424 39.674-40.255 18.073 1.639 30.568 15.225 30.637 33.312l.029 7.666H360v3.154c0 3.935 4.362 9.61 9.385 12.206 7.29 3.77 20.338 2.093 28.233-3.629 1.93-1.399 2.913-1.054 6.333 2.223 2.227 2.133 4.049 4.636 4.049 5.561 0 2.644-8.59 8.523-15.485 10.598-8.465 2.547-18.377 2.309-26.938-.648zM396.236 98c-.237-1.467-2.131-4.4-4.21-6.517-2.898-2.953-5.357-4.002-10.553-4.502-8.112-.779-13.628 1.233-18.167 6.628-6.223 7.395-5.323 7.84 15.027 7.429 17.487-.354 18.314-.494 17.903-3.038zm51.607 45.493c-8.051-2.878-14.35-7.445-18.317-13.28-5.117-7.53-6.86-13.19-6.86-22.295 0-15.306 11.559-30.41 26.43-34.541 11.927-3.313 26.55-.571 35.013 6.563l4.558 3.842-5.251 5.422c-4.66 4.812-5.49 5.205-7.382 3.493-1.172-1.06-4.34-2.852-7.04-3.98-16.895-7.059-33.791 8.135-28.967 26.049 3.895 14.466 20.737 20.13 33.7 11.333l4.661-3.163 5.14 5.308 5.139 5.307-4.558 3.843c-8.74 7.367-25.043 10.109-36.266 6.099zm166.667 0c-17.089-6.107-26.26-19.88-24.859-37.335.833-10.373 4.519-17.654 12.488-24.668 17.69-15.572 46.133-10.926 57.762 9.434 8.508 14.897 6.392 30.957-5.667 43.016-4.577 4.577-9.146 7.68-13.483 9.158-7.738 2.637-19.473 2.813-26.241.395zm23.976-16.469c13.237-9.803 12.785-28.794-.877-36.772-5.722-3.342-15.956-3.377-21.568-.073-9.491 5.588-12.991 18.381-7.793 28.488 5.694 11.072 20.897 15.274 30.238 8.357zm86.839 17.143c-10.702-3.51-17.24-9.93-19.853-19.5-.802-2.934-1.46-15.384-1.465-27.667l-.01-22.333h17.334V97.82c0 21.336.215 23.427 2.738 26.635 5.733 7.288 19.85 7.204 24.747-.146 2.05-3.078 2.507-7.21 2.955-26.642l.529-23h15.697v24.042c0 30.574-1.964 36.077-15.333 42.965-5.8 2.988-21.473 4.417-27.342 2.493zm-461.873-1.64c-7.793-1.855-13.173-5.73-16.836-12.128-3.248-5.673-3.287-6.132-3.691-44.066L242.516 48H302.8l-.4 7.667-.4 7.666-21.722.367-21.722.367.389 10.3.388 10.3 20 .666 20 .667.4 7.667.4 7.666H260v9.26c0 7.861.485 9.823 3.215 13 3.173 3.691 3.458 3.75 21.667 4.407l18.451.667v14.666l-17.333.218c-9.533.12-19.68-.34-22.548-1.023zm52.104.584c-.49-.489-.89-22.089-.89-48V48H332v96h-7.778c-4.278 0-8.178-.4-8.666-.889zm202.7-1.015c-3.817-1.026-8.283-3.537-11.037-6.207-7.674-7.438-8.552-12.857-8.552-52.798V48H516v26.667h14.667v14.666H516v15.154c0 17.392 1.751 21.387 10.058 22.945l4.609.865v7.851c0 8.958-.437 9.168-12.411 5.948zm26.691 1.073c-.52-.52-.947-16.147-.947-34.725V74.667h17.333v4.296c0 4.155.065 4.205 1.954 1.507 2.859-4.08 10.244-7.137 17.248-7.137h6.132v15.848l-6.488-.05c-7.374-.058-13.967 2.83-16.473 7.216-1.107 1.939-1.94 10.705-2.373 24.986l-.666 22-7.387.392c-4.062.215-7.812-.035-8.333-.556zm130.667 0c-.521-.52-.947-22.147-.947-48.058V48h17.367l-.35 47.667-.35 47.666-7.387.392c-4.062.215-7.812-.035-8.333-.556zm101.72-.53c0-.75 5.4-8.804 12-17.9 6.6-9.096 12-17.094 12-17.773 0-.68-2.873-5.074-6.384-9.767a1474.477 1474.477 0 0 1-11.446-15.532l-5.064-7 9.113.037 9.114.037 7.26 9.963c3.994 5.48 7.35 9.963 7.46 9.963.109 0 3.385-4.5 7.28-10l7.081-10h9.29c7.25 0 8.997.366 7.962 1.666-5.829 7.324-21.667 29.64-21.667 30.53 0 .614 5.4 8.626 12 17.804 6.6 9.178 12 17.282 12 18.01 0 .728-3.603 1.323-8.018 1.323h-8.018l-8.775-12c-4.826-6.6-8.97-12-9.208-12-.239 0-4.397 5.4-9.242 12l-8.808 12H785.3c-4.532 0-7.966-.587-7.966-1.362z"/></svg>