<svg xmlns="http://www.w3.org/2000/svg" viewBox="0 0 120.27315 122.30508" height="122.305" width="120.273"><path d="M16.135 106.48C7.261 97.774 0 90.008 0 89.22c0-.787 6.029-7.355 13.397-14.595l13.398-13.162L13.399 48.02.003 34.579 16.623 18C25.762 8.881 33.528 1.69 33.878 2.021c.35.33 6.405 6.255 13.457 13.166l12.82 12.565L74.08 13.876 88.003 0l15.998 15.957C112.801 24.733 120 32.513 120 33.245c0 .732-6.007 7.36-13.35 14.727L93.3 61.367l9.822 9.626 9.82 9.626 2.81 15.001c1.544 8.251 3.193 17.457 3.665 20.457l.856 5.455-20.267-3.618-20.267-3.618-9.874-9.809-9.875-9.808-13.86 13.813-13.86 13.813zm22.153 1.86l5.722-5.616-6.29-6.386c-5.937-6.028-6.161-6.513-4.006-8.668 2.156-2.156 2.642-1.93 8.683 4.02l6.4 6.304 3.579-3.735 3.578-3.735-12.643-12.59-12.643-12.591-12.002 11.946L6.664 89.236l12.308 12.36c6.77 6.797 12.598 12.36 12.951 12.36.354 0 3.218-2.528 6.365-5.616zm68.917.413l5.08-5.202-1.596-9.465-1.597-9.464H100v16H84v4.551c0 4.758.534 5.022 17.396 8.626.401.086 3.015-2.185 5.81-5.046zm-14.29-55.03c3.688-3.466 3.894-5.669.752-8.055-1.284-.974-3.772-3.39-5.53-5.37-2.7-3.04-2.924-3.924-1.447-5.704 1.548-1.865 2.49-1.377 8.212 4.26l6.464 6.367 5.988-5.988 5.988-5.988-12.67-12.618L88.002 8.01 76.074 19.881 64.148 31.753l12.26 12.424c6.742 6.833 12.52 12.429 12.84 12.434.319.006 1.969-1.294 3.666-2.888z" fill="#090909"/></svg>