<svg xmlns="http://www.w3.org/2000/svg" viewBox="0 0 954.40002 954.40002" height="954.4" width="954.4"><circle r="477.2" cy="565.8" cx="952.8" fill="#c4e0e1" transform="translate(-475.6 -88.6)"/><path d="M610.8 263l-79 79-17-17-199.9 199.9 145 145-66.7 66.7 202.9 202.9c169.2-43.4 302.2-177.2 344.3-346.9z" fill="#b5cecf"/><path fill="#d5534e" d="M394.1 737.5l83.1-48.9 83.1 48.9V563.7H394.1z"/><path d="M560.3 563.7H394.1v44.7c2.6.7 5.3 1 8.1 1.1l24.3.5c5.2.1 10.4 1.4 15 3.7l21.7 10.9c9.9 4.9 21.5 4.9 31.4 0l21.7-10.9c4.7-2.3 9.8-3.6 15-3.7l24.3-.5c1.6 0 3.2-.2 4.8-.4v-45.4z" fill="#bf4b46"/><path d="M492.9 605.5l21.7-10.9c4.7-2.3 9.8-3.6 15-3.7l24.3-.5c11-.2 21.3-5.6 27.8-14.6l14.2-19.7c3-4.2 7-7.7 11.6-10.3l21.3-11.7c9.7-5.3 16.3-14.9 17.8-25.8l3.4-24c.7-5.2 2.6-10.1 5.5-14.5l13.4-20.2c6.1-9.2 7.5-20.7 3.8-31.1l-8.2-22.8c-1.8-4.9-2.4-10.2-1.9-15.4l2.5-24.1c1.1-11-3-21.8-11.1-29.3l-17.9-16.4c-3.8-3.5-6.8-7.9-8.8-12.7l-9-22.5c-4.1-10.2-12.8-18-23.5-20.8l-23.4-6.2c-5-1.3-9.7-3.8-13.7-7.2l-18.5-15.7c-8.4-7.2-19.7-9.9-30.4-7.5l-23.7 5.4c-5.1 1.2-10.4 1.2-15.5 0l-23.7-5.4c-10.8-2.4-22 .3-30.4 7.5L397 241.1c-4 3.4-8.7 5.8-13.7 7.2l-23.4 6.2c-10.7 2.8-19.4 10.5-23.5 20.8l-9 22.5c-1.9 4.8-4.9 9.2-8.8 12.7l-17.9 16.4a35.09 35.09 0 0 0-11.1 29.3l2.5 24.1c.5 5.2-.1 10.4-1.9 15.4l-8.2 22.8c-3.7 10.4-2.3 21.9 3.8 31.1l13.4 20.2c2.9 4.4 4.8 9.3 5.5 14.5l3.4 24c1.5 10.9 8.1 20.5 17.8 25.8l21.3 11.7c4.6 2.5 8.5 6 11.6 10.3l14.2 19.7c6.4 9 16.7 14.4 27.8 14.6l24.3.5c5.2.1 10.4 1.4 15 3.7l21.7 10.9c9.6 4.9 21.2 4.9 31.1 0z" fill="#e9ca60"/><circle r="138.7" cy="501.6" cx="952.8" fill="#d7ba58" transform="translate(-475.6 -88.6)"/><path d="M477.1 293.5c73.4 0 133.4 57 138.3 129.1.2-3.2.3-6.3.3-9.6 0-76.6-62.1-138.7-138.7-138.7S338.3 336.4 338.3 413c0 3.2.1 6.4.3 9.6 5.1-72.1 65.2-129.1 138.5-129.1z" fill="#c1a74f"/></svg>