<svg xmlns="http://www.w3.org/2000/svg" viewBox="0 0 797.76129 297.71262" height="297.713" width="797.761"><path d="M711.146 297.28c1.52-.229 3.77-.223 5 .014 1.23.238-.013.426-2.763.418-2.75-.008-3.757-.201-2.237-.431zm-14.513-.944c.687-.277 1.812-.277 2.5 0 .687.278.125.505-1.25.505s-1.938-.227-1.25-.505zm31.062-.02c.722-.29 1.585-.254 1.917.078.332.333-.258.569-1.313.525-1.165-.048-1.401-.284-.604-.604zm-524.081-.973c.677-.274 2.027-.291 3-.038.973.254.419.478-1.231.498-1.65.02-2.446-.187-1.77-.46zm222 0c.677-.274 2.027-.291 3-.038.973.254.419.478-1.231.498-1.65.02-2.446-.187-1.77-.46zm-95.731-2.845c-.685-.825-1.02-1.5-.745-1.5s1.06.675 1.745 1.5c.684.825 1.02 1.5.745 1.5s-1.06-.675-1.745-1.5zm281 1.123c0-.208.787-.995 1.75-1.75 1.586-1.244 1.621-1.209.377.377-1.306 1.666-2.127 2.196-2.127 1.373zM66.365 180.998c0-58.575.12-82.537.268-53.25.147 29.288.147 77.213 0 106.5-.148 29.288-.268 5.325-.268-53.25zm483 0c0-58.025.12-81.762.268-52.75.147 29.013.147 76.488 0 105.5-.148 29.013-.268 5.275-.268-52.75zm-445-.5c0-57.75.12-81.521.268-52.826.147 28.695.147 75.945 0 105-.148 29.055-.268 5.576-.268-52.174zm607.33 100.817c.722-.289 1.585-.253 1.917.08.332.332-.258.568-1.313.524-1.165-.048-1.401-.284-.604-.604zm-535.562-1.052c2.612-.206 6.887-.206 9.5 0 2.612.206.475.375-4.75.375s-7.363-.169-4.75-.375zm218.21-.515c-.261-.687-.358-45.8-.213-100.25l.263-99 .245 99.712.245 99.71 8.75.334 8.75.333-8.782.206c-6.262.146-8.918-.153-9.257-1.045zm-193.648-.433c.722-.289 1.585-.253 1.917.08.332.332-.258.568-1.313.524-1.165-.048-1.401-.284-.604-.604zm223 0c.722-.289 1.585-.253 1.917.08.332.332-.258.568-1.313.524-1.165-.048-1.401-.284-.604-.604zm220.112-5.067l-2.424-2.75 2.75 2.425c1.512 1.333 2.75 2.57 2.75 2.75 0 .784-.81.146-3.076-2.425zm-381.924-.627c0-.208.787-.995 1.75-1.75 1.586-1.244 1.621-1.209.377.377-1.306 1.666-2.127 2.196-2.127 1.373zm230-7.123c1.866-1.925 3.617-3.5 3.892-3.5.275 0-1.026 1.575-2.892 3.5-1.866 1.925-3.618 3.5-3.893 3.5-.275 0 1.027-1.575 2.893-3.5zm172 2c-.685-.825-1.02-1.5-.745-1.5s1.06.675 1.745 1.5c.684.825 1.02 1.5.745 1.5s-1.06-.675-1.745-1.5zm-209-3c1.866-1.925 3.617-3.5 3.892-3.5.275 0-1.026 1.575-2.892 3.5-1.866 1.925-3.618 3.5-3.893 3.5-.275 0 1.027-1.575 2.893-3.5zm185.195 1c.02-1.65.244-2.203.498-1.23.253.972.237 2.322-.037 3-.274.677-.482-.12-.461-1.77zm16.729-5.25l-2.424-2.75 2.75 2.425c2.57 2.266 3.208 3.075 2.424 3.075-.18 0-1.417-1.237-2.75-2.75zm-382.924.373c0-.208.787-.995 1.75-1.75 1.586-1.244 1.621-1.209.377.377-1.306 1.666-2.127 2.196-2.127 1.373zm523.079-22.206c.048-1.165.285-1.402.604-.604.289.722.253 1.584-.08 1.917-.331.332-.568-.259-.524-1.313zm-58.08-11.917c-.684-.825-1.02-1.5-.744-1.5.275 0 1.06.675 1.745 1.5.684.825 1.02 1.5.745 1.5s-1.06-.675-1.745-1.5zm58.08-2.083c.048-1.165.285-1.402.604-.604.289.722.253 1.584-.08 1.917-.331.332-.568-.259-.524-1.313zm-63.08-2.917c-.684-.825-1.02-1.5-.744-1.5.275 0 1.06.675 1.745 1.5.684.825 1.02 1.5.745 1.5s-1.06-.675-1.745-1.5zm-480.92-7.083c.048-1.165.285-1.402.604-.604.289.722.253 1.584-.08 1.917-.331.332-.568-.259-.524-1.313zm223-4c.048-1.165.285-1.402.604-.604.289.722.253 1.584-.08 1.917-.331.332-.568-.259-.524-1.313zm-222-3c.048-1.165.285-1.402.604-.604.289.722.253 1.584-.08 1.917-.331.332-.568-.259-.524-1.313zm223-5c.048-1.165.285-1.402.604-.604.289.722.253 1.584-.08 1.917-.331.332-.568-.259-.524-1.313zm-221.921-4.417c0-1.375.227-1.937.504-1.25.277.688.277 1.813 0 2.5-.277.688-.504.125-.504-1.25zm268.92.417c.049-1.165.286-1.402.605-.604.289.722.253 1.584-.08 1.917-.331.332-.568-.259-.524-1.313zm-222-3c.049-1.165.286-1.402.605-.604.289.722.253 1.584-.08 1.917-.331.332-.568-.259-.524-1.313zm176.174-6.917c-.011-2.2.185-3.217.435-2.261s.26 2.756.02 4c-.24 1.244-.444.461-.455-1.739zm46.906.5c0-1.375.227-1.937.504-1.25.277.688.277 1.813 0 2.5-.277.688-.504.125-.504-1.25zm-221.83-11.5c-.004-3.85.173-5.547.393-3.772.221 1.775.225 4.925.008 7-.216 2.075-.397.622-.401-3.228zm349.596-2.25l-2.424-2.75 2.75 2.425c1.512 1.333 2.75 2.57 2.75 2.75 0 .784-.81.146-3.076-2.425zm-174.672-6.75c-.011-2.2.185-3.217.435-2.261s.26 2.756.02 4c-.24 1.244-.444.461-.455-1.739zm46.906-1.5c0-1.375.227-1.937.504-1.25.277.688.277 1.813 0 2.5-.277.688-.504.125-.504-1.25zm-223.08-5.583c.049-1.165.286-1.402.605-.604.289.722.253 1.584-.08 1.917-.331.332-.568-.259-.524-1.313zm-46.92-2.417c0-1.375.227-1.937.504-1.25.277.688.277 1.813 0 2.5-.277.688-.504.125-.504-1.25zm268.92-.583c.049-1.165.286-1.402.605-.604.289.722.253 1.584-.08 1.917-.331.332-.568-.259-.524-1.313zm-47-4c.049-1.165.286-1.402.605-.604.289.722.253 1.584-.08 1.917-.331.332-.568-.259-.524-1.313zm-223-5c.049-1.165.286-1.402.605-.604.289.722.253 1.584-.08 1.917-.331.332-.568-.259-.524-1.313zm222-3c.049-1.165.286-1.402.605-.604.289.722.253 1.584-.08 1.917-.331.332-.568-.259-.524-1.313zm161-4c.049-1.165.286-1.402.605-.604.289.722.253 1.584-.08 1.917-.331.332-.568-.259-.524-1.313zm131.922-34.917c-.685-.825-1.02-1.5-.745-1.5s1.06.675 1.745 1.5c.684.825 1.02 1.5.745 1.5s-1.06-.675-1.745-1.5zm12 1.123c0-.208.787-.995 1.75-1.75 1.586-1.244 1.621-1.209.377.377-1.306 1.666-2.127 2.196-2.127 1.373zm-282-5.123c-.685-.825-1.02-1.5-.745-1.5s1.06.675 1.745 1.5c.684.825 1.02 1.5.745 1.5s-1.06-.675-1.745-1.5zm-229.034-7.25l-5.466-5.75 5.75 5.466c3.162 3.007 5.75 5.594 5.75 5.75 0 .743-.956-.124-6.034-5.466zm-37.042-2l-2.424-2.75 2.75 2.425c2.57 2.266 3.208 3.075 2.424 3.075-.18 0-1.417-1.237-2.75-2.75zm525.076-.75c-.685-.825-1.02-1.5-.745-1.5s1.06.675 1.745 1.5c.684.825 1.02 1.5.745 1.5s-1.06-.675-1.745-1.5zm-108-2.877c0-.208.787-.995 1.75-1.75 1.586-1.244 1.621-1.209.377.377-1.306 1.666-2.127 2.196-2.127 1.373zm8-8c0-.208.787-.995 1.75-1.75 1.586-1.244 1.621-1.209.377.377-1.306 1.666-2.127 2.196-2.127 1.373zm-461.25-2.285c.687-.277 1.812-.277 2.5 0 .687.278.125.505-1.25.505s-1.938-.227-1.25-.505zm221.98.006c.678-.273 2.028-.29 3-.037.974.254.42.478-1.23.498-1.65.02-2.446-.187-1.77-.46zm302-2c.678-.273 2.028-.29 3-.037.974.254.42.478-1.23.498-1.65.02-2.446-.187-1.77-.46zm-613.23-10.344c.995-1.1 2.035-2 2.31-2 .275 0-.315.9-1.31 2-.996 1.1-2.035 2-2.31 2-.275 0 .314-.9 1.31-2zm445 0c.995-1.1 2.035-2 2.31-2 .275 0-.315.9-1.31 2-.996 1.1-2.035 2-2.31 2-.275 0 .314-.9 1.31-2zm-346.688-2.683c.722-.289 1.585-.253 1.917.08.332.332-.258.568-1.313.525-1.165-.048-1.401-.285-.604-.605zm221.938.021c.687-.277 1.812-.277 2.5 0 .687.278.125.505-1.25.505s-1.938-.227-1.25-.505zM21.075 65.252c6.431-.174 17.231-.174 24-.001 6.77.173 1.508.316-11.692.316s-18.739-.14-12.308-.315zm112.99-.002c11.376-.16 30.276-.16 42 0 11.725.16 2.418.29-20.682.29-23.1.001-32.693-.13-21.318-.29zm222.568 0c11.687-.16 30.812-.16 42.5 0 11.687.16 2.125.29-21.25.29s-32.938-.13-21.25-.29zm214 .001c6.737-.173 17.762-.173 24.5 0 6.737.173 1.225.315-12.25.315s-18.988-.142-12.25-.315zm133.062-.936c.722-.289 1.585-.253 1.917.08.332.332-.258.568-1.313.524-1.165-.047-1.401-.284-.604-.604zm18.938.021c.687-.277 1.812-.277 2.5 0 .687.278.125.505-1.25.505s-1.938-.227-1.25-.505zM7.383 46.044c-1.1-.455-3.125-2.036-4.5-3.514C.475 39.943.373 39.282.098 24.67-.162 10.815-.01 9.213 1.87 6.189 5.382.535 8.135-.002 33.6 0c19.687.001 23.258.24 26.283 1.75 5.741 2.868 6.996 6.73 6.998 21.53.002 14.682-1.116 18.6-6.188 21.693-3.086 1.881-4.94 2.014-27.31 1.958-13.2-.032-24.9-.432-26-.887zm547.262-.61c-4.888-2.653-5.762-5.905-5.762-21.436 0-23.363-.536-23 33.965-23h25.064l3.735 3.423 3.736 3.422.355 13.256c.407 15.208-.525 19.603-4.95 23.326l-3.059 2.573-25.173-.04c-20.313-.032-25.702-.326-27.91-1.525z"/><path d="M694.383 295.956c-17.942-2.783-38.38-11.34-47.928-20.066-5.08-4.643-5.572-5.465-5.572-9.318 0-5.426 3.214-8.774 8.425-8.774 3.087 0 4.698 1.05 11.637 7.577 12.545 11.802 24.611 16.623 41.599 16.623 16.09 0 26.938-3.77 35.005-12.164 6.45-6.713 8.76-12.03 9.186-21.144.333-7.121.089-8.37-2.774-14.185-5.123-10.406-9.115-13.196-45.719-31.956-18.073-9.263-34.975-18.373-37.562-20.246-18.908-13.692-27.5-38.463-22.215-64.05 5.26-25.462 24.782-44.417 52.958-51.42 12.521-3.111 33.14-3.117 45.761-.013 10.69 2.63 21.763 7.622 30.099 13.57 8.91 6.358 17.588 17.422 17.596 22.435.005 3.095-5.176 8.173-8.338 8.173-4.261 0-5.657-1.05-11.818-8.892-6.562-8.352-11.94-13.085-18.883-16.619-19.552-9.951-41.544-6.808-52.903 7.563-11.958 15.127-10.405 34.001 3.886 47.232 6.049 5.601 9.972 7.719 48.431 26.15 9.83 4.71 20.636 10.537 24.014 12.948 11.897 8.489 20.893 20.609 25.267 34.04 3.35 10.287 3.777 25.717.97 35.026-6.852 22.728-25.062 38.088-54.122 45.652-9.17 2.387-36.6 3.47-47 1.858zM5.78 293.712c-2.126-1.43-3.873-3.727-4.666-6.133-.998-3.03-1.211-26.187-1-108.964.25-98.524.378-105.28 2.032-107.712 3.11-4.578 5.199-4.905 31.332-4.905 26.62 0 28.898.4 31.209 5.473.903 1.98 1.195 28.845 1.195 109.852 0 117.909.428 109.851-6.011 113.181-2.328 1.204-7.542 1.494-26.792 1.494-23.243 0-23.995-.063-27.3-2.286zm105.416.866c-6.688-3-6.314 3.78-6.314-114.63V72.798l3.4-3.4 3.4-3.4h45.469c49.3 0 55.43.485 71.23 5.635 16.503 5.379 29.615 13.715 42.65 27.115 22.017 22.633 31.85 47.491 31.85 80.512 0 35.547-11.336 65.114-33.466 87.284-13.844 13.868-29.196 22.073-50.533 27.008-10.492 2.426-102.608 3.305-107.686 1.026zm97.04-16.084c13.863-2.901 23.962-9.846 31.771-21.85 10.105-15.532 15.92-43.52 15.948-76.764.046-53.733-13.463-86.291-39.322-94.766-9.174-3.007-17.683-4.1-32.001-4.108l-12.75-.008v200.297l14.769-.688c8.122-.378 17.836-1.33 21.584-2.113zm126.146 16.593c-1.1-.478-3.125-2.08-4.5-3.56l-2.5-2.69-.297-105.669c-.205-72.996.034-106.812.774-109.366.589-2.033 2.246-4.62 3.682-5.75 2.547-2.003 3.714-2.053 47.726-2.03 25.905.013 48.257.469 52.494 1.07 46.774 6.633 83.602 42.928 92.242 90.906 1.853 10.288 1.626 34.23-.433 45.636-3.181 17.627-9.622 33.88-18.968 47.864-2.205 3.3-8.354 10.275-13.664 15.5-14.185 13.958-28.719 21.825-48.543 26.278-8.24 1.85-13.177 2.052-57.513 2.353-26.675.18-49.4-.063-50.5-.542zm98.064-17.105c19.158-4.9 30.156-15.947 37.498-37.667 9.497-28.096 11.491-69.645 4.911-102.317-4.044-20.078-9.569-32.52-18.473-41.601-11.04-11.258-20.248-14.333-45.25-15.113l-17.25-.537v99.459c0 54.702.337 99.81.75 100.239 1.328 1.38 30.119-.495 37.814-2.463zm123.75 16.553c-6.685-2.908-6.314 3.828-6.314-114.587V72.798l3.4-3.4 3.4-3.4h25.877c22.306 0 26.2.226 28.206 1.631 5.274 3.694 5.117.198 5.117 113.69v105.384l-2.28 3.383c-1.254 1.86-3.392 3.946-4.75 4.633-3.682 1.863-48.307 1.707-52.656-.184z"/></svg>