<svg xmlns="http://www.w3.org/2000/svg" viewBox="0 0 995.5154 246.96643" height="246.966" width="995.515"><path d="M445.022 246.316c-23.825-3.425-43.729-16.696-52.669-35.116-1.864-3.841-4.513-12.004-4.513-13.907 0-.642 4.817-.813 22.917-.813h22.917l1.975 2.803c4.144 5.88 11.925 9.535 20.351 9.563 9.35.03 16.558-4.256 20.256-12.046 1.683-3.544 1.823-4.42 1.823-11.36 0-4.322-.257-7.52-.607-7.52-.334 0-1.922.887-3.528 1.97-14.511 9.794-38.316 8.063-56.344-4.097-13.495-9.102-22.634-23.582-25.612-40.58-1.404-8.01-1.29-21.407.251-29.353 4.784-24.677 21.84-42.791 43.915-46.641 7.327-1.278 11.534-1.225 18.607.235 6.747 1.393 13.856 4.524 18.822 8.29 1.926 1.46 3.726 2.656 4 2.656.273 0 .497-2.88.497-6.4v-6.4h39.04v72.12c0 78.67.167 74.824-3.652 84.255-4.502 11.12-14.31 20.883-26.748 26.627-11.395 5.263-28.517 7.609-41.698 5.714zm18.658-100.039c4.904-2.404 9.801-7.3 12.2-12.197 1.749-3.572 1.88-4.354 1.88-11.2 0-7.011-.095-7.542-2.014-11.21-2.225-4.255-6.98-9.085-10.926-11.098-6.165-3.146-15.22-3.19-21.59-.107-9.314 4.51-14.568 15.664-12.65 26.854 1.696 9.887 6.776 16.516 15.26 19.913 4.856 1.945 12.793 1.52 17.84-.955zm-151.04 43.17c-15.79-3.592-30.059-13.06-39.341-26.103-10.156-14.272-14.21-29.4-12.76-47.619 2.006-25.217 13.873-45.497 32.668-55.828 8.62-4.737 17.256-6.777 28.699-6.777 18.729 0 34.035 6.263 45.919 18.789 12.665 13.349 19.19 31.02 19.553 52.957l.142 8.574-42.47.165-42.47.164.423 2.396c1.208 6.824 5.743 12.237 13.157 15.705 3.603 1.685 4.888 1.947 9.6 1.954 6.256.009 10.601-1.38 15.737-5.032l3.139-2.232h20.002c16.54 0 20.002.152 20.002.88 0 2.09-4.824 12.572-8.097 17.593-8.551 13.118-21.52 21.748-37.24 24.781-6.654 1.284-20.228 1.097-26.663-.367zm32.32-85.345c0-2.901-3.4-9.503-6.128-11.898-4.386-3.851-7.092-4.843-13.072-4.79-11.389.102-20.84 6.739-22.936 16.106l-.608 2.72h42.744zm181.76 18.778V57.6h41.6V64c0 3.52.143 6.4.318 6.4.175 0 2.12-1.326 4.32-2.946 8.311-6.12 22.583-11.774 29.716-11.774h2.788l-.17 15.775-.172 15.774-4.48 1.224c-5.92 1.618-15.091 6.044-19.74 9.528-4.488 3.363-8.75 8.847-10.776 13.863-1.483 3.674-1.484 3.699-1.669 39.996l-.185 36.32h-41.55zm128 61.76c0-1.936-.171-3.52-.38-3.52-.21 0-3.306.997-6.88 2.215-15.94 5.43-29.76 5.497-40.691.194-6.302-3.057-12.6-9.583-15.914-16.489-4.041-8.421-4.87-12.318-4.826-22.72.044-10.663 1.264-16.105 5.595-24.96 4.893-10.001 11.02-16.333 19.914-20.58 10.83-5.17 23.711-5.262 37.404-.265l5.138 1.876v-1.576c0-2.12-1.662-5.97-3.39-7.853-2.219-2.416-7.573-4.456-13.699-5.221-5.177-.646-7.885-.577-16.351.42l-3.04.36V55.483l12 .384c21.318.681 35.609 3.303 46.035 8.445 9.155 4.516 13.638 9.943 15.492 18.759.49 2.33.713 19.31.713 54.24v50.848h-37.12zm-7.675-29.415c10.763-5.433 12.703-19.3 4.002-28.602-3.677-3.931-7.2-5.317-12.331-4.852-10.221.927-18.587 11.573-16.552 21.063 1.19 5.544 5.927 10.744 11.86 13.014 3.161 1.21 10.042.88 13.021-.623zm55.035-32.345V57.6h39.68v5.76c0 3.168.198 5.76.44 5.76.241 0 3.913-1.727 8.16-3.838 9.724-4.834 15.772-6.414 24.68-6.447 7.905-.029 12.816 1.253 19.117 4.988 7.614 4.514 14.25 13.557 16.002 21.809.5 2.347.721 18.652.721 52.96v49.568h-39.36v-39.2c0-21.56-.227-40.272-.505-41.581-1.696-7.988-12.788-11.703-21.79-7.298-2.543 1.244-4.227 2.617-5.418 4.415l-1.727 2.61-.174 40.527-.174 40.527H702.08zm196.48 61.052c0-3.138-.206-4.141-.8-3.889-15.23 6.48-20.466 7.698-31.52 7.337-6.883-.225-9.131-.56-13.014-1.94-6.85-2.436-11.246-5.275-17.092-11.04-12.398-12.226-19.45-30.88-19.478-51.52-.037-27.834 12.977-49.946 34.067-57.884 11.046-4.158 25.729-4.66 39.825-1.36 3.866.904 7.25 1.644 7.52 1.644.27 0 .492-12.384.492-27.52V10.24h40.32v177.92h-40.32zm-12.508-36.826c3.185-.839 7.07-3.49 10.218-6.975 6.627-7.335 8.148-18.869 3.733-28.303-2.528-5.402-5.605-8.73-10.551-11.413-3.762-2.04-4.391-2.175-10.092-2.175-5.546 0-6.449.18-10.278 2.055-5.193 2.541-10.856 8.285-13.254 13.445-1.439 3.095-1.721 4.59-1.727 9.14-.006 4.797.235 5.953 2.04 9.776 5.52 11.694 17.818 17.635 29.911 14.45zM215.68 98.88V10.24h38.4v177.28h-38.4zM97.92 164.16V134.4h10.24v59.52H97.92zM0 97.28V14.72h43.513l.164 59.68.163 59.68 23.84.168 23.84.168v45.424H0zM114.56 120V60.16H65.92V14.72h92.16v165.12h-43.52zM49.92 30.08V0h10.24v60.16H49.92zm921.43 19.181c-8.762-2.2-14.497-9.299-15.054-18.633-.254-4.238-.078-5.359 1.312-8.396 3.617-7.901 9.73-11.992 17.918-11.992 2.622 0 6.043.449 7.685 1.008 3.874 1.32 8.048 5.058 10.41 9.325 1.712 3.09 1.899 3.994 1.894 9.187-.01 6.46-1.017 9.14-5.2 13.77-4.314 4.775-12.691 7.307-18.965 5.731zm11.308-3.516c1.282-.536 3.497-2.028 4.923-3.316 6.943-6.273 7.55-16.672 1.393-23.866-6.455-7.54-19.17-7.747-25.607-.416-3.606 4.107-4.31 6.004-4.307 11.613 0 6.858 1.834 10.222 8.176 15.021 3.21 2.43 10.78 2.903 15.422.964zM967.68 29.76v-11.2h5.78c8.746 0 11.5 1.6 11.5 6.678 0 2.27-1.75 4.842-3.293 4.842-.404 0 .029.706.96 1.57.931.863 1.715 2.087 1.742 2.72.027.632.186 2.374.353 3.87.298 2.672.268 2.72-1.65 2.72-1.89 0-1.952-.093-1.952-2.91 0-4.157-1.993-6.05-6.37-6.05h-3.23v8.96h-3.84zm10.354-.87c3.035-.253 4.28-5.166 1.664-6.566-.781-.418-2.87-.788-4.64-.822l-3.218-.062-.198 3.119c-.311 4.89-.311 4.89 6.392 4.33z"/></svg>