<svg xmlns="http://www.w3.org/2000/svg" viewBox="0 0 1075.45 142.29112" height="142.291" width="1075.45"><path d="M564.363 103.953c-22.733-21.245-42.942-40.39-44.908-42.542l-3.575-3.915 4.09-12.415 4.09-12.414 14.961-11.562C553.09 10.235 554.896 9.26 569.27 4.772 584.323.072 584.905 0 607.583 0 630.324 0 630.8.06 645.9 4.816c14.598 4.597 15.935 5.337 29.543 16.351l14.254 11.537 4.156 11.981c2.286 6.59 3.901 12.656 3.59 13.48-.786 2.07-88.451 83.766-90.274 84.125-.81.16-20.072-17.092-42.806-38.337zm40.667 8.32V89.882l-26.753-4.836c-23.904-4.321-27.632-5.355-35-9.704l-8.247-4.868 13.998 13.097c7.7 7.203 23 21.619 34 32.034 11.001 10.416 20.452 18.966 21.002 19 .55.035 1-10.014 1-22.33zm37.015-7.126c38.809-36.195 38.473-35.863 32.318-31.935-9.31 5.942-15.774 7.901-40.333 12.224l-25 4.4v22.416c0 12.328.307 22.415.682 22.415.375 0 14.925-13.284 32.333-29.52zm-39.682-20.995c0-.65-4.053-9.712-9.007-20.14l-9.008-18.96-13.809 15.546c-7.595 8.55-13.592 15.736-13.326 15.967.39.339 40.51 8.194 44.15 8.645.55.068 1-.408 1-1.058zm34.667-3.646c10.633-1.955 19.543-3.728 19.799-3.94.256-.212-5.708-7.312-13.253-15.778-7.546-8.466-13.946-15.166-14.223-14.888-.277.277-4.634 9.304-9.682 20.06-9.114 19.421-9.153 19.552-5.576 18.828 1.98-.4 12.302-2.327 22.935-4.282zm-10.737-36.84c.04-.55-8.63-1-19.263-1-10.633 0-19.333.295-19.333.656 0 .36 4.343 9.365 9.651 20.012L607 82.692l9.612-19.013c5.286-10.457 9.643-19.462 9.681-20.012zm-73.967 5.271l.97-14.396-15.393 11.063c-8.465 6.084-15.41 11.363-15.431 11.73-.022.366 6.095 4.3 13.593 8.74l13.632 8.075.83-5.408c.456-2.974 1.266-11.886 1.799-19.804zM682.004 63.63c8.892-5.468 9.462-6.085 7.334-7.933C685.802 52.624 662.476 36 661.702 36c-.763 0 .569 34.321 1.44 37.109.429 1.373 1.536 1.172 4.888-.888 2.383-1.464 8.672-5.33 13.974-8.592zM572.221 52.76c5.055-5.585 8.944-10.402 8.642-10.704-1.387-1.387-21.741-8.593-22.41-7.934-.416.408-1.359 9.145-2.095 19.415l-1.339 18.672 4.006-4.647c2.203-2.556 8.141-9.217 13.196-14.802zm86.41-.906l-.4-19.48-12.6 4.691c-6.93 2.58-12.6 5.134-12.6 5.676 0 .902 25.731 29.592 25.918 28.897.045-.167-.098-9.07-.319-19.784zM539.14 39.691l15.222-10.976v-5.612c0-3.087-.453-5.893-1.007-6.235-.555-.343-6.521 3.586-13.26 8.73-11.44 8.733-12.426 9.873-14.904 17.21-1.46 4.323-2.343 7.859-1.964 7.859.38 0 7.54-4.94 15.913-10.976zm149.77 3.242c-2.35-6.956-3.641-8.531-12.844-15.667-16.89-13.096-15.238-12.666-14.774-3.844l.404 7.672 14 9.78c7.7 5.378 14.41 9.782 14.912 9.786.502.004-.262-3.473-1.699-7.727zm-46.357-9.068c12.347-4.536 13.118-5.042 13.883-9.123.446-2.376.612-6.066.369-8.198-.414-3.624-1.272-4.153-13.11-8.09-12.114-4.028-13.654-4.218-35.333-4.36-21.939-.143-23.105-.011-36.333 4.102l-13.667 4.25v16.31l13 4.88 13 4.88 22.56.076 22.559.076zM6.144 106.489c-4.039-1.48-4.541-2.428-5.825-10.985-1.164-7.765.962-8.187 4.666-.925 3.59 7.035 7.366 9.421 14.912 9.421 5.189 0 6.75-.607 9.036-3.513 3.082-3.918 3.583-10.563 1.192-15.81-.864-1.897-5.214-6.065-9.666-9.26-4.453-3.197-9.896-7.713-12.096-10.036-3.583-3.783-4-5.107-4-12.714 0-7.532.433-8.943 3.826-12.484 4.905-5.12 14.074-7.485 22.064-5.69 7.081 1.591 7.557 2.098 8.622 9.174 1.043 6.924-1.902 7.965-4.538 1.603-4.366-10.54-19.903-9.894-23.208.965-1.475 4.848 2.541 12.006 9.39 16.736 15.22 10.512 19.178 15.736 19.178 25.317 0 7.431-3.693 14.206-9.416 17.276-5.001 2.682-17.98 3.18-24.136.925zM200.25 79.023l-23.886-28.977-.365 20.72c-.468 26.45.347 30.808 6.073 32.51 7.416 2.204 4.719 3.39-7.708 3.39-12.378 0-14.787-1.03-8.212-3.51 3.636-1.373 3.822-1.878 4.658-12.627 1.356-17.415 1.043-41.687-.598-46.394-1.09-3.128-2.524-4.47-5.386-5.043-3.35-.67-5.018-3.092-2.128-3.092 15.58 0 14.76-.25 18.857 5.717 2.121 3.09 11.721 15.045 21.333 26.569l17.476 20.952.381-21.619c.456-25.862.174-27.441-5.083-28.493-2.18-.436-3.964-1.468-3.965-2.293 0-.993 3.827-1.5 11.332-1.5 7.602 0 11.333.501 11.334 1.522 0 .838-1.427 1.881-3.173 2.32-1.768.443-3.531 2.13-3.981 3.81-.445 1.658-.816 16.965-.826 34.015-.011 17.05-.52 31-1.133 31s-11.863-13.04-25-28.977zm654.114 28.015c-5.113-1.921-9.905-6.652-12.405-12.248-2.321-5.194-2.852-9.867-3.499-30.79l-.762-24.667-3.746-.43c-2.06-.235-3.54-1.047-3.288-1.802.702-2.106 25.035-2.204 25.034-.101 0 .917-1.127 1.667-2.504 1.667-5.236 0-5.786 2.818-5.26 26.963.544 24.972 1.466 28.654 8.584 34.252 2.69 2.117 5.446 2.785 11.493 2.785 7.219 0 8.36-.407 12.35-4.396 6.049-6.05 7.32-11.924 7.33-33.85.01-21.64-.962-25.754-6.071-25.754-1.997 0-3.264-.643-2.975-1.51.74-2.216 22.387-2.368 22.387-.157 0 .917-1.18 1.667-2.62 1.667-1.442 0-3.174 1.05-3.85 2.333-.677 1.283-1.493 12.233-1.813 24.333-.447 16.892-1.116 23.234-2.88 27.315-2.923 6.76-7.019 11.205-12.462 13.524-4.204 1.791-19.091 2.35-23.043.866zM67.697 105.5c0-.642 1.686-1.504 3.748-1.916 2.386-.478 4.38-2.112 5.49-4.5 2.733-5.885 21.428-57.858 21.428-59.572 0-2.108 5.411-5.327 6.649-3.955.55.61 4.99 13.71 9.865 29.11 11.313 35.733 12.29 37.96 17.059 38.914 7.756 1.551 3.328 3.086-8.906 3.086-7.555 0-12.667-.538-12.667-1.334 0-.733 1.165-1.333 2.588-1.333 1.424 0 2.968-.614 3.432-1.365 1.107-1.79-4.581-20.888-6.76-22.696-.93-.773-5.772-1.222-10.806-1.003l-9.12.397-3.709 11.06C82.106 101.971 82.174 104 86.442 104c1.423 0 2.588.6 2.588 1.333 0 .778-4.444 1.334-10.667 1.334-5.866 0-10.666-.525-10.666-1.167zm40.274-31.552c.668-.668-6.232-24.35-7.449-25.567-.528-.528-8.825 23.248-8.825 25.289 0 1.128 15.165 1.387 16.274.278zm159.726 31.385c0-.733.857-1.333 1.905-1.333 1.047 0 2.847-.943 4-2.095 1.776-1.776 2.095-6.507 2.095-31.067 0-30.006-.377-32.171-5.6-32.171-1.32 0-2.4-.75-2.4-1.667 0-1.216 3.422-1.667 12.666-1.667 9.245 0 12.667.45 12.667 1.667 0 .917-1.08 1.667-2.4 1.667-5.24 0-5.6 2.126-5.6 33.049v29.849l4 1.51c6.867 2.592 4.454 3.592-8.667 3.592-7.555 0-12.666-.538-12.666-1.334zm69.333.276c0-.582 1.95-1.632 4.333-2.333l4.334-1.276.358-31.059.358-31.059-9.67.392c-9.264.376-9.782.572-12.358 4.675-2.882 4.59-6.685 6.007-5.505 2.051.383-1.283 1.395-5.183 2.248-8.667 1.72-7.02 1.904-7.188 4.76-4.333 1.633 1.634 6.517 2 26.658 2 15.122 0 25.701-.557 27.353-1.441 1.48-.793 2.911-1.223 3.179-.956 1.223 1.223-1.22 15.784-2.573 15.334-.811-.27-1.676-1.642-1.92-3.047-.766-4.387-4.297-5.89-13.834-5.89h-9.103l.358 31 .357 31 4.334 1.276c7.758 2.284 4.603 3.39-9.667 3.39-7.7 0-14-.475-14-1.057zm70.667-.276c0-.733 1.107-1.333 2.46-1.333s3.396-1.05 4.54-2.333c1.815-2.036 15.06-37.058 21.7-57.376 1.972-6.036 6.315-11.054 8.058-9.31.291.29 4.945 14.302 10.342 31.135 5.396 16.833 10.524 31.936 11.394 33.562.87 1.627 3.065 3.33 4.878 3.784 6.87 1.725 2.85 3.205-8.706 3.205-7.11 0-12-.544-12-1.334 0-.733.75-1.342 1.667-1.353 4.725-.058 4.992-2.004 1.728-12.583-1.777-5.76-4.018-10.97-4.98-11.58-2.793-1.772-17.915-1.37-19.407.516-2.26 2.856-7.296 19.66-6.507 21.714.412 1.074 1.968 1.953 3.458 1.953 1.49 0 2.708.6 2.708 1.333 0 .778-4.444 1.334-10.667 1.334-6.222 0-10.666-.556-10.666-1.334zM447.67 73c-.066-4.054-7.752-25.493-8.484-23.667-2.335 5.821-7.49 22.04-7.49 23.567 0 1.27 2.249 1.767 8 1.767 5.526 0 7.992-.516 7.974-1.667zm301.36 32.61c0-.583 1.95-1.633 4.333-2.334l4.334-1.276.359-29.832c.372-30.907.062-32.93-5.176-33.755-1.442-.227-2.448-.957-2.236-1.622.632-1.98 25.053-1.776 25.053.209 0 .917-1.08 1.667-2.4 1.667-5.21 0-5.6 2.194-5.6 31.504 0 33.701-.515 32.496 13.863 32.496 10.292 0 12.723-1.326 16.76-9.143 2.79-5.401 4.063-1.254 1.89 6.157l-2.047 6.986h-24.567c-13.511 0-24.566-.476-24.566-1.058zm177.333-.17c0-.676 1.775-1.618 3.945-2.094 2.169-.477 5.75-2.925 7.96-5.44 7.094-8.08 17.663-24.706 16.926-26.627-.393-1.024-5.006-8.257-10.25-16.074-6.71-10.002-10.681-14.645-13.403-15.672-2.128-.803-3.68-2.024-3.451-2.712.59-1.769 22.754-1.38 23.35.41.264.79-.771 1.436-2.299 1.436s-2.778.755-2.778 1.678c0 1.68 14.204 23.655 15.289 23.655 1.045 0 14.045-21.854 14.045-23.61 0-.948-1.25-1.723-2.778-1.723s-2.557-.663-2.286-1.474c.3-.9 4.35-1.474 10.397-1.474 6.048 0 10.098.574 10.398 1.474.27.81-.641 1.474-2.025 1.474-3.303 0-9.213 6.226-18.287 19.267-8.485 12.194-9.154 8.561 5.464 29.674C985.3 100.203 989.18 104 993.327 104c1.303 0 2.37.6 2.37 1.333 0 .8-5.333 1.334-13.333 1.334s-13.334-.534-13.334-1.334c0-.733.919-1.333 2.042-1.333 4.344 0 3.19-4.179-4.233-15.333l-7.712-11.588-2.488 3.072c-4.928 6.086-13.156 21.091-12.313 22.455.474.767 1.726 1.394 2.783 1.394s1.921.6 1.921 1.333c0 .785-4.667 1.334-11.333 1.334-6.234 0-11.334-.553-11.334-1.228zm94.667.198c0-.598 1.95-1.66 4.333-2.362l4.334-1.276V71.373c0-29.617-.091-30.673-2.754-32-1.514-.755-2.864-1.88-3-2.499-.135-.619 9.804-1.094 22.088-1.055l22.332.07.713 6.82c.86 8.215-.468 9.602-3.509 3.668-1.233-2.407-2.909-4.818-3.723-5.357-.814-.538-6.13-.988-11.814-1l-10.333-.02v28l6.333-.018c9.719-.028 12.364-1.135 13.245-5.54 1.46-7.3 3.575-3.085 3.666 7.306.094 10.838-1.523 13.263-4.17 6.252-1.467-3.887-1.758-4-10.292-4h-8.782v13.238c0 16.829.503 17.436 14.428 17.408 5.631-.01 10.912-.461 11.736-1 .824-.539 3.065-3.3 4.981-6.138 4.329-6.409 6.067-3.814 3.204 4.781l-1.903 5.711-25.556.362c-14.056.2-25.557-.127-25.557-.724z"/></svg>