<svg xmlns="http://www.w3.org/2000/svg" height="126.752" width="109.9" viewBox="0 0 109.9 126.75211" id="svg2"><style id="style2">.st0{fill:#050505}</style><path d="M90.7 123.5c-1.8-1.8-3.3-4.8-3.3-6.7 0-3.9 5.4-15.3 8.5-17.9 2.4-2 4.2.3 8.9 11 2.4 5.5 2.6 7 1.2 10.4-3 7.1-10 8.6-15.3 3.2zm-7.3-47.8c0-13.5-.9-15.6-6.8-15.6-3.1 0-3.7.7-4.4 5.3-1.8 11.4-13.6 19.1-24.7 16.1-6.7-1.8-13.2-9.1-14.3-16.1-.7-4.4-1.4-5.3-4-5.3-2.3 0-3.2.7-3.2 2.7 0 2.6-.7 2.7-13 2.3l-13-.4v-36l11.6-.4c10.3-.3 11.9-.1 14 2.3 1.3 1.5 3.4 2.7 4.7 2.7 2 0 2.4-1.2 2.4-6.6 0-3.6.7-7 1.5-7.5s4.3-1.1 7.7-1.3c5.1-.3 6.2-.8 6.6-3.1.4-3 .2-3.1-8.4-3.5-8.3-.4-8.5-.5-10.1-3.4-1.2-2.2-1-3.3.8-5.3C32.9.3 35.1 0 52.8 0c16.1 0 20.1.4 21.8 2.1 2.4 2.4 2.6 4.4.8 7.1-.8 1.3-3.6 1.9-9.3 1.8-7.7-.1-8.1.1-8.1 3.1 0 2.6.7 3.2 3.9 3.2 2.2 0 5.5.6 7.3 1.3 3 1.2 3.4 2 3.4 7.8v6.5l7.9.6c10.8.8 19.3 6.1 25.1 15.7 4.2 7.1 4.3 7.6 4.3 23v15.7H83.3z" class="st0" id="path12" fill="#050505"/></svg>