<svg xmlns="http://www.w3.org/2000/svg" viewBox="0 0 788.3739 234.81194" height="234.812" width="788.374"><path d="M228.836 234.468c-7.056-1.01-10.748-1.669-11.84-2.111-9.435-3.827-16.16-9.585-19.72-16.886-1.254-2.572-2.625-6.657-3.046-9.076-.956-5.488-.483-20.995.683-22.4.652-.785 2.717-.963 11.173-.963 10.13 0 10.39-.034 11.054-1.44.865-1.83 2.736-7.097 2.736-7.702 0-.252-4.752-.458-10.56-.458-12.268 0-11.9.28-8.48-6.46l2.08-4.1 9.36-.177 9.36-.177 1.36-3.729c.748-2.05 1.36-4.059 1.36-4.463 0-.508-2.161-.734-7.002-.734-3.851 0-7.163-.26-7.36-.578-1.047-1.695 14.116-17.658 22.178-23.348 20.149-14.22 42.038-19.95 59.064-15.46 9.7 2.559 18.734 9.538 22.402 17.306 3.787 8.018 5.064 18.41 3.305 26.88l-.798 3.84-12.865.173-12.865.173-.963 3.027a356.342 356.342 0 0 0-1.392 4.467l-.43 1.44h12.485c6.94 0 12.648.262 12.85.59.202.326-.684 2.774-1.968 5.44l-2.334 4.85-10.314.064c-5.672.035-11.003.257-11.846.493-1.481.414-2.084 1.682-3.52 7.4l-.411 1.643h9.612c7.307 0 9.612.193 9.612.807 0 1.397-8.548 11.499-14.147 16.718-10.837 10.102-23.259 17.458-36.733 21.753-4.225 1.347-18.368 3.83-20.022 3.515a75.304 75.304 0 0 0-2.058-.317zm14.357-26.51c8.977-1.323 19.293-7.834 22.893-14.451.932-1.713 2.904-7.723 4.381-13.355 5.342-20.358 6.974-26.066 7.703-26.945.564-.68 2.693-.898 8.825-.905 4.444-.005 8.401-.221 8.792-.48.672-.444 1.95-5.874 2.635-11.19l.309-2.4h-14.436c-15.876 0-18.925.455-25.699 3.834-7.695 3.84-13.604 11.418-15.387 19.734-.579 2.702-1.305 5.776-1.614 6.832-.986 3.371-4.439 18.714-4.439 19.726 0 .537-.745 1.862-1.657 2.945l-1.657 1.969h-8.865c-6.153 0-9.009.232-9.335.76-.258.418-.875 2.362-1.37 4.32a3197.86 3197.86 0 0 1-1.581 6.216c-1.16 4.524-1.531 4.404 13.023 4.213 7.173-.094 15.039-.464 17.479-.824zm218.283 6.817c-10.802-2.17-18.241-12.52-18.217-25.343.027-14.178 8.277-23.904 21.037-24.802 9.082-.64 15.737 3.146 19.88 11.308 1.466 2.888 3.553 13.623 2.953 15.188-.268.697-3.525.866-16.673.866h-16.34v1.468c0 2.71 3.923 8.245 6.98 9.85 5.123 2.69 15.272 1.692 21.266-2.092 1.347-.85 2.743-1.546 3.102-1.546.388 0 .652 2.038.652 5.03v5.031l-3.897 2.078c-4.052 2.16-10.795 3.906-14.663 3.798-1.232-.034-3.968-.41-6.08-.834zm14.679-32.223c-1.214-5.54-4.067-8.015-9.65-8.37-5.201-.331-8.386 1.349-10.735 5.664-.91 1.671-1.654 3.36-1.654 3.752 0 .498 3.395.714 11.212.714h11.213zm54.284 32.451c-4.61-.615-10.878-3.686-13.924-6.822-1.105-1.138-2.853-3.734-3.884-5.77-1.694-3.343-1.894-4.408-2.078-11.06-.167-6.083.02-7.995 1.082-11.028 4.414-12.607 16.57-18.474 30.356-14.651 6.154 1.706 6.845 2.501 6.845 7.88 0 3.075-.257 4.499-.853 4.727-.469.18-2.413-.465-4.32-1.433-2.436-1.237-4.726-1.836-7.702-2.015-7.42-.445-12.188 2.838-14.319 9.863-2.446 8.063.301 15.48 7.034 18.99 3.3 1.72 11.402 1.823 15.68.198 4.868-1.848 4.778-1.913 4.987 3.61l.186 4.94-2.117.885c-1.953.816-5.038 1.386-10.736 1.984-1.232.13-4.038-.005-6.237-.298zm61.162-.224c-3.674-.99-6.956-3.416-8.944-6.613-1.447-2.328-1.508-2.96-1.703-17.614l-.201-15.2h-3.106c-3.589 0-5.13-.462-5.13-1.537 0-.902 17.013-17.663 17.929-17.663.357 0 .63 2.067.63 4.78v4.78l7.52.18 7.52.18.2 3.157c.397 6.265.47 6.208-7.74 6.078l-7.18-.113v27.15l1.796 1.544c2.273 1.954 5.48 2.014 10.724.2 2.137-.74 4.044-1.186 4.238-.992.194.194.353 2.165.353 4.379 0 3.542-.191 4.168-1.59 5.213-1.534 1.144-8.405 2.96-11.04 2.918-.705-.011-2.628-.383-4.276-.827zm153.241.184c-7.273-1.212-13.645-5.85-16.945-12.334-1.764-3.468-2.026-4.694-2.284-10.686-.344-7.976.546-11.81 4.03-17.357 5.745-9.149 18.712-12.65 30.073-8.122l3.84 1.531.186 5.278c.216 6.137.118 6.205-5.06 3.519-4.791-2.486-11.912-2.785-15.587-.654-9.741 5.649-9.19 23.082.872 27.558 3.804 1.692 11.3 1.79 15.43.2 4.902-1.888 4.929-1.89 5.212-.277.144.821.155 3.156.024 5.19-.223 3.475-.362 3.748-2.311 4.562-1.869.781-11.702 2.41-13.428 2.226-.384-.041-2.207-.326-4.052-.634zM344.191 177.76l.165-36.648h40.96v10.053l-13.374-.055c-7.355-.03-14.051.115-14.88.323-1.502.377-1.506.403-1.506 10.548v10.17h28.8v5.052c0 4.165-.19 5.125-1.088 5.47-.598.23-6.938.36-14.087.289-7.15-.071-13.169.04-13.376.247-.206.207-.359 4.932-.338 10.5l.038 10.123 15.546.32 15.545.32v9.6l-21.285.168-21.285.17.165-36.65zm65.92.019l.165-36.667h9.6v72.96l-4.965.187-4.965.187.165-36.667zm221.587 35.837c-.175-.456-.242-11.34-.15-24.187l.168-23.357h10.24l.32 4.48.32 4.48 1.069-1.92c1.612-2.896 6.313-7.113 8.966-8.04 3.454-1.21 8.536.064 11.962 2.997 1.454 1.244 2.643 2.485 2.643 2.757 0 1.114-4.73 8.366-5.458 8.366-.432 0-1.18-.479-1.663-1.064-1.542-1.868-6.235-3.574-8.605-3.13-2.771.52-5.715 3.013-7.502 6.354-1.309 2.448-1.435 3.735-1.732 17.68l-.32 15.04-4.97.187c-3.62.136-5.056-.038-5.288-.643zm59.52 0c-.175-.456-.242-11.34-.15-24.187l.168-23.357 5.288-.186 5.288-.186-.168 24.186-.168 24.186-4.97.187c-3.62.136-5.056-.038-5.288-.643zm1.669-56.354c-4.93-2.515-1.316-10.728 4.797-10.902 2.665-.075 4.752 1.718 4.752 4.082 0 2.215-2.78 5.6-5.55 6.757-2.488 1.04-2.098 1.033-4 .063zM35.522 128.384c-.178-.177-2.186-.622-4.464-.99-2.278-.366-6.433-1.396-9.234-2.288-5.52-1.758-17.835-7.416-18.506-8.502-.53-.857-.752-26.875-.234-27.393.213-.214 3.071 1.273 6.35 3.305 8.338 5.166 14.948 8.324 21.48 10.264 4.685 1.391 6.965 1.675 13.922 1.736 7.683.066 8.594-.055 11.898-1.584 4.387-2.03 6.443-4.688 6.5-8.401.087-5.785-3.996-9.612-14.238-13.347-1.936-.706-4.096-1.539-4.8-1.851-.704-.312-4.16-1.62-7.68-2.906C13.11 67.877 3.085 58.267.648 42.044c-.877-5.837-.871-6.924.061-11.494 1.31-6.422 2.326-8.835 5.746-13.644C12.372 8.584 22.915 2.95 36.352.93c14.147-2.128 27.527-.647 44.22 4.895 3.11 1.032 6.782 2.452 8.16 3.155l2.504 1.278v24.294h-1.792c-.985 0-2.065-.247-2.4-.549-.699-.63-8.872-4.03-13.105-5.45-14.183-4.76-27.881-5.537-35.512-2.015-5.669 2.617-6.857 8.484-2.578 12.727 1.113 1.104 3.878 2.911 6.145 4.017 4.329 2.11 4.51 2.185 17.242 7.018 16.07 6.1 25.468 12.097 30.756 19.627 4.205 5.987 5.76 10.37 6.18 17.425.78 13.057-3.07 22.68-12.108 30.275-5.747 4.828-12.325 7.894-20.988 9.782-3.498.762-26.938 1.592-27.554.975zm101.154-1.011c-10.993-2.54-16.338-5.392-23.365-12.463-7.919-7.97-10.984-15.093-11.632-27.03-1.163-21.427 9.162-36.848 30.197-45.101 3.316-1.301 11.774-2.465 17.733-2.44 6.44.027 14.974 1.326 22.48 3.422 6.619 1.848 6.187.996 6.187 12.216 0 5.422-.269 10.026-.598 10.229-.328.203-1.724-.218-3.102-.936-7.8-4.066-21.809-5.318-29.037-2.595-10.035 3.779-14.965 11.704-14.514 23.334.271 7.01 2.126 11.612 6.4 15.884 7.595 7.59 19.544 8.747 34.723 3.36 3.504-1.243 6.597-2.009 6.898-1.708.3.3.466 4.819.368 10.04l-.178 9.495-4.204 1.456c-11.654 4.036-27.95 5.241-38.356 2.837zm278.64-.042c-21.393-4.75-34.796-20.99-34.8-42.167 0-26.335 18.48-44.833 44.8-44.833 15.06 0 26.748 5.679 35.34 17.17 5.214 6.975 7.953 15.457 8.296 25.69l.204 6.08-30.25.167-30.251.166.4 1.754c1.514 6.622 3.192 9.938 6.77 13.38 3.695 3.555 6.985 5.155 13.069 6.355 11.095 2.188 22.488-.57 33.667-8.15 2.005-1.36 3.949-2.471 4.32-2.471.44 0 .675 2.987.675 8.573v8.573l-3.26 2.092c-6.193 3.974-11.176 5.904-21.229 8.22-4.85 1.117-21.656.754-27.75-.6zm28.742-55.228c-.305-5.083-5.147-11.491-10.375-13.73-2.82-1.209-9.1-1.29-12.527-.162-5.307 1.746-9.797 6.953-10.854 12.59-.255 1.36-.51 2.615-.565 2.79-.086.273 31.981 1.125 33.82.9.351-.043.577-1.118.5-2.388zm103.178 56.072c-19.542-4.714-31.7-21.532-31.67-43.81.017-12.411 3.508-22.545 10.65-30.912 3.44-4.029 11.615-9.941 13.746-9.941.516 0 1.212-.257 1.546-.572 1.22-1.146 9.964-2.628 15.455-2.619 5.193.01 12.14 1.139 15.233 2.477 3.021 1.308 4.9 1.994 5.462 1.994.36 0 .669-8.671.77-21.6l.168-21.6h26.24l.32 61.44c.176 33.792.215 62.088.085 62.88-.234 1.44-.236 1.44-13.6 1.44h-13.365v-2.88c0-1.584-.191-2.88-.424-2.88-.233 0-1.813.89-3.51 1.98-5.575 3.577-11.265 5.07-19.007 4.986-3.75-.041-7.395-.214-8.1-.383zm24.32-20.337c1.76-.86 3.992-2.305 4.96-3.21l1.76-1.648V64.021l-1.44-.93c-6.005-3.884-15.49-4.867-21.597-2.24-6.386 2.748-10.365 9.335-11.556 19.132-1.116 9.18.51 16.78 4.978 23.25 4.403 6.375 14.938 8.494 22.895 4.605zm80.96 20.045a869.862 869.862 0 0 0-6.08-1.638c-6.879-1.83-13.608-5.758-18.907-11.041-5.173-5.156-7.841-9.545-10.318-16.972-1.283-3.85-1.492-5.741-1.483-13.44.01-8.124.18-9.461 1.82-14.333 6.376-18.935 22.238-30.147 42.648-30.147 19.97 0 35.854 11.278 41.46 29.44 1.773 5.741 2.7 11.194 2.7 15.878v3.962h-60.334l.379 2.76c1.739 12.688 14.196 20.726 29.987 19.349 8.098-.707 14.848-3.262 23.133-8.758 2.05-1.36 4.137-2.471 4.64-2.471.746 0 .915 1.524.915 8.244v8.244l-2.08 1.586c-4.798 3.659-14.607 7.74-21.92 9.12-5.763 1.087-22.898 1.227-26.56.217zm26.625-56.27c-.788-4.926-4.492-10.243-8.626-12.38-4.53-2.343-12.196-2.38-16.642-.08-4.29 2.217-9.037 9.308-9.037 13.497v1.582h34.724zm-489.591 54.74c-.217-.565-.394-28.615-.394-62.335 0-51.313.144-61.429.882-62.042.614-.509 4.76-.679 13.6-.558l12.718.174.167 25.76c.092 14.168.24 25.76.33 25.76.09 0 1.909-1.662 4.042-3.692 9.004-8.568 20.926-11.292 32.656-7.463 6.195 2.022 7.98 3.111 12.19 7.438 7.664 7.877 9.445 15.382 8.835 37.223-.207 7.428-.432 13.548-.498 13.602-.067.054-3.002.749-6.522 1.544-6.627 1.497-12.633 3.54-17.092 5.815-1.42.724-2.815 1.077-3.103.785-.287-.293-.618-8.74-.736-18.772-.241-20.631-.496-21.926-5.086-25.855-6.15-5.265-14.84-3.011-21.798 5.655l-3.051 3.8-.167 26.92-.167 26.92-13.206.173c-11.624.152-13.254.05-13.6-.853zm154.822.212c-.151-.447-.388-13.341-.526-28.653-.267-29.58-.307-29.965-3.499-34.4-2.182-3.034-4.905-4.219-9.542-4.153-5.73.08-9.513 2.47-14.575 9.203l-2.914 3.877v19.776c0 10.877-.216 19.776-.48 19.776s-1.344-.758-2.4-1.684c-5.112-4.482-13.754-8.387-21.482-9.706l-2.838-.485V41.912l13.6-.173 13.6-.173V52.58l3.779-3.413c3.411-3.082 7.054-5.283 12.541-7.58 1.056-.441 4.656-.938 8-1.103 16.113-.797 27.759 6.81 32.032 20.922 1.2 3.96 1.259 5.847 1.098 34.907l-.17 30.72-12.975.173c-10.046.134-13.037-.01-13.25-.64zm133.863.373c-.623-.624-.528-83.575.097-84.56.397-.624 3.623-.773 13.91-.64l13.394.174v85.12l-13.48.172c-7.415.095-13.68-.025-13.92-.266zm237.94-.373c-.17-.447-.236-19.677-.145-42.733l.166-41.92h26.88l.32 11.2.32 11.2 2.774-5.12c3.816-7.045 7.433-11.573 11.844-14.826 4.503-3.32 7.659-4.26 13.244-3.944 4.523.255 10.347 2.738 14.637 6.24l2.159 1.762-2.383 7.624c-3.942 12.608-4.996 15.648-5.544 15.987-.288.177-1.614-.352-2.947-1.177-13.762-8.519-22.166-5.296-30.491 11.694l-3.293 6.72-.32 18.88-.32 18.88-13.295.173c-10.288.134-13.365-.011-13.606-.64zm-232.463-96.36c-5.27-1.655-8.267-7.417-6.893-13.25 1.036-4.398 2.36-6.726 5.764-10.13 8.378-8.377 19.558-8.864 23.953-1.043 4.943 8.794-5.831 23.689-17.797 24.604-1.97.15-4.233.07-5.027-.18z" stroke-width=".64"/></svg>