<svg xmlns="http://www.w3.org/2000/svg" width="512" height="512" viewBox="0 0 511.99999 511.99999"><circle r="256" cx="256" cy="256" fill="#c4e0e1"/><path d="M501.013 326.318l-204.36-203.262-176.893 264.79L242.815 510.9h12.086c117.563 0 215.348-78.008 246.112-184.583z" fill="#b5cecf"/><path d="M119.76 216.446h78.008v170.3H119.76z" fill="#83b560"/><circle r="15.382" cx="159.313" cy="348.292" fill="#accd94"/><path d="M231.817 394.68c-8.79-1.1-17.58-4.395-24.171-9.889-2.198-2.197-6.593-5.493-7.691-8.79l-2.198-2.197v-145.03l2.198-2.198c2.197-2.197 5.493-6.592 7.69-7.69 1.1-1.1 39.554-43.949 42.85-47.245 3.297-4.395 7.691-10.987 8.79-15.382 2.198-4.395 2.198-6.592 7.691-29.665 1.099-4.395 2.198-6.593 3.296-7.691 2.198-2.198 4.395-3.296 10.987-3.296 4.395 0 6.593 0 9.889 2.197 6.592 3.296 12.086 9.888 14.283 17.58l1.099 2.197v9.888c0 10.987 0 17.58-1.099 25.27-1.099 10.988-4.395 21.975-7.69 30.765-1.1 2.197-1.1 3.296-1.1 3.296h75.812c5.493 1.098 9.888 3.296 14.283 7.69 4.395 4.395 6.592 9.889 6.592 15.383 0 5.493-2.197 10.987-6.592 15.382-3.296 3.296-6.592 5.493-9.889 6.592-2.197 1.099-2.197 1.099 0 1.099 1.1 0 1.1 0 1.1 1.098 0 0 0 1.099 1.098 1.099 1.099 0 4.395 2.197 6.592 3.296 5.494 4.395 8.79 10.987 8.79 18.678 0 5.494-2.198 10.987-6.592 15.382-4.395 4.395-8.79 6.592-14.284 7.691-2.197 0-3.296 1.099-3.296 1.099s1.099 0 2.198 1.099c6.592 2.197 12.085 8.79 14.283 16.48 1.099 2.198 1.099 7.691 0 10.987-2.198 9.889-10.987 16.481-20.876 17.58-1.098 0-2.197 0-2.197 1.099h1.099s2.197 1.098 3.296 1.098c6.592 3.296 10.987 9.889 12.086 16.481 2.197 10.987-4.395 21.974-15.382 25.27-4.395 1.1-1.1 1.1-65.923 1.1-38.455 2.196-65.923 2.196-67.022 2.196z" fill="#ffcc80"/><path d="M327.405 363.916c-1.098 0-3.296-1.1-4.395-2.198-3.296-3.296-2.197-9.888 2.198-12.086l1.099-1.098h30.764l-15.382 7.69c-6.593 4.395-13.185 7.692-14.284 7.692 1.099 0 1.099 0 0 0zm7.691-47.245c-2.197 0-4.395-2.198-5.493-4.395 0-1.099-1.099-1.099-1.099-3.296 0-3.296 1.099-5.494 4.395-6.592l1.099-1.1h30.764v1.1s-28.567 14.283-29.666 14.283c1.099 1.099 1.099 1.099 0 0zm7.691-46.146c-2.197 0-4.395-2.197-5.493-4.395-2.198-4.395 0-8.79 3.296-10.987l1.099-1.099h30.764s-28.567 14.284-29.666 15.382c1.099 1.099 1.099 1.099 0 1.099z" fill="#f2a25a"/></svg>