<svg xmlns="http://www.w3.org/2000/svg" viewBox="0 0 1006.2 1006.2" height="1006.2" width="1006.2"><circle r="503.1" cy="540" cx="949.9" fill="#c4e0e1" transform="translate(-446.8 -36.9)"/><path d="M980.2 663.2l-407-407-74.4 283.7-239.9 201.3 264.6 264.6c213-8.5 391.9-149.4 456.7-342.6z" fill="#b0c9ca"/><path d="M257.2 732.6c0-176.7 175.6-191.5 175.6-191.5H571s186.7 20.5 177.6 191.5c0 52.4-246.8 44.5-246.8 44.5s-244.6 6.8-244.6-44.5z" fill="#83b560"/><path d="M639 772.9V560.5c-9.1-4-18-7.2-26.1-9.8v108.6H388.3V551.1c-7.3 2.4-15.1 5.4-23.2 9v212.7c65.5 6.2 136.6 4.2 136.6 4.2s71.3 2.3 137.2-3.7v-.4z" fill="#4890b8"/><path d="M432.8 541.1l2-76.2h135.1l1.1 76.2s-13.9 14.8-68.6 14.8c-54.8 0-69.6-14.8-69.6-14.8z" fill="#ffcc80"/><path d="M570.2 479.6l-.2-14.7H434.8l-.5 18.6c18.5 22.1 41.4 37 66.3 37 26.4.1 50.6-16.6 69.6-40.9z" fill="#f2a25a"/><path d="M613 347.8c0-65.8-49.5-119.1-110.6-119.1-61.1 0-110.6 53.3-110.6 119.1s49.5 155.6 110.6 155.6c61.1 0 110.6-89.8 110.6-155.6z" fill="#ffcc80"/><path d="M612 332.1c-7.1-58.4-53.5-103.4-109.6-103.4-55.9 0-102.1 44.7-109.6 102.7 0 0 9.3-5.4 31.5-10.4 0 0 .5 17.1 8.5 17.1s34.2-5.3 69.5-5.3 52.4 5.3 66.1 5.3c11.3 0 13.3-11.5 13.6-15.6 21.4 6.1 30.3 12.4 30 9.6z" fill="#4890b8"/><path d="M444.2 322.7c-2.4 0-4.6-1.7-5-4.2-.5-2.8 1.3-5.5 4.1-6 1.2-.2 30.5-5.8 59.1-5.8 28.7 0 56.8 5.6 58 5.8 2.8.6 4.6 3.3 4 6-.6 2.8-3.3 4.6-6 4-.3-.1-28.4-5.6-56-5.6-27.7 0-56.9 5.6-57.2 5.6-.3.2-.7.2-1 .2z" fill="#84b5cf"/></svg>