<svg xmlns="http://www.w3.org/2000/svg" height="22" width="18.86" id="Слой_1"><path id="path2" d="M18.851 16.532l-.7-3.71a.478.478 0 0 0-.718-.32L14.2 14.45a.478.478 0 0 0 .28.886l1.263-.088c-1.206 1.62-3.021 2.286-5.103 2.457V7.09h1.04a1 1 0 0 0 .598.201 1.008 1.008 0 1 0 0-2.016 1 1 0 0 0-.599.202h-1.04V4.02A2.191 2.191 0 0 0 9.43 0a2.192 2.192 0 1 0-1.21 4.02v1.458H7.18a.999.999 0 0 0-.599-.202 1.008 1.008 0 1 0 0 2.016 1 1 0 0 0 .6-.2H8.22v10.614c-2.082-.171-3.897-.836-5.103-2.457l1.263.088a.478.478 0 0 0 .28-.886L1.426 12.5a.478.478 0 0 0-.716.321l-.702 3.71a.478.478 0 0 0 .848.382l.754-.973c1.475 2.388 3.794 4.388 6.47 4.907l1.012 1.012a.477.477 0 0 0 .676 0l1.012-1.012c2.675-.519 4.994-2.519 6.47-4.907l.753.973a.478.478 0 0 0 .848-.382zM9.43 1.614a.58.58 0 1 1-.002 1.16.58.58 0 0 1 .002-1.16zm0 0" stroke-width=".058" fill="#fff"/></svg>