<svg xmlns="http://www.w3.org/2000/svg" height="16" width="20.211" id="Capa_1"><path d="M20.211 11.96l-.002-.028v-.05c0-.279-.056-.545-.158-.787l-.968-5.034a.398.398 0 0 0-.076-.168V2.01c0-1.108-.902-2.01-2.01-2.01H3.212c-1.108 0-2.01.902-2.01 2.01v3.883a.398.398 0 0 0-.076.17l-.939 4.972a2.015 2.015 0 0 0-.187.847V16h.803v-1.797h18.603V16h.803v-4.021l.002-.02zM2.006 2.01c0-.665.541-1.207 1.206-1.207h13.785c.665 0 1.206.542 1.206 1.207v3.725H16.97a1.25 1.25 0 0 0 .005-.103V4.086c0-.673-.548-1.22-1.22-1.22H12.01c-.673 0-1.22.547-1.22 1.22v1.546c0 .035.001.069.004.103H9.415c.003-.034.005-.068.005-.103V4.086c0-.673-.547-1.22-1.22-1.22H4.456c-.673 0-1.22.547-1.22 1.22v1.546c0 .035.002.069.005.103H2.006zM.803 13.4v-1.518a1.23 1.23 0 0 1 1.229-1.229h16.145a1.23 1.23 0 0 1 1.229 1.229V13.4z" id="path2" fill="#fff" stroke-width=".1"/></svg>