<svg xmlns="http://www.w3.org/2000/svg" height="16" width="19.393" id="Capa_1"><path d="M19.393 11.636l-.002-.033v-1.057h-.005a2.248 2.248 0 0 0-1.276-1.92l-1.584-3.609a.426.426 0 0 0-.025-.048V2.223A2.226 2.226 0 0 0 14.278 0H5.113A2.226 2.226 0 0 0 2.89 2.223V4.97a.467.467 0 0 0-.025.048L1.272 8.629a2.248 2.248 0 0 0-1.267 1.917H0V16h.889v-2.655h17.613V16h.889v-4.342l.002-.022zM3.78 2.223c0-.736.598-1.334 1.334-1.334h9.165c.736 0 1.334.598 1.334 1.334v2.528h-2.4c.003-.037.005-.075.005-.113v-1.71a1.35 1.35 0 0 0-1.35-1.35H7.726c-.744 0-1.35.605-1.35 1.35v1.71c0 .038.003.076.006.113H3.779zM.889 12.456v-1.805c0-.749.61-1.359 1.359-1.359h14.895c.75 0 1.359.61 1.359 1.36v1.804z" id="path2" stroke-width=".111" fill="#fff"/></svg>