<svg xmlns="http://www.w3.org/2000/svg" height="65" viewBox="0 -47 46.595 48.75" width="62" id="svg4"><path d="M44.266-20.234h-2.33v-3.107h2.33a.777.777 0 0 0 .777-.776v-6.213a.777.777 0 0 0-.777-.777h-2.33v-1.553h2.33a.777.777 0 0 0 .777-.777v-6.213a.777.777 0 0 0-.777-.776H2.329a.777.777 0 0 0-.777.776v6.213c0 .429.348.777.777.777h2.33v1.553h-2.33a.777.777 0 0 0-.777.777v6.213c0 .428.348.776.777.776h2.33v3.107h-2.33a2.324 2.324 0 0 0-.777 4.516v11.792c0 .43.348.777.777.777h4.66a.777.777 0 0 0 .776-.777v-11.649H38.83v11.65c0 .428.347.776.776.776h4.66a.777.777 0 0 0 .777-.777v-11.792a2.325 2.325 0 0 0-.777-4.516zm-3.883 0H38.83v-3.107h1.553zm-31.065 0v-3.107h27.958v3.107zm31.065-10.873H38.83v-1.553h1.553zm-31.065 0v-1.553h27.958v1.553zm-6.213-7.766H43.49v4.66H3.105zm3.107 6.213h1.553v1.553H6.212zm-3.107 3.106H43.49v4.66H3.105zm3.107 6.213h1.553v3.107H6.212zm0 18.639H3.105v-10.873h3.107zm37.277 0h-3.106v-10.873h3.106zm.777-12.426H2.329a.777.777 0 0 1 0-1.553h41.937a.777.777 0 0 1 0 1.553zm0 0" id="path2" fill="#2980b9" stroke-width=".097"/></svg>