<svg xmlns="http://www.w3.org/2000/svg" height="65" width="64" id="Capa_1"><path d="M62.963 56.927h-.069V21.47a1.037 1.037 0 1 0-2.073 0v.069H3.179v-.07a1.037 1.037 0 1 0-2.073 0v35.457h-.07a1.037 1.037 0 1 0 0 2.073h2.212a1.037 1.037 0 1 0 0-2.073H3.18V37.989h57.642v18.938h-.07a1.037 1.037 0 1 0 0 2.073h2.212a1.037 1.037 0 1 0 0-2.073zm-2.142-33.314v6.774H3.179v-6.774zM3.179 35.916V32.46h57.642v3.456z" id="path2" fill="#2980b9" stroke-width=".138"/><path d="M6.566 28.037h7.74a1.037 1.037 0 1 0 0-2.074h-7.74a1.037 1.037 0 1 0 0 2.074z" id="path4" fill="#2980b9" stroke-width=".138"/><path d="M20.942 28.037h7.74a1.037 1.037 0 1 0 0-2.074h-7.74a1.037 1.037 0 1 0 0 2.074z" id="path6" fill="#2980b9" stroke-width=".138"/><path d="M35.317 28.037h7.741a1.037 1.037 0 1 0 0-2.074h-7.74a1.037 1.037 0 1 0 0 2.074z" id="path8" fill="#2980b9" stroke-width=".138"/><path d="M49.693 28.037h7.741a1.037 1.037 0 1 0 0-2.074h-7.74a1.037 1.037 0 1 0 0 2.074z" id="path10" fill="#2980b9" stroke-width=".138"/><path d="M19.905 18.153a1.037 1.037 0 1 0 2.073 0c0-1.018.369-1.479.879-2.117.594-.742 1.333-1.666 1.333-3.412s-.739-2.67-1.333-3.412c-.51-.638-.879-1.098-.879-2.117a1.037 1.037 0 1 0-2.073 0c0 1.746.74 2.67 1.333 3.412.51.638.879 1.099.879 2.117 0 1.019-.369 1.48-.879 2.117-.594.743-1.333 1.666-1.333 3.412z" id="path12" fill="#2980b9" stroke-width=".138"/><path d="M25.365 19.19c.573 0 1.037-.464 1.037-1.037 0-1.018.368-1.479.878-2.117.594-.742 1.333-1.666 1.333-3.412 0-1.383-.465-2.227-.871-2.808a1.037 1.037 0 0 0-1.7 1.188c.299.428.498.867.498 1.62 0 1.019-.369 1.48-.879 2.117-.594.743-1.333 1.666-1.333 3.412 0 .573.464 1.037 1.037 1.037z" id="path14" fill="#2980b9" stroke-width=".138"/><path d="M16.518 19.19c.573 0 1.037-.464 1.037-1.037 0-1.018.369-1.479.879-2.117.594-.742 1.333-1.666 1.333-3.412 0-1.383-.466-2.227-.872-2.808a1.037 1.037 0 0 0-1.7 1.188c.3.428.498.867.498 1.62 0 1.019-.368 1.48-.878 2.117-.594.743-1.333 1.666-1.333 3.412 0 .573.464 1.037 1.036 1.037z" id="path16" fill="#2980b9" stroke-width=".138"/><path d="M39.81 18.153a1.037 1.037 0 1 0 2.073 0c0-1.018.369-1.479.879-2.117.594-.742 1.333-1.666 1.333-3.412s-.74-2.67-1.333-3.412c-.51-.638-.879-1.098-.879-2.117a1.037 1.037 0 1 0-2.073 0c0 1.746.739 2.67 1.333 3.412.51.638.879 1.099.879 2.117 0 1.019-.369 1.48-.879 2.117-.594.743-1.333 1.666-1.333 3.412z" id="path18" fill="#2980b9" stroke-width=".138"/><path d="M45.27 19.19c.573 0 1.037-.464 1.037-1.037 0-1.018.368-1.479.878-2.117.594-.742 1.333-1.666 1.333-3.412 0-1.383-.465-2.227-.871-2.808a1.037 1.037 0 0 0-1.7 1.188c.299.428.498.867.498 1.62 0 1.019-.369 1.48-.879 2.117-.594.743-1.333 1.666-1.333 3.412 0 .573.464 1.037 1.037 1.037z" id="path20" fill="#2980b9" stroke-width=".138"/><path d="M36.423 19.19c.573 0 1.037-.464 1.037-1.037 0-1.018.369-1.479.879-2.117.594-.742 1.333-1.666 1.333-3.412 0-1.383-.466-2.227-.872-2.808a1.037 1.037 0 0 0-1.7 1.188c.3.428.498.867.498 1.62 0 1.019-.368 1.48-.878 2.117-.594.743-1.333 1.666-1.333 3.412 0 .573.464 1.037 1.036 1.037z" id="path22" fill="#2980b9" stroke-width=".138"/></svg>