<svg xmlns="http://www.w3.org/2000/svg" height="65" width="52" id="Capa_1"><path d="M26 54.167c-.598 0-1.083.485-1.083 1.083v8.667a1.083 1.083 0 0 0 2.166 0V55.25c0-.598-.485-1.083-1.083-1.083z" id="path2" fill="#2980b9" stroke-width=".135"/><path d="M34.522 52.677a1.083 1.083 0 0 0-1.884 1.07l.007.013 4.333 7.506a1.083 1.083 0 0 0 1.877-1.084z" id="path4" fill="#2980b9" stroke-width=".135"/><path d="M47.182 51.062l-7.505-4.334a1.083 1.083 0 0 0-1.096 1.87l.013.007 7.505 4.333a1.083 1.083 0 0 0 1.083-1.876z" id="path6" fill="#2980b9" stroke-width=".135"/><path d="M13.804 47.125a1.083 1.083 0 0 0-1.481-.396l-7.505 4.333a1.083 1.083 0 0 0 1.07 1.883l.013-.007 7.505-4.333c.519-.299.697-.961.398-1.48z" id="path8" fill="#2980b9" stroke-width=".135"/><path d="M18.96 52.28h-.002a1.083 1.083 0 0 0-1.48.397l-4.333 7.505a1.083 1.083 0 1 0 1.877 1.084l4.333-7.506c.3-.517.123-1.18-.395-1.48z" id="path10" fill="#2980b9" stroke-width=".135"/><path d="M27.083 14.11V7.486A6.506 6.506 0 0 0 32.5 1.083C32.5.485 32.015 0 31.417 0H20.583C19.985 0 19.5.485 19.5 1.083a6.506 6.506 0 0 0 5.417 6.403v6.624C10.999 14.706.017 26.153 0 40.083c0 .599.485 1.084 1.083 1.084H14.14c.587 6.551 6.375 11.386 12.927 10.798a11.91 11.91 0 0 0 10.798-10.798h13.053c.598 0 1.083-.485 1.083-1.084-.017-13.93-11-25.377-24.917-25.973zm-5.28-11.943h8.394a4.333 4.333 0 0 1-8.394 0zM26 49.833a9.764 9.764 0 0 1-9.69-8.666h19.38A9.764 9.764 0 0 1 26 49.833zM2.19 39c.589-13.15 11.726-23.332 24.876-22.744C39.39 16.808 49.258 26.675 49.81 39z" id="path12" fill="#2980b9" stroke-width=".135"/><path d="M17.995 21.114a20.7 20.7 0 0 0-8.005 6.031 1.083 1.083 0 0 0 1.685 1.363 18.525 18.525 0 0 1 7.163-5.397 1.084 1.084 0 0 0-.843-1.997z" id="path14" fill="#2980b9" stroke-width=".135"/></svg>