<svg xmlns="http://www.w3.org/2000/svg" height="65" width="66" id="Capa_1"><path id="path2" d="M65 12.748H1a1 1 0 0 0-1 1v6.862a1 1 0 0 0 1 1h7.018L2.352 53.826A.999.999 0 0 0 3.336 55h2.936a.998.998 0 0 0 .958-.718l7.656-26.116h34.506l7.656 26.116a.997.997 0 0 0 .958.718h2.938a1 1 0 0 0 .984-1.172L56.26 21.61H65c.552 0 1-.446 1-.998v-6.864a1 1 0 0 0-1-1zM5.524 53h-.996l5.52-31.39h4.678zm9.948-26.834l1.336-4.556H47.47l1.336 4.556zM59.75 53h-.998l-9.2-31.39h4.676zM64 19.61H2v-4.862h62z" fill="#2980b9" stroke-width="2"/></svg>