<svg xmlns="http://www.w3.org/2000/svg" height="65.23" width="72" id="Layer_1"><path d="M71.354 43.631a4.769 4.769 0 0 0-2.915-2.236c-1.24-.332-2.531-.162-3.566.439l-13.812 6.723c-2.147 1.073-4.314 1.073-9.062 1.073-4.643 0-11.731-1.172-11.803-1.183a1.199 1.199 0 1 0-.394 2.366c.298.05 7.353 1.217 12.197 1.217 4.981 0 7.482 0 10.123-1.321l13.877-6.757a2.365 2.365 0 0 1 1.82-.24 2.396 2.396 0 0 1 1.457 1.118c.32.556.406 1.202.241 1.822a2.414 2.414 0 0 1-1.153 1.477L52.139 58.227c-.034.023-3.496 2.203-11.34 2.203-6.803 0-17.312-5.791-17.463-5.873-.109-.055-2.712-1.327-7.736-1.327a1.2 1.2 0 1 0 0 2.4c4.364 0 6.613 1.05 6.618 1.05v-.001c.454.252 11.156 6.151 18.582 6.151 8.663 0 12.505-2.496 12.632-2.581l16.166-10.062a4.763 4.763 0 0 0 2.237-2.915 4.764 4.764 0 0 0-.481-3.641z" id="path8" fill="#2980b9"/><path d="M6 57.43c0-.992-.808-1.8-1.8-1.8s-1.8.808-1.8 1.8.808 1.8 1.8 1.8 1.8-.807 1.8-1.8z" id="path10" fill="#2980b9"/><path d="M15.6 38.831h9.6c1.4 0 3.78 1.786 5.88 3.36 2.633 1.975 5.12 3.84 7.32 3.84h7.199c1.823 0 2.728.827 2.752.848a1.197 1.197 0 0 0 1.696 0 1.2 1.2 0 0 0 0-1.697c-.158-.158-1.632-1.552-4.448-1.552H38.4c-1.4 0-3.78-1.786-5.88-3.36-2.633-1.975-5.12-3.84-7.32-3.84h-9.6a1.2 1.2 0 1 0 0 2.401z" id="path12" fill="#2980b9"/><path d="M8.4 31.631H1.2a1.2 1.2 0 1 0 0 2.4h7.2c.662 0 1.2.539 1.2 1.2V61.63c0 .661-.538 1.2-1.2 1.2H1.2a1.2 1.2 0 1 0 0 2.4h7.2c1.985 0 3.6-1.615 3.6-3.6V35.231c0-1.985-1.615-3.6-3.6-3.6z" id="path14" fill="#2980b9"/><path d="M47.349 0C40.733 0 35.35 5.383 35.35 12c0 1.726.353 3.374 1.049 4.898 3 6.565 8.752 13.497 10.444 15.464a.67.67 0 0 0 1.012 0c1.691-1.967 7.443-8.899 10.445-15.464A11.69 11.69 0 0 0 59.349 12c0-6.617-5.383-12-12-12zm0 18.233A6.24 6.24 0 0 1 41.116 12c0-3.437 2.796-6.234 6.233-6.234S53.583 8.563 53.583 12a6.24 6.24 0 0 1-6.234 6.233z" id="path2" fill="#2980b9"/></svg>