<svg xmlns="http://www.w3.org/2000/svg" height="32" width="28.646" id="Capa_1"><path d="M5.55 5.243c2.569 5.72 5.278 7.906 11.247 10.569.04-.128.08-.256.11-.392l2.624-.586a1.248 1.248 0 0 0 .947-1.49 1.245 1.245 0 0 0-1.49-.948l-2.024.452a9.94 9.94 0 0 0-.24-1.175l2.303-1.408a1.249 1.249 0 1 0-1.303-2.131l-1.945 1.19a11.307 11.307 0 0 0-1.127-1.7l1.958-1.958A1.25 1.25 0 0 0 14.843 3.9l-1.957 1.957a11.347 11.347 0 0 0-1.701-1.128l1.19-1.944a1.25 1.25 0 0 0-2.132-1.303l-1.41 2.303a9.852 9.852 0 0 0-1.172-.24l.452-2.023A1.25 1.25 0 1 0 5.675.978L5.09 3.602c-.245.055-.472.13-.69.214.48.366.887.839 1.152 1.427z" id="XMLID_207_" fill="#deb887" stroke-width=".066"/><path d="M28.486 29.056c-.133-.32-3.32-7.88-11.286-11.303-6.818-2.931-10.148-5.225-13.123-11.848a2.131 2.131 0 1 0-3.89 1.747c3.517 7.829 7.745 10.758 15.33 14.018 6.329 2.72 9.003 8.953 9.026 9.01a2.134 2.134 0 0 0 2.783 1.159 2.132 2.132 0 0 0 1.16-2.783z" id="XMLID_208_" fill="#deb887" stroke-width=".066"/></svg>