<svg xmlns="http://www.w3.org/2000/svg" height="22" width="15.96" id="Слой_1"><path id="path2" d="M7.658 16.563c-.264 0-.434.023-.536.046v3.424c.102.024.265.024.412.024 1.071.007 1.77-.583 1.77-1.833.008-1.087-.628-1.66-1.646-1.66zm0 0" fill="#f33" stroke-width=".27"/><path id="path4" d="M3.085 16.547c-.24 0-.404.024-.489.047v1.545c.101.023.226.031.395.031.63 0 1.017-.318 1.017-.854 0-.481-.333-.769-.923-.769zm0 0" fill="#f33" stroke-width=".27"/><path id="path6" d="M15.956 5.272a.422.422 0 0 0-.102-.28L11.612.148l-.003-.003a.429.429 0 0 0-.2-.124l-.023-.007A.412.412 0 0 0 11.287 0H.862A.864.864 0 0 0 0 .862v20.274c0 .476.388.864.862.864h14.236a.864.864 0 0 0 .862-.864V5.32a.378.378 0 0 0-.004-.048zM4.7 18.527c-.403.38-1 .551-1.7.551a3.08 3.08 0 0 1-.403-.023v1.871H1.424v-5.163a9.792 9.792 0 0 1 1.599-.109c.73 0 1.25.14 1.6.42.333.264.558.699.558 1.21 0 .514-.17.948-.482 1.243zm4.993 1.778c-.55.458-1.389.675-2.414.675-.612 0-1.048-.039-1.343-.077v-5.14a10.61 10.61 0 0 1 1.6-.109c.992 0 1.637.18 2.143.56.543.403.884 1.047.884 1.972 0 1.002-.366 1.692-.87 2.119zm4.846-3.64h-2.012v1.195h1.879v.962h-1.879v2.104H11.34v-5.233h3.199zM.863 14.647V.862h9.993v4.415c0 .238.193.43.432.43h3.81v8.94zm0 0" fill="#f33" stroke-width=".27"/><path id="path8" d="M12.406 9.271c-.025-.002-.633-.058-1.566-.058-.293 0-.587.005-.877.017a46.36 46.36 0 0 1-4.16-3.542c.015-.086.024-.153.03-.205.106-1.125-.012-1.884-.351-2.257-.222-.244-.549-.325-.89-.232-.21.056-.6.26-.726.677-.138.461.084 1.02.668 1.67.009.008.207.216.567.568-.234 1.114-.846 3.52-1.143 4.676-.697.373-1.278.821-1.728 1.336l-.03.034-.019.04c-.047.098-.268.603-.102 1.009a.688.688 0 0 0 .412.39l.052.014s.046.01.128.01c.36 0 1.249-.189 1.725-1.944l.116-.446C6.175 10.22 8.253 9.96 9.76 9.887a35.165 35.165 0 0 0 2.293 1.57l.025.014c.036.019.364.18.747.18.549 0 .95-.336 1.099-.923l.008-.04a1.101 1.101 0 0 0-.244-.873c-.423-.498-1.212-.541-1.282-.543zm-9.721 3.5a.032.032 0 0 1-.006-.013c-.036-.086.007-.295.07-.447.27-.304.596-.583.972-.833-.365 1.185-.898 1.287-1.036 1.293zM5.008 4.9c-.562-.626-.553-.935-.524-1.04.05-.174.274-.24.276-.24.113-.031.181-.026.243.041.137.152.255.61.21 1.446a9.307 9.307 0 0 1-.205-.207zm-.29 5.328l.01-.038h-.002c.281-1.102.687-2.715.92-3.752l.01.007v-.004c.754.711 1.912 1.75 3.298 2.832h-.015l.022.018c-1.305.11-2.864.368-4.243.936zm8.574.36c-.1.366-.29.416-.466.416a1.16 1.16 0 0 1-.444-.105 32.98 32.98 0 0 1-1.555-1.039h.013c.9 0 1.5.055 1.524.057.15.005.627.076.83.317a.444.444 0 0 1 .098.355zm0 0" fill="#f33" stroke-width=".27"/></svg>