<svg xmlns="http://www.w3.org/2000/svg" height="80" width="63.525" id="Capa_1"><path d="M62.664 54.05c-1.39-3.483-4.299-5.736-7.983-6.182-5.976-.723-12.577 3.303-18.107 11.045C24.171 76.277 12.36 77.454 9.034 77.398c-2.885-.046-4.76-.942-5.338-1.809-1.52-2.28 1.65-6.403 3.637-8.49a8.344 8.344 0 0 0 4.96 1.619 8.352 8.352 0 0 0 5.945-2.463L36.694 47.8c.483.052.97.081 1.463.081 3.589 0 6.963-1.397 9.5-3.935a13.347 13.347 0 0 0 3.935-9.5c0-3.589-1.397-6.962-3.935-9.5-5.238-5.238-13.761-5.238-19 0a13.347 13.347 0 0 0-3.934 9.5c0 .493.029.98.08 1.464L6.349 54.366a8.352 8.352 0 0 0-2.462 5.945c0 1.805.566 3.522 1.612 4.951-.716.749-1.75 1.913-2.673 3.27-2.902 4.275-2.304 6.982-1.292 8.5 1.2 1.801 3.989 2.91 7.458 2.966.094.002.189.002.286.002 2.964 0 7.597-.732 13.297-4.074 5.757-3.374 11.179-8.59 16.116-15.502 4.887-6.842 10.75-10.572 15.679-9.975 2.71.328 4.853 1.992 5.88 4.564 1.81 4.538-.02 10.764-4.896 16.655a102.442 102.442 0 0 0-4.208 5.428 1.3 1.3 0 0 0 2.11 1.52 99.938 99.938 0 0 1 4.1-5.29c5.492-6.635 7.477-13.84 5.309-19.276zM8.187 64.417a5.77 5.77 0 0 1-1.7-4.106c0-1.109.309-2.168.885-3.084l8.005 8.005a5.767 5.767 0 0 1-3.084.886 5.77 5.77 0 0 1-4.106-1.701zm22.31-22.31a10.764 10.764 0 0 1-3.174-7.66c0-.59.05-1.17.14-1.74L39.898 45.14c-.57.092-1.15.14-1.74.14a10.764 10.764 0 0 1-7.66-3.172zm0-15.322a10.801 10.801 0 0 1 7.66-3.168 10.8 10.8 0 0 1 7.662 3.168 10.763 10.763 0 0 1 3.173 7.661c0 2.894-1.127 5.615-3.173 7.661a10.837 10.837 0 0 1-3.104 2.173L28.323 29.89a10.84 10.84 0 0 1 2.173-3.104zm-1.84 17.161a13.386 13.386 0 0 0 5.036 3.178L17.32 63.498l-8.213-8.213L25.48 38.91a13.383 13.383 0 0 0 3.178 5.035z" id="path2" fill="#2980b9" stroke-width=".173"/><path d="M5.64 30.177c.665 0 1.34-.118 1.996-.368a5.597 5.597 0 0 0 3.138-2.959 5.597 5.597 0 0 0 .126-4.31L6.125 9.983l10.532-4.005 3.09 8.123a5.599 5.599 0 0 0-3.152.246 5.64 5.64 0 0 0-3.264 7.27 5.644 5.644 0 0 0 5.272 3.63c.665 0 1.34-.118 1.997-.367a5.597 5.597 0 0 0 3.137-2.959 5.598 5.598 0 0 0 .126-4.31L18.626 3.838a1.3 1.3 0 0 0-1.677-.753L3.986 8.015a1.3 1.3 0 0 0-.754 1.677l3.552 9.339a5.6 5.6 0 0 0-3.152.246 5.64 5.64 0 0 0-3.264 7.268 5.643 5.643 0 0 0 5.272 3.632zm15.724-9.32a3.014 3.014 0 0 1-1.689 1.592 3.038 3.038 0 0 1-3.914-1.757 3.037 3.037 0 0 1 2.832-4.112c1.224 0 2.38.745 2.84 1.955a3.014 3.014 0 0 1-.069 2.321zm-16.808.85a3.039 3.039 0 0 1 3.914 1.757 3.014 3.014 0 0 1-.068 2.321 3.014 3.014 0 0 1-1.69 1.593 3.037 3.037 0 0 1-3.914-1.757 3.038 3.038 0 0 1 1.758-3.914z" id="path4" fill="#2980b9" stroke-width=".173"/></svg>