<svg xmlns="http://www.w3.org/2000/svg" height="119.471" width="140" id="Слой_1"><path id="path2" d="M54.273 65.14c12.642-6.61 24.644-8.63 40.26-8.9 4.418-.076-5.563 10.717-6.834 11.79-17.516-7.218-29.63-1.632-44.534 7.681l11.108-10.57zM69.913 0c38.33 35.803 38.297 50.702-11.669 58.345C70.95 45.596 76.3 27.258 69.913 0zM93.2 69.126c-5.79 9.712-11.411 10.24-22.648 6.894 8.527-.502 11.586-.81 15.091-2.46-9.51 1.374-24.254-4.674-42.978 4.666 27.352-19.247 35.28-3.636 50.632-9.261-.042.063-.086.12-.129.18l.032-.019z" stroke-width=".554" fill="#333"/><path id="path4" d="M130.023 103.294h9.597l.38-2.7h-.522c-.016.068-.029.149-.05.213-.08.238-.167.451-.264.64-.1.192-.21.362-.33.507-.124.15-.264.28-.42.388-.71.494-4 .727-4.497-.18-.276-.512-.093-2.848-.093-3.573h1.466c.49 0 .88.091 1.17.272.31.193.5.48.573.86l.022.144.008.07h.593v-3.36h-.59a1.622 1.622 0 0 1-.108.596c-.075.185-.188.34-.338.461a1.41 1.41 0 0 1-.56.266 3.105 3.105 0 0 1-.756.081h-1.466c0-.94-.129-2.61.003-3.451a.872.872 0 0 1 .105-.308.64.64 0 0 1 .224-.226l.003-.002c.159-.092.409-.137.754-.137h1.773c.332 0 .624.027.875.082.262.056.482.144.66.262.18.12.331.278.451.471.114.185.2.402.257.653.015.054.026.109.033.165h.506l-.175-2.157h-9.27v.483c.092-.013.217.003.31.015.16.017.303.055.43.114a.981.981 0 0 1 .336.254c.09.105.158.225.204.36.044.132.066.275.066.431 0 2.078.17 4.648 0 6.663-.018.335-.116.6-.294.794-.18.194-.43.306-.752.337-.124.017-.19.017-.315.017v.495zm-47.866 0h3.07v-.5l-.272-.01a.528.528 0 0 1-.148-.02c-.2-.05-.372-.083-.443-.209-.268-.475.347-1.712.502-2.278h3.79l.492 1.286c.039.086.068.169.087.249.022.093.033.182.033.267a.677.677 0 0 1-.158.456.794.794 0 0 1-.569.26l-.23.003v.495h4.866v-.501l-.165-.007a.976.976 0 0 1-.413-.127 1.593 1.593 0 0 1-.373-.297l-.002-.001a1.782 1.782 0 0 1-.387-.643l-3.207-8.385h-2.114l-2.912 8.377a1.801 1.801 0 0 1-.238.476 1.25 1.25 0 0 1-.348.332 1.686 1.686 0 0 1-.32.192.83.83 0 0 1-.33.077l-.21.008v.5zm6.023-3.638l-3.05.021 1.732-4.975 1.569 4.97zM0 93.814c.096-.003.201.009.298.014.162.01.308.043.436.1.134.062.247.15.339.263.088.11.154.231.197.366.043.132.064.275.064.429v6.654c0 .158-.022.303-.065.435a1.05 1.05 0 0 1-.204.36.935.935 0 0 1-.337.253 1.2 1.2 0 0 1-.431.098c-.091.004-.192.016-.283.011v.497h5.11v-.497c-.097.006-.203-.008-.3-.013a1.228 1.228 0 0 1-.433-.095.967.967 0 0 1-.343-.253l-.003-.002a1.116 1.116 0 0 1-.204-.363 1.343 1.343 0 0 1-.067-.43v-2.836h1.127c.043.152.087.304.128.457.142.423.288.81.439 1.16.15.35.304.658.46.924.154.263.323.5.505.713.18.21.373.394.578.55h.002c.204.157.429.293.674.407.246.115.516.21.807.283.296.076.62.133.971.173.36.04.747.062 1.162.067h.146v-.562a2.419 2.419 0 0 1-.79-.263 3.102 3.102 0 0 1-.46-.308 5.807 5.807 0 0 1-.491-.446 5.137 5.137 0 0 1-.646-.842c-.224-.35-.458-.77-.701-1.259a5.97 5.97 0 0 1-.411-.942l-.083-.241c.119-.02.24-.037.355-.064a.622.622 0 0 1 .085-.02l.079-.012c.283-.074.537-.17.761-.29.225-.12.424-.264.595-.433a2.376 2.376 0 0 0 .665-1.238c.026-.134.046-.264.059-.385a3.57 3.57 0 0 0 .02-.376c0-.258-.036-.497-.106-.717a2.06 2.06 0 0 0-.316-.612 2.196 2.196 0 0 0-.531-.5 3.346 3.346 0 0 0-.77-.378 5.266 5.266 0 0 0-1-.24 8.652 8.652 0 0 0-1.225-.079H0v.482zm5.338 4.38H3.775c.005-1.214.033-2.448.014-3.66a.62.62 0 0 1 .222-.502c.127-.106.306-.168.536-.187l.073-.011.104-.006h.796a1.478 1.478 0 0 1 .741.199c.147.074.279.16.394.262.117.103.217.221.3.353.084.13.152.28.206.45.05.161.088.34.112.537.013.059.023.13.029.21.007.083.01.176.01.28 0 .314-.043.598-.13.848a1.79 1.79 0 0 1-.4.666c-.181.189-.393.33-.637.423a2.24 2.24 0 0 1-.807.138zm9.035 3.934c.361.317.78.594 1.256.832.76.375 1.611.563 2.553.563.482 0 .935-.047 1.358-.14a5.09 5.09 0 0 0 1.19-.42l.003-.002c.3-.145.58-.313.84-.503a5.135 5.135 0 0 0 1.305-1.384 4.836 4.836 0 0 0 .676-1.738c.056-.31.085-.634.085-.97 0-.23-.014-.463-.041-.698a6.783 6.783 0 0 0-.127-.726 4.935 4.935 0 0 0-.334-.956 4.752 4.752 0 0 0-1.207-1.58 5.028 5.028 0 0 0-.855-.585 5.719 5.719 0 0 0-.991-.428 6.55 6.55 0 0 0-1.481-.29 6.812 6.812 0 0 0-.84 0 6.359 6.359 0 0 0-1.396.256 5.528 5.528 0 0 0-1.711.866 4.794 4.794 0 0 0-1.208 1.345 4.77 4.77 0 0 0-.391.828 5.192 5.192 0 0 0-.243.914c-.053.314-.08.64-.08.979 0 .536.062 1.036.184 1.499.122.46.305.887.55 1.28.245.39.547.744.905 1.058zm1.675-.434c-.536-.786-.803-1.92-.803-3.404 0-.1.005-.23.015-.395.01-.166.024-.35.04-.552l.002-.01c.051-.405.12-.774.207-1.107.088-.338.194-.64.32-.905a3.53 3.53 0 0 1 .435-.707 2.51 2.51 0 0 1 .55-.51h.003c.202-.134.418-.235.645-.301.23-.067.468-.101.717-.101a2.427 2.427 0 0 1 1.71.685c.155.15.297.322.424.517.127.193.24.406.333.64a4.9 4.9 0 0 1 .233.756c.093.41.162.804.207 1.183.047.383.07.753.07 1.107 0 .44-.033.853-.099 1.236a5.127 5.127 0 0 1-.3 1.07 4.293 4.293 0 0 1-.47.862 2.941 2.941 0 0 1-.613.637 2.585 2.585 0 0 1-.715.386 2.357 2.357 0 0 1-.78.132 2.35 2.35 0 0 1-1.189-.31c-.354-.203-.668-.507-.942-.909zm8.9-8.362v.479h.046l.19.035c.038.015.082.028.118.046a2.31 2.31 0 0 1 .53.362l.005.006c.084.083.165.177.242.282a3 3 0 0 1 .215.34c.964 1.709 1.895 3.44 2.843 5.16v1.6c0 .152-.022.295-.065.426a.988.988 0 0 1-.535.607 1.312 1.312 0 0 1-.418.108c-.12.018-.172.017-.295.017v.495h5.08v-.497c-.103.012-.208-.002-.31-.014a1.29 1.29 0 0 1-.42-.112 1 1 0 0 1-.532-.608 1.35 1.35 0 0 1-.065-.423v-1.586l2.677-4.873.173-.31c.089-.145.174-.269.254-.37.084-.109.165-.194.241-.256.268-.217.518-.351.748-.402.117-.019.192-.033.31-.033v-.478h-3.145v.478c.117 0 .187-.002.301.015l.07.006.067.014c.173.039.307.11.403.216.103.113.068.235.068.407 0 .762-2.024 3.722-2.504 4.592l-1.995-3.67-.178-.305a1.677 1.677 0 0 1-.13-.316 1.122 1.122 0 0 1-.048-.308c0-.16.046-.293.137-.4a.676.676 0 0 1 .356-.213l.054-.015a.535.535 0 0 1 .076-.01c.087-.01.174-.022.263-.01l.001-.482h-4.829zm11.207 9.962h3.069v-.5l-.271-.01a.528.528 0 0 1-.148-.02c-.201-.05-.373-.083-.444-.209-.267-.475.347-1.712.502-2.278h3.79l.492 1.286a1.19 1.19 0 0 1 .12.515.677.677 0 0 1-.158.457.796.796 0 0 1-.57.26l-.229.003v.495h4.866v-.501l-.166-.007a.976.976 0 0 1-.413-.127 1.581 1.581 0 0 1-.372-.297l-.002-.001a1.812 1.812 0 0 1-.388-.643l-3.207-8.385h-2.114l-2.911 8.377a1.801 1.801 0 0 1-.239.476 1.25 1.25 0 0 1-.347.332 1.67 1.67 0 0 1-.32.192.83.83 0 0 1-.33.077l-.21.008v.5zm6.023-3.638l-3.05.021 1.732-4.975 1.568 4.97zm6.887 3.638h8.877l.373-2.7h-.5c-.017.055-.032.117-.05.169-.06.19-.125.362-.195.517-.07.158-.145.297-.224.42a2.247 2.247 0 0 1-.964.845c-.909.276-3.608.389-3.5-.746-.008-.047-.005-.087-.016-.138 0-2.025-.163-4.745.001-6.685.017-.34.113-.608.288-.803.177-.198.426-.314.747-.346.126-.016.197-.016.325-.016v-.479H49.08v.481c.107-.013.217.001.322.014.16.017.306.055.432.115a.99.99 0 0 1 .337.253c.09.106.159.226.204.36.044.133.066.276.066.431 0 2.079.17 4.65 0 6.665-.018.336-.116.6-.294.794-.18.194-.432.307-.756.338a2.195 2.195 0 0 1-.325.016v.495zm17.944 0h3.241v-.495a2.35 2.35 0 0 1-.301-.014 1.287 1.287 0 0 1-.422-.113.975.975 0 0 1-.327-.252c-.215-.54-.114-6.12-.263-7.416l3.096 8.29h1.606l3.068-8.303c0 2.19.084 4.48-.014 6.65 0 .227-.048.426-.143.595-.097.17-.24.306-.43.405a1.197 1.197 0 0 1-.465.144 2.73 2.73 0 0 1-.308.014v.495h5.093v-.495c-.122 0-.185 0-.304-.016a1.024 1.024 0 0 1-.242-.047.877.877 0 0 1-.202-.095 1.23 1.23 0 0 1-.256-.179.897.897 0 0 1-.185-.234 1.035 1.035 0 0 1-.1-.275 1.461 1.461 0 0 1-.032-.313c0-1.822-.208-5.028.001-6.661.003-.08.01-.155.019-.221.01-.072.026-.14.044-.204v-.003c.02-.064.046-.124.075-.18a.795.795 0 0 1 .104-.154.82.82 0 0 1 .151-.13c.049-.033.105-.066.168-.097a.79.79 0 0 1 .2-.107.991.991 0 0 1 .252-.056c.12-.015.184-.017.307-.017v-.478h-5.248v.478c.112 0 .165.001.274.015a.618.618 0 0 1 .152.026c.185.059.329.15.427.27.392.716-2.04 6.078-2.403 7.21l-2.276-5.968-.125-.304a1.38 1.38 0 0 1-.085-.472c0-.187.056-.345.167-.474a.9.9 0 0 1 .445-.266c.109-.036.318-.046.43-.034v-.482H67.01v.48c.098-.014.225.002.324.014.164.018.31.057.434.116a.982.982 0 0 1 .335.26 1.1 1.1 0 0 1 .191.36c.041.13.062.272.062.423v6.655c0 .153-.021.296-.064.426a.982.982 0 0 1-.54.607 1.362 1.362 0 0 1-.43.108 2.094 2.094 0 0 1-.312.017v.497zm28.2-9.48c.096-.003.202.009.298.014.163.01.308.043.436.1.135.062.247.15.34.263.088.11.154.231.197.366.043.132.065.275.065.429v6.654c0 .158-.022.303-.066.435a1.048 1.048 0 0 1-.203.36.933.933 0 0 1-.338.253 1.2 1.2 0 0 1-.431.098c-.091.004-.192.016-.283.011v.497h5.11v-.497c-.097.006-.203-.008-.3-.013a1.225 1.225 0 0 1-.432-.095.967.967 0 0 1-.344-.253l-.003-.002a1.105 1.105 0 0 1-.203-.363 1.343 1.343 0 0 1-.067-.43v-2.836h1.127c.043.152.087.304.128.457.142.423.287.81.438 1.16.151.35.304.658.46.924.154.263.323.5.505.713.18.21.373.394.578.55h.002c.204.157.43.293.674.407.246.115.516.21.807.283.296.076.62.133.971.173.36.04.747.062 1.162.067h.146v-.562a2.645 2.645 0 0 1-.318-.071 2.41 2.41 0 0 1-.474-.192c-.147-.08-.3-.183-.458-.308a5.807 5.807 0 0 1-.491-.446 5.136 5.136 0 0 1-.647-.842 13.76 13.76 0 0 1-.7-1.259 5.956 5.956 0 0 1-.412-.942l-.082-.241c.118-.02.239-.037.355-.064a.602.602 0 0 1 .085-.02l.079-.012c.283-.074.537-.17.761-.29a2.55 2.55 0 0 0 .595-.433c.17-.17.311-.356.421-.563.111-.205.192-.43.244-.674a3.61 3.61 0 0 0 .079-.761 2.36 2.36 0 0 0-.106-.718 2.085 2.085 0 0 0-.316-.611 2.206 2.206 0 0 0-.531-.5 3.346 3.346 0 0 0-.77-.379 5.259 5.259 0 0 0-1-.238 8.653 8.653 0 0 0-1.224-.08H95.21v.481zm5.339 4.38h-1.564c.005-1.214.033-2.448.014-3.66 0-.212.075-.38.223-.502.127-.106.306-.168.536-.187l.073-.011.103-.006h.796a1.486 1.486 0 0 1 .741.199c.148.074.28.16.395.262.117.103.218.221.3.353.084.13.153.28.206.45.05.161.088.34.112.537.013.059.023.13.03.21.006.083.008.176.008.28 0 .314-.043.598-.129.848a1.79 1.79 0 0 1-.4.666c-.182.189-.394.33-.637.423-.241.092-.51.138-.807.138zm7.547-4.862v.479c.13 0 .198 0 .325.016.163.017.307.056.433.115.134.064.247.15.339.258l.002.002c.087.106.154.225.198.358.042.13.064.273.064.426 0 2.078.17 4.65-.001 6.665-.017.336-.113.6-.289.793-.177.194-.425.307-.746.338a2.09 2.09 0 0 1-.31.017v.495h5.175v-.495c-.127 0-.199 0-.325-.016a1.421 1.421 0 0 1-.437-.109 1.021 1.021 0 0 1-.547-.604 1.328 1.328 0 0 1-.066-.43c0-2.033-.164-4.721 0-6.664.017-.337.112-.604.283-.798.174-.198.422-.315.74-.35.102-.014.207-.028.31-.015l.002-.48h-5.15zm7.738 0v.479c.129 0 .198 0 .326.016.166.017.313.055.442.112.137.062.253.146.347.253l.003.002c.09.106.16.226.205.36.045.132.067.275.067.432 0 2.034.164 4.721-.001 6.665-.017.336-.115.6-.294.794-.18.195-.433.308-.758.337a2.154 2.154 0 0 1-.323.017v.495h3.317v-.495c-.128 0-.195 0-.32-.016a1.317 1.317 0 0 1-.427-.11c-.456-.21-.504-.607-.504-1.062v-6.774l6.578 8.458h1.65c0-2.602-.173-5.793 0-8.321.02-.323.075-.607.33-.825a1.28 1.28 0 0 1 .24-.162 1.03 1.03 0 0 1 .456-.16c.101-.013.205-.027.307-.013l.001-.481h-3.305v.481c.106-.014.219 0 .325.014.172.017.322.054.452.111.14.061.257.146.352.254l.003.002c.312.363.144 5.892.144 6.748l-5.896-7.61-3.716-.001z" stroke-width=".554" fill="#333"/><path transform="scale(.55423)" id="polygon6" fill="#333" d="M.026 196.972v-.553h252.573v.553z"/><path id="path8" d="M45.51 117.504l-1.476-2.565-.394-.085v-.328h1.712v.328l-.518.079.924 1.757.21.498.236-.498.873-1.757-.538-.08v-.327h1.495v.328l-.426.079-1.37 2.564v1.509l.734.072v.321h-2.178v-.321l.715-.066v-1.508zm5.22-3.017h.722l1.593 4.525.407.066v.321h-1.731v-.321l.544-.066-.308-.97h-1.915l-.308.97.564.066v.321h-1.555v-.321l.407-.066zm.413 1.05l-.164-.577-.157.59-.663 2.105h1.672zm5.588 3.934c-.48 0-.89-.103-1.23-.311a1.983 1.983 0 0 1-.77-.875c-.174-.377-.262-.818-.262-1.325 0-.49.103-.923.308-1.299a2.22 2.22 0 0 1 .846-.875 2.362 2.362 0 0 1 1.206-.312c.337 0 .741.053 1.214.158l.216.039-.065 1.18h-.44l-.164-.832c-.061-.053-.167-.097-.318-.135a2.354 2.354 0 0 0-.554-.056c-.28 0-.53.08-.748.24-.219.159-.39.394-.514.704-.125.31-.187.683-.187 1.115 0 .411.055.785.164 1.121.109.336.275.605.498.804.223.199.498.298.826.298.232 0 .41-.02.535-.059a.907.907 0 0 0 .318-.17l.275-.643.414.052-.158.931a1.738 1.738 0 0 0-.406.092 4.48 4.48 0 0 1-.456.115c-.146.03-.329.043-.548.043zm3.55-4.538l-.52-.079v-.328h1.784v.328l-.564.08v1.763h2.309v-1.764l-.531-.079v-.328h1.757v.328l-.518.08v4.078l.518.066v.321h-1.764v-.321l.538-.066v-1.908h-2.31v1.908l.571.066v.321H59.75v-.321l.53-.066v-4.079zm7.358-.06l-1.128.04-.23 1.37h-.432l.11-1.757h4.087l.078 1.758h-.413l-.217-1.37-1.134-.04v4.138l.93.065v.322h-2.504v-.322l.852-.065zm11.006 4.598c-.481 0-.891-.103-1.23-.311a1.98 1.98 0 0 1-.77-.875c-.175-.377-.263-.818-.263-1.325 0-.49.103-.923.308-1.299.205-.375.488-.667.846-.875a2.362 2.362 0 0 1 1.207-.312c.336 0 .74.053 1.213.158l.217.039-.066 1.18h-.44l-.163-.832c-.062-.053-.168-.097-.318-.135a2.354 2.354 0 0 0-.555-.056c-.28 0-.529.08-.747.24-.22.159-.39.394-.515.704-.125.31-.187.683-.187 1.115 0 .411.055.785.164 1.121.11.336.276.605.498.804.224.199.499.298.827.298.231 0 .41-.02.534-.059a.907.907 0 0 0 .318-.17l.276-.643.412.052-.157.931a1.738 1.738 0 0 0-.407.092 4.398 4.398 0 0 1-.455.115c-.146.03-.329.043-.547.043zm3.548-4.538l-.531-.079v-.328h1.882v.328l-.65.08v4.078l1.693-.059.386-1.102.4.06-.229 1.488H81.65v-.321l.544-.066v-4.079zm6.683 4.519c-.642 0-1.115-.172-1.42-.515-.303-.343-.455-.876-.455-1.597v-2.407l-.466-.079v-.328h1.752v.328l-.558.086v2.472c0 .595.106 1.023.318 1.286.213.262.517.393.915.393s.696-.14.895-.42c.2-.279.3-.686.3-1.22v-2.511l-.552-.086v-.328h1.528v.328l-.479.08v2.485c0 .682-.161 1.191-.485 1.528-.324.336-.754.505-1.293.505zm4.087-4.519l-.538-.079v-.328h.885c.149 0 .337-.009.564-.026.21-.017.366-.026.466-.026.604 0 1.035.095 1.295.282.26.188.39.464.39.827 0 .31-.09.577-.268.8a1.176 1.176 0 0 1-.735.42c.42-.01.75.09.99.295.241.206.361.486.361.84 0 .441-.156.802-.468 1.082-.313.28-.83.42-1.551.42-.158 0-.308-.008-.453-.02-.34-.014-.544-.02-.61-.02h-.872v-.321l.544-.066v-4.08zm.695 1.744c.061.004.186.007.374.007h.36c.307 0 .538-.085.696-.255.157-.17.236-.413.236-.728 0-.306-.079-.53-.236-.673-.158-.142-.427-.213-.807-.213a4.77 4.77 0 0 0-.485.026l-.138.013v1.824zm0 2.355c.1.035.328.052.683.052.441 0 .762-.09.96-.272.2-.181.299-.443.299-.784 0-.336-.087-.58-.259-.734-.173-.153-.451-.23-.836-.23-.447 0-.729.005-.846.014v1.954zm-19.113-1.495h-2.65v-.479h2.65z" stroke-width=".554" fill="#333"/></svg>