<svg xmlns="http://www.w3.org/2000/svg" height="80" width="71.999" id="Capa_1"><path id="path2" d="M71.522 4.242a1.201 1.201 0 0 0-1.053-.195L59.074 7.303A7.617 7.617 0 0 0 48.57 5.282a7.6 7.6 0 0 0-1.715 1.572L36.309 4.04a1.203 1.203 0 0 0-.62 0L18.012 8.756 1.53 4.046A1.202 1.202 0 0 0 0 5.2V70c0 .535.355 1.006.87 1.154l16.8 4.8c.21.06.43.061.64.005L36 71.242l17.69 4.717a1.232 1.232 0 0 0 .638-.005l16.8-4.8A1.2 1.2 0 0 0 71.999 70V5.2c0-.377-.176-.73-.477-.957zm-21.62 3.035A5.204 5.204 0 0 1 52.8 6.4a5.226 5.226 0 0 1 5.22 5.219 5.211 5.211 0 0 1-.878 2.899L52.8 21.035l-4.342-6.518a5.227 5.227 0 0 1 1.445-7.24zM69.6 69.095l-15.61 4.46-17.68-4.715a1.203 1.203 0 0 0-.619 0l-17.68 4.715-15.61-4.46V6.79l15.27 4.362c.21.061.43.061.64.006L36 6.442l9.644 2.573a7.612 7.612 0 0 0 .817 6.834l5.34 8.016a1.2 1.2 0 0 0 1.998 0l5.34-8.015a7.593 7.593 0 0 0 .979-6.35l9.481-2.709v62.304z" fill="#2980b9" stroke-width=".141"/><path id="path4" d="M16.166 59.866l5.34-8.016a7.603 7.603 0 0 0 1.282-4.23c0-4.202-3.419-7.62-7.62-7.62a7.6 7.6 0 0 0-4.23 1.281 7.572 7.572 0 0 0-3.242 4.847 7.572 7.572 0 0 0 1.133 5.722l5.34 8.016a1.2 1.2 0 0 0 1.997 0zm-5.34-9.347a5.186 5.186 0 0 1-.777-3.92 5.184 5.184 0 0 1 2.22-3.32 5.206 5.206 0 0 1 2.899-.88 5.225 5.225 0 0 1 5.22 5.22 5.211 5.211 0 0 1-.879 2.9l-4.341 6.517z" fill="#2980b9" stroke-width=".141"/><circle r="2.4" id="ellipse6" cy="49.42" cx="3.917" transform="rotate(-13.286)" fill="#2980b9" stroke-width=".141"/><circle r="2.4" id="ellipse8" cy="23.031" cx="48.811" transform="rotate(-13.286)" fill="#2980b9" stroke-width=".141"/><path id="path10" d="M57.6 34a3.604 3.604 0 0 1-3.6-3.6v-3.6h-2.4v3.6c0 3.308 2.691 6 6 6h3.6c1.984 0 3.6 1.615 3.6 3.6 0 1.984-1.616 3.6-3.6 3.6H36c-3.309 0-6 2.691-6 6 0 3.308 2.691 6 6 6h12c1.984 0 3.6 1.615 3.6 3.6 0 1.984-1.616 3.6-3.6 3.6H14.4v2.4H48c3.308 0 6-2.692 6-6 0-3.309-2.692-6-6-6H36a3.604 3.604 0 0 1-3.6-3.6c0-1.985 1.615-3.6 3.6-3.6h25.2c3.308 0 6-2.692 6-6 0-3.309-2.692-6-6-6z" fill="#2980b9" stroke-width=".141"/><path id="path12" d="M57.951 24.751a1.2 1.2 0 0 0-.351.849v3.6a1.2 1.2 0 0 0 1.2 1.2h4.8a1.2 1.2 0 0 0 1.2-1.2v-3.6c0-.318-.126-.624-.352-.849l-2.4-2.4a1.199 1.199 0 0 0-1.697 0zm4.448 1.346V28H60v-1.903l1.2-1.2z" fill="#2980b9" stroke-width=".141"/><path id="path14" d="M38.4 23.2h1.2v2.4H42v-2.4h1.2a1.2 1.2 0 0 0 1.137-1.58l-2.4-7.2a1.2 1.2 0 0 0-2.276-.001l-2.4 7.2a1.2 1.2 0 0 0 1.138 1.58zm2.4-4.606l.735 2.206h-1.47z" fill="#2980b9" stroke-width=".141"/><path id="path16" d="M62.337 54.02a1.2 1.2 0 0 0-2.276 0l-2.4 7.2a1.2 1.2 0 0 0 1.138 1.58H60v2.4h2.4v-2.4h1.2a1.2 1.2 0 0 0 1.138-1.58zM61.2 58.194l.736 2.206h-1.47z" fill="#2980b9" stroke-width=".141"/><path id="path18" d="M13.257 25.277L15.6 28.4l-.96 1.28 1.92 1.44 2.64-3.52 2.64 3.52 1.92-1.44-3.6-4.8c-.453-.605-1.468-.605-1.92 0L17.1 26.4l-2.94-3.92a1.201 1.201 0 0 0-1.959.055l-4.8 7.2 1.997 1.33z" fill="#2980b9" stroke-width=".141"/><path id="path20" d="M32.4 35.2v3.6a1.2 1.2 0 0 0 1.2 1.2h4.8a1.2 1.2 0 0 0 1.2-1.2v-3.6c0-.318-.126-.624-.352-.849l-2.4-2.4a1.198 1.198 0 0 0-1.697 0l-2.4 2.4a1.2 1.2 0 0 0-.351.849zm2.4.496l1.2-1.2 1.2 1.2V37.6h-2.4z" fill="#2980b9" stroke-width=".141"/><path id="path22" d="M28.8 23.2H30v2.4h2.4v-2.4h1.2a1.2 1.2 0 0 0 1.138-1.58l-2.4-7.2a1.199 1.199 0 0 0-2.277 0l-2.4 7.2A1.202 1.202 0 0 0 28.8 23.2zm2.4-4.606l.735 2.206h-1.47z" fill="#2980b9" stroke-width=".141"/></svg>