<svg xmlns="http://www.w3.org/2000/svg" height="80" width="82.476" id="svg8"><path d="M77.66 13.94H4.815a.876.876 0 0 0-.875.875v44.389c0 .483.392.875.875.875H77.66a.876.876 0 0 0 .875-.875V14.815a.875.875 0 0 0-.875-.875zm-.876 44.388H5.691V15.691h71.093z" id="path2" fill="#2980b9" stroke-width=".175"/><path d="M78.633 10H3.843A3.847 3.847 0 0 0 0 13.843v46.333a3.847 3.847 0 0 0 3.843 3.843h25.976l-1.385 3.354H22.87a1.313 1.313 0 0 0 0 2.627h36.736a1.313 1.313 0 1 0 0-2.627h-5.564l-1.385-3.354h25.976a3.847 3.847 0 0 0 3.843-3.843V13.843A3.848 3.848 0 0 0 78.633 10zM51.2 67.374H31.275l1.385-3.355h17.155zm28.649-7.197c0 .67-.546 1.216-1.216 1.216H3.843c-.67 0-1.216-.546-1.216-1.216V13.843c0-.67.545-1.217 1.216-1.217h74.79c.67 0 1.216.546 1.216 1.217z" id="path4" fill="#2980b9" stroke-width=".175"/></svg>