<svg xmlns="http://www.w3.org/2000/svg" height="32.001" width="32.812" id="svg2"><path id="path817" d="M1.555 31.918c-.46-.22-.648-.267-1.064-.264-.329.002-.416-.027-.47-.158-.04-.095-.034-.11.114-.302.231-.301.564-.504 1.372-.838.685-.282.803-.34 1.104-.534.245-.158.744-.607.78-.7.017-.044.059-.088.093-.097.09-.024.823-.874.872-1.01.011-.031.035-.057.053-.057.027 0 .354-.398.481-.585.018-.027.085-.105.149-.173.257-.276.48-.544.503-.602a.2.2 0 0 1 .099-.092c.041-.017.16-.117.262-.223.18-.183.191-.206.272-.526.094-.377.193-.613.365-.868.064-.096.117-.209.117-.25 0-.042.03-.218.065-.392.093-.45.112-.704.071-.924-.045-.24-.193-.576-.273-.62-.034-.017-.061-.056-.061-.085 0-.029-.079-.144-.175-.255-.317-.366-.42-.57-.444-.882a.685.685 0 0 1 .067-.413c.13-.3.133-.404.022-.637-.052-.11-.11-.201-.13-.201-.018 0-.034-.021-.034-.047 0-.025-.044-.13-.099-.234-.19-.362-.113-.698.264-1.163.502-.618 1.042-.824 1.61-.616.123.046.246.088.273.094.027.006.154.055.28.108.128.053.277.108.331.123l.132.037c.141.04.228.054.43.069.324.023.552-.066.805-.315.231-.228.334-.429.334-.654 0-.172-.053-.375-.098-.375-.014 0-.034-.042-.045-.093a.528.528 0 0 0-.12-.202.593.593 0 0 1-.1-.128c0-.01-.28-.302-.622-.648-.342-.346-.688-.719-.768-.828a1.603 1.603 0 0 0-.17-.209c-.015-.006-.026-.032-.026-.059a.586.586 0 0 0-.062-.17c-.1-.201-.234-.626-.323-1.031-.1-.463-.146-1.51-.08-1.858.073-.375.166-.639.3-.846a1.28 1.28 0 0 0 .132-.237c0-.017.014-.032.032-.032.017 0 .067-.033.11-.074.18-.171.466-.338.886-.516.146-.061.157-.075.223-.286.22-.699.766-1.387 1.315-1.653.368-.179.634-.175.99.012.179.093.259.203.49.668.104.209.203.385.219.39.016.007.029.03.029.052 0 .023.044.091.099.152a.448.448 0 0 1 .099.147c0 .05.453.65.532.705.034.024.062.062.062.084 0 .052.435.484.487.484.02 0 .05.02.065.044.053.088.338.253.57.332.31.104.609.098.779-.017.063-.043.124-.111.135-.152a.462.462 0 0 1 .146-.175c.226-.18.528-.731.648-1.187.026-.1.07-.343.095-.54.055-.409.032-.637-.104-1.041-.108-.322-.396-.93-.44-.93-.02 0-.033-.01-.03-.024.013-.045-.043-.174-.074-.174-.017 0-.031-.017-.031-.039 0-.042-.448-.942-.502-1.008a.29.29 0 0 1-.044-.115 4.14 4.14 0 0 0-.084-.324c-.105-.356-.105-.957 0-1.37.287-1.118 1.096-1.935 2.133-2.15.036-.007.181-.023.323-.035.251-.02.259-.024.363-.156.633-.8 1.232-1.19 1.824-1.186.263.002.373.02.484.078a.26.26 0 0 0 .086.036c.02-.015.33.16.369.207.024.028.062.052.085.052.023 0 .13.095.24.211.242.26.253.3.32 1.192.09 1.174.204 1.816.42 2.362.094.239.136.31.185.316a.463.463 0 0 1 .073.023c.233.091.633.133.94.098.129-.014.18-.044.328-.188.195-.19.356-.426.507-.745.132-.278.205-.507.409-1.271.333-1.251.61-1.846 1.096-2.354.42-.44.879-.675 1.558-.8.318-.059.891-.069 1.107-.02l.293.067a2.5 2.5 0 0 1 .504.223c.048.033.102.06.12.06.062 0 .473.407.561.556.15.255.178.39.204 1.013.014.327.044.664.067.75l.04.154.22.05c.121.027.287.058.368.07.082.01.171.025.199.032.027.007.109.023.181.034.073.012.147.025.165.03l.132.035c.246.065.472.202.686.415.122.123.223.244.223.27 0 .025.013.06.03.077.077.078.201.558.237.915.078.77-.085 1.544-.438 2.083-.07.106-.127.206-.127.223 0 .017-.02.03-.045.03-.025 0-.065.024-.09.053-.056.07-.34.247-.509.32a4.122 4.122 0 0 1-.578.172c-.072.016-.898.187-.965.2a3.844 3.844 0 0 0-.341.127c-.298.121-.562.308-.608.431a.314.314 0 0 1-.107.125c-.051.033-.105.131-.156.283-.207.62.07 1.152.665 1.276l.156.033c.115.025.445.047 1.01.068.945.036 1.324.068 1.53.13.03.009.092.023.137.031.31.055.72.278.911.494.184.208.275.32.26.32-.006 0 .027.1.074.223.104.273.14.763.076 1.036-.134.572-.547 1.062-1.143 1.355-.329.162-.487.29-.583.468-.069.13-.073.178-.073.831v.694l-.123.25a1.5 1.5 0 0 1-.369.485 3.6 3.6 0 0 1-.34.293 5.235 5.235 0 0 0-.23.16l-.23.166c-.052.036-.164.13-.248.207-.14.13-.18.146-.446.193-.29.052-1.075.049-1.366-.005-.44-.08-.914-.21-1.47-.4a11 11 0 0 0-.382-.125 1.809 1.809 0 0 1-.181-.068 1.657 1.657 0 0 0-.18-.067 5.978 5.978 0 0 1-.33-.114 14.103 14.103 0 0 0-.694-.249 4.306 4.306 0 0 1-.165-.05 1.98 1.98 0 0 0-.198-.05 2.568 2.568 0 0 1-.165-.037 45.627 45.627 0 0 0-.132-.034 3.478 3.478 0 0 0-.364-.016 2.026 2.026 0 0 0-.971.216c-.225.104-.248.124-.326.29-.11.234-.14.447-.09.655.022.091.051.166.065.166.014 0 .035.045.046.1.02.096.417.527.487.527.018 0 .065.03.105.068.04.037.214.136.387.22.172.083.355.172.405.198.05.026.09.038.09.027 0-.01.041.002.091.027.05.026.3.095.553.154.255.06.538.141.63.182.154.067.576.437.576.504 0 .028.28.593.322.651a.138.138 0 0 1 .025.067c0 .018.021.112.046.21.152.601-.207 1.213-.922 1.57-.132.066-.66.252-.66.232 0-.007-.036 0-.08.018-.07.026-.39.068-.612.08-.113.005-.25.238-.368.622-.154.503-.2.62-.246.62-.024 0-.075.04-.114.09-.178.226-.596.45-.974.521a3.434 3.434 0 0 1-1.272-.064 2.898 2.898 0 0 1-.149-.033l-.247-.064c-.1-.026-.368-.103-.595-.17l-.462-.137c-.027-.008-.102-.097-.165-.197a1.884 1.884 0 0 0-.206-.27c-.049-.05-.09-.103-.09-.12-.002-.041-.17-.217-.209-.217a.797.797 0 0 1-.184-.135 1.945 1.945 0 0 0-.318-.222c-.286-.149-.91-.405-1.107-.454-.352-.087-.464-.104-.691-.104-.415 0-.698.09-1.01.322-.297.221-.326.267-.301.479.022.188.16.51.22.51.017 0 .032.02.032.043 0 .049.3.354.348.354.017 0 .094.072.17.16.075.088.19.185.254.216a.38.38 0 0 1 .172.17c.03.064.092.146.138.181.045.036.074.066.064.066-.01 0 .012.085.049.19.112.318.048.68-.176.987-.265.363-.644.58-1.296.742a3.08 3.08 0 0 1-.617.084l-.282.02-.23-.143c-.59-.366-.94-.485-1.018-.345a.57.57 0 0 1-.053.083c-.01.009-.103.116-.208.237-.32.37-.763.659-1.164.758a2.74 2.74 0 0 1-.953.008 2.78 2.78 0 0 1-.87-.379c-.212-.137-.257-.154-.38-.14a2.014 2.014 0 0 0-.656.245.377.377 0 0 1-.118.064.55.55 0 0 0-.143.077c-.134.09-.396.194-.677.271-.437.12-.66.23-.86.428-.112.112-.449.553-.476.625-.018.047-.047.085-.064.085s-.139.138-.272.306c-.327.414-.688.786-.986 1.016-.504.388-.513.399-.908 1.18-.207.408-.314.583-.376.618-.386.216-.49.248-.87.267-.205.01-.432.026-.505.035-.328.042-.364.039-.561-.056z" fill="#deb887" stroke-width=".033"/></svg>