<svg xmlns="http://www.w3.org/2000/svg" height="31.999" width="22.441" id="Capa_1"><path d="M.445 21.773c.98-.19 1.758-.652 2.314-1.373 2.92-3.752 6.13-2.56 9.166-.711 2.75 1.343 3.613 1.535 5.023.125 1.405-1.297 2.803-1.758 4.414-1.472a2.4 2.4 0 0 1 .323.072 11.224 11.224 0 0 0-1.708-2.965 4.455 4.455 0 0 0 1.903-3.66v-.561a4.496 4.496 0 0 0-4.491-4.491h-2.246V3.93c.929 0 1.684-.756 1.684-1.684v-.562C16.827.756 16.072 0 15.143 0h-7.86C6.355 0 5.6.756 5.6 1.684v.562c0 .928.756 1.684 1.684 1.684v8.014a11.204 11.204 0 0 0-7.272 9.852c.191-.006.344-.013.416-.019l.018-.004zM17.95 11.79c0 .537-.388.987-.905 1.09a11.205 11.205 0 0 0-1.902-.935v-1.839h1.684c.62 0 1.123.504 1.123 1.123zm-.561-3.93a3.372 3.372 0 0 1 3.368 3.37v.56a3.342 3.342 0 0 1-1.53 2.816c-.127-.13-.262-.251-.396-.375a11.095 11.095 0 0 0-.285-.256c-.14-.12-.28-.242-.425-.356a2.239 2.239 0 0 0 .952-1.829v-.56a2.248 2.248 0 0 0-2.246-2.246h-1.684V7.86zM6.722 2.247v-.562c0-.31.252-.561.561-.561h7.86c.31 0 .561.252.561.561v.562a.562.562 0 0 1-.56.561H7.282a.562.562 0 0 1-.56-.561z" id="path4" fill="#deb887" stroke-width=".066"/><path d="M22.09 19.689c-.365-.128-.67-.212-.889-.236-1.308-.234-2.336.12-3.475 1.17-2.017 2.017-3.642 1.369-6.34.05-3.126-1.9-5.486-2.48-7.74.416-.726.94-1.732 1.543-2.987 1.786l-.002-.01a3.646 3.646 0 0 1-.657.054 11.18 11.18 0 0 0 5.173 8.992.56.56 0 0 0 .302.088h11.476c.107 0 .212-.03.302-.088a11.185 11.185 0 0 0 4.838-12.223z" id="path6" fill="#deb887" stroke-width=".066"/></svg>