<svg xmlns="http://www.w3.org/2000/svg" height="65" width="52.198" id="Capa_1"><path id="path2" d="M47.967 22.812h-.88V5.022A5.027 5.027 0 0 0 42.066 0h-.33a5.027 5.027 0 0 0-5.022 5.023v17.79h-21.23V5.022A5.027 5.027 0 0 0 10.462 0h-.33A5.027 5.027 0 0 0 5.11 5.023v17.79h-.876A4.237 4.237 0 0 0 0 27.044v17.127c0 7.781 6.33 14.11 14.111 14.11h3.446v5.713c0 .555.45 1.005 1.004 1.005h15.076c.555 0 1.005-.45 1.005-1.005v-5.713h3.447c7.781 0 14.11-6.33 14.11-14.11V27.045a4.237 4.237 0 0 0-4.232-4.233zm-9.245-17.79a3.017 3.017 0 0 1 3.013-3.013h.33a3.017 3.017 0 0 1 3.014 3.014v17.79h-6.357zm-31.604 0a3.017 3.017 0 0 1 3.014-3.013h.331a3.017 3.017 0 0 1 3.014 3.014v17.79H7.118zm25.515 57.969H19.566v-4.71h13.067zm17.556-18.82c0 6.671-5.428 12.1-12.1 12.1H14.111c-6.674 0-12.102-5.429-12.102-12.1V27.042c0-1.225.999-2.224 2.224-2.224h43.734c1.226 0 2.222.999 2.222 2.224z" fill="#2980b9" stroke-width="2.009"/><path id="path4" d="M26.1 31.387c-4.712 0-8.543 3.831-8.543 8.542 0 4.712 3.831 8.543 8.542 8.543 4.71 0 8.543-3.831 8.543-8.543 0-4.71-3.832-8.542-8.543-8.542zm0 15.076a6.541 6.541 0 0 1-6.534-6.534 6.541 6.541 0 0 1 6.533-6.533 6.541 6.541 0 0 1 6.534 6.533 6.541 6.541 0 0 1-6.534 6.534z" fill="#2980b9" stroke-width="2.009"/></svg>