<svg xmlns="http://www.w3.org/2000/svg" height="16" width="14.635" id="Слой_1"><path id="path2" d="M13.32 3.466h-1.85V3.06A3.063 3.063 0 0 0 8.41 0H5.49a3.065 3.065 0 0 0-3.029 2.624A2.904 2.904 0 0 0 0 5.49a2.904 2.904 0 0 0 2.43 2.861V16h3.18v-.938H3.368V13.91h1.74v-.938h-1.74v-4.62a2.904 2.904 0 0 0 2.43-2.86A2.904 2.904 0 0 0 3.41 2.635 2.126 2.126 0 0 1 5.49.937h2.92c1.17 0 2.122.953 2.122 2.123v.406H8.68L7.366 6.88V16h7.269V6.943zm-.947 4.046H9.721v-.938h2.652zm0 0" stroke-width=".031" fill="#fff"/></svg>