<svg xmlns="http://www.w3.org/2000/svg" height="20" width="18.182" id="Capa_1"><path d="M.455 16.818h3.182v2.728A.44.44 0 0 0 4.09 20h2.372a.448.448 0 0 0 .455-.454v-2.728h7.173a.442.442 0 0 0 .327-.128.442.442 0 0 0 .128-.327v-1.818a.441.441 0 0 0-.128-.326.442.442 0 0 0-.327-.128H6.917v-1.677h4.83c1.894 0 3.44-.577 4.638-1.732s1.797-2.646 1.797-4.475c0-1.827-.6-3.318-1.797-4.474C15.187.578 13.64 0 11.747 0H4.091a.444.444 0 0 0-.327.128.444.444 0 0 0-.128.326V9.39H.455A.45.45 0 0 0 0 9.843v2.117a.44.44 0 0 0 .128.327.441.441 0 0 0 .327.127h3.182v1.677H.455a.442.442 0 0 0-.327.128.442.442 0 0 0-.128.326v1.818a.44.44 0 0 0 .128.327.441.441 0 0 0 .327.128zM6.917 3.026h4.546c1.004 0 1.813.293 2.429.88.615.588.923 1.355.923 2.301 0 .948-.308 1.715-.923 2.302-.616.587-1.425.88-2.43.88H6.918z" id="path2" stroke-width=".039" fill="#fff"/></svg>