<svg xmlns="http://www.w3.org/2000/svg" height="120" width="109.793" id="Слой_1"><path id="path2" d="M105.276 72.728L90.824 76.6l-10.628-6.136V49.536L90.824 43.4l14.452 3.872a3.587 3.587 0 1 0 1.856-6.93l-7.52-2.015 5.932-3.426a3.588 3.588 0 0 0-3.588-6.214l-5.933 3.425 2.014-7.52a3.586 3.586 0 0 0-2.535-4.394 3.586 3.586 0 0 0-4.394 2.535l-3.872 14.452-10.627 6.136-18.125-10.464v-12.27l10.58-10.58a3.59 3.59 0 0 0-5.073-5.075l-5.507 5.507V3.588a3.589 3.589 0 0 0-7.176 0v6.85l-5.506-5.506a3.59 3.59 0 0 0-5.073 5.076l10.579 10.58v12.269L33.184 43.32l-10.627-6.136-3.873-14.452a3.587 3.587 0 1 0-6.93 1.859l2.015 7.52-5.932-3.425A3.588 3.588 0 0 0 4.249 34.9l5.932 3.426-7.52 2.016a3.587 3.587 0 1 0 1.856 6.93L18.97 43.4l10.627 6.136v20.928L18.97 76.6 4.517 72.728a3.585 3.585 0 0 0-4.394 2.535 3.59 3.59 0 0 0 2.538 4.394l7.52 2.016L4.249 85.1a3.588 3.588 0 0 0 3.588 6.214l5.932-3.425-2.015 7.52a3.587 3.587 0 1 0 6.93 1.859l3.873-14.452 10.627-6.136 18.124 10.464v12.27l-10.579 10.58a3.59 3.59 0 0 0 5.073 5.075l5.506-5.507v6.85a3.589 3.589 0 0 0 7.176 0v-6.85l5.507 5.507a3.59 3.59 0 0 0 5.073-5.076l-10.58-10.58v-12.27L76.609 76.68l10.627 6.136 3.872 14.452a3.587 3.587 0 1 0 6.93-1.859l-2.015-7.52 5.933 3.425a3.588 3.588 0 0 0 3.588-6.214l-5.933-3.426 7.521-2.016a3.587 3.587 0 0 0-1.857-6.93zm-68.504-19.05L47.72 60l-10.948 6.322zm14.536 25.18L40.36 72.536l10.948-6.321zm0-25.073L40.36 47.464l10.948-6.322zm7.176-12.643l10.949 6.322-10.95 6.321zm0 37.716V66.215l10.949 6.321zM73.02 66.322L62.07 60l10.95-6.322zm0 0" fill="#fff" stroke-width=".234"/><path id="path4" d="M78.729 26.299a4.274 4.274 0 1 1-8.547 0 4.274 4.274 0 0 1 8.547 0zm0 0" fill="#fff" stroke-width=".234"/><path id="path6" d="M22.455 60a4.274 4.274 0 1 1-8.547 0 4.274 4.274 0 0 1 8.547 0zm0 0" fill="#fff" stroke-width=".234"/><path id="path8" d="M95.885 60a4.274 4.274 0 1 1-8.547 0 4.274 4.274 0 0 1 8.547 0zm0 0" fill="#fff" stroke-width=".234"/><path id="path10" d="M40.265 26.299a4.274 4.274 0 1 1-8.548 0 4.274 4.274 0 0 1 8.548 0zm0 0" fill="#fff" stroke-width=".234"/><path id="path12" d="M39.938 93.701a4.274 4.274 0 1 1-8.547 0 4.274 4.274 0 0 1 8.547 0zm0 0" fill="#fff" stroke-width=".234"/><path id="path14" d="M78.402 93.701a4.274 4.274 0 1 1-8.547 0 4.274 4.274 0 0 1 8.547 0zm0 0" fill="#fff" stroke-width=".234"/></svg>