<svg xmlns="http://www.w3.org/2000/svg" id="Слой_1" width="16" height="9.129"><path d="M15.915 8.245a1.1 1.1 0 0 0-.054-.105c-.277-.5-.808-1.113-1.591-1.84l-.016-.018-.009-.008-.008-.008h-.009a10.14 10.14 0 0 1-.675-.683c-.172-.222-.21-.447-.116-.675.067-.172.316-.536.75-1.091.227-.295.408-.53.54-.708.962-1.278 1.378-2.094 1.25-2.45l-.049-.083c-.034-.05-.12-.096-.258-.137a1.301 1.301 0 0 0-.533-.02l-2.4.016a.31.31 0 0 0-.166.004l-.109.025-.041.021-.033.025a.362.362 0 0 0-.092.087.573.573 0 0 0-.083.146 13.618 13.618 0 0 1-.892 1.874 17.96 17.96 0 0 1-.566.896 4.35 4.35 0 0 1-.433.558 2.91 2.91 0 0 1-.317.287c-.095.073-.166.103-.216.092a8.762 8.762 0 0 1-.142-.033.547.547 0 0 1-.187-.204.907.907 0 0 1-.096-.325 3.709 3.709 0 0 1-.025-.737c.005-.173.008-.29.008-.35 0-.212.004-.44.012-.688l.021-.587c.006-.144.009-.297.009-.458 0-.161-.01-.287-.03-.38a1.28 1.28 0 0 0-.087-.266.447.447 0 0 0-.17-.2.957.957 0 0 0-.28-.112A5.585 5.585 0 0 0 7.698 0C6.665-.009 6 .057 5.707.201a1.122 1.122 0 0 0-.317.25c-.1.122-.114.19-.042.2.334.05.57.17.709.358l.05.1c.038.073.077.2.116.383.039.184.064.386.075.609.028.405.028.752 0 1.041-.028.289-.054.514-.08.675a1.35 1.35 0 0 1-.212.575.143.143 0 0 1-.041.041.618.618 0 0 1-.225.042c-.078 0-.172-.039-.284-.117a1.997 1.997 0 0 1-.345-.32 4.283 4.283 0 0 1-.404-.571A9.98 9.98 0 0 1 4.24 2.6l-.133-.241a19.674 19.674 0 0 1-.342-.68 12.937 12.937 0 0 1-.382-.862.553.553 0 0 0-.2-.266L3.14.526a.6.6 0 0 0-.133-.071.888.888 0 0 0-.192-.054L.533.418C.3.418.142.47.058.576l-.033.05A.272.272 0 0 0 0 .759a.66.66 0 0 0 .05.225A27.21 27.21 0 0 0 1.137 3.25c.392.728.732 1.314 1.02 1.758.29.444.583.864.884 1.257.3.395.498.648.595.759.098.111.174.194.23.25l.207.2c.134.133.33.293.588.478.258.187.544.37.858.55.314.18.679.328 1.096.442.416.114.822.16 1.216.137h.958c.194-.016.342-.078.441-.183l.033-.041a.55.55 0 0 0 .063-.155.82.82 0 0 0 .03-.229 2.764 2.764 0 0 1 .053-.645c.042-.191.089-.336.142-.433a1.045 1.045 0 0 1 .32-.367.557.557 0 0 1 .067-.03c.134-.043.29 0 .471.13.18.131.35.292.508.483.159.192.349.407.57.646.223.239.418.416.584.533l.166.1c.112.067.256.128.434.183.178.056.333.07.466.042l2.133-.033c.21 0 .375-.035.491-.104.117-.07.186-.146.208-.23a.646.646 0 0 0 .005-.283 1.152 1.152 0 0 0-.058-.22zm0 0" id="path2" stroke-width=".128" fill="#fff"/></svg>