<svg xmlns="http://www.w3.org/2000/svg" id="Capa_1" width="32" height="32"><path id="path2" d="M3.738 17.62c-.913-1.426-1.825-3.594-1.37-5.134.229-.741.856-1.254 1.54-1.254.343 0 .742.114 1.084.399.343.285.628.684.856 1.084.114.17.228.342.342.456.57-.913 1.312-1.711 2.225-2.453a7.48 7.48 0 0 1-1.712-.798c-.97-.628-2.167-1.027-3.25-1.027-.913 0-2.624.285-3.252 2.339-.57 1.768.057 5.36 2.054 8.042.684.912 1.71 1.996 3.137 2.566a7.677 7.677 0 0 1-.913-3.25c-.285-.286-.513-.628-.741-.97z" fill="#deb887" stroke-width=".57"/><path id="path4" d="M16.57 26.802c-2.737 0-5.532-.57-7.756-1.71-.171.227-.228.398-.228.627 0 1.483 3.992 2.281 7.928 2.281 3.935 0 7.927-.798 7.927-2.281 0-.172-.057-.4-.228-.57-2.11 1.083-4.905 1.653-7.642 1.653z" fill="#deb887" stroke-width=".57"/><path id="path6" d="M16.742 5.015c-.97 0-1.768.399-1.768 1.597h3.479c.057-1.198-.742-1.597-1.711-1.597z" fill="#deb887" stroke-width=".57"/><path id="path8" d="M31.685 9.292c-.684-.114-1.94-.228-2.68.057-1.027.4-1.484 1.255-2.054 1.94-.456.57-.513.456-1.94.456-.74-.742-1.596-1.426-2.509-1.94.97-.284 1.54-.627 1.54-1.026 0-.912-3.25-1.654-7.243-1.654-3.993 0-7.244.742-7.244 1.654 0 .342.514.684 1.426.97 2.396.684 6.046.513 6.046.513s-1.711 1.084-7.871.627c-2.395 1.826-4.05 4.45-4.05 7.415-.057 5.418 5.761 7.87 11.465 7.87 5.76 0 11.52-2.452 11.52-7.87 0-.684-.113-1.312-.227-1.94.285-.227.456-.627.456-.627.228-.399 1.198-3.992 2.224-5.133.342-.399.742-.627 1.084-.798.456-.285.513-.457.057-.514z" fill="#deb887" stroke-width=".57"/></svg>