<svg xmlns="http://www.w3.org/2000/svg" height="32" width="32.473" id="Capa_1"><path d="M18.07 12.578a.708.708 0 0 1-1.156-.65l.028-.163c0-.586-.36-1.24-.706-1.722-.346.482-.706 1.136-.706 1.722.031.28-.096.613-.343.753-.244.14-.54.176-.765.003-.422-.323-1.038-.497-1.549-.586.096.585.305 1.298.717 1.71.262.262 1.295.542 2.691.542 1.397 0 2.43-.28 2.693-.542.41-.411.618-1.128.716-1.71-.542.092-1.199.282-1.62.642z" id="path2" fill="#deb887" stroke-width=".066"/><path d="M30.074 11.337L19.018 4.704A4.936 4.936 0 0 0 16.475 4h-.477c-.895 0-1.775.243-2.543.704L2.581 11.23a2.254 2.254 0 0 0-1.103 1.948c0 .182.021.359.06.53-.146.047-.289.11-.427.187A2.168 2.168 0 0 0 0 15.802v.624c0 1.725.92 3.35 2.399 4.237l11.056 6.633a4.936 4.936 0 0 0 2.543.704h.562c.83 0 1.653-.212 2.381-.613l10.972-6.033a4.943 4.943 0 0 0 2.56-4.33v-1.45a4.968 4.968 0 0 0-2.4-4.237zm-18.48-.687a.71.71 0 0 1 .499-.206c.033-.019 1.087-.002 2.164.405.366-1.26 1.347-2.272 1.48-2.407a.706.706 0 0 1 1 0c.135.135 1.127 1.16 1.489 2.434 1.026-.411 2.088-.432 2.243-.432h.003a.704.704 0 0 1 .706.706c0 .234-.034 2.322-1.206 3.494-.862.863-2.869.956-3.69.956-.822 0-2.828-.093-3.69-.956-1.173-1.172-1.207-3.26-1.207-3.494 0-.188.076-.367.21-.5zm16.287 7.375l-8.906 5.089a4.944 4.944 0 0 1-2.452.65h-.525a4.936 4.936 0 0 1-2.543-.704L2.581 16.537a.706.706 0 1 1 .727-1.21l10.874 6.524c.55.33 1.176.503 1.816.503h.525c.614 0 1.218-.16 1.752-.466l8.906-5.088a.705.705 0 1 1 .7 1.225z" id="path8" fill="#deb887" stroke-width=".066"/></svg>