<svg xmlns="http://www.w3.org/2000/svg" id="Слой_1" width="22.728" height="20"><path d="M22.728 20s-.044-4.302-.307-4.748c-.392-.665-1.303-1.121-2.995-1.828-1.684-.705-2.224-1.3-2.224-2.572 0-.764.515-.514.742-1.914.093-.58.548-.008.635-1.334 0-.528-.248-.66-.248-.66s.125-.782.174-1.383c.062-.75-.377-2.684-2.716-2.684-2.34 0-2.78 1.935-2.717 2.684.049.601.174 1.383.174 1.383s-.247.132-.247.66c.087 1.325.541.754.635 1.334.226 1.4.74 1.15.74 1.914 0 .865-.249 1.417-.94 1.903 3.683 1.844 4.177 2.219 4.177 3.867V20zm-11.11-5.937c-2.248-.939-2.966-1.731-2.966-3.428 0-1.019.685-.686.987-2.553.125-.773.732-.012.847-1.779 0-.704-.33-.878-.33-.878s.168-1.042.233-1.845C10.473 2.581 9.886 0 6.766 0S3.062 2.581 3.144 3.58c.065.803.233 1.845.233 1.845s-.33.174-.33.878c.116 1.767.722 1.006.847 1.78.301 1.865.988 1.532.988 2.552 0 1.697-.72 2.489-2.967 3.428-.684.286-1.915.73-1.915 1.798V20h15.789v-3.104c0-.973-1.917-1.89-4.17-2.833zm0 0" id="path2" fill="#2980b9" stroke-width=".284"/></svg>