<svg xmlns="http://www.w3.org/2000/svg" height="13.593" width="42" id="Layer_1"><path transform="scale(.042)" id="polygon9" fill="#00579f" d="M484.018 5.679l-50.666 313.305h-81.01L403.011 5.679z"/><path d="M30.534.56A8.384 8.384 0 0 0 27.482 0c-3.36 0-5.726 1.792-5.74 4.353-.028 1.89 1.694 2.94 2.981 3.57 1.317.644 1.764 1.064 1.764 1.638-.013.882-1.063 1.288-2.043 1.288-1.358 0-2.086-.21-3.192-.7l-.448-.21-.476 2.953c.798.364 2.268.687 3.794.7 3.57 0 5.894-1.763 5.922-4.493.013-1.498-.896-2.646-2.856-3.583-1.19-.602-1.919-1.008-1.919-1.624.014-.56.617-1.134 1.96-1.134a5.78 5.78 0 0 1 2.534.504l.308.14.463-2.842z" id="path11" fill="#00579f" stroke-width=".042"/><path d="M35.056 8.735c.28-.756 1.358-3.681 1.358-3.681-.014.028.28-.77.447-1.26l.238 1.134s.645 3.15.784 3.807h-2.827zm4.2-8.496h-2.632c-.812 0-1.429.237-1.779 1.091l-5.053 12.066h3.57l.714-1.973h4.368c.098.462.406 1.974.406 1.974H42z" id="path13" fill="#00579f" stroke-width=".042"/><path d="M11.956.239L8.624 9.21 8.26 7.39c-.616-2.1-2.548-4.38-4.704-5.515l3.052 11.507h3.598L15.554.239z" id="path15" fill="#00579f" stroke-width=".042"/><path d="M5.53.239H.056L0 .504c4.27 1.092 7.098 3.724 8.26 6.888L7.07 1.345C6.874.505 6.272.266 5.53.239z" id="path17" fill="#faa61a" stroke-width=".042"/></svg>