<svg xmlns="http://www.w3.org/2000/svg" height="16" width="15.321" id="Слой_1"><path id="path2" d="M1.55 3.1c.853 0 1.549-.697 1.549-1.55a1.55 1.55 0 1 0-1.55 1.55zm0 0" stroke-width=".419" fill="#fff"/><path id="path4" d="M12.554 14.223c2.458-.59 2.742-1.943 2.767-2.096l-1.324-.212s0-.014.008-.036c-.003.006-.21.667-1.765 1.04-.77.185-2.532.48-4.427.773L6.214 9.155a.837.837 0 0 0-1.068-.513l-2.214.777V5.311l4.12.134a.812.812 0 0 0 .361-.07v.572a.336.336 0 0 0 .671 0v-.994l6.23.2h.01c.18 0 .33-.145.336-.326a.337.337 0 0 0-.325-.346l-6.252-.197V3.268a.335.335 0 0 0-.67 0v.572a.846.846 0 0 0-.307-.07L.87 3.569a.828.828 0 0 0-.61.235.841.841 0 0 0-.253.602v6.633a.836.836 0 0 0 1.114.79l3.79-1.33 1.215 3.45c-2.564.384-4.917.711-4.963.718a.67.67 0 0 0 .185 1.328c.203-.03 2.91-.406 5.663-.823a.85.85 0 0 0 .422-.034c.034-.013.064-.03.095-.046 2.104-.323 4.146-.658 5.026-.87zm0 0" stroke-width=".419" fill="#fff"/></svg>