<svg xmlns="http://www.w3.org/2000/svg" height="16" width="18" id="Capa_1"><path d="M17.354 0c-.115 0-.21.095-.21.19a1.89 1.89 0 0 1-3.223 1.336A1.845 1.845 0 0 1 13.368.21c0-.115-.096-.19-.21-.19-.114 0-.21.094-.21.19a1.89 1.89 0 0 1-3.223 1.335A1.845 1.845 0 0 1 9.172.229a.191.191 0 0 0-.381 0 1.89 1.89 0 0 1-3.223 1.335A1.856 1.856 0 0 1 5.015.229c0-.115-.095-.19-.21-.19-.114 0-.21.094-.21.19a1.89 1.89 0 0 1-3.222 1.335A1.856 1.856 0 0 1 .82.229C.82.114.724.039.61.039.495.038.4.132.4.228v2.307a2.277 2.277 0 0 0 2.288 2.289c.63 0 1.202-.248 1.621-.668.191-.19.363-.42.477-.667.115.248.267.477.477.667.42.42.992.668 1.62.668.63 0 1.202-.248 1.622-.668.19-.19.362-.42.477-.667.114.248.267.477.476.667.42.42.992.668 1.621.668.63 0 1.202-.248 1.621-.668.191-.19.363-.42.477-.667.115.248.267.477.477.667.42.42.992.668 1.62.668a2.277 2.277 0 0 0 2.29-2.289V.21a.212.212 0 0 0-.21-.21z" id="path2" fill="#fff" stroke-width=".048"/><path d="M17.354 5.588a.212.212 0 0 0-.21.21 1.89 1.89 0 0 1-3.223 1.334 1.845 1.845 0 0 1-.553-1.316.212.212 0 0 0-.21-.21.212.212 0 0 0-.21.21 1.89 1.89 0 0 1-3.223 1.335 1.845 1.845 0 0 1-.553-1.315c0-.115-.095-.21-.19-.21-.115 0-.191.095-.191.21A1.89 1.89 0 0 1 5.568 7.17a1.856 1.856 0 0 1-.553-1.334.212.212 0 0 0-.21-.21.212.212 0 0 0-.21.21A1.89 1.89 0 0 1 1.373 7.17 1.856 1.856 0 0 1 .82 5.836a.212.212 0 0 0-.21-.21.212.212 0 0 0-.21.21v2.307a2.277 2.277 0 0 0 2.288 2.288c.63 0 1.202-.247 1.621-.667.191-.19.363-.42.477-.667.115.247.267.476.477.667.42.42.992.667 1.62.667.63 0 1.202-.247 1.622-.667.19-.19.362-.42.477-.667.114.247.267.476.476.667.42.42.992.667 1.621.667.63 0 1.202-.247 1.621-.667.191-.19.363-.42.477-.667.115.247.267.476.477.667.42.42.992.667 1.62.667a2.277 2.277 0 0 0 2.29-2.288V5.797a.212.212 0 0 0-.21-.21z" id="path4" fill="#fff" stroke-width=".048"/><path d="M17.354 11.194a.212.212 0 0 0-.21.21 1.89 1.89 0 0 1-3.223 1.335 1.845 1.845 0 0 1-.553-1.316.212.212 0 0 0-.21-.21.212.212 0 0 0-.21.21 1.89 1.89 0 0 1-3.223 1.335 1.845 1.845 0 0 1-.553-1.316c0-.114-.095-.21-.19-.21-.115 0-.191.096-.191.21a1.89 1.89 0 0 1-3.223 1.335 1.856 1.856 0 0 1-.553-1.335.212.212 0 0 0-.21-.21.212.212 0 0 0-.21.21 1.89 1.89 0 0 1-3.222 1.335 1.856 1.856 0 0 1-.553-1.335.212.212 0 0 0-.21-.21.212.212 0 0 0-.21.21v2.27A2.277 2.277 0 0 0 2.688 16c.63 0 1.202-.248 1.621-.667.191-.191.363-.42.477-.668.115.248.267.477.477.668.42.42.992.667 1.62.667a2.28 2.28 0 0 0 1.622-.667c.19-.191.362-.42.477-.668.114.248.267.477.476.668.42.42.992.667 1.621.667.63 0 1.202-.248 1.621-.667.191-.191.363-.42.477-.668.115.248.267.477.477.668.42.42.992.667 1.62.667a2.277 2.277 0 0 0 2.29-2.288v-2.327c0-.114-.096-.19-.21-.19z" id="path6" fill="#fff" stroke-width=".048"/></svg>