<svg xmlns="http://www.w3.org/2000/svg" height="80" width="87" id="svg14"><path d="M81.212 35.813H60.805l9.32-9.318a5.355 5.355 0 0 0 1.579-3.812c0-1.44-.561-2.794-1.58-3.813a5.357 5.357 0 0 0-3.813-1.58c-1.44 0-2.795.561-3.813 1.58L45.554 35.813h-4.11L24.502 18.87a5.358 5.358 0 0 0-3.813-1.58c-1.44 0-2.794.562-3.813 1.58a5.398 5.398 0 0 0 0 7.625l9.319 9.318H5.788A5.794 5.794 0 0 0 0 41.601v14.612A5.794 5.794 0 0 0 5.788 62h75.425A5.794 5.794 0 0 0 87 56.213V41.6a5.794 5.794 0 0 0-5.788-5.788zM64.486 20.86a2.563 2.563 0 0 1 1.825-.756 2.56 2.56 0 0 1 1.824.756 2.56 2.56 0 0 1 .756 1.824c0 .688-.269 1.336-.756 1.823L56.828 35.813h-7.296zm-45.622 3.647a2.562 2.562 0 0 1-.755-1.824c0-.689.268-1.337.755-1.823a2.563 2.563 0 0 1 1.824-.756c.69 0 1.337.268 1.825.756l14.955 14.954H30.17zm65.323 31.707a2.978 2.978 0 0 1-2.974 2.974H5.788a2.978 2.978 0 0 1-2.975-2.974V41.6a2.978 2.978 0 0 1 2.975-2.975h75.425a2.978 2.978 0 0 1 2.974 2.975z" id="path2" fill="#2980b9" stroke-width=".188"/><path d="M80.825 40.42H6.175a1.57 1.57 0 0 0-1.57 1.568v13.838a1.57 1.57 0 0 0 1.57 1.568h74.65a1.57 1.57 0 0 0 1.57-1.568V41.988a1.57 1.57 0 0 0-1.57-1.569zm-.306 15.1H6.481V42.293h74.038z" id="path4" fill="#2980b9" stroke-width=".188"/><path d="M59.633 52.171c1.8 0 3.265-1.464 3.265-3.264 0-1.8-1.465-3.264-3.265-3.264a3.268 3.268 0 0 0-3.264 3.264c0 1.8 1.464 3.264 3.264 3.264zm0-4.654a1.39 1.39 0 0 1 0 2.779 1.39 1.39 0 0 1-1.39-1.39c0-.765.624-1.389 1.39-1.389z" id="path6" fill="#2980b9" stroke-width=".188"/><path d="M67.157 52.171c1.8 0 3.264-1.464 3.264-3.264 0-1.8-1.464-3.264-3.264-3.264a3.268 3.268 0 0 0-3.265 3.264c0 1.8 1.465 3.264 3.265 3.264zm0-4.654a1.39 1.39 0 0 1 0 2.779 1.39 1.39 0 0 1 0-2.779z" id="path8" fill="#2980b9" stroke-width=".188"/><path d="M74.68 52.171c1.8 0 3.265-1.464 3.265-3.264 0-1.8-1.465-3.264-3.264-3.264a3.268 3.268 0 0 0-3.265 3.264c0 1.8 1.465 3.264 3.265 3.264zm0-4.654a1.39 1.39 0 0 1 0 2.779 1.39 1.39 0 0 1-1.389-1.39c0-.765.624-1.389 1.39-1.389z" id="path10" fill="#2980b9" stroke-width=".188"/></svg>