<svg xmlns="http://www.w3.org/2000/svg" height="48" width="41.6" id="Слой_1"><path id="path2" d="M16.8 22.4h4.8a.8.8 0 1 0 0-1.6h-4.8a.8.8 0 0 0 0 1.6zm0 0" fill="#333" stroke-width=".117"/><path id="path4" d="M40.8 6.4h-24a.8.8 0 0 0 0 1.6H40v36c0 1.278-1.122 2.4-2.4 2.4H4c-1.278 0-2.4-1.122-2.4-2.4V7.267a4.383 4.383 0 0 0 1.6.651V44a.8.8 0 0 0 1.6 0V7.2a.804.804 0 0 0-.796-.8C3.602 6.395 1.6 6.258 1.6 4v-.8c0-.882.718-1.6 1.6-1.6h37.6a.8.8 0 0 0 0-1.6H3.2A3.203 3.203 0 0 0 0 3.2V44c0 2.168 1.832 4 4 4h33.6c2.168 0 4-1.832 4-4V7.2a.8.8 0 0 0-.8-.8zm0 0" fill="#333" stroke-width=".117"/><path id="path6" d="M40 4a.8.8 0 0 0-.8-.8H13.6a.8.8 0 0 0-.8.8v7.669l-1.834-1.834a.798.798 0 0 0-1.131 0L8 11.669v-7.67a.8.8 0 0 0-.8-.799H4a.8.8 0 0 0 0 1.6h2.4v8.8a.801.801 0 0 0 1.366.565l2.634-2.634 2.634 2.634A.8.8 0 0 0 14.4 13.6V4.8h24.8A.8.8 0 0 0 40 4zm0 0" fill="#333" stroke-width=".117"/><path id="path8" d="M11.2 16.8v12.8a.8.8 0 0 0 .8.8h17.6a.8.8 0 0 0 .8-.8V16.8a.8.8 0 0 0-.8-.8H12a.8.8 0 0 0-.8.8zm1.6.8h16v11.2h-16zm0 0" fill="#333" stroke-width=".117"/><path id="path10" d="M24.8 24h-8a.8.8 0 0 0 0 1.6h8a.8.8 0 0 0 0-1.6zm0 0" fill="#333" stroke-width=".117"/></svg>