<svg xmlns="http://www.w3.org/2000/svg" height="40" width="49.951" id="Capa_1"><path d="M32.598 31.707h-.041a.976.976 0 0 0 0 1.952h.04a.976.976 0 1 0 0-1.952z" id="path2" fill="#333" stroke-width=".098"/><path d="M48.976 27.317a.976.976 0 0 0 .975-.975V20a.976.976 0 0 0-.975-.976h-1.56V13.66a.976.976 0 0 0-.977-.976h-9.756V7.317a.976.976 0 0 0-.976-.975h-9.756V.976A.976.976 0 0 0 24.976 0H3.512a.976.976 0 0 0-.975.976V6.34H.976A.976.976 0 0 0 0 7.317v6.341c0 .54.437.976.976.976h1.56v4.39H.977A.976.976 0 0 0 0 20v6.342c0 .538.437.975.976.975h1.56v4.39H.977a.976.976 0 0 0-.976.976v6.341c0 .54.437.976.976.976h48a.976.976 0 0 0 .975-.976v-6.341a.976.976 0 0 0-.975-.976h-1.56v-4.39zm-3.512-12.683v4.39H25.95v-4.39h9.756zM15.22 20.975h19.512v4.391H15.22zm-.976-1.95H4.488v-4.39H24v4.39zM34.732 8.292v4.39H15.22v-4.39h9.756zM4.488 1.95H24v4.39H4.488zM1.95 12.683v-4.39h11.317v4.39H3.512zm0 12.683v-4.39h11.317v4.39H3.512zm11.317 12.683H1.951v-4.39h11.317zm-8.78-6.342v-4.39H24v4.39h-9.756zm30.244.976v5.366H15.22v-4.39h14.684a.976.976 0 1 0 0-1.952h-3.953v-4.39h19.513v4.39h-9.757a.976.976 0 0 0-.975.976zM48 33.659v4.39H36.683v-4.39zm-1.56-8.293h-9.757v-4.39H48v4.39z" id="path4" fill="#333" stroke-width=".098"/></svg>