<svg xmlns="http://www.w3.org/2000/svg" height="48" width="48.001" id="Capa_1"><path id="path2" d="M37.6 23.2h-4.8a1.6 1.6 0 0 0-1.6 1.6v4.8a1.6 1.6 0 0 0 1.6 1.6h8.8a.8.8 0 0 0 .68-1.223l-4-6.4a.8.8 0 0 0-.68-.377zm-4.8 6.4v-4.8h4.357l3 4.8z" fill="#333" stroke-width=".094"/><path id="path4" d="M19.2 31.2h6.4a1.6 1.6 0 0 0 1.6-1.6v-4.8a1.6 1.6 0 0 0-1.6-1.6h-6.4a1.6 1.6 0 0 0-1.6 1.6v4.8a1.6 1.6 0 0 0 1.6 1.6zm0-6.4h6.4v4.8h-6.4z" fill="#333" stroke-width=".094"/><path id="path6" d="M12.8 23.2H6.4a1.6 1.6 0 0 0-1.6 1.6v4.8a1.6 1.6 0 0 0 1.6 1.6h6.4a1.6 1.6 0 0 0 1.6-1.6v-4.8a1.6 1.6 0 0 0-1.6-1.6zm-6.4 6.4v-4.8h6.4v4.8z" fill="#333" stroke-width=".094"/><path id="path8" d="M10.4 33.6H8.8a.8.8 0 1 0 0 1.6h1.6a.8.8 0 1 0 0-1.6z" fill="#333" stroke-width=".094"/><path id="path10" d="M21.6 33.6a.8.8 0 1 0 0 1.6h1.6a.8.8 0 1 0 0-1.6z" fill="#333" stroke-width=".094"/><path id="path12" d="M36 33.6h-1.6a.8.8 0 1 0 0 1.6H36a.8.8 0 1 0 0-1.6z" fill="#333" stroke-width=".094"/><path id="path14" d="M40 6.816V4a.8.8 0 1 0-1.6 0v2.816l-3.7 2.96a.8.8 0 1 0 1 1.25l2.7-2.162v3.605l-.565.566a.8.8 0 1 0 1.131 1.13l.235-.234.234.235a.8.8 0 0 0 1.131-1.132l-.565-.565V8.864l2.7 2.16a.8.8 0 1 0 1-1.25z" fill="#333" stroke-width=".094"/><path id="path16" d="M45.6 0H32.8a2.4 2.4 0 0 0-2.4 2.4v12.8a2.4 2.4 0 0 0 2.4 2.4h5.6v2.411c-.029 0-.056-.01-.086-.01H2.4A2.4 2.4 0 0 0 0 22.4v19.2A2.4 2.4 0 0 0 2.4 44h2.472a4.794 4.794 0 0 0 9.456 0h18.545a4.794 4.794 0 0 0 9.456 0H45.6a2.4 2.4 0 0 0 2.4-2.4v-7.54a2.4 2.4 0 0 0-.365-1.272l-7.287-11.66a2.414 2.414 0 0 0-.348-.426V17.6h5.6a2.4 2.4 0 0 0 2.4-2.4V2.4A2.4 2.4 0 0 0 45.6 0zm-36 46.4a3.2 3.2 0 1 1 0-6.4 3.2 3.2 0 0 1 0 6.4zm28 0a3.2 3.2 0 1 1 0-6.4 3.2 3.2 0 0 1 0 6.4zm8.68-12.764a.8.8 0 0 1 .12.424v5.14H44a.8.8 0 1 0 0 1.6h2.4v.8a.8.8 0 0 1-.8.8h-3.27a4.794 4.794 0 0 0-9.456 0H14.328a4.794 4.794 0 0 0-9.456 0H2.4a.8.8 0 0 1-.8-.8v-.8h1.6a.8.8 0 1 0 0-1.6H1.6V22.4a.8.8 0 0 1 .8-.8h35.914c.276 0 .533.142.678.376zM46.4 15.2a.8.8 0 0 1-.8.8H32.8a.8.8 0 0 1-.8-.8V2.4a.8.8 0 0 1 .8-.8h12.8a.8.8 0 0 1 .8.8z" fill="#333" stroke-width=".094"/><path id="path18" d="M31.2 39.2H16a.8.8 0 1 0 0 1.6h15.2a.8.8 0 1 0 0-1.6z" fill="#333" stroke-width=".094"/></svg>