<svg xmlns="http://www.w3.org/2000/svg" width="35" height="30"><path fill-rule="evenodd" fill="#FDE456" d="M14.707 5.849c-.293-1.087-.739-2.018-1.338-2.793a5.978 5.978 0 0 0-2.246-1.787C10.225.853 9.177.644 7.979.644c-1.277 0-2.37.209-3.282.625a5.79 5.79 0 0 0-2.246 1.787c-.586.775-1.015 1.706-1.289 2.793-.273 1.088-.41 2.302-.41 3.643 0 1.341.137 2.558.41 3.652.274 1.094.7 2.031 1.28 2.813a5.823 5.823 0 0 0 2.236 1.816c.911.43 1.999.645 3.262.645 1.211 0 2.268-.215 3.173-.645a6.019 6.019 0 0 0 2.247-1.816c.592-.782 1.038-1.719 1.337-2.813.3-1.094.45-2.311.45-3.652 0-1.341-.147-2.555-.44-3.643zM5.41 6.63c.098-.839.254-1.552.469-2.138.215-.586.495-1.032.84-1.338.345-.306.765-.459 1.26-.459.494 0 .908.153 1.24.459.332.306.599.752.801 1.338.201.586.345 1.299.429 2.138.085.84.127 1.794.127 2.862 0 1.094-.042 2.067-.127 2.92-.084.853-.231 1.575-.439 2.168-.208.592-.479 1.045-.811 1.357-.332.313-.752.469-1.259.469-.482 0-.896-.156-1.241-.469-.345-.312-.622-.765-.83-1.357-.208-.593-.361-1.315-.459-2.168a26.085 26.085 0 0 1-.146-2.92c0-1.068.049-2.022.146-2.862zm20.459-5.576h-3.086L8.994 29.609H12.1L25.869 1.054zm7.959 16.397c-.293-1.087-.739-2.018-1.338-2.793a5.968 5.968 0 0 0-2.246-1.787c-.898-.417-1.946-.625-3.144-.625-1.276 0-2.37.208-3.281.625a5.777 5.777 0 0 0-2.247 1.787c-.585.775-1.015 1.706-1.289 2.793-.273 1.087-.41 2.301-.41 3.642 0 1.342.137 2.559.41 3.653.274 1.093.7 2.031 1.28 2.812a5.74 5.74 0 0 0 2.236 1.807c.911.423 1.999.635 3.262.635 1.211 0 2.268-.212 3.174-.635a5.934 5.934 0 0 0 2.246-1.807c.592-.781 1.038-1.719 1.338-2.812.299-1.094.449-2.311.449-3.653 0-1.341-.147-2.555-.44-3.642zm-9.297.781c.098-.84.254-1.553.469-2.139.215-.586.495-1.031.84-1.338.345-.305.765-.458 1.26-.458.494 0 .908.153 1.24.458.332.307.599.752.801 1.338.202.586.345 1.299.43 2.139.084.84.126 1.794.126 2.861 0 1.094-.042 2.068-.126 2.92-.085.853-.232 1.576-.44 2.168-.208.593-.478 1.045-.81 1.358-.333.312-.752.468-1.26.468-.482 0-.896-.156-1.24-.468-.346-.313-.622-.765-.831-1.358-.208-.592-.361-1.315-.459-2.168a26.073 26.073 0 0 1-.146-2.92c0-1.067.049-2.021.146-2.861z"/></svg>