<svg xmlns="http://www.w3.org/2000/svg" width="22" height="30"><path fill-rule="evenodd" fill="#FDE456" d="M19.942 12.631c-.957.831-2.199 1.493-3.727 1.986-1.528.492-3.394.739-5.599.739H9.221V19H15v3H9.221v3.581c0 .512.059.925.179 1.238.12.314.279.55.478.71.199.16.432.266.698.317.265.051.538.076.817.076h2.491v2.092H-.002v-2.092h1.714c.305 0 .584-.028.837-.086.252-.058.471-.176.657-.355.186-.179.332-.435.439-.768.106-.333.159-.78.159-1.343V22H0v-3h3.804V4.463c0-.525-.053-.944-.159-1.257-.107-.314-.256-.554-.449-.72a1.53 1.53 0 0 0-.667-.336 3.65 3.65 0 0 0-.817-.086H-.002V-.009h11.514c1.886 0 3.527.192 4.922.576 1.395.384 2.554.938 3.478 1.66.923.723 1.61 1.596 2.062 2.62l.04 4.905c-.425 1.087-1.116 2.047-2.072 2.879zM14.671 3.82a3.55 3.55 0 0 0-1.535-1.132c-.631-.25-1.405-.375-2.321-.375H9.221v10.759h.996c1.009 0 1.866-.122 2.571-.364.704-.244 1.278-.627 1.723-1.152.445-.524.771-1.203.977-2.034l.04-3.783c-.18-.774-.466-1.413-.857-1.919zm3.04 21.718c.224-.194.489-.332.796-.414.308-.081.635-.122.983-.122.337 0 .657.041.959.122.303.082.568.22.797.414.228.194.409.452.543.773.134.322.201.723.201 1.203 0 .47-.067.863-.201 1.18a2.013 2.013 0 0 1-.543.766 2.12 2.12 0 0 1-.797.421 3.45 3.45 0 0 1-.959.13c-.348 0-.675-.043-.983-.13a2.05 2.05 0 0 1-.796-.421 1.985 1.985 0 0 1-.528-.766c-.129-.317-.193-.71-.193-1.18 0-.48.064-.881.193-1.203.129-.321.305-.579.528-.773z"/></svg>