<svg xmlns="http://www.w3.org/2000/svg" height="48" width="48" id="Capa_1"><g transform="scale(.1)" id="g6" fill="#333"><g id="g4"><path id="path2" d="M295.547 73.078a7.997 7.997 0 0 0-6.469-5.281l-29.016-3.938-13.406-27.375A8.184 8.184 0 0 0 239.352 32a7.994 7.994 0 0 0-7.164 4.695L219.57 64.5l-28.898 4.859a8.003 8.003 0 0 0-4.297 13.579l21.469 21.242-4.57 30.641a7.993 7.993 0 0 0 11.875 8.125l25.609-14.609 26.023 13.789a7.999 7.999 0 0 0 11.617-8.477l-5.461-30.484 20.859-21.922a7.99 7.99 0 0 0 1.751-8.165zM258.555 95.07a8.004 8.004 0 0 0-2.078 6.922l3.273 18.305-15.391-8.156a7.967 7.967 0 0 0-7.703.125l-15.133 8.625 2.742-18.367a8.008 8.008 0 0 0-2.289-6.867l-13.25-13.109 17.695-2.977a7.996 7.996 0 0 0 5.953-4.586l7.367-16.234 7.828 15.977a8.02 8.02 0 0 0 6.109 4.414l17.742 2.406z"/></g></g><g transform="scale(.1)" id="g12" fill="#333"><g id="g10"><path id="path8" d="M426.997 323.646c24.118-19.273 28.045-54.447 8.773-78.565A55.897 55.897 0 0 0 400 224.639V160h-16v64.639c-30.563 4.363-51.802 32.677-47.439 63.24a55.902 55.902 0 0 0 20.397 35.734 80.275 80.275 0 0 0-41.03 20.759 80.625 80.625 0 0 0-40.932-20.725c24.144-19.328 28.049-54.57 8.72-78.714-19.328-24.144-54.57-28.049-78.714-8.72s-28.049 54.57-8.72 78.714a56.003 56.003 0 0 0 8.72 8.72 80.633 80.633 0 0 0-40.932 20.725 80.283 80.283 0 0 0-41.03-20.759c24.098-19.298 27.99-54.477 8.692-78.576a55.896 55.896 0 0 0-35.734-20.397V96H80v128.639c-30.562 4.362-51.802 32.675-47.439 63.237a55.897 55.897 0 0 0 20.442 35.77C20.305 331.017 0 349.097 0 373.18V472a7.995 7.995 0 0 0 7.991 8H472a7.995 7.995 0 0 0 8-7.991V373.18c0-24.083-20.305-42.163-53.003-49.534zM48 280c0-22.091 17.909-40 40-40s40 17.909 40 40-17.909 40-40 40c-22.081-.026-39.974-17.919-40-40zm104 93.18V464H16v-90.82C16 347.633 53.32 336 88 336c31.762 0 56.727 8.564 66.865 22.451A39.712 39.712 0 0 0 152 373.18zM200 280c0-22.091 17.909-40 40-40s40 17.909 40 40-17.909 40-40 40c-22.081-.026-39.974-17.919-40-40zm112 184H168v-90.82c0-25.547 37.32-37.18 72-37.18s72 11.633 72 37.18zm40-184c0-22.091 17.909-40 40-40s40 17.909 40 40-17.909 40-40 40c-22.081-.026-39.974-17.919-40-40zm112 184H328v-90.82a39.712 39.712 0 0 0-2.865-14.729C335.273 344.564 360.238 336 392 336c34.68 0 72 11.633 72 37.18z"/></g></g><g transform="scale(.1)" id="g18" fill="#333"><g id="g16"><path id="path14" d="M392.009 0H88a7.995 7.995 0 0 0-8 7.991V48h16V16h288v96h16V8a7.995 7.995 0 0 0-7.991-8z"/></g></g><g transform="scale(.1)" id="g24" fill="#333"><g id="g22"><path id="rect20" d="M312 32h16v16h-16z"/></g></g><g transform="scale(.1)" id="g30" fill="#333"><g id="g28"><path id="rect26" d="M312 64h16v16h-16z"/></g></g><g transform="scale(.1)" id="g36" fill="#333"><g id="g34"><path id="rect32" d="M312 96h16v16h-16z"/></g></g><g transform="scale(.1)" id="g42" fill="#333"><g id="g40"><path id="rect38" d="M312 128h16v16h-16z"/></g></g><g transform="scale(.1)" id="g48" fill="#333"><g id="g46"><path id="rect44" d="M152 32h16v16h-16z"/></g></g><g transform="scale(.1)" id="g54" fill="#333"><g id="g52"><path id="rect50" d="M152 64h16v16h-16z"/></g></g><g transform="scale(.1)" id="g60" fill="#333"><g id="g58"><path id="rect56" d="M152 96h16v16h-16z"/></g></g><g transform="scale(.1)" id="g66" fill="#333"><g id="g64"><path id="rect62" d="M152 128h16v16h-16z"/></g></g><g transform="scale(.1)" id="g72" fill="#333"><g id="g70"><path id="rect68" d="M312 160h16v16h-16z"/></g></g><g transform="scale(.1)" id="g78" fill="#333"><g id="g76"><path id="rect74" d="M344 32h16v16h-16z"/></g></g><g transform="scale(.1)" id="g84" fill="#333"><g id="g82"><path id="rect80" d="M344 64h16v16h-16z"/></g></g><g transform="scale(.1)" id="g90" fill="#333"><g id="g88"><path id="rect86" d="M344 96h16v16h-16z"/></g></g><g transform="scale(.1)" id="g96" fill="#333"><g id="g94"><path id="rect92" d="M344 128h16v16h-16z"/></g></g><g transform="scale(.1)" id="g102" fill="#333"><g id="g100"><path id="rect98" d="M344 160h16v16h-16z"/></g></g><g transform="scale(.1)" id="g108" fill="#333"><g id="g106"><path id="rect104" d="M280 160h16v16h-16z"/></g></g><g transform="scale(.1)" id="g114" fill="#333"><g id="g112"><path id="rect110" d="M248 160h16v16h-16z"/></g></g><g transform="scale(.1)" id="g120" fill="#333"><g id="g118"><path id="rect116" d="M216 160h16v16h-16z"/></g></g><g transform="scale(.1)" id="g126" fill="#333"><g id="g124"><path id="rect122" d="M184 160h16v16h-16z"/></g></g><g transform="scale(.1)" id="g132" fill="#333"><g id="g130"><path id="rect128" d="M152 160h16v16h-16z"/></g></g><g transform="scale(.1)" id="g138" fill="#333"><g id="g136"><path id="rect134" d="M120 32h16v16h-16z"/></g></g><g transform="scale(.1)" id="g144" fill="#333"><g id="g142"><path id="rect140" d="M120 64h16v16h-16z"/></g></g><g transform="scale(.1)" id="g150" fill="#333"><g id="g148"><path id="rect146" d="M120 96h16v16h-16z"/></g></g><g transform="scale(.1)" id="g156" fill="#333"><g id="g154"><path id="rect152" d="M120 128h16v16h-16z"/></g></g><g transform="scale(.1)" id="g162" fill="#333"><g id="g160"><path id="rect158" d="M120 160h16v16h-16z"/></g></g><g transform="scale(.1)" id="g168" fill="#333"><g id="g166"><path id="rect164" d="M312 192h16v16h-16z"/></g></g><g transform="scale(.1)" id="g174" fill="#333"><g id="g172"><path id="rect170" d="M344 192h16v16h-16z"/></g></g><g transform="scale(.1)" id="g180" fill="#333"><g id="g178"><path id="rect176" d="M280 192h16v16h-16z"/></g></g><g transform="scale(.1)" id="g186" fill="#333"><g id="g184"><path id="rect182" d="M248 192h16v16h-16z"/></g></g><g transform="scale(.1)" id="g192" fill="#333"><g id="g190"><path id="rect188" d="M216 192h16v16h-16z"/></g></g><g transform="scale(.1)" id="g198" fill="#333"><g id="g196"><path id="rect194" d="M184 192h16v16h-16z"/></g></g><g transform="scale(.1)" id="g204" fill="#333"><g id="g202"><path id="rect200" d="M152 192h16v16h-16z"/></g></g><g transform="scale(.1)" id="g210" fill="#333"><g id="g208"><path id="rect206" d="M120 192h16v16h-16z"/></g></g><g transform="scale(.1)" id="g216" fill="#333"><g id="g214"><path id="path212" d="M88 64c-13.249-.014-23.986-10.751-24-24a8 8 0 0 0-16 0c-.014 13.249-10.751 23.986-24 24a8 8 0 0 0 0 16c13.249.014 23.986 10.751 24 24a8 8 0 0 0 16 0c.014-13.249 10.751-23.986 24-24a8 8 0 0 0 0-16zM56 80.023A40.258 40.258 0 0 0 47.977 72 40.258 40.258 0 0 0 56 63.977 40.258 40.258 0 0 0 64.023 72 40.285 40.285 0 0 0 56 80.023z"/></g></g><g transform="scale(.1)" id="g222" fill="#333"><g id="g220"><path id="path218" d="M464 128c-13.249-.014-23.986-10.751-24-24a8 8 0 0 0-16 0c-.014 13.249-10.751 23.986-24 24a8 8 0 0 0 0 16c13.249.014 23.986 10.751 24 24a8 8 0 0 0 16 0c.014-13.249 10.751-23.986 24-24a8 8 0 0 0 0-16zm-32 16.023a40.232 40.232 0 0 0-8.023-8.023 40.258 40.258 0 0 0 8.023-8.023 40.258 40.258 0 0 0 8.023 8.023 40.258 40.258 0 0 0-8.023 8.023z"/></g></g></svg>