<svg xmlns="http://www.w3.org/2000/svg" width="49" height="31"><path fill-rule="evenodd" fill="#FDE456" d="M47.882 6.392a8.11 8.11 0 0 1-.735 1.156 17.92 17.92 0 0 1-1.127 1.343c-.448.49-.97 1.031-1.566 1.623-.596.592-1.285 1.256-2.066 1.993l-2.335 2.22h5.432c.478 0 .886-.138 1.224-.416.337-.277.575-.677.711-1.201l.194-.717h1.378l-.125 4.896H37.844v-2.403l3.45-3.518a24.247 24.247 0 0 0 1.777-1.993 9.908 9.908 0 0 0 1.093-1.696 6.612 6.612 0 0 0 .558-1.6 8.58 8.58 0 0 0 .159-1.691c0-.888-.161-1.537-.484-1.947-.322-.41-.768-.615-1.338-.615-.789 0-1.343.34-1.662 1.019-.319.679-.478 1.683-.478 3.012-.441 0-.845-.042-1.213-.126a2.667 2.667 0 0 1-.945-.398 1.838 1.838 0 0 1-.609-.712c-.145-.292-.217-.647-.217-1.064 0-.425.108-.828.325-1.207.216-.38.537-.714.962-1.002.425-.289.958-.519 1.6-.689.641-.171 1.387-.257 2.237-.257.873 0 1.642.09 2.306.268.664.179 1.222.435 1.674.769.452.334.791.74 1.019 1.218a3.71 3.71 0 0 1 .342 1.617c0 .364-.04.717-.12 1.059-.08.342-.212.695-.398 1.059zM23.099 28.48h.39a6.93 6.93 0 0 0 1.104-.078c.319-.052.582-.156.791-.313.208-.156.364-.38.469-.673.104-.293.156-.681.156-1.162V6l-8.067 24.609h-2.714L6.771 6v19.882c0 .574.068 1.029.205 1.368.136.338.332.599.586.781.253.182.563.303.927.361.365.059.782.088 1.25.088h.235v2.129H.052V28.48h1.679c.287 0 .554-.026.801-.078.247-.052.466-.159.655-.322.188-.163.335-.404.439-.723.104-.319.156-.739.156-1.26V6.605c0-.534-.052-.96-.156-1.279-.104-.319-.251-.563-.439-.733a1.475 1.475 0 0 0-.655-.341 3.443 3.443 0 0 0-.801-.088H.052v-2.11h11.523l6.641 19.317 6.367-19.317h11.309v2.11h-1.68c-.287 0-.554.029-.801.088a1.324 1.324 0 0 0-.644.361c-.183.182-.326.443-.43.781-.104.339-.156.795-.156 1.367v19.121c0 .574.052 1.029.156 1.368.104.338.247.599.43.781.182.182.397.303.644.361.247.059.514.088.801.088h1.68v2.129H23.099V28.48z"/></svg>