<svg xmlns="http://www.w3.org/2000/svg" viewBox="-49 141 42.944 48" height="48" width="42.944" id="Capa_1"><path id="path2" d="M-6.386 157.02l-1.317-1.01a.848.848 0 0 0-1.187.157l-1.4 1.825-.065-.05a1.032 1.032 0 0 0-1.445.19l-15.794 20.59h-.001l-.033.051-.026.04a.685.685 0 0 0-.043.1l-2.066 5.945-.002.005a.813.813 0 0 0 1.227.94l.004-.002 5.206-3.536a.69.69 0 0 0 .083-.066c.011-.01.02-.022.03-.033.015-.015.03-.029.041-.044l.003-.004.002-.002 14.214-18.53.424.325-5.822 7.59a.683.683 0 0 0 1.084.831l6-7.822c.36-.47.271-1.145-.198-1.505l-.656-.503.748-.976c.346-.451.26-1.1-.19-1.445l-.065-.05 1.4-1.824a.848.848 0 0 0-.156-1.187zm-18.49 24.646l-3.052 2.072 1.211-3.484zm1.04-.925l-2.257-1.73 15.173-19.78 2.257 1.73zm15.122-21.54l-.492-.378 1.084-1.412.492.377z" fill="#333" stroke-width=".094"/><path id="path4" d="M-16.5 163.201a.683.683 0 0 0-.683-.683h-26.93a.683.683 0 1 0 0 1.366h26.93a.683.683 0 0 0 .684-.683z" fill="#333" stroke-width=".094"/><path id="path6" d="M-23.027 170.25a.683.683 0 0 0-.683-.683h-20.402a.683.683 0 1 0 0 1.367h20.402a.683.683 0 0 0 .683-.684z" fill="#333" stroke-width=".094"/><path id="path8" d="M-44.112 185.031h12.326a.683.683 0 1 0 0-1.366h-12.326a.683.683 0 1 0 0 1.366z" fill="#333" stroke-width=".094"/><path id="path10" d="M-17.183 185.031a.683.683 0 1 0 0-1.366h-6.041a.683.683 0 1 0 0 1.366z" fill="#333" stroke-width=".094"/><path id="path12" d="M-12.736 173.193a.683.683 0 0 0-.684.683v13.705a.053.053 0 0 1-.052.052h-34.11a.053.053 0 0 1-.052-.052v-45.162c0-.03.024-.053.053-.053h23.254v9.464c0 .796.647 1.444 1.443 1.444h9.465v3.943a.683.683 0 1 0 1.366 0v-4.626l-.001-.023a.963.963 0 0 0-.012-.11.67.67 0 0 0-.065-.184l-.002-.004a.682.682 0 0 0-.12-.162L-23.161 141.2a.685.685 0 0 0-.069-.06l-.018-.013a.676.676 0 0 0-.075-.047l-.005-.002a.666.666 0 0 0-.076-.034l-.022-.008a.761.761 0 0 0-.085-.023h-.003a.652.652 0 0 0-.108-.012l-.022-.001h-23.937A1.42 1.42 0 0 0-49 142.419v45.162A1.42 1.42 0 0 0-47.581 189h34.109a1.42 1.42 0 0 0 1.419-1.419v-13.705a.683.683 0 0 0-.683-.683zm-10.225-29.861l8.575 8.576h-8.498a.077.077 0 0 1-.077-.078v-8.498z" fill="#333" stroke-width=".094"/><path id="path14" d="M-32.636 151.92a.681.681 0 0 0 .468-1.18l-5.712-5.366a.683.683 0 0 0-.935 0l-5.713 5.366a.683.683 0 1 0 .936.995l5.244-4.926 5.245 4.926c.132.124.3.186.467.186z" fill="#333" stroke-width=".094"/><path id="path16" d="M-39.12 148.336l-3.497 3.284a1.133 1.133 0 0 0-.356.823v4.778c0 .623.506 1.13 1.129 1.13h6.993a1.13 1.13 0 0 0 1.13-1.13v-4.778c0-.31-.13-.61-.357-.823l-3.496-3.284a1.131 1.131 0 0 0-1.547 0zm1.273 8.649h-1.002v-2.369h1.002zm2.759 0h-1.392v-2.801a.934.934 0 0 0-.934-.934h-1.867a.934.934 0 0 0-.934.934v2.8h-1.392v-4.438l3.26-3.062 3.259 3.062z" fill="#333" stroke-width=".094"/><path id="path18" d="M-29.106 177.3a.683.683 0 0 0-.683-.684h-7.62a.683.683 0 1 0 0 1.366h7.62a.683.683 0 0 0 .683-.683z" fill="#333" stroke-width=".094"/><path id="path20" d="M-44.028 177.982h2.374a.683.683 0 1 0 0-1.366h-2.374a.683.683 0 1 0 0 1.366z" fill="#333" stroke-width=".094"/></svg>