<svg xmlns="http://www.w3.org/2000/svg" id="svg8" viewBox="0 0 11.642 15.081" height="57" width="44"><defs id="defs2"><style id="style4485">.fil2{fill:#fde456}.fil0{fill:#000;fill-rule:nonzero}</style></defs><g transform="translate(-83.432 -146.828)" id="layer1"><g transform="matrix(.0092 0 0 .00926 83.432 146.828)" id="g4521" clip-rule="evenodd" fill-rule="evenodd" image-rendering="optimizeQuality" shape-rendering="geometricPrecision" text-rendering="geometricPrecision"><g id="Слой_x0020_1"><path class="fil0" d="M632.11 22.46l-597.8 298.9 597.8 298.9 597.8-298.9zM5.86 311.87L627.37 1.12c2.88-1.44 6.38-1.55 9.48 0l621.51 310.75c1.98.99 3.68 2.61 4.74 4.74 2.62 5.23.49 11.61-4.74 14.23L636.85 641.59a10.577 10.577 0 0 1-9.48 0L5.86 330.84c-1.98-.99-3.68-2.61-4.74-4.74-2.62-5.23-.49-11.61 4.74-14.23z" id="path4490" fill-rule="nonzero"/><path class="fil0" d="M642.75 1568.6l.01 32.59 163.47-81.74 66.88-183.74-230.37 115.11v117.78zm-5.63 59.12a10.58 10.58 0 0 1-4.95 1.23c-1.98 0-3.84-.55-5.43-1.49l-181.58-90.78c-2.58-1.12-4.7-3.26-5.73-6.11l-77.44-212.76c-.94-2.64-.85-5.66.5-8.36 2.62-5.23 8.99-7.36 14.23-4.74l255.37 127.67 255.42-127.62c2.52-1.23 5.52-1.49 8.36-.46 5.51 2 8.36 8.09 6.36 13.6l-77.45 212.76c-.91 2.46-2.71 4.6-5.24 5.86l-182.4 91.2zm-15.66-176.94l-230.41-115.19 66.89 183.77 163.52 81.74z" id="path4492" fill-rule="nonzero"/><path class="fil0" d="M642.77 905.06L1116 668.46l118.52-325.61-591.76 295.78.01 266.42zm486.51-219.53L637.13 931.59a10.58 10.58 0 0 1-4.95 1.23c-1.98 0-3.84-.55-5.43-1.49L135.42 685.69c-2.58-1.12-4.7-3.26-5.73-6.11L.65 324.99c-.94-2.64-.85-5.66.5-8.36 2.62-5.23 8.99-7.36 14.23-4.74l616.76 308.37 616.27-308.04a10.61 10.61 0 0 1 8.85-.74c5.51 2 8.36 8.09 6.36 13.6l-129.07 354.59c-.91 2.46-2.71 4.6-5.24 5.86zm-507.81-46.9L29.71 342.76l118.5 325.61 473.26 236.61V638.64z" id="path4494" fill-rule="nonzero"/><path class="fil0" d="M1028.03 910.19l-385.27 192.53.01 208.41 292.55-146.28 92.71-254.67zm-395.92 174.14l409.78-204.78a10.61 10.61 0 0 1 8.85-.74c5.51 2 8.36 8.09 6.36 13.6l-103.26 283.64c-.91 2.46-2.71 4.6-5.24 5.86l-311.48 155.74a10.58 10.58 0 0 1-4.95 1.23c-1.98 0-3.84-.55-5.43-1.49l-310.66-155.31c-2.58-1.12-4.7-3.26-5.73-6.11L207.12 892.33c-.94-2.64-.85-5.66.5-8.36 2.62-5.23 8.99-7.36 14.23-4.74l410.27 205.11zm-10.65 18.39L236.19 910.11l92.68 254.66 292.59 146.28z" id="path4496" fill-rule="nonzero"/><path id="polygon4498" fill="#fde456" d="M621.46 904.98V638.63L29.7 342.76l118.49 325.61z"/><path class="fil2" id="polygon4500" fill="#fde456" d="M935.32 1164.86l92.71-254.67-385.28 192.53.02 208.41z"/><path class="fil2" id="polygon4502" fill="#fde456" d="M621.46 1601.11v-150.33l-230.41-115.19 66.89 183.77z"/></g></g></g></svg>