<svg xmlns="http://www.w3.org/2000/svg" height="16" width="17.449" id="Capa_1"><path d="M12.262 4.218h1.53L11.523.328a.657.657 0 0 0-.903-.236.657.657 0 0 0-.236.902z" id="path2" fill="#333" stroke-width=".036"/><path d="M7.071.994A.66.66 0 0 0 5.932.328L3.665 4.222h1.53z" id="path4" fill="#333" stroke-width=".036"/><path d="M16.324 5.411H1.121A1.12 1.12 0 0 0 0 6.532v1.243c0 .62.502 1.122 1.121 1.122h.351l1.082 5.864C2.69 15.45 3.321 16 3.976 16h9.271c.655 0 1.286-.548 1.422-1.24l1.089-5.867h.57a1.12 1.12 0 0 0 1.12-1.121V6.529a1.125 1.125 0 0 0-1.124-1.118zM6.19 11.271v2.53a.633.633 0 1 1-1.268 0v-3.547a.633.633 0 1 1 1.268 0zm2.035 0v2.53a.633.633 0 1 1-1.268 0v-3.547c0-.362.293-.634.634-.634.34 0 .634.294.634.634zm2.045 1.47v1.06a.633.633 0 1 1-1.268 0v-3.547c0-.34.294-.634.634-.634s.634.272.634.634zm2.035 0v1.06a.633.633 0 1 1-1.268 0v-3.547a.633.633 0 1 1 1.268 0z" id="path6" fill="#333" stroke-width=".036"/></svg>