<svg width="56" height="56" fill="none" xmlns="http://www.w3.org/2000/svg"><path d="M56 28c0-1.32-.458-2.61-1.29-3.632l-2.348-2.893.586-3.685a5.766 5.766 0 0 0-3.634-6.291l-3.487-1.336-1.329-3.474a5.762 5.762 0 0 0-2.503-2.94 5.81 5.81 0 0 0-3.788-.698l-3.685.587-2.892-2.346a5.75 5.75 0 0 0-7.262-.003l-2.893 2.349-3.685-.586a5.766 5.766 0 0 0-6.291 3.634l-1.336 3.487-3.474 1.329a5.762 5.762 0 0 0-2.94 2.503 5.81 5.81 0 0 0-.698 3.789l.587 3.684-2.346 2.892a5.75 5.75 0 0 0-.003 7.262l2.349 2.893-.586 3.685a5.766 5.766 0 0 0 3.634 6.291l3.487 1.336 1.329 3.474a5.762 5.762 0 0 0 2.503 2.94 5.81 5.81 0 0 0 3.789.699l3.684-.588 2.892 2.346a5.75 5.75 0 0 0 7.262.003l2.893-2.349 3.685.586a5.766 5.766 0 0 0 6.291-3.634l1.336-3.487 3.474-1.329a5.762 5.762 0 0 0 2.94-2.503 5.81 5.81 0 0 0 .699-3.788l-.588-3.685 2.346-2.892A5.75 5.75 0 0 0 56 28z" fill="#fff"/><path d="M52 28a4.95 4.95 0 0 0-1.105-3.113l-2.013-2.48.502-3.159a4.942 4.942 0 0 0-3.115-5.392l-2.989-1.145-1.139-2.978a4.939 4.939 0 0 0-2.145-2.52 4.98 4.98 0 0 0-3.248-.598l-3.157.503-2.48-2.01a4.929 4.929 0 0 0-6.224-.003l-2.48 2.013-3.159-.502a4.943 4.943 0 0 0-5.392 3.115l-1.145 2.989-2.978 1.139a4.939 4.939 0 0 0-2.52 2.145 4.98 4.98 0 0 0-.598 3.248l.503 3.157-2.01 2.48a4.929 4.929 0 0 0-.003 6.224l2.013 2.48-.502 3.159a4.943 4.943 0 0 0 3.115 5.392l2.989 1.145 1.139 2.978a4.939 4.939 0 0 0 2.145 2.52 4.98 4.98 0 0 0 3.248.598l3.157-.503 2.48 2.01a4.928 4.928 0 0 0 6.224.003l2.48-2.013 3.159.502a4.942 4.942 0 0 0 5.392-3.115l1.145-2.989 2.978-1.139a4.939 4.939 0 0 0 2.52-2.145 4.98 4.98 0 0 0 .598-3.248l-.503-3.157 2.01-2.48A4.928 4.928 0 0 0 52 28z" fill="#EB5255"/><path d="M17.637 36.181h3.818v3.274A.528.528 0 0 0 22 40h2.846a.538.538 0 0 0 .545-.545v-3.273H34a.53.53 0 0 0 .392-.154.53.53 0 0 0 .154-.392v-2.182a.53.53 0 0 0-.154-.391.53.53 0 0 0-.392-.154h-8.608v-2.012h5.796c2.272 0 4.127-.692 5.565-2.08 1.437-1.385 2.156-3.174 2.156-5.368 0-2.193-.719-3.983-2.156-5.37C35.315 16.694 33.46 16 31.187 16H22a.531.531 0 0 0-.392.153.533.533 0 0 0-.153.392v10.722h-3.818a.539.539 0 0 0-.546.545v2.54c0 .16.051.29.153.392a.53.53 0 0 0 .393.153h3.818v2.012h-3.818a.53.53 0 0 0-.393.154.53.53 0 0 0-.153.391v2.182c0 .16.051.29.153.392a.53.53 0 0 0 .393.154zm7.755-16.55h5.455c1.204 0 2.175.352 2.914 1.057.739.704 1.108 1.625 1.108 2.761 0 1.136-.37 2.057-1.108 2.761-.739.705-1.71 1.057-2.914 1.057h-5.455v-7.636z" fill="#fff"/></svg>