<svg width="56" height="56" fill="none" xmlns="http://www.w3.org/2000/svg"><path d="M56 28c0-1.32-.458-2.61-1.29-3.632l-2.348-2.893.586-3.685a5.766 5.766 0 0 0-3.634-6.291l-3.487-1.336-1.329-3.474a5.762 5.762 0 0 0-2.503-2.94 5.81 5.81 0 0 0-3.788-.698l-3.685.587-2.892-2.346a5.75 5.75 0 0 0-7.262-.003l-2.893 2.349-3.685-.586a5.766 5.766 0 0 0-6.291 3.634l-1.336 3.487-3.474 1.329a5.762 5.762 0 0 0-2.94 2.503 5.81 5.81 0 0 0-.698 3.789l.587 3.684-2.346 2.892a5.75 5.75 0 0 0-.003 7.262l2.349 2.893-.586 3.685a5.766 5.766 0 0 0 3.634 6.291l3.487 1.336 1.329 3.474a5.762 5.762 0 0 0 2.503 2.94 5.81 5.81 0 0 0 3.789.699l3.684-.588 2.892 2.346a5.75 5.75 0 0 0 7.262.003l2.893-2.349 3.685.586a5.766 5.766 0 0 0 6.291-3.634l1.336-3.487 3.474-1.329a5.762 5.762 0 0 0 2.94-2.503 5.81 5.81 0 0 0 .699-3.788l-.588-3.685 2.346-2.892A5.75 5.75 0 0 0 56 28z" fill="#fff"/><path d="M52 28a4.95 4.95 0 0 0-1.105-3.113l-2.013-2.48.502-3.159a4.942 4.942 0 0 0-3.115-5.392l-2.989-1.145-1.139-2.978a4.939 4.939 0 0 0-2.145-2.52 4.98 4.98 0 0 0-3.248-.598l-3.157.503-2.48-2.01a4.929 4.929 0 0 0-6.224-.003l-2.48 2.013-3.159-.502a4.943 4.943 0 0 0-5.392 3.115l-1.145 2.989-2.978 1.139a4.939 4.939 0 0 0-2.52 2.145 4.98 4.98 0 0 0-.598 3.248l.503 3.157-2.01 2.48a4.929 4.929 0 0 0-.003 6.224l2.013 2.48-.502 3.159a4.943 4.943 0 0 0 3.115 5.392l2.989 1.145 1.139 2.978a4.939 4.939 0 0 0 2.145 2.52 4.98 4.98 0 0 0 3.248.598l3.157-.503 2.48 2.01a4.928 4.928 0 0 0 6.224.003l2.48-2.013 3.159.502a4.942 4.942 0 0 0 5.392-3.115l1.145-2.989 2.978-1.139a4.939 4.939 0 0 0 2.52-2.145 4.98 4.98 0 0 0 .598-3.248l-.503-3.157 2.01-2.48A4.928 4.928 0 0 0 52 28z" fill="#EB5255"/><path d="M26.587 33.035c.13 2.268-.341 3.166-1.92 3.419-1.578.252-3.107-1.108-3.416-3.04-.142-.888-.283-2.69-.464-3.48l-1.355-3.815c-.078-.337-.971-1.943-1.113-2.642a2.626 2.626 0 0 1 2.05-3.096l2.483-.5c.372-.077 1.48-.15 1.48-.15 1.523 0 2.256.787 2.256 2.31 0 .882-1.564 2.24-1.564 2.24s-2.214 2.132-1.44 3.715c.773 1.584 2.535 2.041 3.003 5.039zM24.82 19.342c.628 0 1.14-.75 1.14-1.672 0-.923-.512-1.67-1.14-1.67-.634 0-1.145.749-1.145 1.67.002.921.511 1.672 1.145 1.672zm-2.43-.17c.405-.057.665-.584.58-1.176-.084-.593-.482-1.026-.886-.967-.403.057-.663.583-.58 1.176.085.591.482 1.024.887.967zm-1.73.47c.293-.07.448-.473.347-.9-.102-.427-.421-.72-.713-.65-.292.07-.448.47-.346.9.1.427.418.718.712.65zm-1.4.917c.255-.101.342-.488.193-.862-.149-.375-.475-.597-.73-.495-.256.102-.344.487-.195.862.15.374.476.596.731.495zm-1.526.108c-.17.066-.228.322-.13.572.097.248.315.395.485.329.17-.066.229-.323.131-.572-.1-.25-.316-.397-.486-.329zm17.955 3.617s-2.065-.606-2.429-.711c-.364-.108-1.461-.275-1.461-.275-1.518-.13-2.315.592-2.445 2.108-.078.877 1.365 2.365 1.365 2.365s2.024 2.313 1.116 3.823c-.906 1.51-2.7 1.818-3.42 4.762-.325 2.245.07 3.182 1.616 3.572 1.554.388 3.19-.84 3.667-2.734.218-.876.511-2.66.761-3.431l1.676-3.684c.106-.33 1.134-1.853 1.335-2.537a2.628 2.628 0 0 0-1.78-3.258zm-4.345-1.42c.629.055 1.202-.646 1.282-1.567.08-.92-.366-1.708-.996-1.762-.629-.055-1.202.646-1.281 1.567-.08.92.367 1.71.995 1.762zm2.435.04c.397.091.829-.307.964-.888.133-.582-.08-1.128-.476-1.22-.397-.091-.83.307-.963.888-.135.582.08 1.128.475 1.22zm1.685.615c.284.093.626-.169.764-.585.138-.417.018-.832-.266-.925-.285-.094-.628.168-.766.585-.138.416-.018.831.268.925zm1.967-.268c-.248-.123-.594.068-.773.429-.179.36-.125.752.123.875.247.123.595-.068.773-.429.18-.36.124-.753-.123-.875zm.86 1.54c-.163-.081-.394.047-.514.286-.117.239-.083.5.083.582.164.083.394-.045.514-.286.119-.239.083-.5-.083-.582z" fill="#fff"/></svg>