<svg width="56" height="56" fill="none" xmlns="http://www.w3.org/2000/svg"><path d="M56 28c0-1.32-.458-2.61-1.29-3.632l-2.348-2.893.586-3.685a5.766 5.766 0 0 0-3.634-6.291l-3.487-1.336-1.329-3.474a5.762 5.762 0 0 0-2.503-2.94 5.81 5.81 0 0 0-3.788-.698l-3.685.587-2.892-2.346a5.75 5.75 0 0 0-7.262-.003l-2.893 2.349-3.685-.586a5.766 5.766 0 0 0-6.291 3.634l-1.336 3.487-3.474 1.329a5.762 5.762 0 0 0-2.94 2.503 5.81 5.81 0 0 0-.698 3.789l.587 3.684-2.346 2.892a5.75 5.75 0 0 0-.003 7.262l2.349 2.893-.586 3.685a5.766 5.766 0 0 0 3.634 6.291l3.487 1.336 1.329 3.474a5.762 5.762 0 0 0 2.503 2.94 5.81 5.81 0 0 0 3.789.699l3.684-.588 2.892 2.346a5.75 5.75 0 0 0 7.262.003l2.893-2.349 3.685.586a5.766 5.766 0 0 0 6.291-3.634l1.336-3.487 3.474-1.329a5.762 5.762 0 0 0 2.94-2.503 5.81 5.81 0 0 0 .699-3.788l-.588-3.685 2.346-2.892A5.75 5.75 0 0 0 56 28z" fill="#fff"/><path d="M52 28a4.95 4.95 0 0 0-1.105-3.113l-2.013-2.48.502-3.159a4.942 4.942 0 0 0-3.115-5.392l-2.989-1.145-1.139-2.978a4.939 4.939 0 0 0-2.145-2.52 4.98 4.98 0 0 0-3.248-.598l-3.157.503-2.48-2.01a4.929 4.929 0 0 0-6.224-.003l-2.48 2.013-3.159-.502a4.943 4.943 0 0 0-5.392 3.115l-1.145 2.989-2.978 1.139a4.939 4.939 0 0 0-2.52 2.145 4.98 4.98 0 0 0-.598 3.248l.503 3.157-2.01 2.48a4.929 4.929 0 0 0-.003 6.224l2.013 2.48-.502 3.159a4.943 4.943 0 0 0 3.115 5.392l2.989 1.145 1.139 2.978a4.939 4.939 0 0 0 2.145 2.52 4.98 4.98 0 0 0 3.248.598l3.157-.503 2.48 2.01a4.928 4.928 0 0 0 6.224.003l2.48-2.013 3.159.502a4.942 4.942 0 0 0 5.392-3.115l1.145-2.989 2.978-1.139a4.939 4.939 0 0 0 2.52-2.145 4.98 4.98 0 0 0 .598-3.248l-.503-3.157 2.01-2.48A4.928 4.928 0 0 0 52 28z" fill="#EB5255"/><g clip-path="url(#clip0)" fill="#fff"><path d="M24.744 29.24c0-.3-.244-.543-.545-.543h-1.9a.544.544 0 0 0-.545.544v1.9c0 .302.244.545.544.545H24.2a.545.545 0 0 0 .545-.544V29.24zm4.751 0c0-.3-.244-.543-.544-.543H27.05a.544.544 0 0 0-.545.544v1.9c0 .302.244.545.545.545h1.9a.545.545 0 0 0 .545-.544V29.24zm4.751 0c0-.3-.244-.543-.545-.543h-1.9a.544.544 0 0 0-.545.544v1.9c0 .302.244.545.544.545h1.901c.3 0 .545-.244.545-.544V29.24zm-9.502 4.752a.544.544 0 0 0-.545-.545h-1.9a.545.545 0 0 0-.545.545v1.9c0 .301.244.545.544.545H24.2a.545.545 0 0 0 .545-.545v-1.9zm4.751 0a.544.544 0 0 0-.544-.545H27.05a.545.545 0 0 0-.545.545v1.9c0 .301.244.545.545.545h1.9a.545.545 0 0 0 .545-.545v-1.9zm4.751 0a.544.544 0 0 0-.544-.545H31.8c-.3 0-.544.244-.544.545v1.9c0 .301.244.545.544.545h1.902c.3 0 .544-.244.544-.545v-1.9z"/><path d="M37.645 18.672v2.904a2.371 2.371 0 0 1-2.377 2.37H33.77c-1.312 0-2.39-1.058-2.39-2.37v-2.914h-6.76v2.914c0 1.312-1.078 2.37-2.39 2.37h-1.5a2.371 2.371 0 0 1-2.376-2.37v-2.904a2.161 2.161 0 0 0-2.089 2.15v17.014c0 1.188.963 2.164 2.151 2.164h19.166a2.164 2.164 0 0 0 2.15-2.164V20.822a2.161 2.161 0 0 0-2.088-2.15zm-.696 18.104a.93.93 0 0 1-.93.93H19.94a.93.93 0 0 1-.93-.93v-8.788a.93.93 0 0 1 .93-.93h16.08a.93.93 0 0 1 .93.93v8.788z"/><path d="M20.726 22.389h1.483c.45 0 .815-.365.815-.815v-4.76a.815.815 0 0 0-.815-.814h-1.483a.815.815 0 0 0-.815.815v4.76c0 .45.365.814.815.814zm13.024 0h1.483c.45 0 .815-.365.815-.815v-4.76a.815.815 0 0 0-.815-.814H33.75a.815.815 0 0 0-.815.815v4.76c0 .45.365.814.815.814z"/></g><defs><clipPath id="clip0"><path fill="#fff" transform="translate(16 16)" d="M0 0h24v24H0z"/></clipPath></defs></svg>