<svg width="20" height="20" fill="none" xmlns="http://www.w3.org/2000/svg"><path d="M17.5 5.457a.156.156 0 0 0-.156-.144H14.53V4.53A4.536 4.536 0 0 0 10 0a4.536 4.536 0 0 0-4.531 4.531v.782H2.656a.156.156 0 0 0-.156.144L1.407 19.832a.155.155 0 0 0 .155.168h16.875a.156.156 0 0 0 .156-.168L17.5 5.457zM6.719 4.53A3.285 3.285 0 0 1 10 1.25a3.285 3.285 0 0 1 3.281 3.281v.782H6.72V4.53zm-.625 5.157a1.565 1.565 0 0 1-1.563-1.563c0-.624.313-1.185.938-1.432v1.432a.626.626 0 0 0 1.25 0v-1.43c.625.246.937.813.937 1.431 0 .862-.7 1.563-1.562 1.563zm7.812 0a1.564 1.564 0 0 1-1.562-1.563c0-.624.312-1.185.937-1.432v1.432a.626.626 0 0 0 1.25 0v-1.43c.625.246.938.813.938 1.431 0 .862-.701 1.563-1.563 1.563z" fill="#fff"/></svg>