<svg width="33" height="30" fill="none" xmlns="http://www.w3.org/2000/svg"><g filter="url(#filter0_d)"><path d="M4 7V5h.5v-.5h.438V4h1.875v.5h1.875V4h1.874v.5h1.876V4h1.874v.5h1.876V4h1.875v.5H19c.315 0 .626.015.932.045l.049-.498a9.954 9.954 0 0 1 1.923.381l-.145.479c.6.182 1.176.421 1.72.713l.236-.441c.58.31 1.125.676 1.629 1.09l-.317.387c.48.395.922.836 1.317 1.317l.386-.317c.415.504.78 1.05 1.091 1.63l-.44.235c.29.544.53 1.12.712 1.72l.479-.145c.187.618.316 1.261.38 1.923l-.497.049a9.63 9.63 0 0 1 0 1.864l.498.048a9.951 9.951 0 0 1-.381 1.924l-.479-.145a9.437 9.437 0 0 1-.713 1.72l.441.236a9.974 9.974 0 0 1-1.09 1.629l-.387-.317a9.56 9.56 0 0 1-1.317 1.317l.317.386c-.504.415-1.05.78-1.63 1.091l-.235-.44a9.437 9.437 0 0 1-1.72.712l.145.479a9.952 9.952 0 0 1-1.923.38l-.049-.497A9.63 9.63 0 0 1 19 23.5h-.938v.5h-1.875v-.5h-1.875v.5h-1.874v-.5h-1.876v.5H8.688v-.5H6.812v.5H4.938v-.5H4.5V23H4v-2h.5v-2H4v-2h.5v-2H4v-2h.5v-2H4V9h.5V7H4z" fill="#27AE60" stroke="#6FCF97" stroke-linejoin="round" stroke-dasharray="2 2"/><path d="M11.92 10.96c0-.614.2-1.111.601-1.49.401-.378.94-.567 1.614-.567.683 0 1.223.19 1.62.568.396.373.595.881.595 1.524v.492c0 .615-.199 1.11-.595 1.484-.397.373-.932.56-1.607.56-.67 0-1.21-.184-1.62-.554-.405-.373-.608-.884-.608-1.53v-.486zm1.483.527c0 .237.066.431.199.581.132.146.314.22.546.22.479 0 .718-.306.718-.917v-.41a.867.867 0 0 0-.191-.581c-.128-.155-.308-.232-.54-.232a.674.674 0 0 0-.533.225c-.133.146-.199.346-.199.602v.512zm3.247 5.073c0-.62.2-1.117.602-1.49.406-.374.943-.561 1.613-.561.68 0 1.22.184 1.62.553.401.37.602.885.602 1.545v.479c0 .62-.198 1.117-.595 1.49-.396.374-.934.56-1.613.56-.67 0-1.21-.184-1.62-.553-.406-.374-.609-.884-.609-1.531v-.492zm1.477.526c0 .214.073.403.219.567.145.16.323.24.533.24.442 0 .681-.21.718-.63l.006-.703c0-.242-.066-.436-.198-.581a.682.682 0 0 0-.54-.226.687.687 0 0 0-.526.212c-.132.137-.203.323-.212.56v.56zm-3.541 1.169l-1.073-.54 4.86-7.78 1.073.54-4.86 7.78z" fill="#fff"/><path d="M4 24c5.523 0 10-4.477 10-10S9.523 4 4 4v20z" fill="#6FCF97" filter="url(#filter1_d)"/></g><defs><filter id="filter0_d" x="0" y="2" width="33" height="28" filterUnits="userSpaceOnUse" color-interpolation-filters="sRGB"><feFlood flood-opacity="0" result="BackgroundImageFix"/><feColorMatrix in="SourceAlpha" values="0 0 0 0 0 0 0 0 0 0 0 0 0 0 0 0 0 0 127 0"/><feOffset dy="2"/><feGaussianBlur stdDeviation="2"/><feColorMatrix values="0 0 0 0 0 0 0 0 0 0 0 0 0 0 0 0 0 0 0.15 0"/><feBlend in2="BackgroundImageFix" result="effect1_dropShadow"/><feBlend in="SourceGraphic" in2="effect1_dropShadow" result="shape"/></filter><filter id="filter1_d" x="2" y="0" width="18" height="28" filterUnits="userSpaceOnUse" color-interpolation-filters="sRGB"><feFlood flood-opacity="0" result="BackgroundImageFix"/><feColorMatrix in="SourceAlpha" values="0 0 0 0 0 0 0 0 0 0 0 0 0 0 0 0 0 0 127 0"/><feOffset dx="2"/><feGaussianBlur stdDeviation="2"/><feColorMatrix values="0 0 0 0 0 0 0 0 0 0 0 0 0 0 0 0 0 0 0.25 0"/><feBlend in2="BackgroundImageFix" result="effect1_dropShadow"/><feBlend in="SourceGraphic" in2="effect1_dropShadow" result="shape"/></filter></defs></svg>