<svg xmlns="http://www.w3.org/2000/svg" height="32" width="64"><path d="M64 16c0-.754-.262-1.491-.737-2.075l-1.342-1.654.335-2.106a3.297 3.297 0 0 0-2.077-3.595l-1.993-.763-.759-1.986a3.294 3.294 0 0 0-1.43-1.68 3.322 3.322 0 0 0-2.165-.399l-2.105.335L50.074.736A3.294 3.294 0 0 0 48 0H16c-.754 0-1.491.262-2.075.737l-1.654 1.342-2.106-.335A3.297 3.297 0 0 0 6.57 3.821l-.762 1.992-1.986.76a3.294 3.294 0 0 0-1.68 1.43 3.322 3.322 0 0 0-.399 2.165l.335 2.105-1.341 1.653a3.29 3.29 0 0 0 0 4.149l1.342 1.654-.335 2.106a3.297 3.297 0 0 0 2.077 3.595l1.993.763.759 1.986a3.294 3.294 0 0 0 1.43 1.68 3.322 3.322 0 0 0 2.165.399l2.105-.335 1.653 1.341A3.294 3.294 0 0 0 16 32h32c.754 0 1.491-.262 2.075-.737l1.654-1.342 2.106.335a3.297 3.297 0 0 0 3.595-2.077l.763-1.993 1.986-.759a3.294 3.294 0 0 0 1.68-1.43 3.322 3.322 0 0 0 .399-2.165l-.335-2.105 1.341-1.653A3.294 3.294 0 0 0 64 16zm-39.487 6h-2.727l-4.031-7.078V22h-2.742V10.625h2.742l4.023 7.078v-7.078h2.734V22zm10.385-9.258h-5.109v2.398h4.313v2.039h-4.313v2.711h5.094V22h-7.836V10.625h7.852v2.117zM47.222 22h-2.844l-1.523-6.484L41.362 22h-2.836l-2.422-11.375h2.727l1.305 7.133 1.563-7.133h2.328l1.586 7.133 1.305-7.133h2.719z" fill="#eb5255"/></svg>