<svg width="72" height="40" fill="none" xmlns="http://www.w3.org/2000/svg"><g filter="url(#filter0_d)"><path fill="#1FB5DB" d="M20 2h32v32H20z"/><path d="M68 18a3.3 3.3 0 0 0-.737-2.075l-1.342-1.654.335-2.106a3.296 3.296 0 0 0-2.077-3.594l-1.992-.763-.76-1.986a3.293 3.293 0 0 0-1.43-1.68 3.32 3.32 0 0 0-2.165-.399l-2.105.336-1.652-1.341a3.286 3.286 0 0 0-4.15-.001L48.27 4.079l-2.105-.335a3.295 3.295 0 0 0-3.595 2.077l-.763 1.992-1.986.76c-.703.265-1.3.772-1.68 1.43a3.32 3.32 0 0 0-.399 2.165l.336 2.105-1.341 1.652a3.286 3.286 0 0 0-.001 4.15l1.342 1.654-.335 2.105a3.296 3.296 0 0 0 2.077 3.595l1.992.763.76 1.986c.265.703.772 1.3 1.43 1.68a3.32 3.32 0 0 0 2.165.399l2.105-.336 1.652 1.341a3.286 3.286 0 0 0 4.15.001l1.654-1.342 2.105.335a3.296 3.296 0 0 0 3.595-2.077l.763-1.992 1.986-.76a3.293 3.293 0 0 0 1.68-1.43 3.32 3.32 0 0 0 .399-2.165l-.336-2.105 1.341-1.652A3.29 3.29 0 0 0 67.999 18z" fill="#1FB5DB"/><path d="M36 18a3.3 3.3 0 0 0-.737-2.075l-1.342-1.654.335-2.106a3.296 3.296 0 0 0-2.077-3.594l-1.992-.763-.76-1.986a3.293 3.293 0 0 0-1.43-1.68 3.32 3.32 0 0 0-2.165-.399l-2.105.336-1.652-1.341a3.286 3.286 0 0 0-4.15-.001L16.27 4.079l-2.106-.335a3.295 3.295 0 0 0-3.594 2.077l-.763 1.992-1.986.76c-.703.265-1.3.772-1.68 1.43a3.32 3.32 0 0 0-.399 2.165l.336 2.105-1.341 1.652a3.286 3.286 0 0 0-.001 4.15l1.342 1.654-.335 2.105a3.295 3.295 0 0 0 2.077 3.595l1.992.763.76 1.986c.265.703.772 1.3 1.43 1.68a3.32 3.32 0 0 0 2.165.399l2.105-.336 1.652 1.341a3.286 3.286 0 0 0 4.15.001l1.654-1.342 2.105.335a3.296 3.296 0 0 0 3.595-2.077l.763-1.992 1.986-.76a3.293 3.293 0 0 0 1.68-1.43 3.32 3.32 0 0 0 .399-2.165l-.336-2.105 1.341-1.652A3.29 3.29 0 0 0 35.999 18z" fill="#1FB5DB"/><path d="M22.253 20.977c0-.401-.143-.714-.43-.938-.28-.224-.778-.456-1.492-.695a14.356 14.356 0 0 1-1.75-.696c-1.474-.724-2.21-1.718-2.21-2.984 0-.63.182-1.185.546-1.664.37-.484.89-.86 1.563-1.125.672-.27 1.427-.406 2.265-.406.818 0 1.55.146 2.196.437.65.292 1.156.709 1.515 1.25.36.537.54 1.151.54 1.844H22.26c0-.463-.143-.823-.43-1.078-.281-.255-.664-.383-1.148-.383-.49 0-.878.11-1.164.328-.281.214-.422.487-.422.82 0 .292.156.558.469.797.312.235.862.48 1.648.735.787.25 1.432.52 1.938.812 1.229.709 1.843 1.685 1.843 2.93 0 .995-.375 1.776-1.125 2.344-.75.567-1.778.851-3.086.851-.921 0-1.757-.164-2.507-.492-.745-.333-1.308-.786-1.688-1.36-.375-.577-.562-1.241-.562-1.991h2.75c0 .609.156 1.06.468 1.351.318.287.831.43 1.54.43.453 0 .81-.097 1.07-.29.265-.197.398-.473.398-.827zm11.41.898h-3.758L29.248 24h-2.93l4.173-11.375h2.578L37.272 24h-2.945l-.664-2.125zm-3.102-2.117h2.445l-1.226-3.945-1.22 3.945zM41.65 21.89h4.773V24h-7.515V12.625h2.742v9.266zm13.784-2.711h-4.312v2.71h5.094V24H48.38V12.625h7.851v2.117h-5.11v2.399h4.313v2.039z" fill="#fff"/></g><defs><filter id="filter0_d" x="0" y="0" width="72" height="40" filterUnits="userSpaceOnUse" color-interpolation-filters="sRGB"><feFlood flood-opacity="0" result="BackgroundImageFix"/><feColorMatrix in="SourceAlpha" values="0 0 0 0 0 0 0 0 0 0 0 0 0 0 0 0 0 0 127 0"/><feOffset dy="2"/><feGaussianBlur stdDeviation="2"/><feColorMatrix values="0 0 0 0 0 0 0 0 0 0 0 0 0 0 0 0 0 0 0.15 0"/><feBlend in2="BackgroundImageFix" result="effect1_dropShadow"/><feBlend in="SourceGraphic" in2="effect1_dropShadow" result="shape"/></filter></defs></svg>