<svg xmlns="http://www.w3.org/2000/svg" id="svg37" height="342.61" width="350"><g transform="translate(-16.54 -152.258) scale(.44263)" id="Слой_2" stroke-miterlimit="10" fill="none" stroke="#000" stroke-width="3"><path id="polygon3" d="M39.5 1101.5l108-306-51-443 712-7-1 443 19 301z"/><path id="polygon5" d="M784.5 754.5l-619 8-43-384 662-4z"/><path id="polyline7" d="M39.5 1098.5v18l787-9v-21"/><path id="line9" d="M147.5 795.5l79-2"/><path id="line11" d="M807.5 786.5l-81 1"/><path id="polygon13" d="M724.5 781.5v19l-496 5v-19z"/><path id="polygon15" d="M773.5 807.5l5 148-652 9 46-148z"/><path id="polygon17" d="M572.5 969.5l-6 111-259 5 24-113z"/></g></svg>