<svg xmlns="http://www.w3.org/2000/svg" height="446.782" width="500" id="Слой_3"><path id="path2" d="M469.033 20.134L20.327 37.392c-.641.024-1.15.55-1.152 1.193l-.959 262.704a1.199 1.199 0 0 0 1.148 1.202l449.665 19.175.05.001a1.196 1.196 0 0 0 1.199-1.198V21.33a1.195 1.195 0 0 0-1.245-1.197zm-1.152 299.084L20.617 300.145l.95-260.402 446.314-17.166z" stroke-width=".479"/><path id="path4" d="M499.603 4.621L494.81.307c-.029-.026-.06-.044-.09-.067-.03-.021-.057-.044-.087-.063-.041-.025-.084-.044-.127-.064-.03-.013-.057-.028-.087-.04-.045-.016-.09-.025-.136-.036-.032-.008-.063-.018-.095-.023a1.175 1.175 0 0 0-.145-.009c-.028 0-.055-.006-.083-.005L1.15 19.655A1.198 1.198 0 0 0 0 20.853v302.013c0 .641.504 1.169 1.145 1.197l237.66 10.697c.363 5.724 2.006 33.852-.043 43.465-.547 2.561-2.534 7.16-4.591 11.512l-48.805-3.35c-.138-.01-.275 0-.407.042l-88.687 24.928a1.199 1.199 0 0 0-.868 1.27c0 .01.003.015.004.023-.003.034-.01.066-.01.1v13.184c0 .621.474 1.139 1.093 1.193l222.435 19.655h.106c.171 0 .341-.037.498-.109l68.073-31.16c.427-.195.7-.62.7-1.09v-11.265c0-.662-.536-1.198-1.198-1.198-.229 0-.44.067-.621.177l-108.822-9.979c-1.898-5.073-3.925-10.902-4.43-13.887-1.57-9.319-.339-36.087-.044-41.969l217.89 9.808h.053c.081 0 .16-.01.24-.025.025-.01.049-.015.073-.022.053-.014.105-.03.155-.05.03-.013.056-.03.084-.043a1.045 1.045 0 0 0 .207-.137c.021-.018.045-.032.065-.051.016-.015.028-.034.044-.051.013-.014.029-.024.042-.04l5.752-6.71a1.2 1.2 0 0 0 .29-.774L500 5.513a1.199 1.199 0 0 0-.397-.898zM2.396 22.004L492.8 2.444l-2.856 341.22L2.396 321.72zm95.398 391.808l220.039 18.02v12.448L97.794 424.837zm222.436 29.91v-12.184l65.676-26.362v8.483zm61.814-39.58l-63.197 25.368-215.508-17.649 82.068-23.068 47.647 3.27a294.906 294.906 0 0 1-4.247 8.38 1.198 1.198 0 0 0 .433 1.585c.364.223 9.117 5.45 26.512 5.45 17.39 0 24.76-4.303 25.065-4.486.508-.305.717-.934.492-1.482-.029-.07-1.23-3.008-2.703-6.853zM270.87 378.674c.908 5.386 6.24 18.839 7.802 22.71-2.402 1.074-9.63 3.697-22.92 3.697-13.43 0-21.573-3.283-24.267-4.58 1.984-3.794 8.49-16.483 9.619-21.777 2.111-9.903.517-37.456.109-43.856l29.58 1.331c-.309 6.031-1.555 32.796.077 42.475zm224.818-40.914l-3.33 3.885 2.826-337.777 2.416 2.174z" stroke-width=".479"/></svg>