<?xml version="1.0" encoding="UTF-8" standalone="no"?>
<svg
   xmlns:dc="http://purl.org/dc/elements/1.1/"
   xmlns:cc="http://creativecommons.org/ns#"
   xmlns:rdf="http://www.w3.org/1999/02/22-rdf-syntax-ns#"
   xmlns:svg="http://www.w3.org/2000/svg"
   xmlns="http://www.w3.org/2000/svg"
   xml:space="preserve"
   enable-background="new 0 0 960 640"
   viewBox="0 0 25 24.95376"
   height="24.95376"
   width="25"
   y="0px"
   x="0px"
   id="Слой_1"
   version="1.1"><metadata
     id="metadata9"><rdf:RDF><cc:Work
         rdf:about=""><dc:format>image/svg+xml</dc:format><dc:type
           rdf:resource="http://purl.org/dc/dcmitype/StillImage" /><dc:title></dc:title></cc:Work></rdf:RDF></metadata><defs
     id="defs7" /><path
     style="clip-rule:evenodd;fill:#1d1d1b;fill-rule:evenodd;stroke-width:0.51374787"
     id="path2"
     d="m 23.60055,12.45684 c 0.0467,-0.41305 0.0735,-0.82662 0.0735,-1.24635 C 23.67405,5.02548 18.64189,0 12.45688,0 6.27135,0 1.24638,5.03216 1.24638,11.21049 c 0,0.42025 0.0267,0.83998 0.0735,1.24635 H 0 v 2.49939 H 1.25303 L 3.139,22.94757 c 0.21321,1.16621 1.13281,2.00619 2.20603,2.00619 h 14.30994 c 1.07322,0 1.99282,-0.83998 2.20603,-2.00619 l 1.88597,-7.99134 H 25 V 12.45684 Z M 3.7519,11.20998 c 0,-4.8056 3.90603,-8.71111 8.71111,-8.71111 4.8056,0 8.71779,3.90551 8.71779,8.71111 0,0.42641 -0.0401,0.83997 -0.10018,1.24635 H 3.85157 C 3.79197,12.04995 3.75187,11.6369 3.75187,11.20998 Z" /></svg>