<svg xmlns="http://www.w3.org/2000/svg" height="24.954" width="25" id="Слой_1"><path id="path2" d="M23.6 12.457c.047-.413.074-.827.074-1.247C23.674 5.025 18.642 0 12.457 0 6.27 0 1.247 5.032 1.247 11.21c0 .42.026.84.073 1.247H0v2.5h1.253l1.886 7.99c.213 1.167 1.133 2.007 2.206 2.007h14.31c1.073 0 1.993-.84 2.206-2.006l1.886-7.992H25v-2.5zM3.753 11.21c0-4.806 3.906-8.711 8.711-8.711 4.806 0 8.718 3.905 8.718 8.711 0 .426-.04.84-.1 1.246H3.85c-.059-.406-.1-.82-.1-1.246z" clip-rule="evenodd" fill="#1d1d1b" fill-rule="evenodd" stroke-width=".514"/></svg>