<?xml version="1.0" encoding="UTF-8" standalone="no"?>
<svg
   xmlns:dc="http://purl.org/dc/elements/1.1/"
   xmlns:cc="http://creativecommons.org/ns#"
   xmlns:rdf="http://www.w3.org/1999/02/22-rdf-syntax-ns#"
   xmlns:svg="http://www.w3.org/2000/svg"
   xmlns="http://www.w3.org/2000/svg"
   xml:space="preserve"
   enable-background="new 0 0 960 640"
   viewBox="0 0 21.599833 22"
   height="22"
   width="21.599833"
   y="0px"
   x="0px"
   id="Слой_1"
   version="1.1"><metadata
     id="metadata19"><rdf:RDF><cc:Work
         rdf:about=""><dc:format>image/svg+xml</dc:format><dc:type
           rdf:resource="http://purl.org/dc/dcmitype/StillImage" /><dc:title></dc:title></cc:Work></rdf:RDF></metadata><defs
     id="defs17" /><g
     style="fill:#1d1d1b;fill-opacity:1"
     transform="matrix(0.61469684,0,0,0.61469684,-284.78905,-185.98145)"
     id="g12"><g
       style="fill:#1d1d1b;fill-opacity:1"
       id="g10"><g
         style="fill:#1d1d1b;fill-opacity:1"
         id="g4"><path
           style="clip-rule:evenodd;fill:#1d1d1b;fill-rule:evenodd;fill-opacity:1"
           id="path2"
           d="m 480.87,305.768 c 4.691,0 5.251,0.013 7.105,0.099 1.717,0.075 2.638,0.373 3.26,0.61 0.821,0.323 1.406,0.709 2.016,1.331 0.61,0.622 0.995,1.22 1.319,2.053 0.236,0.635 0.523,1.58 0.61,3.323 0.087,1.892 0.1,2.451 0.1,7.23 0,4.779 -0.013,5.339 -0.1,7.23 -0.075,1.742 -0.361,2.688 -0.61,3.322 -0.324,0.834 -0.697,1.431 -1.319,2.053 -0.61,0.622 -1.195,1.008 -2.016,1.332 -0.622,0.249 -1.555,0.535 -3.26,0.61 -1.854,0.087 -2.414,0.099 -7.105,0.099 -4.691,0 -5.251,-0.012 -7.105,-0.099 -1.717,-0.075 -2.638,-0.373 -3.26,-0.61 -0.821,-0.323 -1.406,-0.709 -2.016,-1.332 -0.61,-0.622 -0.995,-1.219 -1.319,-2.053 -0.236,-0.635 -0.522,-1.58 -0.61,-3.322 -0.087,-1.892 -0.1,-2.451 -0.1,-7.23 0,-4.778 0.013,-5.338 0.1,-7.23 0.075,-1.742 0.361,-2.688 0.61,-3.323 0.324,-0.834 0.697,-1.431 1.319,-2.053 0.61,-0.622 1.195,-1.008 2.016,-1.331 0.622,-0.249 1.556,-0.535 3.26,-0.61 1.853,-0.074 2.401,-0.099 7.105,-0.099 z m 0,-3.21 c -4.778,0 -5.376,0.025 -7.242,0.112 -1.867,0.087 -3.148,0.386 -4.268,0.834 -1.157,0.46 -2.14,1.07 -3.111,2.066 -0.983,0.996 -1.58,1.991 -2.029,3.173 -0.435,1.132 -0.734,2.439 -0.821,4.343 -0.087,1.904 -0.099,2.513 -0.099,7.367 0,4.853 0.025,5.463 0.099,7.367 0.087,1.904 0.386,3.198 0.821,4.343 0.448,1.17 1.045,2.178 2.029,3.173 0.983,0.996 1.954,1.605 3.111,2.066 1.12,0.448 2.402,0.747 4.268,0.834 1.879,0.087 2.476,0.112 7.242,0.112 4.766,0 5.376,-0.025 7.242,-0.112 1.867,-0.087 3.148,-0.386 4.268,-0.834 1.157,-0.46 2.14,-1.07 3.111,-2.066 0.983,-0.996 1.581,-1.991 2.028,-3.173 0.435,-1.132 0.734,-2.439 0.821,-4.343 0.087,-1.904 0.099,-2.514 0.099,-7.367 0,-4.853 -0.025,-5.463 -0.099,-7.367 -0.087,-1.904 -0.386,-3.198 -0.821,-4.343 -0.448,-1.17 -1.045,-2.178 -2.028,-3.173 -0.983,-0.995 -1.954,-1.605 -3.111,-2.066 -1.12,-0.448 -2.402,-0.747 -4.268,-0.834 -1.879,-0.1 -2.476,-0.112 -7.242,-0.112 z" /></g><path
         style="clip-rule:evenodd;fill:#1d1d1b;fill-rule:evenodd;fill-opacity:1"
         id="path6"
         d="m 480.87,311.256 c -4.99,0 -9.022,4.106 -9.022,9.183 0,5.077 4.044,9.183 9.022,9.183 4.978,0 9.022,-4.106 9.022,-9.183 -10e-4,-5.076 -4.045,-9.183 -9.022,-9.183 z m 0,15.144 c -3.236,0 -5.861,-2.663 -5.861,-5.961 0,-3.297 2.625,-5.96 5.861,-5.96 3.235,0 5.861,2.663 5.861,5.96 0,3.298 -2.626,5.961 -5.861,5.961 z" /><ellipse
         style="clip-rule:evenodd;fill:#1d1d1b;fill-rule:evenodd;fill-opacity:1"
         id="ellipse8"
         ry="2.1400001"
         rx="2.1029999"
         cy="310.883"
         cx="490.25299" /></g></g></svg>