<svg xmlns="http://www.w3.org/2000/svg" height="22" width="21.6" id="Слой_1"><g transform="translate(-284.789 -185.981) scale(.6147)" id="g12" fill="#1d1d1b"><g id="g10"><g id="g4"><path id="path2" d="M480.87 305.768c4.691 0 5.251.013 7.105.099 1.717.075 2.638.373 3.26.61a5.387 5.387 0 0 1 2.016 1.331c.61.622.995 1.22 1.319 2.053.236.635.523 1.58.61 3.323.087 1.892.1 2.451.1 7.23s-.013 5.339-.1 7.23c-.075 1.742-.361 2.688-.61 3.322-.324.834-.697 1.431-1.319 2.053a5.401 5.401 0 0 1-2.016 1.332c-.622.249-1.555.535-3.26.61-1.854.087-2.414.099-7.105.099-4.691 0-5.251-.012-7.105-.099-1.717-.075-2.638-.373-3.26-.61a5.377 5.377 0 0 1-2.016-1.332 5.654 5.654 0 0 1-1.319-2.053c-.236-.635-.522-1.58-.61-3.322-.087-1.892-.1-2.451-.1-7.23 0-4.778.013-5.338.1-7.23.075-1.742.361-2.688.61-3.323.324-.834.697-1.431 1.319-2.053a5.387 5.387 0 0 1 2.016-1.331c.622-.249 1.556-.535 3.26-.61 1.853-.074 2.401-.099 7.105-.099zm0-3.21c-4.778 0-5.376.025-7.242.112-1.867.087-3.148.386-4.268.834-1.157.46-2.14 1.07-3.111 2.066-.983.996-1.58 1.991-2.029 3.173-.435 1.132-.734 2.439-.821 4.343-.087 1.904-.099 2.513-.099 7.367 0 4.853.025 5.463.099 7.367.087 1.904.386 3.198.821 4.343.448 1.17 1.045 2.178 2.029 3.173a8.672 8.672 0 0 0 3.111 2.066c1.12.448 2.402.747 4.268.834 1.879.087 2.476.112 7.242.112s5.376-.025 7.242-.112c1.867-.087 3.148-.386 4.268-.834 1.157-.46 2.14-1.07 3.111-2.066a8.664 8.664 0 0 0 2.028-3.173c.435-1.132.734-2.439.821-4.343.087-1.904.099-2.514.099-7.367s-.025-5.463-.099-7.367c-.087-1.904-.386-3.198-.821-4.343-.448-1.17-1.045-2.178-2.028-3.173a8.685 8.685 0 0 0-3.111-2.066c-1.12-.448-2.402-.747-4.268-.834-1.879-.1-2.476-.112-7.242-.112z" clip-rule="evenodd" fill-rule="evenodd"/></g><path id="path6" d="M480.87 311.256c-4.99 0-9.022 4.106-9.022 9.183s4.044 9.183 9.022 9.183c4.978 0 9.022-4.106 9.022-9.183-.001-5.076-4.045-9.183-9.022-9.183zm0 15.144c-3.236 0-5.861-2.663-5.861-5.961 0-3.297 2.625-5.96 5.861-5.96 3.235 0 5.861 2.663 5.861 5.96 0 3.298-2.626 5.961-5.861 5.961z" clip-rule="evenodd" fill-rule="evenodd"/><ellipse id="ellipse8" ry="2.14" rx="2.103" cy="310.883" cx="490.253" clip-rule="evenodd" fill-rule="evenodd"/></g></g></svg>