<svg xmlns="http://www.w3.org/2000/svg" height="78.547" width="180.909" id="Слой_1"><g transform="translate(-390.724 -271.568)" id="g44" fill="#1d1d1b" clip-rule="evenodd" fill-rule="evenodd"><path id="path2" d="M561.713 298.623a8.278 8.278 0 0 0-1.007-1.734c-.575-.743-1.721-1.239-2.503-.478-.777.761-.559 2.095.053 2.877.021.035.039.067.069.102.055.092.144.241.175.312.088.194.174.389.245.584.018.042.027.071.04.096.013.035.023.088.051.173.336 1.058.535 2.152.719 3.248.039.265.076.535.117.8.018.138.043.276.053.414.011.081.018.134.025.173 0 .035.004.084.018.145.078.753.145 1.507.206 2.267.094 1.292.141 2.584.169 3.878a7.235 7.235 0 0 1-1.564.032c-.906-.071-1.929.573-1.858 1.575.078 1.047 1.154 1.635 2.093 1.716.453.035.901.047 1.348.032-.078 5.838-.681 11.744-2.248 17.359-.588 2.091 2.706 4.324 3.436 1.727 1.776-6.373 2.351-13.149 2.351-19.769 4.216-1.493 7.549-5.265 7.914-9.879.396-5.094-5.67-6.817-9.902-5.65zm5.902 5.828c-.346 2.43-1.928 4.522-3.993 5.785-.099-2.335-.309-4.663-.685-6.97a30.96 30.96 0 0 0-.237-1.306c.395-.173.683-.227 1.253-.322.648-.113 1.553-.078 2.046.025.182.05.358.102.54.156l.013.004c.111.053.221.102.327.156.041.021.067.042.096.049l.071.057c.078.056.152.12.223.187.012.021.028.039.053.071.187.227.265.421.306.651.086.477.057.98-.013 1.457z"/><path id="path4" d="M410.783 311.358c2.186-4.749 3.579-9.921 5.097-14.907 1.67-5.517 3.227-11.082 5.092-16.542.096-.268.182-.538.276-.807.018.099.036.198.046.301.219 1.436.384 2.887.518 4.335.341 3.634.5 7.286.589 10.93.188 7.954.006 15.965-.941 23.874a74.094 74.094 0 0 1-.759 5.007c-.329 1.758 3.427 3.91 3.806 1.931 1.421-7.572 1.722-15.392 1.794-23.074.057-7.173-.085-14.451-1.107-21.56-.299-2.08-.635-4.285-1.647-6.16-.787-1.458-3.356-3.081-4.538-1.206-.87 1.383-1.359 3.085-1.886 4.629-.855 2.515-1.622 5.056-2.389 7.593-1.781 5.859-3.468 11.755-5.419 17.565-.401 1.178-.811 2.36-1.247 3.524-.19.481-.372.955-.564 1.423-.084.213-.177.424-.266.636-.04.099-.088.195-.135.298-.012.042-.03.067-.035.095-.005 0-.012.014-.018.02a9.882 9.882 0 0 1-.481.938l-.018-.036c-.094-.215-.177-.438-.266-.661a24.22 24.22 0 0 1-.534-1.638c-.083-.28-.154-.566-.224-.846-.028-.106-.051-.205-.078-.305l-.075-.308a51.439 51.439 0 0 1-.435-2.076 102.076 102.076 0 0 1-.723-4.377c-.805-5.514-1.176-11.097-2.057-16.603-.278-1.73-.546-3.751-2.046-4.879-2.447-1.84-3.679.608-4.522 2.522-1.345 3.051-2.18 6.351-2.891 9.6-1.037 4.753-1.63 9.6-1.877 14.462-.281 5.605.023 11.252 1.083 16.765.205 1.055 1.07 1.89 2.087 2.187.729.209 1.962-.011 1.762-1.051-1.946-10.116-1.392-20.65.8-30.682.559-2.533 1.204-5.092 2.11-7.533.018.184.046.364.071.552.354 2.845.648 5.697.989 8.545.352 3.022.745 6.034 1.299 9.027.458 2.434.964 4.953 1.987 7.222.876 1.96 2.503 4.182 4.879 4.232 1.64.042 2.313-1.713 2.893-2.962zm-10.366-30.211s.005-.004.005-.011c.089-.045.186-.053-.005.011z"/><path id="path6" d="M429.867 306.44a14.811 14.811 0 0 0 1.04 5.711c.883 2.211 2.594 4.151 4.877 4.939 1.291.449 2.667.163 3.891-.35 2.379-1.009 4.386-3.039 6.096-4.968.395 1.79.946 3.539 1.746 5.145 1.124 2.244 3.91 5.159 6.603 3.443 2.123-1.356 3.38-4.122 4.398-6.384.071.354.159.701.281 1.037.496 1.373 1.93 2.048 3.351 1.921 1.172-.106 2.139-.683 2.964-1.494 2.034-1.999 3.504-4.603 4.957-7.03.319-.527.635-1.065.939-1.596.306.177.607.347.901.513.534.297 1.104.609 1.653.959-1.549 1.232-2.983 2.615-4.039 4.246-.77 1.182-1.23 2.6-.924 4.002.529 2.467 3.546 3.539 5.751 3.464 4.391-.149 7.248-5.255 5.716-9.179-.336-.85-.873-1.589-1.495-2.237.236-.173.469-.336.701-.495 1.198-.846 2.44-1.635 3.674-2.427.695.895 1.558 1.68 2.393 2.43 1.175 1.055 2.852 2.303 2.974 4.013.041.548-.111 1.022-.375 1.493-.154.265-.359.442-.6.633-.572-.367-1.03-1.882-1.179-2.455-.378-1.479-4.349-1.539-3.901.202.553 2.144 1.929 3.984 4.163 4.526 2.569.622 5.255-.623 5.839-3.315a3.753 3.753 0 0 0-.136-2.035c.799 1.56 2.711 2.283 4.451 2.081 1.099-.131 1.944-1.05 2.569-1.882.446-.598.833-1.225 1.198-1.883-.011 1.617-.011 3.266.26 4.862.358 2.031 1.517 4.565 3.48 5.52.668.326 1.837.623 2.427-.017.554-.595-.163-1.349-.704-1.659-.025-.036-.238-.241-.248-.252-.269-.308-.464-.662-.651-1.022-.446-.843-.683-1.755-.789-2.693-.205-1.737-.181-3.506-.159-5.244.053-3.209.299-6.379.605-9.568.085-.856-1.359-1.323-1.94-1.458-.64-.148-1.3.022-1.638.584-3.8-1.171-6.723 2.817-8.138 5.838-.835 1.773-1.401 3.907-1.03 5.877.023.153.06.294.107.436-1.02-2.13-3.659-3.815-5.039-5.368a6.052 6.052 0 0 1-1.025-1.589 34.56 34.56 0 0 0 1.326-.972c.899-.694 1.728-1.447 1.896-2.626.177-1.263-.953-2.244-2.045-2.544-1.375-.379-2.85-.007-3.928.906-1.294 1.104-1.739 2.771-1.469 4.367-1.523 1.012-3.123 1.942-4.61 2.943-.365.248-.729.5-1.106.761a20.6 20.6 0 0 0-1.041-.605c-.292-.17-.593-.336-.888-.51a10.92 10.92 0 0 1-.433-.24 4.93 4.93 0 0 0-.207-.117c-.016-.015-.041-.025-.081-.053a6.588 6.588 0 0 1-.706-.474c-.058-.039-.106-.085-.158-.124a107.707 107.707 0 0 1 1.994-3.298c.38-.612.775-1.206 1.192-1.794.699-.527 1.405-1.04 2.058-1.624.458-.404.787-.92.357-1.494-.64-.856-2.004-.92-2.956-.736-1.288.245-2.318 1.38-3.158 2.598-1.23.976-2.458 2.067-3.309 3.394-.667 1.033-.713 1.914-.407 2.675-.858 1.469-1.71 2.951-2.597 4.401-.953 1.572-2.065 3.372-3.211 4.717-.329-2.487-.041-5.343.177-7.911.195-2.223.433-4.452.798-6.66.258-1.567-3.714-2.052-3.98-.432a72.815 72.815 0 0 0-.453 3.175c-.341 1.316-.758 2.625-1.191 3.917-1.037 3.081-2.229 6.142-3.829 8.976-.623 1.097-1.329 2.19-2.252 3.058.076-.079-.3.222-.4.286a4.78 4.78 0 0 1-.213.099c-.01-.018-.021-.031-.027-.053-.02-.028-.043-.053-.053-.075a.171.171 0 0 1-.041-.074c-.401-.712-.7-1.48-.964-2.25-.696-1.996-1.023-4.14-1.283-6.221-.035-.276-.064-.541-.094-.807a67.237 67.237 0 0 0 3.998-6.199c2-3.468 3.71-7.12 5.055-10.895 1.136-3.171 2.042-6.539 2.088-9.929.029-1.95-.088-3.946-.711-5.803-.663-1.953-2.364-3.797-4.544-3.896-2.93-.127-4.587 2.976-5.586 5.276-1.709 3.942-2.592 8.227-3.227 12.452a76.402 76.402 0 0 0-.777 14.858c.037.732.083 1.476.137 2.226-1.288 1.726-2.693 3.372-4.246 4.869-.921.888-1.934 1.691-3.045 2.332a8.136 8.136 0 0 1-1.351.615c.088-.042-.388.089-.484.099-.323.06-.445.045-.605.021-.236-.149-.035.018-.216-.198-.401-.485-.665-1.033-.913-1.613-.571-1.323-.818-2.866-.8-4.303 0-.333.018-.662.048-1.008 1.18-.026 2.369-.312 3.48-.79 1.605-.697 3.25-2.091 3.604-3.889.476-2.449-1.612-4.77-3.832-5.389-1.988-.548-3.541.403-4.633 2.024-.977 1.44-1.6 3.1-1.913 4.823-.104-.032-.211-.064-.304-.106-.653-.266-1.651-.043-1.488.835.146.817.846 1.37 1.562 1.734zm75.893 11.712l.003.003c-.01-.014-.028-.021-.047-.035.012.011.029.018.044.032zm-10.434-8.917c.031-.797.285-1.6.531-2.356a13.451 13.451 0 0 1 2.592-4.526c.464-.531.988-1.016 1.612-1.363h.005c-.283.715-.557 1.437-.853 2.144-.955 2.357-1.975 4.862-3.573 6.868-.092.12-.195.229-.301.34a7.45 7.45 0 0 1-.013-1.107zm-19.406 1.355c.552 1.005.693 2.144.5 3.359-.159.955-.66 1.917-1.323 2.622-.27.29-.593.58-.934.778a4.417 4.417 0 0 1-.579.265h-.091c-.506-.11-.848-.817-.988-1.281-.146-.506.052-1.253.206-1.642.622-1.592 1.84-2.933 3.209-4.101zm-27.161-16.655c.487-4.448 1.299-8.927 2.762-13.17.529-1.539 1.188-3.046 2.118-4.395.288-.421.77-.987 1.056-1.228.195-.159.409-.291.63-.414a4.15 4.15 0 0 1 .247-.134c.359.81.452 1.748.547 2.614.177 1.614.124 3.231-.089 4.838-.911 6.886-4.11 13.584-7.767 19.489.036-2.54.219-5.084.496-7.6zm-12.983 6.868a3.014 3.014 0 0 1 1.071-.821l.099-.035c.06.269.071.531.043.8-.06.463-.318.845-.596 1.214-.552.729-1.338 1.32-2.221 1.712.387-1.054.916-2.042 1.604-2.87z"/><path id="path8" d="M462.122 294.604c.769.085 1.916-.067 2.121-.962.177-.722.336-1.447.524-2.173.096-.343-.253-.715-.488-.895-.4-.294-.892-.443-1.375-.495-.782-.088-1.881.071-2.123.955-.187.722-.347 1.454-.524 2.18-.205.877 1.293 1.326 1.865 1.39z"/><path id="path10" d="M508.845 309.221c2.895.11 6.292-.365 8.92-1.649.803-.4.786-1.496.29-2.116-.573-.733-1.56-.923-2.381-.52-1.886.923-5.024 1.295-7.328 1.21-.848-.035-1.566.746-1.429 1.585.159.941 1.05 1.458 1.928 1.49z"/><path id="path12" d="M555.897 303.956c-.429-1.369-1.123-2.891-2.517-3.468.142-.315.283-.616.435-.913.389-.746-1.068-.962-1.458-.962-.77.003-1.794.23-2.187.972-.77 1.48-1.331 3.093-1.723 4.76-.104.276-.211.551-.322.832-.36.87-.775 1.702-1.224 2.532a19.234 19.234 0 0 1-1.286 2.035c-.212.29-.437.559-.676.818-.101.11-.21.216-.317.311-.049.042-.067.057-.071.071-.007-.007-.025 0-.113.035-.064-.124-.118-.255-.18-.385a.24.24 0 0 0-.032-.068c-.005-.018-.01-.042-.018-.067a9.645 9.645 0 0 1-.216-.676c-.432-1.391-.683-2.905-1.394-4.183-.671-1.221-2.118-2.661-3.457-1.437-.818.75-1.154 2.212-1.447 3.224-.294.987-.528 1.989-.765 2.996-.069-.689-.124-1.369-.181-2.048a56.304 56.304 0 0 1-.154-3.022 21.82 21.82 0 0 0 1.042-1.065c3.222-3.546 5.736-7.845 7.57-12.254 1.858-4.465 2.893-9.36 2.204-14.193-.281-1.992-1.123-4.618-3.328-5.187-1.164-.294-2.091.364-2.82 1.192-2.187 2.481-3.323 6.086-4.317 9.164a71.013 71.013 0 0 0-2.986 14.02 51.053 51.053 0 0 0-.287 5.76c-.018.011-.03.028-.043.043-1.405 1.235-2.987 2.261-4.504 3.354l-.375.265a12.323 12.323 0 0 0-2.087-1.359c-.575-.297-1.164-.552-1.763-.818-.106-.042-.205-.088-.308-.13.088-.163.194-.323.301-.478 1.222-1.861 2.979-3.446 4.908-4.547 1.546-.874-.228-4.462-1.734-3.609a17.005 17.005 0 0 0-5.325 4.763c-1.028 1.422-2.035 3.382-1.111 5.109.682 1.27 1.828 1.805 3.085 2.357.671.287.835.357 1.389.63l.003.004c-2.038 1.596-3.932 3.531-4.255 5.983-.295 2.183 1.094 4.561 3.1 5.428 1.816.782 3.627-.014 5.05-1.193 2.657-2.197 2.721-6.135 1.252-9.087.881-.63 1.764-1.255 2.622-1.896.036.418.069.846.106 1.274.169 1.854.41 3.687.752 5.516.253 1.334.665 2.987 1.897 3.751 1.301.796 1.852-.563 2.123-1.553.388-1.422.676-2.859 1.01-4.293.299-1.288.614-2.576 1.1-3.86.2.732.395 1.454.641 2.169.575 1.673 1.396 3.344 3.098 4.076 1.217.531 2.26-.431 2.999-1.334.129 1.673.547 3.358 1.392 4.802 1.037 1.727 3.482 1.868 5.058.789 1.258-.86 1.775-2.431 2.153-3.835.375-1.454.587-2.976.604-4.487.045-2.223-.231-4.502-.913-6.628zm-18.778-7.523c.64-4.515 1.733-8.991 3.31-13.28.592-1.632 1.28-3.238 2.133-4.752.213-.361.57-.899.906-1.306.148-.184.312-.361.486-.516.012-.018.065-.057.106-.089.078-.05.154-.095.228-.135.037-.018.067-.028.089-.042.042.127.071.258.108.385.129.527.151 1.093.194 1.628.162 2.247-.077 4.493-.635 6.666-1.205 4.724-3.51 9.207-6.344 13.145-.301.411-.6.821-.917 1.224.09-.964.2-1.947.336-2.928zm-10.836 19.738c-.475.18-1.265.142-1.557-.096.022-.315.084-.421.276-.834.693-1.503 2.268-2.721 3.535-3.74.198-.159.398-.315.599-.471.147.439.147.563.187 1.083.14 1.863-1.405 3.442-3.04 4.058zm11.447-.694c.134.201.085.159.012.053-.005-.021-.012-.035-.012-.053zm.024.092c.182.403.06.152 0 0zm6.638-4.554c-.024-.014-.065-.021-.106-.039a.472.472 0 0 0 .117.028c-.005.004-.011.004-.011.011zm8.365 3.231c-.147.715-.318 1.511-.6 2.233a10.295 10.295 0 0 1-.447-1.338c-.48-1.751-.506-3.581-.385-5.385.117-1.815.357-3.69.793-5.509.089.241.159.496.241.733.523 1.787.713 3.673.76 5.53a17.071 17.071 0 0 1-.362 3.736z"/><path id="path14" d="M549.643 329.68c-13.688-1.716-27.6-2.073-41.38-2.282-19.297-.29-38.622.152-57.877 1.447-14.48.976-28.962 2.438-43.284 4.848-.881.149-1.116 1.034-.6 1.698.6.792 1.706 1.118 2.663.959 19.267-3.248 38.815-4.784 58.322-5.622 18.386-.786 36.814-.892 55.204-.244 5.173.187 10.348.443 15.515.8 2.347.16 3.878.279 6.097.481 1.84.17 3.678.368 5.509.598.688.085 1.904-.035 1.847-1.005-.06-.92-1.213-1.575-2.016-1.678z"/><path id="path16" d="M439.128 345.341c-.035-.69-.07-1.376-.094-2.07-.04-1.451-.04-2.908-.04-4.359 0-.895-1.387-.346-1.387.403 0 1.455.035 2.909.035 4.363 0 .803.076 1.61.115 2.413.037.577-.039 1.21.111 1.766.225.8 1.524.015 1.325-.722-.14-.505-.03-1.256-.065-1.794z"/><path id="path18" d="M441.644 345.179c-.264-.666-.795-1.37-.982-2.078.012-.018.018-.039.03-.063a29.98 29.98 0 0 1 .765-1.717c.317-.665.847-1.249 1.076-1.957.301-.945-1.005-1.072-1.263-.283-.219.69-.719 1.337-1.07 1.963-.275.467-.481.991-.681 1.508-.019.018-.031.039-.042.053-.177.156-.288.371-.264.612.112.885.683 1.617 1.005 2.431.334.839.759 1.758 1.216 2.498.43.661 1.583-.326 1.159-.997-.368-.573-.702-1.333-.949-1.97z"/><path id="path20" d="M448.764 339.938c-.348-.612-.936-.86-1.564-.955-.066-.152-.23-.255-.501-.241-2.376.166-2.455 2.951-2.386 4.717.076 1.727-.26 4.773 2.315 4.667 2.383-.092 2.817-3.227 2.759-4.996-.041-1.069-.088-2.244-.623-3.192zm-1.817 6.822c-1.405.534-1.227-2.431-1.227-3.071 0-.641-.336-2.838.35-3.443a.579.579 0 0 0 .219.039c1.48.028 1.58 1.344 1.651 2.555.06 1.093.354 3.403-.993 3.92z"/><path id="path22" d="M456.053 339.443c-.264-.078-.534-.117-.81-.163a1.237 1.237 0 0 0-.171-.028c.005-.22.005-.439.005-.644 0-.903-1.392-.354-1.392.399v.213c-.772.106-1.64.411-2.022 1.001-.651.998-.818 2.18-.859 3.351-.03.959.17 2.063.752 2.841.46.587 1.354.839 2.146.821.017.219.037.439.058.655.101.924 1.394.326 1.394-.407v-.075a.555.555 0 0 0-.029-.173l-.016-.237c1.839-.325 2.761-1.776 2.797-3.683.025-1.051-.036-2.282-.642-3.17-.268-.397-.768-.581-1.211-.701zm-2.425 6.461c-.895-.13-1.284-1.121-1.39-2.017-.086-.789.012-1.549.189-2.317.141-.658.653-.941 1.235-1.023-.03 1.776-.099 3.577-.034 5.357zm1.398-.212c-.071-1.66-.018-3.351.018-5.018l.111.015c1 .184 1.182.778 1.286 1.688.159 1.397.265 3.106-1.415 3.315z"/><path id="path24" d="M463.175 340.094c.777 0 1.21-1.352.253-1.352h-1.495c-.393 0-.746-.074-1.134-.05a.75.75 0 0 0-.294.042h-.011a.6.6 0 0 0-.195.089c-.005.004-.02.007-.02.01-.01.004-.023.007-.028.018-.01.007-.028.021-.041.028-.235.159-.407.414-.364.704.182 1.288.271 2.707.145 4.002-.076.779.019 1.607-.133 2.375-.106.517-.066 1.277.099 1.78.117.354.435.396.734.268.377-.028.758-.12 1.123-.078.453.046.899.12 1.359.12.777.011 1.21-1.341.253-1.348-.448 0-.9-.152-1.353-.127-.289.014-.575.043-.863.074-.018-.372.051-.778.063-1.125.018-.524.065-1.062.088-1.593.53-.071 1.076.047 1.6.064h.053c.783 0 1.218-1.335.254-1.348-.4-.004-.802-.096-1.212-.082-.21.007-.446.018-.668.05.005-.863.01-1.723-.061-2.576.088.014.182.035.294.06.482.076 1.053-.005 1.554-.005z"/><path id="path26" d="M473.539 346.116c.318-.775.488-1.653.663-2.445.214-.934-1.197-.687-1.369.07-.069.319-.128.665-.205 1.008-.016-.028-.041-.063-.059-.092-.246-.364-.527-.708-.806-1.054.501-.616.943-1.245 1.125-2.074a2.452 2.452 0 0 0-.994-2.551c-.734-.502-1.693-.194-2.321.287-.872.672-.848 1.967-.561 2.898.2.619.583 1.174.999 1.708-.27.301-.523.605-.715.934-.449.807-.617 1.695-.141 2.53.403.715 1.364 1.101 2.154.903a2.92 2.92 0 0 0 1.341-.746c.177.258.359.496.56.736.523.605 1.675-.396 1.151-1.001a11.782 11.782 0 0 1-.822-1.111zm-2.544-5.93c.617.286.617 1.199.441 1.733a3.16 3.16 0 0 1-.388.758 6.496 6.496 0 0 1-.713-1.235c-.225-.531-.211-1.652.66-1.256zm.704 6.564c-.595.552-1.323-.092-1.445-.697-.094-.429.206-.878.518-1.256.085.113.173.219.258.329.334.435.628.892.92 1.341-.068.102-.15.194-.251.283z"/><path id="path28" d="M484.757 346.665h-.04c-.142.007-.265.028-.394.046.004-2.513.122-5.064-.036-7.573-.029-.439-.37-.527-.707-.428a.768.768 0 0 0-.216.053 4.48 4.48 0 0 1-.896-.039c-.516-.085-1.057.061-1.58.117a.63.63 0 0 0-.277-.056h-.035c-.476 0-.828.509-.8.899a.616.616 0 0 0 .03.233c.069 1.083.094 2.187.101 3.28.005.761-.042 1.49-.219 2.226-.077.325-.247.966-.471 1.288-.071-.003-.14-.003-.211-.007-.354-.007-.635.265-.747.566a.805.805 0 0 0-.076.354c.016.686.216 1.355.305 2.027.124.895 1.495.35 1.394-.407-.048-.396-.142-.786-.213-1.185.654-.008 1.306-.026 1.953.025a55.14 55.14 0 0 0 1.569.084c.205.007.424.029.634.007-.017.071-.022.135-.035.195-.081.385-.058.775-.058 1.161 0 .389.435.538.745.446a.879.879 0 0 0 .642-.842c0-.626.136-1.203.188-1.819.019-.245-.059-.439-.216-.552a.55.55 0 0 0-.334-.099zm-1.822.11c-.354-.021-.699-.025-1.053-.039-.429-.018-.848-.018-1.27-.018.418-.875.6-1.929.671-2.803.099-1.231.04-2.519-.037-3.765a6.653 6.653 0 0 1 1.065-.056c.202.011.407.021.607.028.111 2.201.028 4.444.017 6.653z"/><path id="path30" d="M490.066 340.076c.722.241 1.458-1.04.595-1.323-.417-.131-.938-.025-1.364.018-.42.05-.876.057-1.283-.007-.389-.198-1.177.251-1.177.821 0 1.185.154 2.36.154 3.559v4.264a.603.603 0 0 0 .057.443c.065.128.184.184.325.192.046.007.094.01.145.01.814 0 1.659-.063 2.47.028.394.039.766-.148.931-.524.127-.286.046-.753-.336-.796-.729-.085-1.471-.068-2.204-.056v-2.618c.099-.007.187-.025.27-.043.239-.042.494-.006.735-.046.029-.007.23.014.237-.007.504.301 1.405-.372 1.097-.956-.216-.41-.652-.407-1.068-.385-.425.014-.843.078-1.271.103-.012-.878-.088-1.751-.124-2.619h.453c.412-.001.97-.182 1.358-.058z"/><path id="path32" d="M496.146 345.614c-.042.492-.248.891-.598 1.235-.531.527-1.196-.418-1.401-.758-.516-.856-.382-1.981-.329-2.93.05-.924-.076-1.829.294-2.692.148-.347.365-.595.781-.552.354.029 1.129.591 1.129 1.002 0 .902 1.394.35 1.394-.403 0-.686-.753-1.341-1.277-1.677-.64-.418-1.412-.315-2.063-.032-1.493.647-1.627 2.697-1.652 4.052-.03 1.967-.24 3.967 1.564 5.24 1.594 1.136 3.404-1.125 3.534-2.547.082-.961-1.3-.717-1.376.062z"/><path id="path34" d="M502.414 340.069c.058.011.115.025.193.025h.035c.633 0 1.26-1.164.423-1.341-.886-.169-1.751-.01-2.647-.109a.925.925 0 0 0-.876.421.798.798 0 0 0-.187.481c0 1.419-.071 2.841-.046 4.261.023 1.196.141 2.395.135 3.598a.507.507 0 0 0-.025.162c-.004.018-.004.028-.004.046v.007c0 .135.029.255.113.347.157.227.449.319.75.12.775 0 1.55.05 2.328.05.775 0 1.21-1.358.248-1.358-.478 0-1 .06-1.472-.018a3.863 3.863 0 0 0-.488-.049c.066-.832-.115-1.794-.162-2.459a1.068 1.068 0 0 1-.01-.152 6.2 6.2 0 0 1 .817-.018c.163.01.31-.014.467-.043.008-.003.014-.003.026-.003a.097.097 0 0 1 .048 0c.514.166 1.292-.453 1.005-1.002-.244-.456-.707-.372-1.131-.286.271-.053-.118-.011-.159-.011-.127-.011-.235 0-.37.018a3.85 3.85 0 0 1-.752.014c0-.923.041-1.851.062-2.771.568-.004 1.12-.032 1.679.07z"/><path id="path36" d="M509.04 339.195c-.757-.584-1.976-.527-2.887-.527-.266 0-.488.156-.63.354-.159.152-.271.346-.271.562 0 2.718-.041 5.432-.041 8.156 0 .891 1.392.343 1.392-.411 0-.874.007-1.748.007-2.625 1.729.12 3.045-1.186 3.197-2.983.074-.849-.038-1.949-.767-2.526zm-2.419 4.094c.009-1.076.02-2.155.02-3.234.184.018.372.039.559.05.863.039 1.15.506 1.233 1.327.111 1.238-.511 2.165-1.812 1.857z"/><path id="path38" d="M515.681 338.859c-.669 0-1.309-.124-1.979-.038-.511.06-1.253.053-1.754-.096-.729-.226-1.461 1.051-.592 1.316.448.131 1.038.156 1.505.17.039 0 .081-.004.117-.004-.006 2.498-.071 4.996-.071 7.491v.043c0 .891 1.387.343 1.387-.411 0-2.392.065-4.794.078-7.19.304.01.618.057.923.067.022 0 .034.004.058.004h.07c.782 0 1.218-1.352.258-1.352z"/><path id="path40" d="M519.181 342.44c-.024-1.1-.061-2.194-.061-3.302 0-.891-1.392-.346-1.392.407 0 1.306.077 2.601.077 3.914 0 1.291.166 2.657.018 3.948-.101.333.025.687.518.729 1.757.135 3.597-.659 3.869-2.551.14-.938.099-2.056-.605-2.763-.655-.669-1.601-.509-2.424-.382zm1.012 4.143c-.301.152-.631.206-.958.219.06-1.005-.037-2.024-.037-3.029v-.032c.288-.057.578-.106.858-.07.736.099.821.916.813 1.5-.007.665-.055 1.087-.676 1.412z"/><path id="path42" d="M524.701 339.308c.124-.952-1.274-.711-1.376.068-.14 1.174-.039 2.303-.039 3.478 0 1.603.076 3.206.076 4.802 0 .899 1.386.354 1.386-.403v-.075c0-1.404 0-2.834-.05-4.235-.055-1.225-.15-2.407.003-3.635z"/></g></svg>