<?xml version="1.0" encoding="UTF-8" standalone="no"?>
<svg
   xmlns:dc="http://purl.org/dc/elements/1.1/"
   xmlns:cc="http://creativecommons.org/ns#"
   xmlns:rdf="http://www.w3.org/1999/02/22-rdf-syntax-ns#"
   xmlns:svg="http://www.w3.org/2000/svg"
   xmlns="http://www.w3.org/2000/svg"
   xml:space="preserve"
   enable-background="new 0 0 960 640"
   viewBox="0 0 180.90942 78.547028"
   height="78.547028"
   width="180.90942"
   y="0px"
   x="0px"
   id="Слой_1"
   version="1.1"><metadata
     id="metadata51"><rdf:RDF><cc:Work
         rdf:about=""><dc:format>image/svg+xml</dc:format><dc:type
           rdf:resource="http://purl.org/dc/dcmitype/StillImage" /><dc:title></dc:title></cc:Work></rdf:RDF></metadata><defs
     id="defs49" /><g
     transform="translate(-390.72402,-271.56822)"
     style="fill:#1d1d1b;fill-opacity:1"
     id="g44"><path
       style="clip-rule:evenodd;fill:#1d1d1b;fill-opacity:1;fill-rule:evenodd"
       id="path2"
       d="m 561.713,298.623 c -0.271,-0.622 -0.605,-1.21 -1.007,-1.734 -0.575,-0.743 -1.721,-1.239 -2.503,-0.478 -0.777,0.761 -0.559,2.095 0.053,2.877 0.021,0.035 0.039,0.067 0.069,0.102 0.055,0.092 0.144,0.241 0.175,0.312 0.088,0.194 0.174,0.389 0.245,0.584 0.018,0.042 0.027,0.071 0.04,0.096 0.013,0.035 0.023,0.088 0.051,0.173 0.336,1.058 0.535,2.152 0.719,3.248 0.039,0.265 0.076,0.535 0.117,0.8 0.018,0.138 0.043,0.276 0.053,0.414 0.011,0.081 0.018,0.134 0.025,0.173 0,0.035 0.004,0.084 0.018,0.145 0.078,0.753 0.145,1.507 0.206,2.267 0.094,1.292 0.141,2.584 0.169,3.878 -0.518,0.067 -1.041,0.078 -1.564,0.032 -0.906,-0.071 -1.929,0.573 -1.858,1.575 0.078,1.047 1.154,1.635 2.093,1.716 0.453,0.035 0.901,0.047 1.348,0.032 -0.078,5.838 -0.681,11.744 -2.248,17.359 -0.588,2.091 2.706,4.324 3.436,1.727 1.776,-6.373 2.351,-13.149 2.351,-19.769 4.216,-1.493 7.549,-5.265 7.914,-9.879 0.396,-5.094 -5.67,-6.817 -9.902,-5.65 z m 5.902,5.828 c -0.346,2.43 -1.928,4.522 -3.993,5.785 -0.099,-2.335 -0.309,-4.663 -0.685,-6.97 -0.067,-0.428 -0.148,-0.863 -0.237,-1.306 0.395,-0.173 0.683,-0.227 1.253,-0.322 0.648,-0.113 1.553,-0.078 2.046,0.025 0.182,0.05 0.358,0.102 0.54,0.156 0.013,0.004 0.013,0.004 0.013,0.004 0.111,0.053 0.221,0.102 0.327,0.156 0.041,0.021 0.067,0.042 0.096,0.049 0.018,0.015 0.04,0.032 0.071,0.057 0.078,0.056 0.152,0.12 0.223,0.187 0.012,0.021 0.028,0.039 0.053,0.071 0.187,0.227 0.265,0.421 0.306,0.651 0.086,0.477 0.057,0.98 -0.013,1.457 z" /><path
       style="clip-rule:evenodd;fill:#1d1d1b;fill-opacity:1;fill-rule:evenodd"
       id="path4"
       d="m 410.783,311.358 c 2.186,-4.749 3.579,-9.921 5.097,-14.907 1.67,-5.517 3.227,-11.082 5.092,-16.542 0.096,-0.268 0.182,-0.538 0.276,-0.807 0.018,0.099 0.036,0.198 0.046,0.301 0.219,1.436 0.384,2.887 0.518,4.335 0.341,3.634 0.5,7.286 0.589,10.93 0.188,7.954 0.006,15.965 -0.941,23.874 -0.2,1.677 -0.445,3.348 -0.759,5.007 -0.329,1.758 3.427,3.91 3.806,1.931 1.421,-7.572 1.722,-15.392 1.794,-23.074 0.057,-7.173 -0.085,-14.451 -1.107,-21.56 -0.299,-2.08 -0.635,-4.285 -1.647,-6.16 -0.787,-1.458 -3.356,-3.081 -4.538,-1.206 -0.87,1.383 -1.359,3.085 -1.886,4.629 -0.855,2.515 -1.622,5.056 -2.389,7.593 -1.781,5.859 -3.468,11.755 -5.419,17.565 -0.401,1.178 -0.811,2.36 -1.247,3.524 -0.19,0.481 -0.372,0.955 -0.564,1.423 -0.084,0.213 -0.177,0.424 -0.266,0.636 -0.04,0.099 -0.088,0.195 -0.135,0.298 -0.012,0.042 -0.03,0.067 -0.035,0.095 -0.005,0 -0.012,0.014 -0.018,0.02 -0.146,0.316 -0.299,0.634 -0.481,0.938 -0.008,-0.014 -0.013,-0.025 -0.018,-0.036 -0.094,-0.215 -0.177,-0.438 -0.266,-0.661 -0.199,-0.542 -0.377,-1.093 -0.534,-1.638 -0.083,-0.28 -0.154,-0.566 -0.224,-0.846 -0.028,-0.106 -0.051,-0.205 -0.078,-0.305 0,0 -0.068,-0.279 -0.075,-0.308 -0.164,-0.693 -0.301,-1.384 -0.435,-2.076 -0.281,-1.451 -0.505,-2.913 -0.723,-4.377 -0.805,-5.514 -1.176,-11.097 -2.057,-16.603 -0.278,-1.73 -0.546,-3.751 -2.046,-4.879 -2.447,-1.84 -3.679,0.608 -4.522,2.522 -1.345,3.051 -2.18,6.351 -2.891,9.6 -1.037,4.753 -1.63,9.6 -1.877,14.462 -0.281,5.605 0.023,11.252 1.083,16.765 0.205,1.055 1.07,1.89 2.087,2.187 0.729,0.209 1.962,-0.011 1.762,-1.051 -1.946,-10.116 -1.392,-20.65 0.8,-30.682 0.559,-2.533 1.204,-5.092 2.11,-7.533 0.018,0.184 0.046,0.364 0.071,0.552 0.354,2.845 0.648,5.697 0.989,8.545 0.352,3.022 0.745,6.034 1.299,9.027 0.458,2.434 0.964,4.953 1.987,7.222 0.876,1.96 2.503,4.182 4.879,4.232 1.64,0.042 2.313,-1.713 2.893,-2.962 z m -10.366,-30.211 c 0,0 0.005,-0.004 0.005,-0.011 0.089,-0.045 0.186,-0.053 -0.005,0.011 z" /><path
       style="clip-rule:evenodd;fill:#1d1d1b;fill-opacity:1;fill-rule:evenodd"
       id="path6"
       d="m 429.867,306.44 c -0.03,1.971 0.329,3.945 1.04,5.711 0.883,2.211 2.594,4.151 4.877,4.939 1.291,0.449 2.667,0.163 3.891,-0.35 2.379,-1.009 4.386,-3.039 6.096,-4.968 0.395,1.79 0.946,3.539 1.746,5.145 1.124,2.244 3.91,5.159 6.603,3.443 2.123,-1.356 3.38,-4.122 4.398,-6.384 0.071,0.354 0.159,0.701 0.281,1.037 0.496,1.373 1.93,2.048 3.351,1.921 1.172,-0.106 2.139,-0.683 2.964,-1.494 2.034,-1.999 3.504,-4.603 4.957,-7.03 0.319,-0.527 0.635,-1.065 0.939,-1.596 0.306,0.177 0.607,0.347 0.901,0.513 0.534,0.297 1.104,0.609 1.653,0.959 -1.549,1.232 -2.983,2.615 -4.039,4.246 -0.77,1.182 -1.23,2.6 -0.924,4.002 0.529,2.467 3.546,3.539 5.751,3.464 4.391,-0.149 7.248,-5.255 5.716,-9.179 -0.336,-0.85 -0.873,-1.589 -1.495,-2.237 0.236,-0.173 0.469,-0.336 0.701,-0.495 1.198,-0.846 2.44,-1.635 3.674,-2.427 0.695,0.895 1.558,1.68 2.393,2.43 1.175,1.055 2.852,2.303 2.974,4.013 0.041,0.548 -0.111,1.022 -0.375,1.493 -0.154,0.265 -0.359,0.442 -0.6,0.633 -0.572,-0.367 -1.03,-1.882 -1.179,-2.455 -0.378,-1.479 -4.349,-1.539 -3.901,0.202 0.553,2.144 1.929,3.984 4.163,4.526 2.569,0.622 5.255,-0.623 5.839,-3.315 0.151,-0.719 0.085,-1.394 -0.136,-2.035 0.799,1.56 2.711,2.283 4.451,2.081 1.099,-0.131 1.944,-1.05 2.569,-1.882 0.446,-0.598 0.833,-1.225 1.198,-1.883 -0.011,1.617 -0.011,3.266 0.26,4.862 0.358,2.031 1.517,4.565 3.48,5.52 0.668,0.326 1.837,0.623 2.427,-0.017 0.554,-0.595 -0.163,-1.349 -0.704,-1.659 -0.025,-0.036 -0.238,-0.241 -0.248,-0.252 -0.269,-0.308 -0.464,-0.662 -0.651,-1.022 -0.446,-0.843 -0.683,-1.755 -0.789,-2.693 -0.205,-1.737 -0.181,-3.506 -0.159,-5.244 0.053,-3.209 0.299,-6.379 0.605,-9.568 0.085,-0.856 -1.359,-1.323 -1.94,-1.458 -0.64,-0.148 -1.3,0.022 -1.638,0.584 -3.8,-1.171 -6.723,2.817 -8.138,5.838 -0.835,1.773 -1.401,3.907 -1.03,5.877 0.023,0.153 0.06,0.294 0.107,0.436 -1.02,-2.13 -3.659,-3.815 -5.039,-5.368 -0.418,-0.471 -0.777,-1.016 -1.025,-1.589 0.448,-0.314 0.888,-0.633 1.326,-0.972 0.899,-0.694 1.728,-1.447 1.896,-2.626 0.177,-1.263 -0.953,-2.244 -2.045,-2.544 -1.375,-0.379 -2.85,-0.007 -3.928,0.906 -1.294,1.104 -1.739,2.771 -1.469,4.367 -1.523,1.012 -3.123,1.942 -4.61,2.943 -0.365,0.248 -0.729,0.5 -1.106,0.761 -0.341,-0.213 -0.686,-0.411 -1.041,-0.605 -0.292,-0.17 -0.593,-0.336 -0.888,-0.51 -0.147,-0.077 -0.287,-0.155 -0.433,-0.24 -0.064,-0.039 -0.137,-0.079 -0.207,-0.117 -0.016,-0.015 -0.041,-0.025 -0.081,-0.053 -0.246,-0.145 -0.484,-0.301 -0.706,-0.474 -0.058,-0.039 -0.106,-0.085 -0.158,-0.124 0.652,-1.112 1.304,-2.212 1.994,-3.298 0.38,-0.612 0.775,-1.206 1.192,-1.794 0.699,-0.527 1.405,-1.04 2.058,-1.624 0.458,-0.404 0.787,-0.92 0.357,-1.494 -0.64,-0.856 -2.004,-0.92 -2.956,-0.736 -1.288,0.245 -2.318,1.38 -3.158,2.598 -1.23,0.976 -2.458,2.067 -3.309,3.394 -0.667,1.033 -0.713,1.914 -0.407,2.675 -0.858,1.469 -1.71,2.951 -2.597,4.401 -0.953,1.572 -2.065,3.372 -3.211,4.717 -0.329,-2.487 -0.041,-5.343 0.177,-7.911 0.195,-2.223 0.433,-4.452 0.798,-6.66 0.258,-1.567 -3.714,-2.052 -3.98,-0.432 -0.176,1.051 -0.323,2.113 -0.453,3.175 -0.341,1.316 -0.758,2.625 -1.191,3.917 -1.037,3.081 -2.229,6.142 -3.829,8.976 -0.623,1.097 -1.329,2.19 -2.252,3.058 0.076,-0.079 -0.3,0.222 -0.4,0.286 -0.035,0.018 -0.124,0.06 -0.213,0.099 -0.01,-0.018 -0.021,-0.031 -0.027,-0.053 -0.02,-0.028 -0.043,-0.053 -0.053,-0.075 -0.013,-0.013 -0.031,-0.038 -0.041,-0.074 -0.401,-0.712 -0.7,-1.48 -0.964,-2.25 -0.696,-1.996 -1.023,-4.14 -1.283,-6.221 -0.035,-0.276 -0.064,-0.541 -0.094,-0.807 1.453,-1.988 2.774,-4.068 3.998,-6.199 2,-3.468 3.71,-7.12 5.055,-10.895 1.136,-3.171 2.042,-6.539 2.088,-9.929 0.029,-1.95 -0.088,-3.946 -0.711,-5.803 -0.663,-1.953 -2.364,-3.797 -4.544,-3.896 -2.93,-0.127 -4.587,2.976 -5.586,5.276 -1.709,3.942 -2.592,8.227 -3.227,12.452 -0.734,4.915 -1.01,9.897 -0.777,14.858 0.037,0.732 0.083,1.476 0.137,2.226 -1.288,1.726 -2.693,3.372 -4.246,4.869 -0.921,0.888 -1.934,1.691 -3.045,2.332 -0.423,0.244 -0.881,0.449 -1.351,0.615 0.088,-0.042 -0.388,0.089 -0.484,0.099 -0.323,0.06 -0.445,0.045 -0.605,0.021 -0.236,-0.149 -0.035,0.018 -0.216,-0.198 -0.401,-0.485 -0.665,-1.033 -0.913,-1.613 -0.571,-1.323 -0.818,-2.866 -0.8,-4.303 0,-0.333 0.018,-0.662 0.048,-1.008 1.18,-0.026 2.369,-0.312 3.48,-0.79 1.605,-0.697 3.25,-2.091 3.604,-3.889 0.476,-2.449 -1.612,-4.77 -3.832,-5.389 -1.988,-0.548 -3.541,0.403 -4.633,2.024 -0.977,1.44 -1.6,3.1 -1.913,4.823 -0.104,-0.032 -0.211,-0.064 -0.304,-0.106 -0.653,-0.266 -1.651,-0.043 -1.488,0.835 0.146,0.817 0.846,1.37 1.562,1.734 z m 75.893,11.712 0.003,0.003 c -0.01,-0.014 -0.028,-0.021 -0.047,-0.035 0.012,0.011 0.029,0.018 0.044,0.032 z m -10.434,-8.917 c 0.031,-0.797 0.285,-1.6 0.531,-2.356 0.552,-1.657 1.447,-3.203 2.592,-4.526 0.464,-0.531 0.988,-1.016 1.612,-1.363 h 0.005 c -0.283,0.715 -0.557,1.437 -0.853,2.144 -0.955,2.357 -1.975,4.862 -3.573,6.868 -0.092,0.12 -0.195,0.229 -0.301,0.34 -0.04,-0.371 -0.028,-0.743 -0.013,-1.107 z m -19.406,1.355 c 0.552,1.005 0.693,2.144 0.5,3.359 -0.159,0.955 -0.66,1.917 -1.323,2.622 -0.27,0.29 -0.593,0.58 -0.934,0.778 -0.183,0.106 -0.377,0.184 -0.579,0.265 0,0 -0.051,0 -0.091,0 -0.506,-0.11 -0.848,-0.817 -0.988,-1.281 -0.146,-0.506 0.052,-1.253 0.206,-1.642 0.622,-1.592 1.84,-2.933 3.209,-4.101 z m -27.161,-16.655 c 0.487,-4.448 1.299,-8.927 2.762,-13.17 0.529,-1.539 1.188,-3.046 2.118,-4.395 0.288,-0.421 0.77,-0.987 1.056,-1.228 0.195,-0.159 0.409,-0.291 0.63,-0.414 0.164,-0.092 0.21,-0.117 0.247,-0.134 0.359,0.81 0.452,1.748 0.547,2.614 0.177,1.614 0.124,3.231 -0.089,4.838 -0.911,6.886 -4.11,13.584 -7.767,19.489 0.036,-2.54 0.219,-5.084 0.496,-7.6 z m -12.983,6.868 c 0.299,-0.361 0.648,-0.622 1.071,-0.821 0.04,-0.014 0.069,-0.025 0.099,-0.035 0.06,0.269 0.071,0.531 0.043,0.8 -0.06,0.463 -0.318,0.845 -0.596,1.214 -0.552,0.729 -1.338,1.32 -2.221,1.712 0.387,-1.054 0.916,-2.042 1.604,-2.87 z" /><path
       style="clip-rule:evenodd;fill:#1d1d1b;fill-opacity:1;fill-rule:evenodd"
       id="path8"
       d="m 462.122,294.604 c 0.769,0.085 1.916,-0.067 2.121,-0.962 0.177,-0.722 0.336,-1.447 0.524,-2.173 0.096,-0.343 -0.253,-0.715 -0.488,-0.895 -0.4,-0.294 -0.892,-0.443 -1.375,-0.495 -0.782,-0.088 -1.881,0.071 -2.123,0.955 -0.187,0.722 -0.347,1.454 -0.524,2.18 -0.205,0.877 1.293,1.326 1.865,1.39 z" /><path
       style="clip-rule:evenodd;fill:#1d1d1b;fill-opacity:1;fill-rule:evenodd"
       id="path10"
       d="m 508.845,309.221 c 2.895,0.11 6.292,-0.365 8.92,-1.649 0.803,-0.4 0.786,-1.496 0.29,-2.116 -0.573,-0.733 -1.56,-0.923 -2.381,-0.52 -1.886,0.923 -5.024,1.295 -7.328,1.21 -0.848,-0.035 -1.566,0.746 -1.429,1.585 0.159,0.941 1.05,1.458 1.928,1.49 z" /><path
       style="clip-rule:evenodd;fill:#1d1d1b;fill-opacity:1;fill-rule:evenodd"
       id="path12"
       d="m 555.897,303.956 c -0.429,-1.369 -1.123,-2.891 -2.517,-3.468 0.142,-0.315 0.283,-0.616 0.435,-0.913 0.389,-0.746 -1.068,-0.962 -1.458,-0.962 -0.77,0.003 -1.794,0.23 -2.187,0.972 -0.77,1.48 -1.331,3.093 -1.723,4.76 -0.104,0.276 -0.211,0.551 -0.322,0.832 -0.36,0.87 -0.775,1.702 -1.224,2.532 -0.388,0.708 -0.817,1.387 -1.286,2.035 -0.212,0.29 -0.437,0.559 -0.676,0.818 -0.101,0.11 -0.21,0.216 -0.317,0.311 -0.049,0.042 -0.067,0.057 -0.071,0.071 -0.007,-0.007 -0.025,0 -0.113,0.035 -0.064,-0.124 -0.118,-0.255 -0.18,-0.385 -0.008,-0.028 -0.02,-0.05 -0.032,-0.068 -0.005,-0.018 -0.01,-0.042 -0.018,-0.067 -0.081,-0.223 -0.152,-0.449 -0.216,-0.676 -0.432,-1.391 -0.683,-2.905 -1.394,-4.183 -0.671,-1.221 -2.118,-2.661 -3.457,-1.437 -0.818,0.75 -1.154,2.212 -1.447,3.224 -0.294,0.987 -0.528,1.989 -0.765,2.996 -0.069,-0.689 -0.124,-1.369 -0.181,-2.048 -0.078,-1.015 -0.131,-2.021 -0.154,-3.022 0.359,-0.343 0.706,-0.697 1.042,-1.065 3.222,-3.546 5.736,-7.845 7.57,-12.254 1.858,-4.465 2.893,-9.36 2.204,-14.193 -0.281,-1.992 -1.123,-4.618 -3.328,-5.187 -1.164,-0.294 -2.091,0.364 -2.82,1.192 -2.187,2.481 -3.323,6.086 -4.317,9.164 -1.463,4.541 -2.468,9.274 -2.986,14.02 -0.211,1.925 -0.294,3.843 -0.287,5.76 -0.018,0.011 -0.03,0.028 -0.043,0.043 -1.405,1.235 -2.987,2.261 -4.504,3.354 -0.122,0.085 -0.251,0.177 -0.375,0.265 -0.642,-0.523 -1.341,-0.969 -2.087,-1.359 -0.575,-0.297 -1.164,-0.552 -1.763,-0.818 -0.106,-0.042 -0.205,-0.088 -0.308,-0.13 0.088,-0.163 0.194,-0.323 0.301,-0.478 1.222,-1.861 2.979,-3.446 4.908,-4.547 1.546,-0.874 -0.228,-4.462 -1.734,-3.609 -2.073,1.175 -3.92,2.828 -5.325,4.763 -1.028,1.422 -2.035,3.382 -1.111,5.109 0.682,1.27 1.828,1.805 3.085,2.357 0.671,0.287 0.835,0.357 1.389,0.63 0.003,0.004 0.003,0.004 0.003,0.004 -2.038,1.596 -3.932,3.531 -4.255,5.983 -0.295,2.183 1.094,4.561 3.1,5.428 1.816,0.782 3.627,-0.014 5.05,-1.193 2.657,-2.197 2.721,-6.135 1.252,-9.087 0.881,-0.63 1.764,-1.255 2.622,-1.896 0.036,0.418 0.069,0.846 0.106,1.274 0.169,1.854 0.41,3.687 0.752,5.516 0.253,1.334 0.665,2.987 1.897,3.751 1.301,0.796 1.852,-0.563 2.123,-1.553 0.388,-1.422 0.676,-2.859 1.01,-4.293 0.299,-1.288 0.614,-2.576 1.1,-3.86 0.2,0.732 0.395,1.454 0.641,2.169 0.575,1.673 1.396,3.344 3.098,4.076 1.217,0.531 2.26,-0.431 2.999,-1.334 0.129,1.673 0.547,3.358 1.392,4.802 1.037,1.727 3.482,1.868 5.058,0.789 1.258,-0.86 1.775,-2.431 2.153,-3.835 0.375,-1.454 0.587,-2.976 0.604,-4.487 0.045,-2.223 -0.231,-4.502 -0.913,-6.628 z m -18.778,-7.523 c 0.64,-4.515 1.733,-8.991 3.31,-13.28 0.592,-1.632 1.28,-3.238 2.133,-4.752 0.213,-0.361 0.57,-0.899 0.906,-1.306 0.148,-0.184 0.312,-0.361 0.486,-0.516 0.012,-0.018 0.065,-0.057 0.106,-0.089 0.078,-0.05 0.154,-0.095 0.228,-0.135 0.037,-0.018 0.067,-0.028 0.089,-0.042 0.042,0.127 0.071,0.258 0.108,0.385 0.129,0.527 0.151,1.093 0.194,1.628 0.162,2.247 -0.077,4.493 -0.635,6.666 -1.205,4.724 -3.51,9.207 -6.344,13.145 -0.301,0.411 -0.6,0.821 -0.917,1.224 0.09,-0.964 0.2,-1.947 0.336,-2.928 z m -10.836,19.738 c -0.475,0.18 -1.265,0.142 -1.557,-0.096 0.022,-0.315 0.084,-0.421 0.276,-0.834 0.693,-1.503 2.268,-2.721 3.535,-3.74 0.198,-0.159 0.398,-0.315 0.599,-0.471 0.147,0.439 0.147,0.563 0.187,1.083 0.14,1.863 -1.405,3.442 -3.04,4.058 z m 11.447,-0.694 c 0.134,0.201 0.085,0.159 0.012,0.053 -0.005,-0.021 -0.012,-0.035 -0.012,-0.053 z m 0.024,0.092 c 0.182,0.403 0.06,0.152 0,0 z m 6.638,-4.554 c -0.024,-0.014 -0.065,-0.021 -0.106,-0.039 0.052,0.018 0.089,0.026 0.117,0.028 -0.005,0.004 -0.011,0.004 -0.011,0.011 z m 8.365,3.231 c -0.147,0.715 -0.318,1.511 -0.6,2.233 -0.187,-0.431 -0.323,-0.892 -0.447,-1.338 -0.48,-1.751 -0.506,-3.581 -0.385,-5.385 0.117,-1.815 0.357,-3.69 0.793,-5.509 0.089,0.241 0.159,0.496 0.241,0.733 0.523,1.787 0.713,3.673 0.76,5.53 0.02,1.266 -0.107,2.493 -0.362,3.736 z" /><path
       style="clip-rule:evenodd;fill:#1d1d1b;fill-opacity:1;fill-rule:evenodd"
       id="path14"
       d="m 549.643,329.68 c -13.688,-1.716 -27.6,-2.073 -41.38,-2.282 -19.297,-0.29 -38.622,0.152 -57.877,1.447 -14.48,0.976 -28.962,2.438 -43.284,4.848 -0.881,0.149 -1.116,1.034 -0.6,1.698 0.6,0.792 1.706,1.118 2.663,0.959 19.267,-3.248 38.815,-4.784 58.322,-5.622 18.386,-0.786 36.814,-0.892 55.204,-0.244 5.173,0.187 10.348,0.443 15.515,0.8 2.347,0.16 3.878,0.279 6.097,0.481 1.84,0.17 3.678,0.368 5.509,0.598 0.688,0.085 1.904,-0.035 1.847,-1.005 -0.06,-0.92 -1.213,-1.575 -2.016,-1.678 z" /><path
       style="clip-rule:evenodd;fill:#1d1d1b;fill-opacity:1;fill-rule:evenodd"
       id="path16"
       d="m 439.128,345.341 c -0.035,-0.69 -0.07,-1.376 -0.094,-2.07 -0.04,-1.451 -0.04,-2.908 -0.04,-4.359 0,-0.895 -1.387,-0.346 -1.387,0.403 0,1.455 0.035,2.909 0.035,4.363 0,0.803 0.076,1.61 0.115,2.413 0.037,0.577 -0.039,1.21 0.111,1.766 0.225,0.8 1.524,0.015 1.325,-0.722 -0.14,-0.505 -0.03,-1.256 -0.065,-1.794 z" /><path
       style="clip-rule:evenodd;fill:#1d1d1b;fill-opacity:1;fill-rule:evenodd"
       id="path18"
       d="m 441.644,345.179 c -0.264,-0.666 -0.795,-1.37 -0.982,-2.078 0.012,-0.018 0.018,-0.039 0.03,-0.063 0.236,-0.581 0.494,-1.154 0.765,-1.717 0.317,-0.665 0.847,-1.249 1.076,-1.957 0.301,-0.945 -1.005,-1.072 -1.263,-0.283 -0.219,0.69 -0.719,1.337 -1.07,1.963 -0.275,0.467 -0.481,0.991 -0.681,1.508 -0.019,0.018 -0.031,0.039 -0.042,0.053 -0.177,0.156 -0.288,0.371 -0.264,0.612 0.112,0.885 0.683,1.617 1.005,2.431 0.334,0.839 0.759,1.758 1.216,2.498 0.43,0.661 1.583,-0.326 1.159,-0.997 -0.368,-0.573 -0.702,-1.333 -0.949,-1.97 z" /><path
       style="clip-rule:evenodd;fill:#1d1d1b;fill-opacity:1;fill-rule:evenodd"
       id="path20"
       d="m 448.764,339.938 c -0.348,-0.612 -0.936,-0.86 -1.564,-0.955 -0.066,-0.152 -0.23,-0.255 -0.501,-0.241 -2.376,0.166 -2.455,2.951 -2.386,4.717 0.076,1.727 -0.26,4.773 2.315,4.667 2.383,-0.092 2.817,-3.227 2.759,-4.996 -0.041,-1.069 -0.088,-2.244 -0.623,-3.192 z m -1.817,6.822 c -1.405,0.534 -1.227,-2.431 -1.227,-3.071 0,-0.641 -0.336,-2.838 0.35,-3.443 0.065,0.025 0.131,0.039 0.219,0.039 1.48,0.028 1.58,1.344 1.651,2.555 0.06,1.093 0.354,3.403 -0.993,3.92 z" /><path
       style="clip-rule:evenodd;fill:#1d1d1b;fill-opacity:1;fill-rule:evenodd"
       id="path22"
       d="m 456.053,339.443 c -0.264,-0.078 -0.534,-0.117 -0.81,-0.163 -0.012,-0.003 -0.089,-0.021 -0.171,-0.028 0.005,-0.22 0.005,-0.439 0.005,-0.644 0,-0.903 -1.392,-0.354 -1.392,0.399 0,0.067 0,0.142 0,0.213 -0.772,0.106 -1.64,0.411 -2.022,1.001 -0.651,0.998 -0.818,2.18 -0.859,3.351 -0.03,0.959 0.17,2.063 0.752,2.841 0.46,0.587 1.354,0.839 2.146,0.821 0.017,0.219 0.037,0.439 0.058,0.655 0.101,0.924 1.394,0.326 1.394,-0.407 v -0.075 c 0,-0.064 -0.012,-0.12 -0.029,-0.173 -0.006,-0.082 -0.011,-0.163 -0.016,-0.237 1.839,-0.325 2.761,-1.776 2.797,-3.683 0.025,-1.051 -0.036,-2.282 -0.642,-3.17 -0.268,-0.397 -0.768,-0.581 -1.211,-0.701 z m -2.425,6.461 c -0.895,-0.13 -1.284,-1.121 -1.39,-2.017 -0.086,-0.789 0.012,-1.549 0.189,-2.317 0.141,-0.658 0.653,-0.941 1.235,-1.023 -0.03,1.776 -0.099,3.577 -0.034,5.357 z m 1.398,-0.212 c -0.071,-1.66 -0.018,-3.351 0.018,-5.018 0.033,0.004 0.076,0.011 0.111,0.015 1,0.184 1.182,0.778 1.286,1.688 0.159,1.397 0.265,3.106 -1.415,3.315 z" /><path
       style="clip-rule:evenodd;fill:#1d1d1b;fill-opacity:1;fill-rule:evenodd"
       id="path24"
       d="m 463.175,340.094 c 0.777,0 1.21,-1.352 0.253,-1.352 h -1.495 c -0.393,0 -0.746,-0.074 -1.134,-0.05 -0.094,-0.006 -0.193,0.007 -0.294,0.042 -0.006,0 -0.011,0 -0.011,0 -0.073,0.018 -0.138,0.05 -0.195,0.089 -0.005,0.004 -0.02,0.007 -0.02,0.01 -0.01,0.004 -0.023,0.007 -0.028,0.018 -0.01,0.007 -0.028,0.021 -0.041,0.028 -0.235,0.159 -0.407,0.414 -0.364,0.704 0.182,1.288 0.271,2.707 0.145,4.002 -0.076,0.779 0.019,1.607 -0.133,2.375 -0.106,0.517 -0.066,1.277 0.099,1.78 0.117,0.354 0.435,0.396 0.734,0.268 0.377,-0.028 0.758,-0.12 1.123,-0.078 0.453,0.046 0.899,0.12 1.359,0.12 0.777,0.011 1.21,-1.341 0.253,-1.348 -0.448,0 -0.9,-0.152 -1.353,-0.127 -0.289,0.014 -0.575,0.043 -0.863,0.074 -0.018,-0.372 0.051,-0.778 0.063,-1.125 0.018,-0.524 0.065,-1.062 0.088,-1.593 0.53,-0.071 1.076,0.047 1.6,0.064 0.007,0 0.013,0 0.013,0 h 0.04 c 0.783,0 1.218,-1.335 0.254,-1.348 -0.4,-0.004 -0.802,-0.096 -1.212,-0.082 -0.21,0.007 -0.446,0.018 -0.668,0.05 0.005,-0.863 0.01,-1.723 -0.061,-2.576 0.088,0.014 0.182,0.035 0.294,0.06 0.482,0.076 1.053,-0.005 1.554,-0.005 z" /><path
       style="clip-rule:evenodd;fill:#1d1d1b;fill-opacity:1;fill-rule:evenodd"
       id="path26"
       d="m 473.539,346.116 c 0.318,-0.775 0.488,-1.653 0.663,-2.445 0.214,-0.934 -1.197,-0.687 -1.369,0.07 -0.069,0.319 -0.128,0.665 -0.205,1.008 -0.016,-0.028 -0.041,-0.063 -0.059,-0.092 -0.246,-0.364 -0.527,-0.708 -0.806,-1.054 0.501,-0.616 0.943,-1.245 1.125,-2.074 0.221,-0.983 -0.182,-1.985 -0.994,-2.551 -0.734,-0.502 -1.693,-0.194 -2.321,0.287 -0.872,0.672 -0.848,1.967 -0.561,2.898 0.2,0.619 0.583,1.174 0.999,1.708 -0.27,0.301 -0.523,0.605 -0.715,0.934 -0.449,0.807 -0.617,1.695 -0.141,2.53 0.403,0.715 1.364,1.101 2.154,0.903 0.556,-0.145 0.991,-0.403 1.341,-0.746 0.177,0.258 0.359,0.496 0.56,0.736 0.523,0.605 1.675,-0.396 1.151,-1.001 -0.304,-0.357 -0.569,-0.732 -0.822,-1.111 z m -2.544,-5.93 c 0.617,0.286 0.617,1.199 0.441,1.733 -0.089,0.269 -0.225,0.513 -0.388,0.758 -0.276,-0.389 -0.529,-0.796 -0.713,-1.235 -0.225,-0.531 -0.211,-1.652 0.66,-1.256 z m 0.704,6.564 c -0.595,0.552 -1.323,-0.092 -1.445,-0.697 -0.094,-0.429 0.206,-0.878 0.518,-1.256 0.085,0.113 0.173,0.219 0.258,0.329 0.334,0.435 0.628,0.892 0.92,1.341 -0.068,0.102 -0.15,0.194 -0.251,0.283 z" /><path
       style="clip-rule:evenodd;fill:#1d1d1b;fill-opacity:1;fill-rule:evenodd"
       id="path28"
       d="m 484.757,346.665 h -0.007 -0.033 c -0.142,0.007 -0.265,0.028 -0.394,0.046 0.004,-2.513 0.122,-5.064 -0.036,-7.573 -0.029,-0.439 -0.37,-0.527 -0.707,-0.428 -0.074,0.007 -0.147,0.025 -0.216,0.053 -0.301,0.014 -0.596,0.007 -0.896,-0.039 -0.516,-0.085 -1.057,0.061 -1.58,0.117 -0.083,-0.039 -0.171,-0.056 -0.277,-0.056 h -0.035 c -0.476,0 -0.828,0.509 -0.8,0.899 -0.007,0.081 0.007,0.155 0.03,0.233 0.069,1.083 0.094,2.187 0.101,3.28 0.005,0.761 -0.042,1.49 -0.219,2.226 -0.077,0.325 -0.247,0.966 -0.471,1.288 -0.071,-0.003 -0.14,-0.003 -0.211,-0.007 -0.354,-0.007 -0.635,0.265 -0.747,0.566 -0.053,0.109 -0.076,0.23 -0.076,0.354 0.016,0.686 0.216,1.355 0.305,2.027 0.124,0.895 1.495,0.35 1.394,-0.407 -0.048,-0.396 -0.142,-0.786 -0.213,-1.185 0.654,-0.008 1.306,-0.026 1.953,0.025 0.524,0.035 1.046,0.064 1.569,0.084 0.205,0.007 0.424,0.029 0.634,0.007 -0.017,0.071 -0.022,0.135 -0.035,0.195 -0.081,0.385 -0.058,0.775 -0.058,1.161 0,0.389 0.435,0.538 0.745,0.446 0.382,-0.11 0.642,-0.453 0.642,-0.842 0,-0.626 0.136,-1.203 0.188,-1.819 0.019,-0.245 -0.059,-0.439 -0.216,-0.552 -0.081,-0.06 -0.192,-0.099 -0.334,-0.099 z m -1.822,0.11 c -0.354,-0.021 -0.699,-0.025 -1.053,-0.039 -0.429,-0.018 -0.848,-0.018 -1.27,-0.018 0.418,-0.875 0.6,-1.929 0.671,-2.803 0.099,-1.231 0.04,-2.519 -0.037,-3.765 0.354,-0.039 0.708,-0.074 1.065,-0.056 0.202,0.011 0.407,0.021 0.607,0.028 0.111,2.201 0.028,4.444 0.017,6.653 z" /><path
       style="clip-rule:evenodd;fill:#1d1d1b;fill-opacity:1;fill-rule:evenodd"
       id="path30"
       d="m 490.066,340.076 c 0.722,0.241 1.458,-1.04 0.595,-1.323 -0.417,-0.131 -0.938,-0.025 -1.364,0.018 -0.42,0.05 -0.876,0.057 -1.283,-0.007 -0.389,-0.198 -1.177,0.251 -1.177,0.821 0,1.185 0.154,2.36 0.154,3.559 v 4.264 c -0.035,0.16 -0.018,0.323 0.057,0.443 0.065,0.128 0.184,0.184 0.325,0.192 0.046,0.007 0.094,0.01 0.145,0.01 0.814,0 1.659,-0.063 2.47,0.028 0.394,0.039 0.766,-0.148 0.931,-0.524 0.127,-0.286 0.046,-0.753 -0.336,-0.796 -0.729,-0.085 -1.471,-0.068 -2.204,-0.056 v -2.618 c 0.099,-0.007 0.187,-0.025 0.27,-0.043 0.239,-0.042 0.494,-0.006 0.735,-0.046 0.029,-0.007 0.23,0.014 0.237,-0.007 0.504,0.301 1.405,-0.372 1.097,-0.956 -0.216,-0.41 -0.652,-0.407 -1.068,-0.385 -0.425,0.014 -0.843,0.078 -1.271,0.103 -0.012,-0.878 -0.088,-1.751 -0.124,-2.619 0.147,0 0.295,0 0.453,0 0.412,-0.001 0.97,-0.182 1.358,-0.058 z" /><path
       style="clip-rule:evenodd;fill:#1d1d1b;fill-opacity:1;fill-rule:evenodd"
       id="path32"
       d="m 496.146,345.614 c -0.042,0.492 -0.248,0.891 -0.598,1.235 -0.531,0.527 -1.196,-0.418 -1.401,-0.758 -0.516,-0.856 -0.382,-1.981 -0.329,-2.93 0.05,-0.924 -0.076,-1.829 0.294,-2.692 0.148,-0.347 0.365,-0.595 0.781,-0.552 0.354,0.029 1.129,0.591 1.129,1.002 0,0.902 1.394,0.35 1.394,-0.403 0,-0.686 -0.753,-1.341 -1.277,-1.677 -0.64,-0.418 -1.412,-0.315 -2.063,-0.032 -1.493,0.647 -1.627,2.697 -1.652,4.052 -0.03,1.967 -0.24,3.967 1.564,5.24 1.594,1.136 3.404,-1.125 3.534,-2.547 0.082,-0.961 -1.3,-0.717 -1.376,0.062 z" /><path
       style="clip-rule:evenodd;fill:#1d1d1b;fill-opacity:1;fill-rule:evenodd"
       id="path34"
       d="m 502.414,340.069 c 0.058,0.011 0.115,0.025 0.193,0.025 h 0.035 c 0.633,0 1.26,-1.164 0.423,-1.341 -0.886,-0.169 -1.751,-0.01 -2.647,-0.109 -0.345,-0.035 -0.681,0.12 -0.876,0.421 -0.109,0.142 -0.187,0.304 -0.187,0.481 0,1.419 -0.071,2.841 -0.046,4.261 0.023,1.196 0.141,2.395 0.135,3.598 -0.018,0.049 -0.025,0.113 -0.025,0.162 -0.004,0.018 -0.004,0.028 -0.004,0.046 v 0.007 c 0,0.135 0.029,0.255 0.113,0.347 0.157,0.227 0.449,0.319 0.75,0.12 0.775,0 1.55,0.05 2.328,0.05 0.775,0 1.21,-1.358 0.248,-1.358 -0.478,0 -1,0.06 -1.472,-0.018 -0.139,-0.024 -0.311,-0.042 -0.488,-0.049 0.066,-0.832 -0.115,-1.794 -0.162,-2.459 -0.007,-0.049 -0.01,-0.099 -0.01,-0.152 0.268,-0.018 0.551,-0.036 0.817,-0.018 0.163,0.01 0.31,-0.014 0.467,-0.043 0.008,-0.003 0.014,-0.003 0.026,-0.003 0.011,-0.004 0.034,-0.004 0.048,0 0.514,0.166 1.292,-0.453 1.005,-1.002 -0.244,-0.456 -0.707,-0.372 -1.131,-0.286 0.271,-0.053 -0.118,-0.011 -0.159,-0.011 -0.127,-0.011 -0.235,0 -0.37,0.018 -0.248,0.035 -0.499,0.028 -0.752,0.014 0,-0.923 0.041,-1.851 0.062,-2.771 0.568,-0.004 1.12,-0.032 1.679,0.07 z" /><path
       style="clip-rule:evenodd;fill:#1d1d1b;fill-opacity:1;fill-rule:evenodd"
       id="path36"
       d="m 509.04,339.195 c -0.757,-0.584 -1.976,-0.527 -2.887,-0.527 -0.266,0 -0.488,0.156 -0.63,0.354 -0.159,0.152 -0.271,0.346 -0.271,0.562 0,2.718 -0.041,5.432 -0.041,8.156 0,0.891 1.392,0.343 1.392,-0.411 0,-0.874 0.007,-1.748 0.007,-2.625 1.729,0.12 3.045,-1.186 3.197,-2.983 0.074,-0.849 -0.038,-1.949 -0.767,-2.526 z m -2.419,4.094 c 0.009,-1.076 0.02,-2.155 0.02,-3.234 0.184,0.018 0.372,0.039 0.559,0.05 0.863,0.039 1.15,0.506 1.233,1.327 0.111,1.238 -0.511,2.165 -1.812,1.857 z" /><path
       style="clip-rule:evenodd;fill:#1d1d1b;fill-opacity:1;fill-rule:evenodd"
       id="path38"
       d="m 515.681,338.859 c -0.669,0 -1.309,-0.124 -1.979,-0.038 -0.511,0.06 -1.253,0.053 -1.754,-0.096 -0.729,-0.226 -1.461,1.051 -0.592,1.316 0.448,0.131 1.038,0.156 1.505,0.17 0.039,0 0.081,-0.004 0.117,-0.004 -0.006,2.498 -0.071,4.996 -0.071,7.491 v 0.043 c 0,0.891 1.387,0.343 1.387,-0.411 0,-2.392 0.065,-4.794 0.078,-7.19 0.304,0.01 0.618,0.057 0.923,0.067 0.022,0 0.034,0.004 0.058,0.004 h 0.07 c 0.782,0 1.218,-1.352 0.258,-1.352 z" /><path
       style="clip-rule:evenodd;fill:#1d1d1b;fill-opacity:1;fill-rule:evenodd"
       id="path40"
       d="m 519.181,342.44 c -0.024,-1.1 -0.061,-2.194 -0.061,-3.302 0,-0.891 -1.392,-0.346 -1.392,0.407 0,1.306 0.077,2.601 0.077,3.914 0,1.291 0.166,2.657 0.018,3.948 -0.101,0.333 0.025,0.687 0.518,0.729 1.757,0.135 3.597,-0.659 3.869,-2.551 0.14,-0.938 0.099,-2.056 -0.605,-2.763 -0.655,-0.669 -1.601,-0.509 -2.424,-0.382 z m 1.012,4.143 c -0.301,0.152 -0.631,0.206 -0.958,0.219 0.06,-1.005 -0.037,-2.024 -0.037,-3.029 0,-0.014 0,-0.025 0,-0.032 0.288,-0.057 0.578,-0.106 0.858,-0.07 0.736,0.099 0.821,0.916 0.813,1.5 -0.007,0.665 -0.055,1.087 -0.676,1.412 z" /><path
       style="clip-rule:evenodd;fill:#1d1d1b;fill-opacity:1;fill-rule:evenodd"
       id="path42"
       d="m 524.701,339.308 c 0.124,-0.952 -1.274,-0.711 -1.376,0.068 -0.14,1.174 -0.039,2.303 -0.039,3.478 0,1.603 0.076,3.206 0.076,4.802 0,0.899 1.386,0.354 1.386,-0.403 v -0.075 c 0,-1.404 0,-2.834 -0.05,-4.235 -0.055,-1.225 -0.15,-2.407 0.003,-3.635 z" /></g></svg>