<svg xmlns="http://www.w3.org/2000/svg" id="Слой_1" width="90" height="69.307"><g id="g6" transform="translate(-297.894 -193.856) scale(.7146)" fill="#aecc53"><g id="g4"><path d="M541.765 317.015c1.244-3.045 1.711-8.198-.443-10.659.055-.242.081-.497.071-.774-.092-2.763-5.312-3.779-7.166-4.203-1.855-.434-2.943-1.404-4.654-2.021-1.896-.682-3.914-.674-5.916-.587-.859.038-6.455.673-6.374.788-.763-1.021-1.839-1.771-3.17-1.822-3.249-.123-6.481.978-9.54 1.961a40.726 40.726 0 0 0-4.732 1.822c-.274.125-.397.242-.441.343-.57-.402-1.14-.65-1.831-.829-3.577-.913-7.418 2.227-10.048 4.164-.393.297-1.98 1.877-2.551 1.735-.679-.165-1.472-.258-2.165-.165-1.792.247-3.07 1.31-4.294 2.556a24.717 24.717 0 0 0-1.768 2.051 3.12 3.12 0 0 0-.375-1.037c-.687-1.203.56-4.642.701-6.001.158-1.464.092-3.029-.486-4.393-.443-1.048-1.795-1.086-2.181-2.083-.927-2.383.193-6.489-2.73-7.791-.806-.364-.842-.114-1.214-.885-.502-1.049-.964-2.108-1.494-3.148-.619-1.214-1.513-2.594-2.814-3.172a4.613 4.613 0 0 0-1.638-.367l-.28-.008c-1.021-1.182-1.97-2.391-3.072-3.507-1.571-1.59-3.507-3.703-5.939-3.567a3.86 3.86 0 0 0-1.442.336c.742-.328-2.225-2.032-2.282-2.066-1.337-.829-3.075-1.905-4.716-1.94-.991-.028-6.856-.986-9.426-.068-1.171.239-2.216 1.046-2.831 2.119-.677 1.168-1.078 2.363-1.377 3.67-.297 1.282-.84 1.605-1.318 2.827a1.729 1.729 0 0 0-.158.479c-.448 2.909.315 5.914-.894 8.603-1.086 2.404.169 6.113.789 8.481.367 1.407-.524 2.942-.082 4.504.457 1.622 1.429 3.11 2.217 4.585s-.162 3.018.65 4.458c.687 1.224 1.529 2.314 2.414 3.401 1.804 2.224 2.097 4.583 4.33 6.557 1.32 1.174 2.936 2.043 4.373 3.056.307.218.535.475.728.75-.188.003-.375-.003-.554.019-.807.111-1.184.231-1.809.723-.94.728-2.703.076-3.917-.084-2.404-.318-3.249 1.309-5.434 1.568a14.578 14.578 0 0 0-3.279.777c-1.113.402-.858 1.576-1.591 1.985-1.763.978-3.679 1.6-5.395 2.73-.448.291-1.165 1.005-1.12 1.587.101 1.274-1.839 2.244-2.678 3.034-.641.609-1.39 1.483-1.513 2.396-.209 1.589-1.657 2.763-1.689 4.365-.003.225.021.434.062.636-.848 1.029-.209 2.309.448 3.324.516.796 1.53 1.432 2.295 1.94.885.582 1.15 1.013 1.921 1.72.092.084.204.158.321.22.127.103.279.201.462.296 1.179.586 2.396.992 3.656 1.375 1.063.318 1.22.782 2.108 1.282 2.1 1.192 5.346.605 7.138 1.918 1.627 1.192 3.898.698 5.684.315 1.703-.367 3.145.589 4.949.089 1.043-.29 2.023-.844 2.988-1.318-.233.117 1.144-.016 1.586-.081 2.084-.282 3.496-2.086 4.903-3.491 1.103-1.095 2.608-.956 3.746-2.455.462-.616.951-1.336 1.353-2.105 2.341 3.849 6.052 6.85 10.627 6.15-.274 1.899.049 3.898 1.344 6.12 1.932 3.331 4.718 5.634 8.34 6.824 2.602.853 7.549 2.005 10.105.543 1.508-.858 2.119-1.488 4.034-1.607 2.181-.134 4.365-.033 6.546-.201 4.262-.318 5.985-3.333 9.725-4.585 2.944-.983 6.674-1.929 7.674-5.237.658-2.176 3.385-3.178 5.194-4.287 1.907-1.173 3.425-2.434 4.569-4.36.859-1.44.355-2.678 1.679-4.039 1.22-1.25 2.325-2.6 3.409-3.972 1.996-2.532 3.094-4.672 2.977-7.921-.041-1.176 1.402-2.836 1.973-3.808a43.526 43.526 0 0 0 2.341-4.589c.442-.991.891-2.162.769-3.26-.137-1.163-.827-1.494-.378-2.689zm-118.137 31.226c-.927-.549-1.628-.954-1.883-1.345 1.288-.51 2.508-1.54 3.543-2.108a35.636 35.636 0 0 1 3.518-1.663 29.241 29.241 0 0 1-1.396 2.59 31.138 31.138 0 0 1-2.614 3.643c-.299-.397-.578-.769-1.168-1.117zm28.336-13.021a22.217 22.217 0 0 0-2.079-3.023c-1.005-1.233-2.13-2.326-3.303-3.339.263-.193.497-.432.687-.655.44-.511 3.771 1.391 4.221 1.646.712.405 1.567.872 2.409.91 1.359.06.975-.046 2.024 1.293 1.057 1.355 2.895 6.342-.361 6.006a63.14 63.14 0 0 0-2.389-.434c-.37-.804-.756-1.616-1.209-2.404zm-14.64-57.132c.085-.741.37-1.489.75-2.157.274.239.56.467.845.698.695.938 1.966 1.948 2.368 2.391a94.428 94.428 0 0 1 7.338 9.122c-.223-.049-.446-.095-.671-.144a49.1 49.1 0 0 1-4.547-1.293 50.787 50.787 0 0 1-4.423-1.701 32.237 32.237 0 0 1-3.298-1.673c.021-.584.065-1.168.141-1.754.571-1.264 1.294-1.788 1.497-3.489zm-2.512 14.859c-.049-.408-.1-.815-.135-1.225-.128-1.342.953-1.953 1.027-3.151a28.67 28.67 0 0 0 .019-2.233c.712.386 1.44.741 2.171 1.083a51.447 51.447 0 0 0 4.621 1.872 53.46 53.46 0 0 0 4.787 1.443c1.154.282 2.341.527 3.542.7a95.375 95.375 0 0 1 2.049 3.35 66.276 66.276 0 0 1 2.032 3.838 61.165 61.165 0 0 1-3.293-.435 63.196 63.196 0 0 1-6.134-1.296c-3.683-.971-7.296-2.259-10.686-3.946zm1.119 9.622c-1.062-2.097.046-2.271-.111-4.069a15.356 15.356 0 0 0-.348-2.051c2.969 1.418 6.049 2.548 9.185 3.469a69.304 69.304 0 0 0 6.403 1.529c1.803.336 3.64.598 5.473.774a67.98 67.98 0 0 1 2.257 6.403 39.526 39.526 0 0 1-4.523-.318 63.864 63.864 0 0 1-6.164-1.083 77.381 77.381 0 0 1-11.542-3.548 16.658 16.658 0 0 1-.63-1.106zm85.882 12.118c3.759-1.608 7.593-3.015 11.469-4.325a95.063 95.063 0 0 1 3.756-.916c.131-.027.239-.07.357-.108.055-.009.106-.012.163-.025.112.492.125 1.046.141 1.418.082 1.632-.298 3.311-.916 4.811-.445 1.209-.801 2.28-.211 3.499.147.293.198.59.211.888-4.068-.081-8.136-.291-12.156-.728-2.214-.242-4.417-.555-6.571-.987a45.153 45.153 0 0 1-2.627-.601 130.55 130.55 0 0 1 6.384-2.926zm5.666-11.488c1.981 1.139 3.456 1.611 5.743 2.138.356.087.707.185 1.046.299-4.507 1.119-9.04 2.814-13.441 4.745-.885.348-1.758.709-2.632 1.081.252-1.04.532-2.083.842-3.123a92.493 92.493 0 0 1 1.061-3.342c.255-.744.52-1.483.8-2.214 2.235-.323 4.812-.605 6.581.416zm-13.33-.345c1.22.598 2.679.47 4.023.307-.141.316-.28.625-.416.94a97.207 97.207 0 0 0-1.347 3.352 65.514 65.514 0 0 0-1.203 3.432c-.228.717-.438 1.44-.624 2.195a102.362 102.362 0 0 0-7.827 4.105c.041-.231.079-.462.125-.69a90.64 90.64 0 0 1 1.214-5.126 131.78 131.78 0 0 1 2.95-9.44c.293-.062.584-.128.883-.188 1.062-.207 1.236.632 2.222 1.113zm-6.581.003a129.906 129.906 0 0 0-2.614 7.601 85.89 85.89 0 0 0-1.453 5.297 43.46 43.46 0 0 0-.741 3.86c-1.396.894-2.768 1.82-4.126 2.776a94.41 94.41 0 0 0-3.521 2.572c.269-2.805.801-5.639 1.472-8.435a85.849 85.849 0 0 1 3.406-10.773 8.403 8.403 0 0 0 1.255-.45 53.852 53.852 0 0 1 6.322-2.448zm-12.986 2.616c1.564-.943 1.132-.468 2.089.032a89.856 89.856 0 0 0-3.599 10.094c-1.184 4.165-2.119 8.443-2.322 12.936-.791.684-1.579 1.374-2.358 2.081a96.1 96.1 0 0 0-4.11 3.963 84.979 84.979 0 0 1-.017-1.676c.006-2.588.109-5.196.285-7.796.182-2.602.432-5.202.772-7.788.307-2.224.665-4.455 1.179-6.596 2.969-.863 5.606-3.759 8.081-5.25zm-11.069 5.34c-.562 1.985-1 3.98-1.402 5.976-.518 2.635-.95 5.284-1.295 7.944-.35 2.659-.625 5.329-.799 8.032a76.953 76.953 0 0 0-.152 6.642 112.708 112.708 0 0 0-5.061 6.329 68.335 68.335 0 0 1-.617-2.972 92.456 92.456 0 0 1-1.041-7.758 90.12 90.12 0 0 1-.396-7.837c.005-2.466.092-4.946.538-7.277 1.154-.082 2.257-.31 3.227-1.15 1.328-1.154 5.561-8.086 6.998-7.929zm-11.252.177c.576 1.385-.791 2.649-1.63 3.678-1.016 1.243-3.803 4.05-5.3 3.45a30.322 30.322 0 0 0-.408-2.417c.91-1.114 1.646-2.284 2.328-3.47.934-1.654 1.717-3.352 2.418-5.076a52.766 52.766 0 0 0 1.796-5.276c.116-.418.223-.831.329-1.25 2.165 1.907.692 5.404.28 8.019-.141.875-.152 1.53.187 2.342zm-5.229-19.795c.56.551.945.948 1.709 1.176 1.098.332.997 2.32 1.154 3.407.07.538.12 1.105.207 1.662a36.399 36.399 0 0 1-1.082 3.673 47.42 47.42 0 0 1-2.002 4.878 40.25 40.25 0 0 1-2.526 4.569 38.78 38.78 0 0 1-.625.915c-.158-.554-.307-1.084-.443-1.584a61.558 61.558 0 0 0-1.168-4.653c1.25-3.181 2.062-6.462 2.622-9.755.391-2.336.649-4.689.818-7.033.366.952.716 2.126 1.336 2.745zm-3.048-8.717c-.525-.033-.28-.052 0 0zm-4.615-.089c1.209 1.333 2.008 3.083 4.015 3.183-.31 3.157-.758 6.284-1.442 9.337a51.932 51.932 0 0 1-1.459 5.237 63.726 63.726 0 0 0-3.019-6.503c.117-1.144.16-2.252.201-3.368a78.892 78.892 0 0 0-.213-8.782c-.035-.419-.081-.837-.122-1.255.713.686 1.379 1.422 2.039 2.151zm-9.845-6.028c1.53.945 3.181 2.488 5.077 2.336.122.974.198 1.969.255 2.972a76.62 76.62 0 0 1 .087 4.237c-.011 1.081-.047 2.16-.092 3.238a82.353 82.353 0 0 0-.823-1.28c-2.451-3.686-5.357-7.049-8.527-10.13-.804-1.045-1.679-2.156-2.603-3.145.356.084.717.149 1.076.196 2.119.353 3.513.318 5.55 1.576zm-11.14 32.178a2.89 2.89 0 0 0 .005-.836 81.9 81.9 0 0 0 8.98 2.694c2.124.505 4.273.932 6.46 1.231 1.89.252 3.83.412 5.777.41.244 1.431.449 2.868.573 4.308.087.641.233 1.195.419 1.7a36.043 36.043 0 0 1-4.037-.271 56.66 56.66 0 0 1-5.574-.978c-3.32-.755-6.607-1.763-9.85-2.913-1.324-1.631-3.112-2.918-2.753-5.345zm5.275 10.084c-.467-.353-.736-.87-.948-1.426 2.48.924 4.995 1.761 7.57 2.453 1.915.513 3.857.953 5.835 1.269a38.16 38.16 0 0 0 4.979.486c-.212 1.715-.859 3.222-2.235 4.254-1.28.964-7.145 1.103-8.171-.562-1.26-2.059-2.263-3.189-4.357-4.585a51.049 51.049 0 0 1-2.673-1.889zm-3.911 10.768c1.149-.752 2.57-.473 3.999-.277 1.598 1.382 3.075 2.869 4.284 4.52.823 1.117 1.486 2.32 2.064 3.588a56.148 56.148 0 0 0-4.924-.293 20.228 20.228 0 0 0-1.673-2.235 23.175 23.175 0 0 0-2.546-2.545 23.972 23.972 0 0 0-2.952-2.171c.669-.122 1.291-.286 1.748-.587zm-6.129 2.592c.182-.677.665-1.079 1.295-1.342 1.622.853 3.124 1.966 4.461 3.243.783.75 1.505 1.557 2.154 2.407.18.228.332.461.489.69a58.1 58.1 0 0 0-3.151.207c-.568.051-1.133.128-1.701.206l-.296-.241a22.136 22.136 0 0 0-1.179-.859 23.786 23.786 0 0 0-2.481-1.47 26.864 26.864 0 0 0-2.469-1.105c1.297-.492 2.71-1.095 2.878-1.736zm-8.961 7.068c.747-.703 1.958-1.301 2.395-2.29.415-.927.364-1.288 1.011-1.791a22.317 22.317 0 0 1 4.004 1.904c.59.354 1.154.744 1.703 1.152a61.158 61.158 0 0 0-4.417 1.184c-1.635.5-3.222 1.155-4.775 1.863-.6.217-1.217.44-1.836.684.769-1.269 1.6-2.412 1.915-2.706zm1.953 11.382a33.987 33.987 0 0 0 2.76-3.436 30.235 30.235 0 0 0 2.434-4.157l.344-.753.077-.19a52.023 52.023 0 0 1 2.303-.647c.829-.19 1.654-.375 2.494-.524.128-.024.255-.038.38-.062a35.818 35.818 0 0 1-.823 1.915 37.383 37.383 0 0 1-1.934 3.694c-1.171 1.977-2.516 3.871-3.961 5.688a9.518 9.518 0 0 0-.685-.353c-1.097-.49-2.251-.8-3.389-1.175zm7.495 3.018a4.821 4.821 0 0 1-1.483-.396c1.464-1.741 2.85-3.566 4.091-5.503a43.872 43.872 0 0 0 2.19-3.855 46.17 46.17 0 0 0 .945-2.015l.431-1.041.139-.342a37.68 37.68 0 0 1 4.811-.051 36.64 36.64 0 0 1-1.295 2.98 44.928 44.928 0 0 1-2.277 4.049c-1.431 2.288-3.059 4.466-4.781 6.577a4.039 4.039 0 0 0-.332-.119c-.777-.241-1.636-.208-2.439-.284zm5.509 1.035a64.01 64.01 0 0 0 4.249-5.81 48.963 48.963 0 0 0 2.455-4.257 39.425 39.425 0 0 0 1.741-3.944c.505.057 1.002.12 1.5.19 1.225.177 2.445.432 3.651.725-.31.919-.752 1.818-1.254 2.72-.693 1.222-1.492 2.41-2.329 3.578-1.603 2.219-3.355 4.359-5.123 6.503-.392-.019-.84-.095-1.475-.203-1.071-.195-2.318.218-3.415.498zm16.16-5.84c-.497.744-1.768.673-2.515 1.309-.883.758-2.523 3.075-3.235 2.962-.549-.085-1.094-.028-1.628.105a94.301 94.301 0 0 0 3.181-3.874c.915-1.19 1.799-2.414 2.608-3.732.595-1 1.173-2.084 1.594-3.252 2.584 1.315 1.271 4.583-.005 6.482zm14.286 1.603c-1.676-.348-3.037-2.046-3.969-3.345-2.242-3.153-4.341-9.678-2.293-13.33.622-1.105 1.614-1.806 2.019-3.083.696-2.19.88-4.161 2.176-6.158.223-.347 1.353-1.836 2.299-2.985-.348 1.915-.516 3.827-.641 5.726a92.684 92.684 0 0 0-.117 8.147c.07 2.708.242 5.425.557 8.145.261 2.238.6 4.471 1.149 6.742a1.803 1.803 0 0 1-1.18.141zm33.293 10.659c-1.038 1.801-5.281 1.231-7.014 1.25-1.921.013-3.713.125-5.585.562-1.198.282-2.062 1.651-3.227 1.557-4.968-.386-7.886-1.915-10.464-6.335-1.385-2.391-.355-4.453.881-6.525 2.814 1.132 5.672 1.896 8.513 2.54 3.181.706 6.362 1.233 9.548 1.652 5.158.668 10.32 1.073 15.495 1.26-1.576.62-3.208 1.101-4.797 1.66-1.321.461-2.634 1.123-3.35 2.379zm16.622-11.67c-1.682 1.038-3.415 1.934-4.822 3.335a3.799 3.799 0 0 0-.655.878 162.37 162.37 0 0 1-17.828-2.151c-3.059-.551-6.104-1.203-9.068-2.008-2.358-.65-4.669-1.393-6.839-2.328a90.907 90.907 0 0 1 3.172-4.435c.166-.158.31-.34.421-.541a71.788 71.788 0 0 1 2.358-2.863c3.374 1.182 6.699 1.807 10.021 2.388 3.436.579 6.873 1.017 10.311 1.375 3.442.362 6.881.647 10.331.848 2.328.131 4.645.237 6.995.266-.833 2.663-2.012 3.772-4.397 5.236zm6.674-8.916c-2.948-.043-5.987-.252-8.986-.502a221.326 221.326 0 0 1-10.121-1.103c-3.361-.44-6.71-.961-10.008-1.608-2.491-.5-4.985-1.043-7.318-1.78a82.263 82.263 0 0 1 8.044-7.149c2.847.972 5.698 1.559 8.524 2.056 3.018.522 6.03.897 9.046 1.209 3.012.308 6.027.543 9.04.723 2.317.135 4.64.231 6.968.288-.036.566-.107 1.141-.315 1.709-.886 2.477-3.1 4.21-4.874 6.157zm5.942-11.841c-.147.22-.261.445-.351.676a204.99 204.99 0 0 1-15.918-1.679c-2.931-.43-5.844-.926-8.703-1.546a67.68 67.68 0 0 1-4.651-1.171 97.965 97.965 0 0 1 7.962-4.827c2.135.733 4.341 1.239 6.505 1.619 2.299.391 4.588.658 6.881.847 3.838.315 7.658.427 11.48.424-.082.152-.152.302-.223.451-.87 1.8-1.907 3.522-2.982 5.206z" id="path2" clip-rule="evenodd" fill-rule="evenodd"/></g></g></svg>