<?xml version="1.0" encoding="UTF-8" standalone="no"?>
<svg
   xmlns:dc="http://purl.org/dc/elements/1.1/"
   xmlns:cc="http://creativecommons.org/ns#"
   xmlns:rdf="http://www.w3.org/1999/02/22-rdf-syntax-ns#"
   xmlns:svg="http://www.w3.org/2000/svg"
   xmlns="http://www.w3.org/2000/svg"
   xml:space="preserve"
   enable-background="new 0 0 960 640"
   viewBox="0 0 90 69.307198"
   height="69.307198"
   width="90"
   y="0px"
   x="0px"
   id="Слой_1"
   version="1.1"><metadata
     id="metadata13"><rdf:RDF><cc:Work
         rdf:about=""><dc:format>image/svg+xml</dc:format><dc:type
           rdf:resource="http://purl.org/dc/dcmitype/StillImage" /><dc:title></dc:title></cc:Work></rdf:RDF></metadata><defs
     id="defs11" /><g
     transform="matrix(0.71459307,0,0,0.71459307,-297.89381,-193.85557)"
     id="g6"><g
       id="g4"><path
         style="clip-rule:evenodd;fill:#dfebba;fill-rule:evenodd"
         id="path2"
         d="m 541.765,317.015 c 1.244,-3.045 1.711,-8.198 -0.443,-10.659 0.055,-0.242 0.081,-0.497 0.071,-0.774 -0.092,-2.763 -5.312,-3.779 -7.166,-4.203 -1.855,-0.434 -2.943,-1.404 -4.654,-2.021 -1.896,-0.682 -3.914,-0.674 -5.916,-0.587 -0.859,0.038 -6.455,0.673 -6.374,0.788 -0.763,-1.021 -1.839,-1.771 -3.17,-1.822 -3.249,-0.123 -6.481,0.978 -9.54,1.961 -1.606,0.513 -3.198,1.111 -4.732,1.822 -0.274,0.125 -0.397,0.242 -0.441,0.343 -0.57,-0.402 -1.14,-0.65 -1.831,-0.829 -3.577,-0.913 -7.418,2.227 -10.048,4.164 -0.393,0.297 -1.98,1.877 -2.551,1.735 -0.679,-0.165 -1.472,-0.258 -2.165,-0.165 -1.792,0.247 -3.07,1.31 -4.294,2.556 -0.625,0.639 -1.209,1.337 -1.768,2.051 -0.054,-0.353 -0.188,-0.701 -0.375,-1.037 -0.687,-1.203 0.56,-4.642 0.701,-6.001 0.158,-1.464 0.092,-3.029 -0.486,-4.393 -0.443,-1.048 -1.795,-1.086 -2.181,-2.083 -0.927,-2.383 0.193,-6.489 -2.73,-7.791 -0.806,-0.364 -0.842,-0.114 -1.214,-0.885 -0.502,-1.049 -0.964,-2.108 -1.494,-3.148 -0.619,-1.214 -1.513,-2.594 -2.814,-3.172 -0.484,-0.215 -1.103,-0.351 -1.638,-0.367 -0.106,-0.003 -0.193,-0.005 -0.28,-0.008 -1.021,-1.182 -1.97,-2.391 -3.072,-3.507 -1.571,-1.59 -3.507,-3.703 -5.939,-3.567 -0.538,0.03 -0.948,0.12 -1.442,0.336 0.742,-0.328 -2.225,-2.032 -2.282,-2.066 -1.337,-0.829 -3.075,-1.905 -4.716,-1.94 -0.991,-0.028 -6.856,-0.986 -9.426,-0.068 -1.171,0.239 -2.216,1.046 -2.831,2.119 -0.677,1.168 -1.078,2.363 -1.377,3.67 -0.297,1.282 -0.84,1.605 -1.318,2.827 -0.071,0.144 -0.128,0.302 -0.158,0.479 -0.448,2.909 0.315,5.914 -0.894,8.603 -1.086,2.404 0.169,6.113 0.789,8.481 0.367,1.407 -0.524,2.942 -0.082,4.504 0.457,1.622 1.429,3.11 2.217,4.585 0.788,1.475 -0.162,3.018 0.65,4.458 0.687,1.224 1.529,2.314 2.414,3.401 1.804,2.224 2.097,4.583 4.33,6.557 1.32,1.174 2.936,2.043 4.373,3.056 0.307,0.218 0.535,0.475 0.728,0.75 -0.188,0.003 -0.375,-0.003 -0.554,0.019 -0.807,0.111 -1.184,0.231 -1.809,0.723 -0.94,0.728 -2.703,0.076 -3.917,-0.084 -2.404,-0.318 -3.249,1.309 -5.434,1.568 -1.143,0.138 -2.194,0.385 -3.279,0.777 -1.113,0.402 -0.858,1.576 -1.591,1.985 -1.763,0.978 -3.679,1.6 -5.395,2.73 -0.448,0.291 -1.165,1.005 -1.12,1.587 0.101,1.274 -1.839,2.244 -2.678,3.034 -0.641,0.609 -1.39,1.483 -1.513,2.396 -0.209,1.589 -1.657,2.763 -1.689,4.365 -0.003,0.225 0.021,0.434 0.062,0.636 -0.848,1.029 -0.209,2.309 0.448,3.324 0.516,0.796 1.53,1.432 2.295,1.94 0.885,0.582 1.15,1.013 1.921,1.72 0.092,0.084 0.204,0.158 0.321,0.22 0.127,0.103 0.279,0.201 0.462,0.296 1.179,0.586 2.396,0.992 3.656,1.375 1.063,0.318 1.22,0.782 2.108,1.282 2.1,1.192 5.346,0.605 7.138,1.918 1.627,1.192 3.898,0.698 5.684,0.315 1.703,-0.367 3.145,0.589 4.949,0.089 1.043,-0.29 2.023,-0.844 2.988,-1.318 -0.233,0.117 1.144,-0.016 1.586,-0.081 2.084,-0.282 3.496,-2.086 4.903,-3.491 1.103,-1.095 2.608,-0.956 3.746,-2.455 0.462,-0.616 0.951,-1.336 1.353,-2.105 2.341,3.849 6.052,6.85 10.627,6.15 -0.274,1.899 0.049,3.898 1.344,6.12 1.932,3.331 4.718,5.634 8.34,6.824 2.602,0.853 7.549,2.005 10.105,0.543 1.508,-0.858 2.119,-1.488 4.034,-1.607 2.181,-0.134 4.365,-0.033 6.546,-0.201 4.262,-0.318 5.985,-3.333 9.725,-4.585 2.944,-0.983 6.674,-1.929 7.674,-5.237 0.658,-2.176 3.385,-3.178 5.194,-4.287 1.907,-1.173 3.425,-2.434 4.569,-4.36 0.859,-1.44 0.355,-2.678 1.679,-4.039 1.22,-1.25 2.325,-2.6 3.409,-3.972 1.996,-2.532 3.094,-4.672 2.977,-7.921 -0.041,-1.176 1.402,-2.836 1.973,-3.808 0.88,-1.483 1.646,-3.021 2.341,-4.589 0.442,-0.991 0.891,-2.162 0.769,-3.26 -0.137,-1.163 -0.827,-1.494 -0.378,-2.689 z m -118.137,31.226 v 0 c -0.927,-0.549 -1.628,-0.954 -1.883,-1.345 1.288,-0.51 2.508,-1.54 3.543,-2.108 1.138,-0.622 2.317,-1.168 3.518,-1.663 -0.421,0.886 -0.886,1.747 -1.396,2.59 -0.78,1.271 -1.652,2.488 -2.614,3.643 -0.299,-0.397 -0.578,-0.769 -1.168,-1.117 z m 28.336,-13.021 v 0 c -0.609,-1.062 -1.307,-2.081 -2.079,-3.023 -1.005,-1.233 -2.13,-2.326 -3.303,-3.339 0.263,-0.193 0.497,-0.432 0.687,-0.655 0.44,-0.511 3.771,1.391 4.221,1.646 0.712,0.405 1.567,0.872 2.409,0.91 1.359,0.06 0.975,-0.046 2.024,1.293 1.057,1.355 2.895,6.342 -0.361,6.006 -0.799,-0.162 -1.592,-0.304 -2.389,-0.434 -0.37,-0.804 -0.756,-1.616 -1.209,-2.404 z m -14.64,-57.132 v 0 c 0.085,-0.741 0.37,-1.489 0.75,-2.157 0.274,0.239 0.56,0.467 0.845,0.698 0.695,0.938 1.966,1.948 2.368,2.391 2.633,2.89 5.086,5.933 7.338,9.122 -0.223,-0.049 -0.446,-0.095 -0.671,-0.144 -1.53,-0.353 -3.048,-0.791 -4.547,-1.293 -1.505,-0.5 -2.983,-1.068 -4.423,-1.701 -1.138,-0.505 -2.254,-1.057 -3.298,-1.673 0.021,-0.584 0.065,-1.168 0.141,-1.754 0.571,-1.264 1.294,-1.788 1.497,-3.489 z m -2.512,14.859 v 0 c -0.049,-0.408 -0.1,-0.815 -0.135,-1.225 -0.128,-1.342 0.953,-1.953 1.027,-3.151 0.041,-0.744 0.036,-1.489 0.019,-2.233 0.712,0.386 1.44,0.741 2.171,1.083 1.513,0.701 3.054,1.323 4.621,1.872 1.571,0.551 3.16,1.038 4.787,1.443 1.154,0.282 2.341,0.527 3.542,0.7 0.701,1.1 1.391,2.217 2.049,3.35 0.719,1.255 1.396,2.537 2.032,3.838 -1.103,-0.117 -2.195,-0.258 -3.293,-0.435 -2.059,-0.329 -4.113,-0.763 -6.134,-1.296 -3.683,-0.971 -7.296,-2.259 -10.686,-3.946 z m 1.119,9.622 v 0 c -1.062,-2.097 0.046,-2.271 -0.111,-4.069 -0.063,-0.699 -0.193,-1.372 -0.348,-2.051 2.969,1.418 6.049,2.548 9.185,3.469 2.108,0.609 4.243,1.122 6.403,1.529 1.803,0.336 3.64,0.598 5.473,0.774 0.859,2.094 1.611,4.233 2.257,6.403 -1.504,-0.011 -3.004,-0.132 -4.523,-0.318 -2.064,-0.252 -4.121,-0.627 -6.164,-1.083 -3.931,-0.885 -7.813,-2.067 -11.542,-3.548 -0.239,-0.394 -0.459,-0.766 -0.63,-1.106 z m 85.882,12.118 v 0 c 3.759,-1.608 7.593,-3.015 11.469,-4.325 1.246,-0.329 2.502,-0.639 3.756,-0.916 0.131,-0.027 0.239,-0.07 0.357,-0.108 0.055,-0.009 0.106,-0.012 0.163,-0.025 0.112,0.492 0.125,1.046 0.141,1.418 0.082,1.632 -0.298,3.311 -0.916,4.811 -0.445,1.209 -0.801,2.28 -0.211,3.499 0.147,0.293 0.198,0.59 0.211,0.888 -4.068,-0.081 -8.136,-0.291 -12.156,-0.728 -2.214,-0.242 -4.417,-0.555 -6.571,-0.987 -0.893,-0.173 -1.769,-0.381 -2.627,-0.601 2.105,-1.033 4.232,-2.01 6.384,-2.926 z m 5.666,-11.488 v 0 c 1.981,1.139 3.456,1.611 5.743,2.138 0.356,0.087 0.707,0.185 1.046,0.299 -4.507,1.119 -9.04,2.814 -13.441,4.745 -0.885,0.348 -1.758,0.709 -2.632,1.081 0.252,-1.04 0.532,-2.083 0.842,-3.123 0.331,-1.117 0.687,-2.236 1.061,-3.342 0.255,-0.744 0.52,-1.483 0.8,-2.214 2.235,-0.323 4.812,-0.605 6.581,0.416 z m -13.33,-0.345 v 0 c 1.22,0.598 2.679,0.47 4.023,0.307 -0.141,0.316 -0.28,0.625 -0.416,0.94 -0.467,1.109 -0.921,2.225 -1.347,3.352 -0.427,1.128 -0.834,2.266 -1.203,3.432 -0.228,0.717 -0.438,1.44 -0.624,2.195 -2.668,1.255 -5.276,2.624 -7.827,4.105 0.041,-0.231 0.079,-0.462 0.125,-0.69 0.348,-1.709 0.763,-3.425 1.214,-5.126 0.861,-3.173 1.85,-6.332 2.95,-9.44 0.293,-0.062 0.584,-0.128 0.883,-0.188 1.062,-0.207 1.236,0.632 2.222,1.113 z m -6.581,0.003 v 0 c -0.946,2.502 -1.821,5.034 -2.614,7.601 -0.532,1.744 -1.029,3.504 -1.453,5.297 -0.293,1.263 -0.557,2.536 -0.741,3.86 -1.396,0.894 -2.768,1.82 -4.126,2.776 -1.195,0.834 -2.37,1.687 -3.521,2.572 0.269,-2.805 0.801,-5.639 1.472,-8.435 0.889,-3.651 2.038,-7.253 3.406,-10.773 0.427,-0.114 0.842,-0.266 1.255,-0.45 2.048,-0.938 4.162,-1.772 6.322,-2.448 z m -12.986,2.616 v 0 c 1.564,-0.943 1.132,-0.468 2.089,0.032 -1.393,3.285 -2.602,6.65 -3.599,10.094 -1.184,4.165 -2.119,8.443 -2.322,12.936 -0.791,0.684 -1.579,1.374 -2.358,2.081 -1.412,1.282 -2.779,2.602 -4.11,3.963 -0.011,-0.557 -0.017,-1.117 -0.017,-1.676 0.006,-2.588 0.109,-5.196 0.285,-7.796 0.182,-2.602 0.432,-5.202 0.772,-7.788 0.307,-2.224 0.665,-4.455 1.179,-6.596 2.969,-0.863 5.606,-3.759 8.081,-5.25 z m -11.069,5.34 v 0 c -0.562,1.985 -1,3.98 -1.402,5.976 -0.518,2.635 -0.95,5.284 -1.295,7.944 -0.35,2.659 -0.625,5.329 -0.799,8.032 -0.136,2.189 -0.206,4.395 -0.152,6.642 -1.762,2.049 -3.455,4.164 -5.061,6.329 -0.228,-0.983 -0.432,-1.975 -0.617,-2.972 -0.461,-2.553 -0.796,-5.153 -1.041,-7.758 -0.239,-2.608 -0.385,-5.226 -0.396,-7.837 0.005,-2.466 0.092,-4.946 0.538,-7.277 1.154,-0.082 2.257,-0.31 3.227,-1.15 1.328,-1.154 5.561,-8.086 6.998,-7.929 z m -11.252,0.177 v 0 c 0.576,1.385 -0.791,2.649 -1.63,3.678 -1.016,1.243 -3.803,4.05 -5.3,3.45 -0.103,-0.804 -0.239,-1.619 -0.408,-2.417 0.91,-1.114 1.646,-2.284 2.328,-3.47 0.934,-1.654 1.717,-3.352 2.418,-5.076 0.693,-1.728 1.29,-3.488 1.796,-5.276 0.116,-0.418 0.223,-0.831 0.329,-1.25 2.165,1.907 0.692,5.404 0.28,8.019 -0.141,0.875 -0.152,1.53 0.187,2.342 z m -5.229,-19.795 v 0 c 0.56,0.551 0.945,0.948 1.709,1.176 1.098,0.332 0.997,2.32 1.154,3.407 0.07,0.538 0.12,1.105 0.207,1.662 -0.288,1.236 -0.661,2.461 -1.082,3.673 -0.576,1.662 -1.247,3.295 -2.002,4.878 -0.752,1.581 -1.591,3.124 -2.526,4.569 -0.204,0.309 -0.413,0.613 -0.625,0.915 -0.158,-0.554 -0.307,-1.084 -0.443,-1.584 -0.332,-1.57 -0.717,-3.121 -1.168,-4.653 1.25,-3.181 2.062,-6.462 2.622,-9.755 0.391,-2.336 0.649,-4.689 0.818,-7.033 0.366,0.952 0.716,2.126 1.336,2.745 z m -3.048,-8.717 v 0 c -0.525,-0.033 -0.28,-0.052 0,0 z m -4.615,-0.089 v 0 c 1.209,1.333 2.008,3.083 4.015,3.183 -0.31,3.157 -0.758,6.284 -1.442,9.337 -0.397,1.78 -0.885,3.529 -1.459,5.237 -0.881,-2.22 -1.891,-4.39 -3.019,-6.503 0.117,-1.144 0.16,-2.252 0.201,-3.368 0.046,-1.467 0.046,-2.928 0.016,-4.393 -0.041,-1.459 -0.106,-2.925 -0.229,-4.389 -0.035,-0.419 -0.081,-0.837 -0.122,-1.255 0.713,0.686 1.379,1.422 2.039,2.151 z m -9.845,-6.028 v 0 c 1.53,0.945 3.181,2.488 5.077,2.336 0.122,0.974 0.198,1.969 0.255,2.972 0.07,1.407 0.095,2.822 0.087,4.237 -0.011,1.081 -0.047,2.16 -0.092,3.238 -0.274,-0.432 -0.543,-0.856 -0.823,-1.28 -2.451,-3.686 -5.357,-7.049 -8.527,-10.13 -0.804,-1.045 -1.679,-2.156 -2.603,-3.145 0.356,0.084 0.717,0.149 1.076,0.196 2.119,0.353 3.513,0.318 5.55,1.576 z m -11.14,32.178 v 0 c 0.046,-0.274 0.04,-0.554 0.005,-0.836 2.939,1.07 5.935,1.966 8.98,2.694 2.124,0.505 4.273,0.932 6.46,1.231 1.89,0.252 3.83,0.412 5.777,0.41 0.244,1.431 0.449,2.868 0.573,4.308 0.087,0.641 0.233,1.195 0.419,1.7 -1.342,-0.01 -2.678,-0.108 -4.037,-0.271 -1.858,-0.223 -3.724,-0.565 -5.574,-0.978 -3.32,-0.755 -6.607,-1.763 -9.85,-2.913 -1.324,-1.631 -3.112,-2.918 -2.753,-5.345 z m 5.275,10.084 v 0 c -0.467,-0.353 -0.736,-0.87 -0.948,-1.426 2.48,0.924 4.995,1.761 7.57,2.453 1.915,0.513 3.857,0.953 5.835,1.269 1.625,0.261 3.304,0.44 4.979,0.486 -0.212,1.715 -0.859,3.222 -2.235,4.254 -1.28,0.964 -7.145,1.103 -8.171,-0.562 -1.26,-2.059 -2.263,-3.189 -4.357,-4.585 -0.912,-0.61 -1.803,-1.223 -2.673,-1.889 z m -3.911,10.768 v 0 c 1.149,-0.752 2.57,-0.473 3.999,-0.277 1.598,1.382 3.075,2.869 4.284,4.52 0.823,1.117 1.486,2.32 2.064,3.588 -1.638,-0.168 -3.273,-0.269 -4.924,-0.293 -0.503,-0.782 -1.073,-1.538 -1.673,-2.235 -0.785,-0.918 -1.635,-1.765 -2.546,-2.545 -0.929,-0.796 -1.91,-1.524 -2.952,-2.171 0.669,-0.122 1.291,-0.286 1.748,-0.587 z m -6.129,2.592 v 0 c 0.182,-0.677 0.665,-1.079 1.295,-1.342 1.622,0.853 3.124,1.966 4.461,3.243 0.783,0.75 1.505,1.557 2.154,2.407 0.18,0.228 0.332,0.461 0.489,0.69 -1.045,0.043 -2.096,0.106 -3.151,0.207 -0.568,0.051 -1.133,0.128 -1.701,0.206 l -0.296,-0.241 c -0.385,-0.299 -0.778,-0.588 -1.179,-0.859 -0.799,-0.543 -1.627,-1.03 -2.481,-1.47 -0.809,-0.41 -1.632,-0.782 -2.469,-1.105 1.297,-0.492 2.71,-1.095 2.878,-1.736 z m -8.961,7.068 v 0 c 0.747,-0.703 1.958,-1.301 2.395,-2.29 0.415,-0.927 0.364,-1.288 1.011,-1.791 1.391,0.497 2.739,1.141 4.004,1.904 0.59,0.354 1.154,0.744 1.703,1.152 -1.483,0.335 -2.964,0.739 -4.417,1.184 -1.635,0.5 -3.222,1.155 -4.775,1.863 -0.6,0.217 -1.217,0.44 -1.836,0.684 0.769,-1.269 1.6,-2.412 1.915,-2.706 z m 1.953,11.382 v 0 c 0.991,-1.087 1.914,-2.225 2.76,-3.436 0.609,-0.875 1.179,-1.785 1.692,-2.72 0.258,-0.473 0.508,-0.956 0.742,-1.437 l 0.344,-0.753 0.077,-0.19 c 0.763,-0.234 1.529,-0.448 2.303,-0.647 0.829,-0.19 1.654,-0.375 2.494,-0.524 0.128,-0.024 0.255,-0.038 0.38,-0.062 -0.258,0.647 -0.527,1.282 -0.823,1.915 -0.573,1.263 -1.222,2.5 -1.934,3.694 -1.171,1.977 -2.516,3.871 -3.961,5.688 -0.217,-0.122 -0.442,-0.241 -0.685,-0.353 -1.097,-0.49 -2.251,-0.8 -3.389,-1.175 z m 7.495,3.018 v 0 c -0.573,-0.057 -1.046,-0.206 -1.483,-0.396 1.464,-1.741 2.85,-3.566 4.091,-5.503 0.793,-1.247 1.524,-2.529 2.19,-3.855 0.331,-0.663 0.646,-1.336 0.945,-2.015 l 0.431,-1.041 0.139,-0.342 c 1.6,-0.122 3.211,-0.134 4.811,-0.051 -0.393,1.01 -0.812,2.004 -1.295,2.98 -0.684,1.385 -1.448,2.733 -2.277,4.049 -1.431,2.288 -3.059,4.466 -4.781,6.577 -0.139,-0.054 -0.261,-0.1 -0.332,-0.119 -0.777,-0.241 -1.636,-0.208 -2.439,-0.284 z m 5.509,1.035 v 0 c 1.515,-1.855 2.942,-3.782 4.249,-5.81 0.885,-1.374 1.708,-2.793 2.455,-4.257 0.649,-1.274 1.233,-2.6 1.741,-3.944 0.505,0.057 1.002,0.12 1.5,0.19 1.225,0.177 2.445,0.432 3.651,0.725 -0.31,0.919 -0.752,1.818 -1.254,2.72 -0.693,1.222 -1.492,2.41 -2.329,3.578 -1.603,2.219 -3.355,4.359 -5.123,6.503 -0.392,-0.019 -0.84,-0.095 -1.475,-0.203 -1.071,-0.195 -2.318,0.218 -3.415,0.498 z m 16.16,-5.84 v 0 c -0.497,0.744 -1.768,0.673 -2.515,1.309 -0.883,0.758 -2.523,3.075 -3.235,2.962 -0.549,-0.085 -1.094,-0.028 -1.628,0.105 1.082,-1.258 2.154,-2.543 3.181,-3.874 0.915,-1.19 1.799,-2.414 2.608,-3.732 0.595,-1 1.173,-2.084 1.594,-3.252 2.584,1.315 1.271,4.583 -0.005,6.482 z m 14.286,1.603 v 0 c -1.676,-0.348 -3.037,-2.046 -3.969,-3.345 -2.242,-3.153 -4.341,-9.678 -2.293,-13.33 0.622,-1.105 1.614,-1.806 2.019,-3.083 0.696,-2.19 0.88,-4.161 2.176,-6.158 0.223,-0.347 1.353,-1.836 2.299,-2.985 -0.348,1.915 -0.516,3.827 -0.641,5.726 -0.163,2.72 -0.193,5.434 -0.117,8.147 0.07,2.708 0.242,5.425 0.557,8.145 0.261,2.238 0.6,4.471 1.149,6.742 -0.351,0.168 -0.743,0.233 -1.18,0.141 z m 33.293,10.659 v 0 c -1.038,1.801 -5.281,1.231 -7.014,1.25 -1.921,0.013 -3.713,0.125 -5.585,0.562 -1.198,0.282 -2.062,1.651 -3.227,1.557 -4.968,-0.386 -7.886,-1.915 -10.464,-6.335 -1.385,-2.391 -0.355,-4.453 0.881,-6.525 2.814,1.132 5.672,1.896 8.513,2.54 3.181,0.706 6.362,1.233 9.548,1.652 5.158,0.668 10.32,1.073 15.495,1.26 -1.576,0.62 -3.208,1.101 -4.797,1.66 -1.321,0.461 -2.634,1.123 -3.35,2.379 z m 16.622,-11.67 v 0 c -1.682,1.038 -3.415,1.934 -4.822,3.335 -0.291,0.291 -0.492,0.582 -0.655,0.878 -5.981,-0.396 -11.949,-1.1 -17.828,-2.151 -3.059,-0.551 -6.104,-1.203 -9.068,-2.008 -2.358,-0.65 -4.669,-1.393 -6.839,-2.328 1.013,-1.51 2.07,-2.988 3.172,-4.435 0.166,-0.158 0.31,-0.34 0.421,-0.541 0.761,-0.975 1.548,-1.929 2.358,-2.863 3.374,1.182 6.699,1.807 10.021,2.388 3.436,0.579 6.873,1.017 10.311,1.375 3.442,0.362 6.881,0.647 10.331,0.848 2.328,0.131 4.645,0.237 6.995,0.266 -0.833,2.663 -2.012,3.772 -4.397,5.236 z m 6.674,-8.916 v 0 c -2.948,-0.043 -5.987,-0.252 -8.986,-0.502 -3.385,-0.291 -6.764,-0.658 -10.121,-1.103 -3.361,-0.44 -6.71,-0.961 -10.008,-1.608 -2.491,-0.5 -4.985,-1.043 -7.318,-1.78 2.521,-2.556 5.213,-4.946 8.044,-7.149 2.847,0.972 5.698,1.559 8.524,2.056 3.018,0.522 6.03,0.897 9.046,1.209 3.012,0.308 6.027,0.543 9.04,0.723 2.317,0.135 4.64,0.231 6.968,0.288 -0.036,0.566 -0.107,1.141 -0.315,1.709 -0.886,2.477 -3.1,4.21 -4.874,6.157 z m 5.942,-11.841 v 0 c -0.147,0.22 -0.261,0.445 -0.351,0.676 -2.358,-0.158 -4.721,-0.353 -7.079,-0.592 -2.958,-0.302 -5.905,-0.658 -8.839,-1.087 -2.931,-0.43 -5.844,-0.926 -8.703,-1.546 -1.576,-0.345 -3.138,-0.725 -4.651,-1.171 2.575,-1.736 5.235,-3.344 7.962,-4.827 2.135,0.733 4.341,1.239 6.505,1.619 2.299,0.391 4.588,0.658 6.881,0.847 3.838,0.315 7.658,0.427 11.48,0.424 -0.082,0.152 -0.152,0.302 -0.223,0.451 -0.87,1.8 -1.907,3.522 -2.982,5.206 z" /></g></g></svg>