<?xml version="1.0" encoding="UTF-8" standalone="no"?>
<svg
   xmlns:dc="http://purl.org/dc/elements/1.1/"
   xmlns:cc="http://creativecommons.org/ns#"
   xmlns:rdf="http://www.w3.org/1999/02/22-rdf-syntax-ns#"
   xmlns:svg="http://www.w3.org/2000/svg"
   xmlns="http://www.w3.org/2000/svg"
   xml:space="preserve"
   enable-background="new 0 0 960 640"
   viewBox="0 0 12.759047 21.999998"
   height="21.999998"
   width="12.759047"
   y="0px"
   x="0px"
   id="Слой_1"
   version="1.1"><metadata
     id="metadata9"><rdf:RDF><cc:Work
         rdf:about=""><dc:format>image/svg+xml</dc:format><dc:type
           rdf:resource="http://purl.org/dc/dcmitype/StillImage" /><dc:title></dc:title></cc:Work></rdf:RDF></metadata><defs
     id="defs7" /><path
     style="clip-rule:evenodd;fill:#1d1d1b;fill-rule:evenodd;stroke-width:0.57289058"
     id="path2"
     d="m 6.3800956,0 c -3.14345,0 -5.69109004,2.54822 -5.69109004,5.69109 0,3.14346 2.54821004,5.6911 5.69109004,5.6911 3.14345,0 5.6911004,-2.54822 5.6911004,-5.6911 C 12.071196,2.54822 9.5229756,0 6.3800956,0 Z m -3.12684,21.51147 c -0.65137,0.65137 -1.70721,0.65137 -2.35801004,0 -0.65138,-0.65138 -0.65138,-1.70722 0,-2.35859 L 4.0931156,15.955 c -0.20853,-0.047 -0.41649,-0.10083 -0.62388,-0.16041 -0.95214,-0.27441 -1.85845,-0.6783 -2.69201004,-1.20249 -0.77741000459,-0.48925 -1.01058,-1.51587 -0.52133,-2.29329 0.48925,-0.77684 1.51587004,-1.01057 2.29328004,-0.52133 0.57919,0.36436 1.1962,0.64107 1.83211,0.82497 0.6296,0.1816 1.30218,0.27498 1.99824,0.27498 0.69606,0 1.36806,-0.0934 1.99824,-0.27498 0.63534,-0.18333 1.25234,-0.46003 1.8321004,-0.82497 0.77742,-0.48924 1.80404,-0.25608 2.29329,0.52133 0.48924,0.77742 0.25608,1.80404 -0.52133,2.29329 -0.83299,0.52419 -1.73987,0.92808 -2.6920204,1.20249 -0.20624,0.0596 -0.41362,0.11286 -0.62216,0.15984 l 3.1984504,3.19845 c 0.65138,0.65137 0.65138,1.70721 0,2.35859 -0.65138,0.65137 -1.70721,0.65137 -2.3585904,0 l -3.12741,-3.12741 z m 3.12684,-18.17553 c 1.30104,0 2.35573,1.05469 2.35573,2.35573 0,1.30103 -1.05469,2.35572 -2.35573,2.35572 -1.30103,0 -2.35572,-1.05469 -2.35572,-2.35572 0,-1.30104 1.05411,-2.35573 2.35572,-2.35573 z" /></svg>