<svg xmlns="http://www.w3.org/2000/svg" height="22" width="12.759" id="Слой_1"><path id="path2" d="M6.38 0a5.691 5.691 0 1 0 0 11.382A5.691 5.691 0 0 0 6.38 0zM3.253 21.511a1.667 1.667 0 1 1-2.358-2.358l3.198-3.198a10.534 10.534 0 0 1-3.316-1.363 1.663 1.663 0 1 1 1.772-2.815 7.2 7.2 0 0 0 1.832.825 7.21 7.21 0 0 0 1.999.275c.696 0 1.368-.093 1.998-.275a7.177 7.177 0 0 0 1.832-.825 1.663 1.663 0 1 1 1.772 2.815 10.526 10.526 0 0 1-3.314 1.362l3.198 3.199a1.668 1.668 0 1 1-2.358 2.358L6.38 18.384zM6.38 3.336a2.356 2.356 0 1 1 0 4.711 2.356 2.356 0 0 1 0-4.711z" clip-rule="evenodd" fill="#1d1d1b" fill-rule="evenodd" stroke-width=".573"/></svg>