<svg xmlns="http://www.w3.org/2000/svg" height="170.003" width="170" id="Слой_1"><g transform="translate(-202.009 -106.604) scale(.59742)" id="g14" fill="#dfebba"><path id="path2" d="M500.714 247.531l27.867 2.516a6.584 6.584 0 0 0 7.154-5.973 6.586 6.586 0 0 0-5.973-7.153l-27.881-2.502c-3.615-.325-6.812 2.344-7.141 5.973-.328 3.618 2.344 6.827 5.974 7.139z"/><path id="path4" d="M438.88 279.789c-4.522 4.518-4.522 11.868 0 16.4 4.544 4.534 11.883 4.534 16.414 0 4.534-4.518 4.534-11.869 0-16.4-4.531-4.535-11.883-4.535-16.414 0z"/><path id="path6" d="M508.092 279.591c-4.535 4.534-4.535 11.882 0 16.413 4.517 4.522 11.868 4.522 16.414-.009 4.521-4.521 4.521-11.869 0-16.403-4.546-4.536-11.883-4.536-16.414-.001z"/><path id="path8" d="M581.075 220.074c-55.506-55.51-145.824-55.51-201.32-.014-55.497 55.51-55.497 145.815.013 201.32 55.482 55.497 145.8 55.497 201.292-.013 55.51-55.493 55.497-145.797.015-201.293zm-15.539 185.767c-46.926 46.944-123.316 46.944-170.242.013-46.954-46.94-46.941-123.329 0-170.27 46.927-46.926 123.303-46.926 170.256.014 46.94 46.927 46.93 123.317-.014 170.243z"/><path id="path10" d="M483.263 337.732c-27.641 0-51.93 15.485-61.887 39.461-1.703 4.098.235 8.804 4.351 10.518a7.974 7.974 0 0 0 3.078.617 8.081 8.081 0 0 0 7.443-4.967c7.438-17.934 25.898-29.527 47.002-29.527 20.636 0 38.976 11.594 46.745 29.541a8.038 8.038 0 0 0 10.585 4.192c4.075-1.754 5.95-6.496 4.193-10.584-10.311-23.843-34.455-39.251-61.51-39.251z"/><path id="path12" d="M426.631 281.935l24.275-13.938a6.57 6.57 0 0 0 2.421-8.989 6.58 6.58 0 0 0-8.984-2.435l-24.279 13.939a6.566 6.566 0 0 0-2.421 8.988 6.583 6.583 0 0 0 8.988 2.435z"/></g></svg>