<svg xmlns="http://www.w3.org/2000/svg" height="11" width="11" id="Слой_1"><path id="path2" d="M7.835 4.495a3.33 3.33 0 0 0-.978-2.36 3.329 3.329 0 0 0-2.362-.979 3.33 3.33 0 0 0-2.36.978 3.329 3.329 0 0 0-.979 2.361c0 .923.374 1.758.978 2.362a3.34 3.34 0 0 0 5.7-2.361zm.222 2.744l2.774 2.774a.578.578 0 0 1-.818.818L7.24 8.057a4.472 4.472 0 0 1-2.743.934 4.481 4.481 0 0 1-3.18-1.316A4.482 4.482 0 0 1 0 4.495c0-1.24.503-2.364 1.317-3.178A4.482 4.482 0 0 1 4.496 0a4.48 4.48 0 0 1 3.179 1.317A4.482 4.482 0 0 1 8.99 4.496a4.476 4.476 0 0 1-.934 2.743z" clip-rule="evenodd" fill="#bdbdbd" fill-rule="evenodd" stroke-width=".268"/></svg>