<?xml version="1.0" encoding="UTF-8" standalone="no"?>
<svg
   xmlns:dc="http://purl.org/dc/elements/1.1/"
   xmlns:cc="http://creativecommons.org/ns#"
   xmlns:rdf="http://www.w3.org/1999/02/22-rdf-syntax-ns#"
   xmlns:svg="http://www.w3.org/2000/svg"
   xmlns="http://www.w3.org/2000/svg"
   xml:space="preserve"
   enable-background="new 0 0 960 640"
   viewBox="0 0 170 170.00343"
   height="170.00343"
   width="170"
   y="0px"
   x="0px"
   id="Слой_1"
   version="1.1"><metadata
     id="metadata21"><rdf:RDF><cc:Work
         rdf:about=""><dc:format>image/svg+xml</dc:format><dc:type
           rdf:resource="http://purl.org/dc/dcmitype/StillImage" /><dc:title></dc:title></cc:Work></rdf:RDF></metadata><defs
     id="defs19" /><g
     style="fill:#dfebba;fill-opacity:1"
     transform="matrix(0.59742274,0,0,0.59742274,-202.00887,-106.60396)"
     id="g14"><path
       style="fill:#dfebba;fill-opacity:1"
       id="path2"
       d="m 500.714,247.531 27.867,2.516 c 3.629,0.329 6.825,-2.344 7.154,-5.973 0.325,-3.629 -2.344,-6.825 -5.973,-7.153 l -27.881,-2.502 c -3.615,-0.325 -6.812,2.344 -7.141,5.973 -0.328,3.618 2.344,6.827 5.974,7.139 z" /><path
       style="fill:#dfebba;fill-opacity:1"
       id="path4"
       d="m 438.88,279.789 c -4.522,4.518 -4.522,11.868 0,16.4 4.544,4.534 11.883,4.534 16.414,0 4.534,-4.518 4.534,-11.869 0,-16.4 -4.531,-4.535 -11.883,-4.535 -16.414,0 z" /><path
       style="fill:#dfebba;fill-opacity:1"
       id="path6"
       d="m 508.092,279.591 c -4.535,4.534 -4.535,11.882 0,16.413 4.517,4.522 11.868,4.522 16.414,-0.009 4.521,-4.521 4.521,-11.869 0,-16.403 -4.546,-4.536 -11.883,-4.536 -16.414,-10e-4 z" /><path
       style="fill:#dfebba;fill-opacity:1"
       id="path8"
       d="m 581.075,220.074 c -55.506,-55.51 -145.824,-55.51 -201.32,-0.014 -55.497,55.51 -55.497,145.815 0.013,201.32 55.482,55.497 145.8,55.497 201.292,-0.013 55.51,-55.493 55.497,-145.797 0.015,-201.293 z m -15.539,185.767 c -46.926,46.944 -123.316,46.944 -170.242,0.013 -46.954,-46.94 -46.941,-123.329 0,-170.27 46.927,-46.926 123.303,-46.926 170.256,0.014 46.94,46.927 46.93,123.317 -0.014,170.243 z" /><path
       style="fill:#dfebba;fill-opacity:1"
       id="path10"
       d="m 483.263,337.732 c -27.641,0 -51.93,15.485 -61.887,39.461 -1.703,4.098 0.235,8.804 4.351,10.518 1.01,0.419 2.042,0.617 3.078,0.617 3.156,0 6.145,-1.875 7.443,-4.967 7.438,-17.934 25.898,-29.527 47.002,-29.527 20.636,0 38.976,11.594 46.745,29.541 1.768,4.088 6.497,5.963 10.585,4.192 4.075,-1.754 5.95,-6.496 4.193,-10.584 -10.311,-23.843 -34.455,-39.251 -61.51,-39.251 z" /><path
       style="fill:#dfebba;fill-opacity:1"
       id="path12"
       d="m 426.631,281.935 24.275,-13.938 c 3.156,-1.807 4.243,-5.842 2.421,-8.989 -1.807,-3.155 -5.829,-4.242 -8.984,-2.435 l -24.279,13.939 c -3.156,1.807 -4.243,5.829 -2.421,8.988 1.808,3.156 5.829,4.243 8.988,2.435 z" /></g></svg>