<?xml version="1.0" encoding="UTF-8" standalone="no"?>
<svg
   xmlns:dc="http://purl.org/dc/elements/1.1/"
   xmlns:cc="http://creativecommons.org/ns#"
   xmlns:rdf="http://www.w3.org/1999/02/22-rdf-syntax-ns#"
   xmlns:svg="http://www.w3.org/2000/svg"
   xmlns="http://www.w3.org/2000/svg"
   xml:space="preserve"
   enable-background="new 0 0 960 640"
   viewBox="0 0 27.32645 16"
   height="16"
   width="27.32645"
   y="0px"
   x="0px"
   id="Слой_1"
   version="1.1"><metadata
     id="metadata9"><rdf:RDF><cc:Work
         rdf:about=""><dc:format>image/svg+xml</dc:format><dc:type
           rdf:resource="http://purl.org/dc/dcmitype/StillImage" /><dc:title></dc:title></cc:Work></rdf:RDF></metadata><defs
     id="defs7" /><path
     style="clip-rule:evenodd;fill:#1d1d1b;fill-rule:evenodd;stroke-width:0.605304"
     id="path2"
     d="M 0,0.76329 C 0,1.598 0.97757,5.46105 4.81701,10.63519 7.39197,14.11629 10.77804,16 13.82999,16 c 1.86009,0 2.31286,-0.30992 2.31286,-1.09681 v -2.6706 c 0,-0.66765 0.2621,-0.95396 0.64405,-0.95396 0.42916,0 1.18639,0.13801 2.95691,1.8837 C 21.84179,15.16529 21.98525,16 23.12988,16 h 3.50531 c 0.35774,0 0.69126,-0.16706 0.69126,-0.76329 0,-0.78689 -1.02539,-2.19362 -2.59918,-3.86305 -0.64404,-0.85832 -1.69303,-1.78807 -2.02655,-2.21723 -0.47698,-0.50058 -0.33413,-0.78689 0,-1.31169 0,0 3.60034,-5.07911 3.95808,-6.74793 0.11924,-0.59622 -0.14285,-0.93035 -0.76329,-0.93035 0,0 -2.07438,0 -3.12337,0 -0.71547,0 -0.97757,0.30991 -1.19245,0.76329 0,0 -1.6888,3.59853 -3.7438,5.866 -0.65978,0.73302 -0.99512,0.95396 -1.35952,0.95396 -0.29357,0 -0.42916,-0.24515 -0.42916,-0.90614 V 1.04899 C 16.04721,0.23849 15.95161,0 15.28393,0 H 10.27625 C 9.8949,0 9.65641,0.22215 9.65641,0.5248 c 0,0.76329 1.16824,0.9358 1.16824,3.00473 v 4.2686 c 0,0.85832 -0.0478,1.19245 -0.45277,1.19245 -1.0732,0 -3.62456,-3.69599 -5.05489,-7.89256 C 5.03068,0.2397 4.72077,0.00121 3.91026,0.00121 H 0.7869 C 0.33413,6.1e-4 0,0.31052 0,0.76329" /></svg>