<svg xmlns="http://www.w3.org/2000/svg" height="16" width="27.326" id="Слой_1"><path id="path2" d="M0 .763c0 .835.978 4.698 4.817 9.872C7.392 14.116 10.778 16 13.83 16c1.86 0 2.313-.31 2.313-1.097v-2.67c0-.668.262-.954.644-.954.43 0 1.186.138 2.957 1.883C21.842 15.165 21.985 16 23.13 16h3.505c.358 0 .691-.167.691-.763 0-.787-1.025-2.194-2.599-3.863-.644-.859-1.693-1.788-2.026-2.218-.477-.5-.334-.786 0-1.311 0 0 3.6-5.08 3.958-6.748.119-.596-.143-.93-.763-.93h-3.124c-.715 0-.977.31-1.192.763 0 0-1.69 3.598-3.744 5.866-.66.733-.995.954-1.36.954-.293 0-.429-.245-.429-.906V1.049c0-.81-.095-1.049-.763-1.049h-5.008c-.381 0-.62.222-.62.525 0 .763 1.169.936 1.169 3.005v4.268c0 .858-.048 1.193-.453 1.193-1.073 0-3.625-3.696-5.055-7.893C5.031.24 4.721.001 3.91.001H.787C.334.001 0 .311 0 .763" clip-rule="evenodd" fill="#1d1d1b" fill-rule="evenodd" stroke-width=".605"/></svg>