<svg width="914" height="507" viewBox="0 0 914 507" fill="none" xmlns="http://www.w3.org/2000/svg" xmlns:xlink="http://www.w3.org/1999/xlink"><path fill="url(#pattern0)" d="M0 0h913.039v507H0z"/><path d="M387 408L162 273m241.296 145.11l26.886 12.62" stroke="#fff" stroke-opacity=".6"/><path d="M405.039 413.172c0 5.158-4.417 9.425-9.974 9.425-5.558 0-9.974-4.267-9.974-9.425s4.416-9.425 9.974-9.425c5.557 0 9.974 4.267 9.974 9.425zm44.993 20.851c0 5.157-4.417 9.425-9.974 9.425s-9.974-4.268-9.974-9.425c0-5.158 4.417-9.426 9.974-9.426s9.974 4.268 9.974 9.426zm57.065-62.552c0 5.157-4.416 9.425-9.974 9.425-5.557 0-9.974-4.268-9.974-9.425 0-5.158 4.417-9.426 9.974-9.426 5.558 0 9.974 4.268 9.974 9.426zM164.708 268.315c0 5.158-4.417 9.425-9.974 9.425-5.558 0-9.974-4.267-9.974-9.425s4.416-9.425 9.974-9.425c5.557 0 9.974 4.267 9.974 9.425z" fill="#84BC2B" stroke="#fff" stroke-width="2"/><path d="M403.844 408.782l83.951-34.019" stroke="#fff" stroke-opacity=".6"/><defs><pattern id="pattern0" patternContentUnits="objectBoundingBox" width="1" height="1"><use xlink:href="#image0" transform="scale(.0013 .00233)"/></pattern><image id="image0" width="772" height="429" xlink:href="geo.png"/></defs></svg>