<svg width="20" height="20" viewBox="0 0 20 20" fill="none" xmlns="http://www.w3.org/2000/svg"><path d="M18.116 5.04a.417.417 0 0 0-.045-.186.428.428 0 0 0-.301-.225l-7.587-3.476a.474.474 0 0 0-.391 0L2.13 4.66a.423.423 0 0 0-.253.366v8.819c0 .162.097.31.253.38l7.662 3.507c.003 0 .003 0 .007.004a.137.137 0 0 1 .034.014c.003 0 .007.003.015.003l.033.01c.004 0 .008.004.011.004.011.004.026.004.037.007h.012c.015 0 .033.004.048.004s.034 0 .048-.004h.012a.139.139 0 0 0 .037-.007c.004 0 .007-.003.011-.003l.034-.01c.003 0 .007-.004.014-.004.012-.004.023-.007.034-.014.004 0 .004 0 .008-.004l7.683-3.518a.424.424 0 0 0 .254-.38V5.052c-.008-.004-.008-.007-.008-.01zm-8.13-3.039l6.644 3.043-2.447 1.122-6.645-3.043 2.447-1.122zm0 6.086L3.34 5.044 6.514 3.59l6.645 3.043-3.174 1.453zM2.77 5.723l6.767 3.099v7.855l-6.767-3.1V5.724zm7.661 10.954V8.822l3.177-1.456V9.42c0 .232.201.422.447.422s.447-.19.447-.422V6.954l2.72-1.245v7.855l-6.79 3.113z" fill="#fff" stroke="#fff"/></svg>