<svg width="19" height="13" viewBox="0 0 19 13" fill="none" xmlns="http://www.w3.org/2000/svg"><path d="M2.4 2.4h3.04V.8H.64V12h4.8v-1.6H2.4V7.12h2.416v-1.6H2.4V2.4zM10.435.8H7.859L6.067 12h1.616l.304-2.032h2.16L10.45 12h1.776L10.435.8zM9.059 2.784l.848 5.664H8.21l.848-5.664zm7.427 5.04v1.6c0 .8-.352 1.088-.912 1.088s-.912-.288-.912-1.088V3.376c0-.8.352-1.104.912-1.104s.912.304.912 1.104v1.2h1.664V3.488c0-1.792-.896-2.816-2.624-2.816-1.728 0-2.624 1.024-2.624 2.816v5.824c0 1.792.896 2.816 2.624 2.816 1.728 0 2.624-1.024 2.624-2.816V7.824h-1.664z" fill="#fff"/></svg>