<svg width="20" height="20" viewBox="0 0 20 20" fill="none" xmlns="http://www.w3.org/2000/svg"><g clip-path="url(#clip0)" fill="#fff"><path d="M6.667 11.273v-7.94a3.333 3.333 0 0 1 6.666 0v7.94a5 5 0 1 1-6.667 0zM10 18.333a3.333 3.333 0 0 0 2.222-5.818l-.555-.497V3.333a1.667 1.667 0 0 0-3.334 0v8.685l-.555.497A3.333 3.333 0 0 0 10 18.333z"/><path d="M9.166 6.667h1.667v10H9.166v-10z"/><path d="M10 17.5a2.5 2.5 0 1 1 0-5 2.5 2.5 0 0 1 0 5z"/></g><defs><clipPath id="clip0"><path fill="#fff" transform="matrix(-1 0 0 1 20 0)" d="M0 0h20v20H0z"/></clipPath></defs></svg>