<svg width="22" height="21" viewBox="0 0 22 21" fill="none" xmlns="http://www.w3.org/2000/svg"><path d="M10.18 2.171a1 1 0 0 1 1.64 0l1.172 1.677a1 1 0 0 0 1.079.392l1.976-.53a1 1 0 0 1 1.256 1.053l-.18 2.039a1 1 0 0 0 .575.994l1.854.864a1 1 0 0 1 .285 1.614l-1.448 1.446a1 1 0 0 0-.199 1.13l.866 1.855a1 1 0 0 1-.82 1.419l-2.038.178a1 1 0 0 0-.88.737l-.528 1.977a1 1 0 0 1-1.54.56l-1.676-1.174a1 1 0 0 0-1.148 0L8.75 19.577a1 1 0 0 1-1.54-.56l-.528-1.978a1 1 0 0 0-.88-.738l-2.038-.177a1 1 0 0 1-.82-1.42l.866-1.853a1 1 0 0 0-.2-1.13l-1.447-1.447a1 1 0 0 1 .285-1.614l1.855-.864a1 1 0 0 0 .573-.994l-.179-2.039A1 1 0 0 1 5.953 3.71l1.976.53a1 1 0 0 0 1.079-.392L10.18 2.17z" stroke="#fff" stroke-width="2"/><circle cx="9" cy="13" r="1" fill="#fff"/><circle cx="9" cy="9" r="1" fill="#fff"/><circle cx="13" cy="13" r="1" fill="#fff"/><circle cx="13" cy="9" r="1" fill="#fff"/></svg>