<svg width="24" height="24" viewBox="0 0 24 24" fill="none" xmlns="http://www.w3.org/2000/svg"><g clip-path="url(#clip0)" fill="#fff"><path d="M14.73 21.028c-.19.047-.383.09-.574.125a.925.925 0 0 0 .336 1.816 11.5 11.5 0 0 0 .684-.149.923.923 0 1 0-.446-1.792zm6.831-12.379a.92.92 0 0 0 1.167.586.924.924 0 0 0 .587-1.167 12.04 12.04 0 0 0-.24-.658.924.924 0 1 0-1.716.686c.073.181.14.367.202.553zM17.732 19.71a9.649 9.649 0 0 1-.5.309.924.924 0 0 0 .923 1.6c.201-.117.401-.24.595-.368a.924.924 0 0 0-1.018-1.542zm6.156-8.482a.924.924 0 0 0-1.845.073c.007.195.01.392.005.587a.922.922 0 0 0 .903.944.923.923 0 0 0 .943-.903c.006-.233.004-.468-.006-.7zM21.41 17.28a.923.923 0 0 0-1.293.184c-.118.157-.241.311-.367.46a.924.924 0 0 0 1.406 1.197c.15-.177.298-.362.438-.548a.924.924 0 0 0-.184-1.293zm1.358-3.339a.923.923 0 0 0-1.158.605 9.815 9.815 0 0 1-.193.556.924.924 0 0 0 1.726.658c.083-.218.16-.44.23-.661a.924.924 0 0 0-.605-1.158zM10.701 21.16a9.54 9.54 0 0 1-2.369-.752l-.026-.014a10.03 10.03 0 0 1-.527-.267 9.85 9.85 0 0 1-.92-.575c-4.344-3.06-5.389-9.085-2.328-13.43A9.597 9.597 0 0 1 6.9 3.767l.033-.023c3.164-2.18 7.46-2.327 10.82-.087L17.03 4.7c-.2.29-.077.501.274.47l3.135-.28a.516.516 0 0 0 .467-.676l-.842-3.033c-.094-.34-.335-.38-.536-.09l-.723 1.045A11.406 11.406 0 0 0 10.448.358c-.296.05-.587.113-.875.186l-.005.001-.034.01A11.388 11.388 0 0 0 3.22 4.787l-.04.048a10.914 10.914 0 0 0-.398.576c-.01.015-.018.03-.026.045a11.386 11.386 0 0 0-1.82 6.716v.023c.01.232.028.467.053.698l.008.044a11.398 11.398 0 0 0 3.325 6.892c0 .002.002.002.003.004.452.445.943.857 1.472 1.23a11.388 11.388 0 0 0 4.58 1.916.923.923 0 1 0 .325-1.818z"/><path d="M11.843 4.211a.747.747 0 0 0-.747.748v7.444l6.809 3.52a.747.747 0 0 0 .686-1.327l-6.001-3.103V4.96a.747.747 0 0 0-.747-.748z"/></g><defs><clipPath id="clip0"><path fill="#fff" transform="translate(.923 .103)" d="M0 0h22.974v22.974H0z"/></clipPath></defs></svg>