<svg width="17" height="18" viewBox="0 0 17 18" fill="none" xmlns="http://www.w3.org/2000/svg"><path d="M5.265 9.938h-.557l.06.553c.119 1.103.594 1.988 1.44 2.601.818.593 1.803.877 2.926.877.964 0 2.083-.3 3.342-.855h0l.007-.003a21.92 21.92 0 0 1 1.455-.619c.182-.067.327-.114.44-.144a2.05 2.05 0 0 1 .131-.03c.034-.005.049-.005.049-.005.603 0 .963.146 1.174.35.208.203.356.543.356 1.118 0 .365-.138.762-.47 1.197h0l-.004.006c-.595.807-1.57 1.457-2.986 1.915h0l-.005.002a11.731 11.731 0 0 1-3.742.599c-2.412 0-4.395-.806-5.987-2.413C1.298 13.456.5 11.458.5 9.063c0-2.382.761-4.395 2.28-6.07C4.308 1.332 6.244.5 8.627.5c1.185 0 2.244.217 3.187.643a8.308 8.308 0 0 1 3.383 2.802c.873 1.232 1.303 2.56 1.303 3.993 0 .691-.244 1.166-.71 1.499h0l-.01.007c-.418.313-1 .493-1.793.493H5.265zM4.71 7.031l-.112.593h7.897l-.04-.536c-.072-.999-.476-1.84-1.21-2.492-.711-.65-1.584-.972-2.586-.972-1.02 0-1.905.319-2.619.972-.703.623-1.143 1.445-1.33 2.435z" fill="#fff" stroke="#84BC2B"/></svg>