<svg width="133" height="178" viewBox="0 0 133 178" fill="none" xmlns="http://www.w3.org/2000/svg"><g filter="url(#filter0_d)"><path d="M126 62.5c0 32.86-59.5 104-59.5 104S7 95.36 7 62.5 33.64 3 66.5 3 126 29.64 126 62.5z" fill="#009FE3"/></g><path d="M84.451 62.848c2.513.769 5.204.697 7.673-.207 3.09-1.206 6.237-5.01 6.05-8.514a4.955 4.955 0 0 0-.882-2.67 4.858 4.858 0 0 0-2.186-1.741c-1.032-.374-2.194-.253-3.25-1.54-.793-.96-1.02-3.562.449-4.021.867-.259 2.591.132 3.776 0 2.07-.242 1.305-2.718-.317-2.804-1.163-.063-1.94 1.758-3.51 2.178a3.804 3.804 0 0 1-2.66-.5c-1.922-1.345-.714-3.367-.901-5.142-.085-.775-.505-1.792-1.667-1.671-.766.074-1.548.522-1.656 1.149-.142.792.516.746 1.083.798.307.025.592.172.794.408.326.415.523.919.567 1.448a4.887 4.887 0 0 1-.47 2.843 5.023 5.023 0 0 1-2.774 2.35 5.49 5.49 0 0 1-4.048.074 3.57 3.57 0 0 1-1.52-1.053 3.638 3.638 0 0 1-.8-1.681 2.052 2.052 0 0 1 .144-1.27c.182-.396.486-.723.866-.93.181-.111.35-.244.499-.397.918-.959-.255-1.826-1.276-1.148a3.48 3.48 0 0 0-1.249 1.675 3.53 3.53 0 0 0-.072 2.099c.181.758.567 1.442.788 2.257.181.655.567 2.367.17 3.344a1.037 1.037 0 0 1-.416.553c-.197.131-.433.19-.667.165-.737-.035-1.577-.793-2.268-.69-.908.121-1.633.822-1.56 1.488.13 1.15 1.452 1.15 2.393.822.715-.259 1.305-.925 1.849-1.097.544-.173.93.12 1.395 1.057a12.199 12.199 0 0 1 1.02 4.837c0 2.326-1.043 2.82-3.135 2.757-4.809-.15-8.223-4.837-13.938-5.24-4.775-.332-6.578 1.661-10.457 3.712-2.183 1.149-3.005 1.46-5.341.38a21.239 21.239 0 0 1-5.359-3.787 5.639 5.639 0 0 0-3.028-1.424c-.953-.132-1.832 0-2.234.574-1.089 1.488.76 3.447 2.478 2.832 2.62-.925 3.215-1.074 6.345 1.557 1.452 1.218 2.756 2.298 4.61 2.769 2.75.747 1.735 4.51 2.433 6.997.737 2.625 1.332 5.17 1.089 7.652-.142 1.396-1.662 3.16-2.575 4.733-1.497 2.586.601 4.803 2.15 2.224.515-.856.396-3.028.833-4.86.567-2.453 1.814-4.814 3.725-4.763.44-.015.874.115 1.235.37.361.257.63.625.767 1.05.63 2.2-1.18 5.41-1.815 8.197a5.876 5.876 0 0 0-.102 2.533c.567 1.798 3.21 1.505 3.403-.264a7.216 7.216 0 0 0-.363-2.229c-.607-2.04-.794-5.13-.136-6.773.329-.821.703-1.028 1.088-.879a.617.617 0 0 1 .312.333c.567 1.15 1.26 1.034.845 2.442-.113.383-.15.786-.108 1.183.046.477.54.799.93.356.392-.442.437-1.097.567-1.723.13-.626 1.486-.66 1.225.16a7.275 7.275 0 0 0-.255 1.052 4.226 4.226 0 0 0 0 1.557c.204 1.017 1.361 1.051 1.492-.12.033-.611.023-1.224-.029-1.833 0-1.235.873-1.666.873-.862 0 1.85.925 1.614.925.057 0-.93.725-.827 1.338-1.303A3.856 3.856 0 0 0 71 72.436c.816-3.89 9.708.7 10.524 3.544.093.33.143.669.148 1.011-.02.642.037 1.285.17 1.913.317 1.103 1.99 1.051 2.398-.063.278-.764-.266-2.206-1.332-3.447-1.384-1.585-3.312-3.096-3.833-4.917-.443-1.528.527-1.89 1.826-1.557a17.597 17.597 0 0 1 7.592 4.682c.902 1.028 1.605 1.918 3.045 1.493.275-.083.524-.234.727-.438a1.763 1.763 0 0 0 .476-1.591 1.768 1.768 0 0 0-.363-.774c-1.038-1.224-4.276-1.028-5.67-1.896-2.161-.632-4.339-2.476-5.4-3.774-2.052-2.533-.124-4.808 3.142-3.774zm5.24-14.362a1.097 1.097 0 0 1 .334.81.937.937 0 0 1-.351.753.837.837 0 0 1-.775.232.834.834 0 0 1-.609-.537c-.499-1.022.556-1.976 1.4-1.264v.006zm-5.234 2.051a.942.942 0 0 1 .922.126.963.963 0 0 1 .376.862c0 .712-.317.873-.697.913a1.12 1.12 0 0 1-1.089-.304 1.023 1.023 0 0 1 .488-1.603v.006z" fill="#fff"/><defs><filter id="filter0_d" x="0" y="0" width="133" height="177.5" filterUnits="userSpaceOnUse" color-interpolation-filters="sRGB"><feFlood flood-opacity="0" result="BackgroundImageFix"/><feColorMatrix in="SourceAlpha" values="0 0 0 0 0 0 0 0 0 0 0 0 0 0 0 0 0 0 127 0"/><feOffset dy="4"/><feGaussianBlur stdDeviation="3.5"/><feColorMatrix values="0 0 0 0 0 0 0 0 0 0 0 0 0 0 0 0 0 0 0.1 0"/><feBlend in2="BackgroundImageFix" result="effect1_dropShadow"/><feBlend in="SourceGraphic" in2="effect1_dropShadow" result="shape"/></filter></defs></svg>