<svg width="49" height="49" viewBox="0 0 49 49" fill="none" xmlns="http://www.w3.org/2000/svg"><g clip-path="url(#clip0)" fill="#84BC2B" stroke="#84BC2B"><path d="M29.665 42.94h-4.587v-1.435h4.587v1.436zm-6.023 0h-1.435v-1.435h1.435v1.436zm-2.87 0h-1.436v-1.435h1.435v1.436zm-6.674-26.416h20.803c1.231 0 2.026-1.3 1.47-2.395l-1.42-2.793V7.065A7.073 7.073 0 0 0 27.888 0h-6.774a7.073 7.073 0 0 0-7.065 7.065v4.27l-1.42 2.794a1.649 1.649 0 0 0 1.47 2.395zm1.386-9.46a5.636 5.636 0 0 1 5.63-5.628h6.773a5.636 5.636 0 0 1 5.63 5.629v3.724H15.483V7.065zm-1.575 7.715l1.298-2.555h18.586l1.298 2.555a.207.207 0 0 1-.008.208.207.207 0 0 1-.182.101H14.098a.207.207 0 0 1-.181-.101.207.207 0 0 1-.008-.208zm-.922 26.726h1.515v1.436h-1.515v-1.436zm21.51 0h1.515v1.436h-1.515v-1.436z"/><path d="M24.5 3.029l-.55.657c-.41.489-1.745 2.164-1.745 3.214A2.297 2.297 0 0 0 24.5 9.195 2.297 2.297 0 0 0 26.794 6.9c0-1.05-1.335-2.725-1.744-3.214l-.55-.657zm0 4.73a.86.86 0 0 1-.859-.859c0-.235.368-.896.859-1.58.49.685.858 1.345.858 1.58a.86.86 0 0 1-.858.859zm14.628 20.844v-.024h-7.685v-2.833l3.262-3.262v-4.38H33.27v3.786l-5.538 5.537h-6.464L15.73 21.89v-3.787h-1.436v4.381l3.262 3.262v2.833H9.87v.024c-4.547.334-8.145 4.141-8.145 8.773V49h45.548V37.376c0-4.632-3.598-8.439-8.146-8.773zm-20.136-1.421l1.681 1.68h7.654l1.68-1.68v2.252A5.514 5.514 0 0 1 24.5 34.94a5.514 5.514 0 0 1-5.508-5.508v-2.251h0zm-1.411 2.833c.296 3.557 3.286 6.362 6.919 6.362 3.633 0 6.623-2.805 6.92-6.362h1.617v6.977h1.436v-6.977h3.22v8.46H11.307v-8.46h3.22v6.977h1.436v-6.977h1.618v0zM3.16 47.565v-10.19c0-3.839 2.955-7.001 6.71-7.332v17.522H3.16zm15.031 0V45.97h12.615v1.594H18.192zm14.05 0v-3.03H16.758v3.03h-5.45V39.91h26.386v7.654h-5.45zm13.597 0h-6.71V30.043c3.755.33 6.71 3.493 6.71 7.333v10.189z"/></g><defs><clipPath id="clip0"><path fill="#fff" d="M0 0h49v49H0z"/></clipPath></defs></svg>