<svg xmlns="http://www.w3.org/2000/svg" id="svg4" height="22" width="22"><path id="path2" d="M20.702 7.555l-1.2 7.199c-.28 1.6-.52 3.16-.8 4.76-.12.641-.6.881-1.24.601l-5.88-2.4c-.24-.12-.401-.08-.6.12-1.04 1.16-2.121 2.32-3.16 3.48-.28.32-.6.64-1.12.4-.48-.2-.52-.6-.52-1.04v-5.081c-1.84-.759-3.681-1.479-5.48-2.239-.24-.08-.481-.28-.6-.48-.24-.441-.04-.84.44-1.12 1.56-.881 3.08-1.8 4.64-2.68 4.999-2.96 10.08-5.88 15.12-8.801.08-.04.2-.08.28-.159.28-.161.559-.161.84.04.28.2.399.48.36.799l-1.08 6.601zm-18 4.8c.16.079.24.12.36.16 1.04.44 2.08.84 3.12 1.28.36.159.56.12.88-.119 3.2-2.401 6.439-4.761 9.64-7.162.12-.08.2-.159.319-.199l.081.08c-1.881 3.159-3.8 6.319-5.72 9.52 2 .8 3.92 1.6 5.88 2.4.88-5.32 1.759-10.561 2.64-15.88-5.8 3.319-11.48 6.6-17.2 9.92z" fill="#fff" fill-rule="evenodd"/></svg>