<?xml version="1.0" standalone="no"?>
<!DOCTYPE svg PUBLIC "-//W3C//DTD SVG 20010904//EN"
 "http://www.w3.org/TR/2001/REC-SVG-20010904/DTD/svg10.dtd">
<svg version="1.0" xmlns="http://www.w3.org/2000/svg"
 width="80.000000pt" height="80.000000pt" viewBox="0 0 80.000000 80.000000"
 preserveAspectRatio="xMidYMid meet">
<metadata>
Created by potrace 1.14, written by Peter Selinger 2001-2017
</metadata>
<g transform="translate(0.000000,80.000000) scale(0.100000,-0.100000)"
fill="#000000" stroke="none">
<path d="M320 786 c-78 -17 -141 -51 -198 -108 -156 -155 -155 -402 0 -556
228 -227 610 -104 668 216 37 206 -110 412 -324 451 -70 13 -75 13 -146 -3z
m79 -47 c13 -39 13 -39 2 -39 -5 0 -14 14 -20 31 -13 39 -13 39 -2 39 5 0 14
-14 20 -31z m91 5 c0 9 5 16 10 16 7 0 8 -14 4 -37 -9 -49 -11 -51 -26 -18
-12 26 -12 26 -20 4 -12 -32 -18 -19 -11 26 l6 38 19 -22 c14 -18 18 -20 18
-7z m-173 -19 c14 -44 -1 -56 -16 -13 -13 37 -14 48 -3 48 5 0 13 -16 19 -35z
m48 5 c-3 -5 -1 -10 4 -10 6 0 11 -4 11 -10 0 -5 -7 -10 -15 -10 -15 0 -21 21
-8 33 10 10 15 8 8 -3z m-115 -16 c0 -9 8 -23 18 -30 9 -7 12 -14 5 -14 -6 0
-15 5 -18 10 -12 20 -26 10 -15 -10 7 -13 7 -20 1 -20 -16 0 -43 58 -31 65 6
3 10 1 10 -4 0 -6 4 -11 10 -11 5 0 7 7 4 15 -4 8 -1 15 5 15 6 0 11 -7 11
-16z m410 -49 c12 -15 6 -35 -11 -35 -6 0 -8 10 -4 23 6 21 5 20 -18 -5 -14
-15 -28 -24 -31 -21 -7 7 33 53 45 53 3 0 12 -7 19 -15z m-493 -1 c-3 -3 -12
-4 -19 -1 -8 3 -5 6 6 6 11 1 17 -2 13 -5z m340 -23 c57 -26 118 -92 137 -148
20 -57 20 -63 1 -63 -8 0 -15 -4 -15 -8 0 -5 -12 -14 -27 -21 l-28 -13 28 30
c42 43 15 50 -27 7 -20 -20 -36 -31 -36 -26 0 5 4 13 10 16 5 3 15 15 20 26
21 39 -15 20 -44 -23 -16 -24 -25 -34 -21 -23 4 11 10 29 12 40 5 16 3 18 -7
8 -7 -7 -25 -9 -41 -6 -19 4 -40 -2 -64 -16 -41 -24 -49 -26 -40 -10 11 18
-16 99 -39 114 -31 23 -43 18 -56 -20 -8 -25 -9 -44 -1 -65 10 -30 10 -30 -28
-30 -27 0 -46 -7 -65 -25 -15 -14 -29 -25 -32 -25 -10 0 -3 70 12 119 42 142
217 222 351 162z m-326 -31 c6 0 9 6 6 13 -2 6 -10 11 -16 10 -6 -2 -11 2 -11
7 0 12 10 13 29 1 18 -12 7 -41 -17 -41 -21 0 -42 18 -42 37 0 8 7 6 20 -7 11
-11 25 -20 31 -20z m505 -25 c-17 -13 -34 -22 -38 -19 -11 7 33 43 52 43 9 0
4 -9 -14 -24z m-576 -5 c0 -5 -7 -7 -15 -4 -8 4 -15 8 -15 10 0 2 7 4 15 4 8
0 15 -4 15 -10z m40 -20 c0 -5 -7 -7 -15 -4 -8 4 -12 10 -9 15 6 11 24 2 24
-11z m-39 -7 c27 -16 38 -33 22 -33 -11 0 -70 49 -60 50 5 0 22 -8 38 -17z
m619 -23 c-8 -15 -8 -20 -1 -16 6 4 16 4 23 0 7 -5 -1 -12 -23 -19 -40 -15
-55 -10 -34 11 22 22 19 37 -5 24 -11 -6 -20 -7 -20 -2 0 8 61 32 68 26 2 -1
-2 -12 -8 -24z m-641 -31 c41 -14 40 -30 -1 -18 -18 5 -34 9 -35 9 -2 0 -3 5
-3 10 0 12 0 12 39 -1z m669 -51 c8 -10 2 -13 -25 -14 -32 -1 -34 1 -17 13 22
16 29 16 42 1z m-698 -8 c0 -5 -6 -10 -12 -11 -10 0 -10 -2 0 -6 7 -3 19 3 26
12 7 10 18 15 24 11 17 -10 15 -26 -2 -20 -7 3 -16 -2 -19 -10 -4 -9 -13 -16
-21 -16 -16 0 -25 19 -18 38 5 14 22 16 22 2z m701 -24 c5 3 9 1 9 -5 0 -5 -4
-13 -10 -16 -5 -3 -10 -1 -10 6 0 9 -4 9 -15 -1 -8 -6 -19 -9 -25 -5 -15 9
-12 25 4 19 8 -3 18 0 22 7 6 10 9 10 12 1 2 -7 8 -10 13 -6z m-646 -16 c3 -5
1 -10 -4 -10 -6 0 -11 5 -11 10 0 6 2 10 4 10 3 0 8 -4 11 -10z m545 0 c0 -5
-5 -10 -11 -10 -5 0 -7 5 -4 10 3 6 8 10 11 10 2 0 4 -4 4 -10z m-7 -57 c-7
-2 -19 -2 -25 0 -7 3 -2 5 12 5 14 0 19 -2 13 -5z m-13 -33 c0 -41 -76 -121
-139 -147 -80 -34 -192 -15 -270 44 -33 26 -34 27 -12 35 13 4 27 5 32 2 6 -3
17 0 25 7 12 10 17 9 27 -3 13 -16 63 -37 87 -36 8 0 31 -3 51 -7 29 -5 38 -3
43 10 4 12 12 14 27 10 17 -6 21 -4 16 7 -3 8 -1 21 4 29 6 11 11 11 21 1 23
-23 31 -12 8 13 -27 29 -21 32 15 9 30 -20 49 -11 35 17 -9 16 -7 19 10 19 11
0 20 -5 20 -10z m-413 -162 c3 6 9 10 14 7 5 -4 -1 -19 -13 -35 -25 -34 -37
-31 -31 7 4 26 3 26 -10 11 -24 -31 -29 -20 -5 12 l22 31 9 -23 c6 -14 11 -18
14 -10z m403 7 c32 -34 19 -43 -14 -10 -14 14 -26 28 -26 30 0 12 19 3 40 -20z
m-45 -34 c9 -19 11 -32 5 -36 -6 -3 -10 0 -10 8 0 8 -7 20 -15 27 -17 14 -20
30 -5 30 5 0 16 -13 25 -29z m-302 -28 c-6 -34 -5 -37 10 -25 9 8 19 22 22 33
4 11 10 17 15 14 12 -8 -9 -52 -28 -60 -24 -9 -46 19 -38 49 10 40 25 31 19
-11z m256 13 c9 -11 10 -20 1 -35 -9 -17 -15 -19 -30 -11 -20 10 -27 40 -13
53 11 11 30 8 42 -7z m-139 -33 c0 -18 -4 -33 -10 -33 -5 0 -10 14 -10 31 0
17 -4 28 -10 24 -5 -3 -10 -2 -10 4 0 5 9 9 20 8 16 -1 20 -8 20 -34z m30 27
c0 -5 -4 -10 -10 -10 -5 0 -10 5 -10 10 0 6 5 10 10 10 6 0 10 -4 10 -10z"/>
<path d="M500 96 c0 -8 7 -16 15 -20 9 -3 15 0 15 8 0 8 -7 16 -15 20 -9 3
-15 0 -15 -8z"/>
</g>
</svg>
