<svg width="44.444" height="80" xmlns="http://www.w3.org/2000/svg"><path d="M33.333 22.222h-1.2c2.12-2.362 3.422-5.471 3.422-8.889C35.556 5.98 29.575 0 22.222 0S8.889 5.98 8.889 13.333c0 3.418 1.302 6.526 3.422 8.889h-1.2C4.985 22.222 0 27.207 0 33.333v15.556a2.22 2.22 0 0 0 2.222 2.222h6.667v26.667A2.22 2.22 0 0 0 11.111 80h22.222a2.22 2.22 0 0 0 2.222-2.222V51.111h6.667a2.22 2.22 0 0 0 2.222-2.222V33.333c0-6.126-4.984-11.111-11.111-11.111zm-20-8.889c0-4.902 3.987-8.889 8.889-8.889s8.889 3.987 8.889 8.889-3.987 8.889-8.889 8.889-8.889-3.987-8.889-8.889zM40 46.667h-4.444V33.333h-4.444v42.222h-6.667V51.111H20v24.444h-6.667V33.333H8.889v13.333H4.444V33.333a6.675 6.675 0 0 1 6.667-6.667h22.222A6.675 6.675 0 0 1 40 33.333v13.334z" fill="#2AB460"/></svg>