<svg width="76.693" height="80" xmlns="http://www.w3.org/2000/svg"><path d="M76.354 5.272C75.812 3.452 74.098.344 68.7.006c-1.235-.072-6.242.324-12.147 10.436l-21.149-.024h-.003c-.352 0-.688.086-.987.24-.24.115-.462.277-.651.477L.607 46.387c-.845.898-.8 2.31.097 3.155l31.739 29.852a2.228 2.228 0 0 0 3.153-.096l33.047-35.135a2.232 2.232 0 0 0 .731-1.794l-1.243-19.9c6.27-5.188 9.698-12.236 8.224-17.196zM33.873 74.614L5.385 47.82l30.979-32.938 17.845.021a87.783 87.783 0 0 0-2.662 6.267c-2.014-.144-4.09.517-5.504 2.02-2.574 2.735-2.443 7.057.294 9.634a6.79 6.79 0 0 0 4.67 1.852 6.843 6.843 0 0 0 4.966-2.147 6.763 6.763 0 0 0 1.846-4.877 6.77 6.77 0 0 0-2.142-4.755c-.252-.238-.536-.43-.82-.62a90.837 90.837 0 0 1 3.341-7.369l4.985.006 1.673 26.759zM54.4 27.754a3.37 3.37 0 0 1-.92 2.428c-1.242 1.318-3.476 1.387-4.793.147a3.397 3.397 0 0 1 1.632-5.793c-.313.902-.626 1.826-.939 2.795a1.71 1.71 0 0 0 1.63 2.24c.723 0 1.396-.462 1.629-1.188.284-.88.602-1.794.934-2.72.504.587.803 1.31.827 2.091zm13.109-15.209a2.233 2.233 0 0 0-2.224-2.093l-4.583-.006c2.64-4.233 5.41-7.176 7.785-7.022 2.533.158 4.075 1.108 4.584 2.823.82 2.76-.981 7.53-5.218 11.8z" fill="#2ab460"/><path d="M39.006 42.854l-1.867-1.755-1.701 1.809c-2.414-1.517-4.83-1.314-6.407.362-1.737 1.846-1.242 4.106.15 6.709.961 1.801 1.14 2.832.46 3.555-.716.762-1.853.482-2.938-.54-1.238-1.163-1.985-2.62-2.374-3.81l-2.667 1.691c.33 1.099 1.245 2.607 2.467 3.865l-1.7 1.808 1.866 1.755 1.826-1.941c2.548 1.678 5.108 1.36 6.703-.335 1.613-1.715 1.683-3.622.17-6.553-1.047-2.132-1.337-3.16-.746-3.786.502-.533 1.404-.69 2.641.473 1.371 1.29 1.834 2.552 2.133 3.228l2.576-1.632c-.34-.897-.949-1.969-2.171-3.226zM31.86 26.152a.713.713 0 1 0-.977 1.04l22.35 21.022a.713.713 0 0 0 .977-1.039z" fill="#2ab460"/></svg>