<svg width="93.022" height="72" xmlns="http://www.w3.org/2000/svg"><path d="M18.94 16.455l5.709 6.179a20.322 20.322 0 0 1 6.381 0l5.642-6.179c1.545.47 3.022 1.142 4.5 1.881l-.336 8.396c1.679 1.276 3.224 2.754 4.5 4.5l8.328-.336a37.568 37.568 0 0 1 1.881 4.5l-6.179 5.709a20.322 20.322 0 0 1 0 6.381l6.179 5.642c-.47 1.545-1.142 3.022-1.881 4.5l-8.396-.336c-1.276 1.679-2.754 3.224-4.5 4.5l.336 8.328a37.568 37.568 0 0 1-4.5 1.881l-5.709-6.179a20.322 20.322 0 0 1-6.381 0L18.873 72c-1.545-.47-3.022-1.142-4.5-1.881l.336-8.396c-1.679-1.276-3.224-2.754-4.5-4.5l-8.328.337A37.473 37.473 0 0 1 0 53.06l6.179-5.709a20.322 20.322 0 0 1 0-6.381L0 35.328c.47-1.545 1.142-3.022 1.881-4.5l8.396.336c1.276-1.679 2.754-3.224 4.5-4.5l-.336-8.328a37.554 37.554 0 0 1 4.499-1.881zm3.09 30.157c1.343 3.224 5.037 4.769 8.194 3.425 3.224-1.343 4.769-5.037 3.425-8.194-1.343-3.224-5.037-4.769-8.194-3.425-3.291 1.343-4.768 5.037-3.425 8.194zm46.142-25.187c.537 2.418 2.888 3.896 5.306 3.425 2.418-.537 3.963-2.888 3.425-5.306-.537-2.418-2.888-3.896-5.306-3.425-2.418.538-3.963 2.888-3.425 5.306zM69.784 0l3.224 4.97c1.478.067 3.022.269 4.433.806l4.701-3.627c1.007.537 2.015 1.142 2.888 1.881l-1.276 5.776c1.007 1.075 1.881 2.351 2.619 3.694l5.91.806c.336 1.075.604 2.216.739 3.358l-4.97 3.224c-.067 1.478-.269 3.022-.806 4.433l3.627 4.701c-.537 1.007-1.142 2.015-1.881 2.888l-5.776-1.276c-1.075 1.007-2.351 1.881-3.694 2.619l-.806 5.91a18.742 18.742 0 0 1-3.358.739l-3.224-4.97c-1.478-.067-3.022-.269-4.433-.806L63 38.754c-1.007-.537-2.015-1.142-2.888-1.881l1.276-5.776c-1.007-1.075-1.881-2.351-2.619-3.694l-5.91-.806a18.742 18.742 0 0 1-.739-3.358l4.97-3.224c.067-1.478.269-3.022.806-4.433l-3.627-4.701c.537-1.007 1.142-2.015 1.881-2.888l5.776 1.276c1.074-1.008 2.35-1.881 3.693-2.62l.806-5.91A18.667 18.667 0 0 1 69.784 0z" fill="#2AB460"/></svg>