<svg width="66.073" height="60" xmlns="http://www.w3.org/2000/svg"><path d="M65.292.782a2.67 2.67 0 0 0-3.775 0L30 32.299l-7.223-7.223a2.67 2.67 0 0 0-3.775 3.775l9.11 9.11a2.669 2.669 0 0 0 3.774 0L65.292 4.556a2.669 2.669 0 0 0 0-3.774z" fill="#2AB460"/><path d="M57.331 27.331A2.67 2.67 0 0 0 54.662 30v21.257a3.408 3.408 0 0 1-3.404 3.404H8.743a3.408 3.408 0 0 1-3.404-3.404V8.743a3.408 3.408 0 0 1 3.404-3.404h33.405A2.67 2.67 0 1 0 42.147 0H8.743C3.922 0 0 3.922 0 8.743v42.515C0 56.078 3.922 60 8.743 60h42.515C56.078 60 60 56.078 60 51.257V30a2.67 2.67 0 0 0-2.669-2.669z" fill="#2AB460"/></svg>