<svg id="Слой_1" xmlns="http://www.w3.org/2000/svg" width="270" height="58.527"><path id="path2" fill="#2AB460" d="M141.056 37.831l-.568-.084s1.129-6.456-4.53-11.111c-4.143-3.407-8.555-2.252-8.555-2.252s5.635-23.272-23.493-23.272c-30.197 1.37-37.829 22.953-37.835 22.973 0 0-10.275 3.603-12.327 11.261-3.5 13.062-.175 11.862-.175 11.862h.677c.376 0 .769-.279.919-.654 1.03-2.562 5.418-11.767 15.175-11.509 9.866.261 8.959 9.289 8.56 11.619-.053.309.145.542.455.541l28.475-.145a.629.629 0 0 0 .56-.42c.679-2.043 4.191-10.913 14.16-11.444 10.01-.533 9.784 8.408 9.609 10.415-.02.226.14.386.373.37 1.438-.097 6.148-.508 7.123-1.777.933-1.215 1.561-4.595 1.766-5.839.046-.275-.106-.495-.369-.534zM88.147 23.696c-10.13-.08-18.512.115-18.348-.222 1.789-3.679 7.949-13.889 22.916-17.757.514-.133.895.223.762.72l-4.372 16.506c-.11.418-.541.756-.958.753zm5.624.192c-.413-.002-.656-.337-.545-.75l4.66-17.643c.1-.381.469-.701.86-.749a54.33 54.33 0 0 1 4.123-.342c21.536 0 21.717 14.296 21.163 19.132-.061.527-15.822.428-30.261.352z"/><path id="path4" fill="#2AB460" d="M69.291 37.297c-5.39 0-10.93 4.369-12.375 9.759s1.754 9.759 7.144 9.759 10.93-4.369 12.375-9.759-1.755-9.759-7.144-9.759zM65.393 51.56c-2.613 0-4.162-2.118-3.463-4.73.7-2.613 3.385-4.73 5.996-4.73 2.613 0 4.162 2.118 3.463 4.73-.699 2.613-3.383 4.73-5.996 4.73z"/><path id="path6" fill="#2AB460" d="M122.442 37.297c-5.39 0-10.93 4.369-12.375 9.759-1.445 5.39 1.754 9.759 7.144 9.759 5.39 0 10.93-4.369 12.375-9.759 1.443-5.39-1.755-9.759-7.144-9.759zm-3.748 14.263c-2.613 0-4.162-2.118-3.463-4.73.7-2.613 3.385-4.73 5.996-4.73 2.612 0 4.162 2.118 3.463 4.73-.699 2.613-3.384 4.73-5.996 4.73z"/><path id="path5" fill="#282828" d="M156.551 31.17c-.908-.952-1.315-2.611-1.223-4.98.092-2.368.72-5.728 1.884-10.073 1.067-3.984 2.226-7.153 3.475-9.507s2.646-4.044 4.189-5.071C166.419.514 168.201 0 170.224 0c1.991 0 3.43.491 4.314 1.472s1.282 2.619 1.197 4.912c-.087 2.294-.68 5.493-1.78 9.598-1.108 4.136-2.279 7.41-3.515 9.824-1.236 2.415-2.614 4.15-4.134 5.207-1.521 1.056-3.291 1.583-5.313 1.583-2.057-.001-3.536-.477-4.442-1.426zm8.546-3.6c.861-.845 1.68-2.188 2.461-4.029.78-1.841 1.59-4.331 2.431-7.47.841-3.138 1.375-5.583 1.603-7.334.227-1.75.145-3.018-.248-3.803s-1.134-1.177-2.219-1.177c-1.088 0-2.07.43-2.95 1.289-.879.861-1.728 2.249-2.542 4.165-.816 1.916-1.665 4.521-2.546 7.809-.776 2.897-1.265 5.199-1.464 6.904-.202 1.705-.106 2.951.289 3.735.392.785 1.134 1.177 2.219 1.177 1.118.002 2.107-.421 2.966-1.266z"/><path id="path7" fill="#282828" d="M182.757 31.532c-.882-.709-1.339-2.157-1.371-4.346-.032-2.188.514-5.38 1.638-9.575 1.286-4.799 2.713-8.495 4.286-11.092 1.57-2.596 3.114-4.331 4.631-5.206C193.458.438 195.031 0 196.661 0c1.509 0 2.531.242 3.066.724.533.484.708 1.072.521 1.766a5.581 5.581 0 0 1-1.182 2.218c-.734-.754-1.615-1.131-2.639-1.131-1.119 0-2.195.355-3.228 1.064-1.037.71-2.088 2.075-3.158 4.097-1.071 2.022-2.11 4.919-3.122 8.692-.792 2.957-1.225 5.251-1.3 6.88-.075 1.631.139 2.747.642 3.351.502.604 1.236.905 2.201.905a7.66 7.66 0 0 0 2.515-.43c.83-.286 1.527-.626 2.084-1.018.152.785.135 1.525-.051 2.218-.243.905-.977 1.676-2.203 2.31-1.225.633-2.654.95-4.284.95-1.63-.001-2.886-.355-3.766-1.064z"/><path id="path9" fill="#282828" d="M219.716 32.052c-.244.119-.712.181-1.406.181-.816 0-1.532-.03-2.15-.091l.257-8.059h-7.878l-3.755 7.425c-.163.271-.357.461-.582.565-.225.105-.669.158-1.332.158-.635 0-1.377-.045-2.228-.137L217.091.947c.204-.422.712-.633 1.528-.633.693 0 1.256.045 1.684.135l-.203 31.013a.648.648 0 0 1-.384.59zm-3.227-11.273l.208-6.519c.111-3.681.363-6.594.756-8.737-1.051 2.687-2.377 5.599-3.971 8.737l-3.286 6.519h6.293z"/><path id="path11" fill="#282828" d="M237.088 1.176c.032-.121.125-.272.279-.453.155-.18.382-.271.685-.271h10.277a83.486 83.486 0 0 1-.562 2.014c-.149.498-.285.808-.407.929-.123.121-.289.181-.502.181h-6.744l-7.461 27.842c-.032.121-.118.273-.256.453-.14.181-.344.272-.616.272h-2.988l8.295-30.967z"/><path id="path13" fill="#282828" d="M250.805 31.17c-.908-.952-1.315-2.611-1.223-4.98.092-2.368.72-5.728 1.884-10.073 1.067-3.984 2.226-7.153 3.475-9.507s2.646-4.044 4.189-5.071C260.674.514 262.456 0 264.479 0c1.991 0 3.43.491 4.314 1.472.884.981 1.282 2.619 1.197 4.912-.087 2.294-.68 5.493-1.78 9.598-1.108 4.136-2.279 7.41-3.515 9.824-1.236 2.415-2.614 4.15-4.134 5.207-1.521 1.056-3.291 1.583-5.313 1.583-2.057-.001-3.536-.477-4.443-1.426zm8.546-3.6c.861-.845 1.68-2.188 2.461-4.029.78-1.841 1.59-4.331 2.431-7.47.841-3.138 1.375-5.583 1.603-7.334.227-1.75.145-3.018-.248-3.803s-1.134-1.177-2.219-1.177c-1.088 0-2.07.43-2.95 1.289-.879.861-1.728 2.249-2.542 4.165-.816 1.916-1.665 4.521-2.546 7.809-.776 2.897-1.265 5.199-1.464 6.904-.202 1.705-.106 2.951.289 3.735.392.785 1.134 1.177 2.219 1.177 1.118.002 2.108-.421 2.966-1.266z"/><path id="path15" fill="#282828" d="M148.964 57.901c-.4-.42-.58-1.152-.54-2.198.04-1.045.317-2.526.83-4.444.471-1.757.983-3.157 1.535-4.195.55-1.039 1.167-1.784 1.846-2.236.68-.454 1.467-.679 2.36-.679.879 0 1.512.215 1.902.647.389.433.566 1.156.528 2.168-.038 1.011-.3 2.422-.785 4.234-.488 1.825-1.005 3.269-1.551 4.334-.545 1.065-1.153 1.831-1.824 2.296-.671.467-1.452.7-2.344.7-.903.002-1.557-.208-1.957-.627zm3.772-1.588c.379-.373.741-.965 1.087-1.778.342-.813.701-1.91 1.072-3.295.372-1.385.608-2.464.707-3.237.101-.771.064-1.331-.11-1.676-.174-.346-.5-.519-.98-.519-.479 0-.913.19-1.3.569-.389.379-.764.992-1.123 1.837-.359.846-.734 1.994-1.122 3.444-.342 1.279-.558 2.294-.646 3.047-.089.752-.047 1.301.127 1.648.174.346.501.518.98.518.491 0 .929-.186 1.308-.558z"/><path id="path17" fill="#282828" d="M178.71 44.429c.064-.041.229-.064.498-.07.268-.006.622-.01 1.061-.01l-3.66 13.663c-.058.212-.2.319-.424.319h-1.2l-.824-5.492c-.092-.852-.215-2.749-.373-5.692-.1.573-.31 1.531-.63 2.876a120.99 120.99 0 0 1-.781 3.134l-1.301 4.855c-.031.118-.076.199-.133.239-.059.041-.22.064-.488.069-.269.007-.622.011-1.061.011l3.661-13.662c.058-.212.193-.32.405-.32h1.219l.813 5.394c.048.466.15 1.923.306 4.373.011.16.04.593.092 1.299l.016-.061c.071-.518.275-1.46.607-2.826.333-1.364.597-2.412.793-3.145l1.263-4.714c.029-.12.077-.201.141-.24z"/><path id="path19" fill="#282828" d="M194.865 44.808c.047-.173.103-.287.172-.339.067-.052.196-.086.386-.1.19-.013.583-.02 1.183-.02l-3.34 12.463h3.436l-.321 1.2c-.032.118-.082.202-.148.248a.435.435 0 0 1-.258.069h-4.733l3.623-13.521z"/><path id="path21" fill="#282828" d="M214.124 45.087c.071-.266.146-.446.225-.539.078-.093.215-.15.415-.17.199-.021.597-.03 1.197-.03l-3.66 13.663c-.032.118-.081.199-.145.239-.064.041-.23.064-.498.069-.269.007-.63.011-1.082.011l3.548-13.243z"/><path id="path23" fill="#282828" d="M236.57 44.429c.064-.041.229-.064.498-.07.269-.006.623-.01 1.062-.01l-3.662 13.663c-.057.212-.198.319-.424.319h-1.198l-.826-5.492c-.091-.852-.214-2.749-.372-5.692-.1.573-.31 1.531-.63 2.876a120.99 120.99 0 0 1-.781 3.134l-1.3 4.855c-.032.118-.077.199-.134.239-.058.041-.22.064-.488.069-.269.007-.621.011-1.06.011l3.66-13.662c.058-.212.192-.32.406-.32h1.219l.812 5.394c.048.466.15 1.923.306 4.373.01.16.04.593.092 1.299l.016-.061c.072-.518.275-1.46.607-2.826.333-1.364.597-2.412.792-3.145l1.264-4.714c.028-.12.077-.201.141-.24z"/><path id="path25" fill="#282828" d="M251.112 56.871h3.435c-.103.386-.19.698-.261.94-.07.24-.137.385-.197.438a.375.375 0 0 1-.252.08h-4.714l3.661-13.662a.645.645 0 0 1 .114-.2c.061-.08.157-.119.29-.119h4.795c-.1.373-.187.679-.257.918-.069.241-.134.389-.191.449-.055.061-.138.091-.244.091h-3.216l-1.119 4.175h3.016c-.096.358-.179.658-.25.898-.07.24-.137.397-.196.469a.303.303 0 0 1-.248.11h-2.717l-1.449 5.413z"/><path id="polygon32" fill="#282828" d="M152.65 37.729h107.413l-.358 1.331H152.293z"/><path id="polygon34" fill="#2AB460" d="M1.154 26.662h46.665l-1.155 4.308H0z"/><path id="polygon36" fill="#2AB460" d="M21.706 11.587h38.767l-1.154 4.307H20.552z"/><path id="polygon38" fill="#2AB460" d="M10.037 41.739H43.06l-1.153 4.307H8.882z"/></svg>