<svg xmlns="http://www.w3.org/2000/svg" height="68" width="105.662" id="Слой_1"><path id="path2" d="M95.462 0H39.754c-7.054 0-10.2 3.133-10.2 10.158h5.23c0-4.143.79-4.927 4.97-4.927h55.708c4.182 0 4.969.782 4.969 4.927V27.14l-24.323.601V22.66c0-7.025-3.147-10.158-10.2-10.158H10.2C3.146 12.502 0 15.635 0 22.66v35.182C0 64.867 3.146 68 10.2 68h55.708c7.053 0 10.2-3.133 10.2-10.158v-2.344h19.354c7.053 0 10.2-3.133 10.2-10.158V10.158c0-7.025-3.147-10.158-10.2-10.158zM10.2 17.732h55.708c4.182 0 4.969.782 4.969 4.928v16.919H5.23v-16.92c0-4.145.79-4.927 4.969-4.927zM65.908 62.77H10.2c-4.182 0-4.97-.782-4.97-4.927V50.04h65.647v7.802c0 4.145-.787 4.927-4.97 4.927zm29.554-12.501H76.108V38.206l24.323-.602v7.734c0 4.148-.79 4.93-4.97 4.93z" fill="#2ab460" stroke-width="2.615"/><path id="rect4" fill="#2ab460" stroke-width="2.615" d="M80.292 11.189h13.6v10.462h-13.6z"/><path id="rect6" fill="#2ab460" stroke-width="2.615" d="M25.369 53.652h9.154v5.231h-9.154z"/><path id="rect8" fill="#2ab460" stroke-width="2.615" d="M11.769 53.652h9.154v5.231h-9.154z"/><path id="rect10" fill="#2ab460" stroke-width="2.615" d="M50.477 23.69h13.862v10.462H50.477z"/></svg>