<svg xmlns="http://www.w3.org/2000/svg" height="60" width="80" id="Capa_1"><path id="path2" d="M73.077 0H6.923C1.4 0 0 1.4 0 6.923v46.154C0 58.6 1.4 60 6.923 60h66.154C78.6 60 80 58.6 80 53.077V6.923C80 1.4 78.6 0 73.077 0zM53.542 26.683L74.708 8.545c.147.467.292.938.292 1.455v40c0 .348-.132.655-.2.982zM70 5c.332 0 .625.126.938.19L40 31.709 9.062 5.19C9.375 5.126 9.668 5 10 5zM5.197 50.975C5.129 50.65 5 50.345 5 50V10c0-.517.148-.988.295-1.455l21.16 18.135zM10 55c-.505 0-.963-.148-1.425-.29l21.68-24.775 8.12 6.957a2.469 2.469 0 0 0 1.625.606c.578 0 1.16-.2 1.625-.606l8.12-6.957 21.68 24.776c-.459.141-.917.289-1.425.289z" fill="#2ab460" stroke-width="3.077"/></svg>