<svg xmlns="http://www.w3.org/2000/svg" height="76" width="103.976" id="Слой_1"><path id="path2" d="M10.444 57.662a2.015 2.015 0 1 0 0-4.03h-2.2v-2.197a2.015 2.015 0 1 0-4.03 0v2.196H2.015a2.015 2.015 0 1 0 0 4.031h2.2v2.199a2.015 2.015 0 1 0 4.03 0v-2.199z" fill="#2ab460" stroke-width="2.015"/><path id="path4" d="M14.015 71.633H12.67v-1.345a1.008 1.008 0 0 0-2.016 0v1.345H9.311a1.008 1.008 0 0 0 0 2.015h1.344v1.344a1.008 1.008 0 0 0 2.016 0v-1.344h1.344a1.008 1.008 0 0 0 0-2.015z" fill="#2ab460" stroke-width="2.015"/><path id="path6" d="M102.72 16.766l-2.036-.828.828-2.036a2.015 2.015 0 0 0-3.732-1.52l-.829 2.036-2.037-.828a2.016 2.016 0 0 0-1.52 3.733l2.038.828-.829 2.035a2.012 2.012 0 0 0 1.867 2.776 2.01 2.01 0 0 0 1.866-1.258l.828-2.038 2.036.829a2.01 2.01 0 0 0 2.626-1.108 2.008 2.008 0 0 0-1.107-2.62z" fill="#2ab460" stroke-width="2.015"/><path id="path8" d="M93.46 5.007a1.009 1.009 0 0 0 .76-1.868l-1.243-.506.506-1.244a1.006 1.006 0 1 0-1.864-.76l-.506 1.244-1.246-.506a1.008 1.008 0 0 0-.76 1.868l1.246.506-.506 1.241a1.01 1.01 0 0 0 .931 1.39c.397 0 .774-.239.933-.63l.506-1.243z" fill="#2ab460" stroke-width="2.015"/><path id="path10" d="M80.232 1.026H23.29a2.016 2.016 0 0 0-2.016 2.016v69.596c0 1.115.903 2.016 2.016 2.016h56.942a2.014 2.014 0 0 0 2.015-2.016V3.044c0-1.115-.9-2.018-2.015-2.018zM25.305 21.402h24.44v24.347h-24.44zm28.471 0h24.44v24.347h-24.44zM25.305 5.057h52.911v12.312H25.305zm0 44.723h24.44v20.845h-24.44zm28.471 20.845V49.78h24.44v20.845z" fill="#2ab460" stroke-width="2.015"/><path id="path12" d="M43.407 32.676h-3.769v-3.77a2.016 2.016 0 0 0-4.03 0v3.77h-3.77a2.016 2.016 0 0 0 0 4.03h3.77v3.77a2.015 2.015 0 1 0 4.03 0v-3.77h3.769a2.016 2.016 0 0 0 0-4.03z" fill="#2ab460" stroke-width="2.015"/><path id="path14" d="M72.946 32.676h-12.45a2.015 2.015 0 1 0 0 4.03h12.45a2.015 2.015 0 1 0 0-4.03z" fill="#2ab460" stroke-width="2.015"/><path id="path16" d="M42.236 58.228H33.01a2.015 2.015 0 1 0 0 4.031h9.226a2.015 2.015 0 1 0 0-4.03z" fill="#2ab460" stroke-width="2.015"/><path id="path18" d="M73.488 54.222a2.013 2.013 0 0 0-2.85 0l-3.172 3.172-3.172-3.172a2.013 2.013 0 0 0-2.85 0 2.013 2.013 0 0 0 0 2.85l3.173 3.172-3.172 3.172a2.013 2.013 0 0 0 1.424 3.44 2.01 2.01 0 0 0 1.425-.59l3.172-3.172 3.173 3.172c.393.393.909.59 1.425.59a2.013 2.013 0 0 0 1.425-3.44l-3.173-3.172 3.172-3.172a2.013 2.013 0 0 0 0-2.85z" fill="#2ab460" stroke-width="2.015"/><path id="path20" d="M37.623 57.36a1.714 1.714 0 0 0 0-3.426 1.714 1.714 0 0 0 0 3.426z" fill="#2ab460" stroke-width="2.015"/><path id="path22" d="M37.623 63.2a1.714 1.714 0 0 0 0 3.427 1.714 1.714 0 0 0 0-3.427z" fill="#2ab460" stroke-width="2.015"/></svg>