<svg xmlns="http://www.w3.org/2000/svg" xmlns:xlink="http://www.w3.org/1999/xlink" width="63px" height="41px">
    <path fill="#000000"
        d="M2.332,0.073 C16.966,0.073 31.606,0.073 46.240,0.073 C50.020,0.073 53.800,0.073 57.580,0.073 C59.011,0.073 61.240,-0.202 62.103,0.433 C62.984,1.081 62.646,4.669 62.646,6.260 C62.646,11.947 62.646,17.635 62.646,23.321 C62.646,27.065 62.646,30.811 62.646,34.555 C62.646,35.531 62.840,38.458 62.525,39.061 C61.958,40.148 60.381,39.962 58.726,39.962 C55.429,39.962 52.131,39.962 48.834,39.962 C37.255,39.962 25.672,39.962 14.093,39.962 C11.118,39.962 8.142,39.962 5.166,39.962 C3.895,39.962 2.175,40.152 1.427,39.601 C0.567,38.968 0.884,35.845 0.884,34.315 C0.884,29.169 0.884,24.021 0.884,18.876 C0.884,14.591 0.884,10.305 0.884,6.020 C0.884,4.418 0.884,2.816 0.884,1.214 C1.033,0.823 1.461,0.355 1.849,0.193 C2.012,0.125 2.204,0.158 2.332,0.073 ZM9.027,11.066 C8.846,11.127 8.665,11.186 8.484,11.246 C7.573,12.701 7.034,14.459 6.312,16.112 C5.986,16.861 5.491,17.463 5.709,18.455 C6.478,18.964 7.275,18.964 8.484,18.816 C8.579,18.687 8.755,18.639 8.846,18.515 C9.038,18.252 9.030,17.769 9.328,17.614 C9.602,17.439 10.436,17.546 10.836,17.554 C11.052,17.976 11.200,18.593 11.680,18.756 C11.940,18.959 12.620,18.876 13.068,18.876 C14.492,18.876 15.429,19.123 15.902,18.095 C15.943,18.095 15.983,18.095 16.023,18.095 C16.083,18.344 16.258,18.637 16.445,18.756 C16.880,19.031 18.438,18.946 18.798,18.695 C18.960,18.583 19.075,18.283 19.159,18.095 C19.265,18.133 19.218,18.107 19.280,18.155 C19.465,18.386 19.548,18.680 19.823,18.816 C20.003,18.905 21.587,18.964 21.874,18.876 C22.306,18.743 23.271,18.876 24.165,18.876 C25.305,18.876 26.787,18.998 27.724,18.756 C28.004,18.683 28.144,18.860 28.387,18.876 C29.134,18.925 29.871,18.827 30.378,18.695 C30.744,18.130 30.749,17.807 30.740,16.833 C30.901,16.747 30.994,16.713 31.283,16.713 C31.394,16.800 31.444,16.756 31.524,16.894 C31.898,17.535 31.290,18.299 32.006,18.756 C32.498,19.069 33.796,18.831 34.298,18.756 C34.412,18.739 34.587,18.859 34.660,18.876 C34.942,18.876 35.223,18.876 35.505,18.876 C36.489,18.876 36.884,18.810 37.193,18.155 C37.299,18.193 37.252,18.166 37.314,18.215 C37.647,18.322 37.934,18.583 38.279,18.695 C39.175,18.987 40.726,18.932 41.777,18.816 C41.887,18.671 42.100,18.601 42.199,18.455 C42.414,18.140 42.442,17.817 42.682,17.554 C43.145,17.541 43.922,17.465 44.190,17.674 C44.484,18.065 44.458,18.579 44.974,18.756 C45.167,18.906 45.528,18.876 45.879,18.876 C46.563,18.877 48.080,19.038 48.593,18.816 C48.841,18.708 48.956,18.453 49.136,18.275 C49.138,18.019 49.127,17.329 49.256,17.134 C49.256,17.154 49.256,17.174 49.256,17.194 C49.276,17.194 49.296,17.194 49.317,17.194 C49.515,17.630 49.895,18.438 50.282,18.695 C50.855,19.077 52.674,18.919 53.358,18.756 C53.474,18.591 53.703,18.467 53.780,18.275 C53.967,17.804 53.840,16.935 53.840,16.353 C53.840,14.772 53.993,12.776 53.659,11.487 C53.507,11.384 53.355,11.189 53.177,11.127 C52.738,10.973 51.400,10.962 51.066,11.186 C50.303,11.462 50.656,12.231 50.342,12.448 C50.133,12.101 49.834,11.468 49.497,11.246 C48.839,10.813 46.931,11.065 46.240,11.246 C46.143,11.405 45.942,11.545 45.879,11.727 C45.774,12.025 45.937,12.412 45.698,12.568 C45.698,12.548 45.698,12.528 45.698,12.508 C45.525,12.285 45.538,11.998 45.396,11.727 C45.257,11.461 44.994,11.329 44.793,11.127 C44.122,11.093 43.066,10.890 42.320,11.066 C42.136,11.110 41.897,11.300 41.657,11.246 C40.893,11.075 39.534,10.932 38.641,11.186 C38.112,11.337 37.682,11.745 37.193,11.847 C37.089,11.448 36.836,11.370 36.590,11.127 C35.991,11.112 35.126,10.938 34.540,11.127 C34.282,11.209 34.062,11.620 33.876,11.547 C33.609,11.463 33.364,11.268 33.092,11.186 C32.650,11.166 32.207,11.147 31.765,11.127 C30.647,10.881 28.790,11.049 27.845,11.246 C26.640,10.846 23.524,10.974 22.296,11.246 C22.083,11.294 21.799,11.088 21.572,11.066 C20.657,10.977 19.600,11.097 18.858,11.186 C18.342,11.895 18.057,12.691 17.652,13.529 C17.611,13.509 17.571,13.489 17.531,13.469 C17.312,12.960 16.782,11.509 16.385,11.246 C15.709,10.799 13.659,11.058 12.947,11.246 C12.850,11.403 12.645,11.547 12.585,11.727 C12.472,12.066 12.732,12.511 12.464,12.688 C12.464,12.648 12.464,12.608 12.464,12.568 C12.025,12.167 12.161,11.322 11.439,11.186 C10.998,10.888 9.696,11.059 9.027,11.066 ZM6.614,17.915 C6.639,17.444 6.888,17.177 7.036,16.833 C7.487,15.790 7.930,14.774 8.363,13.769 C8.484,13.489 8.858,12.207 9.027,12.087 C9.730,12.087 10.434,12.087 11.138,12.087 C11.523,12.964 11.928,13.893 12.344,14.731 C12.774,15.597 12.959,16.519 13.430,17.314 C13.450,17.314 13.470,17.314 13.490,17.314 C13.490,17.274 13.490,17.234 13.490,17.194 C13.649,16.943 13.550,16.240 13.550,15.872 C13.550,14.684 13.705,13.224 13.490,12.148 C14.084,11.950 15.131,12.082 15.842,12.087 C16.108,13.049 16.735,14.046 17.169,14.911 C17.340,15.252 17.368,15.651 17.652,15.872 C17.652,15.892 17.652,15.912 17.652,15.932 C17.672,15.932 17.692,15.932 17.712,15.932 C17.712,15.912 17.712,15.892 17.712,15.872 C18.255,14.611 18.798,13.349 19.340,12.087 C20.104,12.087 20.868,12.087 21.632,12.087 C21.788,12.557 21.693,13.373 21.693,13.950 C21.693,15.231 21.693,16.513 21.693,17.794 C21.644,17.856 21.671,17.811 21.632,17.915 C21.190,17.915 20.748,17.915 20.305,17.915 C20.032,17.095 20.241,14.697 20.245,13.650 C20.225,13.650 20.205,13.650 20.185,13.650 C20.185,13.629 20.185,13.609 20.185,13.589 C20.165,13.589 20.144,13.589 20.124,13.589 C20.124,13.609 20.124,13.629 20.124,13.650 C19.944,13.854 19.957,14.100 19.823,14.370 C19.471,15.075 19.056,15.871 18.737,16.593 C18.640,16.813 18.329,17.840 18.194,17.915 C17.792,17.915 17.390,17.915 16.988,17.915 C16.234,16.526 15.690,14.953 14.998,13.529 C14.978,13.529 14.957,13.529 14.937,13.529 C14.937,14.951 14.937,16.373 14.937,17.794 C14.889,17.856 14.916,17.811 14.877,17.915 C13.952,17.915 13.027,17.915 12.103,17.915 C11.902,17.474 11.700,17.034 11.500,16.593 C10.555,16.593 9.610,16.593 8.665,16.593 C8.039,17.772 8.526,17.974 6.614,17.915 ZM22.718,12.087 C24.266,12.087 25.814,12.087 27.362,12.087 C27.452,12.349 27.427,12.813 27.422,13.169 C26.849,13.464 25.009,13.295 24.165,13.289 C24.165,13.329 24.165,13.369 24.165,13.409 C24.060,13.568 24.098,13.992 24.105,14.250 C24.165,14.270 24.226,14.290 24.286,14.310 C24.844,14.507 26.545,14.228 27.302,14.370 C27.302,14.751 27.302,15.131 27.302,15.512 C26.277,15.512 25.251,15.512 24.226,15.512 C24.094,15.760 24.098,16.180 24.105,16.593 C24.679,16.888 26.519,16.720 27.362,16.713 C27.452,16.975 27.427,17.438 27.422,17.794 C27.374,17.856 27.401,17.811 27.362,17.915 C25.834,17.915 24.306,17.915 22.778,17.915 C22.778,17.895 22.778,17.875 22.778,17.855 C22.758,17.855 22.738,17.855 22.718,17.855 C22.718,15.933 22.718,14.010 22.718,12.087 ZM28.387,12.087 C30.519,12.048 34.922,11.497 33.936,14.250 C33.779,14.689 33.307,14.871 33.152,15.271 C33.172,15.271 33.192,15.271 33.213,15.271 C34.056,16.069 33.956,16.255 33.936,17.855 C33.612,17.964 33.033,17.919 32.610,17.915 C32.509,17.622 32.545,17.102 32.549,16.713 C32.459,16.574 32.426,16.258 32.368,16.112 C31.747,15.719 30.859,15.803 29.835,15.812 C29.662,16.324 29.770,17.231 29.775,17.855 C29.450,17.964 28.872,17.919 28.448,17.915 C28.292,17.445 28.387,16.630 28.387,16.053 C28.387,14.731 28.387,13.409 28.387,12.087 ZM34.841,12.087 C35.303,12.087 35.766,12.087 36.228,12.087 C36.228,12.128 36.228,12.168 36.228,12.208 C36.322,12.472 36.228,13.412 36.228,13.890 C36.228,15.231 36.228,16.573 36.228,17.915 C35.786,17.915 35.344,17.915 34.901,17.915 C34.746,17.445 34.841,16.630 34.841,16.053 C34.841,14.731 34.841,13.409 34.841,12.087 ZM41.174,12.087 C41.174,12.488 41.174,12.888 41.174,13.289 C41.134,13.289 41.094,13.289 41.053,13.289 C40.358,13.686 39.228,13.016 38.701,13.710 C38.212,14.355 38.235,16.144 38.942,16.533 C39.262,16.709 39.856,16.665 40.330,16.653 C40.860,15.666 41.327,14.498 41.777,13.469 C41.894,13.203 42.147,12.208 42.320,12.087 C43.024,12.087 43.727,12.087 44.431,12.087 C44.998,13.172 45.374,14.351 45.879,15.512 C46.137,16.106 46.537,16.720 46.723,17.374 C46.743,17.374 46.763,17.374 46.783,17.374 C46.783,17.354 46.783,17.334 46.783,17.314 C46.955,17.040 46.844,16.268 46.844,15.872 C46.844,14.611 46.844,13.349 46.844,12.087 C47.567,12.087 48.291,12.087 49.015,12.087 C49.135,12.561 49.505,12.920 49.739,13.289 C50.082,13.830 50.305,14.368 50.643,14.911 C50.853,15.248 51.169,15.589 51.307,15.992 C51.347,15.992 51.387,15.992 51.427,15.992 C51.427,14.691 51.427,13.389 51.427,12.087 C51.910,12.087 52.393,12.087 52.875,12.087 C52.875,14.010 52.875,15.933 52.875,17.855 C52.377,18.021 51.494,17.919 50.885,17.915 C50.088,16.493 49.075,15.188 48.351,13.710 C48.331,13.710 48.311,13.710 48.291,13.710 C48.291,13.729 48.291,13.749 48.291,13.769 C48.147,14.002 48.231,14.626 48.231,14.971 C48.231,15.920 48.329,17.070 48.171,17.915 C47.246,17.915 46.321,17.915 45.396,17.915 C45.237,17.601 45.046,16.812 44.733,16.653 C44.405,16.447 42.508,16.586 41.958,16.593 C41.886,16.718 41.386,17.898 41.355,17.915 C40.672,17.915 39.988,17.915 39.304,17.915 C39.186,17.844 39.004,17.905 38.822,17.855 C38.222,17.686 37.586,17.328 37.314,16.833 C37.141,16.519 37.036,16.055 36.952,15.692 C36.831,15.166 36.966,14.374 37.073,14.010 C37.638,12.081 38.701,12.049 41.174,12.087 ZM10.052,13.169 C9.887,13.523 9.112,15.085 9.207,15.332 C9.513,15.527 10.458,15.399 10.896,15.392 C10.929,15.301 10.937,15.290 10.957,15.151 C10.524,14.650 10.556,13.594 10.052,13.169 ZM44.250,15.392 C44.231,14.728 43.658,13.750 43.406,13.169 C43.365,13.189 43.325,13.209 43.285,13.229 C43.135,13.598 42.418,15.114 42.501,15.332 C42.817,15.533 43.799,15.399 44.250,15.392 ZM29.835,13.289 C29.735,13.581 29.770,14.101 29.775,14.491 C30.139,14.681 30.910,14.618 31.464,14.610 C31.840,14.396 32.206,14.632 32.368,14.190 C32.588,13.895 32.366,13.487 32.127,13.409 C31.744,13.115 30.452,13.280 29.835,13.289 ZM39.727,14.250 C39.887,14.250 40.048,14.250 40.209,14.250 C40.241,14.341 40.250,14.352 40.269,14.491 C39.988,14.826 40.020,15.617 39.485,15.692 C39.465,15.632 39.445,15.572 39.425,15.512 C39.271,15.284 39.371,14.612 39.425,14.370 C39.503,14.342 39.664,14.298 39.727,14.250 ZM33.394,26.565 C33.390,27.187 33.429,27.828 33.454,28.367 C33.593,28.479 33.671,28.693 33.816,28.788 C34.389,29.166 35.762,28.942 36.349,28.788 C36.495,28.559 36.692,28.376 36.771,28.067 C36.866,27.696 36.656,27.143 36.831,26.866 C36.961,26.779 37.272,26.799 37.495,26.805 C37.610,27.144 37.560,27.748 37.555,28.187 C37.645,28.285 37.596,28.356 37.676,28.487 C37.786,28.670 38.066,28.761 38.219,28.908 C38.685,28.930 39.369,29.092 39.908,28.968 C40.063,28.933 40.271,28.801 40.511,28.848 C41.890,29.120 44.380,29.125 45.758,28.848 C45.997,28.800 46.206,28.933 46.361,28.968 C47.266,28.968 48.171,28.968 49.075,28.968 C49.349,28.909 49.804,28.937 50.101,28.848 C50.478,28.735 50.829,28.483 51.186,28.367 C51.480,29.226 55.087,29.116 56.072,28.788 C57.220,28.406 58.453,27.067 57.881,25.244 C57.787,24.945 57.319,24.424 57.278,24.282 C57.208,24.039 57.584,23.856 57.640,23.682 C57.640,23.061 57.640,22.440 57.640,21.820 C57.567,21.602 57.324,21.357 57.097,21.279 C56.867,21.104 56.355,21.159 55.951,21.159 C54.941,21.159 53.634,21.008 52.815,21.279 C52.560,21.363 52.189,21.732 51.970,21.759 C51.879,21.771 51.427,21.227 51.186,21.159 C50.804,21.159 50.422,21.159 50.040,21.159 C49.181,21.159 48.079,21.016 47.326,21.218 C46.941,21.322 46.697,21.546 46.240,21.579 C45.779,20.892 43.093,21.159 41.898,21.159 C41.456,21.159 41.013,21.159 40.571,21.159 C40.287,21.251 40.129,21.536 39.847,21.639 C39.100,20.931 37.044,21.159 35.625,21.159 C35.143,21.159 34.660,21.159 34.178,21.159 C33.834,21.256 33.760,21.560 33.394,21.639 C32.450,20.859 29.926,21.159 28.267,21.159 C27.731,21.159 26.878,21.034 26.457,21.218 C25.868,21.477 25.690,22.395 25.010,22.540 C24.806,22.222 24.076,21.362 23.743,21.218 C23.305,21.031 22.428,21.159 21.874,21.159 C20.326,21.159 18.363,21.010 17.109,21.339 C16.682,22.002 16.747,22.636 16.747,23.742 C16.747,25.261 16.566,27.176 16.867,28.487 C17.046,28.607 17.199,28.833 17.410,28.908 C17.853,28.928 18.295,28.948 18.737,28.968 C19.762,28.968 20.788,28.968 21.813,28.968 C22.437,28.968 23.297,29.074 23.743,28.848 C24.165,28.408 24.588,27.967 25.010,27.526 C25.555,27.816 25.731,28.469 26.216,28.788 C26.655,29.077 29.640,29.080 30.076,28.788 C30.727,28.352 30.205,27.633 30.559,27.046 C30.749,26.922 31.287,26.978 31.584,26.986 C31.625,26.961 33.327,26.572 33.394,26.565 ZM17.772,22.120 C19.099,22.120 20.426,22.120 21.753,22.120 C22.176,22.120 23.025,21.996 23.321,22.180 C23.684,22.309 24.777,23.629 25.010,23.982 C25.116,23.944 25.068,23.971 25.130,23.922 C25.719,23.702 26.347,22.344 26.880,22.120 C28.528,22.120 30.177,22.120 31.825,22.120 C32.387,22.458 32.959,22.237 33.394,22.841 C33.518,23.014 33.653,23.339 33.695,23.561 C34.179,26.112 31.768,26.065 29.594,26.025 C29.437,26.489 29.529,27.314 29.533,27.887 C28.828,28.121 27.589,27.952 26.759,27.947 C26.513,27.566 25.410,26.225 25.010,26.085 C24.447,26.706 23.884,27.326 23.321,27.947 C21.472,27.947 19.622,27.947 17.772,27.947 C17.616,27.478 17.712,26.662 17.712,26.085 C17.712,24.803 17.712,23.521 17.712,22.240 C17.760,22.178 17.733,22.224 17.772,22.120 ZM34.419,22.120 C35.753,22.104 38.206,21.881 39.184,22.300 C39.588,22.473 39.692,22.846 39.968,23.141 C39.994,23.616 40.071,24.143 39.847,24.523 C39.668,24.827 39.272,24.989 39.184,25.364 C40.038,25.594 39.991,26.789 39.968,27.887 C39.628,28.002 39.021,27.952 38.581,27.947 C38.460,27.592 38.515,26.961 38.520,26.505 C38.472,26.434 38.474,26.404 38.460,26.265 C38.227,26.082 38.224,25.925 37.797,25.904 C37.438,25.677 36.309,25.836 35.806,25.844 C35.806,25.885 35.806,25.924 35.806,25.964 C35.540,26.393 35.897,27.539 35.746,27.887 C35.504,28.043 34.780,27.955 34.419,27.947 C34.277,27.526 34.359,26.790 34.359,26.265 C34.359,25.239 34.150,22.922 34.419,22.120 ZM45.456,23.321 C44.415,23.315 43.133,23.200 42.199,23.381 C42.199,23.702 42.199,24.022 42.199,24.343 C42.240,24.343 42.280,24.343 42.320,24.343 C42.675,24.565 44.800,24.409 45.396,24.402 C45.396,24.783 45.396,25.164 45.396,25.544 C44.594,25.811 43.192,25.609 42.260,25.604 C42.170,25.866 42.195,26.329 42.199,26.685 C42.918,26.924 44.519,26.750 45.396,26.746 C45.496,27.038 45.461,27.558 45.456,27.947 C43.908,27.947 42.360,27.947 40.812,27.947 C40.812,26.025 40.812,24.102 40.812,22.180 C41.172,22.061 41.799,22.120 42.260,22.120 C43.305,22.120 44.351,22.120 45.396,22.120 C45.496,22.412 45.461,22.932 45.456,23.321 ZM50.945,22.120 C50.945,22.520 50.945,22.921 50.945,23.321 C50.191,23.572 48.871,23.386 47.990,23.381 C47.908,23.457 47.883,23.464 47.748,23.502 C47.690,23.700 47.637,23.749 47.628,24.042 C47.676,24.103 47.649,24.059 47.688,24.162 C48.672,24.690 50.544,24.130 51.066,25.123 C51.165,25.313 51.224,25.624 51.247,25.844 C51.506,28.413 48.682,27.988 46.361,27.947 C46.271,27.685 46.296,27.222 46.301,26.866 C46.349,26.804 46.322,26.849 46.361,26.746 C46.401,26.746 46.442,26.746 46.482,26.746 C47.464,26.173 49.840,27.548 49.739,25.904 C48.489,25.222 46.841,26.070 46.240,24.583 C46.092,24.214 46.191,23.546 46.301,23.261 C46.878,21.756 48.911,22.083 50.945,22.120 ZM53.478,22.120 C54.544,22.120 55.609,22.120 56.675,22.120 C56.770,22.397 56.740,22.889 56.735,23.261 C56.687,23.323 56.714,23.278 56.675,23.381 C55.690,23.381 54.705,23.381 53.719,23.381 C53.637,23.457 53.613,23.464 53.478,23.502 C53.420,23.700 53.367,23.749 53.358,24.042 C53.406,24.103 53.379,24.059 53.418,24.162 C54.434,24.703 56.401,24.072 56.795,25.244 C57.061,25.574 57.006,26.409 56.856,26.805 C56.298,28.275 54.106,27.983 52.091,27.947 C52.071,27.887 52.051,27.827 52.031,27.767 C52.241,27.403 51.891,26.941 52.212,26.746 C53.208,26.170 55.802,27.565 55.408,25.844 C54.607,25.497 53.197,25.763 52.513,25.304 C51.705,24.762 51.744,23.030 52.513,22.480 C52.784,22.287 53.179,22.305 53.478,22.120 ZM28.026,22.841 C27.607,23.465 26.125,24.459 26.035,25.184 C26.462,25.465 26.813,25.979 27.121,26.385 C27.380,26.727 27.781,26.977 28.026,27.346 C28.046,27.346 28.066,27.346 28.086,27.346 C28.086,27.326 28.086,27.306 28.086,27.286 C28.207,27.100 28.146,26.614 28.146,26.325 C28.146,25.504 28.146,24.683 28.146,23.862 C28.146,23.507 28.214,23.016 28.026,22.841 ZM22.175,24.402 C22.175,24.783 22.175,25.164 22.175,25.544 C21.405,25.800 20.058,25.609 19.159,25.604 C19.075,25.851 19.095,26.286 19.099,26.625 C19.148,26.687 19.120,26.642 19.159,26.746 C20.305,26.746 21.451,26.746 22.597,26.746 C22.960,26.204 23.976,25.581 24.105,24.943 C23.603,24.403 23.100,23.862 22.597,23.321 C21.472,23.321 20.345,23.321 19.220,23.321 C19.099,23.548 19.092,23.896 19.099,24.282 C19.746,24.616 21.295,24.410 22.175,24.402 ZM29.654,23.321 C29.463,23.603 29.523,24.293 29.533,24.763 C30.047,24.935 30.958,24.828 31.584,24.823 C31.668,24.757 31.757,24.733 31.886,24.703 C32.193,24.258 32.234,24.176 32.067,23.561 C31.484,23.290 30.557,23.317 29.654,23.321 ZM35.866,23.321 C35.723,23.591 35.738,24.082 35.746,24.523 C35.794,24.584 35.767,24.539 35.806,24.643 C36.510,24.643 37.213,24.643 37.917,24.643 C38.001,24.576 38.090,24.553 38.219,24.523 C38.284,24.417 38.370,24.306 38.460,24.222 C38.479,23.005 37.029,23.288 35.866,23.321 Z"/>
</svg>