<svg xmlns="http://www.w3.org/2000/svg" xmlns:xlink="http://www.w3.org/1999/xlink" width="62px" height="41px">
    <path fill="#000000"
        d="M1.581,0.073 C16.216,0.073 30.855,0.073 45.490,0.073 C49.269,0.073 53.050,0.073 56.829,0.073 C58.260,0.073 60.490,-0.202 61.352,0.433 C62.233,1.081 61.895,4.669 61.895,6.260 C61.895,11.947 61.895,17.635 61.895,23.321 C61.895,27.065 61.895,30.811 61.895,34.555 C61.895,35.531 62.089,38.458 61.775,39.061 C61.207,40.148 59.630,39.962 57.975,39.962 C54.678,39.962 51.380,39.962 48.083,39.962 C36.504,39.962 24.921,39.962 13.342,39.962 C10.367,39.962 7.391,39.962 4.416,39.962 C3.145,39.962 1.425,40.152 0.676,39.601 C-0.184,38.968 0.133,35.845 0.133,34.315 C0.133,29.169 0.133,24.021 0.133,18.876 C0.133,14.591 0.133,10.305 0.133,6.020 C0.133,4.418 0.133,2.816 0.133,1.214 C0.282,0.823 0.710,0.355 1.098,0.193 C1.261,0.125 1.453,0.158 1.581,0.073 ZM32.100,14.491 C31.756,14.699 31.200,14.636 30.833,14.791 C29.918,15.177 29.101,16.029 28.722,16.953 C27.760,19.305 29.363,21.326 31.014,21.940 C31.439,22.098 32.341,22.360 33.065,22.180 C34.505,21.822 35.510,20.935 36.020,19.657 C37.122,16.898 34.568,14.498 32.100,14.491 ZM27.999,20.197 C27.454,20.312 27.123,20.724 26.491,20.858 C25.139,21.144 23.550,19.505 23.837,18.155 C24.097,16.934 25.142,15.324 26.913,15.932 C27.316,16.071 27.584,16.440 27.999,16.533 C27.999,16.033 27.999,15.532 27.999,15.031 C25.412,13.511 21.628,15.996 22.450,19.116 C22.915,20.880 23.903,21.648 25.767,22.059 C26.119,22.138 26.761,22.182 27.154,22.059 C27.390,21.986 27.659,21.828 27.938,21.759 C28.069,21.374 28.003,20.686 27.999,20.197 ZM19.132,14.610 C18.631,14.960 18.195,14.878 17.745,15.392 C17.615,15.540 17.450,15.867 17.383,16.053 C17.283,16.334 17.317,16.813 17.383,17.074 C17.605,17.940 18.034,18.259 18.770,18.576 C19.451,18.868 20.392,18.878 20.459,19.777 C20.500,19.856 20.487,20.079 20.399,20.197 C20.295,20.532 20.070,20.586 19.856,20.798 C19.188,20.854 18.631,20.796 18.228,20.438 C18.034,20.266 18.023,20.064 17.745,19.957 C17.517,20.289 17.079,20.428 17.021,20.918 C17.543,21.327 17.840,21.847 18.590,22.059 C20.314,22.550 22.344,21.232 21.967,19.536 C21.752,18.568 21.300,18.119 20.520,17.735 C19.992,17.474 19.110,17.448 18.891,16.894 C18.778,16.771 18.770,16.663 18.770,16.413 C18.931,16.240 18.934,16.083 19.193,15.992 C19.831,15.395 20.556,16.217 21.063,16.292 C21.255,15.975 21.555,15.783 21.605,15.332 C20.890,14.882 20.375,14.612 19.132,14.610 ZM53.512,15.392 C53.669,15.401 53.716,15.417 53.813,15.451 C53.813,15.642 53.727,15.564 53.934,15.632 C54.093,15.396 54.178,15.355 54.175,14.911 C54.047,14.829 53.956,14.737 53.873,14.610 C53.853,14.610 53.833,14.610 53.813,14.610 C53.813,14.631 53.813,14.651 53.813,14.671 C53.793,14.671 53.773,14.671 53.753,14.671 C53.753,14.691 53.753,14.711 53.753,14.731 C53.974,14.773 53.918,14.728 53.994,14.911 C54.063,15.012 54.058,15.205 54.054,15.392 C54.034,15.392 54.014,15.392 53.994,15.392 C53.994,15.412 53.994,15.431 53.994,15.451 C53.888,15.414 53.935,15.440 53.873,15.392 C53.658,15.017 53.894,14.723 53.331,14.671 C53.288,14.812 53.269,14.805 53.210,14.911 C53.347,14.887 53.275,14.856 53.391,14.911 C53.460,15.012 53.455,15.205 53.451,15.392 C53.291,15.463 53.343,15.338 53.270,15.512 C53.396,15.579 53.381,15.598 53.572,15.632 C53.572,15.612 53.572,15.592 53.572,15.572 C53.527,15.508 53.536,15.515 53.512,15.392 ZM8.397,14.731 C8.204,15.312 8.336,16.317 8.336,17.014 C8.336,18.635 8.336,20.258 8.336,21.879 C9.090,22.130 10.410,21.945 11.292,21.940 C11.514,21.789 11.875,21.811 12.136,21.699 C12.854,21.390 13.494,20.776 13.885,20.137 C14.094,19.796 14.213,19.294 14.307,18.876 C14.506,17.996 14.137,17.133 13.885,16.653 C12.939,14.850 11.212,14.701 8.397,14.731 ZM15.031,14.731 C14.898,15.428 14.971,16.396 14.971,17.194 C14.971,18.756 14.971,20.318 14.971,21.879 C15.311,21.995 15.917,21.944 16.358,21.940 C16.551,21.358 16.418,20.353 16.418,19.657 C16.418,18.055 16.418,16.452 16.418,14.851 C16.370,14.790 16.397,14.834 16.358,14.731 C15.916,14.731 15.473,14.731 15.031,14.731 ZM35.839,14.731 C35.874,15.417 36.332,15.993 36.563,16.533 C37.158,17.918 37.682,19.285 38.252,20.618 C38.552,21.320 38.457,22.203 39.519,22.180 C40.528,20.487 41.107,18.376 41.991,16.593 C42.110,16.355 42.672,14.810 42.655,14.791 C42.392,14.622 41.594,14.723 41.207,14.731 C40.769,15.904 40.248,17.095 39.760,18.215 C39.600,18.583 39.562,19.304 39.157,19.417 C38.934,18.320 38.145,16.834 37.709,15.812 C37.618,15.599 37.436,14.810 37.287,14.731 C36.805,14.731 36.322,14.731 35.839,14.731 ZM43.379,21.940 C44.706,21.940 46.033,21.940 47.359,21.940 C47.449,21.678 47.424,21.214 47.420,20.858 C46.873,20.575 45.592,20.731 44.826,20.738 C44.826,20.698 44.826,20.658 44.826,20.618 C44.618,20.302 44.753,19.161 44.826,18.816 C44.866,18.816 44.907,18.816 44.947,18.816 C45.231,18.636 46.764,18.749 47.239,18.756 C47.334,18.479 47.304,17.987 47.299,17.614 C47.259,17.614 47.219,17.614 47.179,17.614 C46.889,17.431 45.311,17.547 44.826,17.554 C44.826,17.514 44.826,17.474 44.826,17.434 C44.663,17.183 44.758,16.425 44.766,16.053 C45.313,15.769 46.593,15.925 47.359,15.932 C47.449,15.671 47.424,15.207 47.420,14.851 C47.371,14.790 47.398,14.834 47.359,14.731 C46.053,14.731 44.746,14.731 43.439,14.731 C43.439,14.751 43.439,14.771 43.439,14.791 C43.419,14.791 43.399,14.791 43.379,14.791 C43.379,17.174 43.379,19.557 43.379,21.940 ZM48.385,14.731 C48.131,16.958 48.324,19.543 48.325,21.879 C48.680,22.000 49.315,21.944 49.772,21.940 C49.764,21.082 49.586,19.788 49.832,19.056 C49.873,19.056 49.913,19.056 49.953,19.056 C50.596,20.017 51.240,20.979 51.883,21.940 C52.446,21.940 53.009,21.940 53.572,21.940 C53.572,21.899 53.572,21.859 53.572,21.820 C53.016,21.389 52.660,20.593 52.245,20.017 C51.989,19.663 51.527,19.412 51.461,18.876 C52.879,18.686 53.490,16.718 52.607,15.512 C51.920,14.574 50.037,14.698 48.385,14.731 ZM49.832,15.872 C50.772,15.827 52.168,16.401 51.461,17.374 C51.309,17.968 50.459,18.182 49.772,18.035 C49.764,17.380 49.649,16.413 49.832,15.872 ZM9.784,20.738 C9.784,19.156 9.784,17.574 9.784,15.992 C9.907,15.950 10.066,15.933 10.266,15.932 C10.503,16.071 10.946,15.966 11.231,16.053 C11.688,16.191 12.186,16.544 12.438,16.894 C13.306,18.099 12.701,19.959 11.653,20.498 C11.183,20.740 10.479,20.751 9.784,20.738 ZM60.568,25.123 C60.100,25.574 59.453,25.794 58.880,26.145 C57.969,26.701 56.999,27.308 56.045,27.827 C55.402,28.176 54.757,28.379 54.115,28.728 C49.438,31.267 44.115,32.988 38.795,34.915 C37.237,35.479 35.571,35.800 34.030,36.297 C31.567,37.092 28.900,37.424 26.370,38.099 C25.546,38.319 23.285,38.436 22.751,38.820 C22.771,38.820 22.791,38.820 22.812,38.820 C23.166,39.038 25.068,38.880 25.646,38.880 C28.119,38.880 30.592,38.880 33.065,38.880 C42.272,38.880 51.482,38.880 60.689,38.880 C60.709,38.820 60.729,38.760 60.749,38.700 C60.881,38.489 60.810,37.938 60.810,37.619 C60.810,36.758 60.810,35.897 60.810,35.036 C60.810,31.752 60.810,28.467 60.810,25.184 C60.789,25.184 60.769,25.184 60.749,25.184 C60.749,25.164 60.749,25.143 60.749,25.123 C60.689,25.123 60.629,25.123 60.568,25.123 Z"/>
</svg>