<svg xmlns="http://www.w3.org/2000/svg" xmlns:xlink="http://www.w3.org/1999/xlink" width="62px" height="41px">
    <path fill="#000000"
        d="M1.506,0.073 C16.141,0.073 30.780,0.073 45.415,0.073 C49.194,0.073 52.975,0.073 56.754,0.073 C58.185,0.073 60.415,-0.202 61.278,0.433 C62.158,1.081 61.820,4.669 61.820,6.260 C61.820,11.947 61.820,17.635 61.820,23.321 C61.820,27.065 61.820,30.811 61.820,34.555 C61.820,35.531 62.014,38.458 61.700,39.061 C61.133,40.148 59.555,39.962 57.900,39.962 C54.603,39.962 51.305,39.962 48.008,39.962 C36.429,39.962 24.847,39.962 13.267,39.962 C10.292,39.962 7.316,39.962 4.341,39.962 C3.070,39.962 1.350,40.152 0.601,39.601 C-0.259,38.968 0.059,35.845 0.059,34.315 C0.059,29.169 0.059,24.021 0.059,18.876 C0.059,14.591 0.059,10.305 0.059,6.020 C0.059,4.418 0.059,2.816 0.059,1.214 C0.207,0.823 0.635,0.355 1.024,0.193 C1.186,0.125 1.378,0.158 1.506,0.073 ZM20.023,4.218 C19.725,4.392 19.149,4.186 18.756,4.278 C17.723,4.518 16.637,4.561 15.680,4.879 C12.766,5.846 9.668,7.777 8.020,9.985 C6.819,11.593 5.887,13.318 5.125,15.392 C4.302,17.632 4.253,21.357 4.944,23.742 C6.472,29.012 9.452,32.564 14.172,34.615 C15.555,35.216 17.100,35.370 18.756,35.756 C19.098,35.756 19.440,35.756 19.781,35.756 C20.527,35.771 21.547,35.806 22.254,35.636 C22.925,35.475 23.438,35.577 24.064,35.396 C25.651,34.936 27.179,34.381 28.467,33.594 C29.014,33.260 30.568,31.854 31.060,31.792 C31.575,32.525 32.575,32.994 33.352,33.474 C34.832,34.388 36.439,34.976 38.358,35.516 C38.895,35.667 39.488,35.640 39.987,35.756 C40.369,35.756 40.751,35.756 41.133,35.756 C41.803,35.901 42.971,35.788 43.605,35.636 C44.245,35.484 44.757,35.572 45.355,35.396 C51.036,33.731 54.588,30.362 56.573,25.003 C57.043,23.735 57.784,20.788 57.357,18.936 C57.357,18.695 57.357,18.455 57.357,18.215 C56.981,16.615 56.809,15.035 56.151,13.710 C54.164,9.709 51.465,7.073 47.224,5.299 C45.371,4.524 42.144,3.788 39.564,4.398 C39.162,4.438 38.760,4.478 38.358,4.518 C36.393,5.072 34.649,5.655 33.111,6.621 C32.607,6.937 31.321,8.179 30.819,8.243 C30.310,7.510 29.300,7.038 28.527,6.561 C26.286,5.177 23.641,4.251 20.023,4.218 ZM28.467,11.607 C28.510,11.278 29.302,10.082 29.552,9.985 C29.858,9.789 32.167,9.904 32.568,9.985 C32.701,10.238 33.705,11.420 33.593,11.547 C33.318,11.718 32.543,11.607 32.146,11.607 C30.920,11.607 29.693,11.607 28.467,11.607 ZM26.657,14.971 C26.678,14.711 27.311,13.352 27.441,13.289 C29.834,13.289 32.226,13.289 34.619,13.289 C34.872,13.742 35.189,14.340 35.282,14.911 C34.586,15.140 33.387,14.971 32.568,14.971 C30.598,14.971 28.627,14.971 26.657,14.971 ZM12.785,16.173 C13.710,16.173 14.635,16.173 15.559,16.173 C15.579,16.233 15.600,16.292 15.620,16.353 C15.772,16.601 15.675,17.253 15.680,17.614 C15.689,18.340 15.587,20.030 15.801,20.678 C15.841,20.658 15.881,20.638 15.921,20.618 C16.356,19.492 16.956,18.395 17.429,17.314 C17.558,17.019 17.641,16.305 17.912,16.173 C18.897,16.173 19.882,16.173 20.867,16.173 C20.867,16.193 20.867,16.213 20.867,16.233 C20.887,16.233 20.907,16.233 20.927,16.233 C20.425,18.736 19.922,21.239 19.419,23.742 C19.093,23.950 18.074,23.810 17.610,23.802 C17.590,23.742 17.570,23.682 17.550,23.622 C17.769,23.297 17.675,22.795 17.791,22.360 C18.101,21.196 18.503,19.662 18.575,18.395 C18.555,18.395 18.535,18.395 18.515,18.395 C18.515,18.416 18.515,18.435 18.515,18.455 C18.204,18.802 18.113,19.319 17.912,19.777 C17.544,20.610 17.072,21.529 16.705,22.360 C16.592,22.617 16.266,23.693 16.102,23.802 C15.559,23.802 15.016,23.802 14.474,23.802 C14.474,23.782 14.474,23.762 14.474,23.742 C14.454,23.742 14.434,23.742 14.413,23.742 C14.298,22.623 14.407,21.280 14.172,20.197 C14.039,19.586 14.222,18.956 14.052,18.455 C14.003,18.517 14.030,18.472 13.991,18.576 C13.716,19.015 13.833,19.702 13.690,20.258 C13.418,21.308 13.090,22.528 13.026,23.682 C12.662,23.872 11.891,23.809 11.337,23.802 C11.305,23.711 11.297,23.700 11.277,23.561 C11.600,23.077 11.475,22.269 11.639,21.639 C11.946,20.461 12.122,19.093 12.423,17.915 C12.580,17.299 12.554,16.680 12.785,16.173 ZM41.193,17.614 C41.190,18.146 41.055,18.648 40.952,19.116 C40.628,19.109 40.217,19.096 39.987,19.176 C39.925,20.224 39.525,21.031 39.504,22.180 C39.626,22.248 39.786,22.380 39.926,22.420 C40.175,22.491 40.417,22.370 40.529,22.420 C40.587,22.505 40.588,22.617 40.590,22.781 C40.443,23.010 40.512,23.471 40.349,23.682 C40.116,23.871 39.880,23.780 39.504,23.862 C38.542,24.071 37.779,23.704 37.574,22.961 C37.425,22.422 37.661,21.761 37.755,21.399 C38.064,20.203 38.125,18.979 38.418,17.855 C38.558,17.318 38.437,16.634 38.720,16.233 C39.036,16.031 40.018,16.164 40.469,16.173 C40.501,16.264 40.510,16.274 40.529,16.413 C40.350,16.677 40.316,17.353 40.349,17.614 C40.630,17.614 40.911,17.614 41.193,17.614 ZM48.310,17.434 C49.873,17.404 51.044,17.890 51.507,18.936 C52.295,20.720 51.301,22.819 50.180,23.502 C49.772,23.750 49.405,23.734 48.853,23.862 C48.568,23.928 48.072,24.080 47.647,23.982 C46.914,23.814 46.104,23.650 45.717,23.141 C44.837,21.983 44.944,19.896 45.777,18.756 C46.125,18.278 46.804,17.830 47.405,17.614 C47.692,17.511 48.067,17.582 48.310,17.434 ZM25.511,23.802 C25.009,23.802 24.506,23.802 24.003,23.802 C24.007,23.588 23.990,23.395 23.943,23.261 C23.613,23.465 23.270,23.740 22.857,23.862 C21.343,24.310 19.894,23.089 20.384,21.579 C20.774,20.377 21.761,20.121 23.099,19.837 C23.583,19.734 24.061,19.897 24.426,19.837 C24.426,19.737 24.426,19.637 24.426,19.536 C24.906,18.423 21.550,19.194 21.350,19.116 C21.301,19.045 21.303,19.015 21.289,18.876 C21.432,18.677 21.462,18.224 21.470,17.915 C21.871,17.681 22.513,17.610 23.038,17.494 C23.418,17.411 24.080,17.487 24.365,17.554 C25.122,17.734 25.744,17.804 26.054,18.395 C26.303,18.870 26.245,19.655 26.114,20.197 C25.913,21.399 25.712,22.600 25.511,23.802 ZM29.251,17.494 C31.132,17.454 32.049,17.937 32.387,19.417 C32.523,20.013 32.253,20.582 32.206,21.099 C31.577,21.422 29.448,21.225 28.527,21.218 C28.444,21.371 28.411,21.429 28.406,21.699 C28.473,21.783 28.496,21.872 28.527,22.000 C29.753,22.817 30.507,22.386 31.905,22.180 C31.905,22.200 31.905,22.220 31.905,22.240 C31.925,22.240 31.945,22.240 31.965,22.240 C31.864,22.720 31.764,23.201 31.663,23.682 C31.623,23.682 31.583,23.682 31.543,23.682 C31.123,23.962 29.870,23.984 29.311,23.862 C28.817,23.754 28.499,23.846 28.105,23.682 C27.185,23.299 26.207,22.067 26.597,20.438 C26.842,19.414 27.275,18.475 28.044,17.975 C28.396,17.746 28.893,17.736 29.251,17.494 ZM37.453,17.614 C37.373,18.075 37.293,18.535 37.212,18.996 C36.452,18.988 35.748,18.921 35.101,19.056 C34.987,19.250 34.926,19.318 34.920,19.657 C35.493,19.997 36.469,20.259 36.850,20.798 C37.039,21.065 37.143,21.624 37.092,21.940 C36.695,24.374 34.705,23.889 32.266,23.742 C32.271,23.198 32.439,22.785 32.508,22.300 C33.301,22.383 35.235,23.035 35.282,21.820 C34.671,21.405 33.565,21.069 33.171,20.438 C33.018,20.193 32.941,19.738 32.990,19.477 C32.990,19.296 32.990,19.116 32.990,18.936 C33.498,17.360 35.547,17.452 37.453,17.614 ZM43.786,17.614 C43.766,17.875 43.746,18.135 43.726,18.395 C43.746,18.395 43.766,18.395 43.786,18.395 C44.119,17.880 44.669,17.547 45.535,17.554 C45.615,17.621 45.748,17.685 45.837,17.735 C45.622,18.296 45.406,18.927 45.113,19.417 C43.393,19.101 43.330,21.605 43.002,22.901 C42.918,23.236 42.986,23.509 42.821,23.742 C42.506,23.944 41.524,23.810 41.072,23.802 C41.039,23.705 41.024,23.658 41.012,23.502 C41.394,21.539 41.776,19.577 42.158,17.614 C42.701,17.614 43.244,17.614 43.786,17.614 ZM29.552,18.876 C29.120,19.207 28.742,19.277 28.648,19.957 C29.146,20.124 30.029,20.022 30.638,20.017 C30.685,19.882 30.699,19.691 30.698,19.477 C30.378,19.061 30.335,18.860 29.552,18.876 ZM48.551,18.936 C48.499,18.975 48.362,19.016 48.310,19.056 C47.143,19.358 47.099,20.950 47.405,22.059 C47.555,22.153 47.761,22.295 47.888,22.420 C49.588,22.456 49.858,20.983 49.637,19.477 C49.292,19.206 49.188,18.958 48.551,18.936 ZM23.159,21.038 C22.938,21.119 22.717,21.199 22.496,21.279 C22.395,21.399 22.294,21.519 22.194,21.639 C22.175,21.947 22.174,21.993 22.194,22.300 C22.319,22.377 22.333,22.425 22.496,22.480 C22.681,22.635 23.084,22.632 23.280,22.480 C23.801,22.325 24.130,21.787 24.124,21.099 C23.891,21.019 23.484,21.034 23.159,21.038 ZM51.808,22.841 C51.966,22.851 52.013,22.867 52.110,22.901 C52.110,22.921 52.110,22.941 52.110,22.961 C51.969,22.961 51.828,22.961 51.688,22.961 C51.688,22.941 51.688,22.921 51.688,22.901 C51.793,22.863 51.746,22.889 51.808,22.841 ZM51.627,22.961 C51.672,23.095 51.523,23.281 51.567,23.561 C51.547,23.561 51.527,23.561 51.507,23.561 C51.507,23.542 51.507,23.522 51.507,23.502 C51.348,23.269 51.530,23.109 51.627,22.961 ZM52.110,22.961 C52.482,23.084 52.430,23.490 52.170,23.682 C52.005,23.820 51.793,23.817 51.627,23.682 C51.579,23.621 51.606,23.665 51.567,23.561 C51.607,23.561 51.647,23.561 51.688,23.561 C51.944,23.825 52.231,23.595 52.230,23.201 C52.154,23.120 52.148,23.095 52.110,22.961 ZM51.808,23.141 C51.933,23.163 51.924,23.156 51.989,23.201 C52.038,23.272 52.036,23.302 52.049,23.441 C52.029,23.441 52.009,23.441 51.989,23.441 C51.989,23.461 51.989,23.482 51.989,23.502 C51.949,23.482 51.909,23.461 51.869,23.441 C51.835,23.345 51.820,23.297 51.808,23.141 ZM27.260,26.685 C29.713,26.685 32.166,26.685 34.619,26.685 C34.575,27.052 33.973,28.183 33.714,28.307 C33.418,28.492 32.569,28.367 32.146,28.367 C30.819,28.367 29.492,28.367 28.165,28.367 C27.855,27.868 27.371,27.356 27.260,26.685 ZM55.729,28.247 C55.596,28.373 55.506,28.350 55.427,28.548 C55.264,28.758 55.361,28.889 55.427,29.148 C55.640,29.211 55.761,29.267 56.090,29.269 C56.287,28.985 56.459,28.623 56.090,28.367 C55.989,28.287 55.901,28.269 55.729,28.247 ZM55.668,28.908 C55.678,28.751 55.694,28.704 55.729,28.608 C55.874,28.630 55.821,28.645 55.970,28.608 C55.970,28.688 55.970,28.768 55.970,28.848 C55.930,28.848 55.890,28.848 55.849,28.848 C55.785,28.893 55.792,28.884 55.668,28.908 ZM29.432,29.989 C30.344,29.981 31.725,29.789 32.508,30.049 C32.264,30.470 31.333,31.579 30.819,31.671 C30.516,31.043 29.589,30.758 29.432,29.989 Z"/>
</svg>