<svg xmlns="http://www.w3.org/2000/svg" xmlns:xlink="http://www.w3.org/1999/xlink" width="62px" height="40px">
    <path fill-rule="evenodd"  fill="#000000"
        d="M1.311,0.048 C16.006,0.048 30.706,0.048 45.401,0.048 C49.200,0.048 53.001,0.048 56.800,0.048 C58.235,0.048 60.462,-0.226 61.324,0.408 C62.204,1.057 61.866,4.700 61.866,6.296 C61.866,12.062 61.866,17.830 61.866,23.597 C61.866,27.241 61.866,30.886 61.866,34.530 C61.866,35.551 62.068,38.372 61.746,39.035 C61.084,40.400 57.567,39.937 55.534,39.937 C49.322,39.937 43.108,39.937 36.896,39.937 C28.353,39.937 19.806,39.937 11.263,39.937 C8.871,39.937 6.478,39.937 4.085,39.937 C3.177,39.937 1.694,40.146 1.009,39.817 C0.042,39.351 0.105,38.261 0.105,36.813 C0.105,34.730 0.105,32.648 0.105,30.565 C0.105,23.377 0.105,16.187 0.105,8.999 C0.105,6.416 0.105,3.832 0.105,1.249 C0.357,0.442 0.895,0.507 1.311,0.048 ZM19.888,4.193 C19.618,4.351 19.103,4.169 18.742,4.253 C17.728,4.489 16.661,4.513 15.726,4.853 C12.264,6.115 9.412,7.985 7.463,10.741 C6.526,12.065 5.742,13.647 5.171,15.306 C4.850,16.238 4.804,17.261 4.568,18.250 C4.568,18.550 4.568,18.851 4.568,19.151 C4.213,20.778 4.763,23.195 5.171,24.378 C5.376,24.972 5.416,25.456 5.654,25.999 C7.340,29.859 10.228,32.848 14.098,34.530 C15.490,35.135 17.023,35.339 18.681,35.732 C19.063,35.732 19.445,35.732 19.827,35.732 C20.582,35.840 21.671,35.777 22.361,35.611 C23.011,35.455 23.506,35.547 24.110,35.371 C25.683,34.913 27.239,34.358 28.513,33.569 C29.044,33.239 30.624,31.828 31.106,31.766 C31.612,32.500 32.627,32.971 33.398,33.449 C35.547,34.780 39.931,36.504 43.652,35.611 C44.302,35.455 44.797,35.548 45.401,35.371 C51.170,33.680 54.683,30.263 56.679,24.798 C57.138,23.544 57.812,20.870 57.403,19.091 C57.403,18.791 57.403,18.490 57.403,18.190 C57.106,16.943 56.984,15.704 56.559,14.586 C54.842,10.070 51.768,7.231 47.391,5.334 C45.264,4.412 41.307,3.708 38.404,4.493 C36.441,5.024 34.684,5.637 33.157,6.596 C32.660,6.908 31.359,8.155 30.865,8.218 C30.427,7.587 29.596,7.192 28.935,6.776 C26.531,5.263 23.849,4.208 19.888,4.193 ZM33.700,11.582 C31.951,11.582 30.201,11.582 28.452,11.582 C28.452,11.542 28.452,11.502 28.452,11.462 C28.810,11.174 29.212,10.055 29.538,9.900 C30.543,9.900 31.549,9.900 32.554,9.900 C32.876,10.440 33.561,10.911 33.700,11.582 ZM35.328,14.946 C32.433,14.946 29.538,14.946 26.643,14.946 C26.643,14.906 26.643,14.866 26.643,14.826 C26.887,14.562 27.253,13.380 27.487,13.264 C29.900,13.264 32.313,13.264 34.725,13.264 C34.869,13.856 35.258,14.288 35.328,14.946 ZM40.998,17.950 C39.954,17.770 39.255,17.196 38.223,17.950 C37.390,18.558 36.712,21.275 37.801,22.155 C38.644,22.836 39.404,22.302 40.274,22.155 C40.286,22.666 40.217,23.570 39.972,23.897 C39.972,23.917 39.972,23.937 39.972,23.957 C38.758,24.069 37.631,24.315 36.715,23.657 C34.988,22.414 35.383,18.774 36.534,17.229 C37.103,16.465 38.406,15.561 39.852,15.907 C40.462,16.054 41.217,15.881 41.239,16.628 C41.057,16.884 41.011,17.581 40.998,17.950 ZM11.323,16.027 C12.133,16.019 13.351,15.857 14.037,16.088 C13.595,18.710 13.153,21.334 12.710,23.957 C12.292,24.098 11.546,24.022 11.022,24.017 C10.983,23.912 11.010,23.959 10.961,23.897 C11.205,23.204 11.131,22.390 11.323,21.614 C11.559,20.659 11.786,19.577 11.806,18.491 C11.785,18.491 11.765,18.491 11.745,18.491 C11.745,18.510 11.745,18.530 11.745,18.550 C11.082,20.372 10.418,22.195 9.755,24.017 C9.393,24.017 9.031,24.017 8.669,24.017 C8.609,23.843 8.605,23.556 8.609,23.296 C8.438,23.020 8.549,22.252 8.549,21.855 C8.549,20.732 8.622,19.516 8.428,18.491 C8.380,18.552 8.407,18.507 8.368,18.611 C8.181,18.919 8.286,19.352 8.187,19.752 C7.944,20.727 7.824,21.900 7.584,22.876 C7.489,23.261 7.592,23.675 7.403,23.957 C7.119,24.139 6.247,24.025 5.835,24.017 C5.837,23.379 6.004,22.751 6.136,22.215 C6.432,21.016 6.455,19.792 6.739,18.671 C6.920,17.957 6.813,16.610 7.161,16.088 C7.456,15.901 9.080,16.021 9.574,16.027 C9.830,16.795 9.639,18.518 9.634,19.452 C9.778,19.672 9.703,20.319 9.695,20.653 C9.715,20.653 9.735,20.653 9.755,20.653 C9.755,20.633 9.755,20.613 9.755,20.593 C9.775,20.593 9.795,20.593 9.815,20.593 C10.146,19.658 10.363,18.727 10.720,17.770 C10.922,17.228 11.225,16.659 11.323,16.027 ZM54.026,16.027 C54.548,16.020 55.298,15.947 55.714,16.088 C55.506,17.161 55.370,18.400 55.111,19.452 C55.071,19.852 55.031,20.252 54.991,20.653 C54.746,21.653 54.541,22.802 54.448,23.897 C54.107,24.075 53.405,24.025 52.880,24.017 C52.880,23.997 52.880,23.977 52.880,23.957 C52.859,23.957 52.839,23.957 52.819,23.957 C52.827,23.715 52.852,23.629 52.699,23.537 C52.361,23.904 51.380,24.342 50.588,24.017 C49.738,23.669 48.815,22.124 49.200,20.593 C49.536,19.260 49.982,18.351 51.010,17.709 C51.336,17.506 52.062,17.230 52.638,17.469 C53.024,17.630 53.277,18.044 53.664,18.190 C53.784,17.469 53.905,16.748 54.026,16.027 ZM26.040,22.515 C26.043,22.889 25.989,23.659 25.799,23.897 C25.196,24.397 23.659,24.174 23.446,23.537 C23.262,23.315 23.156,22.561 23.265,22.095 C23.567,20.805 23.671,19.322 23.989,18.070 C24.125,17.536 23.999,16.933 24.291,16.568 C24.575,16.386 25.446,16.500 25.859,16.508 C25.891,16.599 25.900,16.609 25.919,16.748 C25.798,16.913 25.794,17.176 25.799,17.469 C25.819,17.469 25.839,17.469 25.859,17.469 C25.859,17.489 25.859,17.509 25.859,17.529 C26.080,17.521 26.394,17.503 26.522,17.589 C26.568,17.654 26.559,17.646 26.583,17.770 C26.384,18.097 26.549,18.713 26.341,19.031 C26.157,19.142 25.680,19.037 25.497,19.151 C25.477,19.151 25.457,19.151 25.437,19.151 C25.426,20.272 24.879,21.315 25.075,22.395 C25.135,22.415 25.195,22.435 25.256,22.455 C25.405,22.554 25.793,22.523 26.040,22.515 ZM15.907,17.349 C16.989,17.327 17.940,17.398 18.440,17.950 C19.423,19.033 18.331,22.327 18.259,23.897 C17.942,24.064 17.309,24.025 16.812,24.017 C16.812,23.997 16.812,23.977 16.812,23.957 C16.792,23.957 16.771,23.957 16.751,23.957 C16.763,23.708 16.788,23.571 16.631,23.476 C15.753,24.819 12.923,24.075 13.434,21.915 C13.841,20.195 15.106,19.827 17.113,19.872 C17.113,19.852 17.113,19.832 17.113,19.812 C17.133,19.812 17.153,19.812 17.174,19.812 C17.198,19.465 17.185,19.395 17.113,19.091 C16.667,18.883 15.853,18.748 15.183,18.911 C14.957,18.966 14.495,19.151 14.339,19.091 C14.290,19.030 14.317,19.075 14.278,18.971 C14.464,18.679 14.450,18.073 14.520,17.709 C14.775,17.654 15.712,17.485 15.907,17.349 ZM23.265,17.469 C23.271,17.997 23.181,18.451 23.084,18.911 C22.980,18.947 22.894,18.964 22.722,18.971 C22.378,18.742 21.447,18.958 21.154,19.031 C20.731,19.984 21.818,20.031 22.421,20.473 C22.722,20.693 22.924,21.203 23.024,21.614 C23.151,22.135 22.913,22.643 22.783,22.936 C22.106,24.463 20.457,24.022 18.621,23.957 C18.621,23.917 18.621,23.877 18.621,23.837 C18.495,23.610 18.729,22.769 18.802,22.455 C18.862,22.455 18.923,22.455 18.983,22.455 C19.460,22.779 20.327,22.648 20.973,22.635 C21.092,22.485 21.198,22.484 21.275,22.275 C21.333,22.190 21.334,22.078 21.335,21.915 C20.817,21.590 19.679,20.996 19.405,20.473 C19.235,20.147 19.193,19.605 19.285,19.211 C19.768,17.131 21.054,17.372 23.265,17.469 ZM28.090,21.314 C28.083,21.690 28.144,21.903 28.211,22.155 C29.476,23.005 29.985,22.502 31.347,22.275 C31.348,22.645 31.155,23.797 30.925,23.897 C30.543,24.176 29.425,24.202 28.875,24.077 C28.048,23.891 27.417,23.858 27.005,23.296 C26.120,22.089 26.296,19.990 27.005,18.730 C27.662,17.563 29.568,16.772 30.986,17.830 C31.818,18.450 31.786,20.044 31.528,21.254 C30.758,21.509 29.028,21.319 28.090,21.314 ZM43.290,17.349 C46.720,17.263 46.476,19.283 45.823,21.975 C45.669,22.607 45.858,23.495 45.521,23.957 C45.279,24.114 44.556,24.025 44.194,24.017 C44.194,23.997 44.194,23.977 44.194,23.957 C44.174,23.957 44.154,23.957 44.134,23.957 C44.146,23.708 44.170,23.571 44.013,23.476 C43.138,24.764 40.306,24.071 40.756,22.095 C41.199,20.154 42.277,19.824 44.496,19.872 C44.496,19.832 44.496,19.792 44.496,19.752 C44.607,19.592 44.536,19.324 44.496,19.151 C44.390,19.086 44.278,19.000 44.194,18.911 C43.243,18.897 42.453,18.966 41.661,19.151 C41.661,19.051 41.661,18.951 41.661,18.851 C41.848,18.531 41.672,17.867 42.023,17.709 C42.329,17.450 42.938,17.580 43.290,17.349 ZM35.750,17.469 C35.731,17.620 35.222,19.232 35.147,19.332 C34.806,19.551 34.514,19.407 34.303,19.752 C33.884,20.435 33.849,21.621 33.639,22.455 C33.514,22.957 33.658,23.590 33.398,23.957 C33.093,24.152 32.148,24.025 31.709,24.017 C32.051,21.875 32.393,19.732 32.735,17.589 C33.122,17.459 33.812,17.525 34.303,17.529 C34.283,17.770 34.263,18.010 34.243,18.250 C34.263,18.250 34.283,18.250 34.303,18.250 C34.602,17.754 35.054,17.398 35.750,17.469 ZM49.623,17.409 C49.723,17.429 49.824,17.449 49.924,17.469 C49.924,17.529 49.924,17.589 49.924,17.649 C49.549,18.063 49.673,18.878 49.321,19.332 C49.194,19.404 48.929,19.407 48.718,19.452 C48.301,20.189 48.115,21.116 47.874,22.095 C47.729,22.680 47.876,23.506 47.572,23.957 C47.277,24.146 46.369,24.025 45.943,24.017 C45.911,23.926 45.903,23.915 45.883,23.777 C46.075,23.455 45.962,22.984 46.064,22.575 C46.322,21.543 46.412,20.304 46.667,19.271 C46.788,18.780 46.654,17.761 47.029,17.529 C47.111,17.483 48.325,17.486 48.416,17.529 C48.469,17.607 48.470,17.677 48.477,17.830 C48.388,17.949 48.367,18.109 48.356,18.310 C48.396,18.310 48.436,18.310 48.477,18.310 C48.678,17.711 49.139,17.727 49.623,17.409 ZM29.056,18.851 C28.654,19.164 28.347,19.282 28.271,19.932 C28.722,20.084 29.522,19.997 30.081,19.992 C30.128,19.858 30.142,19.666 30.141,19.452 C30.075,19.369 30.051,19.279 30.021,19.151 C29.900,19.051 29.779,18.951 29.659,18.851 C29.458,18.851 29.257,18.851 29.056,18.851 ZM51.975,19.031 C51.753,19.236 51.474,19.369 51.311,19.632 C50.929,20.248 50.789,21.913 51.432,22.335 C51.920,22.725 52.492,22.271 52.699,21.975 C53.349,21.041 53.457,19.862 52.638,19.031 C52.417,19.031 52.196,19.031 51.975,19.031 ZM16.088,21.073 C15.526,21.445 15.054,21.310 15.063,22.275 C15.314,22.542 15.355,22.701 15.847,22.756 C16.512,22.252 16.864,22.295 16.932,21.134 C16.729,21.064 16.381,21.069 16.088,21.073 ZM43.471,21.073 C43.350,21.162 43.190,21.182 42.988,21.194 C42.680,21.576 42.435,21.576 42.445,22.335 C42.494,22.397 42.467,22.352 42.506,22.455 C43.444,23.082 44.284,22.354 44.255,21.134 C44.066,21.069 43.747,21.070 43.471,21.073 ZM55.534,22.996 C55.614,22.996 55.694,22.996 55.775,22.996 C55.775,23.036 55.775,23.076 55.775,23.116 C55.586,23.083 55.628,23.103 55.534,22.996 ZM55.352,23.116 C55.381,23.244 55.410,23.178 55.292,23.296 C55.292,23.316 55.292,23.336 55.292,23.356 C55.272,23.356 55.252,23.356 55.232,23.356 C55.275,23.215 55.294,23.222 55.352,23.116 ZM55.534,23.236 C55.555,23.255 55.654,23.267 55.594,23.356 C55.527,23.327 55.406,23.249 55.534,23.236 ZM55.714,23.476 C55.737,23.352 55.729,23.361 55.775,23.296 C55.775,23.316 55.775,23.336 55.775,23.356 C55.818,23.445 55.803,23.600 55.714,23.717 C55.600,23.548 55.689,23.634 55.473,23.657 C55.473,23.577 55.473,23.496 55.473,23.416 C55.493,23.416 55.513,23.416 55.534,23.416 C55.598,23.461 55.590,23.453 55.714,23.476 ZM56.076,23.416 C56.116,23.416 56.157,23.416 56.197,23.416 C56.197,23.496 56.197,23.577 56.197,23.657 C56.157,23.657 56.116,23.657 56.076,23.657 C56.076,23.577 56.076,23.496 56.076,23.416 ZM55.111,23.476 C55.152,23.476 55.192,23.476 55.232,23.476 C55.232,23.517 55.232,23.557 55.232,23.597 C55.192,23.597 55.152,23.597 55.111,23.597 C55.111,23.557 55.111,23.517 55.111,23.476 ZM55.232,23.717 C55.386,23.780 55.408,23.806 55.473,23.957 C55.433,23.957 55.393,23.957 55.352,23.957 C55.352,23.937 55.352,23.917 55.352,23.897 C55.255,23.816 55.285,23.859 55.232,23.717 ZM55.956,23.777 C55.996,23.777 56.036,23.777 56.076,23.777 C56.024,23.848 56.027,23.844 55.956,23.897 C55.956,23.917 55.956,23.937 55.956,23.957 C55.936,23.957 55.915,23.957 55.895,23.957 C55.915,23.897 55.936,23.837 55.956,23.777 ZM55.594,23.957 C55.634,23.957 55.674,23.957 55.714,23.957 C55.714,23.997 55.714,24.037 55.714,24.077 C55.674,24.077 55.634,24.077 55.594,24.077 C55.594,24.037 55.594,23.997 55.594,23.957 ZM27.306,26.660 C29.759,26.660 32.212,26.660 34.665,26.660 C34.629,26.915 33.956,28.271 33.820,28.342 C33.318,28.342 32.815,28.342 32.312,28.342 C30.974,28.342 29.313,28.534 28.090,28.283 C27.933,27.668 27.421,27.327 27.306,26.660 ZM55.594,28.283 C55.466,28.492 55.371,28.538 55.352,28.883 C55.579,29.121 55.576,29.247 56.076,29.243 C56.477,28.846 56.442,28.741 56.137,28.283 C55.956,28.283 55.775,28.283 55.594,28.283 ZM55.654,28.883 C55.654,28.783 55.654,28.683 55.654,28.583 C55.694,28.583 55.734,28.583 55.775,28.583 C55.825,28.778 55.745,28.675 55.895,28.763 C55.913,28.623 55.923,28.614 55.956,28.523 C55.976,28.523 55.996,28.523 56.016,28.523 C56.016,28.542 56.016,28.562 56.016,28.583 C56.065,28.644 56.037,28.599 56.076,28.703 C55.911,28.819 55.954,28.864 55.654,28.883 ZM55.956,28.883 C56.004,28.944 55.977,28.900 56.016,29.003 C55.996,29.003 55.976,29.003 55.956,29.003 C55.956,28.963 55.956,28.923 55.956,28.883 ZM29.417,29.965 C30.463,29.965 31.508,29.965 32.554,29.965 C32.554,30.005 32.554,30.044 32.554,30.084 C32.080,30.457 31.531,31.569 30.865,31.646 C30.475,31.062 29.666,30.658 29.417,29.965 Z"/>
</svg>