<svg xmlns="http://www.w3.org/2000/svg" xmlns:xlink="http://www.w3.org/1999/xlink" width="62px" height="41px">
    <path fill="#000000"
        d="M1.627,0.048 C16.262,0.048 30.901,0.048 45.536,0.048 C49.315,0.048 53.096,0.048 56.875,0.048 C58.306,0.048 60.536,-0.226 61.398,0.408 C62.279,1.056 61.941,4.644 61.941,6.235 C61.941,11.922 61.941,17.610 61.941,23.296 C61.941,27.041 61.941,30.786 61.941,34.530 C61.941,35.506 62.135,38.433 61.821,39.035 C61.254,40.122 59.676,39.937 58.021,39.937 C54.724,39.937 51.426,39.937 48.129,39.937 C36.550,39.937 24.967,39.937 13.388,39.937 C10.413,39.937 7.437,39.937 4.462,39.937 C3.191,39.937 1.471,40.127 0.722,39.576 C-0.138,38.943 0.179,35.820 0.179,34.290 C0.179,29.144 0.179,23.997 0.179,18.851 C0.179,14.566 0.179,10.280 0.179,5.995 C0.179,4.393 0.179,2.791 0.179,1.189 C0.328,0.798 0.756,0.330 1.145,0.168 C1.307,0.100 1.499,0.132 1.627,0.048 ZM52.412,15.247 C52.412,15.186 52.412,15.126 52.412,15.066 C52.331,15.066 52.251,15.066 52.170,15.066 C52.060,14.861 52.043,14.584 52.050,14.225 C52.250,14.220 52.323,14.196 52.472,14.165 C52.472,14.125 52.472,14.085 52.472,14.045 C52.044,13.953 52.156,13.812 51.869,13.684 C51.798,14.134 51.816,14.570 51.929,15.126 C52.082,15.208 52.140,15.241 52.412,15.247 ZM53.196,13.985 C53.026,14.108 53.007,14.063 52.774,14.045 C52.679,14.322 52.709,14.814 52.713,15.186 C52.733,15.186 52.753,15.186 52.774,15.186 C52.774,15.206 52.774,15.226 52.774,15.247 C52.879,15.208 52.832,15.235 52.894,15.186 C53.000,15.028 52.962,14.604 52.954,14.345 C53.108,14.263 53.166,14.230 53.437,14.225 C53.558,14.452 53.565,14.800 53.558,15.186 C53.578,15.186 53.598,15.186 53.618,15.186 C53.618,15.206 53.618,15.226 53.618,15.247 C53.638,15.247 53.658,15.247 53.678,15.247 C53.678,15.226 53.678,15.206 53.678,15.186 C53.783,15.021 53.764,14.480 53.799,14.285 C53.922,14.242 54.081,14.225 54.281,14.225 C54.281,14.245 54.281,14.265 54.281,14.285 C54.301,14.285 54.322,14.285 54.342,14.285 C54.334,14.607 54.322,15.016 54.402,15.247 C54.442,15.247 54.482,15.247 54.523,15.247 C54.523,15.206 54.523,15.166 54.523,15.126 C54.698,14.870 54.521,14.351 54.462,14.105 C54.294,14.065 54.204,13.936 53.980,13.985 C53.884,14.006 53.828,14.153 53.618,14.105 C53.508,14.080 53.420,13.996 53.196,13.985 ZM9.769,14.465 C9.192,15.105 9.201,16.074 8.925,17.048 C8.570,18.303 8.392,19.630 8.020,20.953 C7.840,21.594 7.527,22.382 7.659,23.116 C7.719,23.136 7.779,23.156 7.839,23.176 C8.008,23.281 8.417,23.237 8.684,23.236 C10.542,23.234 9.714,21.846 10.312,20.713 C10.392,20.563 10.619,20.475 10.734,20.353 C13.362,20.392 15.225,19.837 15.982,18.010 C16.232,17.406 16.355,16.278 15.982,15.667 C15.055,14.149 12.228,14.431 9.769,14.465 ZM33.051,14.465 C32.958,14.590 32.769,14.642 32.689,14.766 C32.534,15.004 32.595,15.302 32.508,15.607 C32.295,16.356 32.194,17.141 31.965,17.950 C31.657,19.039 31.517,20.210 31.181,21.374 C31.032,21.892 30.839,22.403 30.819,23.056 C31.217,23.299 32.027,23.245 32.689,23.236 C32.836,23.085 32.970,23.046 33.051,22.816 C33.262,22.491 33.535,21.028 33.654,20.593 C33.795,20.513 33.935,20.433 34.076,20.353 C34.599,20.353 35.122,20.353 35.644,20.353 C37.286,19.978 38.671,19.527 39.263,18.130 C39.323,17.850 39.384,17.569 39.444,17.289 C39.648,13.953 36.174,14.428 33.051,14.465 ZM48.552,14.525 C48.316,14.742 48.109,14.754 48.069,15.186 C47.715,15.714 47.723,16.895 47.526,17.589 C47.255,18.549 47.159,19.564 46.863,20.593 C46.647,21.344 46.395,22.122 46.380,23.056 C46.468,23.107 46.553,23.165 46.621,23.236 C47.006,23.246 47.809,23.345 48.069,23.176 C48.277,23.111 48.363,23.020 48.431,22.816 C48.799,22.311 48.728,21.370 48.913,20.713 C49.259,19.492 49.399,18.204 49.758,16.929 C49.937,16.291 50.288,15.374 50.180,14.706 C49.812,14.495 49.168,14.518 48.552,14.525 ZM11.700,16.088 C12.499,16.061 13.311,16.052 13.630,16.508 C13.861,16.791 13.815,17.264 13.690,17.589 C13.324,18.542 12.449,18.706 11.096,18.671 C10.973,18.476 10.916,18.428 10.915,18.070 C11.177,17.672 11.235,16.878 11.338,16.388 C11.458,16.288 11.579,16.187 11.700,16.088 ZM35.041,16.088 C35.903,16.053 36.907,16.097 36.971,16.868 C37.160,17.153 36.956,17.643 36.851,17.830 C36.467,18.507 35.395,18.904 34.317,18.671 C34.200,18.485 34.143,18.464 34.136,18.130 C34.454,17.658 34.284,16.666 34.679,16.268 C34.764,16.182 34.950,16.163 35.041,16.088 ZM19.782,22.635 C19.783,22.851 19.810,22.961 19.842,23.116 C19.902,23.136 19.963,23.156 20.023,23.176 C20.344,23.391 21.392,23.224 21.651,23.116 C21.959,22.580 21.998,21.958 22.194,21.254 C22.571,19.904 23.530,17.506 22.074,16.748 C21.214,16.301 17.498,16.228 17.188,17.109 C17.012,17.334 16.952,17.819 16.947,18.190 C17.051,18.226 17.137,18.244 17.309,18.250 C17.980,17.755 19.737,17.809 20.505,18.130 C20.626,18.335 20.686,18.427 20.686,18.791 C20.626,18.811 20.566,18.831 20.505,18.851 C20.036,19.142 19.170,18.945 18.575,19.091 C17.453,19.368 16.217,19.681 15.741,20.593 C14.972,22.064 16.058,23.880 17.972,23.416 C18.691,23.242 19.225,22.752 19.782,22.635 ZM42.219,16.448 C41.980,16.593 40.945,16.681 40.650,16.748 C40.403,17.132 40.137,17.703 40.228,18.250 C40.329,18.250 40.429,18.250 40.530,18.250 C41.221,17.750 42.807,17.869 43.666,18.070 C43.816,18.295 43.939,18.354 43.968,18.730 C43.919,18.792 43.946,18.747 43.907,18.851 C43.867,18.851 43.827,18.851 43.787,18.851 C43.318,19.142 42.451,18.946 41.857,19.091 C40.578,19.404 39.361,19.712 38.901,20.833 C38.265,22.385 39.515,23.835 41.253,23.416 C41.954,23.248 42.396,22.817 43.003,22.635 C43.020,23.442 43.893,23.271 44.691,23.236 C44.839,23.085 44.972,23.046 45.053,22.816 C45.286,22.509 45.235,22.041 45.355,21.614 C45.593,20.763 46.519,18.146 45.958,17.289 C45.369,16.388 43.728,16.439 42.219,16.448 ZM26.296,20.413 C26.178,19.245 25.921,17.902 25.632,16.808 C25.140,16.489 24.429,16.407 23.642,16.568 C23.584,16.674 23.566,16.669 23.521,16.808 C23.386,17.048 23.737,18.402 23.823,18.730 C24.012,19.459 23.942,20.100 24.124,20.833 C24.327,21.647 24.509,22.611 24.607,23.476 C24.695,24.255 23.375,25.284 23.340,26.240 C23.791,26.391 24.591,26.305 25.150,26.300 C25.310,26.200 25.471,26.100 25.632,25.999 C25.992,25.550 26.167,25.000 26.476,24.498 C27.419,22.966 28.282,21.367 29.251,19.812 C29.722,19.057 30.926,17.542 31.060,16.628 C30.660,16.420 29.786,16.501 29.191,16.508 C29.038,16.637 28.789,16.668 28.648,16.808 C28.443,17.012 28.383,17.337 28.226,17.589 C27.923,18.074 27.538,18.584 27.261,19.091 C27.032,19.509 26.851,20.341 26.296,20.413 ZM20.023,20.112 C20.123,20.132 20.224,20.153 20.324,20.173 C20.324,20.293 20.324,20.413 20.324,20.533 C20.161,20.769 20.131,21.227 20.023,21.494 C19.246,22.017 17.692,22.599 17.791,20.953 C18.040,20.773 18.266,20.470 18.575,20.353 C18.982,20.198 19.669,20.341 20.023,20.112 ZM43.304,20.112 C43.484,20.162 43.490,20.202 43.606,20.293 C43.362,21.635 42.816,22.300 41.253,21.915 C41.193,21.791 41.046,21.606 41.012,21.494 C40.758,20.651 41.823,20.359 42.339,20.232 C42.693,20.146 43.046,20.270 43.304,20.112 Z"/>
</svg>