<svg xmlns="http://www.w3.org/2000/svg" xmlns:xlink="http://www.w3.org/1999/xlink" width="63px" height="41px">
    <path fill-rule="evenodd"  fill="#000000"
        d="M1.801,0.048 C16.436,0.048 31.075,0.048 45.710,0.048 C49.490,0.048 53.270,0.048 57.049,0.048 C58.481,0.048 60.710,-0.226 61.573,0.408 C62.454,1.056 62.116,4.644 62.116,6.235 C62.116,11.922 62.116,17.610 62.116,23.296 C62.116,27.041 62.116,30.786 62.116,34.530 C62.116,35.506 62.309,38.433 61.995,39.035 C61.428,40.122 59.850,39.937 58.195,39.937 C54.898,39.937 51.601,39.937 48.304,39.937 C36.725,39.937 25.142,39.937 13.563,39.937 C10.588,39.937 7.611,39.937 4.636,39.937 C3.365,39.937 1.645,40.127 0.897,39.576 C0.036,38.943 0.354,35.820 0.354,34.290 C0.354,29.144 0.354,23.997 0.354,18.851 C0.354,14.566 0.354,10.280 0.354,5.995 C0.354,4.393 0.354,2.791 0.354,1.189 C0.503,0.798 0.930,0.330 1.319,0.168 C1.482,0.100 1.674,0.132 1.801,0.048 ZM38.231,12.002 C37.840,12.236 36.846,12.147 36.362,12.303 C35.594,12.550 34.747,12.892 34.130,13.324 C33.577,13.711 33.183,14.198 32.803,14.766 C32.550,15.144 32.287,15.590 32.139,16.088 C31.818,17.176 32.187,18.249 32.622,18.911 C33.419,20.122 34.619,20.752 35.939,21.434 C36.473,21.710 37.085,21.887 37.507,22.275 C37.682,22.435 37.764,22.705 37.930,22.876 C37.951,23.188 38.031,23.429 37.869,23.657 C37.399,25.193 33.714,24.876 32.320,24.317 C32.107,24.232 30.980,23.730 30.933,23.777 C30.752,24.019 30.842,24.313 30.752,24.678 C30.562,25.453 30.344,26.292 30.330,27.201 C30.390,27.221 30.451,27.241 30.511,27.261 C31.134,27.711 32.394,27.735 33.225,27.922 C33.487,27.922 33.748,27.922 34.009,27.922 C34.549,28.035 35.580,28.040 36.120,27.922 C36.647,27.807 37.021,27.935 37.507,27.802 C39.365,27.292 40.754,26.603 41.669,25.158 C41.979,24.669 42.656,23.337 42.453,22.395 C42.029,20.425 40.877,19.480 39.317,18.671 C38.302,18.144 36.495,17.832 36.482,16.328 C36.786,15.958 36.968,15.623 37.447,15.427 C38.385,15.042 40.287,15.195 41.187,15.487 C41.590,15.618 41.970,15.856 42.453,15.907 C42.453,15.887 42.453,15.867 42.453,15.847 C42.473,15.847 42.494,15.847 42.514,15.847 C42.576,14.732 42.950,13.753 42.996,12.603 C42.976,12.603 42.956,12.603 42.936,12.603 C42.936,12.583 42.936,12.563 42.936,12.543 C42.285,12.491 41.535,12.215 40.885,12.063 C40.001,12.043 39.116,12.023 38.231,12.002 ZM5.179,12.122 C5.145,12.219 5.131,12.267 5.119,12.423 C5.159,12.423 5.199,12.423 5.239,12.423 C5.477,12.597 5.831,12.551 6.144,12.663 C6.895,12.933 7.737,13.203 8.436,13.565 C11.292,15.040 13.397,16.859 14.829,19.752 C14.849,19.752 14.870,19.752 14.890,19.752 C14.890,19.672 14.890,19.592 14.890,19.512 C14.682,19.189 14.761,18.732 14.648,18.310 C14.313,17.059 14.098,15.598 13.744,14.345 C13.569,13.729 13.634,13.172 13.322,12.724 C12.888,12.101 11.859,12.122 10.788,12.122 C8.919,12.122 7.049,12.122 5.179,12.122 ZM9.401,14.946 C9.419,15.835 9.966,17.115 10.245,17.889 C10.366,18.390 10.487,18.891 10.607,19.391 C11.158,21.036 11.628,22.833 12.175,24.498 C12.428,25.265 12.605,26.014 12.839,26.720 C12.967,27.106 12.898,27.593 13.261,27.742 C13.406,27.799 14.119,27.742 14.467,27.742 C15.477,27.742 16.794,27.812 17.604,27.742 C19.217,24.572 20.383,21.182 21.826,17.889 C22.385,16.613 22.933,15.317 23.515,13.985 C23.739,13.471 24.139,12.917 24.238,12.303 C23.894,12.189 23.295,12.243 22.851,12.243 C21.846,12.243 20.841,12.243 19.835,12.243 C18.776,14.698 17.868,17.298 16.820,19.752 C16.569,20.338 16.030,22.322 15.674,22.635 C15.674,22.655 15.674,22.676 15.674,22.696 C15.613,22.755 15.614,22.636 15.613,22.635 C15.264,22.130 15.319,21.301 15.010,20.773 C13.962,18.980 12.608,17.300 10.969,16.088 C10.507,15.746 10.046,15.065 9.401,14.946 ZM26.108,12.243 C26.017,12.372 26.001,12.359 25.987,12.603 C25.806,12.899 25.905,13.292 25.807,13.684 C25.519,14.827 25.508,16.076 25.203,17.289 C24.872,18.607 24.757,20.118 24.419,21.434 C24.379,21.794 24.339,22.155 24.299,22.515 C24.042,23.514 24.035,24.624 23.756,25.699 C23.599,26.303 23.431,27.050 23.394,27.742 C24.196,28.007 26.530,27.806 27.556,27.802 C27.556,27.782 27.556,27.762 27.556,27.742 C27.576,27.742 27.596,27.742 27.616,27.742 C28.500,22.596 29.385,17.448 30.270,12.303 C30.250,12.303 30.230,12.303 30.209,12.303 C30.209,12.283 30.209,12.263 30.209,12.243 C28.842,12.243 27.475,12.243 26.108,12.243 ZM50.415,12.243 C50.269,12.335 50.024,12.239 49.812,12.303 C49.548,12.381 49.179,12.563 48.967,12.724 C48.312,13.218 47.774,15.118 47.399,15.967 C46.593,17.793 45.665,19.672 44.866,21.494 C44.515,22.294 44.294,23.074 43.901,23.837 C43.427,24.755 43.110,25.759 42.634,26.720 C42.530,26.931 42.101,27.567 42.212,27.742 C42.444,27.887 43.073,27.802 43.418,27.802 C44.464,27.802 45.509,27.802 46.555,27.802 C46.825,27.274 47.054,26.598 47.278,26.060 C47.363,25.856 47.336,25.548 47.520,25.459 C49.289,25.459 51.058,25.459 52.827,25.459 C52.889,25.507 52.844,25.480 52.948,25.519 C53.109,26.260 53.270,27.001 53.430,27.742 C53.471,27.742 53.511,27.742 53.551,27.742 C53.762,27.873 54.318,27.802 54.637,27.802 C55.521,27.802 56.406,27.802 57.291,27.802 C57.327,27.698 57.344,27.612 57.351,27.442 C57.124,27.097 57.182,26.556 57.049,26.120 C56.730,25.069 56.635,23.946 56.326,22.816 C55.390,19.397 54.710,15.824 53.973,12.303 C53.933,12.303 53.893,12.303 53.853,12.303 C53.663,12.184 53.180,12.243 52.888,12.243 C52.063,12.243 51.239,12.243 50.415,12.243 ZM50.897,16.628 C50.937,16.628 50.978,16.628 51.018,16.628 C51.420,18.490 51.822,20.353 52.224,22.215 C51.454,22.470 49.723,22.280 48.786,22.275 C48.766,22.215 48.746,22.155 48.726,22.095 C49.090,21.673 49.158,20.958 49.389,20.413 C49.901,19.207 50.324,17.840 50.897,16.628 Z"/>
</svg>