<svg xmlns="http://www.w3.org/2000/svg" viewBox="-29 121.966 16 16" height="16" width="16" id="Layer_1"><path id="path2" d="M-17.766 121.966h-6.468A4.772 4.772 0 0 0-29 126.732v6.468a4.772 4.772 0 0 0 4.766 4.766h6.468A4.772 4.772 0 0 0-13 133.2v-6.468a4.772 4.772 0 0 0-4.766-4.766zm3.156 11.234a3.157 3.157 0 0 1-3.156 3.156h-6.468a3.157 3.157 0 0 1-3.156-3.156v-6.468a3.157 3.157 0 0 1 3.156-3.156h6.468a3.157 3.157 0 0 1 3.156 3.156z" fill="#fff" stroke-width=".029"/><path id="path4" d="M-21 125.828a4.143 4.143 0 0 0-4.138 4.138A4.143 4.143 0 0 0-21 134.104a4.143 4.143 0 0 0 4.138-4.138A4.143 4.143 0 0 0-21 125.828zm0 6.667a2.529 2.529 0 1 1 0-5.058 2.529 2.529 0 0 1 0 5.058z" fill="#fff" stroke-width=".029"/><circle id="circle6" r=".992" cy="125.859" cx="-16.854" fill="#fff" stroke-width=".029"/></svg>