<svg xmlns="http://www.w3.org/2000/svg" height="13.501" width="13.498" id="Слой_1"><path id="path2" d="M4.238 4.468L1.121 1.35C1.523.949 1.926.54 2.328.14a.484.484 0 0 1 .676-.004l2.426 2.43a.482.482 0 0 1 0 .68L4.402 4.273a1.13 1.13 0 0 0-.164.195zM6.805 9.55c-.512-.441-1-.906-1.477-1.38A27.5 27.5 0 0 1 3.95 6.69c-.359-.413-.429-1.02-.242-1.523l-3.2-3.203c-.746.766-.653 2.664.164 4.332.351.723.805 1.375 1.273 1.993a18.07 18.07 0 0 0 1.528 1.742 17.539 17.539 0 0 0 1.734 1.53c.621.47 1.273.923 1.992 1.27 1.668.817 3.567.907 4.332.16l-3.199-3.2c-.508.189-1.113.119-1.527-.241zm6.554.946l-2.429-2.43a.488.488 0 0 0-.68 0l-.53.535-.497.492a1.094 1.094 0 0 1-.196.164l3.118 3.12c.402-.405.804-.803 1.207-1.206a.472.472 0 0 0 .007-.675zm0 0" fill="#fff"/></svg>