<svg xmlns="http://www.w3.org/2000/svg" xmlns:xlink="http://www.w3.org/1999/xlink" width="30px" height="30px">
    <path fill="#000000"
        d="M5.064,0.019 C9.964,0.019 14.865,0.019 19.765,0.019 C20.973,0.019 22.181,0.019 23.389,0.019 C24.015,0.019 24.752,-0.057 25.289,0.077 C26.447,0.366 27.258,0.785 28.065,1.394 C28.738,1.902 29.438,3.073 29.731,3.971 C29.842,4.309 29.876,4.712 29.965,5.054 C29.965,6.401 29.965,7.748 29.965,9.095 C29.965,12.862 29.965,16.630 29.965,20.397 C29.965,21.919 29.965,23.441 29.965,24.964 C29.850,25.406 29.809,25.906 29.644,26.311 C29.227,27.332 28.582,28.285 27.744,28.887 C27.249,29.242 26.646,29.560 26.020,29.765 C25.682,29.876 25.280,29.911 24.938,30.000 C22.425,30.000 19.911,30.000 17.398,30.000 C14.670,30.000 11.942,30.000 9.214,30.000 C7.831,30.000 6.448,30.000 5.064,30.000 C4.723,29.911 4.320,29.877 3.983,29.765 C2.944,29.424 1.853,28.715 1.265,27.921 C0.865,27.381 0.500,26.747 0.271,26.047 C0.161,25.709 0.126,25.306 0.037,24.964 C0.037,23.588 0.037,22.211 0.037,20.836 C0.037,17.166 0.037,13.496 0.037,9.827 C0.037,7.647 -0.193,4.961 0.476,3.415 C1.046,2.095 2.111,1.029 3.428,0.458 C3.736,0.324 4.091,0.223 4.421,0.135 C4.624,0.082 4.916,0.130 5.064,0.019 ZM16.404,23.998 C16.404,21.968 16.404,19.937 16.404,17.908 C16.404,17.352 16.404,16.795 16.404,16.239 C16.471,15.926 16.464,15.353 16.404,15.038 C16.586,14.978 16.903,15.009 17.135,15.009 C17.709,15.009 18.284,15.009 18.859,15.009 C18.919,13.989 19.162,12.983 19.181,11.935 C18.960,11.862 18.576,11.906 18.304,11.906 C17.690,11.906 17.076,11.906 16.462,11.906 C16.316,11.622 16.401,10.952 16.404,10.559 C16.534,10.343 16.380,9.748 16.550,9.475 C16.882,8.944 18.303,9.117 19.151,9.124 C19.234,8.872 19.181,8.435 19.181,8.129 C19.181,7.436 19.181,6.743 19.181,6.050 C18.929,5.966 18.493,6.020 18.187,6.020 C17.495,6.020 16.803,6.020 16.112,6.020 C15.923,6.137 15.574,6.076 15.352,6.138 C14.942,6.251 14.527,6.414 14.212,6.635 C12.939,7.531 13.037,9.692 13.043,11.876 C12.876,11.932 12.586,11.906 12.371,11.906 C11.864,11.906 11.358,11.906 10.851,11.906 C10.832,11.942 10.819,11.966 10.793,11.993 C10.911,12.640 10.822,13.487 10.822,14.189 C10.822,14.404 10.769,14.872 10.822,14.980 C10.939,15.054 11.262,15.009 11.436,15.009 C11.971,15.009 12.507,15.009 13.043,15.009 C13.043,15.028 13.043,15.048 13.043,15.068 C13.076,15.162 13.043,15.546 13.043,15.741 C13.043,16.278 13.043,16.815 13.043,17.351 C13.043,18.825 13.043,20.299 13.043,21.772 C13.043,22.482 12.948,23.344 13.072,23.998 C14.183,23.998 15.294,23.998 16.404,23.998 Z"/>
</svg>