<svg version="1.1" xmlns="http://www.w3.org/2000/svg" xmlns:xlink="http://www.w3.org/1999/xlink" x="0px" y="0px"
	 viewBox="0 0 30 30">
<path d="M22,0H8C3.6,0,0,3.6,0,8v14c0,4.4,3.6,8,8,8H22c4.4,0,8-3.6,8-8V8C30,3.6,26.4,0,22,0z M13.9,21.1c-1.4,0.6-3.4,0.6-4.8,0
	c-1.7-0.8-2.9-2.1-3.6-3.9c-0.2-0.4-0.2-0.9-0.3-1.4c0-0.1,0-0.2,0-0.2c-0.2-0.8,0.1-2.1,0.3-2.7c0.8-2.3,2.3-3.7,4.8-4.4
	c0.2-0.1,0.4,0,0.7-0.1c0.4-0.1,1.1-0.1,1.4,0c0.4,0.1,0.7,0.1,1,0.2c0.5,0.2,0.9,0.4,1.3,0.6c0.2,0.1,0.4,0.3,0.7,0.5
	c0.3,0.2,0.5,0.4,0.7,0.7c0.1,0.1,0.3,0.2,0.3,0.4c-0.4,0.4-0.8,0.8-1.2,1.2c-0.1,0.1-0.3,0.4-0.4,0.4c0,0,0,0,0,0
	c-0.2-0.2-0.3-0.4-0.5-0.6c-0.6-0.5-1.2-0.8-2.1-1c-0.6-0.1-1.4,0-1.8,0.2c-1.4,0.5-2.2,1.3-2.7,2.7c-0.2,0.5-0.4,1.3-0.2,2
	c0.4,1.7,1.3,2.8,2.9,3.4c1.6,0.6,3.5-0.3,4.1-1.2c0.2-0.3,0.6-0.6,0.6-1c-1,0-2,0-3,0c0-0.8,0-1.6,0-2.4c1.9,0,3.9,0,5.8,0
	C18,18,16.3,20.1,13.9,21.1z M24.9,16.2c-0.6,0-1.2,0-1.8,0c0,0.6,0,1.2,0,1.8c-0.8,0-1.5,0-2.3,0c0-0.6,0-1.2,0-1.8
	c-0.6,0-1.2,0-1.7,0c0-0.8,0-1.6,0-2.4c0.6,0,1.2,0,1.7,0c0-0.6,0-1.2,0-1.8c0.8,0,1.5,0,2.3,0c0,0.6,0,1.2,0,1.8c0.6,0,1.2,0,1.8,0
	C24.9,14.6,24.9,15.4,24.9,16.2z"/>
</svg>
