<svg xmlns="http://www.w3.org/2000/svg" xmlns:xlink="http://www.w3.org/1999/xlink" width="31px" height="30px">
    <path fill="#000000"
        d="M4.272,0.019 C9.873,0.019 15.476,0.019 21.077,0.019 C22.860,0.019 24.643,0.019 26.426,0.019 C27.286,0.244 27.971,0.454 28.588,0.897 C29.234,1.360 29.780,2.142 30.079,2.946 C30.189,3.243 30.233,3.605 30.313,3.913 C30.313,5.249 30.313,6.587 30.313,7.924 C30.313,12.647 30.313,17.371 30.313,22.095 C30.313,23.432 30.313,24.769 30.313,26.105 C30.089,26.966 29.878,27.654 29.436,28.272 C29.326,28.426 29.143,28.536 29.027,28.682 C28.943,28.788 28.841,28.924 28.734,29.004 C28.071,29.502 27.373,29.754 26.426,30.000 C23.669,30.000 20.911,30.000 18.154,30.000 C14.648,30.000 11.140,30.000 7.633,30.000 C6.513,30.000 5.392,30.000 4.272,30.000 C3.106,29.695 2.428,29.440 1.700,28.711 C1.593,28.614 1.486,28.516 1.379,28.418 C0.881,27.755 0.631,27.055 0.385,26.105 C0.385,24.681 0.385,23.256 0.385,21.831 C0.385,17.518 0.385,13.203 0.385,8.890 C0.385,7.231 0.385,5.572 0.385,3.913 C0.511,3.427 0.588,2.922 0.794,2.507 C1.236,1.618 1.990,0.880 2.869,0.428 C3.114,0.303 3.430,0.212 3.688,0.135 C3.873,0.080 4.134,0.122 4.272,0.019 ZM23.883,3.532 C23.697,3.652 23.391,3.626 23.181,3.707 C22.558,3.950 21.960,4.545 21.720,5.172 C21.090,6.821 22.113,8.194 23.298,8.626 C23.566,8.724 24.034,8.904 24.467,8.802 C25.499,8.559 26.282,8.072 26.630,7.162 C27.252,5.538 26.198,4.050 25.023,3.649 C24.687,3.534 24.319,3.528 23.883,3.532 ZM24.000,5.288 C25.285,5.252 25.361,6.749 24.351,7.045 C23.801,7.206 23.144,6.543 23.298,5.992 C23.437,5.495 23.662,5.538 24.000,5.288 ZM14.910,7.045 C14.669,7.188 14.231,7.087 13.946,7.162 C13.358,7.318 12.775,7.461 12.251,7.689 C10.205,8.582 8.731,10.235 7.925,12.374 C7.750,12.839 7.695,13.361 7.575,13.867 C7.352,14.810 7.566,16.289 7.808,17.000 C7.980,17.505 8.055,17.935 8.276,18.376 C9.152,20.121 10.497,21.428 12.338,22.212 C12.834,22.422 13.391,22.591 13.975,22.739 C14.289,22.818 14.575,22.754 14.910,22.826 C15.137,22.876 15.633,22.918 15.904,22.856 C16.562,22.706 17.223,22.720 17.804,22.504 C19.974,21.700 21.545,20.353 22.538,18.376 C22.838,17.780 23.004,17.090 23.181,16.385 C23.240,16.154 23.186,15.987 23.240,15.741 C23.311,15.413 23.351,14.814 23.269,14.453 C23.259,14.257 23.250,14.062 23.240,13.867 C23.064,13.145 22.911,12.473 22.655,11.876 C21.437,9.026 18.985,7.052 14.910,7.045 ZM14.969,8.802 C18.333,8.759 20.309,10.523 21.194,12.959 C21.657,14.233 21.655,16.173 21.077,17.351 C20.316,18.903 19.190,20.123 17.512,20.748 C16.997,20.939 16.436,20.971 15.846,21.099 C15.601,21.152 15.168,21.114 14.969,21.070 C14.793,21.060 14.618,21.050 14.443,21.040 C13.982,20.926 13.510,20.801 13.128,20.631 C11.261,19.800 10.126,18.638 9.504,16.561 C9.311,15.916 9.125,14.809 9.328,13.985 C9.421,13.607 9.487,13.201 9.620,12.843 C10.225,11.219 11.456,9.944 13.011,9.271 C13.353,9.122 13.756,9.020 14.121,8.919 C14.372,8.850 14.760,8.933 14.969,8.802 Z"/>
</svg>