<svg xmlns="http://www.w3.org/2000/svg" xmlns:xlink="http://www.w3.org/1999/xlink" width="31px" height="30px">
    <path fill="#000000"
        d="M5.410,0.019 C10.407,0.019 15.405,0.019 20.403,0.019 C21.581,0.019 22.760,0.019 23.939,0.019 C24.671,0.019 25.425,-0.031 26.014,0.135 C26.902,0.387 27.617,0.762 28.264,1.248 C29.094,1.870 29.827,3.003 30.164,4.118 C30.251,4.405 30.269,4.752 30.340,5.025 C30.340,6.362 30.340,7.699 30.340,9.036 C30.340,12.822 30.340,16.610 30.340,20.397 C30.340,21.489 30.340,22.582 30.340,23.676 C30.340,24.383 30.384,25.097 30.223,25.666 C29.842,27.014 29.123,28.164 28.118,28.887 C27.639,29.233 27.057,29.564 26.453,29.765 C26.108,29.881 25.692,29.908 25.342,30.000 C22.809,30.000 20.276,30.000 17.743,30.000 C15.035,30.000 12.326,30.000 9.618,30.000 C8.215,30.000 6.812,30.000 5.410,30.000 C5.137,29.929 4.790,29.912 4.504,29.824 C3.392,29.485 2.261,28.752 1.639,27.921 C1.156,27.275 0.777,26.550 0.529,25.666 C0.376,25.124 0.412,24.467 0.412,23.792 C0.412,22.817 0.412,21.841 0.412,20.865 C0.412,17.166 0.412,13.467 0.412,9.768 C0.412,7.598 0.182,4.921 0.850,3.386 C1.406,2.108 2.498,1.015 3.773,0.458 C4.094,0.350 4.416,0.243 4.737,0.135 C4.949,0.076 5.254,0.136 5.410,0.019 ZM6.988,5.054 C6.800,5.168 6.492,5.124 6.286,5.201 C5.687,5.423 5.155,5.907 4.913,6.489 C4.742,6.899 4.701,7.660 4.854,8.129 C5.157,9.056 6.366,10.057 7.806,9.710 C8.900,9.447 9.493,8.932 9.764,7.836 C9.834,7.554 9.851,7.115 9.764,6.811 C9.705,6.605 9.611,6.345 9.501,6.167 C9.028,5.401 8.251,5.043 6.988,5.054 ZM12.015,11.584 C12.014,16.090 12.015,20.554 12.015,25.110 C12.034,25.110 12.054,25.110 12.073,25.110 C12.228,25.206 13.019,25.139 13.271,25.139 C14.333,25.139 15.395,25.139 16.457,25.139 C16.515,24.964 16.486,24.661 16.486,24.437 C16.486,23.890 16.486,23.344 16.486,22.797 C16.486,21.040 16.486,19.284 16.486,17.527 C16.588,17.357 16.509,16.834 16.574,16.619 C16.713,16.160 17.029,15.753 17.334,15.448 C18.222,14.560 20.041,14.625 20.724,15.653 C21.251,16.446 21.221,17.721 21.221,19.050 C21.221,21.070 21.221,23.090 21.221,25.110 C21.711,25.166 22.320,25.139 22.858,25.139 C23.803,25.139 24.748,25.139 25.693,25.139 C25.763,24.926 25.722,24.556 25.722,24.290 C25.722,23.715 25.722,23.139 25.722,22.563 C25.722,20.621 25.722,18.679 25.722,16.737 C25.676,16.659 25.718,16.528 25.693,16.414 C25.614,16.057 25.640,15.682 25.547,15.331 C25.340,14.556 25.082,13.803 24.670,13.223 C24.089,12.407 23.166,11.760 22.098,11.437 C19.740,10.725 17.311,11.914 16.574,13.399 C16.523,13.380 16.546,13.393 16.516,13.370 C16.352,13.103 16.600,11.894 16.486,11.642 C16.448,11.570 16.499,11.622 16.428,11.584 C16.231,11.514 15.441,11.584 15.113,11.584 C14.080,11.584 13.047,11.584 12.015,11.584 ZM9.531,25.110 C9.531,20.602 9.531,16.092 9.531,11.584 C8.498,11.584 7.465,11.584 6.432,11.584 C5.983,11.584 5.382,11.546 5.030,11.584 C5.030,16.092 5.030,20.602 5.030,25.110 C5.049,25.110 5.069,25.110 5.088,25.110 C5.242,25.206 6.035,25.139 6.286,25.139 C7.345,25.139 8.524,25.229 9.531,25.110 Z"/>
</svg>