<svg xmlns="http://www.w3.org/2000/svg" xmlns:xlink="http://www.w3.org/1999/xlink" width="31px" height="30px">
    <path fill="#000000"
        d="M5.751,0.019 C10.651,0.019 15.553,0.019 20.452,0.019 C21.660,0.019 22.869,0.019 24.076,0.019 C24.702,0.019 25.439,-0.057 25.976,0.077 C27.135,0.366 27.945,0.785 28.753,1.394 C29.425,1.902 30.125,3.073 30.419,3.971 C30.529,4.309 30.564,4.712 30.652,5.054 C30.652,6.401 30.652,7.748 30.652,9.095 C30.652,12.862 30.652,16.630 30.652,20.397 C30.652,21.919 30.652,23.441 30.652,24.964 C30.537,25.406 30.496,25.906 30.331,26.311 C29.914,27.332 29.269,28.285 28.431,28.887 C27.936,29.242 27.333,29.560 26.707,29.765 C26.369,29.876 25.967,29.911 25.625,30.000 C23.112,30.000 20.598,30.000 18.085,30.000 C15.358,30.000 12.629,30.000 9.902,30.000 C8.518,30.000 7.135,30.000 5.751,30.000 C5.410,29.911 5.007,29.877 4.670,29.765 C3.632,29.424 2.540,28.715 1.952,27.921 C1.552,27.381 1.187,26.747 0.958,26.047 C0.848,25.709 0.813,25.306 0.725,24.964 C0.725,23.588 0.725,22.211 0.725,20.836 C0.725,17.166 0.725,13.496 0.725,9.827 C0.725,7.647 0.495,4.961 1.163,3.415 C1.733,2.095 2.798,1.029 4.115,0.458 C4.423,0.324 4.778,0.223 5.109,0.135 C5.311,0.082 5.604,0.130 5.751,0.019 ZM15.835,12.520 C15.186,12.537 14.532,12.414 14.023,12.257 C13.616,12.131 13.251,12.116 12.883,11.964 C11.689,11.471 10.684,10.889 9.726,10.178 C9.576,10.067 9.464,9.880 9.317,9.768 C9.099,9.603 8.838,9.399 8.674,9.183 C8.557,9.028 8.430,8.784 8.236,8.714 C8.236,8.724 8.236,8.734 8.236,8.744 C8.058,8.954 8.005,9.268 7.914,9.563 C7.403,11.240 8.311,12.913 9.317,13.545 C9.317,13.555 9.317,13.565 9.317,13.574 C9.307,13.574 9.298,13.574 9.288,13.574 C9.253,13.598 9.239,13.597 9.171,13.604 C9.035,13.520 8.812,13.563 8.645,13.516 C8.336,13.429 8.070,13.219 7.739,13.194 C7.728,14.825 8.678,15.947 9.756,16.502 C10.022,16.640 10.303,16.691 10.603,16.795 C10.573,16.818 10.595,16.806 10.545,16.824 C10.262,17.042 9.436,16.897 9.054,16.883 C9.198,17.935 10.432,18.925 11.334,19.254 C11.668,19.377 12.056,19.341 12.415,19.459 C12.181,19.779 11.710,19.922 11.363,20.133 C10.819,20.465 10.151,20.665 9.463,20.865 C9.113,20.914 8.762,20.962 8.411,21.011 C7.983,21.001 7.554,20.992 7.125,20.982 C7.125,20.992 7.125,21.001 7.125,21.011 C8.007,21.561 8.995,21.988 10.106,22.329 C11.919,22.884 14.775,22.626 16.273,22.007 C16.971,21.719 17.606,21.505 18.202,21.128 C20.993,19.366 23.135,16.218 23.141,11.642 C23.655,11.310 24.121,10.840 24.486,10.354 C24.614,10.182 24.818,10.051 24.895,9.827 C24.905,9.827 24.914,9.827 24.924,9.827 C24.914,9.807 24.905,9.788 24.895,9.768 C24.337,10.012 23.680,10.265 22.937,10.295 C22.937,10.286 22.937,10.276 22.937,10.266 C22.946,10.266 22.956,10.266 22.966,10.266 C23.074,10.128 23.263,10.050 23.404,9.944 C23.743,9.689 24.378,8.852 24.427,8.333 C24.204,8.373 24.030,8.544 23.843,8.626 C23.484,8.784 23.158,8.883 22.761,9.007 C22.611,9.054 22.286,9.220 22.118,9.124 C21.898,9.044 21.753,8.782 21.563,8.656 C21.169,8.393 20.703,8.211 20.189,8.070 C19.574,7.902 18.751,8.047 18.290,8.217 C16.964,8.704 16.165,9.579 15.805,11.027 C15.679,11.537 15.813,12.030 15.835,12.520 Z"/>
</svg>