<svg
        xmlns="http://www.w3.org/2000/svg"
        xmlns:xlink="http://www.w3.org/1999/xlink"
        width="15px" height="15px">
    <g>
        <path fill-rule="evenodd"  fill="#000000"
              d="M0.010,6.837 C0.010,7.281 0.010,7.726 0.010,8.170 C4.134,8.170 8.258,8.170 12.382,8.170 C12.382,8.179 12.382,8.189 12.382,8.198 C11.885,8.527 11.577,9.120 11.106,9.476 C10.661,9.812 10.304,10.251 9.913,10.644 C9.261,11.296 8.595,11.936 7.944,12.587 C7.588,12.944 7.218,13.288 6.862,13.644 C6.729,13.777 6.490,13.904 6.446,14.116 C6.645,14.249 6.961,14.576 7.139,14.755 C7.221,14.837 7.280,14.953 7.389,15.005 C7.574,14.726 7.898,14.457 8.165,14.255 C8.258,14.153 8.350,14.052 8.443,13.949 C8.674,13.727 8.905,13.505 9.136,13.283 C10.445,11.972 11.767,10.675 13.075,9.365 C13.524,8.916 13.986,8.481 14.435,8.031 C14.592,7.874 14.904,7.685 14.989,7.476 C14.782,7.368 14.649,7.162 14.490,7.004 C14.086,6.598 13.690,6.168 13.270,5.781 C11.893,4.519 10.567,3.185 9.247,1.863 C8.817,1.432 8.374,1.016 7.944,0.585 C7.770,0.411 7.575,0.090 7.333,0.002 C7.200,0.369 6.493,0.618 6.446,1.002 C6.613,1.074 6.714,1.243 6.834,1.363 C7.102,1.622 7.370,1.882 7.638,2.141 C7.749,2.262 7.860,2.383 7.971,2.502 C8.375,2.808 8.698,3.203 9.053,3.558 C9.506,3.993 9.959,4.429 10.412,4.864 C10.634,5.096 10.856,5.327 11.078,5.559 C11.412,5.811 11.673,6.127 11.966,6.420 C12.092,6.546 12.303,6.672 12.382,6.837 C8.258,6.837 4.134,6.837 0.010,6.837 Z"/>
    </g>
</svg>