<svg xmlns="http://www.w3.org/2000/svg" xmlns:xlink="http://www.w3.org/1999/xlink" width="10px" height="6px">
    <path fill="#000000"
        d="M0.942,0.001 C0.964,0.001 0.986,0.001 1.008,0.001 C1.076,0.107 1.186,0.183 1.273,0.270 C1.476,0.477 1.670,0.682 1.886,0.877 C2.155,1.121 2.393,1.409 2.648,1.669 C3.048,2.076 3.466,2.465 3.873,2.864 C4.166,3.152 4.424,3.489 4.751,3.740 C4.845,3.812 4.896,3.949 5.016,3.993 C5.113,3.844 5.272,3.744 5.397,3.622 C5.689,3.340 5.961,3.042 6.259,2.764 C6.286,2.737 6.297,2.687 6.325,2.662 C6.923,2.103 7.481,1.503 8.081,0.945 C8.315,0.727 8.535,0.482 8.760,0.254 C8.843,0.170 8.915,0.020 9.058,0.001 C9.284,0.237 9.511,0.473 9.737,0.708 C9.820,0.793 9.975,0.878 10.002,1.012 C9.829,1.128 9.706,1.325 9.555,1.467 C9.263,1.740 8.990,2.024 8.710,2.309 C7.923,3.109 7.112,3.883 6.325,4.683 C6.007,5.006 5.682,5.320 5.364,5.643 C5.262,5.747 5.135,5.975 4.967,5.997 C4.882,5.867 4.743,5.769 4.635,5.660 C4.362,5.382 4.081,5.113 3.807,4.835 C2.938,3.951 2.060,3.075 1.190,2.191 C0.889,1.885 0.580,1.587 0.279,1.281 C0.238,1.240 -0.020,1.021 -0.002,0.961 C0.080,0.882 0.163,0.804 0.246,0.725 C0.478,0.485 0.710,0.243 0.942,0.001 Z"/>
</svg>