<svg xmlns="http://www.w3.org/2000/svg" xmlns:xlink="http://www.w3.org/1999/xlink" width="12px" height="12px">
    <defs>
        <filter id="Filter_0">
            <feFlood flood-color="rgb(78, 160, 86)" flood-opacity="1" result="floodOut" />
            <feComposite operator="atop" in="floodOut" in2="SourceGraphic" result="compOut" />
            <feBlend mode="normal" in="compOut" in2="SourceGraphic" />
        </filter>

    </defs>
    <g filter="url(#Filter_0)">
        <path fill-rule="evenodd"  fill="rgb(114, 114, 114)"
              d="M-0.005,5.464 C-0.005,5.819 -0.005,6.174 -0.005,6.528 C3.301,6.528 6.608,6.528 9.914,6.528 C9.914,6.536 9.914,6.543 9.914,6.551 C9.516,6.813 9.268,7.286 8.891,7.571 C8.535,7.840 8.248,8.190 7.935,8.503 C7.412,9.024 6.878,9.534 6.356,10.055 C6.070,10.340 5.774,10.613 5.488,10.898 C5.382,11.004 5.190,11.106 5.155,11.275 C5.314,11.381 5.568,11.643 5.711,11.785 C5.776,11.850 5.824,11.943 5.911,11.984 C6.060,11.762 6.319,11.547 6.534,11.386 C6.608,11.305 6.682,11.224 6.756,11.142 C6.941,10.964 7.127,10.787 7.312,10.609 C8.361,9.564 9.421,8.528 10.470,7.482 C10.830,7.124 11.200,6.776 11.560,6.418 C11.686,6.292 11.936,6.142 12.005,5.974 C11.838,5.888 11.731,5.724 11.604,5.597 C11.280,5.274 10.963,4.929 10.626,4.621 C9.522,3.614 8.459,2.549 7.401,1.494 C7.056,1.150 6.700,0.817 6.356,0.474 C6.217,0.335 6.061,0.078 5.866,0.008 C5.759,0.301 5.193,0.500 5.155,0.806 C5.289,0.863 5.370,0.999 5.466,1.095 C5.681,1.302 5.896,1.509 6.111,1.716 C6.200,1.812 6.289,1.908 6.378,2.004 C6.702,2.249 6.961,2.563 7.245,2.847 C7.608,3.195 7.972,3.541 8.335,3.889 C8.513,4.074 8.691,4.259 8.869,4.443 C9.136,4.645 9.346,4.897 9.580,5.131 C9.681,5.232 9.851,5.332 9.914,5.464 C6.608,5.464 3.301,5.464 -0.005,5.464 Z"/>
    </g>
</svg>