<svg
        xmlns="http://www.w3.org/2000/svg"
        xmlns:xlink="http://www.w3.org/1999/xlink"
        width="22px" height="20px">
    <g>
        <path fill-rule="evenodd"  fill="#000000"
              d="M1.502,1.017 C1.502,7.006 1.502,12.997 1.502,18.986 C6.495,18.986 11.489,18.986 16.482,18.986 C16.482,12.997 16.482,7.006 16.482,1.017 C14.596,1.017 12.709,1.017 10.823,1.017 C10.241,1.017 9.238,1.159 9.034,0.767 C8.982,0.669 8.991,0.521 8.992,0.373 C9.121,0.231 9.156,0.083 9.367,0.019 C9.887,0.019 10.407,0.019 10.927,0.019 C12.425,0.019 13.923,0.019 15.421,0.019 C16.001,0.019 17.162,-0.106 17.398,0.227 C17.573,0.475 17.481,1.525 17.481,1.953 C17.481,3.471 17.481,4.989 17.481,6.508 C18.417,6.508 19.353,6.508 20.290,6.508 C20.740,6.508 21.205,6.453 21.392,6.716 C21.532,6.913 21.476,7.389 21.476,7.714 C21.476,8.532 21.476,9.350 21.476,10.168 C21.476,13.322 21.476,16.477 21.476,19.631 C21.346,19.742 21.301,19.917 21.122,19.985 C19.763,19.985 18.403,19.985 17.044,19.985 C13.119,19.985 9.193,19.985 5.268,19.985 C4.110,19.985 2.952,19.985 1.793,19.985 C1.195,19.985 0.672,20.080 0.503,19.631 C0.503,14.640 0.503,9.648 0.503,4.657 C0.503,3.548 0.503,2.438 0.503,1.329 C0.503,0.853 0.430,0.301 0.711,0.102 C0.960,-0.074 2.010,0.019 2.438,0.019 C3.694,0.019 4.949,0.019 6.204,0.019 C6.676,0.019 7.147,0.019 7.619,0.019 C7.828,0.083 7.864,0.234 7.993,0.373 C7.999,1.243 7.184,1.017 6.371,1.017 C4.748,1.017 3.125,1.017 1.502,1.017 ZM3.874,2.764 C6.405,2.764 8.937,2.764 11.468,2.764 C12.127,2.764 12.786,2.764 13.445,2.764 C13.735,2.764 14.105,2.725 14.277,2.847 C14.512,3.014 14.485,3.356 14.485,3.762 C14.485,4.462 14.485,5.163 14.485,5.863 C14.485,6.355 14.485,6.847 14.485,7.340 C14.485,7.550 14.519,7.838 14.443,7.984 C14.282,8.298 13.860,8.255 13.382,8.255 C12.495,8.255 11.607,8.255 10.719,8.255 C9.062,8.255 7.404,8.255 5.747,8.255 C5.296,8.255 4.845,8.255 4.394,8.255 C4.189,8.255 3.913,8.287 3.770,8.213 C3.402,8.024 3.499,7.349 3.499,6.799 C3.499,5.579 3.499,4.358 3.499,3.139 C3.565,2.931 3.732,2.892 3.874,2.764 ZM4.498,3.762 C4.498,4.927 4.498,6.092 4.498,7.256 C7.494,7.256 10.490,7.256 13.486,7.256 C13.486,6.092 13.486,4.927 13.486,3.762 C10.490,3.762 7.494,3.762 4.498,3.762 ZM17.481,7.506 C17.481,11.332 17.481,15.160 17.481,18.986 C18.479,18.986 19.478,18.986 20.477,18.986 C20.477,15.160 20.477,11.332 20.477,7.506 C19.478,7.506 18.479,7.506 17.481,7.506 ZM3.853,11.749 C6.426,11.749 8.999,11.749 11.572,11.749 C12.418,11.749 13.264,11.749 14.110,11.749 C14.320,11.814 14.355,11.964 14.485,12.103 C14.487,12.404 14.435,12.573 14.256,12.685 C14.110,12.776 13.823,12.747 13.590,12.747 C13.091,12.747 12.591,12.747 12.092,12.747 C10.026,12.747 7.959,12.747 5.892,12.747 C5.213,12.747 4.533,12.747 3.853,12.747 C3.675,12.692 3.613,12.554 3.499,12.435 C3.452,11.892 3.576,11.992 3.853,11.749 ZM3.853,13.995 C5.524,13.995 7.196,13.995 8.867,13.995 C9.450,13.995 10.033,13.995 10.615,13.995 C10.825,14.060 10.860,14.211 10.990,14.349 C10.996,15.223 10.162,14.993 9.346,14.993 C7.987,14.993 6.627,14.993 5.268,14.993 C4.933,14.993 3.959,15.059 3.749,14.952 C3.631,14.892 3.586,14.773 3.499,14.681 C3.452,14.138 3.576,14.238 3.853,13.995 ZM3.853,16.241 C6.426,16.241 8.999,16.241 11.572,16.241 C12.418,16.241 13.264,16.241 14.110,16.241 C14.320,16.306 14.355,16.457 14.485,16.595 C14.487,16.896 14.435,17.066 14.256,17.177 C14.110,17.269 13.823,17.240 13.590,17.240 C13.091,17.240 12.591,17.240 12.092,17.240 C10.026,17.240 7.959,17.240 5.892,17.240 C5.220,17.240 4.547,17.240 3.874,17.240 C3.676,17.186 3.620,17.054 3.499,16.928 C3.452,16.385 3.576,16.485 3.853,16.241 Z"/>
    </g>
</svg>