<svg xmlns="http://www.w3.org/2000/svg" xmlns:xlink="http://www.w3.org/1999/xlink" width="26px" height="19px">
    <path fill="#000000"
        d="M0.143,0.984 C8.713,0.984 17.287,0.984 25.857,0.984 C25.857,1.348 25.857,1.713 25.857,2.077 C25.857,2.235 25.876,2.447 25.836,2.570 C25.632,2.532 25.345,2.549 25.107,2.549 C24.671,2.549 24.236,2.549 23.800,2.549 C22.436,2.549 21.071,2.549 19.707,2.549 C15.443,2.549 11.178,2.549 6.914,2.549 C5.293,2.549 3.671,2.549 2.050,2.549 C1.600,2.549 1.150,2.549 0.700,2.549 C0.552,2.549 0.235,2.583 0.164,2.549 C0.110,2.462 0.143,2.226 0.143,2.099 C0.143,1.727 0.143,1.356 0.143,0.984 ZM0.143,9.085 C8.713,9.085 17.287,9.085 25.857,9.085 C25.857,9.613 25.857,10.141 25.857,10.670 C17.287,10.670 8.713,10.670 0.143,10.670 C0.143,10.141 0.143,9.613 0.143,9.085 ZM25.857,18.727 C17.287,18.727 8.713,18.727 0.143,18.727 C0.143,18.205 0.143,17.684 0.143,17.163 C0.339,17.098 0.678,17.141 0.914,17.141 C1.450,17.141 1.986,17.141 2.521,17.141 C4.321,17.141 6.122,17.141 7.921,17.141 C13.892,17.141 19.865,17.141 25.836,17.141 C25.876,17.264 25.857,17.477 25.857,17.635 C25.857,17.999 25.857,18.363 25.857,18.727 Z"/>
</svg>