<svg
        xmlns="http://www.w3.org/2000/svg"
        xmlns:xlink="http://www.w3.org/1999/xlink"
        width="24px" height="24px">
    <defs>
        <filter id="Filter_0">
            <feFlood flood-color="rgb(78, 160, 86)" flood-opacity="1" result="floodOut" />
            <feComposite operator="atop" in="floodOut" in2="SourceGraphic" result="compOut" />
            <feBlend mode="normal" in="compOut" in2="SourceGraphic" />
        </filter>

    </defs>
    <g filter="url(#Filter_0)">
        <path fill-rule="evenodd"  fill="rgb(114, 114, 114)"
              d="M4.986,-0.006 C8.275,-0.006 11.564,-0.006 14.852,-0.006 C16.441,-0.006 18.030,-0.006 19.618,-0.006 C19.739,0.040 19.869,0.165 19.976,0.231 C20.374,0.479 20.779,0.704 21.167,0.945 C21.566,1.193 21.971,1.418 22.359,1.659 C22.535,1.768 22.740,1.831 22.835,2.016 C22.963,2.263 22.883,2.822 22.883,3.157 C22.883,4.077 22.883,4.997 22.883,5.917 C22.883,9.231 22.883,12.547 22.883,15.861 C22.883,17.227 23.029,18.251 23.312,19.334 C23.354,19.496 23.317,19.600 23.359,19.762 C23.519,20.373 23.581,21.078 23.741,21.689 C23.783,21.851 23.746,21.954 23.788,22.117 C23.897,22.538 24.169,23.470 23.884,23.806 C23.651,24.080 22.826,23.973 22.335,23.973 C20.897,23.973 19.459,23.973 18.021,23.973 C12.152,23.973 6.280,23.973 0.411,23.973 C0.273,23.819 0.077,23.773 0.006,23.544 C-0.057,23.341 0.150,22.556 0.196,22.379 C0.239,22.216 0.201,22.113 0.244,21.951 C0.382,21.425 0.440,20.812 0.578,20.285 C0.620,20.123 0.583,20.020 0.625,19.857 C0.852,18.989 0.933,18.016 1.150,17.145 C1.150,13.815 1.150,10.484 1.150,7.154 C1.150,5.941 1.150,4.727 1.150,3.514 C1.150,3.138 1.064,2.275 1.197,2.016 C1.350,1.720 1.804,1.623 2.103,1.468 C2.767,1.123 3.465,0.767 4.128,0.422 C4.357,0.303 4.837,0.171 4.986,-0.006 ZM5.248,1.135 C5.067,1.337 4.310,1.508 4.200,1.706 C9.529,1.706 14.861,1.706 20.190,1.706 C20.190,1.690 20.190,1.675 20.190,1.659 C19.862,1.556 19.620,1.237 19.308,1.135 C14.622,1.135 9.935,1.135 5.248,1.135 ZM2.293,2.848 C2.293,7.653 2.293,12.459 2.293,17.264 C2.142,17.875 2.064,18.575 1.912,19.191 C1.851,19.438 1.881,19.632 1.817,19.881 C1.688,20.377 1.667,20.928 1.531,21.451 C1.420,21.881 1.328,22.369 1.269,22.831 C8.425,22.831 15.584,22.831 22.740,22.831 C22.748,22.807 22.756,22.783 22.764,22.759 C22.633,22.543 22.670,22.085 22.597,21.808 C22.436,21.197 22.376,20.492 22.216,19.881 C22.173,19.719 22.210,19.615 22.168,19.453 C21.986,18.756 21.914,17.963 21.739,17.264 C21.739,15.773 21.739,14.282 21.739,12.792 C21.739,9.478 21.739,6.162 21.739,2.848 C15.258,2.848 8.775,2.848 2.293,2.848 ZM8.180,5.560 C8.569,5.562 8.789,5.714 8.871,6.012 C8.871,6.155 8.871,6.297 8.871,6.440 C8.943,6.762 8.988,7.088 9.109,7.368 C9.520,8.321 10.317,8.930 11.397,9.224 C11.792,9.331 12.372,9.271 12.707,9.176 C13.810,8.863 14.588,8.263 14.971,7.249 C15.066,6.998 15.100,6.711 15.162,6.440 C15.253,6.038 15.085,5.877 15.400,5.655 C15.506,5.581 15.699,5.535 15.853,5.584 C16.337,5.738 16.406,6.238 16.258,6.845 C15.895,8.337 15.142,9.358 13.923,9.985 C13.140,10.388 11.701,10.581 10.706,10.222 C10.237,10.054 9.794,9.826 9.419,9.557 C9.332,9.495 9.265,9.382 9.180,9.318 C9.059,9.227 8.914,9.130 8.823,9.009 C8.498,8.579 8.170,8.131 7.965,7.582 C7.887,7.373 7.885,7.194 7.822,6.964 C7.754,6.713 7.633,6.144 7.774,5.869 C7.861,5.702 8.036,5.672 8.180,5.560 Z"/>
    </g>
</svg>