<svg xmlns="http://www.w3.org/2000/svg" xmlns:xlink="http://www.w3.org/1999/xlink" width="18px" height="20px">
    <path fill-rule="evenodd"  fill="#000000"
        d="M13.414,4.949 C14.090,4.949 14.765,4.949 15.441,4.949 C15.839,4.949 16.217,4.926 16.444,5.085 C16.626,5.213 16.687,5.439 16.745,5.689 C16.745,5.780 16.745,5.871 16.745,5.962 C16.882,6.563 16.810,7.270 16.946,7.872 C16.959,8.105 16.973,8.339 16.986,8.573 C17.024,8.738 17.029,8.993 17.066,9.158 C17.066,9.249 17.066,9.339 17.066,9.430 C17.106,9.605 17.107,9.860 17.147,10.035 C17.147,10.125 17.147,10.216 17.147,10.307 C17.282,10.901 17.212,11.604 17.347,12.198 C17.347,12.288 17.347,12.379 17.347,12.471 C17.419,12.786 17.396,13.188 17.468,13.503 C17.468,13.594 17.468,13.685 17.468,13.776 C17.539,14.089 17.517,14.495 17.588,14.808 C17.588,14.900 17.588,14.991 17.588,15.081 C17.660,15.396 17.637,15.797 17.708,16.114 C17.708,16.205 17.708,16.296 17.708,16.387 C17.843,16.980 17.774,17.683 17.909,18.277 C17.909,18.368 17.909,18.459 17.909,18.550 C17.966,18.805 18.049,19.233 17.949,19.485 C17.754,19.979 17.236,19.953 16.524,19.953 C15.735,19.953 14.946,19.953 14.157,19.953 C9.957,19.953 5.756,19.953 1.556,19.953 C1.261,19.849 1.078,19.658 0.974,19.368 C0.922,19.225 1.006,18.809 1.034,18.686 C1.141,18.215 1.071,17.678 1.174,17.225 C1.174,17.134 1.174,17.043 1.174,16.952 C1.246,16.637 1.223,16.234 1.295,15.919 C1.295,15.828 1.295,15.737 1.295,15.646 C1.334,15.475 1.336,15.215 1.375,15.042 C1.375,14.952 1.375,14.861 1.375,14.769 C1.479,14.315 1.432,13.765 1.535,13.308 C1.535,13.217 1.535,13.126 1.535,13.035 C1.573,12.871 1.578,12.616 1.616,12.451 C1.616,12.360 1.616,12.269 1.616,12.178 C1.656,12.003 1.656,11.749 1.696,11.574 C1.696,11.483 1.696,11.392 1.696,11.302 C1.864,10.569 1.770,9.715 1.937,8.982 C1.937,8.892 1.937,8.800 1.937,8.709 C2.009,8.393 1.986,7.992 2.057,7.677 C2.057,7.586 2.057,7.495 2.057,7.404 C2.161,6.948 2.114,6.397 2.218,5.943 C2.218,5.852 2.218,5.760 2.218,5.670 C2.276,5.423 2.339,5.211 2.519,5.085 C2.746,4.926 3.124,4.949 3.522,4.949 C4.197,4.949 4.873,4.949 5.549,4.949 C5.541,4.362 5.482,3.461 5.629,3.000 C6.071,1.615 6.816,0.723 8.177,0.233 C8.783,0.015 9.757,-0.096 10.485,0.117 C10.954,0.254 11.407,0.449 11.769,0.701 C12.546,1.241 13.020,2.004 13.334,3.000 C13.484,3.475 13.413,4.349 13.414,4.949 ZM7.033,4.949 C8.665,4.949 10.298,4.949 11.929,4.949 C11.935,4.455 12.009,3.708 11.889,3.293 C11.633,2.402 11.092,1.862 10.224,1.558 C10.009,1.483 9.508,1.363 9.160,1.441 C9.002,1.477 8.815,1.502 8.659,1.558 C8.311,1.684 8.023,1.897 7.756,2.104 C7.657,2.181 7.590,2.313 7.515,2.416 C7.331,2.670 7.171,2.947 7.074,3.293 C6.954,3.715 7.032,4.449 7.033,4.949 ZM16.424,18.511 C16.428,18.209 16.404,17.897 16.344,17.634 C16.344,17.543 16.344,17.452 16.344,17.361 C16.306,17.196 16.301,16.941 16.264,16.777 C16.264,16.686 16.264,16.595 16.264,16.504 C16.191,16.188 16.215,15.786 16.143,15.471 C16.086,15.223 16.160,15.018 16.103,14.769 C15.966,14.168 16.039,13.462 15.902,12.860 C15.846,12.612 15.919,12.407 15.862,12.159 C15.724,11.558 15.798,10.851 15.662,10.249 C15.648,10.015 15.635,9.781 15.622,9.547 C15.549,9.233 15.573,8.831 15.501,8.515 C15.501,8.430 15.501,8.346 15.501,8.261 C15.462,8.088 15.460,7.829 15.421,7.657 C15.421,7.566 15.421,7.476 15.421,7.385 C15.353,7.088 15.332,6.715 15.321,6.391 C15.307,6.391 15.294,6.391 15.280,6.391 C15.182,6.331 14.900,6.371 14.759,6.371 C14.317,6.371 13.876,6.371 13.434,6.371 C13.343,6.637 13.413,7.415 13.414,7.755 C13.281,7.946 13.315,8.118 13.093,8.261 C13.011,8.315 12.905,8.341 12.792,8.359 C11.771,8.516 11.916,7.309 11.929,6.391 C11.815,6.354 11.616,6.371 11.468,6.371 C11.120,6.371 10.772,6.371 10.425,6.371 C9.301,6.371 8.177,6.371 7.054,6.371 C6.965,6.631 7.032,7.384 7.033,7.716 C6.992,7.779 7.007,7.875 6.973,7.950 C6.929,8.047 6.801,8.204 6.712,8.261 C6.620,8.322 6.520,8.335 6.391,8.359 C6.222,8.390 6.071,8.343 5.950,8.281 C5.406,8.001 5.537,7.180 5.549,6.391 C5.397,6.342 5.134,6.371 4.947,6.371 C4.525,6.371 4.104,6.371 3.683,6.371 C3.662,6.387 3.677,6.378 3.642,6.391 C3.642,6.423 3.642,6.456 3.642,6.488 C3.554,6.632 3.627,6.994 3.582,7.190 C3.478,7.645 3.527,8.197 3.422,8.651 C3.422,8.742 3.422,8.833 3.422,8.924 C3.382,9.099 3.382,9.353 3.341,9.528 C3.341,9.619 3.341,9.710 3.341,9.801 C3.171,10.540 3.272,11.399 3.101,12.139 C3.035,12.421 3.081,12.736 3.020,12.997 C3.020,13.087 3.020,13.178 3.020,13.269 C2.948,13.583 2.973,13.989 2.900,14.302 C2.900,14.393 2.900,14.484 2.900,14.575 C2.828,14.889 2.852,15.292 2.780,15.607 C2.780,15.698 2.780,15.789 2.780,15.880 C2.644,16.473 2.716,17.178 2.579,17.770 C2.554,17.877 2.526,18.471 2.539,18.491 C2.664,18.566 3.357,18.511 3.562,18.511 C4.472,18.511 5.381,18.511 6.291,18.511 C9.668,18.511 13.047,18.511 16.424,18.511 Z"/>
</svg>