<svg
        xmlns="http://www.w3.org/2000/svg"
        xmlns:xlink="http://www.w3.org/1999/xlink"
        width="10px" height="11px">
    <g>
        <path fill-rule="evenodd"  fill="rgb(0,0,0)"
              d="M0.514,0.599 C0.611,0.601 0.712,0.619 0.786,0.657 C0.884,0.707 0.953,0.810 1.028,0.885 C1.209,1.066 1.390,1.247 1.571,1.428 C2.409,2.261 3.248,3.095 4.086,3.928 C4.305,4.147 4.524,4.366 4.743,4.585 C4.820,4.662 4.898,4.812 5.028,4.828 C5.085,4.701 5.248,4.609 5.343,4.514 C5.395,4.461 5.433,4.395 5.486,4.342 C5.681,4.147 5.890,3.966 6.086,3.771 C6.900,2.956 7.700,2.128 8.514,1.314 C8.643,1.185 8.786,1.071 8.914,0.942 C9.008,0.848 9.091,0.720 9.214,0.657 C9.412,0.555 9.716,0.627 9.828,0.771 C9.938,0.912 10.018,1.156 9.914,1.357 C9.858,1.465 9.741,1.544 9.657,1.628 C9.466,1.819 9.276,2.009 9.086,2.199 C8.262,3.028 7.438,3.857 6.614,4.685 C6.400,4.899 6.186,5.114 5.971,5.328 C5.897,5.402 5.759,5.473 5.743,5.599 C6.914,6.766 8.086,7.933 9.257,9.099 C9.476,9.323 9.695,9.547 9.914,9.771 C10.045,10.019 9.929,10.341 9.757,10.457 C9.620,10.549 9.363,10.572 9.200,10.485 C9.101,10.432 9.021,10.306 8.943,10.228 C8.752,10.038 8.562,9.847 8.371,9.657 C7.543,8.833 6.714,8.009 5.886,7.185 C5.671,6.971 5.457,6.756 5.243,6.542 C5.169,6.468 5.098,6.329 4.971,6.313 C3.810,7.480 2.647,8.647 1.486,9.814 C1.257,10.038 1.028,10.261 0.800,10.485 C0.548,10.618 0.234,10.497 0.114,10.328 C0.041,10.224 -0.013,9.985 0.057,9.828 C0.117,9.694 0.245,9.611 0.343,9.514 C0.386,9.471 0.414,9.414 0.457,9.371 C0.605,9.223 0.767,9.090 0.914,8.942 C1.738,8.118 2.548,7.280 3.371,6.456 C3.590,6.237 3.809,6.018 4.028,5.799 C4.101,5.727 4.241,5.667 4.257,5.542 C4.147,5.469 4.064,5.349 3.971,5.257 C3.757,5.042 3.543,4.828 3.328,4.614 C2.676,3.961 2.024,3.309 1.371,2.657 C1.076,2.361 0.781,2.066 0.486,1.771 C0.360,1.645 0.169,1.518 0.086,1.357 C-0.042,1.108 0.097,0.800 0.271,0.685 C0.339,0.641 0.450,0.648 0.514,0.599 Z"/>
    </g>
</svg>