<svg
        xmlns="http://www.w3.org/2000/svg"
        xmlns:xlink="http://www.w3.org/1999/xlink"
        width="24px" height="18px">
    <defs>
        <filter id="Filter_0">
            <feFlood flood-color="rgb(78, 160, 86)" flood-opacity="1" result="floodOut" />
            <feComposite operator="atop" in="floodOut" in2="SourceGraphic" result="compOut" />
            <feBlend mode="normal" in="compOut" in2="SourceGraphic" />
        </filter>

    </defs>
    <g filter="url(#Filter_0)">
        <path fill-rule="evenodd"  fill="rgb(114, 114, 114)"
              d="M21.979,3.437 C21.979,3.979 21.979,4.521 21.979,5.064 C21.745,5.255 21.788,5.426 21.376,5.470 C21.234,5.551 21.146,5.491 20.907,5.470 C20.512,4.840 20.643,4.216 20.571,3.437 C20.035,3.437 19.499,3.437 18.962,3.437 C18.831,3.267 18.713,3.266 18.627,3.031 C18.467,2.819 18.520,2.701 18.627,2.488 C18.896,1.954 19.702,2.040 20.504,2.082 C20.548,1.997 20.577,1.942 20.638,1.878 C20.546,1.416 20.601,0.791 20.638,0.320 C21.945,-0.612 22.038,0.579 21.979,2.014 C22.392,2.155 23.128,2.087 23.656,2.082 C23.890,2.398 24.002,2.476 23.991,3.098 C23.857,3.211 23.723,3.325 23.589,3.437 C23.052,3.437 22.516,3.437 21.979,3.437 ZM0.390,2.082 C4.055,2.082 7.721,2.082 11.386,2.082 C13.137,2.082 15.264,1.838 16.884,2.150 C17.061,2.426 17.155,2.521 17.152,3.031 C17.019,3.131 16.900,3.375 16.750,3.437 C15.297,3.437 13.844,3.437 12.392,3.437 C8.414,3.437 4.435,3.437 0.457,3.437 C0.293,3.267 0.145,3.223 0.055,2.963 C-0.010,2.867 -0.011,2.741 -0.012,2.556 C0.120,2.421 0.280,2.231 0.390,2.082 ZM0.591,6.894 C5.038,6.894 9.486,6.894 13.934,6.894 C16.479,6.894 19.212,6.791 21.644,6.961 C21.823,7.238 21.967,7.294 21.979,7.775 C21.895,7.867 21.888,7.894 21.845,8.046 C20.839,8.632 17.631,8.317 16.079,8.317 C12.571,8.317 9.061,8.317 5.553,8.317 C3.872,8.317 1.699,8.543 0.256,8.181 C0.094,7.913 -0.009,7.837 -0.012,7.368 C0.119,7.268 0.189,7.039 0.323,6.961 C0.424,6.903 0.522,6.947 0.591,6.894 ZM0.524,11.773 C5.932,11.773 11.342,11.773 16.750,11.773 C17.956,11.773 19.163,11.773 20.370,11.773 C21.117,11.773 21.710,11.688 21.912,12.247 C21.977,12.344 21.978,12.469 21.979,12.654 C21.819,12.827 21.834,12.966 21.577,13.061 C21.281,13.286 20.538,13.196 20.035,13.196 C18.761,13.196 17.487,13.196 16.213,13.196 C12.727,13.196 9.240,13.196 5.754,13.196 C3.984,13.196 1.796,13.392 0.256,13.061 C0.102,12.799 -0.003,12.690 -0.012,12.247 C0.165,12.081 0.336,11.937 0.524,11.773 ZM0.792,16.585 C1.005,16.653 3.573,16.747 4.010,16.652 C4.234,16.604 4.755,16.514 5.083,16.585 C5.730,16.725 6.553,16.585 7.229,16.585 C7.905,16.585 8.727,16.725 9.374,16.585 C10.156,16.607 10.939,16.630 11.721,16.652 C13.258,16.620 14.916,16.650 16.481,16.652 C17.646,16.654 18.637,16.694 19.834,16.652 C20.520,16.629 21.228,16.569 21.778,16.788 C21.894,17.034 21.971,17.144 21.979,17.534 C21.824,17.679 21.654,17.852 21.510,18.008 C16.080,18.008 10.648,18.008 5.217,18.008 C4.011,18.008 2.804,18.008 1.597,18.008 C0.840,18.008 0.259,18.102 0.055,17.534 C-0.010,17.438 -0.011,17.312 -0.012,17.127 C0.092,17.017 0.134,16.885 0.256,16.788 C0.386,16.690 0.653,16.682 0.792,16.585 Z"/>
    </g>
</svg>