<svg xmlns="http://www.w3.org/2000/svg" xmlns:xlink="http://www.w3.org/1999/xlink" width="12px" height="20px">
    <path fill="#000000"
        d="M12.000,-0.000 C12.000,6.666 12.000,13.334 12.000,20.000 C10.581,20.000 9.162,20.000 7.744,20.000 C7.744,19.987 7.744,19.974 7.744,19.961 C7.700,19.726 7.656,19.492 7.612,19.257 C7.525,18.966 7.321,18.665 7.125,18.476 C7.001,18.358 6.794,18.236 6.637,18.164 C6.561,18.129 6.516,18.151 6.431,18.125 C5.445,17.818 4.680,18.497 4.406,19.199 C4.314,19.436 4.304,19.737 4.256,20.000 C2.838,20.000 1.419,20.000 -0.000,20.000 C-0.000,13.334 -0.000,6.666 -0.000,-0.000 C1.419,-0.000 2.838,-0.000 4.256,-0.000 C4.256,0.013 4.256,0.026 4.256,0.039 C4.300,0.273 4.344,0.508 4.387,0.742 C4.475,1.033 4.679,1.335 4.875,1.523 C4.999,1.642 5.206,1.763 5.362,1.836 C5.439,1.871 5.484,1.848 5.569,1.875 C6.555,2.181 7.320,1.503 7.594,0.801 C7.686,0.563 7.696,0.263 7.744,-0.000 C9.162,-0.000 10.581,-0.000 12.000,-0.000 ZM10.875,1.172 C10.138,1.172 9.400,1.172 8.662,1.172 C8.520,1.442 8.417,1.730 8.250,1.972 C7.738,2.716 6.441,3.432 5.175,3.007 C4.894,2.913 4.600,2.758 4.369,2.597 C4.073,2.392 3.791,2.054 3.600,1.738 C3.512,1.549 3.425,1.360 3.337,1.172 C2.600,1.172 1.862,1.172 1.125,1.172 C1.125,5.234 1.125,9.297 1.125,13.359 C1.425,13.359 1.725,13.359 2.025,13.359 C2.107,13.617 2.045,14.198 2.044,14.511 C1.809,14.593 1.399,14.533 1.125,14.531 C1.125,15.963 1.125,17.396 1.125,18.828 C1.862,18.828 2.600,18.828 3.337,18.828 C3.480,18.557 3.583,18.270 3.750,18.027 C4.262,17.284 5.558,16.567 6.825,16.992 C7.105,17.086 7.399,17.241 7.631,17.402 C7.927,17.608 8.209,17.946 8.400,18.261 C8.487,18.450 8.575,18.639 8.662,18.828 C9.400,18.828 10.138,18.828 10.875,18.828 C10.875,17.396 10.875,15.963 10.875,14.531 C10.575,14.531 10.275,14.531 9.975,14.531 C9.893,14.273 9.955,13.692 9.956,13.379 C10.191,13.297 10.601,13.357 10.875,13.359 C10.875,9.297 10.875,5.234 10.875,1.172 ZM8.831,13.379 C8.831,13.756 8.831,14.134 8.831,14.511 C8.650,14.574 8.336,14.531 8.119,14.531 C7.613,14.531 7.106,14.531 6.600,14.531 C6.518,14.273 6.580,13.692 6.581,13.379 C6.742,13.322 7.023,13.359 7.219,13.359 C7.581,13.359 7.944,13.359 8.306,13.359 C8.470,13.359 8.700,13.333 8.831,13.379 ZM5.419,13.379 C5.419,13.756 5.419,14.134 5.419,14.511 C5.237,14.574 4.924,14.531 4.706,14.531 C4.200,14.531 3.694,14.531 3.187,14.531 C3.105,14.273 3.167,13.692 3.169,13.379 C3.330,13.322 3.611,13.359 3.806,13.359 C4.169,13.359 4.531,13.359 4.894,13.359 C5.058,13.359 5.287,13.333 5.419,13.379 Z"/>
</svg>