<svg xmlns="http://www.w3.org/2000/svg" xmlns:xlink="http://www.w3.org/1999/xlink" width="13px" height="14px">
    <path fill="#4ea056"
        d="M3.143,-0.000 C3.406,-0.000 3.669,-0.000 3.932,-0.000 C4.489,0.137 4.824,0.419 4.993,0.943 C5.072,1.189 5.022,1.680 5.020,1.982 C5.202,2.042 5.713,1.996 5.945,1.996 C6.629,1.996 7.314,1.996 7.998,1.996 C8.055,1.824 8.013,1.328 8.012,1.107 C8.070,1.012 8.048,0.868 8.093,0.765 C8.196,0.535 8.408,0.282 8.624,0.164 C8.762,0.089 8.931,0.041 9.100,-0.000 C9.249,-0.000 9.399,-0.000 9.548,-0.000 C10.370,-0.000 10.807,0.355 10.976,0.998 C11.036,1.226 10.992,1.713 10.990,1.982 C11.071,2.009 11.212,1.996 11.316,1.996 C11.557,1.996 11.797,1.996 12.037,1.996 C12.112,2.042 12.238,2.021 12.323,2.051 C12.528,2.123 12.753,2.320 12.853,2.502 C12.989,2.750 12.989,3.091 12.989,3.486 C12.989,3.965 12.989,4.443 12.989,4.922 C12.989,6.817 12.989,8.714 12.989,10.609 C12.989,11.220 12.989,11.831 12.989,12.441 C12.989,12.900 12.994,13.296 12.812,13.562 C12.665,13.778 12.420,13.924 12.132,14.000 C11.384,14.000 10.636,14.000 9.888,14.000 C6.892,14.000 3.896,14.000 0.900,14.000 C0.546,13.906 0.265,13.703 0.124,13.398 C0.006,13.140 0.043,12.712 0.043,12.346 C0.043,11.653 0.043,10.960 0.043,10.267 C0.043,8.408 0.043,6.549 0.043,4.689 C0.043,4.275 0.043,3.860 0.043,3.445 C0.043,3.218 0.018,2.965 0.070,2.775 C0.114,2.616 0.199,2.470 0.288,2.351 C0.607,1.923 1.289,1.993 2.028,1.996 C2.089,1.812 2.043,1.398 2.042,1.176 C2.068,1.133 2.038,1.057 2.056,0.998 C2.101,0.845 2.163,0.670 2.246,0.547 C2.368,0.366 2.602,0.165 2.817,0.082 C2.914,0.045 3.058,0.056 3.143,-0.000 ZM3.266,0.998 C3.246,1.011 3.221,1.011 3.184,1.012 C3.150,1.057 3.090,1.108 3.048,1.148 C3.013,1.640 3.035,2.193 3.035,2.707 C3.035,3.018 3.012,3.403 3.075,3.650 C3.118,3.679 3.158,3.730 3.211,3.746 C3.344,3.784 3.817,3.742 3.918,3.719 C3.960,3.657 4.008,3.644 4.014,3.541 C4.062,3.463 4.027,3.040 4.027,2.912 C4.027,2.547 4.027,2.183 4.027,1.818 C4.027,1.570 4.035,1.282 3.987,1.094 C3.950,1.066 3.914,1.039 3.878,1.012 C3.692,1.007 3.472,0.998 3.266,0.998 ZM9.236,0.998 C9.219,1.009 9.170,1.014 9.154,1.025 C8.952,1.091 9.004,1.418 9.004,1.682 C9.004,2.320 8.988,2.994 9.018,3.609 C9.065,3.646 9.077,3.696 9.140,3.719 C9.211,3.773 9.418,3.746 9.535,3.746 C9.718,3.746 9.883,3.759 9.956,3.650 C10.025,3.547 9.997,3.309 9.997,3.144 C9.997,2.734 9.997,2.324 9.997,1.914 C9.997,1.746 10.037,1.244 9.970,1.148 C9.946,1.065 9.874,1.012 9.766,1.012 C9.701,0.970 9.345,0.996 9.236,0.998 ZM1.049,5.004 C1.049,7.665 1.049,10.327 1.049,12.988 C1.127,13.014 1.262,13.002 1.362,13.002 C1.598,13.002 1.833,13.002 2.069,13.002 C2.835,13.002 3.601,13.002 4.367,13.002 C6.901,13.002 9.435,13.002 11.969,13.002 C11.969,12.997 11.969,12.993 11.969,12.988 C11.974,12.988 11.978,12.988 11.983,12.988 C11.983,10.327 11.983,7.665 11.983,5.004 C8.339,5.004 4.693,5.004 1.049,5.004 Z"/>
</svg>