<svg xmlns="http://www.w3.org/2000/svg" xmlns:xlink="http://www.w3.org/1999/xlink" width="14px" height="11px">
    <path fill="#000000"
        d="M12.880,-0.004 C12.972,0.059 13.041,0.162 13.118,0.242 C13.300,0.430 13.482,0.619 13.664,0.807 C13.752,0.898 13.948,1.043 14.000,1.154 C13.923,1.207 13.868,1.291 13.804,1.357 C13.664,1.502 13.524,1.647 13.384,1.792 C13.053,2.134 12.707,2.463 12.376,2.805 C12.213,2.973 12.069,3.166 11.900,3.327 C11.242,3.953 10.628,4.628 9.996,5.282 C8.983,6.324 7.971,7.367 6.958,8.409 C6.347,9.042 5.735,9.674 5.124,10.306 C4.965,10.471 4.807,10.635 4.648,10.799 C4.584,10.865 4.527,10.979 4.424,11.002 C3.337,9.872 2.249,8.742 1.162,7.613 C0.877,7.319 0.593,7.024 0.308,6.730 C0.235,6.654 0.017,6.492 -0.000,6.382 C0.266,6.112 0.532,5.842 0.798,5.571 C0.883,5.483 0.989,5.296 1.120,5.267 C1.185,5.368 1.290,5.443 1.372,5.528 C1.559,5.721 1.745,5.914 1.932,6.107 C2.506,6.701 3.080,7.295 3.654,7.888 C3.850,8.091 4.046,8.294 4.242,8.496 C4.292,8.548 4.390,8.701 4.452,8.685 C4.547,8.650 4.610,8.536 4.676,8.468 C4.835,8.303 4.993,8.139 5.152,7.975 C5.721,7.386 6.291,6.797 6.860,6.209 C8.866,4.138 10.873,2.066 12.880,-0.004 Z"/>
</svg>