<svg xmlns="http://www.w3.org/2000/svg" xmlns:xlink="http://www.w3.org/1999/xlink" width="15px" height="16px">
    <path fill="#000000"
        d="M13.599,4.018 C13.599,6.710 13.599,9.404 13.599,12.096 C13.599,12.556 13.599,13.016 13.599,13.476 C13.599,13.821 13.617,14.160 13.536,14.437 C13.426,14.812 13.250,15.083 13.042,15.352 C12.973,15.441 12.894,15.549 12.803,15.615 C12.267,16.004 11.633,15.925 10.718,15.925 C9.381,15.925 8.044,15.925 6.707,15.925 C5.763,15.925 4.818,15.925 3.874,15.925 C3.197,15.925 2.670,15.955 2.266,15.693 C1.865,15.433 1.599,14.978 1.439,14.484 C1.354,14.222 1.375,13.895 1.375,13.569 C1.375,13.078 1.375,12.587 1.375,12.096 C1.375,9.404 1.375,6.710 1.375,4.018 C1.105,4.018 0.834,4.018 0.563,4.018 C0.449,4.018 0.297,4.034 0.229,3.987 C0.156,3.966 0.066,3.895 0.038,3.832 C-0.022,3.699 -0.024,3.019 0.038,2.887 C0.076,2.805 0.172,2.721 0.293,2.716 C0.346,2.684 0.482,2.700 0.563,2.700 C0.776,2.700 0.988,2.700 1.200,2.700 C2.006,2.700 2.813,2.700 3.619,2.700 C4.017,1.994 4.244,0.801 4.877,0.359 C5.405,-0.008 5.975,0.049 6.866,0.049 C7.705,0.049 8.543,0.049 9.381,0.049 C9.796,0.168 10.190,0.353 10.416,0.654 C10.564,0.852 10.615,1.085 10.734,1.321 C10.868,1.585 10.998,1.884 11.116,2.158 C11.157,2.251 11.292,2.670 11.355,2.700 C12.464,2.700 13.573,2.700 14.682,2.700 C14.702,2.714 14.721,2.714 14.761,2.716 C14.810,2.776 14.902,2.812 14.936,2.887 C15.042,3.119 14.952,3.592 14.936,3.832 C14.871,3.882 14.829,3.971 14.745,4.003 C14.660,4.035 14.520,4.018 14.411,4.018 C14.140,4.018 13.870,4.018 13.599,4.018 ZM5.816,1.367 C5.797,1.380 5.789,1.379 5.752,1.383 C5.716,1.429 5.639,1.457 5.609,1.507 C5.492,1.703 5.459,1.951 5.354,2.158 C5.277,2.310 5.152,2.493 5.132,2.685 C5.252,2.723 5.460,2.700 5.609,2.700 C5.933,2.700 6.256,2.700 6.580,2.700 C7.662,2.700 8.745,2.700 9.827,2.700 C9.836,2.676 9.840,2.663 9.843,2.623 C9.770,2.542 9.767,2.415 9.716,2.313 C9.618,2.120 9.526,1.886 9.429,1.693 C9.377,1.590 9.378,1.474 9.286,1.414 C9.136,1.317 8.563,1.367 8.315,1.367 C7.482,1.367 6.649,1.367 5.816,1.367 ZM2.744,4.018 C2.677,4.218 2.728,4.561 2.728,4.794 C2.728,5.362 2.728,5.931 2.728,6.499 C2.728,8.385 2.728,10.272 2.728,12.158 C2.728,12.535 2.728,12.912 2.728,13.289 C2.728,13.620 2.717,13.968 2.808,14.204 C2.863,14.349 2.913,14.559 3.078,14.592 C3.163,14.643 3.593,14.607 3.731,14.607 C4.293,14.607 4.856,14.607 5.418,14.607 C6.850,14.607 8.283,14.607 9.716,14.607 C10.182,14.607 10.649,14.607 11.116,14.607 C11.389,14.607 11.697,14.619 11.944,14.592 C12.058,14.422 12.167,14.268 12.230,14.034 C12.236,13.750 12.241,13.465 12.246,13.181 C12.246,12.587 12.246,11.992 12.246,11.398 C12.246,8.943 12.246,6.488 12.246,4.034 C12.241,4.034 12.236,4.034 12.230,4.034 C12.230,4.029 12.230,4.023 12.230,4.018 C9.069,4.018 5.906,4.018 2.744,4.018 ZM4.368,6.003 C4.699,6.000 5.245,5.934 5.386,6.127 C5.462,6.231 5.450,6.413 5.450,6.592 C5.450,6.923 5.450,7.253 5.450,7.584 C5.450,8.767 5.450,9.951 5.450,11.135 C5.450,11.468 5.525,12.304 5.386,12.499 C5.297,12.624 4.559,12.687 4.320,12.608 C4.223,12.575 4.178,12.485 4.113,12.421 C4.070,11.409 4.097,10.328 4.097,9.289 C4.097,8.262 4.070,7.190 4.113,6.189 C4.172,6.145 4.250,6.072 4.304,6.018 C4.341,6.015 4.349,6.015 4.368,6.003 ZM7.089,6.003 C7.377,6.001 7.863,5.942 8.044,6.065 C8.261,6.211 8.172,6.883 8.172,7.228 C8.172,8.364 8.172,9.502 8.172,10.638 C8.172,11.067 8.172,11.496 8.172,11.925 C8.172,12.144 8.190,12.390 8.092,12.514 C8.039,12.582 7.923,12.601 7.821,12.623 C7.575,12.675 6.968,12.624 6.882,12.514 C6.797,12.405 6.803,12.211 6.803,12.018 C6.803,11.688 6.803,11.357 6.803,11.026 C6.803,9.838 6.803,8.649 6.803,7.460 C6.803,7.171 6.803,6.881 6.803,6.592 C6.808,6.468 6.813,6.344 6.819,6.220 C6.855,6.115 6.952,6.086 7.026,6.018 C7.063,6.015 7.071,6.015 7.089,6.003 ZM9.811,6.003 C10.202,5.994 10.843,5.904 10.862,6.266 C10.908,6.340 10.877,6.548 10.877,6.654 C10.877,6.990 10.877,7.326 10.877,7.662 C10.877,8.819 10.877,9.977 10.877,11.135 C10.877,11.440 10.877,11.745 10.877,12.049 C10.877,12.171 10.898,12.345 10.846,12.421 C10.819,12.502 10.733,12.582 10.655,12.608 C10.519,12.651 9.883,12.652 9.747,12.608 C9.664,12.580 9.571,12.486 9.540,12.406 C9.496,12.289 9.525,12.085 9.525,11.941 C9.525,11.605 9.525,11.269 9.525,10.933 C9.525,9.786 9.525,8.638 9.525,7.491 C9.525,7.076 9.407,6.096 9.747,6.034 C9.761,6.024 9.798,6.013 9.811,6.003 Z"/>
</svg>