<svg
        xmlns="http://www.w3.org/2000/svg"
        xmlns:xlink="http://www.w3.org/1999/xlink"
        width="20px" height="17px">
    <g>
        <path fill-rule="evenodd"  fill="#000000"
              d="M5.619,0.012 C7.051,0.074 8.077,0.445 8.952,1.041 C9.212,1.218 9.472,1.442 9.695,1.659 C9.797,1.758 9.890,1.938 10.035,1.988 C10.237,1.686 10.565,1.440 10.863,1.227 C11.423,0.825 12.017,0.484 12.752,0.238 C13.058,0.136 13.340,0.150 13.686,0.074 C14.066,-0.011 14.837,-0.025 15.236,0.074 C15.560,0.153 15.906,0.208 16.213,0.321 C17.787,0.898 18.847,1.958 19.567,3.368 C20.249,4.704 20.056,6.957 19.482,8.268 C19.344,8.583 19.262,8.883 19.100,9.174 C17.705,11.685 15.437,13.349 13.049,14.899 C12.315,15.376 11.563,15.859 10.841,16.361 C10.667,16.482 10.157,16.976 9.971,16.999 C9.788,16.742 9.427,16.565 9.164,16.381 C8.789,16.120 8.399,15.838 8.018,15.578 C7.671,15.342 7.304,15.156 6.956,14.920 C4.333,13.137 1.916,11.425 0.588,8.371 C0.093,7.236 -0.242,5.304 0.248,3.925 C0.474,3.288 0.785,2.711 1.161,2.215 C1.853,1.299 2.865,0.661 4.069,0.238 C4.398,0.122 4.773,0.111 5.131,0.032 C5.278,0.000 5.508,0.079 5.619,0.012 ZM5.407,0.856 C5.292,0.922 5.112,0.862 4.961,0.897 C4.617,0.976 4.253,1.020 3.942,1.144 C2.678,1.645 1.759,2.490 1.224,3.698 C0.685,4.917 0.853,6.950 1.394,8.042 C1.437,8.166 1.479,8.289 1.522,8.413 C1.718,8.851 1.990,9.306 2.265,9.689 C3.519,11.437 5.242,12.689 7.041,13.910 C7.759,14.398 8.493,14.875 9.228,15.352 C9.412,15.472 9.844,15.881 10.056,15.908 C10.246,15.657 10.813,15.380 11.096,15.187 C11.792,14.714 12.517,14.265 13.219,13.787 C15.345,12.341 17.299,10.755 18.505,8.413 C18.743,7.951 18.871,7.402 19.015,6.869 C19.100,6.554 19.068,6.249 19.121,5.901 C19.242,5.100 19.018,4.329 18.803,3.779 C18.289,2.471 17.364,1.631 16.000,1.144 C15.155,0.842 13.834,0.760 12.901,1.061 C11.637,1.470 10.596,2.365 10.035,3.451 C9.997,3.437 10.014,3.446 9.992,3.429 C9.908,3.350 9.869,3.240 9.801,3.142 C9.655,2.928 9.494,2.710 9.334,2.503 C9.206,2.337 9.018,2.177 8.846,2.051 C8.700,1.943 8.572,1.784 8.421,1.679 C7.661,1.151 6.707,0.862 5.407,0.856 Z"/>
    </g>
</svg>
