<?xml version="1.0" encoding="utf-8"?>
<!-- Generator: Adobe Illustrator 22.0.1, SVG Export Plug-In . SVG Version: 6.00 Build 0)  -->
<svg version="1.1" id="Слой_1" xmlns="http://www.w3.org/2000/svg" xmlns:xlink="http://www.w3.org/1999/xlink" x="0px" y="0px"
	 viewBox="0 0 26 24" style="enable-background:new 0 0 26 24;" xml:space="preserve">
<style type="text/css">
	.st0{fill:#000000;stroke:#000000;stroke-width:1;}
</style>
<path class="st0" d="M6.9,1c3.4,0,4.9,1.6,6.1,3.8c0,0,0,0,0,0c0,0,0,0,0,0c0.1-0.1,0.1-0.2,0.2-0.3c0.2-0.3,0.4-0.7,0.6-1
	c0.6-0.8,1.4-1.6,2.4-2c0.4-0.2,0.9-0.3,1.4-0.4c1-0.3,2.4,0,3.1,0.3c2.3,0.8,3.5,2.4,4.2,5c0.1,0.3,0,0.6,0.1,1
	c0.1,0.3,0,0.8-0.1,1.1c-0.1,0.2,0,0.4-0.1,0.6c-0.2,0.7-0.3,1.4-0.6,2c-0.2,0.4-0.3,0.7-0.5,1c-0.3,0.5-0.6,0.9-0.9,1.3
	c-1,1.4-2.2,2.6-3.4,3.7c-1,0.9-1.9,1.9-3,2.8c-0.3,0.2-0.5,0.6-0.8,0.8c-0.6,0.4-1.1,1-1.6,1.5c-0.2,0.2-0.7,0.8-0.9,0.9
	c-0.1,0-0.2,0-0.3,0c-0.1-0.1-0.1-0.1-0.2-0.1c-0.3-0.2-0.4-0.5-0.7-0.7c-0.1-0.1-0.3-0.3-0.4-0.4c-0.3-0.3-0.6-0.6-1-0.9
	c-0.2-0.2-0.4-0.4-0.6-0.6c-0.6-0.4-1-1-1.6-1.4c-0.2-0.1-0.3-0.3-0.5-0.5c-0.7-0.6-1.3-1.3-2-1.9c-1.5-1.4-2.7-2.9-3.8-4.7
	c-0.2-0.3-0.3-0.6-0.4-1c-0.4-1-0.9-3-0.6-4.5c0.2-0.9,0.5-1.7,0.9-2.4c0.7-1.1,1.8-1.9,3.1-2.5c0.3-0.1,0.7-0.2,1.1-0.3
	C6.5,1,6.8,1.1,6.9,1z M7.2,2.1C7,2.2,6.7,2.1,6.6,2.1c-0.4,0.1-0.7,0.1-1,0.3C4.1,2.9,3.1,4,2.4,5.4c-0.6,1.4-0.3,3.7,0.2,4.9
	c0.5,1.3,1.3,2.3,2.1,3.4c0.3,0.4,0.6,0.6,0.9,1C6.1,15.1,6.5,15.6,7,16c0.2,0.2,0.4,0.5,0.7,0.7C8.4,17.3,9,18,9.8,18.6
	c0.3,0.2,0.5,0.5,0.8,0.7c0.5,0.4,1.1,0.9,1.5,1.4c0.2,0.2,0.8,0.9,1,0.9c0.1-0.1,0.2-0.2,0.4-0.3c0.2-0.2,0.4-0.4,0.7-0.6
	c0.1-0.1,0.2-0.3,0.3-0.4c0.5-0.4,0.8-0.8,1.3-1.2c0.2-0.1,0.3-0.3,0.5-0.5c0.6-0.5,1.2-1.1,1.8-1.6c0.2-0.2,0.3-0.4,0.5-0.6
	c0.2-0.2,0.4-0.3,0.6-0.5c0.1-0.1,0.2-0.2,0.2-0.3c0.4-0.3,0.8-0.7,1.1-1.1c0.1-0.1,0.3-0.3,0.4-0.4c0.2-0.3,0.5-0.6,0.7-0.9
	c0.8-1.1,1.6-2.3,2.1-3.8c0.1-0.4,0.1-0.8,0.2-1.2c0-0.2,0-0.5,0-0.7c0-0.6-0.1-1.2-0.2-1.7c-0.6-1.7-1.5-2.8-3-3.4
	c-0.6-0.3-1.7-0.6-2.6-0.4c-0.1,0-0.2,0-0.3,0c-0.4,0.1-0.7,0.1-1.1,0.3c-1,0.4-1.7,1.2-2.3,2.1c-0.3,0.4-0.6,0.9-0.8,1.4
	c-0.1,0.3-0.2,0.6-0.6,0.6c-0.1,0.1-0.4-0.1-0.5-0.2c-0.1-0.1-0.1-0.2-0.2-0.4c-0.2-0.4-0.4-0.8-0.7-1.2C10.8,3.2,9.6,2.1,7.2,2.1z"
	/>
</svg>
