<svg xmlns="http://www.w3.org/2000/svg" xmlns:xlink="http://www.w3.org/1999/xlink" width="20px" height="20px">
    <path fill-rule="evenodd"  fill="#000000"
        d="M0.682,-0.000 C5.470,-0.000 10.259,-0.000 15.047,-0.000 C16.188,-0.000 17.329,-0.000 18.470,-0.000 C18.758,-0.000 19.047,-0.000 19.335,-0.000 C19.383,0.014 19.441,0.019 19.490,0.037 C19.584,0.072 19.658,0.125 19.730,0.178 C19.757,0.198 19.790,0.218 19.810,0.244 C19.873,0.327 19.940,0.414 19.979,0.521 C19.979,0.648 19.979,0.775 19.979,0.901 C19.979,1.183 20.006,1.534 19.951,1.771 C19.948,1.808 19.945,1.846 19.942,1.883 C19.919,1.972 19.919,2.072 19.895,2.165 C19.825,2.429 19.792,2.701 19.706,2.949 C19.632,3.163 19.566,3.383 19.481,3.583 C19.458,3.636 19.450,3.687 19.424,3.738 C19.326,3.936 19.246,4.143 19.142,4.335 C18.976,4.643 18.793,4.939 18.597,5.218 C18.471,5.398 18.324,5.561 18.192,5.735 C18.140,5.804 18.066,5.859 18.014,5.927 C17.981,5.971 17.944,6.011 17.906,6.049 C17.890,6.064 17.874,6.078 17.859,6.092 C17.815,6.149 17.761,6.203 17.703,6.247 C17.670,6.281 17.638,6.316 17.605,6.350 C17.457,6.462 17.335,6.604 17.186,6.716 C17.144,6.748 17.111,6.797 17.069,6.829 C16.871,6.979 16.707,7.168 16.509,7.318 C16.498,7.330 16.487,7.343 16.476,7.355 C16.386,7.424 16.312,7.513 16.222,7.581 C16.009,7.741 15.833,7.946 15.620,8.107 C15.561,8.152 15.512,8.211 15.451,8.257 C15.377,8.313 15.315,8.388 15.240,8.445 C15.155,8.509 15.080,8.606 14.995,8.670 C14.812,8.809 14.661,8.983 14.478,9.121 C14.436,9.153 14.403,9.202 14.360,9.234 C14.285,9.291 14.223,9.366 14.149,9.422 C13.867,9.635 13.607,9.947 13.434,10.267 C13.333,10.455 13.262,10.660 13.190,10.878 C13.148,11.001 13.145,11.137 13.114,11.268 C13.100,11.330 13.119,11.385 13.105,11.451 C13.087,11.532 13.096,11.643 13.095,11.738 C13.095,12.009 13.095,12.279 13.095,12.550 C13.095,13.308 13.095,14.066 13.095,14.823 C13.095,15.158 13.095,15.494 13.095,15.829 C13.096,15.993 13.117,16.201 13.077,16.336 C12.975,16.676 12.765,16.782 12.503,16.956 C12.278,17.106 12.053,17.256 11.826,17.407 C10.961,17.982 10.097,18.560 9.230,19.136 C8.958,19.316 8.686,19.498 8.412,19.680 C8.278,19.769 8.137,19.893 7.980,19.953 C7.774,20.030 7.523,20.003 7.354,19.915 C7.147,19.807 7.006,19.652 6.936,19.408 C6.897,19.271 6.917,19.070 6.917,18.905 C6.917,18.583 6.917,18.260 6.917,17.938 C6.917,16.385 6.917,14.831 6.917,13.278 C6.917,12.822 6.917,12.367 6.917,11.911 C6.917,11.584 6.926,11.242 6.851,10.986 C6.777,10.730 6.704,10.494 6.588,10.281 C6.392,9.922 6.120,9.605 5.803,9.366 C5.776,9.345 5.755,9.311 5.728,9.290 C5.635,9.220 5.557,9.135 5.464,9.065 C5.407,9.022 5.362,8.958 5.304,8.915 C5.061,8.731 4.861,8.497 4.618,8.313 C4.533,8.250 4.458,8.152 4.373,8.088 C4.161,7.927 3.985,7.723 3.772,7.562 C3.712,7.517 3.663,7.457 3.602,7.412 C3.530,7.357 3.472,7.278 3.400,7.224 C3.232,7.097 3.093,6.937 2.925,6.810 C2.883,6.779 2.850,6.730 2.808,6.698 C2.605,6.545 2.413,6.350 2.234,6.171 C1.798,5.736 1.422,5.252 1.087,4.716 C0.940,4.480 0.819,4.223 0.692,3.969 C0.664,3.914 0.653,3.859 0.626,3.804 C0.470,3.490 0.374,3.131 0.259,2.776 C0.209,2.622 0.188,2.457 0.146,2.301 C0.097,2.116 0.096,1.918 0.052,1.728 C0.041,1.680 0.054,1.645 0.043,1.597 C0.027,1.525 0.031,1.430 0.015,1.357 C0.015,1.326 0.015,1.295 0.015,1.263 C0.004,1.214 0.019,1.123 0.005,1.075 C-0.008,1.031 -0.004,0.975 -0.004,0.911 C-0.004,0.739 -0.000,0.596 0.052,0.479 C0.130,0.304 0.265,0.159 0.433,0.075 C0.480,0.052 0.538,0.033 0.588,0.018 C0.620,0.009 0.659,0.017 0.682,-0.000 ZM8.483,17.750 C8.488,17.750 8.492,17.750 8.497,17.750 C8.512,17.729 8.536,17.722 8.558,17.707 C8.609,17.674 8.661,17.639 8.713,17.604 C8.873,17.498 9.032,17.392 9.193,17.285 C9.726,16.930 10.259,16.569 10.792,16.214 C10.971,16.094 11.150,15.975 11.328,15.857 C11.380,15.822 11.432,15.788 11.483,15.754 C11.497,15.744 11.527,15.736 11.534,15.721 C11.534,14.266 11.534,12.811 11.534,11.357 C11.554,11.324 11.534,11.269 11.544,11.225 C11.561,11.149 11.553,11.062 11.572,10.981 C11.589,10.911 11.590,10.834 11.610,10.760 C11.656,10.589 11.682,10.415 11.741,10.253 C11.878,9.879 12.034,9.541 12.230,9.229 C12.346,9.046 12.492,8.887 12.621,8.717 C12.648,8.681 12.692,8.655 12.719,8.619 C12.770,8.552 12.836,8.486 12.903,8.435 C12.920,8.417 12.937,8.398 12.954,8.379 C13.047,8.309 13.125,8.224 13.218,8.154 C13.260,8.122 13.293,8.073 13.335,8.041 C13.533,7.891 13.697,7.702 13.895,7.552 C13.906,7.540 13.917,7.528 13.928,7.515 C14.018,7.446 14.092,7.357 14.182,7.290 C14.440,7.095 14.652,6.845 14.910,6.650 C14.985,6.594 15.046,6.520 15.122,6.463 C15.207,6.399 15.282,6.301 15.367,6.237 C15.549,6.099 15.701,5.925 15.884,5.786 C15.926,5.755 15.959,5.705 16.001,5.674 C16.094,5.604 16.172,5.518 16.265,5.448 C16.292,5.428 16.313,5.394 16.340,5.373 C16.463,5.280 16.570,5.167 16.678,5.058 C16.920,4.817 17.147,4.556 17.346,4.274 C17.438,4.143 17.514,4.008 17.600,3.870 C17.811,3.530 17.975,3.149 18.127,2.747 C18.172,2.628 18.199,2.501 18.239,2.381 C18.247,2.358 18.241,2.343 18.249,2.320 C18.283,2.217 18.305,2.095 18.333,1.987 C18.346,1.940 18.340,1.902 18.352,1.855 C18.374,1.770 18.396,1.665 18.399,1.568 C18.361,1.556 18.295,1.564 18.249,1.564 C18.142,1.564 18.036,1.564 17.929,1.564 C17.576,1.564 17.224,1.564 16.871,1.564 C15.696,1.564 14.520,1.564 13.345,1.564 C9.436,1.564 5.527,1.564 1.618,1.564 C1.616,1.571 1.615,1.572 1.613,1.583 C1.634,1.616 1.622,1.671 1.632,1.714 C1.660,1.828 1.665,1.952 1.698,2.066 C1.773,2.326 1.823,2.595 1.924,2.827 C1.942,2.870 1.943,2.908 1.961,2.949 C2.158,3.399 2.354,3.825 2.620,4.203 C2.725,4.353 2.840,4.495 2.949,4.640 C3.003,4.713 3.072,4.774 3.127,4.847 C3.161,4.892 3.216,4.924 3.250,4.969 C3.302,5.038 3.369,5.105 3.438,5.157 C3.461,5.182 3.485,5.207 3.508,5.232 C3.574,5.282 3.630,5.342 3.696,5.392 C3.739,5.424 3.772,5.473 3.814,5.505 C3.967,5.620 4.094,5.765 4.246,5.880 C4.257,5.893 4.268,5.905 4.279,5.918 C4.357,5.977 4.422,6.047 4.500,6.106 C4.528,6.126 4.548,6.160 4.576,6.181 C4.788,6.342 4.964,6.546 5.177,6.707 C5.237,6.752 5.286,6.811 5.347,6.857 C5.436,6.925 5.510,7.014 5.601,7.083 C5.612,7.095 5.623,7.108 5.634,7.120 C5.724,7.189 5.798,7.278 5.887,7.346 C6.085,7.495 6.249,7.685 6.447,7.834 C6.489,7.866 6.522,7.915 6.564,7.947 C6.642,8.006 6.708,8.076 6.786,8.135 C6.813,8.155 6.834,8.190 6.861,8.210 C6.924,8.257 6.977,8.313 7.039,8.360 C7.055,8.378 7.071,8.395 7.086,8.412 C7.136,8.450 7.175,8.495 7.218,8.539 C7.283,8.604 7.350,8.666 7.406,8.741 C7.454,8.804 7.519,8.860 7.566,8.924 C7.710,9.120 7.852,9.324 7.970,9.544 C8.059,9.708 8.129,9.885 8.205,10.061 C8.291,10.258 8.331,10.485 8.394,10.704 C8.413,10.771 8.415,10.843 8.431,10.906 C8.464,11.038 8.448,11.190 8.478,11.324 C8.480,11.496 8.481,11.669 8.483,11.841 C8.483,12.199 8.483,12.558 8.483,12.916 C8.483,14.528 8.483,16.139 8.483,17.750 Z"/>
</svg>