<svg xmlns="http://www.w3.org/2000/svg" xmlns:xlink="http://www.w3.org/1999/xlink" width="16px" height="15px">
    <path fill-rule="evenodd"  fill="#000000"
        d="M3.135,-0.001 C3.651,-0.001 4.168,-0.001 4.685,-0.001 C5.050,-0.001 5.406,-0.020 5.708,0.058 C6.007,0.135 6.304,0.206 6.570,0.320 C7.364,0.665 8.121,1.345 8.485,2.118 C8.511,2.110 8.499,2.116 8.514,2.104 C8.604,2.009 8.648,1.865 8.719,1.753 C8.824,1.587 8.966,1.441 9.085,1.285 C9.246,1.072 9.557,0.854 9.786,0.701 C10.490,0.232 11.153,-0.001 12.344,-0.001 C12.861,-0.001 13.377,-0.001 13.894,-0.001 C13.997,0.037 14.116,0.117 14.172,0.204 C14.257,0.336 14.242,0.640 14.201,0.817 C14.163,0.984 14.189,1.131 14.142,1.285 C14.049,1.594 13.955,1.891 13.821,2.148 C13.216,3.307 12.388,3.978 10.970,4.326 C10.494,4.443 9.795,4.384 9.231,4.384 C9.231,4.374 9.231,4.365 9.231,4.355 C9.492,4.224 9.754,3.891 9.991,3.712 C10.488,3.338 10.931,2.908 11.423,2.528 C11.607,2.386 11.610,1.996 11.423,1.855 C11.030,1.558 10.674,2.002 10.459,2.206 C10.245,2.409 10.007,2.599 9.772,2.776 C9.512,2.972 9.290,3.221 9.026,3.419 C8.889,3.523 8.648,3.849 8.471,3.873 C8.402,3.771 8.276,3.698 8.178,3.624 C8.026,3.509 7.896,3.362 7.740,3.244 C7.636,3.165 7.551,3.045 7.447,2.967 C7.142,2.736 6.876,2.466 6.570,2.236 C6.466,2.157 6.382,2.036 6.278,1.958 C6.069,1.801 5.888,1.650 5.605,1.855 C5.579,1.874 5.551,1.874 5.532,1.899 C5.400,2.074 5.403,2.394 5.576,2.528 C6.069,2.907 6.512,3.338 7.009,3.712 C7.257,3.898 7.492,4.212 7.769,4.355 C7.769,4.365 7.769,4.374 7.769,4.384 C7.369,4.384 6.970,4.384 6.570,4.384 C6.491,4.338 6.147,4.355 6.029,4.326 C5.738,4.254 5.421,4.189 5.167,4.062 C4.350,3.658 3.762,3.120 3.296,2.367 C3.176,2.173 3.125,1.962 3.033,1.738 C2.914,1.450 2.819,1.090 2.813,0.701 C2.811,0.559 2.776,0.383 2.828,0.262 C2.859,0.191 2.941,0.098 3.004,0.058 C3.047,0.030 3.101,0.036 3.135,-0.001 ZM6.746,5.262 C6.746,5.856 6.746,6.450 6.746,7.045 C5.401,7.045 4.056,7.045 2.711,7.045 C2.280,7.045 1.407,7.128 1.162,6.943 C0.932,6.767 1.015,5.966 1.015,5.554 C1.015,5.408 1.015,5.262 1.015,5.115 C1.105,4.817 1.279,4.551 1.556,4.443 C1.891,4.312 2.604,4.384 3.047,4.384 C3.364,4.384 3.681,4.384 3.997,4.384 C4.045,4.404 4.100,4.472 4.144,4.502 C4.284,4.595 4.451,4.688 4.597,4.765 C5.159,5.057 5.912,5.255 6.746,5.262 ZM10.254,7.045 C10.254,6.450 10.254,5.856 10.254,5.262 C11.063,5.280 11.865,5.044 12.403,4.765 C12.549,4.688 12.716,4.595 12.856,4.502 C12.900,4.472 12.955,4.404 13.002,4.384 C13.319,4.384 13.636,4.384 13.952,4.384 C14.393,4.384 15.111,4.312 15.443,4.443 C15.721,4.552 15.893,4.815 15.984,5.115 C15.984,5.262 15.984,5.408 15.984,5.554 C15.984,5.966 16.068,6.768 15.838,6.943 C15.592,7.128 14.721,7.045 14.289,7.045 C12.944,7.045 11.599,7.045 10.254,7.045 ZM7.623,5.232 C8.207,5.232 8.792,5.232 9.377,5.232 C9.377,8.477 9.377,11.723 9.377,14.967 C8.792,14.967 8.207,14.967 7.623,14.967 C7.623,11.723 7.623,8.477 7.623,5.232 ZM1.893,7.922 C3.510,7.922 5.128,7.922 6.746,7.922 C6.746,10.271 6.746,12.620 6.746,14.967 C5.844,14.967 4.943,14.967 4.041,14.967 C3.227,14.967 2.681,14.996 2.273,14.588 C1.815,14.130 1.893,13.387 1.893,12.482 C1.893,10.963 1.893,9.442 1.893,7.922 ZM10.254,7.922 C11.872,7.922 13.490,7.922 15.107,7.922 C15.107,9.442 15.107,10.963 15.107,12.482 C15.107,13.387 15.184,14.130 14.727,14.588 C14.318,14.996 13.773,14.967 12.958,14.967 C12.057,14.967 11.155,14.967 10.254,14.967 C10.254,12.620 10.254,10.271 10.254,7.922 Z"/>
</svg>