<svg
        xmlns="http://www.w3.org/2000/svg"
        xmlns:xlink="http://www.w3.org/1999/xlink"
        width="10px" height="10px">
    <g>
        <path fill-rule="evenodd" fill="#000000"
              d="M2.606,0.019 C3.752,-0.006 4.614,0.552 4.984,1.337 C5.004,1.329 4.995,1.335 5.007,1.325 C5.049,1.278 5.065,1.209 5.100,1.154 C5.176,1.031 5.272,0.907 5.366,0.800 C5.645,0.483 6.047,0.271 6.479,0.116 C7.004,-0.071 7.732,0.042 8.172,0.214 C9.098,0.577 9.573,1.147 9.865,2.180 C9.956,2.497 10.045,3.037 9.958,3.437 C9.958,3.494 9.958,3.551 9.958,3.608 C9.934,3.719 9.942,3.851 9.912,3.974 C9.851,4.220 9.833,4.494 9.749,4.730 C9.111,6.535 7.976,7.870 6.607,8.906 C6.433,9.037 6.261,9.190 6.085,9.321 C5.877,9.475 5.656,9.594 5.436,9.736 C5.316,9.812 5.196,9.880 5.065,9.955 C5.054,9.962 5.030,10.000 5.018,10.004 C4.962,10.023 4.909,9.948 4.879,9.931 C4.764,9.864 4.659,9.804 4.555,9.736 C4.286,9.560 4.021,9.412 3.766,9.223 C3.592,9.094 3.426,8.940 3.256,8.808 C1.984,7.824 0.728,6.387 0.218,4.608 C0.057,4.047 -0.108,2.962 0.079,2.277 C0.346,1.299 0.815,0.642 1.644,0.264 C1.836,0.175 2.055,0.125 2.270,0.068 C2.370,0.042 2.529,0.074 2.606,0.019 Z"/>
    </g>
</svg>