<svg xmlns="http://www.w3.org/2000/svg" xmlns:xlink="http://www.w3.org/1999/xlink" width="16px" height="16px">
    <path fill="#000000"
        d="M1.749,0.006 C3.518,0.006 5.288,0.006 7.057,0.006 C7.764,0.006 8.307,-0.111 8.556,0.382 C8.609,0.488 8.663,0.660 8.618,0.821 C8.432,1.489 7.660,1.338 6.838,1.337 C5.537,1.337 4.236,1.337 2.935,1.337 C2.098,1.337 1.493,1.206 1.327,1.917 C1.327,5.023 1.327,8.130 1.327,11.236 C1.327,11.946 1.327,12.656 1.327,13.366 C1.327,13.795 1.305,14.190 1.483,14.431 C1.735,14.770 2.641,14.650 3.216,14.650 C4.824,14.650 6.433,14.650 8.041,14.650 C8.301,14.710 8.485,14.842 8.587,15.057 C8.767,15.439 8.474,15.851 8.212,15.950 C8.026,16.020 7.700,15.981 7.463,15.981 C6.937,15.981 6.412,15.981 5.886,15.981 C4.913,15.981 3.939,15.981 2.966,15.981 C2.563,15.981 1.894,16.042 1.561,15.950 C0.934,15.775 0.413,15.381 0.172,14.822 C0.094,14.641 0.053,14.431 -0.000,14.227 C-0.000,13.361 -0.000,12.494 -0.000,11.627 C-0.000,9.341 -0.000,7.054 -0.000,4.767 C-0.000,4.042 -0.000,3.316 -0.000,2.590 C-0.000,2.099 -0.018,1.619 0.125,1.275 C0.332,0.778 0.725,0.356 1.218,0.147 C1.342,0.095 1.655,0.068 1.749,0.006 ZM11.257,3.326 C11.393,3.335 11.537,3.362 11.631,3.421 C11.747,3.492 11.834,3.608 11.928,3.702 C12.115,3.890 12.303,4.078 12.490,4.266 C12.956,4.733 13.445,5.177 13.911,5.644 C14.307,6.042 14.684,6.471 15.098,6.850 C15.281,7.019 15.453,7.191 15.628,7.367 C15.741,7.480 15.867,7.575 15.941,7.727 C15.978,7.804 16.026,8.005 15.987,8.135 C15.897,8.437 15.383,8.909 15.144,9.090 C15.046,9.165 14.985,9.289 14.895,9.372 C14.661,9.588 14.432,9.805 14.208,10.030 C14.058,10.180 13.926,10.339 13.755,10.468 C13.547,10.682 13.338,10.896 13.130,11.110 C12.730,11.502 12.329,11.893 11.928,12.285 C11.708,12.506 11.364,12.828 10.944,12.567 C10.729,12.433 10.518,12.083 10.664,11.737 C10.738,11.558 10.924,11.413 11.054,11.283 C11.681,10.654 12.316,10.032 12.943,9.403 C13.112,9.234 13.289,9.072 13.458,8.902 C13.528,8.832 13.640,8.768 13.677,8.667 C13.666,8.667 13.656,8.667 13.646,8.667 C13.557,8.612 13.301,8.651 13.177,8.651 C12.771,8.651 12.365,8.651 11.959,8.651 C10.440,8.651 8.920,8.651 7.400,8.651 C7.026,8.651 6.651,8.651 6.276,8.651 C6.095,8.651 5.864,8.676 5.730,8.620 C5.499,8.524 5.367,8.327 5.308,8.056 C5.276,7.907 5.358,7.762 5.402,7.680 C5.479,7.536 5.576,7.431 5.730,7.367 C5.855,7.316 6.060,7.336 6.229,7.336 C6.563,7.336 6.896,7.336 7.229,7.336 C8.670,7.336 10.112,7.336 11.553,7.336 C12.022,7.336 12.490,7.336 12.959,7.336 C13.190,7.336 13.472,7.359 13.677,7.320 C13.677,7.310 13.677,7.299 13.677,7.289 C13.574,7.221 13.498,7.109 13.411,7.023 C13.247,6.858 13.076,6.702 12.912,6.537 C12.425,6.049 11.931,5.569 11.444,5.081 C11.219,4.855 10.722,4.472 10.632,4.157 C10.525,3.782 10.805,3.470 11.038,3.373 C11.103,3.347 11.200,3.362 11.257,3.326 Z"/>
</svg>