<?xml version="1.0" encoding="utf-8"?>
<!-- Generator: Adobe Illustrator 22.0.1, SVG Export Plug-In . SVG Version: 6.00 Build 0)  -->
<svg version="1.1" id="Слой_1" xmlns="http://www.w3.org/2000/svg" xmlns:xlink="http://www.w3.org/1999/xlink" x="0px" y="0px"
	 viewBox="0 0 10.1 5.9" style="enable-background:new 0 0 10.1 5.9;" xml:space="preserve">
<style type="text/css">
	.st0{fill:#FFFFFF;}
</style>
<path class="st0" d="M0.4,0C0.6,0,0.8,0,1,0c1,1,1.9,1.9,2.9,2.9C4.2,3.3,4.6,4,5.1,4.2c0.2-0.4,0.6-0.7,1-1C6.8,2.4,7.5,1.7,8.2,1
	C8.6,0.6,8.8,0,9.6,0c0.3,0.3,0.5,0.3,0.5,0.9c-1.6,1.7-3.2,3.3-4.8,5c-1,0-1.3-0.8-1.8-1.3C2.4,3.4,1.2,2.2,0,1
	c0-0.2,0-0.5,0.1-0.7C0.2,0.2,0.3,0.1,0.4,0z"/>
</svg>
