<svg
        xmlns="http://www.w3.org/2000/svg"
        xmlns:xlink="http://www.w3.org/1999/xlink"
        width="12px" height="11px">
    <g>
        <path fill-rule="evenodd" fill="#000000"
              d="M5.757,0.006 C8.370,-0.040 10.398,0.996 11.423,2.646 C11.648,3.008 11.805,3.409 11.931,3.888 C11.961,4.000 11.957,4.120 11.980,4.224 C11.980,4.298 11.980,4.370 11.980,4.444 C12.024,4.667 11.977,4.994 11.931,5.182 C11.903,5.295 11.914,5.373 11.883,5.479 C11.786,5.815 11.658,6.148 11.495,6.423 C10.753,7.682 9.532,8.430 8.045,8.895 C7.770,8.980 7.477,9.004 7.198,9.076 C7.054,9.113 6.905,9.095 6.774,9.128 C6.661,9.132 6.548,9.136 6.435,9.140 C6.334,9.164 6.181,9.153 6.060,9.153 C5.690,9.154 5.358,9.111 5.031,9.102 C4.980,9.176 4.894,9.228 4.825,9.283 C4.770,9.326 4.722,9.395 4.667,9.438 C4.502,9.569 4.336,9.681 4.159,9.800 C3.743,10.081 3.295,10.327 2.815,10.551 C2.554,10.673 2.288,10.708 2.004,10.809 C1.743,10.903 1.429,10.988 1.096,10.990 C1.064,10.952 1.014,10.945 0.975,10.913 C0.922,10.871 0.836,10.709 0.866,10.590 C0.934,10.319 1.318,10.030 1.471,9.813 C1.734,9.441 1.951,9.090 2.125,8.610 C2.175,8.473 2.246,8.320 2.270,8.157 C1.997,8.020 1.774,7.809 1.544,7.627 C0.988,7.187 0.580,6.614 0.261,5.919 C0.186,5.755 0.172,5.587 0.116,5.402 C0.023,5.101 -0.044,4.430 0.043,4.056 C0.090,3.852 0.122,3.638 0.188,3.448 C0.607,2.254 1.476,1.448 2.476,0.873 C3.068,0.533 3.744,0.349 4.474,0.149 C4.783,0.064 5.122,0.094 5.442,0.019 C5.535,-0.003 5.687,0.054 5.757,0.006 Z"/>
    </g>
</svg>