<svg xmlns="http://www.w3.org/2000/svg" xmlns:xlink="http://www.w3.org/1999/xlink" width="16px" height="20px">
    <path fill="#000000"
        d="M11.164,2.500 C11.717,2.500 12.271,2.500 12.824,2.500 C13.137,2.500 13.471,2.465 13.742,2.539 C14.349,2.703 14.852,3.022 15.148,3.496 C15.468,4.007 15.480,4.690 15.480,5.547 C15.480,6.360 15.480,7.174 15.480,7.988 C15.480,10.481 15.480,12.975 15.480,15.468 C15.480,16.495 15.616,18.132 15.266,18.808 C14.926,19.463 14.385,19.773 13.605,20.000 C12.518,20.000 11.431,20.000 10.344,20.000 C8.508,20.000 6.672,20.000 4.836,20.000 C4.016,20.000 3.195,20.000 2.375,20.000 C1.470,19.735 0.848,19.345 0.578,18.457 C0.470,18.101 0.500,17.607 0.500,17.148 C0.500,16.393 0.500,15.638 0.500,14.882 C0.500,12.363 0.500,9.843 0.500,7.324 C0.500,6.347 0.500,5.371 0.500,4.394 C0.620,3.934 0.764,3.586 1.008,3.261 C1.716,2.318 3.197,2.497 4.816,2.500 C4.838,2.281 4.901,2.051 4.953,1.855 C5.041,1.524 5.066,1.188 5.148,0.879 C5.250,0.495 5.235,0.188 5.559,0.039 C5.779,-0.063 6.386,-0.000 6.691,-0.000 C7.564,-0.000 8.436,-0.000 9.309,-0.000 C9.728,-0.000 10.291,-0.063 10.539,0.117 C10.746,0.267 10.735,0.489 10.812,0.781 C10.894,1.090 10.920,1.426 11.008,1.758 C11.067,1.983 11.144,2.250 11.164,2.500 ZM6.281,1.172 C6.173,1.485 6.176,1.830 6.086,2.168 C6.008,2.459 5.911,2.801 5.891,3.125 C6.148,3.210 6.871,3.144 7.199,3.144 C8.156,3.144 9.113,3.144 10.070,3.144 C10.081,3.113 10.086,3.097 10.090,3.047 C10.007,2.911 10.037,2.708 9.992,2.539 C9.920,2.271 9.868,1.947 9.797,1.679 C9.754,1.517 9.783,1.316 9.699,1.191 C9.699,1.184 9.699,1.178 9.699,1.172 C8.560,1.172 7.420,1.172 6.281,1.172 ZM2.648,3.672 C2.551,3.731 2.381,3.706 2.277,3.750 C2.090,3.828 1.883,4.007 1.789,4.179 C1.646,4.443 1.672,4.865 1.672,5.273 C1.672,5.976 1.672,6.679 1.672,7.382 C1.672,9.876 1.672,12.370 1.672,14.863 C1.672,15.644 1.672,16.426 1.672,17.207 C1.672,17.668 1.645,18.124 1.828,18.398 C1.939,18.564 2.154,18.716 2.355,18.789 C2.558,18.862 2.877,18.828 3.137,18.828 C3.651,18.828 4.165,18.828 4.680,18.828 C6.711,18.828 8.742,18.828 10.773,18.828 C11.398,18.828 12.023,18.828 12.648,18.828 C12.930,18.828 13.302,18.877 13.547,18.808 C14.411,18.566 14.309,17.816 14.309,16.738 C14.309,15.755 14.309,14.772 14.309,13.789 C14.309,11.458 14.309,9.127 14.309,6.797 C14.309,5.973 14.439,4.508 14.094,4.043 C13.699,3.510 12.343,3.667 11.418,3.672 C11.418,3.678 11.418,3.685 11.418,3.691 C11.411,3.691 11.405,3.691 11.398,3.691 C11.396,4.408 10.690,4.316 9.973,4.316 C8.840,4.316 7.707,4.316 6.574,4.316 C6.223,4.316 5.871,4.316 5.520,4.316 C5.350,4.310 5.181,4.303 5.012,4.297 C4.841,4.248 4.665,4.080 4.601,3.925 C4.565,3.837 4.616,3.741 4.543,3.691 C4.443,3.629 4.157,3.672 4.016,3.672 C3.560,3.672 3.104,3.672 2.648,3.672 ZM4.211,6.269 C5.487,6.269 6.763,6.269 8.039,6.269 C8.642,6.269 9.034,6.251 9.172,6.718 C9.186,6.767 9.226,6.838 9.211,6.914 C9.082,7.536 8.588,7.441 7.863,7.441 C6.991,7.441 6.118,7.441 5.246,7.441 C4.949,7.441 4.241,7.502 4.016,7.422 C3.672,7.298 3.532,6.793 3.781,6.464 C3.897,6.312 4.066,6.357 4.211,6.269 ZM4.113,9.414 C4.962,9.390 5.012,10.408 4.328,10.586 C3.919,10.692 3.516,10.204 3.664,9.804 C3.752,9.565 3.926,9.551 4.113,9.414 ZM7.258,9.414 C8.573,9.414 9.888,9.414 11.203,9.414 C11.812,9.414 12.127,9.364 12.297,9.824 C12.317,9.879 12.369,10.027 12.336,10.136 C12.178,10.652 11.723,10.586 11.066,10.586 C10.161,10.586 9.256,10.586 8.351,10.586 C8.027,10.586 7.355,10.655 7.121,10.546 C6.702,10.352 6.643,9.508 7.199,9.453 C7.214,9.439 7.243,9.427 7.258,9.414 ZM4.113,12.558 C4.615,12.541 4.999,12.954 4.719,13.417 C4.674,13.491 4.650,13.567 4.582,13.613 C4.225,13.855 3.849,13.667 3.703,13.379 C3.654,13.283 3.601,13.045 3.684,12.929 C3.735,12.739 3.893,12.694 4.016,12.578 C4.065,12.576 4.088,12.575 4.113,12.558 ZM7.238,12.558 C8.560,12.558 9.882,12.558 11.203,12.558 C11.785,12.558 12.134,12.530 12.297,12.949 C12.320,13.009 12.371,13.169 12.336,13.281 C12.184,13.770 11.689,13.730 11.047,13.730 C10.135,13.730 9.224,13.730 8.312,13.730 C7.904,13.730 7.282,13.806 7.023,13.633 C6.785,13.472 6.709,13.020 6.906,12.754 C6.984,12.649 7.129,12.635 7.238,12.558 ZM7.355,15.683 C8.638,15.683 9.921,15.683 11.203,15.683 C11.812,15.683 12.115,15.645 12.297,16.094 C12.320,16.151 12.366,16.295 12.336,16.406 C12.183,16.965 11.599,16.855 10.910,16.855 C10.038,16.855 9.165,16.855 8.293,16.855 C8.023,16.855 7.361,16.911 7.160,16.836 C6.889,16.734 6.632,16.288 6.867,15.937 C6.929,15.845 7.084,15.739 7.199,15.703 C7.257,15.685 7.317,15.706 7.355,15.683 ZM4.055,15.703 C4.469,15.689 4.706,15.816 4.797,16.113 C4.931,16.553 4.373,17.069 4.016,16.816 C3.825,16.765 3.780,16.607 3.664,16.484 C3.647,16.196 3.657,15.955 3.840,15.820 C3.906,15.771 3.994,15.756 4.055,15.703 Z"/>
</svg>