<svg xmlns="http://www.w3.org/2000/svg" xmlns:xlink="http://www.w3.org/1999/xlink" width="22px" height="22px">
    <path fill-rule="evenodd"  fill="rgb(123, 123, 123)"
        d="M1.396,20.605 C1.673,20.587 2.002,20.536 2.255,20.476 C2.576,20.401 2.910,20.415 3.199,20.348 C3.271,20.348 3.342,20.348 3.414,20.348 C3.807,20.256 4.279,20.241 4.680,20.155 C5.103,20.064 5.571,20.493 5.431,20.948 C5.253,21.529 4.702,21.364 4.101,21.505 C3.357,21.681 2.503,21.676 1.761,21.848 C1.450,21.921 1.133,21.898 0.860,21.977 C0.423,22.103 0.111,21.750 0.023,21.505 C-0.046,21.314 0.053,21.022 0.087,20.884 C0.192,20.462 0.137,20.048 0.237,19.619 C0.530,18.365 0.500,16.947 0.795,15.695 C0.906,15.227 0.835,14.570 1.010,14.173 C1.076,14.023 1.243,13.919 1.353,13.809 C1.611,13.551 1.869,13.294 2.126,13.037 C2.992,12.172 3.857,11.307 4.723,10.443 C6.919,8.249 9.116,6.055 11.312,3.861 C11.963,3.210 12.614,2.560 13.265,1.910 C13.706,1.469 14.137,0.978 14.703,0.666 C15.046,0.477 15.429,0.324 15.819,0.194 C16.094,0.103 16.421,0.094 16.699,0.023 C16.931,-0.037 17.492,0.024 17.665,0.066 C17.906,0.125 18.087,0.088 18.308,0.151 C18.938,0.331 19.505,0.588 19.983,0.923 C20.802,1.498 21.418,2.364 21.785,3.389 C21.863,3.606 21.857,3.793 21.914,4.032 C22.031,4.517 22.051,5.358 21.914,5.854 C21.806,6.247 21.699,6.649 21.528,6.991 C21.151,7.742 20.588,8.272 20.025,8.835 C19.396,9.463 18.766,10.092 18.137,10.721 C15.869,12.987 13.601,15.252 11.333,17.518 C10.496,18.354 9.659,19.190 8.822,20.026 C8.579,20.269 8.042,20.937 7.728,21.034 C7.596,21.074 7.355,21.031 7.277,20.991 C7.132,20.916 7.024,20.760 6.912,20.648 C6.647,20.383 6.383,20.119 6.118,19.855 C5.152,18.897 4.186,17.939 3.221,16.982 C2.949,16.710 2.677,16.438 2.405,16.167 C2.298,16.060 2.193,15.879 2.040,15.824 C1.826,17.417 1.611,19.011 1.396,20.605 ZM16.892,1.288 C16.774,1.356 16.364,1.341 16.205,1.395 C15.877,1.506 14.994,1.866 14.875,2.124 C16.112,3.353 17.350,4.582 18.587,5.812 C18.902,6.126 19.217,6.440 19.532,6.755 C19.650,6.873 19.773,7.081 19.940,7.141 C19.940,7.134 19.940,7.127 19.940,7.119 C20.614,6.477 20.977,4.819 20.541,3.646 C20.024,2.260 18.815,1.288 16.892,1.288 ZM13.930,3.003 C11.112,5.826 8.293,8.649 5.474,11.472 C4.766,12.179 4.058,12.887 3.349,13.594 C3.172,13.771 2.563,14.273 2.491,14.473 C3.006,14.981 3.521,15.488 4.036,15.995 C4.179,16.138 4.431,16.486 4.616,16.553 C7.434,13.730 10.253,10.907 13.072,8.084 C13.780,7.377 14.488,6.669 15.196,5.962 C15.374,5.784 15.983,5.283 16.055,5.083 C16.048,5.083 16.041,5.083 16.034,5.083 C15.952,4.891 15.738,4.796 15.604,4.654 C15.229,4.253 14.834,3.883 14.445,3.496 C14.294,3.345 14.153,3.071 13.930,3.003 ZM16.956,6.005 C14.145,8.820 11.333,11.636 8.522,14.452 C7.792,15.181 7.062,15.910 6.333,16.639 C6.182,16.789 5.553,17.323 5.517,17.496 C6.018,17.989 6.519,18.482 7.019,18.975 C7.158,19.114 7.397,19.446 7.577,19.512 C10.389,16.696 13.201,13.880 16.012,11.064 C16.742,10.335 17.471,9.606 18.201,8.877 C18.352,8.727 18.980,8.193 19.017,8.020 C18.509,7.520 18.001,7.019 17.493,6.519 C17.327,6.353 17.171,6.116 16.956,6.005 Z"/>
</svg>