<svg
        xmlns="http://www.w3.org/2000/svg"
        xmlns:xlink="http://www.w3.org/1999/xlink"
        width="17px" height="16px">

    <g>
        <path fill="#000000"
              d="M3.373,0.004 C3.643,0.005 3.870,0.013 4.027,0.126 C4.339,0.351 4.543,0.896 4.734,1.255 C4.998,1.751 5.243,2.263 5.535,2.736 C5.656,2.933 5.815,3.115 5.935,3.308 C6.133,3.626 6.342,4.053 6.122,4.490 C5.924,4.883 5.391,5.294 5.041,5.551 C4.947,5.620 4.866,5.725 4.774,5.796 C4.612,5.921 4.256,6.181 4.254,6.448 C4.301,6.505 4.299,6.594 4.334,6.666 C4.372,6.742 4.420,6.832 4.468,6.910 C4.761,7.391 5.031,7.904 5.348,8.364 C6.130,9.499 7.107,10.431 8.270,11.179 C8.370,11.244 8.473,11.338 8.577,11.397 C8.761,11.501 8.946,11.583 9.124,11.696 C9.312,11.815 9.504,11.999 9.791,12.009 C9.843,11.957 9.920,11.931 9.978,11.886 C10.000,11.855 10.022,11.823 10.045,11.791 C10.154,11.667 10.293,11.558 10.392,11.424 C10.723,10.974 11.221,10.238 11.766,10.037 C12.160,9.891 12.553,10.141 12.793,10.296 C12.938,10.389 13.074,10.516 13.220,10.608 C13.493,10.781 13.776,10.912 14.061,11.071 C14.349,11.230 14.641,11.426 14.928,11.587 C15.273,11.781 15.815,11.977 15.969,12.349 C16.083,12.622 16.009,13.090 15.942,13.354 C15.850,13.721 15.809,14.047 15.675,14.361 C15.498,14.775 15.149,15.099 14.795,15.339 C14.641,15.444 14.478,15.537 14.314,15.638 C14.267,15.667 14.206,15.726 14.154,15.747 C14.089,15.774 13.972,15.765 13.927,15.734 C13.735,15.680 13.646,15.350 13.821,15.204 C13.933,15.109 14.083,15.065 14.208,14.986 C14.386,14.873 14.560,14.734 14.728,14.605 C15.176,14.261 15.402,13.388 15.408,12.594 C15.251,12.502 15.118,12.357 14.955,12.267 C14.849,12.209 14.738,12.189 14.635,12.131 C14.077,11.817 13.497,11.517 12.953,11.179 C12.696,11.019 12.321,10.635 11.953,10.635 C11.916,10.682 11.853,10.695 11.806,10.730 C11.646,10.889 11.486,11.048 11.326,11.207 C11.176,11.408 11.022,11.601 10.872,11.805 C10.814,11.883 10.717,11.943 10.658,12.022 C10.449,12.304 10.216,12.541 9.818,12.634 C9.611,12.682 9.325,12.520 9.204,12.457 C8.748,12.217 8.318,11.941 7.897,11.669 C6.454,10.739 5.351,9.540 4.441,8.066 C4.312,7.857 4.200,7.630 4.067,7.413 C3.884,7.112 3.713,6.851 3.627,6.434 C3.610,6.352 3.651,6.269 3.667,6.217 C3.755,5.921 3.842,5.831 4.027,5.646 C4.299,5.374 4.584,5.134 4.895,4.898 C5.006,4.814 5.092,4.683 5.201,4.599 C5.354,4.481 5.581,4.283 5.615,4.055 C5.562,3.974 5.554,3.867 5.508,3.783 C5.347,3.489 5.112,3.226 4.948,2.927 C4.671,2.420 4.425,1.887 4.121,1.404 C3.997,1.208 3.818,0.630 3.547,0.629 C3.470,0.676 3.339,0.632 3.240,0.656 C3.065,0.699 2.885,0.713 2.706,0.766 C2.130,0.933 1.842,1.100 1.532,1.540 C1.223,1.980 0.980,2.468 0.785,3.021 C0.721,3.203 0.724,3.377 0.678,3.579 C0.623,3.821 0.594,4.199 0.651,4.463 C0.651,4.518 0.651,4.572 0.651,4.626 C0.731,4.967 0.783,5.298 0.892,5.619 C1.013,5.975 1.162,6.343 1.292,6.693 C1.514,7.292 1.703,7.849 1.986,8.379 C2.628,9.581 3.552,10.668 4.468,11.600 C5.170,12.316 5.899,13.008 6.722,13.599 C7.227,13.961 7.766,14.285 8.337,14.578 C8.735,14.782 9.195,14.932 9.618,15.095 C9.818,15.171 10.016,15.240 10.205,15.312 C10.332,15.361 10.480,15.373 10.552,15.475 C10.601,15.546 10.607,15.636 10.605,15.761 C10.486,15.898 10.488,15.996 10.218,15.992 C10.140,15.910 9.971,15.900 9.858,15.856 C9.598,15.755 9.330,15.663 9.057,15.557 C8.286,15.258 7.561,14.929 6.909,14.510 C5.889,13.853 4.982,13.036 4.147,12.185 C3.405,11.428 2.734,10.644 2.119,9.752 C1.921,9.464 1.702,9.170 1.532,8.854 C1.285,8.393 1.055,7.896 0.865,7.387 C0.809,7.236 0.788,7.101 0.732,6.951 C0.602,6.604 0.457,6.241 0.331,5.890 C0.212,5.557 0.153,5.209 0.064,4.857 C-0.002,4.595 -0.031,4.035 0.038,3.756 C0.090,3.542 0.061,3.343 0.118,3.144 C0.277,2.588 0.462,2.091 0.732,1.649 C1.038,1.145 1.393,0.609 1.946,0.357 C2.230,0.228 2.567,0.174 2.880,0.085 C3.009,0.049 3.280,0.070 3.373,0.004 Z"/>
    </g>
</svg>