<svg xmlns="http://www.w3.org/2000/svg" xmlns:xlink="http://www.w3.org/1999/xlink" width="11px" height="15px">
    <g>
        <path fill="#000000"
              d="M5.633,0.003 C8.225,-0.045 9.686,1.157 10.530,2.781 C10.743,3.190 10.836,3.615 10.964,4.123 C11.011,4.311 10.948,4.498 10.993,4.703 C11.030,4.874 11.003,5.163 10.964,5.326 C10.925,5.489 10.949,5.616 10.906,5.768 C10.633,6.727 10.200,7.459 9.765,8.256 C9.212,9.269 8.710,10.307 8.161,11.311 C7.680,12.192 7.250,13.093 6.774,13.966 C6.653,14.188 6.545,14.413 6.428,14.630 C6.358,14.756 6.313,14.897 6.182,14.961 C5.978,15.062 5.727,14.936 5.648,14.823 C5.576,14.722 5.548,14.600 5.489,14.492 C5.322,14.183 5.168,13.865 4.997,13.551 C4.880,13.335 4.771,13.110 4.651,12.888 C4.600,12.794 4.522,12.692 4.492,12.584 C4.420,12.330 4.674,12.155 4.839,12.113 C4.936,12.088 5.006,12.134 5.084,12.140 C5.125,12.192 5.203,12.214 5.243,12.265 C5.489,12.740 5.734,13.215 5.980,13.689 C6.005,13.681 5.994,13.687 6.009,13.676 C6.077,13.602 6.103,13.491 6.153,13.399 C6.271,13.183 6.379,12.958 6.500,12.735 C6.881,12.034 7.225,11.314 7.612,10.607 C8.107,9.701 8.560,8.769 9.057,7.855 C9.410,7.206 9.781,6.570 10.039,5.837 C10.275,5.168 10.179,4.124 9.953,3.542 C9.482,2.328 8.681,1.480 7.424,1.026 C7.179,0.937 6.908,0.896 6.644,0.832 C6.596,0.832 6.548,0.832 6.500,0.832 C5.909,0.704 5.154,0.840 4.708,0.998 C4.554,1.053 4.417,1.069 4.275,1.136 C3.227,1.633 2.488,2.361 2.065,3.459 C1.936,3.794 1.716,4.539 1.834,5.035 C1.834,5.100 1.834,5.164 1.834,5.229 C1.914,5.552 1.950,5.867 2.065,6.155 C2.306,6.763 2.654,7.324 2.960,7.882 C3.183,8.290 3.362,8.694 3.582,9.100 C3.664,9.252 3.741,9.411 3.827,9.570 C3.849,9.610 3.900,9.665 3.914,9.708 C4.011,9.995 3.748,10.183 3.582,10.234 C3.423,10.280 3.229,10.164 3.177,10.095 C3.092,9.983 3.058,9.848 2.989,9.721 C2.839,9.446 2.695,9.161 2.541,8.878 C2.269,8.377 2.024,7.864 1.747,7.358 C1.603,7.093 1.429,6.817 1.314,6.528 C1.218,6.290 1.157,6.030 1.082,5.782 C1.073,5.699 1.063,5.615 1.054,5.532 C0.942,5.094 0.957,4.229 1.082,3.805 C1.163,3.530 1.225,3.241 1.342,2.989 C1.905,1.788 2.794,0.890 4.058,0.362 C4.348,0.241 4.675,0.168 4.997,0.085 C5.131,0.051 5.545,0.056 5.633,0.003 Z"/>
    </g>
</svg>