<svg xmlns="http://www.w3.org/2000/svg" xmlns:xlink="http://www.w3.org/1999/xlink" width="18px" height="21px">
    <path fill="#000000"
        d="M8.414,-0.000 C8.897,-0.007 9.428,-0.029 9.820,0.078 C11.585,0.560 12.767,1.531 13.375,3.164 C13.747,4.163 13.768,5.687 13.336,6.660 C12.809,7.846 11.888,8.773 10.699,9.297 C10.322,9.463 9.887,9.508 9.449,9.609 C9.345,9.609 9.241,9.609 9.137,9.609 C8.371,9.772 7.298,9.413 6.832,9.179 C5.737,8.631 4.795,7.768 4.352,6.582 C4.277,6.382 4.260,6.216 4.195,5.996 C4.064,5.553 3.949,4.697 4.078,4.140 C4.168,3.754 4.222,3.390 4.352,3.047 C4.793,1.874 5.857,0.839 6.988,0.351 C7.270,0.230 7.598,0.155 7.906,0.078 C8.072,0.036 8.292,0.085 8.414,-0.000 ZM8.590,1.172 C8.474,1.242 8.264,1.194 8.121,1.230 C7.885,1.290 7.634,1.351 7.418,1.445 C6.507,1.840 5.759,2.622 5.406,3.574 C5.333,3.770 5.298,3.994 5.250,4.199 C5.140,4.667 5.214,5.319 5.328,5.703 C5.380,5.879 5.382,6.009 5.445,6.172 C5.793,7.072 6.608,7.854 7.516,8.203 C7.921,8.359 8.750,8.579 9.371,8.437 C9.645,8.375 9.923,8.335 10.172,8.242 C11.065,7.906 11.872,7.092 12.242,6.230 C12.356,5.965 12.407,5.653 12.477,5.351 C12.597,4.831 12.452,4.052 12.320,3.691 C11.893,2.520 11.090,1.644 9.859,1.289 C9.482,1.180 9.063,1.172 8.590,1.172 ZM4.703,9.668 C4.881,9.664 5.124,9.636 5.269,9.687 C5.841,9.886 6.285,10.345 6.793,10.625 C7.160,10.827 7.617,10.972 8.043,11.094 C8.277,11.160 8.523,11.136 8.766,11.191 C9.062,11.258 9.586,11.152 9.801,11.094 C9.957,11.051 10.065,11.066 10.211,11.015 C10.849,10.795 11.396,10.498 11.910,10.156 C12.291,9.903 12.735,9.513 13.473,9.687 C13.905,9.789 14.310,9.861 14.664,10.039 C15.778,10.600 16.422,11.684 16.851,12.929 C17.002,13.364 17.051,13.839 17.164,14.297 C17.177,14.433 17.190,14.570 17.203,14.707 C17.259,14.943 17.244,15.256 17.301,15.508 C17.301,15.605 17.301,15.703 17.301,15.800 C17.339,15.975 17.320,16.237 17.320,16.445 C17.320,17.502 17.063,18.190 16.617,18.789 C16.185,19.369 15.493,19.695 14.703,19.922 C14.138,20.084 13.315,20.000 12.633,20.000 C11.305,20.000 9.976,20.000 8.648,20.000 C7.457,20.000 6.265,20.000 5.074,20.000 C4.396,20.000 3.608,20.054 3.082,19.882 C1.914,19.502 1.252,18.912 0.836,17.773 C0.687,17.366 0.641,16.906 0.641,16.328 C0.641,16.146 0.641,15.963 0.641,15.781 C0.747,15.317 0.684,14.792 0.797,14.336 C1.003,13.505 1.131,12.703 1.480,12.031 C1.964,11.100 2.525,10.429 3.473,9.961 C3.698,9.849 3.985,9.796 4.234,9.726 C4.377,9.686 4.586,9.741 4.703,9.668 ZM4.742,10.839 C4.641,10.902 4.475,10.863 4.352,10.898 C4.210,10.939 4.044,10.993 3.902,11.054 C3.209,11.355 2.738,12.042 2.437,12.734 C2.185,13.315 2.095,13.987 1.930,14.668 C1.843,15.025 1.889,15.424 1.832,15.800 C1.832,15.937 1.832,16.074 1.832,16.211 C1.786,16.427 1.807,16.781 1.851,16.972 C1.894,17.153 1.872,17.284 1.930,17.441 C2.145,18.026 2.572,18.440 3.141,18.672 C3.655,18.881 4.440,18.828 5.152,18.828 C6.389,18.828 7.626,18.828 8.863,18.828 C10.054,18.828 11.246,18.828 12.437,18.828 C14.074,18.828 15.195,18.899 15.836,17.871 C16.061,17.509 16.270,16.676 16.129,16.035 C16.129,15.905 16.129,15.774 16.129,15.644 C16.114,15.487 16.102,15.257 16.070,15.117 C16.070,15.039 16.070,14.961 16.070,14.882 C15.984,14.539 15.976,14.157 15.875,13.808 C15.546,12.670 15.123,11.590 14.156,11.094 C13.879,10.951 13.567,10.916 13.219,10.839 C13.000,10.791 12.912,10.911 12.809,10.976 C12.547,11.141 12.300,11.305 12.047,11.465 C11.519,11.798 10.887,12.022 10.230,12.226 C10.025,12.290 9.868,12.255 9.644,12.304 C9.432,12.352 9.034,12.423 8.766,12.363 C8.567,12.319 8.344,12.356 8.141,12.304 C7.480,12.137 6.809,11.995 6.285,11.679 C6.012,11.515 5.735,11.350 5.465,11.172 C5.243,11.025 5.114,10.843 4.742,10.839 Z"/>
</svg>