<svg xmlns="http://www.w3.org/2000/svg" xmlns:xlink="http://www.w3.org/1999/xlink" width="9px" height="14px">
    <path fill="#4ea056"
        d="M-0.006,-0.000 C2.998,-0.000 6.002,-0.000 9.006,-0.000 C9.006,4.664 9.006,9.330 9.006,13.994 C8.991,13.994 8.976,13.994 8.962,13.994 C8.911,13.896 8.771,13.815 8.682,13.748 C8.438,13.564 8.244,13.324 7.990,13.145 C7.741,12.970 7.550,12.720 7.298,12.543 C7.224,12.470 7.150,12.397 7.077,12.324 C6.824,12.146 6.634,11.896 6.385,11.721 C6.110,11.528 5.848,11.289 5.604,11.064 C5.350,10.830 5.077,10.614 4.824,10.379 C4.749,10.310 4.585,10.119 4.470,10.106 C4.420,10.202 4.289,10.269 4.205,10.338 C3.975,10.529 3.777,10.752 3.528,10.927 C3.479,10.977 3.430,11.028 3.381,11.078 C3.281,11.170 3.170,11.258 3.057,11.338 C2.983,11.411 2.910,11.484 2.836,11.557 C2.662,11.680 2.524,11.832 2.350,11.954 C2.281,12.023 2.213,12.091 2.144,12.159 C1.969,12.282 1.834,12.437 1.673,12.570 C1.496,12.717 1.313,12.856 1.143,13.008 C0.855,13.266 0.579,13.551 0.259,13.775 C0.170,13.838 0.121,13.969 -0.006,13.994 C-0.006,9.330 -0.006,4.664 -0.006,-0.000 Z"/>
</svg>