<svg
        xmlns="http://www.w3.org/2000/svg"
        xmlns:xlink="http://www.w3.org/1999/xlink"
        width="51px" height="61px">
    <g>
        <path fill="#4ea056"
              d="M23.476,0.003 C27.388,-0.058 30.707,0.339 33.618,1.244 C34.424,1.494 35.926,1.718 36.515,2.146 C37.091,2.565 36.927,3.411 37.184,4.178 C37.308,4.547 37.533,5.023 37.741,5.363 C38.603,6.772 40.156,7.741 41.642,8.523 C43.291,9.390 45.261,9.833 47.214,10.385 C48.287,10.689 49.459,10.516 49.888,11.457 C50.173,12.080 49.894,13.000 49.888,13.714 C49.851,15.462 49.814,17.212 49.777,18.961 C49.666,19.710 49.665,20.561 49.665,21.388 C49.665,21.764 49.665,22.140 49.665,22.517 C49.499,23.288 49.554,24.244 49.554,25.112 C49.554,25.431 49.554,25.752 49.554,26.071 C49.390,26.826 49.443,27.758 49.443,28.610 C49.443,28.930 49.443,29.250 49.443,29.569 C49.278,30.324 49.331,31.256 49.331,32.109 C49.331,32.428 49.331,32.747 49.331,33.069 C49.185,33.735 49.384,34.538 49.220,35.268 C48.864,36.852 48.820,38.414 48.328,39.839 C45.800,47.158 40.880,52.156 34.899,55.977 C32.002,57.828 28.877,59.653 25.426,60.942 C24.965,61.115 24.536,60.803 24.312,60.717 C23.560,60.429 22.909,60.200 22.250,59.870 C21.366,59.427 20.489,59.152 19.631,58.685 C17.737,57.652 15.880,56.515 14.171,55.299 C9.456,51.948 5.532,48.137 2.859,42.716 C2.005,40.985 1.612,39.024 1.076,36.961 C0.769,35.780 1.010,34.371 0.742,33.124 C0.597,32.452 0.815,31.582 0.686,30.980 C0.595,30.559 0.706,29.977 0.630,29.625 C0.630,29.306 0.630,28.986 0.630,28.667 C0.630,27.813 0.681,26.883 0.519,26.128 C0.519,25.394 0.519,24.660 0.519,23.927 C0.198,22.434 0.433,20.488 0.296,18.961 C0.236,18.300 0.363,17.502 0.240,16.930 C0.240,16.479 0.240,16.027 0.240,15.576 C0.107,14.956 0.334,14.065 0.184,13.376 C0.108,13.023 -0.086,12.186 0.073,11.740 C0.529,10.458 1.544,10.742 2.859,10.385 C4.575,9.918 6.380,9.552 7.874,8.805 C9.564,7.960 11.363,6.936 12.332,5.363 C12.541,5.024 12.764,4.547 12.889,4.178 C13.183,3.307 12.986,2.430 13.725,2.034 C14.217,1.769 14.794,1.782 15.341,1.582 C16.817,1.043 18.523,0.742 20.189,0.341 C21.037,0.136 21.916,0.244 22.752,0.059 C22.997,0.004 23.307,0.111 23.476,0.003 ZM15.564,4.290 C15.474,5.406 14.829,6.312 14.338,7.055 C12.763,9.439 10.118,10.889 7.261,11.965 C6.277,12.335 5.206,12.560 4.196,12.867 C3.817,12.982 3.052,12.908 2.859,13.206 C2.723,13.469 2.914,15.616 2.915,16.140 C2.916,17.368 2.833,19.190 3.082,20.315 C3.082,20.767 3.082,21.219 3.082,21.670 C3.082,22.447 3.129,23.260 3.193,23.983 C3.193,24.680 3.193,25.376 3.193,26.071 C3.280,26.463 3.291,27.185 3.305,27.594 C3.326,28.234 3.241,29.024 3.361,29.569 C3.453,29.990 3.339,30.573 3.416,30.924 C3.564,31.595 3.339,32.466 3.472,33.069 C3.472,33.462 3.472,33.858 3.472,34.253 C3.694,35.253 3.594,36.283 3.862,37.243 C5.951,44.713 10.399,49.450 16.065,53.269 C18.144,54.668 20.291,55.863 22.640,57.048 C23.251,57.357 23.858,57.609 24.535,57.896 C24.683,57.957 24.897,58.186 25.148,58.121 C25.771,57.960 26.486,57.500 27.042,57.218 C27.805,56.832 28.531,56.607 29.271,56.202 C30.406,55.583 31.546,54.855 32.615,54.171 C37.670,50.936 42.489,46.815 44.985,41.024 C45.650,39.480 45.987,37.803 46.434,36.001 C46.434,35.814 46.434,35.626 46.434,35.438 C46.636,34.538 46.656,33.318 46.656,32.278 C46.656,31.789 46.656,31.299 46.656,30.811 C46.821,30.056 46.768,29.124 46.768,28.271 C46.768,27.952 46.768,27.632 46.768,27.312 C46.932,26.558 46.879,25.626 46.879,24.773 C46.879,24.453 46.879,24.134 46.879,23.814 C47.044,23.061 46.991,22.121 46.991,21.275 C46.991,20.956 46.991,20.635 46.991,20.315 C47.067,19.964 46.955,19.382 47.047,18.961 C47.150,18.489 47.098,17.777 47.102,17.212 C47.158,15.877 47.214,14.541 47.269,13.206 C47.135,13.132 47.112,13.104 46.879,13.093 C46.483,12.830 45.877,12.905 45.375,12.754 C44.650,12.536 43.829,12.362 43.090,12.077 C40.324,11.013 37.693,9.732 36.069,7.507 C35.446,6.652 34.614,5.635 34.509,4.290 C34.030,4.226 33.535,3.984 33.116,3.840 C32.385,3.587 31.593,3.475 30.887,3.275 C29.515,2.884 27.993,3.042 26.541,2.711 C26.009,2.589 23.990,2.664 23.532,2.767 C23.049,2.786 22.566,2.805 22.083,2.824 C21.146,3.041 20.129,3.007 19.186,3.275 C18.480,3.475 17.688,3.587 16.957,3.840 C16.534,3.985 16.046,4.214 15.564,4.290 ZM18.907,6.830 C19.167,6.848 19.427,6.868 19.687,6.887 C19.851,7.084 20.154,7.178 20.300,7.394 C20.383,7.516 20.373,7.633 20.467,7.733 C20.563,9.403 19.331,10.485 18.573,11.513 C18.282,11.907 17.943,12.459 17.458,12.642 C17.138,12.762 16.790,12.662 16.455,12.642 C16.310,12.456 16.036,12.382 15.898,12.191 C15.802,12.058 15.784,11.909 15.675,11.796 C15.620,10.360 16.508,9.972 17.124,9.086 C17.513,8.528 17.719,7.838 18.127,7.282 C18.255,7.106 18.527,7.036 18.684,6.887 C18.814,6.875 18.842,6.875 18.907,6.830 ZM13.613,12.585 C14.981,12.572 15.816,13.939 14.839,14.899 C14.573,15.160 14.221,15.257 13.892,15.463 C12.910,16.079 11.796,16.614 10.716,17.156 C10.189,17.420 9.508,17.440 9.044,17.776 C8.911,17.984 8.981,18.591 8.988,18.904 C9.169,19.194 9.100,20.849 9.100,21.332 C9.100,23.113 9.717,25.181 8.264,25.732 C7.884,25.876 7.409,25.846 7.094,25.620 C6.250,25.012 6.425,22.691 6.425,21.275 C6.388,20.071 6.351,18.867 6.314,17.664 C6.314,17.169 6.232,16.461 6.425,16.140 C6.871,15.398 7.931,15.367 8.766,15.012 C10.229,14.390 11.625,13.719 12.889,12.924 C13.116,12.781 13.397,12.746 13.613,12.585 ZM24.312,17.438 C30.930,17.349 34.809,20.894 36.738,25.563 C37.836,28.220 37.939,32.361 36.738,35.043 C35.202,38.473 32.693,40.973 29.104,42.322 C28.158,42.678 27.117,42.708 26.039,42.942 C25.488,43.062 24.498,42.988 24.033,42.886 C23.533,42.776 23.163,42.893 22.696,42.773 C21.646,42.501 20.656,42.188 19.799,41.758 C16.240,39.974 14.118,37.614 12.889,33.462 C12.502,32.157 12.148,29.834 12.555,28.159 C12.730,27.438 12.857,26.649 13.112,25.958 C14.406,22.448 16.855,19.902 20.133,18.398 C20.943,18.025 21.905,17.840 22.808,17.607 C23.183,17.510 24.034,17.613 24.312,17.438 ZM24.423,20.147 C24.074,20.358 23.442,20.200 23.030,20.315 C22.443,20.479 21.800,20.645 21.247,20.880 C18.682,21.976 16.661,24.059 15.675,26.748 C15.478,27.286 15.364,27.889 15.229,28.441 C14.906,29.764 15.133,31.659 15.452,32.729 C16.420,35.973 18.104,37.850 20.857,39.275 C21.975,39.853 23.279,40.234 24.981,40.234 C25.296,40.234 25.612,40.234 25.928,40.234 C26.627,40.079 27.339,40.064 27.990,39.839 C30.754,38.886 32.837,36.990 34.063,34.478 C35.221,32.108 35.205,28.465 34.063,26.128 C32.337,22.593 29.633,20.147 24.423,20.147 ZM30.274,24.717 C31.220,24.739 32.163,25.662 31.612,26.748 C31.246,27.469 30.415,28.323 29.940,29.005 C28.696,30.790 27.454,32.551 26.207,34.310 C25.703,35.019 25.312,36.092 24.368,36.341 C24.029,36.430 23.815,36.255 23.532,36.228 C23.031,35.739 22.529,35.249 22.027,34.760 C20.987,33.688 19.947,32.616 18.907,31.545 C18.348,30.979 17.356,30.204 18.127,29.118 C18.453,28.659 19.420,28.463 19.966,28.836 C20.244,29.137 20.523,29.439 20.802,29.739 C21.489,30.415 22.176,31.093 22.863,31.770 C23.179,32.090 23.544,32.736 24.033,32.842 C24.228,32.209 25.046,31.404 25.426,30.867 C26.417,29.472 27.414,28.079 28.380,26.692 C28.784,26.111 29.203,24.917 30.051,24.830 C30.099,24.793 30.227,24.754 30.274,24.717 ZM40.248,37.977 C41.297,37.953 41.393,38.310 41.864,38.823 C41.991,40.328 40.941,41.582 40.304,42.547 C38.464,45.339 36.124,47.720 33.450,49.657 C32.896,50.059 31.794,50.929 31.166,51.124 C30.888,51.211 30.583,51.067 30.441,51.011 C29.617,50.689 29.529,50.140 29.606,49.206 C29.788,49.057 29.862,48.781 30.051,48.642 C30.517,48.296 31.027,48.074 31.500,47.738 C32.999,46.674 34.980,45.080 36.069,43.620 C36.281,43.336 36.638,43.116 36.849,42.829 C37.508,41.939 38.165,41.027 38.744,40.065 C39.053,39.552 39.173,38.908 39.524,38.429 C39.690,38.201 40.030,38.154 40.248,37.977 ZM27.098,50.447 C27.979,50.417 28.688,50.767 28.714,51.576 C29.051,52.126 28.376,52.746 28.101,52.930 C27.221,53.519 25.847,54.352 24.535,54.284 C24.094,53.770 23.689,53.743 23.699,52.704 C23.931,52.411 23.991,51.998 24.312,51.802 C24.600,51.626 24.898,51.618 25.204,51.463 C25.578,51.272 26.002,50.982 26.374,50.785 C26.628,50.652 26.902,50.630 27.098,50.447 Z"/>
    </g>
</svg>