<svg xmlns="http://www.w3.org/2000/svg" xmlns:xlink="http://www.w3.org/1999/xlink" width="11px" height="11px">
    <path fill-rule="evenodd"  fill="#000000"
        d="M5.221,-0.002 C6.732,-0.029 7.781,0.396 8.651,1.007 C9.561,1.647 10.219,2.478 10.645,3.604 C10.747,3.873 10.823,4.180 10.903,4.484 C10.959,4.700 10.938,4.944 10.988,5.160 C10.988,5.228 10.988,5.296 10.988,5.365 C10.988,5.542 11.001,5.757 10.967,5.901 C10.967,5.951 10.967,6.000 10.967,6.051 C10.943,6.152 10.953,6.271 10.924,6.383 C10.810,6.829 10.745,7.274 10.559,7.650 C10.442,7.887 10.333,8.137 10.195,8.358 C9.547,9.400 8.609,10.201 7.387,10.665 C7.077,10.783 6.743,10.836 6.400,10.923 C6.242,10.963 6.057,10.949 5.907,10.987 C5.821,10.987 5.736,10.987 5.650,10.987 C5.455,10.987 5.209,11.005 5.050,10.966 C4.999,10.966 4.949,10.966 4.899,10.966 C4.766,10.934 4.611,10.939 4.471,10.902 C4.045,10.789 3.635,10.691 3.281,10.515 C3.068,10.409 2.864,10.336 2.670,10.215 C1.795,9.669 1.109,8.938 0.611,8.014 C0.464,7.741 0.352,7.429 0.247,7.124 C0.229,7.073 0.243,7.046 0.226,6.994 C0.148,6.765 0.115,6.491 0.054,6.234 C0.027,6.117 0.060,6.023 0.033,5.901 C-0.014,5.694 -0.016,5.292 0.033,5.085 C0.061,4.964 0.026,4.868 0.054,4.752 C0.152,4.353 0.199,3.968 0.333,3.615 C0.897,2.126 2.032,0.928 3.517,0.363 C3.870,0.229 4.244,0.161 4.642,0.063 C4.766,0.033 5.143,0.050 5.221,-0.002 ZM5.403,2.059 C5.349,2.092 5.259,2.063 5.189,2.080 C5.051,2.113 4.897,2.133 4.771,2.188 C4.168,2.449 3.779,2.847 3.549,3.486 C3.447,3.767 3.354,4.316 3.602,4.505 C3.822,4.674 4.091,4.675 4.310,4.505 C4.504,4.357 4.439,3.993 4.535,3.744 C4.637,3.480 4.869,3.253 5.135,3.154 C5.558,2.995 6.074,3.169 6.272,3.433 C6.354,3.543 6.436,3.668 6.486,3.808 C6.705,4.418 6.237,4.966 5.832,5.106 C5.684,5.157 5.479,5.119 5.318,5.171 C5.046,5.258 4.882,5.457 4.814,5.750 C4.814,5.836 4.814,5.922 4.814,6.008 C4.814,6.458 4.925,6.655 5.221,6.801 C5.355,6.869 5.607,6.895 5.768,6.824 C5.949,6.742 6.104,6.575 6.164,6.372 C6.192,6.280 6.166,6.146 6.197,6.051 C6.385,6.034 6.604,5.854 6.733,5.761 C7.121,5.482 7.340,5.124 7.494,4.602 C7.549,4.414 7.587,4.110 7.537,3.883 C7.511,3.769 7.527,3.687 7.494,3.583 C7.219,2.717 6.541,2.060 5.403,2.059 ZM5.446,7.554 C5.395,7.585 5.311,7.574 5.253,7.596 C5.059,7.672 4.903,7.844 4.835,8.046 C4.696,8.463 5.009,8.785 5.275,8.883 C5.345,8.911 5.496,8.959 5.618,8.927 C5.844,8.867 6.025,8.740 6.121,8.551 C6.381,8.042 5.944,7.548 5.446,7.554 Z"/>
</svg>