<svg xmlns="http://www.w3.org/2000/svg" xmlns:xlink="http://www.w3.org/1999/xlink" width="26px" height="22px">
    <path fill="#000000"
        d="M13.314,0.005 C13.449,0.064 13.478,0.271 13.547,0.392 C13.752,0.749 13.928,1.122 14.140,1.492 C14.915,2.848 15.629,4.264 16.405,5.623 C16.629,6.015 16.820,6.416 17.040,6.800 C17.113,6.929 17.162,7.172 17.315,7.225 C17.485,7.318 17.854,7.272 18.077,7.321 C18.627,7.443 19.240,7.429 19.812,7.553 C20.218,7.641 20.700,7.656 21.103,7.746 C21.259,7.759 21.414,7.771 21.569,7.784 C21.935,7.866 22.341,7.851 22.733,7.939 C23.780,8.172 24.922,8.186 25.993,8.383 C25.993,8.402 25.993,8.422 25.993,8.441 C25.751,8.587 25.560,8.816 25.358,9.001 C24.988,9.338 24.609,9.670 24.236,10.004 C23.241,10.899 22.218,11.767 21.230,12.669 C20.853,13.013 20.465,13.348 20.087,13.691 C19.963,13.805 19.712,13.904 19.685,14.097 C19.803,14.267 19.753,14.559 19.812,14.773 C19.918,15.156 19.958,15.607 20.066,15.989 C20.080,16.110 20.095,16.233 20.109,16.355 C20.364,17.247 20.409,18.243 20.659,19.135 C20.719,19.348 20.683,19.522 20.744,19.733 C20.865,20.162 20.871,20.638 20.998,21.084 C21.075,21.356 21.160,21.679 21.167,21.992 C21.153,21.992 21.139,21.992 21.125,21.992 C21.028,21.890 20.859,21.866 20.723,21.799 C20.330,21.605 19.921,21.421 19.516,21.220 C18.060,20.496 16.573,19.808 15.092,19.097 C14.641,18.880 14.180,18.666 13.717,18.440 C13.635,18.401 13.422,18.209 13.293,18.247 C13.186,18.279 13.053,18.391 12.955,18.440 C12.520,18.655 12.084,18.850 11.663,19.057 C10.251,19.757 8.824,20.368 7.409,21.065 C7.016,21.258 6.610,21.445 6.203,21.644 C5.983,21.752 5.752,21.918 5.504,21.992 C5.504,21.940 5.504,21.889 5.504,21.837 C5.625,21.671 5.570,21.376 5.631,21.162 C5.740,20.781 5.780,20.329 5.885,19.946 C5.923,19.808 5.888,19.719 5.927,19.580 C6.157,18.764 6.204,17.847 6.436,17.031 C6.496,16.820 6.460,16.646 6.520,16.433 C6.640,16.005 6.648,15.531 6.774,15.082 C6.865,14.758 6.954,14.370 6.986,14.019 C6.739,13.870 6.537,13.630 6.330,13.440 C5.966,13.110 5.593,12.787 5.229,12.456 C4.248,11.562 3.226,10.706 2.245,9.812 C1.867,9.467 1.479,9.132 1.102,8.788 C0.978,8.676 0.719,8.558 0.678,8.383 C0.692,8.383 0.707,8.383 0.721,8.383 C3.613,7.996 6.506,7.611 9.399,7.225 C10.108,6.023 10.707,4.769 11.388,3.538 C11.792,2.807 12.185,2.061 12.595,1.318 C12.832,0.888 13.102,0.454 13.314,0.005 Z"/>
</svg>