<svg xmlns="http://www.w3.org/2000/svg" xmlns:xlink="http://www.w3.org/1999/xlink" width="18px" height="18px">
    <path fill-rule="evenodd"  fill="#000000"
        d="M7.111,-0.000 C10.640,-0.065 12.835,1.563 14.163,3.692 C14.383,4.045 14.515,4.415 14.690,4.817 C14.869,5.229 14.986,5.708 15.112,6.189 C15.167,6.399 15.133,6.581 15.182,6.804 C15.250,7.107 15.294,7.661 15.218,8.000 C15.218,8.099 15.218,8.199 15.218,8.299 C15.178,8.471 15.196,8.674 15.147,8.862 C14.922,9.731 14.752,10.481 14.374,11.182 C14.199,11.507 13.986,11.832 13.776,12.132 C13.695,12.247 13.540,12.340 13.512,12.501 C14.795,13.779 16.079,15.056 17.363,16.334 C17.538,16.509 17.874,16.783 17.961,17.020 C18.085,17.358 17.907,17.725 17.715,17.864 C17.025,18.360 16.414,17.442 16.079,17.108 C15.200,16.234 14.321,15.361 13.442,14.488 C13.207,14.253 12.973,14.019 12.738,13.784 C12.654,13.700 12.573,13.549 12.439,13.521 C12.221,13.743 11.937,13.895 11.666,14.066 C11.065,14.445 10.409,14.728 9.661,14.980 C9.329,15.092 8.957,15.108 8.606,15.191 C8.547,15.191 8.489,15.191 8.430,15.191 C8.072,15.270 7.329,15.295 6.953,15.209 C6.842,15.203 6.730,15.197 6.619,15.191 C6.162,15.082 5.696,15.044 5.283,14.892 C3.100,14.093 1.646,12.767 0.658,10.778 C0.531,10.523 0.481,10.268 0.377,9.987 C-0.025,8.900 -0.171,7.046 0.201,5.784 C0.963,3.199 2.377,1.705 4.614,0.597 C5.111,0.352 5.704,0.256 6.285,0.105 C6.466,0.058 6.995,0.078 7.111,-0.000 ZM7.393,1.459 C7.298,1.515 7.112,1.447 6.988,1.477 C6.843,1.511 6.678,1.506 6.513,1.547 C6.056,1.661 5.598,1.750 5.195,1.934 C3.522,2.693 2.343,3.980 1.713,5.784 C1.581,6.164 1.564,6.587 1.467,6.997 C1.467,7.132 1.467,7.267 1.467,7.402 C1.354,7.923 1.552,8.865 1.678,9.248 C1.771,9.532 1.805,9.778 1.924,10.039 C2.515,11.342 3.477,12.432 4.720,13.081 C4.842,13.145 4.949,13.160 5.072,13.222 C5.461,13.417 5.926,13.549 6.390,13.679 C6.603,13.738 6.787,13.701 7.006,13.749 C7.170,13.786 7.755,13.830 7.955,13.784 C8.079,13.756 8.242,13.783 8.377,13.749 C8.719,13.665 9.073,13.650 9.397,13.538 C11.264,12.897 12.451,11.751 13.283,10.074 C13.354,9.932 13.366,9.788 13.424,9.635 C13.572,9.243 13.629,8.838 13.741,8.386 C13.746,8.246 13.752,8.105 13.758,7.965 C13.797,7.784 13.802,7.204 13.758,7.015 C13.713,6.820 13.728,6.607 13.670,6.400 C13.577,6.066 13.467,5.712 13.354,5.415 C12.506,3.191 10.472,1.463 7.393,1.459 Z"/>
</svg>