<svg xmlns="http://www.w3.org/2000/svg" xmlns:xlink="http://www.w3.org/1999/xlink" width="24px" height="22px">
    <path fill="#000000"
        d="M9.643,-0.008 C13.172,0.146 15.509,1.767 16.929,4.042 C17.155,4.404 17.288,4.777 17.486,5.177 C17.767,5.747 17.947,6.376 18.128,7.063 C18.202,7.342 18.149,7.620 18.214,7.920 C18.263,8.144 18.319,8.567 18.257,8.841 C18.217,9.020 18.262,9.239 18.214,9.441 C18.121,9.837 18.116,10.259 18.000,10.641 C17.904,10.955 17.819,11.292 17.700,11.606 C17.630,11.791 17.496,11.967 17.464,12.184 C17.708,12.342 17.903,12.623 18.107,12.827 C18.231,12.951 18.399,13.064 18.471,13.234 C18.630,13.608 18.395,13.978 18.171,14.113 C17.996,14.219 17.661,14.221 17.486,14.113 C17.313,14.007 17.178,13.805 17.036,13.663 C16.731,13.359 16.338,13.077 16.157,12.655 C15.906,12.073 16.216,11.650 16.371,11.241 C16.490,10.932 16.576,10.613 16.671,10.299 C17.062,9.010 16.867,7.287 16.457,6.206 C15.755,4.354 14.536,2.969 12.836,2.113 C12.455,1.922 12.070,1.825 11.636,1.684 C10.827,1.421 9.364,1.222 8.357,1.470 C7.777,1.613 7.178,1.699 6.686,1.941 C5.066,2.742 3.929,3.822 3.086,5.391 C2.800,5.923 2.655,6.518 2.486,7.170 C2.411,7.459 2.466,7.738 2.400,8.049 C2.196,9.013 2.529,10.411 2.786,11.091 C2.916,11.437 3.005,11.748 3.171,12.056 C3.995,13.585 5.557,14.841 7.264,15.485 C7.697,15.647 8.179,15.712 8.657,15.827 C8.930,15.892 9.746,15.912 10.029,15.849 C10.271,15.827 10.514,15.806 10.757,15.784 C11.367,15.629 11.957,15.498 12.493,15.270 C12.900,15.097 13.458,14.588 14.036,14.885 C14.238,14.988 14.395,15.158 14.528,15.334 C14.650,15.449 14.771,15.562 14.893,15.677 C15.078,15.862 15.243,16.070 15.428,16.256 C16.432,17.259 17.447,18.252 18.450,19.256 C18.790,19.595 19.122,20.082 19.586,20.285 C19.844,20.396 20.271,20.313 20.443,20.199 C20.619,20.081 20.747,19.875 20.914,19.749 C21.352,19.417 21.935,18.849 21.471,18.141 C21.383,18.007 21.257,17.895 21.129,17.798 C20.950,17.613 20.771,17.427 20.593,17.241 C20.476,17.125 20.328,17.009 20.271,16.835 C20.122,16.373 20.597,15.788 21.129,15.956 C21.453,16.058 21.640,16.382 21.857,16.598 C22.031,16.772 22.266,16.916 22.414,17.112 C22.782,17.604 23.213,18.431 22.928,19.299 C22.672,20.079 22.146,20.568 21.557,21.012 C21.465,21.082 21.395,21.202 21.300,21.270 C20.972,21.505 20.187,21.855 19.564,21.699 C18.752,21.494 18.329,21.084 17.829,20.584 C17.623,20.379 17.406,20.197 17.229,19.963 C16.486,19.226 15.743,18.491 15.000,17.755 C14.643,17.398 14.286,17.042 13.928,16.684 C13.809,16.565 13.679,16.323 13.479,16.299 C13.219,16.534 12.533,16.674 12.150,16.813 C10.673,17.348 8.474,17.357 7.007,16.813 C6.640,16.677 6.311,16.594 5.979,16.427 C4.348,15.606 2.880,14.393 2.014,12.806 C1.714,12.256 1.548,11.697 1.329,11.049 C0.942,9.904 0.850,7.900 1.200,6.613 C1.958,3.824 3.869,1.545 6.428,0.570 C7.100,0.315 7.798,0.233 8.571,0.056 C8.777,0.009 9.521,0.067 9.643,-0.008 Z"/>
</svg>