<svg xmlns="http://www.w3.org/2000/svg" xmlns:xlink="http://www.w3.org/1999/xlink" width="9px" height="10px">
    <path fill-rule="evenodd"  fill="#000000"
        d="M7.131,-0.002 C8.040,-0.012 8.564,0.368 8.842,0.976 C8.975,1.267 9.072,1.742 8.941,2.127 C8.872,2.328 8.778,2.516 8.664,2.674 C8.443,2.978 8.090,3.187 7.675,3.300 C7.200,3.427 6.502,3.208 6.290,2.987 C6.197,3.014 6.111,3.095 6.033,3.143 C5.868,3.245 5.699,3.337 5.538,3.436 C5.047,3.739 4.542,4.015 4.055,4.315 C3.889,4.416 3.721,4.509 3.560,4.608 C3.493,4.649 3.364,4.670 3.353,4.764 C3.409,4.850 3.361,5.168 3.353,5.272 C3.663,5.439 3.965,5.635 4.263,5.820 C4.684,6.079 5.117,6.302 5.538,6.561 C5.726,6.676 5.915,6.795 6.112,6.903 C6.157,6.928 6.246,7.013 6.290,7.000 C6.384,6.968 6.469,6.881 6.557,6.835 C6.746,6.735 7.246,6.604 7.566,6.678 C8.255,6.839 8.674,7.177 8.901,7.792 C8.988,8.028 9.046,8.423 8.960,8.719 C8.912,8.886 8.849,9.062 8.763,9.198 C8.512,9.596 8.168,9.824 7.645,9.959 C7.486,10.000 7.207,10.025 7.022,9.979 C6.890,9.946 6.743,9.918 6.626,9.862 C6.097,9.605 5.792,9.213 5.637,8.583 C5.597,8.419 5.636,8.208 5.647,8.056 C5.562,8.016 5.486,7.956 5.410,7.909 C5.212,7.786 5.010,7.676 4.816,7.557 C4.405,7.304 3.982,7.087 3.570,6.835 C3.377,6.715 3.175,6.605 2.977,6.483 C2.898,6.434 2.807,6.339 2.700,6.327 C2.466,6.569 1.744,6.769 1.266,6.620 C0.668,6.432 0.274,6.073 0.079,5.487 C0.028,5.332 -0.000,5.173 -0.000,4.959 C-0.000,4.913 -0.000,4.868 -0.000,4.823 C0.028,4.711 0.039,4.579 0.079,4.471 C0.258,3.991 0.586,3.638 1.068,3.455 C1.306,3.365 1.690,3.275 2.018,3.358 C2.186,3.401 2.366,3.452 2.502,3.534 C2.574,3.577 2.643,3.660 2.740,3.671 C2.787,3.613 2.872,3.594 2.937,3.553 C3.098,3.455 3.266,3.362 3.432,3.260 C3.934,2.953 4.453,2.651 4.955,2.342 C5.120,2.241 5.288,2.149 5.449,2.049 C5.513,2.011 5.636,1.991 5.647,1.903 C5.569,1.781 5.665,1.302 5.697,1.210 C5.877,0.681 6.149,0.368 6.626,0.135 C6.725,0.103 6.824,0.070 6.923,0.038 C6.989,0.019 7.082,0.035 7.131,-0.002 Z"/>
</svg>