<svg
        xmlns="http://www.w3.org/2000/svg"
        xmlns:xlink="http://www.w3.org/1999/xlink"
        width="40px" height="10px">
    <g>
        <path fill-rule="evenodd"  fill="#000000"
              d="M10.273,9.998 C10.111,9.998 9.948,9.998 9.785,9.998 C9.578,9.919 9.452,9.687 9.298,9.551 C8.760,9.075 8.255,8.567 7.721,8.095 C6.760,7.244 5.831,6.371 4.869,5.520 C4.484,5.180 4.161,4.789 3.743,4.476 C3.631,4.352 3.518,4.227 3.406,4.102 C3.163,3.863 2.892,3.637 2.618,3.431 C2.455,3.256 2.292,3.083 2.130,2.908 C1.570,2.487 1.092,1.971 0.591,1.490 C0.403,1.310 0.093,1.147 -0.009,0.893 C-0.009,0.744 -0.009,0.594 -0.009,0.445 C0.082,0.374 0.122,0.204 0.216,0.147 C0.312,0.089 0.545,0.022 0.629,-0.003 C1.517,-0.003 2.405,-0.003 3.293,-0.003 C5.720,-0.003 8.147,-0.003 10.574,-0.003 C20.242,-0.003 29.914,-0.003 39.583,-0.003 C39.650,0.084 39.719,0.080 39.808,0.147 C39.871,0.234 39.933,0.321 39.996,0.408 C40.021,0.697 39.985,0.841 39.921,1.080 C39.806,1.152 39.677,1.298 39.545,1.341 C38.645,1.341 37.744,1.341 36.843,1.341 C34.442,1.341 32.040,1.341 29.638,1.341 C20.582,1.341 11.523,1.341 2.467,1.341 C2.467,1.366 2.467,1.391 2.467,1.415 C2.716,1.542 2.823,1.781 3.030,1.938 C3.650,2.404 4.145,2.997 4.719,3.505 C6.217,4.830 7.650,6.211 9.148,7.536 C9.509,7.855 9.813,8.291 10.198,8.581 C10.325,8.677 10.483,8.753 10.574,8.879 C10.656,8.994 10.788,9.243 10.724,9.476 C10.650,9.746 10.447,9.832 10.273,9.998 Z"/>
    </g>
</svg>