<svg
        xmlns="http://www.w3.org/2000/svg"
        xmlns:xlink="http://www.w3.org/1999/xlink"
        width="14px" height="12px">
    <g>
        <path fill-rule="evenodd"  fill="#000000"
              d="M6.991,0.003 C7.065,0.035 7.081,0.148 7.119,0.214 C7.233,0.408 7.330,0.612 7.447,0.814 C7.875,1.554 8.269,2.326 8.698,3.067 C8.822,3.281 8.928,3.500 9.049,3.710 C9.090,3.779 9.117,3.913 9.201,3.941 C9.295,3.992 9.499,3.967 9.622,3.994 C9.926,4.060 10.265,4.052 10.581,4.120 C10.805,4.168 11.072,4.177 11.295,4.225 C11.380,4.233 11.466,4.239 11.552,4.246 C11.754,4.291 11.979,4.283 12.195,4.331 C12.774,4.457 13.405,4.466 13.996,4.573 C13.996,4.584 13.996,4.594 13.996,4.604 C13.863,4.683 13.757,4.810 13.645,4.909 C13.441,5.094 13.232,5.274 13.026,5.457 C12.476,5.945 11.911,6.418 11.365,6.910 C11.156,7.098 10.942,7.281 10.733,7.468 C10.664,7.530 10.526,7.585 10.511,7.689 C10.576,7.782 10.549,7.941 10.581,8.058 C10.640,8.267 10.662,8.513 10.722,8.722 C10.729,8.788 10.737,8.854 10.745,8.921 C10.886,9.408 10.911,9.951 11.049,10.438 C11.082,10.554 11.063,10.648 11.096,10.764 C11.163,10.998 11.166,11.257 11.236,11.501 C11.279,11.650 11.326,11.825 11.330,11.996 C11.322,11.996 11.314,11.996 11.306,11.996 C11.253,11.941 11.160,11.927 11.084,11.891 C10.868,11.785 10.641,11.685 10.418,11.575 C9.613,11.180 8.791,10.805 7.973,10.417 C7.724,10.298 7.469,10.182 7.213,10.059 C7.168,10.037 7.050,9.933 6.979,9.953 C6.920,9.970 6.847,10.032 6.792,10.059 C6.552,10.176 6.311,10.282 6.079,10.395 C5.298,10.777 4.510,11.111 3.728,11.490 C3.511,11.596 3.286,11.697 3.061,11.806 C2.940,11.865 2.812,11.956 2.675,11.996 C2.675,11.968 2.675,11.940 2.675,11.912 C2.742,11.821 2.712,11.660 2.746,11.543 C2.806,11.335 2.828,11.089 2.886,10.879 C2.907,10.805 2.887,10.756 2.909,10.680 C3.036,10.235 3.062,9.735 3.190,9.290 C3.223,9.175 3.204,9.080 3.237,8.964 C3.303,8.730 3.308,8.472 3.377,8.227 C3.427,8.050 3.476,7.838 3.494,7.647 C3.358,7.566 3.246,7.434 3.131,7.332 C2.931,7.151 2.724,6.975 2.523,6.795 C1.981,6.307 1.416,5.840 0.874,5.353 C0.666,5.165 0.451,4.981 0.243,4.794 C0.175,4.733 0.031,4.669 0.009,4.573 C0.017,4.573 0.024,4.573 0.032,4.573 C1.630,4.362 3.229,4.151 4.827,3.941 C5.219,3.285 5.550,2.602 5.927,1.930 C6.150,1.532 6.367,1.124 6.593,0.719 C6.724,0.485 6.873,0.248 6.991,0.003 Z"/>
    </g>
</svg>