<svg xmlns="http://www.w3.org/2000/svg" xmlns:xlink="http://www.w3.org/1999/xlink" width="23px" height="24px">
    <path fill="#000000"
        d="M10.883,19.881 C10.922,20.202 11.154,20.488 11.243,20.811 C11.306,21.038 11.292,21.414 11.243,21.625 C11.199,21.814 11.241,21.923 11.183,22.090 C10.875,22.972 10.208,23.599 9.291,23.892 C8.816,24.044 8.132,23.975 7.730,23.834 C6.626,23.446 6.077,22.823 5.808,21.625 C5.633,20.848 6.103,20.321 6.198,19.852 C4.838,19.770 4.025,18.808 3.736,17.673 C3.726,17.333 3.716,16.994 3.706,16.655 C3.706,15.958 3.706,15.260 3.706,14.562 C3.706,10.551 3.706,6.539 3.706,2.529 C2.812,2.154 1.894,1.765 1.003,1.395 C0.496,1.185 -0.002,1.166 0.012,0.435 C0.081,0.380 0.079,0.305 0.133,0.232 C0.212,0.125 0.366,0.090 0.463,-0.000 C1.068,-0.018 1.456,0.278 1.874,0.465 C2.548,0.768 3.245,0.970 3.886,1.279 C4.183,1.422 4.528,1.448 4.787,1.627 C4.900,1.705 4.963,1.851 5.057,1.947 C5.057,4.777 5.057,7.606 5.057,10.435 C5.057,11.315 4.906,13.310 5.237,13.836 C5.845,14.797 7.346,14.562 8.901,14.562 C11.743,14.562 14.587,14.562 17.429,14.562 C18.180,14.562 18.930,14.562 19.681,14.562 C20.168,14.562 20.650,14.580 20.972,14.416 C21.310,14.245 21.623,13.887 21.753,13.515 C21.893,13.115 21.813,12.469 21.813,11.975 C21.813,10.910 21.813,9.843 21.813,8.778 C21.813,8.293 21.813,7.810 21.813,7.324 C21.903,7.061 22.340,6.774 22.714,6.975 C22.848,7.048 22.911,7.220 23.014,7.324 C23.014,8.711 23.014,10.095 23.014,11.481 C23.014,13.074 23.101,13.898 22.384,14.823 C21.512,15.947 19.677,15.754 17.669,15.754 C15.017,15.754 12.364,15.754 9.712,15.754 C8.911,15.754 8.110,15.754 7.309,15.754 C6.857,15.754 6.363,15.799 5.988,15.696 C5.650,15.603 5.364,15.403 5.057,15.317 C5.057,16.044 5.057,16.771 5.057,17.498 C5.131,17.592 5.117,17.733 5.177,17.847 C5.321,18.117 5.618,18.405 5.898,18.544 C6.182,18.685 6.611,18.660 7.039,18.660 C7.760,18.660 8.481,18.660 9.201,18.660 C11.853,18.660 14.506,18.660 17.159,18.660 C18.547,18.660 20.203,18.517 21.062,19.039 C21.855,19.520 22.816,20.917 22.233,22.236 C21.886,23.021 21.263,23.636 20.372,23.892 C18.736,24.362 17.467,23.240 17.069,22.178 C16.977,21.933 16.798,21.485 16.888,21.102 C16.946,20.858 16.973,20.570 17.069,20.346 C17.132,20.198 17.255,20.066 17.309,19.909 C16.912,19.784 15.801,19.881 15.297,19.881 C13.826,19.881 12.354,19.881 10.883,19.881 ZM8.360,19.881 C8.240,19.955 8.045,19.940 7.910,19.997 C7.563,20.145 7.233,20.486 7.099,20.840 C6.703,21.893 7.778,23.061 8.871,22.729 C9.342,22.587 9.766,22.246 9.922,21.800 C10.304,20.710 9.377,19.867 8.360,19.881 ZM19.381,19.881 C19.260,19.955 19.065,19.940 18.930,19.997 C18.562,20.154 18.218,20.540 18.090,20.927 C17.744,21.969 18.854,23.013 19.891,22.729 C20.567,22.546 21.347,21.686 20.912,20.753 C20.672,20.238 20.167,19.871 19.381,19.881 Z"/>
</svg>