<svg xmlns="http://www.w3.org/2000/svg" xmlns:xlink="http://www.w3.org/1999/xlink" width="17px" height="16px">
    <path fill-rule="evenodd"  fill="#000000"
        d="M8.524,-0.001 C9.386,-0.020 9.593,0.133 9.997,0.560 C10.009,1.276 9.904,2.096 9.746,2.775 C9.679,3.062 9.749,3.273 9.683,3.555 C9.552,4.125 9.480,4.944 9.777,5.397 C10.079,5.855 10.696,5.866 11.469,5.864 C12.507,5.864 14.305,5.689 15.010,6.052 C16.058,6.590 16.218,7.650 15.887,9.016 C15.825,9.273 15.886,9.450 15.824,9.702 C15.583,10.683 15.563,11.811 15.323,12.792 C15.247,13.104 15.294,13.352 15.198,13.634 C15.023,14.145 14.733,14.553 14.446,14.944 C14.141,15.359 13.694,15.731 13.161,15.911 C12.648,16.085 11.608,15.974 10.968,15.974 C9.725,15.974 8.482,15.974 7.240,15.974 C5.952,15.974 4.990,15.979 4.451,15.256 C3.996,14.646 4.044,13.889 4.044,12.823 C4.044,11.439 4.044,10.056 4.044,8.673 C4.044,7.966 4.044,7.258 4.044,6.551 C4.248,5.740 4.831,5.158 5.234,4.523 C5.853,3.547 6.479,2.586 7.083,1.621 C7.303,1.270 7.726,0.396 8.023,0.186 C8.161,0.089 8.382,0.096 8.524,-0.001 ZM0.879,5.864 C1.596,5.857 2.477,5.776 2.790,6.177 C3.108,6.582 3.041,7.349 3.041,8.079 C3.041,9.494 3.041,10.909 3.041,12.323 C3.041,13.009 3.041,13.696 3.041,14.382 C3.041,14.717 3.087,15.136 2.979,15.381 C2.857,15.653 2.568,15.891 2.258,15.974 C1.777,15.974 1.297,15.974 0.817,15.974 C0.696,15.941 0.510,15.859 0.409,15.786 C-0.144,15.389 0.033,14.066 0.033,13.135 C0.033,11.575 0.033,10.015 0.033,8.454 C0.033,7.928 -0.080,6.840 0.096,6.457 C0.279,6.061 0.555,6.090 0.879,5.864 Z"/>
</svg>