<svg
        xmlns="http://www.w3.org/2000/svg"
        xmlns:xlink="http://www.w3.org/1999/xlink"
        width="15px" height="10px">
    <g>
        <path fill-rule="evenodd"  fill="#000000"
              d="M7.387,-0.005 C9.568,-0.054 11.042,0.877 12.280,1.842 C12.578,2.075 12.835,2.330 13.106,2.586 C13.315,2.784 13.537,2.986 13.706,3.225 C13.775,3.321 13.888,3.393 13.957,3.490 C14.187,3.814 14.434,4.110 14.657,4.447 C14.738,4.568 14.987,4.857 15.008,5.005 C14.936,5.044 14.756,5.392 14.695,5.483 C14.431,5.874 14.115,6.219 13.844,6.600 C13.798,6.644 13.752,6.688 13.706,6.732 C13.543,6.961 13.332,7.154 13.131,7.344 C12.979,7.487 12.843,7.666 12.680,7.796 C12.156,8.214 11.637,8.649 11.041,8.992 C10.472,9.319 9.848,9.558 9.164,9.762 C8.813,9.867 8.427,9.858 8.050,9.949 C7.934,9.949 7.817,9.949 7.700,9.949 C7.531,9.987 7.175,9.975 7.012,9.935 C6.924,9.931 6.837,9.927 6.749,9.922 C6.485,9.858 6.192,9.836 5.948,9.762 C5.472,9.619 5.018,9.526 4.609,9.311 C4.118,9.052 3.636,8.799 3.195,8.487 C2.797,8.205 2.447,7.860 2.069,7.556 C1.959,7.468 1.872,7.336 1.769,7.238 C1.259,6.756 0.807,6.198 0.405,5.603 C0.314,5.468 0.014,5.113 -0.008,4.952 C0.079,4.905 0.204,4.622 0.267,4.527 C0.488,4.193 0.751,3.894 0.981,3.570 C1.039,3.487 1.135,3.426 1.193,3.344 C1.359,3.111 1.565,2.912 1.769,2.720 C1.872,2.622 1.959,2.489 2.069,2.400 C2.502,2.053 2.904,1.663 3.371,1.351 C4.116,0.850 4.933,0.484 5.886,0.195 C6.244,0.086 6.642,0.098 7.024,0.009 C7.130,-0.017 7.306,0.049 7.387,-0.005 ZM7.200,1.497 C7.110,1.553 6.957,1.520 6.849,1.550 C6.605,1.618 6.349,1.677 6.136,1.789 C5.272,2.243 4.675,2.932 4.347,3.955 C4.276,4.176 4.273,4.422 4.221,4.660 C4.221,4.753 4.221,4.846 4.221,4.939 C4.221,5.331 4.262,5.645 4.347,5.935 C4.671,7.043 5.277,7.765 6.236,8.195 C6.562,8.340 6.936,8.460 7.400,8.460 C7.533,8.460 7.667,8.460 7.800,8.460 C8.084,8.391 8.363,8.375 8.614,8.274 C9.492,7.921 10.102,7.288 10.503,6.427 C10.871,5.639 10.852,4.445 10.528,3.637 C10.153,2.701 9.522,2.047 8.614,1.683 C8.426,1.608 8.213,1.577 8.013,1.523 C7.790,1.463 7.461,1.497 7.200,1.497 ZM7.337,2.985 C7.621,2.978 8.064,3.001 8.213,3.132 C8.223,3.145 8.221,3.144 8.226,3.171 C8.162,3.194 8.136,3.250 8.101,3.304 C7.899,3.614 7.955,4.097 8.213,4.301 C8.376,4.429 8.715,4.559 8.976,4.420 C9.071,4.370 9.140,4.238 9.239,4.207 C9.239,4.212 9.239,4.217 9.239,4.221 C9.243,4.221 9.248,4.221 9.252,4.221 C9.285,4.345 9.318,4.469 9.352,4.593 C9.408,4.833 9.385,5.256 9.327,5.470 C9.124,6.217 8.674,6.651 7.988,6.892 C7.736,6.981 7.321,7.006 7.037,6.918 C6.869,6.867 6.695,6.792 6.549,6.706 C6.028,6.400 5.402,5.450 5.673,4.486 C5.760,4.178 5.899,3.919 6.061,3.690 C6.233,3.446 6.582,3.207 6.874,3.092 C6.963,3.057 7.063,3.034 7.150,3.012 C7.218,2.994 7.288,3.018 7.337,2.985 Z"/>
    </g>
</svg>