<svg xmlns="http://www.w3.org/2000/svg" xmlns:xlink="http://www.w3.org/1999/xlink" width="19px" height="16px">
    <path fill="#000000"
        d="M5.573,0.013 C6.922,-0.014 7.841,0.349 8.649,0.880 C8.853,1.014 9.077,1.206 9.247,1.383 C9.330,1.469 9.403,1.624 9.547,1.643 C9.697,1.411 9.946,1.237 10.162,1.071 C10.716,0.643 11.324,0.340 12.091,0.117 C12.201,0.106 12.312,0.094 12.423,0.083 C12.742,0.004 13.378,-0.043 13.737,0.048 C14.078,0.135 14.426,0.169 14.734,0.291 C16.103,0.831 16.998,1.769 17.628,3.081 C18.305,4.495 17.997,6.791 17.461,8.107 C16.336,10.870 14.260,12.927 11.991,14.502 C11.668,14.726 11.342,14.980 11.010,15.195 C10.790,15.338 10.567,15.436 10.345,15.577 C10.116,15.722 9.855,15.909 9.580,15.993 C9.476,16.024 9.373,15.949 9.314,15.923 C9.082,15.822 8.882,15.705 8.682,15.577 C8.460,15.435 8.236,15.338 8.017,15.195 C7.502,14.862 7.004,14.484 6.520,14.121 C4.332,12.478 2.450,10.542 1.432,7.674 C1.163,6.916 0.824,5.433 1.066,4.398 C1.078,4.283 1.089,4.167 1.100,4.052 C1.591,2.247 2.464,1.200 3.943,0.430 C4.219,0.286 4.568,0.207 4.874,0.117 C5.039,0.069 5.459,0.089 5.573,0.013 ZM5.839,1.071 C5.756,1.121 5.598,1.061 5.489,1.088 C5.230,1.154 4.950,1.168 4.708,1.261 C3.846,1.595 3.131,2.131 2.663,2.873 C2.136,3.707 1.804,5.149 2.164,6.443 C2.216,6.629 2.206,6.789 2.264,6.963 C2.605,7.988 3.010,8.883 3.561,9.684 C3.748,9.957 3.965,10.212 4.159,10.481 C4.213,10.556 4.305,10.615 4.359,10.689 C4.543,10.943 4.771,11.134 4.974,11.365 C5.176,11.596 5.382,11.817 5.622,12.007 C5.719,12.083 5.791,12.208 5.888,12.284 C6.229,12.551 6.544,12.854 6.886,13.116 C7.407,13.515 7.950,13.848 8.499,14.225 C8.734,14.386 8.980,14.517 9.231,14.676 C9.276,14.705 9.477,14.872 9.547,14.849 C9.583,14.837 9.646,14.767 9.679,14.745 C9.835,14.646 9.999,14.563 10.145,14.468 C10.395,14.305 10.643,14.179 10.893,14.017 C11.149,13.851 11.398,13.641 11.642,13.462 C13.724,11.933 15.484,10.168 16.563,7.587 C16.645,7.391 16.658,7.207 16.730,6.998 C16.942,6.380 17.141,5.036 16.929,4.260 C16.701,3.426 16.352,2.642 15.765,2.180 C15.715,2.122 15.665,2.064 15.616,2.007 C15.134,1.632 14.616,1.353 13.953,1.157 C13.836,1.123 13.758,1.153 13.637,1.123 C12.664,0.882 11.462,1.394 10.910,1.781 C10.863,1.814 10.823,1.885 10.777,1.920 C10.572,2.077 10.312,2.283 10.162,2.492 C10.020,2.688 9.895,2.948 9.646,3.029 C9.520,3.070 9.334,3.016 9.264,2.977 C9.095,2.884 8.993,2.666 8.881,2.509 C8.779,2.365 8.622,2.238 8.499,2.110 C7.922,1.512 6.968,1.092 5.839,1.071 Z"/>
</svg>