<svg xmlns="http://www.w3.org/2000/svg" id="Слой_1" width="46.667" height="56"><path d="M45.732 54.131h-2.797v-3.732h-4.667V40.86a7.516 7.516 0 0 0-3.35-6.261L25.015 28l9.903-6.599a7.516 7.516 0 0 0 3.35-6.261V5.6h4.666V1.87h2.798a.935.935 0 0 0 0-1.869H.935a.935.935 0 0 0 0 1.869h2.797v3.732H8.4v9.539a7.516 7.516 0 0 0 3.35 6.261L21.651 28l-9.904 6.599a7.516 7.516 0 0 0-3.35 6.261v9.54H3.733v3.732H.934a.935.935 0 0 0 0 1.869h44.798a.935.935 0 0 0 0-1.869zM5.602 3.732V1.87h35.463v1.863zm7.181 16.115a5.646 5.646 0 0 1-2.515-4.707V5.6h26.13v9.539a5.646 5.646 0 0 1-2.515 4.707l-10.55 7.032zM10.268 40.86c0-1.896.938-3.654 2.515-4.707l10.55-7.032 10.55 7.032A5.646 5.646 0 0 1 36.4 40.86v9.54H10.268zM5.6 52.268h35.465v1.863H5.6zm0 0" id="path2" fill="#b39147" stroke-width="1.167"/><path d="M14.856 16.74a1.91 1.91 0 0 1-.856-1.6v-2.075a.936.936 0 0 0-.934-.934.937.937 0 0 0-.935.934v2.075a3.78 3.78 0 0 0 1.692 3.153l4.33 2.884c.153.105.336.16.514.16a.941.941 0 0 0 .779-.414.937.937 0 0 0-.26-1.295zm0 0" id="path4" fill="#b39147" stroke-width="1.167"/><path d="M32.844 38.51l-4.33-2.886a.929.929 0 0 0-1.293.26.937.937 0 0 0 .26 1.294l4.33 2.885c.537.356.856.952.856 1.6v2.073a.935.935 0 0 0 1.869 0v-2.073a3.776 3.776 0 0 0-1.692-3.154zm0 0" id="path6" fill="#b39147" stroke-width="1.167"/></svg>