<svg xmlns="http://www.w3.org/2000/svg" id="Слой_1" width="56" height="56"><path d="M55.097 34.323a.904.904 0 0 0 .903-.904V20.774a4.521 4.521 0 0 0-4.516-4.516H29.806a.904.904 0 0 0-.903.903v3.613c0 .499.405.903.903.903h12.646v7.226h-5.42a2.713 2.713 0 0 0-2.71 2.71V45.16H21.678v-2.71a.904.904 0 0 0-.903-.903H10.84V19.871h15.355a.904.904 0 0 0 .903-.903v-5.42h8.129a.904.904 0 0 0 .694-1.481l-4.035-4.841 4.035-4.841a.903.903 0 0 0-.694-1.482H18.968a.904.904 0 0 0-.903.903v5.42h-7.226V5.978a3.582 3.582 0 0 0 .903-2.365A3.617 3.617 0 0 0 8.129 0a3.617 3.617 0 0 0-3.613 3.613c0 .908.348 1.729.903 2.365v35.57H.903a.904.904 0 0 0-.903.904v12.645c0 .498.405.903.903.903h54.194a.904.904 0 0 0 .903-.903v-5.42a.904.904 0 0 0-.903-.903h-2.71V34.323zM30.016 6.648a.903.903 0 0 0 0 1.156l3.282 3.938h-6.201V8.129a.891.891 0 0 0-.315-.672l.007-.007-5.418-4.74h11.925zM19.87 3.798l3.919 3.428H19.87zm5.42 5.234v9.033H10.838v-1.807h5.42v-1.806h-5.42v-1.807h5.42V10.84h-5.42V9.032zM8.128 1.806c.996 0 1.806.81 1.806 1.807 0 .996-.81 1.806-1.806 1.806s-1.806-.81-1.806-1.806.81-1.807 1.806-1.807zm-.903 5.291c.29.076.59.129.903.129.314 0 .613-.053.903-.129v34.451H7.226zm46.968 47.097H1.806v-10.84h18.065v2.71c0 .499.405.904.903.904h18.968v2.71c0 .498.405.903.903.903h13.549zm-7.226-5.42h-5.42v-2.71a.904.904 0 0 0-.903-.903h-.903V34.323h7.226zm1.806 0V33.42a.904.904 0 0 0-.903-.903h-9.032a.904.904 0 0 0-.904.903v11.742H36.13V31.613c0-.498.406-.903.903-.903h6.323a.904.904 0 0 0 .903-.904v-9.032a.904.904 0 0 0-.903-.903H30.71v-1.806h20.774a2.713 2.713 0 0 1 2.71 2.71v11.741h-1.807v-9.032h-1.806v25.29zm0 0" id="path2" fill="#b39147" stroke-width=".113"/><path d="M46.968 14.452a4.521 4.521 0 0 0 4.516-4.517V8.13a4.521 4.521 0 0 0-4.516-4.516 4.521 4.521 0 0 0-4.516 4.516v1.806a4.521 4.521 0 0 0 4.516 4.517zm-2.71-6.323a2.713 2.713 0 0 1 2.71-2.71 2.713 2.713 0 0 1 2.71 2.71v1.806a2.713 2.713 0 0 1-2.71 2.71 2.713 2.713 0 0 1-2.71-2.71zm0 0" id="path4" fill="#b39147" stroke-width=".113"/></svg>