<?xml version="1.0" standalone="no"?>
<!DOCTYPE svg PUBLIC "-//W3C//DTD SVG 1.1//EN" "http://www.w3.org/Graphics/SVG/1.1/DTD/svg11.dtd" >
<svg xmlns="http://www.w3.org/2000/svg" xmlns:xlink="http://www.w3.org/1999/xlink" version="1.1">
<metadata>
Created by FontForge 20190801 at Fri May  8 16:43:27 2015
 By Jimmy Wärting
Copyright (c) 2015 by Typetype. Designer Ivan Gladkikh, technical designers Konstantin Birukov, Olexa Volochay, Maria Mizernitskaya. All rights reserved.
</metadata>
<defs>
<font id="TTMasters-Black" horiz-adv-x="509" >
  <font-face 
    font-family="TTMasters-Black"
    font-weight="400"
    font-stretch="normal"
    units-per-em="1000"
    panose-1="0 0 0 0 0 0 0 0 0 0"
    ascent="722"
    descent="-278"
    x-height="452.993"
    cap-height="697"
    bbox="-229.2 -334.673 1130 1026.82"
    underline-thickness="50"
    underline-position="-100"
    unicode-range="U+000D-2212"
  />
<missing-glyph horiz-adv-x="220" 
 />
    <glyph glyph-name=".notdef" horiz-adv-x="220" 
 />
    <glyph glyph-name=".null" horiz-adv-x="0" 
 />
    <glyph glyph-name=".null" horiz-adv-x="0" 
 />
    <glyph glyph-name="nonmarkingreturn" unicode="&#xd;" horiz-adv-x="0" 
 />
    <glyph glyph-name="space" unicode=" " horiz-adv-x="220" 
 />
    <glyph glyph-name="exclam" unicode="!" horiz-adv-x="331" 
d="M300 637c-4.66699 -28.667 -11.1611 -59.833 -19.4941 -93.5s-17 -66.834 -26 -99.501s-17.833 -63.5 -26.5 -92.5s-16 -53.167 -22 -72.5c-2 -6.66699 -7.16699 -13.5 -15.5 -20.5s-16.166 -10.5 -23.499 -10.5c-16.667 0 -30.334 1.16699 -41.001 3.5
s-19.334 5.33301 -26.001 9s-11.834 7.66699 -15.501 12s-7.16699 8.83301 -10.5 13.5c-3.33301 5.33301 -6.33301 13.833 -9 25.5s-4.33398 20.834 -5.00098 27.501c-2.66699 42 -3.83398 81.833 -3.50098 119.5s2 72.167 5 103.5s6.83301 59 11.5 83s9.66699 43 15 57
c1.33301 4 5.66602 8.33301 12.999 13s15 7 23 7c8.66699 0 19.334 -0.833008 32.001 -2.5s25.667 -3.66699 39 -6s26 -5 38 -8s21 -5.83301 27 -8.5c4 -1.33301 8.66699 -3.5 14 -6.5s10.166 -7 14.499 -12s7.66602 -10.833 9.99902 -17.5s2.83301 -14.667 1.5 -24z
M221.006 137.001c-4.66699 -27.333 -7.99902 -52.999 -9.99902 -76.999s-5.66699 -44.667 -11 -62c-2 -6.66699 -4.5 -11.834 -7.5 -15.501s-8.16699 -5.5 -15.5 -5.5c-16.667 0 -32 2.66699 -46 8s-26.833 12 -38.5 20s-21.834 16.667 -30.501 26s-16 17.666 -22 24.999
c-6.66699 8.66699 -10 19.667 -10 33c0 18.667 1.33301 38.834 4 60.501s5.66699 39.167 9 52.5c1.33301 4.66699 3.66602 9 6.99902 13s9 6 17 6c8.66699 0 18.5 -0.666992 29.5 -2s22.333 -3.5 34 -6.5s23.167 -6.5 34.5 -10.5s21.333 -9 30 -15
c7.33301 -4.66699 13.833 -12 19.5 -22s7.83398 -19.333 6.50098 -28z" />
    <glyph glyph-name="quotedbl" unicode="&#x22;" horiz-adv-x="362" 
d="M173 673c-2 -16 -5.00195 -32.834 -9.00195 -50.501s-8.16699 -34.834 -12.5 -51.501s-8.83301 -31.667 -13.5 -45s-8.66699 -23.666 -12 -30.999c-3.33301 -6.66699 -6.16602 -12.667 -8.49902 -18s-7.16602 -6.33301 -14.499 -3
c-11.333 4.66699 -21.833 11.167 -31.5 19.5s-19.5 22.833 -29.5 43.5c-2.66699 5.33301 -2.83398 12 -0.500977 20s3.5 15.333 3.5 22c0 4 0.5 10.833 1.5 20.5s2.66699 20.167 5 31.5s5 22.5 8 33.5s6.5 19.833 10.5 26.5c2.66699 4 5.33398 8.83301 8.00098 14.5
s8 7.83398 16 6.50098c7.33301 -0.666992 13.333 -1.16699 18 -1.5s9 -0.666016 13 -0.999023s8.16699 -0.833008 12.5 -1.5s9.5 -2.33398 15.5 -5.00098c15.333 -6 22 -16 20 -30zM320.998 672.999c-2 -16 -5.00195 -32.834 -9.00195 -50.501
s-8.16699 -34.834 -12.5 -51.501s-8.83301 -31.667 -13.5 -45s-8.66699 -23.666 -12 -30.999c-3.33301 -6.66699 -6.16602 -12.667 -8.49902 -18s-7.16602 -6.33301 -14.499 -3c-11.333 4.66699 -21.833 11.167 -31.5 19.5s-19.5 22.833 -29.5 43.5
c-2.66699 5.33301 -2.83398 12 -0.500977 20s3.5 15.333 3.5 22c0 4 0.5 10.833 1.5 20.5s2.66699 20.167 5 31.5s5 22.5 8 33.5s6.5 19.833 10.5 26.5c2.66699 4 5.33398 8.83301 8.00098 14.5s8 7.83398 16 6.50098c7.33301 -0.666992 13.333 -1.16699 18 -1.5
s9 -0.666016 13 -0.999023s8.16699 -0.833008 12.5 -1.5s9.5 -2.33398 15.5 -5.00098c15.333 -6 22 -16 20 -30z" />
    <glyph glyph-name="numbersign" unicode="#" horiz-adv-x="788" 
d="M118 362c-18.667 1.33301 -32.6738 5.16309 -42.0068 11.4961s-19.333 15.833 -30 28.5c-4 4.66699 -8.83301 11.834 -14.5 21.501s-9.5 21.834 -11.5 36.501c-1.33301 8.66699 -1.33301 15.834 0 21.501s5.66602 9.16699 12.999 10.5c14 2 37.333 3.83301 70 5.5
s69.334 3.83398 110.001 6.50098c11.333 46 21.5 86.667 30.5 122s14.5 60.666 16.5 75.999c0.666992 4.66699 4.5 9.33398 11.5 14.001s14.5 7 22.5 7c8.66699 0 18 -1.33301 28 -4s20 -5.83398 30 -9.50098s19.5 -7.33398 28.5 -11.001s16.5 -6.83398 22.5 -9.50098
c8 -3.33301 13.833 -8.5 17.5 -15.5s4.83398 -14.5 3.50098 -22.5c-3.33301 -16 -7.33301 -35.167 -12 -57.5s-10.667 -47.5 -18 -75.5l48 6l40 5c10 40.667 18.667 76.167 26 106.5s12 51.166 14 62.499c0.666992 4.66699 4.5 9.33398 11.5 14.001s14.5 7 22.5 7
c17.333 0 35.666 -3.66699 54.999 -11s35.333 -13.666 48 -18.999c8 -3.33301 13.833 -8.5 17.5 -15.5s4.83398 -14.5 3.50098 -22.5c-2 -12.667 -4.83301 -27.167 -8.5 -43.5s-8.16699 -34.166 -13.5 -53.499c0 -6 2.66699 -9.33301 8 -10
c18.667 1.33301 34.334 2.16602 47.001 2.49902s20 -0.166992 22 -1.5c5.33301 -2.66699 10.166 -5.5 14.499 -8.5s8.16602 -7.5 11.499 -13.5s6.83301 -14 10.5 -24s7.83398 -23 12.501 -39c2.66699 -8.66699 3.5 -17 2.5 -25s-7.16699 -12.667 -18.5 -14
c-21.333 -2.66699 -44 -5.83398 -68 -9.50098s-51.333 -7.16699 -82 -10.5c-3.33301 -11.333 -6.66602 -23 -9.99902 -35s-6.66602 -24.333 -9.99902 -37c29.333 2.66699 55.333 4.66699 78 6s35.667 1.33301 39 0c5.33301 -2.66699 10 -5.83398 14 -9.50098
s8.16699 -8.5 12.5 -14.5s9.16602 -13.5 14.499 -22.5s12 -20.5 20 -34.5c4.66699 -7.33301 6.5 -15.333 5.5 -24s-7.16699 -13.667 -18.5 -15c-26 -3.33301 -53.833 -7.5 -83.5 -12.5s-65.5 -9.83301 -107.5 -14.5c-6 -2 -10.333 -5.66699 -13 -11
c-7.33301 -28 -14 -55.833 -20 -83.5s-11.667 -54.5 -17 -80.5c-1.33301 -7.33301 -3.66602 -12.666 -6.99902 -15.999s-8.66602 -5 -15.999 -5c-9.33301 0 -18.5 2.33301 -27.5 7s-17.833 10.667 -26.5 18s-16.667 15.333 -24 24s-14 16.667 -20 24
c-3.33301 4.66699 -6.16602 10.334 -8.49902 17.001s-2.83301 13.667 -1.5 21c1.33301 10 2.83301 21 4.5 33s3.83398 24.667 6.50098 38c-9.33301 -0.666992 -23.5 -2.16699 -42.5 -4.5s-37.167 -4.16602 -54.5 -5.49902c-6.66699 -28 -12.667 -55.333 -18 -82
s-10 -52.667 -14 -78c-2 -14 -9.66699 -21 -23 -21c-12 0 -23.167 3 -33.5 9s-20 13.167 -29 21.5s-17.333 17.333 -25 27s-14.5 18.167 -20.5 25.5c-7.33301 10 -10.666 21 -9.99902 33c1.33301 18 3.33301 37.333 6 58c-4.66699 -0.666992 -8.83398 -1.16699 -12.501 -1.5
s-7.16699 -0.5 -10.5 -0.5c-18.667 1.33301 -33 5.16602 -43 11.499s-20.333 15.833 -31 28.5c-4 4.66699 -9.5 11.5 -16.5 20.5s-14.167 20.833 -21.5 35.5c-3.33301 7.33301 -3.83301 14.333 -1.5 21s7.16602 10.334 14.499 11.001c13.333 1.33301 32.833 2.33301 58.5 3
s54.834 1.66699 87.501 3l8 38c2.66699 12.667 5.66699 25.667 9 39c-11.333 -0.666992 -22.166 -1.16699 -32.499 -1.5s-19.833 -1.16602 -28.5 -2.49902zM357.993 378.997l-21.002 -79.998c16.667 1.33301 32.834 2.83301 48.501 4.5s30.834 3.5 45.501 5.5
c2.66699 13.333 5.5 26.166 8.5 38.499s6.16699 25.166 9.5 38.499l-47 -2z" />
    <glyph glyph-name="dollar" unicode="$" horiz-adv-x="540" 
d="M154 -96c1.33301 12.667 2.3291 26.5078 2.99609 41.5078s1.66699 30.167 3 45.5c-20 7.33301 -36.5 15.833 -49.5 25.5s-24.167 20.167 -33.5 31.5c-16.667 19.333 -30.334 39.166 -41.001 59.499s-16.334 38.166 -17.001 53.499c-0.666992 21.333 0.5 34 3.5 38
s7.5 7.33301 13.5 10c8.66699 3.33301 19 1 31 -7s26.667 -14.667 44 -20c24.667 -8 44.834 -14.333 60.501 -19s33.167 -5.33398 52.5 -2.00098c10.667 2 20.834 5.83301 30.501 11.5s14.834 15.167 15.501 28.5c0 7.33301 -3.66699 14 -11 20s-17.5 12.167 -30.5 18.5
s-28.167 13 -45.5 20s-35.666 14.833 -54.999 23.5c-17.333 8 -33.166 16 -47.499 24s-26.833 18.333 -37.5 31s-18.834 28.5 -24.501 47.5s-8.5 43.167 -8.5 72.5c0 34.667 5.66699 67.5 17 98.5s27.166 58.5 47.499 82.5s44.666 43.833 72.999 59.5s59.833 25.5 94.5 29.5
c1.33301 8 2.83301 17.833 4.5 29.5s3.66699 23.5 6 35.5s4.5 23.167 6.5 33.5s4 18.166 6 23.499c1.33301 4.66699 3.66602 9.66699 6.99902 15s9 7.33301 17 6c14 -2 27.833 -7 41.5 -15s26.834 -15.667 39.501 -23c8 -4.66699 13.667 -8.83398 17 -12.501
s4.33301 -9.5 3 -17.5c-2 -13.333 -3.83301 -27.333 -5.5 -42s-3.5 -29 -5.5 -43c14 -3.33301 27.333 -7.5 40 -12.5s25.334 -10.167 38.001 -15.5c9.33301 -4 18.666 -9.5 27.999 -16.5s17.5 -15 24.5 -24s12.333 -18.667 16 -29s4.83398 -20.833 3.50098 -31.5
s-2.66602 -21.834 -3.99902 -33.501s-3.66602 -24 -6.99902 -37s-8 -27.167 -14 -42.5s-14 -32 -24 -50c-1.33301 -2 -3.16602 -5.5 -5.49902 -10.5s-5.33301 -10 -9 -15s-8 -9.66699 -13 -14s-10.833 -7.5 -17.5 -9.5c-7.33301 -2 -15.666 -0.5 -24.999 4.5
s-19.666 9.16699 -30.999 12.5c-12.667 2.66699 -22.334 5.66699 -29.001 9s-11.334 7.83301 -14.001 13.5s-3.83398 12.5 -3.50098 20.5s0.833008 17.667 1.5 29c2.66699 27.333 -0.5 47 -9.5 59s-22.167 18 -39.5 18s-32.5 -7.5 -45.5 -22.5s-19.5 -35.167 -19.5 -60.5
c0 -30 6.83301 -53.333 20.5 -70s30.667 -30.167 51 -40.5s42.166 -19.333 65.499 -27s45.166 -17.5 65.499 -29.5s37.166 -28 50.499 -48s20 -47.667 20 -83c0 -32 -6 -59.5 -18 -82.5s-27.667 -42.167 -47 -57.5s-40.666 -27 -63.999 -35s-46.666 -12.333 -69.999 -13
c-1.33301 -19.333 -2.66602 -39.333 -3.99902 -60s-3.33301 -35.334 -6 -44.001c-1.33301 -4.66699 -3.66602 -9.33398 -6.99902 -14.001s-9 -7 -17 -7c-14 0 -28.667 2.66699 -44 8s-29.333 11 -42 17c-8 4 -13.667 8 -17 12s-4.33301 10 -3 18z" />
    <glyph glyph-name="percent" unicode="%" horiz-adv-x="708" 
d="M671 601c-30.667 -28.667 -68.3281 -66.8291 -112.995 -114.496s-91.334 -99.667 -140.001 -156s-97 -114.5 -145 -174.5s-91 -116.667 -129 -170c-8.66699 -12.667 -19.334 -16 -32.001 -10c-8.66699 4 -16.167 7.66699 -22.5 11s-12.333 7 -18 11
s-11.5 8.83301 -17.5 14.5s-12.667 13.167 -20 22.5c-3.33301 4.66699 -4.33301 10.167 -3 16.5s3.66602 12.166 6.99902 17.499c16 27.333 38.333 60.166 67 98.499s60.5 78.666 95.5 120.999s71.333 85.166 109 128.499s73.667 83.333 108 120s65.333 68.334 93 95.001
s48.834 45 63.501 55c4 2.66699 9.16699 5.66699 15.5 9s13.166 3.33301 20.499 0c15.333 -7.33301 26.166 -15.5 32.499 -24.5s14.166 -19.5 23.499 -31.5c5.33301 -6.66699 9 -13.334 11 -20.001s0 -13 -6 -19zM159.006 725.005c16 0 32.3359 -2 49.0029 -6
s29.667 -9 39 -15c5.33301 -2.66699 11 -7.16699 17 -13.5s11.5 -14.5 16.5 -24.5s9.33301 -22.167 13 -36.5s5.5 -30.833 5.5 -49.5c0 -25.333 -3.66699 -50 -11 -74s-17 -45.333 -29 -64s-25.333 -33.667 -40 -45s-29.334 -17 -44.001 -17
c-16.667 0 -33.334 2.66699 -50.001 8s-30.334 10.333 -41.001 15c-14.667 6 -27.334 18.333 -38.001 37s-16 47 -16 85c0 28 3.5 54.167 10.5 78.5s16.5 45.5 28.5 63.5s25.833 32.167 41.5 42.5s31.834 15.5 48.501 15.5zM176.009 627.005
c-5.33301 0 -8.16797 -0.5 -8.50098 -1.5s-1.16602 -2.16699 -2.49902 -3.5c-5.33301 -5.33301 -12.166 -16.5 -20.499 -33.5s-12.5 -37.5 -12.5 -61.5c0 -12.667 0.666992 -22.5 2 -29.5s3 -12.333 5 -16s4 -6 6 -7s3.66699 -1.5 5 -1.5
c5.33301 0 10.833 4.83301 16.5 14.5s11.167 21 16.5 34s9.66602 25.833 12.999 38.5s5 21.667 5 27c0 15.333 -2.33301 25.833 -7 31.5s-10.667 8.5 -18 8.5zM502.007 310.005c8 0 18.1689 -0.999023 30.502 -2.99902s24.833 -4.5 37.5 -7.5s24.167 -6.16699 34.5 -9.5
s17.833 -6.66602 22.5 -9.99902c5.33301 -2.66699 9.83301 -6.16699 13.5 -10.5s7 -10.333 10 -18s5.16699 -17.667 6.5 -30s2 -27.833 2 -46.5c0 -25.333 -3.5 -49.333 -10.5 -72s-16.167 -42.834 -27.5 -60.501s-24.166 -31.834 -38.499 -42.501s-28.833 -17 -43.5 -19
c-16.667 -2 -32.834 -2.5 -48.501 -1.5s-28.834 3.83301 -39.501 8.5c-14.667 6 -27.834 20 -39.501 42s-17.5 52 -17.5 90c0 28 3 53.667 9 77s14 43.333 24 60s21.5 29.667 34.5 39s26.5 14 40.5 14zM540.009 221.006c-5.33301 0 -9.16797 -1.49707 -11.501 -4.49707
s-4.16602 -5.16699 -5.49902 -6.5c-5.33301 -5.33301 -11.166 -15.333 -17.499 -30s-9.5 -34 -9.5 -58c0 -12.667 0.666992 -22.5 2 -29.5s3 -12.167 5 -15.5s4 -5.33301 6 -6s3.66699 -1 5 -1c5.33301 0 10.666 4.66699 15.999 14s10.5 20.166 15.5 32.499
s9 24.666 12 36.999s4.5 21.166 4.5 26.499c0 15.333 -1.83301 26 -5.5 32s-9.16699 9 -16.5 9z" />
    <glyph glyph-name="ampersand" unicode="&#x26;" horiz-adv-x="630" 
d="M389 278c7.33301 8.66699 13.1709 15.9971 17.5039 21.9971s6.5 9.66699 6.5 11c3.33301 5.33301 10.666 9.33301 21.999 12s21.666 0.333984 30.999 -6.99902c18 -14 35 -25.833 51 -35.5s27.333 -23.167 34 -40.5c8.66699 -14.667 11 -29.334 7 -44.001
c-2 -4 -4.33301 -8.5 -7 -13.5s-5.66699 -10.167 -9 -15.5c19.333 -10.667 34.333 -17.667 45 -21s16 -4.33301 16 -3c4.66699 -3.33301 9.16699 -8.83301 13.5 -16.5s4.16602 -16.5 -0.500977 -26.5c-10 -20.667 -20.167 -39.334 -30.5 -56.001s-22.5 -32.667 -36.5 -48
c-5.33301 -6 -11 -10 -17 -12s-14 -2 -24 0c-8 1.33301 -20.833 6.33301 -38.5 15s-34.167 18.334 -49.5 29.001c-20 -16 -40.667 -28.833 -62 -38.5s-42 -13.5 -62 -11.5c-10.667 1.33301 -21.834 5 -33.501 11s-22.5 9.66699 -32.5 11
c-64 21.333 -114.167 43.333 -150.5 66s-58.166 42 -65.499 58c-11.333 24 -15.666 48.167 -12.999 72.5s9.33398 47.5 20.001 69.5s23.667 42.333 39 61s29.666 34.667 42.999 48v7c-6 9.33301 -12.167 20.666 -18.5 33.999s-11.166 28.166 -14.499 44.499
s-4.33301 33.833 -3 52.5s6 38 14 58c5.33301 14 12.666 29.333 21.999 46s21 32.834 35 48.501s30.667 29.167 50 40.5s42.333 18.333 69 21c10 1.33301 27.167 -2 51.5 -10s49 -18.167 74 -30.5s47.167 -26.166 66.5 -41.499s29 -29.666 29 -42.999
c0 -29.333 -5.33301 -56.166 -16 -80.499s-24.167 -46.666 -40.5 -66.999s-34 -39.333 -53 -57s-36.833 -34.5 -53.5 -50.5c11.333 -11.333 23.166 -22.833 35.499 -34.5s25.166 -23.167 38.499 -34.5zM276.005 499.997c6 6.66699 10.8379 13.999 14.5049 21.999
s5.66699 15.5 6 22.5s-0.833984 13 -3.50098 18s-7.66699 7.5 -15 7.5c-8 0 -14.833 -2.5 -20.5 -7.5s-10.334 -11 -14.001 -18s-6.33398 -14.667 -8.00098 -23s-2.5 -15.833 -2.5 -22.5v-12.5c0 -4.33301 1.66699 -10.166 5 -17.499
c5.33301 3.33301 11.666 7.83301 18.999 13.5s13.666 11.5 18.999 17.5zM209.01 236.996c-2 -4 -4.66797 -8.16602 -8.00098 -12.499s-5 -12.5 -5 -24.5c0 -3.33301 0.666992 -7.5 2 -12.5s3.83301 -9.66699 7.5 -14s8.66699 -8 15 -11s14.166 -4.5 23.499 -4.5
c6 0 14 3 24 9c-7.33301 10.667 -16.666 23.167 -27.999 37.5s-21.666 25.166 -30.999 32.499zM602.009 143.997l1 -1c-0.666992 0 -1 0.333008 -1 1z" />
    <glyph glyph-name="quotesingle" unicode="'" horiz-adv-x="214" 
d="M173 673c-2 -16 -5.00195 -32.834 -9.00195 -50.501s-8.16699 -34.834 -12.5 -51.501s-8.83301 -31.667 -13.5 -45s-8.66699 -23.666 -12 -30.999c-3.33301 -6.66699 -6.16602 -12.667 -8.49902 -18s-7.16602 -6.33301 -14.499 -3
c-11.333 4.66699 -21.833 11.167 -31.5 19.5s-19.5 22.833 -29.5 43.5c-2.66699 5.33301 -2.83398 12 -0.500977 20s3.5 15.333 3.5 22c0 4 0.5 10.833 1.5 20.5s2.66699 20.167 5 31.5s5 22.5 8 33.5s6.5 19.833 10.5 26.5c2.66699 4 5.33398 8.83301 8.00098 14.5
s8 7.83398 16 6.50098c7.33301 -0.666992 13.333 -1.16699 18 -1.5s9 -0.666016 13 -0.999023s8.16699 -0.833008 12.5 -1.5s9.5 -2.33398 15.5 -5.00098c15.333 -6 22 -16 20 -30z" />
    <glyph glyph-name="parenleft" unicode="(" horiz-adv-x="344" 
d="M326 531c-10 -12.667 -21.333 -28.6699 -34 -48.0029s-24.667 -40.666 -36 -63.999s-21.166 -47.666 -29.499 -72.999s-13.833 -50.333 -16.5 -75c-5.33301 -50.667 -5.83301 -97.834 -1.5 -141.501s11.166 -83.5 20.499 -119.5s20 -68 32 -96s22.667 -51.333 32 -70
c3.33301 -6 1.16602 -12.167 -6.50098 -18.5s-15.167 -7.83301 -22.5 -4.5c-10 4.66699 -21.5 11.334 -34.5 20.001s-26.167 18 -39.5 28s-26.166 20 -38.499 30s-22.5 18.333 -30.5 25c-12.667 10.667 -24.334 28.5 -35.001 53.5s-19.667 53.667 -27 86
s-12.666 66.5 -15.999 102.5s-4 70 -2 102c3.33301 54.667 10.5 104.667 21.5 150s24.833 86.166 41.5 122.499s35.667 68.833 57 97.5s43.333 53.334 66 74.001c2 1.33301 4.33301 3.5 7 6.5s5.83398 5.66699 9.50098 8s7.66699 3.66602 12 3.99902
s9.16602 -1.5 14.499 -5.5c7.33301 -4.66699 14.5 -12.667 21.5 -24s13.667 -23.666 20 -36.999s12.166 -26.833 17.499 -40.5s9.33301 -25.5 12 -35.5c4 -13.333 3.33301 -25.166 -2 -35.499s-9.66602 -17.5 -12.999 -21.5z" />
    <glyph glyph-name="parenright" unicode=")" horiz-adv-x="364" 
d="M18 24c10 12.667 21.3359 28.6699 34.0029 48.0029s24.667 40.666 36 63.999s21.166 47.666 29.499 72.999s13.833 50.333 16.5 75c5.33301 50.667 5.83301 97.834 1.5 141.501s-11.166 83.5 -20.499 119.5s-20 68 -32 96s-22.667 51.333 -32 70
c-3.33301 6 -1.16602 12.167 6.50098 18.5s15.167 7.83301 22.5 4.5c10 -4.66699 21.5 -11.334 34.5 -20.001s26.167 -18 39.5 -28s26.166 -20 38.499 -30s22.5 -18.333 30.5 -25c13.333 -10.667 25.166 -28.5 35.499 -53.5s19.166 -53.667 26.499 -86
s12.666 -66.5 15.999 -102.5s4 -70 2 -102c-2.66699 -54.667 -9.66699 -104.667 -21 -150s-25.333 -86.166 -42 -122.499s-35.5 -68.833 -56.5 -97.5s-43.167 -53.334 -66.5 -74.001c-2 -1.33301 -4.33301 -3.5 -7 -6.5s-5.83398 -5.66699 -9.50098 -8
s-7.66699 -3.66602 -12 -3.99902s-9.16602 1.5 -14.499 5.5c-6.66699 4.66699 -13.667 12.667 -21 24s-14.166 23.666 -20.499 36.999s-12 26.833 -17 40.5s-9.16699 25.5 -12.5 35.5c-4 13.333 -3.33301 25.166 2 35.499s9.66602 17.5 12.999 21.5z" />
    <glyph glyph-name="asterisk" unicode="*" horiz-adv-x="310" 
d="M276 569c-5.33301 0.666992 -11.835 1.00293 -19.502 1.00293h-23.5l10 -14c3.33301 -4.66699 6.66602 -8.33398 9.99902 -11.001c4 -2.66699 7 -7.5 9 -14.5s0 -13.5 -6 -19.5c-6.66699 -7.33301 -12.667 -13.166 -18 -17.499s-13.666 -9.16602 -24.999 -14.499
c-12 -4.66699 -22.667 -1 -32 11c-4 6 -7.33301 13.333 -10 22s-5 17 -7 25l-31 -44c-1.33301 -4.66699 -4.83301 -8.5 -10.5 -11.5s-12.167 -2.16699 -19.5 2.5c-8 5.33301 -15 10.166 -21 14.499s-12.667 11.833 -20 22.5c-3.33301 5.33301 -5.33301 10.166 -6 14.499
s1.66602 9.16602 6.99902 14.499c5.33301 4.66699 11.833 9.5 19.5 14.5s15.167 9.83301 22.5 14.5c-7.33301 1.33301 -14.166 2.66602 -20.499 3.99902s-11.833 3 -16.5 5c-4.66699 0.666992 -9.16699 3.33398 -13.5 8.00098s-5.16602 11 -2.49902 19
c3.33301 9.33301 7 19 11 29s10.333 19.667 19 29c4.66699 5.33301 8.83398 8.66602 12.501 9.99902s9.16699 0 16.5 -4c5.33301 -3.33301 10.833 -8.33301 16.5 -15s11.167 -13.334 16.5 -20.001v1c0 8.66699 -0.5 18.334 -1.5 29.001s-1.5 19.667 -1.5 27
c0 4.66699 1.5 9.16699 4.5 13.5s8.5 6.5 16.5 6.5h27c8.66699 0 19.334 -2.66699 32.001 -8c8 -3.33301 12.667 -6.5 14 -9.5s1 -8.5 -1 -16.5s-4.5 -16 -7.5 -24s-6.16699 -15.667 -9.5 -23c7.33301 3.33301 15 6.66602 23 9.99902s14.667 5.66602 20 6.99902
c4.66699 2.66699 10.167 2.83398 16.5 0.500977s10.833 -7.5 13.5 -15.5c3.33301 -9.33301 6 -17.333 8 -24s2.33301 -16.334 1 -29.001c-0.666992 -7.33301 -2.83398 -12.166 -6.50098 -14.499s-9.16699 -4.16602 -16.5 -5.49902z" />
    <glyph glyph-name="plus" unicode="+" horiz-adv-x="476" 
d="M393 399c8.66699 2 17.002 -1.66602 25.002 -10.999c2 -2 4 -7 6 -15s4 -17.167 6 -27.5s3.5 -20.666 4.5 -30.999s1.5 -19.166 1.5 -26.499c0 -8.66699 -2.33301 -15.334 -7 -20.001s-9.66699 -7.33398 -15 -8.00098c-12.667 -1.33301 -30.334 -2.83301 -53.001 -4.5
s-47.334 -3.5 -74.001 -5.5c-3.33301 -24 -6.16602 -46.333 -8.49902 -67s-3.5 -37.667 -3.5 -51c-0.666992 -3.33301 -3.66699 -7.66602 -9 -12.999s-12.333 -7.66602 -21 -6.99902c-10 0 -23.5 0.833008 -40.5 2.5s-32.833 6.16699 -47.5 13.5
c-4.66699 2 -8.83398 8.66699 -12.501 20s-4.83398 23.333 -3.50098 36l5 57l-56 -5c-12.667 -1.33301 -22.834 0.666992 -30.501 6s-12.5 10.333 -14.5 15c-7.33301 14.667 -13.333 30.667 -18 48s-7 31.333 -7 42c0 8.66699 2.66699 15.5 8 20.5s9.66602 7.5 12.999 7.5
c12.667 -0.666992 29.834 -0.166992 51.501 1.5s45.167 3.5 70.5 5.5c3.33301 26 6.33301 50.167 9 72.5s5 39.833 7 52.5c0.666992 5.33301 3.33398 10.166 8.00098 14.499s11.667 6.5 21 6.5c7.33301 -0.666992 16.333 -2.33398 27 -5.00098
s21.334 -5.83398 32.001 -9.50098s20 -7.33398 28 -11.001s13 -6.5 15 -8.5c8.66699 -8.66699 11.667 -17 9 -25c-1.33301 -8.66699 -2.66602 -19.167 -3.99902 -31.5s-3.33301 -26.166 -6 -41.499c18 1.33301 34.167 2.33301 48.5 3s26.166 0.666992 35.499 0z" />
    <glyph glyph-name="comma" unicode="," horiz-adv-x="226" 
d="M36 -81c4.66699 11.333 9.49805 23.332 14.498 35.999s9.83301 25.667 14.5 39c-19.333 4.66699 -34.666 14.334 -45.999 29.001c-6 8 -9 18 -9 30c0 17.333 1.16699 34.166 3.5 50.499s5.16602 30.833 8.49902 43.5c1.33301 4 3.5 7.83301 6.5 11.5
s8.16699 5.5 15.5 5.5c15.333 0 33.166 -1 53.499 -3s38.5 -8.33301 54.5 -19c6 -4 11.667 -10.667 17 -20s7.33301 -17.666 6 -24.999c-2 -12.667 -3.66699 -23 -5 -31s-2.66602 -15.167 -3.99902 -21.5s-2.83301 -12.333 -4.5 -18s-3.5 -12.5 -5.5 -20.5
c-0.666992 -1.33301 -1.16699 -2.83301 -1.5 -4.5s-1.16602 -3.16699 -2.49902 -4.5c-2 -6.66699 -4.66699 -14.167 -8 -22.5s-7 -16.666 -11 -24.999s-8 -16.333 -12 -24s-7.66699 -14.167 -11 -19.5c-7.33301 -11.333 -15.166 -18.333 -23.499 -21
s-18.5 -1.33398 -30.5 3.99902c-15.333 6 -22 16 -20 30z" />
    <glyph glyph-name="hyphen" unicode="-" horiz-adv-x="464" 
d="M372 376c8.66699 2 17.001 -1.66797 25.001 -11.001c2 -2 4.5 -6.66699 7.5 -14s6 -15.833 9 -25.5s5.5 -19.334 7.5 -29.001s3 -18.167 3 -25.5c0 -18.667 -6.33301 -27.334 -19 -26.001c-15.333 0.666992 -37.333 0.333984 -66 -0.999023s-58.5 -3 -89.5 -5
s-60.167 -4.33301 -87.5 -7s-47.666 -4.66699 -60.999 -6c-12.667 -1.33301 -22.667 0.666992 -30 6s-12.333 10.333 -15 15c-8.66699 14.667 -16.834 29.334 -24.501 44.001s-11.5 27.334 -11.5 38.001c0 8.66699 2.66699 15.5 8 20.5s9.66602 7.5 12.999 7.5
c17.333 0 41.5 1.16699 72.5 3.5s63 4.83301 96 7.5s64.5 5 94.5 7s52.667 2.33301 68 1z" />
    <glyph glyph-name="period" unicode="." horiz-adv-x="226" 
d="M175 97c-2 -12.667 -3.66602 -23 -4.99902 -31s-2.66602 -15.167 -3.99902 -21.5s-2.83301 -12.333 -4.5 -18s-3.5 -12.5 -5.5 -20.5c-2 -6 -4.16699 -10.667 -6.5 -14s-7.16602 -5 -14.499 -5c-30.667 0 -54.834 2.5 -72.501 7.5s-32.167 14.5 -43.5 28.5
c-6 8 -9 18 -9 30c0 17.333 1.16699 34.166 3.5 50.499s5.16602 30.833 8.49902 43.5c1.33301 4 3.5 7.83301 6.5 11.5s8.16699 5.5 15.5 5.5c15.333 0 33.166 -1 53.499 -3s38.5 -8.33301 54.5 -19c6 -4 11.667 -10.667 17 -20s7.33301 -17.666 6 -24.999z" />
    <glyph glyph-name="slash" unicode="/" horiz-adv-x="503" 
d="M499 614c-18.667 -34 -42.668 -74.498 -72.001 -121.498s-60.833 -97.167 -94.5 -150.5s-67.834 -108.333 -102.501 -165s-66.667 -111.667 -96 -165c-6 -12 -15.667 -15.333 -29 -10c-21.333 8.66699 -39.666 19 -54.999 31s-30.666 27.333 -45.999 46
c-3.33301 4.66699 -4.16602 10.167 -2.49902 16.5s3.83398 12.166 6.50098 17.499c11.333 27.333 27.166 60.166 47.499 98.499s43 78.5 68 120.5s50.667 84.333 77 127s51.333 82 75 118s44.667 66.5 63 91.5s31.5 41.5 39.5 49.5
c3.33301 3.33301 7.33301 6.16602 12 8.49902s10.667 1.83301 18 -1.5c15.333 -7.33301 30.833 -18.166 46.5 -32.499s28.167 -27.5 37.5 -39.5c11.333 -13.333 13.666 -26.333 6.99902 -39z" />
    <glyph glyph-name="zero" unicode="0" horiz-adv-x="567" 
d="M250 727c17.333 0 35.834 -1.49805 55.501 -4.49805s38.667 -6.83301 57 -11.5s35.5 -10 51.5 -16s29 -12.333 39 -19s20.5 -14.834 31.5 -24.501s20.667 -23 29 -40s14.666 -38.667 18.999 -65s5.16602 -59.5 2.49902 -99.5c-3.33301 -56.667 -12.166 -112 -26.499 -166
s-32 -102.167 -53 -144.5s-44.333 -76.333 -70 -102s-51.5 -38.834 -77.5 -39.501c-17.333 0 -35.5 1.16699 -54.5 3.5s-37.5 5.5 -55.5 9.5s-34.667 9 -50 15s-28 12.333 -38 19s-19.833 15.667 -29.5 27s-18.334 26.5 -26.001 45.5s-13.667 42.5 -18 70.5
s-6.5 62 -6.5 102c0 55.333 6 109.333 18 162s28.167 99.5 48.5 140.5s43.833 74.167 70.5 99.5s54.334 38 83.001 38zM321.001 548.002c-4 0.666992 -7.33594 -0.830078 -10.0029 -4.49707s-5 -7.83398 -7 -12.501s-3.66699 -9.33398 -5 -14.001s-2.33301 -8 -3 -10
c-9.33301 -32 -17 -59.167 -23 -81.5s-11 -42.666 -15 -60.999s-7.5 -36 -10.5 -53s-5.83301 -35.5 -8.5 -55.5c-3.33301 -25.333 -4.5 -46 -3.5 -62s3.83301 -24 8.5 -24c3.33301 0 6.33301 2 9 6s5.33398 8.83301 8.00098 14.5s5 11.667 7 18s3.66699 11.833 5 16.5
c2 6.66699 4.33301 15.167 7 25.5s5.83398 24.666 9.50098 42.999s8.16699 41.5 13.5 69.5s12 62.667 20 104c1.33301 6.66699 2.33301 14.667 3 24s0.833984 18.166 0.500977 26.499s-0.833008 15.5 -1.5 21.5s-2 9 -4 9z" />
    <glyph glyph-name="one" unicode="1" horiz-adv-x="374" 
d="M343 647c-4.66699 -28.667 -10.334 -65.832 -17.001 -111.499s-13.5 -96.334 -20.5 -152.001s-13.833 -113.834 -20.5 -174.501s-12.667 -120.334 -18 -179.001c-0.666992 -14 -8.33398 -21 -23.001 -21c-12.667 0 -25.834 3.16699 -39.501 9.5s-27 13.833 -40 22.5
s-25.167 17.667 -36.5 27s-20.666 17 -27.999 23c-4.66699 3.33301 -8.16699 8.83301 -10.5 16.5s-3.5 14.834 -3.5 21.501c0 38.667 2.66699 81.334 8 128.001s11.333 94.667 18 144c-17.333 8 -33.333 16 -48 24c-13.333 6.66699 -25.333 13.167 -36 19.5
s-17.334 11.5 -20.001 15.5c-4 8 -6.5 16.167 -7.5 24.5s6.5 16.833 22.5 25.5c16.667 9.33301 32.5 23.666 47.5 42.999s28.333 39.333 40 60s21.334 39.334 29.001 56.001s12.5 27 14.5 31c2 4.66699 5 9 9 13s10 6 18 6c8.66699 0 18.834 -0.666992 30.501 -2
s23.5 -3.33301 35.5 -6s23.833 -6 35.5 -10s21.834 -8.66699 30.501 -14c7.33301 -4.66699 14.5 -10.5 21.5 -17.5s9.83301 -14.5 8.5 -22.5z" />
    <glyph glyph-name="two" unicode="2" horiz-adv-x="534" 
d="M180 11c-21.333 -4.66699 -36.6689 -5.50781 -46.002 -2.50781s-19 8.83301 -29 17.5c-2 2 -8.66699 6.83301 -20 14.5s-23.166 16.667 -35.499 27s-23.5 20.666 -33.5 30.999s-15 18.833 -15 25.5c0 8.66699 2.66699 17.334 8 26.001v1c13.333 28 32.333 57.5 57 88.5
s50.5 61.833 77.5 92.5s52.5 60.167 76.5 88.5s42 53.5 54 75.5c2.66699 5.33301 2.83398 9.66602 0.500977 12.999s-8.16602 5.33301 -17.499 6c-5.33301 0 -12.833 -0.833008 -22.5 -2.5s-20.167 -4 -31.5 -7s-22.666 -6.33301 -33.999 -10s-21.333 -7.5 -30 -11.5
c-13.333 -6 -23.5 -6.33301 -30.5 -1s-13.167 11 -18.5 17l-43 107c-4.66699 15.333 -5 25.833 -1 31.5s12.667 12.167 26 19.5c17.333 8.66699 35.833 16.5 55.5 23.5s38.834 12.833 57.501 17.5s36 8.33398 52 11.001s28.667 4.33398 38 5.00098
c16 1.33301 34.333 -1.66699 55 -9s41.334 -17.166 62.001 -29.499s40.167 -26 58.5 -41s32.833 -30.167 43.5 -45.5c2 -2 3.5 -6.33301 4.5 -13s1.5 -14.667 1.5 -24s-0.833008 -19.333 -2.5 -30s-4.83398 -21.667 -9.50098 -33c-8.66699 -24.667 -21 -48.334 -37 -71.001
s-33.667 -45.167 -53 -67.5s-39.333 -44.833 -60 -67.5s-40 -46 -58 -70c-2.66699 -3.33301 -3.83398 -6.66602 -3.50098 -9.99902s2.16602 -5.66602 5.49902 -6.99902c14.667 -0.666992 28.167 -1.16699 40.5 -1.5s23.166 -0.5 32.499 -0.5
c26.667 -0.666992 47 -2.83398 61 -6.50098s24.333 -7.16699 31 -10.5c9.33301 -5.33301 18.666 -20 27.999 -44s20.333 -52 33 -84c6 -15.333 7.33301 -28.666 4 -39.999s-12 -18.666 -26 -21.999c-4 -0.666992 -11.667 0 -23 2s-25.666 4.5 -42.999 7.5s-36.833 6 -58.5 9
s-45.167 4.83301 -70.5 5.5c-15.333 0.666992 -27.333 0.833984 -36 0.500977s-16.167 -0.666016 -22.5 -0.999023s-13.333 -0.666016 -21 -0.999023s-18.167 -0.166016 -31.5 0.500977z" />
    <glyph glyph-name="three" unicode="3" horiz-adv-x="493" 
d="M91 501c-9.33301 0.666992 -16.1709 1.83398 -20.5039 3.50098s-7.83301 4 -10.5 7s-5.16699 6.83301 -7.5 11.5s-6.16602 10 -11.499 16c-2 2 -4.83301 6.66699 -8.5 14s-7.5 16 -11.5 26s-7.83301 21.167 -11.5 33.5s-6.5 24.5 -8.5 36.5
c-1.33301 8.66699 0.333984 15.834 5.00098 21.501s10.667 9.16699 18 10.5c12.667 2 27.334 4.66699 44.001 8s36.167 7 58.5 11s48 7.66699 77 11s62.5 6 100.5 8c13.333 0.666992 24.833 -0.5 34.5 -3.5s17.834 -6.5 24.501 -10.5s12.334 -8 17.001 -12s8.66699 -7 12 -9
c5.33301 -2.66699 11.666 -7.16699 18.999 -13.5s14.666 -13.333 21.999 -21s14.333 -15.334 21 -23.001s12 -14.167 16 -19.5c2.66699 -3.33301 3.5 -9.66602 2.5 -18.999s-3.33301 -19.5 -7 -30.5s-8.16699 -22 -13.5 -33s-11.333 -20.167 -18 -27.5
c-21.333 -32 -40.333 -59.5 -57 -82.5s-31.334 -39.833 -44.001 -50.5l-1 -1c23.333 -9.33301 43 -18.833 59 -28.5s28.333 -21.167 37 -34.5s14.167 -29.833 16.5 -49.5s1.83301 -44.5 -1.5 -74.5c-2.66699 -24 -11.167 -47.333 -25.5 -70s-32 -43 -53 -61
s-43.833 -32.333 -68.5 -43s-49 -16 -73 -16c-39.333 0 -71.333 6.33301 -96 19s-47 30.334 -67 53.001c-16 18 -29.5 36.667 -40.5 56s-17.167 33.333 -18.5 42c-1.33301 10 1.16699 17.5 7.5 22.5s12.5 8.5 18.5 10.5c14 4.66699 26.667 4.16699 38 -1.5
s22.666 -11.167 33.999 -16.5c15.333 -6.66699 30.833 -10.334 46.5 -11.001s30.167 1.33301 43.5 6s25.166 12 35.499 22s17.833 23 22.5 39c4.66699 15.333 3.83398 29.166 -2.49902 41.499s-14.5 20.5 -24.5 24.5c-5.33301 2 -11 1.66699 -17 -1s-13 -4.66699 -21 -6
c-5.33301 -1.33301 -8.66602 -0.5 -9.99902 2.5s-3.33301 6.5 -6 10.5c-0.666992 0 -1 0.333008 -1 1c-2 2 -4.5 5.33301 -7.5 10s-6.16699 9.66699 -9.5 15s-6.33301 10.5 -9 15.5s-5 8.5 -7 10.5c-3.33301 4.66699 -6.83301 10.167 -10.5 16.5s-2.16699 11.833 4.5 16.5
c12 8 23.5 15.167 34.5 21.5s22 14.333 33 24s22 21.667 33 36s21.833 33.5 32.5 57.5c-6 0.666992 -12.333 1.16699 -19 1.5s-13.667 0.5 -21 0.5c-18.667 0 -34.5 -1 -47.5 -3s-24.167 -4.5 -33.5 -7.5s-17.666 -5.83301 -24.999 -8.5s-14.666 -4.33398 -21.999 -5.00098z
" />
    <glyph glyph-name="four" unicode="4" horiz-adv-x="536" 
d="M461 367c5.33301 1.33301 10.334 0.49707 15.001 -2.50293s8.66699 -6.5 12 -10.5c2 -2 5.16699 -6.83301 9.5 -14.5s8.5 -16.5 12.5 -26.5s7.66699 -20 11 -30s5 -18.667 5 -26c0 -18.667 -6.33301 -27.334 -19 -26.001c-10 0.666992 -25.667 0.5 -47 -0.5
s-45.666 -2.5 -72.999 -4.5c-4 -33.333 -7.83301 -66.833 -11.5 -100.5s-6.5 -67.5 -8.5 -101.5c-0.666992 -7.33301 -2.83398 -13.5 -6.50098 -18.5s-9.16699 -5.83301 -16.5 -2.5c-34 15.333 -62.167 30.833 -84.5 46.5s-39.5 31.167 -51.5 46.5
c-6.66699 8.66699 -10 19.667 -10 33c0 24.667 1 52.334 3 83.001c-28 -2.66699 -52.833 -5 -74.5 -7s-36.834 -3.66699 -45.501 -5c-12.667 -1.33301 -22.667 0.666992 -30 6s-12.333 10.333 -15 15c-8.66699 14.667 -16.834 26.667 -24.501 36s-11.5 19.333 -11.5 30
c0 6.66699 1.66699 12.667 5 18c8.66699 22 21.5 50.5 38.5 85.5s36.833 71.833 59.5 110.5s46.834 76.334 72.501 113.001s51.167 67.667 76.5 93c4.66699 4.66699 9.5 7.33398 14.5 8.00098s10 0.5 15 -0.5s9.83301 -2.33301 14.5 -4s8.66699 -3.16699 12 -4.5l2 -1
c10 -2 20.667 -5 32 -9s22.5 -8.16699 33.5 -12.5s21 -8.83301 30 -13.5s16.167 -9 21.5 -13c7.33301 -5.33301 13 -9.66602 17 -12.999s5.33301 -9 4 -17c-5.33301 -29.333 -11.666 -66.333 -18.999 -111s-15 -94 -23 -148c10.667 0.666992 20.667 1 30 1
s17.666 -0.666992 24.999 -2zM229.001 478.997c-20 -28.667 -36.832 -56.333 -50.499 -83s-22.167 -46 -25.5 -58l60 10c2.66699 22 5.16699 44 7.5 66s5.16602 43.667 8.49902 65z" />
    <glyph glyph-name="five" unicode="5" horiz-adv-x="551" 
d="M266 520c-6 -11.333 -10.0029 -26.8389 -12.0029 -46.5059s-3.33301 -40.167 -4 -61.5c16.667 3.33301 35.167 5.83301 55.5 7.5s40.5 -1.5 60.5 -9.5c24.667 -8 47.167 -17.333 67.5 -28s37 -23.667 50 -39s22 -33.833 27 -55.5s4.5 -47.167 -1.5 -76.5
c-6 -32.667 -16.667 -62.334 -32 -89.001s-33.666 -49.334 -54.999 -68.001s-45.166 -33 -71.499 -43s-53.833 -15 -82.5 -15c-35.333 0 -65 4.33301 -89 13s-44.667 20.167 -62 34.5s-32.333 30.5 -45 48.5s-25.667 36.333 -39 55l-9 14c-2.66699 4 -3.5 7.5 -2.5 10.5
s3.16699 5.83301 6.5 8.5s7.16602 4.83398 11.499 6.50098s7.83301 2.83398 10.5 3.50098c7.33301 2 14.666 1.83301 21.999 -0.5s15.833 -5 25.5 -8s21 -5.16699 34 -6.5s28.833 0 47.5 4c21.333 5.33301 41.666 13.666 60.999 24.999s35 24 47 38
c10 11.333 13.833 21.333 11.5 30s-8 15.834 -17 21.501s-19.667 10.167 -32 13.5s-23.833 5.33301 -34.5 6c-15.333 -0.666992 -30.166 -2.66699 -44.499 -6s-27.333 -6.16602 -39 -8.49902s-22 -3.5 -31 -3.5s-16.167 3 -21.5 9c-4 4 -6.66699 8.83301 -8 14.5
s-2 11.834 -2 18.501c0 12.667 0.666992 27.334 2 44.001s2.66602 33.834 3.99902 51.501s3 35 5 52s3.66699 32.167 5 45.5v3c0 4 -1.83301 8.5 -5.5 13.5s-8.16699 10.5 -13.5 16.5s-10.833 12.833 -16.5 20.5s-10.5 16.5 -14.5 26.5
c-3.33301 8 -2.66602 16.667 2.00098 26s10.334 15 17.001 17c24 6.66699 48.667 13.834 74 21.501s51.5 14.834 78.5 21.501s55.333 12.5 85 17.5s60.834 8.5 93.501 10.5c15.333 1.33301 30.333 1 45 -1s25 -5 31 -9s12.833 -12.667 20.5 -26s14.667 -27.666 21 -42.999
s11.333 -30.333 15 -45s4.16699 -25.334 1.5 -32.001c-1.33301 -4.66699 -6.66602 -9 -15.999 -13s-16.333 -6 -21 -6c-46 0 -86 -2.5 -120 -7.5s-66 -12.167 -96 -21.5z" />
    <glyph glyph-name="six" unicode="6" horiz-adv-x="526" 
d="M345 460c42 -11.333 73.498 -25.335 94.498 -42.002s35.833 -34.667 44.5 -54s12.5 -39.166 11.5 -59.499s-2.5 -39.833 -4.5 -58.5c-2.66699 -24 -10.667 -50.167 -24 -78.5s-30.166 -54.666 -50.499 -78.999s-43.166 -44.5 -68.499 -60.5s-51 -24 -77 -24
c-19.333 0 -40 3.5 -62 10.5s-42.667 15.167 -62 24.5s-36.666 19.333 -51.999 30s-26.333 20 -33 28c-8.66699 10.667 -15.334 25.334 -20.001 44.001s-7.83398 37.5 -9.50098 56.5s-2.5 36.167 -2.5 51.5s0.333008 25 1 29c0 0.666992 0.333008 1.33398 1 2.00098
c4 79.333 18.5 145.833 43.5 199.5s53.833 97.167 86.5 130.5s65.834 58.166 99.501 74.499s60.5 26.833 80.5 31.5c5.33301 1.33301 10.5 2.83301 15.5 4.5s11.167 -0.166016 18.5 -5.49902c3.33301 -2.66699 7.5 -7.33398 12.5 -14.001s9.83301 -14 14.5 -22
s8.66699 -15.667 12 -23s5.33301 -13 6 -17c1.33301 -9.33301 1.5 -16.166 0.5 -20.499s-7.16699 -10.833 -18.5 -19.5c-19.333 -14.667 -37.5 -30.167 -54.5 -46.5s-32.333 -32.333 -46 -48s-25 -30.334 -34 -44.001s-14.833 -24.834 -17.5 -33.501
c3.33301 4 8.33301 8.33301 15 13s14.167 9 22.5 13s17.333 6.83301 27 8.5s19.5 1.16699 29.5 -1.5zM252.998 149.998c7.33301 2 13.5 4.5 18.5 7.5s9.66699 7.5 14 13.5s8.5 14 12.5 24s8.33301 23 13 39c2 7.33301 2.83301 15.5 2.5 24.5s-2 17.333 -5 25
s-7.16699 14.334 -12.5 20.001s-11.333 8.83398 -18 9.50098c-2.66699 0 -5 0.166992 -7 0.5s-4.33301 0.833008 -7 1.5c-12.667 -1.33301 -23.834 -5.5 -33.501 -12.5s-16.5 -14.167 -20.5 -21.5c-1.33301 -2 -2.66602 -5 -3.99902 -9
c-4 -24.667 -5.33301 -45.334 -4 -62.001s4.5 -29.834 9.5 -39.501s11.167 -16 18.5 -19s15 -3.5 23 -1.5z" />
    <glyph glyph-name="seven" unicode="7" horiz-adv-x="516" 
d="M510 557c-16.667 -31.333 -35 -67.1729 -55 -107.506s-40 -83.5 -60 -129.5s-39.833 -94.667 -59.5 -146s-38.167 -103.666 -55.5 -156.999c-2 -6.66699 -5.66699 -10.667 -11 -12s-11.333 -0.666016 -18 2.00098c-21.333 8.66699 -43.333 23.167 -66 43.5
s-41.667 40.833 -57 61.5c-3.33301 4.66699 -3.83301 10.167 -1.5 16.5s4.16602 12.166 5.49902 17.499c11.333 36.667 24.666 73.167 39.999 109.5s31.833 71.666 49.5 105.999s35.5 67.333 53.5 99s35 60.834 51 87.501c-15.333 -0.666992 -32.333 -2 -51 -4l-56 -6
c-18.667 -2 -36.667 -3.83301 -54 -5.5s-32.333 -2.16699 -45 -1.5c-9.33301 0.666992 -16.5 1.83398 -21.5 3.50098s-9.16699 3.83398 -12.5 6.50098s-6.5 6.16699 -9.5 10.5s-7.16699 9.5 -12.5 15.5c-2 2 -5 6 -9 12s-8.16699 13.167 -12.5 21.5
s-8.5 17.666 -12.5 27.999s-7 20.833 -9 31.5c-1.33301 8.66699 0.333984 15.834 5.00098 21.501s10.667 9.16699 18 10.5c25.333 3.33301 65.833 8.33301 121.5 15s121.5 10 197.5 10c3.33301 0 9.16602 0.166992 17.499 0.5s17.166 0.333008 26.499 0
s17.833 -1.16602 25.5 -2.49902s12.5 -3.66602 14.5 -6.99902c2 -4 5.83301 -9.16699 11.5 -15.5s11.834 -14 18.501 -23s13.334 -19.833 20.001 -32.5s12.334 -27 17.001 -43v-4c1.33301 -5.33301 1.5 -11.166 0.5 -17.499s-2.5 -11.5 -4.5 -15.5z" />
    <glyph glyph-name="eight" unicode="8" horiz-adv-x="572" 
d="M541 244c-3.33301 -40.667 -14.5 -76.333 -33.5 -107s-42 -56.167 -69 -76.5s-56 -35.666 -87 -45.999s-59.833 -15.833 -86.5 -16.5c-11.333 0 -21 0.666992 -29 2s-17.667 4 -29 8c-18.667 6.66699 -38 14.167 -58 22.5s-39 17.333 -57 27s-34.167 19.834 -48.5 30.501
s-25.166 21.667 -32.499 33c-6.66699 10 -10.167 21.5 -10.5 34.5s0.5 25.167 2.5 36.5c5.33301 34 18.666 67.333 39.999 100s52 62 92 88h2c-36 22 -62.667 41.333 -80 58s-25.333 35.667 -24 57c2 41.333 11.167 76.166 27.5 104.499s36.5 51.833 60.5 70.5
s50 32.667 78 42s55 15 81 17c11.333 0 21 -0.666992 29 -2s17.667 -4 29 -8c38 -13.333 73 -27.833 105 -43.5s55.667 -34.834 71 -57.501c6.66699 -10 10.167 -21.5 10.5 -34.5s-0.5 -25.167 -2.5 -36.5c-4.66699 -28 -18.167 -56.667 -40.5 -86
s-48.833 -56.333 -79.5 -81c46 -20.667 81.167 -41.5 105.5 -62.5s35.5 -45.5 33.5 -73.5zM191 225.001c0 -5.33301 2.16699 -10.002 6.5 -14.002s9.66602 -7.16699 15.999 -9.5s13 -4.16602 20 -5.49902s13.167 -1.66602 18.5 -0.999023c19.333 2 35.333 4.83301 48 8.5
s18.334 14.167 17.001 31.5c0 5.33301 -2.83301 11.5 -8.5 18.5s-12 13.833 -19 20.5s-13.5 12.5 -19.5 17.5s-10 7.83301 -12 8.5c-1.33301 0 -2.33301 0.333008 -3 1c-19.333 -10 -34.833 -23 -46.5 -39s-17.5 -28.333 -17.5 -37zM309 519.999
c0 8 -3.16992 13.667 -9.50293 17s-14.833 4.33301 -25.5 3c-19.333 -2 -32.666 -7.5 -39.999 -16.5s-10.333 -20.167 -9 -33.5c0.666992 -4.66699 2.83398 -8.66699 6.50098 -12s7.83398 -6 12.501 -8s9.16699 -3.5 13.5 -4.5s7.5 -1.83301 9.5 -2.5
c0 -0.666992 0.666992 -1 2 -1c13.333 9.33301 23.333 19 30 29s10 19.667 10 29z" />
    <glyph glyph-name="nine" unicode="9" horiz-adv-x="569" 
d="M191 265c-42.667 8 -75.666 20.335 -98.999 37.002s-40.5 35.167 -51.5 55.5s-17.167 41.666 -18.5 63.999s-1 42.833 1 61.5c2.66699 26.667 12.167 54.167 28.5 82.5s36.166 54.333 59.499 78s49 43 77 58s55 22.5 81 22.5c19.333 0 41.166 -3.5 65.499 -10.5
s47.666 -15.333 69.999 -25s42.333 -19.834 60 -30.501s29.834 -20 36.501 -28c8.66699 -10.667 15.667 -25.167 21 -43.5s9.16602 -36.833 11.499 -55.5s3.83301 -35.667 4.5 -51s0.666992 -25 0 -29c-1.33301 -52.667 -12.833 -103 -34.5 -151
s-47.334 -91.5 -77.001 -130.5s-60.5 -72.5 -92.5 -100.5s-59 -48.667 -81 -62c-5.33301 -3.33301 -10.5 -5.33301 -15.5 -6s-11.167 1.66602 -18.5 6.99902c-3.33301 2.66699 -8.83301 6.5 -16.5 11.5s-15.167 10.333 -22.5 16s-14 11.334 -20 17.001
s-9.33301 10.5 -10 14.5c-1.33301 9.33301 -1.16602 15.833 0.500977 19.5s7.5 10.5 17.5 20.5c16.667 16 31.5 32.167 44.5 48.5s24.333 32 34 47s17.5 28.667 23.5 41s10.333 22.5 13 30.5c-4.66699 -0.666992 -11.167 -1.83398 -19.5 -3.50098s-17.166 -3 -26.499 -4
s-18.166 -1.66699 -26.499 -2s-14.833 -0.166016 -19.5 0.500977zM277.001 563.002c-14.667 -2.66699 -25.5 -10.1689 -32.5 -22.502s-15.167 -34.166 -24.5 -65.499c-2 -7.33301 -2.5 -15.666 -1.5 -24.999s3.16699 -18.166 6.5 -26.499s7.83301 -15.5 13.5 -21.5
s11.834 -9.33301 18.501 -10c3.33301 -0.666992 6.33301 -1.16699 9 -1.5s5.66699 -0.5 9 -0.5c12 1.33301 23.333 4.5 34 9.5s18 11.167 22 18.5l4 8c5.33301 27.333 7.16602 50.166 5.49902 68.499s-5.5 33 -11.5 44s-13.667 18.333 -23 22s-19 4.5 -29 2.5z" />
    <glyph glyph-name="colon" unicode=":" horiz-adv-x="256" 
d="M185 97c-2 -12.667 -3.66602 -23 -4.99902 -31s-2.66602 -15.167 -3.99902 -21.5s-2.83301 -12.333 -4.5 -18s-3.5 -12.5 -5.5 -20.5c-2 -6 -4.16699 -10.667 -6.5 -14s-7.16602 -5 -14.499 -5c-30.667 0 -54.834 2.5 -72.501 7.5s-32.167 14.5 -43.5 28.5
c-6 8 -9 18 -9 30c0 17.333 1.16699 34.166 3.5 50.499s5.16602 30.833 8.49902 43.5c1.33301 4 3.5 7.83301 6.5 11.5s8.16699 5.5 15.5 5.5c15.333 0 33.166 -1 53.499 -3s38.5 -8.33301 54.5 -19c6 -4 11.667 -10.667 17 -20s7.33301 -17.666 6 -24.999zM205.001 407
c-2 -12.667 -3.66602 -23 -4.99902 -31s-2.66602 -15.167 -3.99902 -21.5s-2.83301 -12.333 -4.5 -18s-3.5 -12.5 -5.5 -20.5c-2 -6 -4.16699 -10.667 -6.5 -14s-7.16602 -5 -14.499 -5c-30.667 0 -54.834 2.5 -72.501 7.5s-32.167 14.5 -43.5 28.5c-6 8 -9 18 -9 30
c0 17.333 1.16699 34.166 3.5 50.499s5.16602 30.833 8.49902 43.5c1.33301 4 3.5 7.83301 6.5 11.5s8.16699 5.5 15.5 5.5c15.333 0 33.166 -1 53.499 -3s38.5 -8.33301 54.5 -19c6 -4 11.667 -10.667 17 -20s7.33301 -17.666 6 -24.999z" />
    <glyph glyph-name="semicolon" unicode=";" horiz-adv-x="256" 
d="M46 -81c4.66699 11.333 9.49805 23.332 14.498 35.999s9.83301 25.667 14.5 39c-19.333 4.66699 -34.666 14.334 -45.999 29.001c-6 8 -9 18 -9 30c0 17.333 1.16699 34.166 3.5 50.499s5.16602 30.833 8.49902 43.5c1.33301 4 3.5 7.83301 6.5 11.5
s8.16699 5.5 15.5 5.5c15.333 0 33.166 -1 53.499 -3s38.5 -8.33301 54.5 -19c6 -4 11.667 -10.667 17 -20s7.33301 -17.666 6 -24.999c-2 -12.667 -3.66699 -23 -5 -31s-2.66602 -15.167 -3.99902 -21.5s-2.83301 -12.333 -4.5 -18s-3.5 -12.5 -5.5 -20.5
c-0.666992 -1.33301 -1.16699 -2.83301 -1.5 -4.5s-1.16602 -3.16699 -2.49902 -4.5c-2 -6.66699 -4.66699 -14.167 -8 -22.5s-7 -16.666 -11 -24.999s-8 -16.333 -12 -24s-7.66699 -14.167 -11 -19.5c-7.33301 -11.333 -15.166 -18.333 -23.499 -21
s-18.5 -1.33398 -30.5 3.99902c-15.333 6 -22 16 -20 30zM204.998 406.999c-2 -12.667 -3.66602 -23 -4.99902 -31s-2.66602 -15.167 -3.99902 -21.5s-2.83301 -12.333 -4.5 -18s-3.5 -12.5 -5.5 -20.5c-2 -6 -4.16699 -10.667 -6.5 -14s-7.16602 -5 -14.499 -5
c-30.667 0 -54.834 2.5 -72.501 7.5s-32.167 14.5 -43.5 28.5c-6 8 -9 18 -9 30c0 17.333 1.16699 34.166 3.5 50.499s5.16602 30.833 8.49902 43.5c1.33301 4 3.5 7.83301 6.5 11.5s8.16699 5.5 15.5 5.5c15.333 0 33.166 -1 53.499 -3s38.5 -8.33301 54.5 -19
c6 -4 11.667 -10.667 17 -20s7.33301 -17.666 6 -24.999z" />
    <glyph glyph-name="less" unicode="&#x3c;" horiz-adv-x="466" 
d="M415 422c-12 -10.667 -27.3311 -23.6709 -45.998 -39.0039s-38.834 -31.5 -60.501 -48.5s-43.667 -34 -66 -51s-42.5 -32.833 -60.5 -47.5c18 -12 37.667 -24.667 59 -38s42.333 -26.166 63 -38.499s40 -23.5 58 -33.5s32.333 -18 43 -24
c4.66699 -2.66699 7.66699 -6.16699 9 -10.5s2 -9.16602 2 -14.499c0 -2.66699 -2.66699 -7.33398 -8 -14.001s-11.833 -13.667 -19.5 -21s-15.5 -14.833 -23.5 -22.5s-15 -14.167 -21 -19.5c-6.66699 -5.33301 -13.334 -8.5 -20.001 -9.5s-12 0.166992 -16 3.5
c-22 18.667 -45.833 37.834 -71.5 57.501s-50.5 38.5 -74.5 56.5s-45.833 34.333 -65.5 49s-34.834 26 -45.501 34c-5.33301 3.33301 -11 7.16602 -17 11.499s-11.5 8.5 -16.5 12.5s-9.16699 7.83301 -12.5 11.5s-4.66602 6.83398 -3.99902 9.50098
c0.666992 4.66699 4 10 10 16c5.33301 6.66699 12.166 14 20.499 22s16.166 15.333 23.499 22c10.667 8.66699 27 22.5 49 41.5s46.333 39.667 73 62s54 45 82 68s53 42.833 75 59.5c4 3.33301 9.33301 4.5 16 3.5s13.334 -4.16699 20.001 -9.5
c6 -5.33301 12.167 -11.666 18.5 -18.999s12.333 -14.5 18 -21.5s10.334 -13.5 14.001 -19.5s5.5 -10.667 5.5 -14c0 -9.33301 -3.66699 -17.666 -11 -24.999z" />
    <glyph glyph-name="equal" unicode="=" horiz-adv-x="633" 
d="M523 486c8.66699 2 17.001 -1.66309 25.001 -10.9961c2 -2 5.5 -6.66699 10.5 -14s10 -15.833 15 -25.5s9.5 -19.334 13.5 -29.001s6 -18.167 6 -25.5c0 -18.667 -6.33301 -27.334 -19 -26.001c-10 0.666992 -26.833 0.666992 -50.5 0s-50.334 -1.66699 -80.001 -3
s-61 -2.83301 -94 -4.5s-64.167 -3.5 -93.5 -5.5s-55.333 -3.66699 -78 -5s-38.334 -2.66602 -47.001 -3.99902c-12.667 -1.33301 -22.667 0.666992 -30 6s-12.333 10.333 -15 15c-4 7.33301 -9.16699 14.5 -15.5 21.5s-12.5 13.667 -18.5 20s-11.167 12.5 -15.5 18.5
s-6.5 11.667 -6.5 17c0 8.66699 2.66699 15.5 8 20.5s9.66602 7.5 12.999 7.5c12 0 30.333 0.666992 55 2s52.834 3.16602 84.501 5.49902s64.834 4.66602 99.501 6.99902s67.5 4.66602 98.5 6.99902s58.667 4 83 5s41.5 1.16699 51.5 0.5zM516.001 292.004
c8.66699 2 17.0039 -1.66797 25.0039 -11.001c2 -2 5.5 -6.66699 10.5 -14s10 -15.833 15 -25.5s9.5 -19.334 13.5 -29.001s6 -18.167 6 -25.5c0 -18.667 -6.33301 -27.334 -19 -26.001c-10 0.666992 -26.833 0.666992 -50.5 0s-50.667 -1.66699 -81 -3
s-62 -2.83301 -95 -4.5s-64.333 -3.33398 -94 -5.00098s-55.834 -3.16699 -78.501 -4.5s-38.334 -2.66602 -47.001 -3.99902c-12.667 -1.33301 -22.667 0.666992 -30 6s-12.333 10.333 -15 15c-4 7.33301 -9.16699 14.5 -15.5 21.5s-12.5 13.667 -18.5 20
s-11.167 12.5 -15.5 18.5s-6.5 11.667 -6.5 17c0 8.66699 2.66699 15.334 8 20.001s9.66602 7.33398 12.999 8.00098c12 1.33301 30.5 2.83301 55.5 4.5s53.333 3.66699 85 6s65 4.5 100 6.5s68.167 3.83301 99.5 5.5s59.166 2.83398 83.499 3.50098s41.5 0.666992 51.5 0z
" />
    <glyph glyph-name="greater" unicode="&#x3e;" horiz-adv-x="466" 
d="M11 98c11.333 10.667 26.167 21.6709 44.5 33.0039s38 22.833 59 34.5s42.333 23.334 64 35.001s41.5 22.834 59.5 33.501c-16.667 13.333 -34.834 27.333 -54.501 42s-39 29 -58 43s-36.833 27 -53.5 39s-30.334 22 -41.001 30c-7.33301 5.33301 -11 13.666 -11 24.999
c0 3.33301 2.16699 8.16602 6.5 14.499s9.66602 13.166 15.999 20.499s13 14.833 20 22.5s13.5 14.167 19.5 19.5c6.66699 5.33301 13.334 8.5 20.001 9.5s12 -0.166992 16 -3.5c22 -18.667 46.333 -38.834 73 -60.501s52.667 -42.834 78 -63.501s48.333 -39.334 69 -56.001
s36.334 -29 47.001 -37c5.33301 -3.33301 11 -7.16602 17 -11.499s11.5 -8.5 16.5 -12.5s9.16699 -7.83301 12.5 -11.5s4.66602 -6.83398 3.99902 -9.50098c-1.33301 -6 -4.83301 -11.333 -10.5 -16s-12.167 -9.33398 -19.5 -14.001
c-4 -3.33301 -8.16699 -6.66602 -12.5 -9.99902s-8.16602 -6.66602 -11.499 -9.99902c-10.667 -8.66699 -27.167 -20.667 -49.5 -36s-47 -32.333 -74 -51s-54.667 -37.667 -83 -57s-53.5 -37.333 -75.5 -54c-4 -3.33301 -9.33301 -4.5 -16 -3.5s-13.334 4.16699 -20.001 9.5
c-6 5.33301 -12.667 12 -20 20s-14.166 16 -20.499 24s-11.666 15.5 -15.999 22.5s-6.5 11.833 -6.5 14.5c0 9.33301 3.66699 17.666 11 24.999z" />
    <glyph glyph-name="question" unicode="?" horiz-adv-x="537" 
d="M505 524c-0.666992 -30 -7.32715 -54.3301 -19.9941 -72.9971s-27.834 -34.834 -45.501 -48.501s-36.167 -26.167 -55.5 -37.5s-36.333 -25 -51 -41c-3.33301 -4 -7.16602 -8.83301 -11.499 -14.5s-8.16602 -12.167 -11.499 -19.5
c-6.66699 -6.66699 -13.167 -11.5 -19.5 -14.5s-15.166 -3.83301 -26.499 -2.5c-7.33301 1.33301 -19 3.66602 -35 6.99902s-29.667 10.333 -41 21c-4.66699 4 -7.83398 11.167 -9.50098 21.5s-1.83398 19.5 -0.500977 27.5c5.33301 30 14.5 52 27.5 66
s26.167 25.167 39.5 33.5s25.5 16.333 36.5 24s17.5 19.834 19.5 36.501c3.33301 13.333 0 24.5 -10 33.5s-22 13.833 -36 14.5c-8.66699 0 -17.334 -2.66699 -26.001 -8s-16.5 -12.166 -23.5 -20.499s-13 -17.5 -18 -27.5s-8.5 -19.667 -10.5 -29
c-1.33301 -6.66699 -5.16602 -12.334 -11.499 -17.001s-13.5 -7.83398 -21.5 -9.50098s-15.833 -1.83398 -23.5 -0.500977s-14.167 4 -19.5 8l-68 43c-4.66699 4 -8.33398 11.667 -11.001 23s-2 24.333 2 39c6 22 15.5 43.167 28.5 63.5s28 38.166 45 53.499
s35.167 27.666 54.5 36.999s38.666 14.333 57.999 15c16 0.666992 37.167 -1.66602 63.5 -6.99902s53.166 -12.5 80.499 -21.5s53.166 -19.5 77.499 -31.5s41.833 -24.667 52.5 -38c2 -2 4.66699 -6.66699 8 -14s6.16602 -16 8.49902 -26s4.16602 -20.667 5.49902 -32
s1 -22.666 -1 -33.999zM325.007 157.003c-4.66699 -28.667 -8.16602 -52 -10.499 -70s-6.16602 -35.667 -11.499 -53c-2.66699 -7.33301 -5.33398 -12.833 -8.00098 -16.5s-8 -5.5 -16 -5.5c-34.667 0 -62 6.16699 -82 18.5s-36.333 26.5 -49 42.5
c-7.33301 9.33301 -11 20.666 -11 33.999c0 19.333 1.5 38.333 4.5 57s6.16699 35.334 9.5 50.001c1.33301 4.66699 3.66602 9 6.99902 13s9.33301 6 18 6c17.333 0 37.5 -1.16699 60.5 -3.5s43.5 -9.5 61.5 -21.5c7.33301 -4.66699 14 -12.167 20 -22.5
s8.33301 -19.833 7 -28.5z" />
    <glyph glyph-name="at" unicode="@" horiz-adv-x="785" 
d="M510 126c11.333 -5.33301 23.001 -14.0039 35.001 -26.0039s23.667 -22.667 35 -32c9.33301 -8.66699 12.166 -17.5 8.49902 -26.5s-9.83398 -15.833 -18.501 -20.5c-26.667 -18 -52 -29.667 -76 -35s-47.667 -8 -71 -8c-17.333 0 -39.833 3.16699 -67.5 9.5
s-55.5 13.833 -83.5 22.5s-54 17.834 -78 27.501s-41 17.834 -51 24.501s-21.667 16.667 -35 30s-25.666 30.833 -36.999 52.5s-21 47.5 -29 77.5s-12 65 -12 105c0 60 9.83301 112.667 29.5 158s43.5 83.666 71.5 114.999s57.5 55.666 88.5 72.999s57.833 28 80.5 32
c17.333 3.33301 35.5 4.33301 54.5 3s37.667 -3.5 56 -6.5s35.333 -6.66699 51 -11s28.5 -8.16602 38.5 -11.499c21.333 -6.66699 46.333 -14.5 75 -23.5s56 -22.667 82 -41s48.333 -43.833 67 -76.5s28.667 -76 30 -130c0.666992 -18.667 -2.66602 -42 -9.99902 -70
s-18 -55.167 -32 -81.5s-30.833 -49 -50.5 -68s-41.834 -28.5 -66.501 -28.5c-54.667 2.66699 -97.834 12.834 -129.501 30.501s-51.167 42.834 -58.5 75.501c-4 -6.66699 -9.83301 -14.5 -17.5 -23.5s-16.167 -17.5 -25.5 -25.5s-19 -14.667 -29 -20
s-19.333 -7.33301 -28 -6c-22.667 3.33301 -39.334 11.166 -50.001 23.499s-18 26.166 -22 41.499s-5.83301 31.166 -5.5 47.499s0.5 29.833 0.5 40.5c0 16 3.66699 34.833 11 56.5s18.166 41.834 32.499 60.501s32 33.834 53 45.501s44.5 15.834 70.5 12.501
c12 -1.33301 24.5 -3.33301 37.5 -6s25.5 -5.83398 37.5 -9.50098s22.667 -7.66699 32 -12s16 -9.16602 20 -14.499c3.33301 -4 5 -16 5 -36c0 -12.667 -0.666992 -27 -2 -43s-2 -32.333 -2 -49c0 -25.333 2.33301 -47.333 7 -66s12.334 -29.334 23.001 -32.001l7 -1
c8.66699 7.33301 16.167 17.5 22.5 30.5s11.5 27 15.5 42s7 30.167 9 45.5s3 29.333 3 42c0 34 -7.5 63 -22.5 87s-33.167 43.5 -54.5 58.5s-43.833 25.833 -67.5 32.5s-44.5 10 -62.5 10c-36.667 0 -69.667 -7 -99 -21s-54.166 -33.833 -74.499 -59.5
s-35.833 -56 -46.5 -91s-16 -73.5 -16 -115.5c0 -26.667 5.5 -52.5 16.5 -77.5s26 -47 45 -66s41 -34.167 66 -45.5s51.5 -17 79.5 -17c15.333 0 28 1.66699 38 5s17.667 6.66602 23 9.99902c4.66699 3.33301 9.66699 6.83301 15 10.5s12 5.83398 20 6.50098
c5.33301 0.666992 10.833 0.333984 16.5 -0.999023s12.834 -4.66602 21.501 -9.99902zM370.001 317.996c1.33301 -0.666992 3.66699 0.49707 7 3.49707s6.83301 6.83301 10.5 11.5s7.5 9.66699 11.5 15s7.66699 9.66602 11 12.999v1
c0.666992 8.66699 1.33398 16.834 2.00098 24.501s1 14.834 1 21.501c0 5.33301 -1.83301 8.33301 -5.5 9s-7.16699 0.333984 -10.5 -0.999023c-6.66699 -3.33301 -11.667 -7.5 -15 -12.5s-7.33301 -17.167 -12 -36.5c-2 -8.66699 -3.33301 -18.667 -4 -30
s0.666016 -17.666 3.99902 -18.999z" />
    <glyph glyph-name="A" unicode="A" horiz-adv-x="592" 
d="M50 60c-4 4.66699 -6.66602 9.16992 -7.99902 13.5029s-2 10.166 -2 17.499c0 11.333 0.5 23.166 1.5 35.499s2.16699 25.166 3.5 38.499c-5.33301 8.66699 -10.666 18.167 -15.999 28.5s-10.166 20.5 -14.499 30.5s-7.83301 19.333 -10.5 28s-4 15.334 -4 20.001
c0 9.33301 4.66699 14 14 14c14 -1.33301 31.667 -1.33301 53 0c9.33301 38.667 20 77.834 32 117.501s24.667 77.5 38 113.5s27.166 68.833 41.499 98.5s28.166 53.834 41.499 72.501c2.66699 4 5.66699 7 9 9s8.33301 2.33301 15 1
c9.33301 -3.33301 21.5 -6.83301 36.5 -10.5s29.833 -7.83398 44.5 -12.501c0 8 0.333008 13.667 1 17c0.666992 5.33301 2.66699 9.66602 6 12.999s8.66602 5 15.999 5c8 0 18.333 -0.666992 31 -2s25.5 -3.16602 38.5 -5.49902s25.333 -4.83301 37 -7.5
s20.834 -5.33398 27.501 -8.00098c8 -3.33301 13.5 -7 16.5 -11s5.16699 -9.66699 6.5 -17c0.666992 -7.33301 1.5 -23.833 2.5 -49.5s2.5 -58 4.5 -97s4.83301 -83.333 8.5 -133s8.5 -102.167 14.5 -157.5c6 -58 11.667 -104.167 17 -138.5s8.33301 -54.833 9 -61.5
c2 -14 -4.66699 -21 -20 -21c-16 0 -32.333 0.5 -49 1.5s-32.667 2.66699 -48 5s-29 5.5 -41 9.5s-21.667 9.33301 -29 16c-4.66699 4 -8.83398 15.5 -12.501 34.5s-7.16699 43.5 -10.5 73.5c-18 -2 -36.833 -3.83301 -56.5 -5.5s-39.834 -3.16699 -60.501 -4.5
c-3.33301 -37.333 -4.33301 -73 -3 -107c0 -6.66699 -1.5 -12.167 -4.5 -16.5s-8.16699 -6.5 -15.5 -6.5c-16 0 -32 1.5 -48 4.5s-31.333 7.16699 -46 12.5s-27.667 11.666 -39 18.999s-20.666 15 -27.999 23zM337.001 301.003c-2.66699 36 -4.83301 72.1641 -6.5 108.497
s-3.16699 71.5 -4.5 105.5c0 8 -2.66699 12.667 -8 14c-4 0.666992 -7.33301 -1.66602 -10 -6.99902c-11.333 -35.333 -21.5 -72.166 -30.5 -110.499s-16.833 -77.166 -23.5 -116.499z" />
    <glyph glyph-name="B" unicode="B" horiz-adv-x="588" 
d="M34 604c-6 18 -4.33105 30.6689 5.00195 38.002c6 4.66699 17.167 11.334 33.5 20.001s36.333 17.167 60 25.5s50.167 15.5 79.5 21.5s59.666 9 90.999 9c15.333 0 34.333 -2.83301 57 -8.5s45.167 -12.334 67.5 -20.001s42.333 -15.5 60 -23.5
s28.834 -14.333 33.501 -19c6.66699 -6 13.167 -15.167 19.5 -27.5s9.5 -30.5 9.5 -54.5c0 -22.667 -4.66699 -44.334 -14 -65.001s-21.5 -39.334 -36.5 -56.001s-32.333 -30.834 -52 -42.501s-40.167 -20.5 -61.5 -26.5v-7c19.333 -2.66699 38 -6.16699 56 -10.5
s34.167 -9.16602 48.5 -14.499s26.5 -11.166 36.5 -17.499s16.333 -12.5 19 -18.5c3.33301 -4.66699 6.16602 -11.334 8.49902 -20.001s3.5 -20.334 3.5 -35.001c0 -37.333 -7.83301 -71.833 -23.5 -103.5s-37 -59.167 -64 -82.5s-58.667 -41.666 -95 -54.999
s-75.5 -20 -117.5 -20c-43.333 0 -83.833 5.83301 -121.5 17.5s-66.167 29.5 -85.5 53.5c-6 6.66699 -9 17 -9 31c0 26 1 56.5 3 91.5s4.66699 71.667 8 110s7.16602 77 11.499 116s8.83301 75.5 13.5 109.5c-4 6 -8.33301 13.333 -13 22s-9.16699 17 -13.5 25
s-8 15.5 -11 22.5s-5.16699 11.833 -6.5 14.5zM242.002 165.002l18.002 -0.000976562c12 0 23.667 2.33301 35 7s21.166 10.834 29.499 18.501s15.166 16.667 20.499 27s8 20.833 8 31.5c0 12 -4.83301 20.833 -14.5 26.5s-23.167 8.5 -40.5 8.5
c-10.667 0 -20 -0.833008 -28 -2.5s-14.667 -3.16699 -20 -4.5l-4 -56zM275.004 512.001c-2 -12 -3.83496 -25.166 -5.50195 -39.499s-3.5 -29.166 -5.5 -44.499c11.333 3.33301 22 8.33301 32 15s18.833 14.167 26.5 22.5s13.834 17.166 18.501 26.499s7 18.666 7 27.999
c0 13.333 -4.5 23.333 -13.5 30s-21.5 10 -37.5 10c-10.667 0 -21.5 -1.33301 -32.5 -4s-22.167 -6 -33.5 -10l24 -6c7.33301 -3.33301 12.833 -6.83301 16.5 -10.5s4.83398 -9.5 3.50098 -17.5z" />
    <glyph glyph-name="C" unicode="C" horiz-adv-x="588" 
d="M328 562c-10.667 0 -19.6611 -1.66895 -26.9941 -5.00195s-12.333 -6.33301 -15 -9c-4.66699 -4.66699 -10 -14.5 -16 -29.5s-11.833 -34.5 -17.5 -58.5s-10.334 -52.667 -14.001 -86s-5.5 -71 -5.5 -113c0 -26 2.66699 -46 8 -60s12 -24 20 -30s16.667 -9.33301 26 -10
s18 -1 26 -1c10.667 0 22.5 3.83301 35.5 11.5s27.833 18.167 44.5 31.5c5.33301 4 12.5 11.333 21.5 22s18.833 20 29.5 28s21.5 12.5 32.5 13.5s20.833 -6.16699 29.5 -21.5l29 -75c4.66699 -15.333 6 -29.833 4 -43.5s-8 -26.5 -18 -38.5
c-11.333 -14 -23 -27.333 -35 -40s-26 -24 -42 -34s-34.833 -18 -56.5 -24s-47.5 -9 -77.5 -9c-42 0 -80.167 5.5 -114.5 16.5s-63.666 28.667 -87.999 53s-43.333 55.833 -57 94.5s-20.5 86 -20.5 142c0 62.667 6.33301 120 19 172s30.667 97 54 135
s51.666 67.833 84.999 89.5s70.666 33.167 111.999 34.5c40 1.33301 77.5 -1.16699 112.5 -7.5s64.167 -16.166 87.5 -29.499c7.33301 -4 15 -8.16699 23 -12.5s15.5 -9.5 22.5 -15.5s12.667 -13.5 17 -22.5s5.83301 -20.167 4.5 -33.5
c-0.666992 -10.667 -1.83398 -22.834 -3.50098 -36.501s-4.33398 -28.5 -8.00098 -44.5s-9.16699 -32.833 -16.5 -50.5s-17.333 -35.5 -30 -53.5c-2 -3.33301 -5 -7.83301 -9 -13.5s-9.83301 -10.667 -17.5 -15s-17.334 -7.16602 -29.001 -8.49902
s-26.167 0.333984 -43.5 5.00098c-24.667 5.33301 -38.834 12.833 -42.501 22.5s-2.16699 25.5 4.5 47.5c9.33301 32 10 58.667 2 80s-23.333 32 -46 32z" />
    <glyph glyph-name="D" unicode="D" horiz-adv-x="620" 
d="M31 131c5.33301 66.667 10.6699 126.831 16.0029 180.498s14 104.5 26 152.5v4c1.33301 16 0.666016 31.167 -2.00098 45.5s-6 27.333 -10 39s-8.33301 21.667 -13 30s-8.66699 14.5 -12 18.5c-5.33301 7.33301 -5.16602 15.5 0.500977 24.5s11.167 15.167 16.5 18.5
c20 13.333 41.667 24 65 32s46 14.5 68 19.5s42.167 8.5 60.5 10.5s32.833 3 43.5 3c8 0 17.333 -0.166992 28 -0.5s21 -1.16602 31 -2.49902l1 1c30.667 -2 55.5 -7.83301 74.5 -17.5s37.833 -19.167 56.5 -28.5c18 -9.33301 33.667 -20.333 47 -33
s24.666 -28.667 33.999 -48s16.333 -43 21 -71s7 -62 7 -102c0 -60 -9.33301 -114.167 -28 -162.5s-42.667 -89.833 -72 -124.5s-62.5 -62.167 -99.5 -82.5s-73.5 -33.166 -109.5 -38.499h-10c-20 -3.33301 -40.5 -4.5 -61.5 -3.5s-41.333 4 -61 9s-38 12.333 -55 22
s-31.5 21.5 -43.5 35.5c-6.66699 6.66699 -11.834 17.5 -15.501 32.5s-4.83398 27.167 -3.50098 36.5zM269.004 166.997c5.33301 1.33301 9.83008 2.50293 13.4971 3.50293s6.83398 2.16699 9.50098 3.5c10 3.33301 20.833 10.666 32.5 21.999s22.167 27.333 31.5 48
s17.166 46.5 23.499 77.5s9.5 67.5 9.5 109.5c0 22 -2.16699 40 -6.5 54s-10 25.167 -17 33.5s-14.667 14.333 -23 18s-16.5 6.16699 -24.5 7.5c-14 -0.666992 -26.667 -1.33398 -38 -2.00098s-21.666 -1.66699 -30.999 -3c0.666992 0 2.33398 -0.666992 5.00098 -2
c11.333 -8.66699 17.833 -19.667 19.5 -33s2.5 -23.666 2.5 -30.999c0 -1.33301 -0.166992 -2.33301 -0.5 -3s-0.5 -1.66699 -0.5 -3c-4.66699 -40 -10 -81.5 -16 -124.5s-11.667 -93.167 -17 -150.5c0 -10.667 0.833008 -17.834 2.5 -21.501
s9.83398 -4.83398 24.501 -3.50098z" />
    <glyph glyph-name="E" unicode="E" horiz-adv-x="549" 
d="M418 303c-30.667 0 -60.8203 -1.1709 -90.4873 -3.50391s-56.834 -7.16602 -81.501 -14.499c-5.33301 -32.667 -10.333 -67 -15 -103c0 -5.33301 -0.5 -10 -1.5 -14s-1.33301 -7.16699 -1 -9.5s1.83301 -4 4.5 -5s7.66699 -1.16699 15 -0.5
c18.667 5.33301 38.667 9.66602 60 12.999s42 6 62 8s38.667 3.33301 56 4s31 1 41 1c5.33301 0 12 -0.833008 20 -2.5s13 -6.16699 15 -13.5c4.66699 -12.667 7.33398 -23.334 8.00098 -32.001s0.5 -16.5 -0.5 -23.5s-2.5 -13.5 -4.5 -19.5s-4 -13 -6 -21
c-4 -14.667 -8.83301 -25.167 -14.5 -31.5s-11.834 -11.166 -18.501 -14.499c-6.66699 -4 -15.834 -6.66699 -27.501 -8s-25 -2.33301 -40 -3s-31.167 -1.5 -48.5 -2.5s-34.666 -3.16699 -51.999 -6.5c-24 -4 -48.167 -6.66699 -72.5 -8s-47.5 -0.166016 -69.5 3.50098
s-42.167 9.83398 -60.5 18.501s-33.833 20.334 -46.5 35.001c-0.666992 0.666992 -1.83398 2.5 -3.50098 5.5s-3.16699 6.33301 -4.5 10s-2.66602 7.16699 -3.99902 10.5s-2 5.66602 -2 6.99902c-1.33301 4 -2.5 9.66699 -3.5 17s-1.5 13.666 -1.5 18.999
c2.66699 78.667 9.16699 151.667 19.5 219s21.833 125.333 34.5 174c0 1.33301 0.333008 2.33301 1 3l-3 3c-2.66699 3.33301 -5.33398 8.33301 -8.00098 15s-5.5 14.334 -8.5 23.001s-5.83301 17.167 -8.5 25.5s-5 15.5 -7 21.5c-2 4 -2.33301 8.5 -1 13.5
s3.16602 10 5.49902 15s5.16602 9.66699 8.49902 14s6.33301 7.5 9 9.5c18 15.333 41.167 28 69.5 38s59.666 17.667 93.999 23s70.666 9 108.999 11s76.5 3 114.5 3c16.667 0 32.167 -1.33301 46.5 -4s24.5 -6 30.5 -10s9.66699 -11.333 11 -22s1.5 -22.334 0.5 -35.001
s-2.83301 -25 -5.5 -37s-5.33398 -21.333 -8.00098 -28c-1.33301 -4.66699 -5.33301 -10 -12 -16s-12.334 -9 -17.001 -9c-28.667 0 -55.5 0.166992 -80.5 0.5s-48.833 0.166016 -71.5 -0.500977s-44.334 -2 -65.001 -4s-41 -5.66699 -61 -11
c15.333 0.666992 27.333 -1.66602 36 -6.99902c6 -4.66699 11.167 -9.66699 15.5 -15s6.5 -11.666 6.5 -18.999c0 -1.33301 -0.166992 -2.33301 -0.5 -3s-0.5 -1.66699 -0.5 -3c-2 -11.333 -4.16699 -22.666 -6.5 -33.999s-4.5 -23.333 -6.5 -36
c30 5.33301 60.667 9.33301 92 12s58.666 0.333984 81.999 -6.99902c6.66699 -2 11 -7.83301 13 -17.5s2.66699 -20.5 2 -32.5s-2.33398 -24 -5.00098 -36s-5.33398 -21.333 -8.00098 -28c-1.33301 -4.66699 -5.33301 -10 -12 -16s-12.334 -9 -17.001 -9z" />
    <glyph glyph-name="F" unicode="F" horiz-adv-x="541" 
d="M441 283c-31.333 0 -64.6641 -2.66602 -99.9971 -7.99902s-66 -12 -92 -20c-4 -34 -7.83301 -71.333 -11.5 -112s-7.83398 -87 -12.501 -139c-0.666992 -14 -8.33398 -21 -23.001 -21c-16.667 0 -33.334 3.5 -50.001 10.5s-32.167 15.333 -46.5 25
s-27.166 19.834 -38.499 30.501s-20 19.667 -26 27c-3.33301 4.66699 -6.16602 9.66699 -8.49902 15s-2.83301 11.333 -1.5 18c4 31.333 8.16699 64.333 12.5 99s8.83301 69 13.5 103s9.33398 66.5 14.001 97.5s9 58.5 13 82.5c-2.66699 4 -5.83398 9.5 -9.50098 16.5
s-7.33398 14.5 -11.001 22.5s-7.16699 15.833 -10.5 23.5s-6 14.167 -8 19.5c-2 4 -2.66699 8.83301 -2 14.5s1.83398 11.167 3.50098 16.5s4 10.166 7 14.499s5.83301 7.16602 8.5 8.49902c24 12 50.833 22.833 80.5 32.5s60.667 18.334 93 26.001s65.333 13.834 99 18.501
s66.834 8 99.501 10c15.333 1.33301 30.333 1 45 -1s25 -5 31 -9s11.167 -11.833 15.5 -23.5s7.83301 -24.167 10.5 -37.5s4.16699 -26.5 4.5 -39.5s-0.833984 -22.833 -3.50098 -29.5c-1.33301 -4.66699 -6.66602 -9 -15.999 -13s-16.333 -6 -21 -6
c-58 0 -107.833 -2.83301 -149.5 -8.5s-81.834 -14.834 -120.501 -27.501l10 -5c4 -1.33301 8.33301 -4.33301 13 -9s8.83398 -9.83398 12.501 -15.501s6.66699 -11.5 9 -17.5s3.16602 -11 2.49902 -15l-9 -51c15.333 4 31.333 8.33301 48 13s33 8.16699 49 10.5
s31.333 3.33301 46 3s27.667 -3.5 39 -9.5c4 -2 7.83301 -8 11.5 -18s6.5 -21 8.5 -33s3.16699 -24 3.5 -36s-0.833984 -21.333 -3.50098 -28c-1.33301 -4.66699 -5.33301 -10 -12 -16s-12.334 -9 -17.001 -9z" />
    <glyph glyph-name="G" unicode="G" horiz-adv-x="603" 
d="M328 578c-5.33301 0 -10.332 -1.33594 -14.999 -4.00293s-8.66699 -5.66699 -12 -9s-6.33301 -6.66602 -9 -9.99902s-4.66699 -5.66602 -6 -6.99902c-4.66699 -4.66699 -10.5 -11.5 -17.5 -20.5s-13.833 -22.667 -20.5 -41s-12.334 -42.5 -17.001 -72.5
s-7 -68.667 -7 -116s8.5 -79.833 25.5 -97.5s38.167 -26.5 63.5 -26.5c13.333 0 27.5 6.66699 42.5 20s27.5 33 37.5 59c1.33301 4 2.66602 7.66699 3.99902 11s0.666016 6.66602 -2.00098 9.99902c-0.666992 1.33301 -3.33398 2 -8.00098 2h-16.5
c-6.33301 0 -13 0.333008 -20 1s-13.5 2.33398 -19.5 5.00098c-8 4 -15.333 11.333 -22 22s-12.167 22 -16.5 34s-7.16602 23 -8.49902 33s-1 15.667 1 17c12.667 8.66699 33.5 13.334 62.5 14.001s59 -1.5 90 -6.5s59.167 -12.167 84.5 -21.5s41 -19.666 47 -30.999
c4.66699 -15.333 5.33398 -32.833 2.00098 -52.5s-6.66602 -37.167 -9.99902 -52.5c-5.33301 -24.667 -14.666 -51.667 -27.999 -81s-30 -56.833 -50 -82.5s-43 -47.167 -69 -64.5s-54 -26 -84 -26c-19.333 0 -39.833 1.33301 -61.5 4s-42.5 6.5 -62.5 11.5
s-38.5 11.333 -55.5 19s-30.5 16.834 -40.5 27.501c-23.333 24 -42.5 60.333 -57.5 109s-22.5 102.667 -22.5 162c0 62.667 6.83301 119 20.5 169s32.5 92.833 56.5 128.5s52.5 63.167 85.5 82.5s68.833 29.666 107.5 30.999c40 1.33301 77.5 -2.83398 112.5 -12.501
s64.167 -21.167 87.5 -34.5c14 -8 24.333 -19.833 31 -35.5s8.66699 -31.834 6 -48.501c-1.33301 -10.667 -2.83301 -20.167 -4.5 -28.5s-3.83398 -16.166 -6.50098 -23.499s-6.16699 -15 -10.5 -23s-9.83301 -17 -16.5 -27c-2 -3.33301 -5 -7.83301 -9 -13.5
s-9.5 -10.667 -16.5 -15s-15.833 -7.5 -26.5 -9.5s-23.667 -1 -39 3c-19.333 5.33301 -32.5 12.833 -39.5 22.5s-6.83301 23.167 0.5 40.5c2 5.33301 3 11.333 3 18s-1.5 12.667 -4.5 18s-7.66699 9.83301 -14 13.5s-14.833 5.5 -25.5 5.5z" />
    <glyph glyph-name="H" unicode="H" horiz-adv-x="679" 
d="M648 667c-4.66699 -28.667 -10.668 -67.8291 -18.001 -117.496s-14.166 -104.334 -20.499 -164.001s-11.833 -121.834 -16.5 -186.501s-7 -126.334 -7 -185.001c0 -14 -8 -21 -24 -21c-16.667 0 -33.834 1.83301 -51.501 5.5s-34.334 8.5 -50.001 14.5
s-29.5 12.833 -41.5 20.5s-21 15.167 -27 22.5c-6.66699 8.66699 -10 19.667 -10 33c0 24 0.833008 51.833 2.5 83.5s4.16699 65.5 7.5 101.5c-18 -2 -37 -3.66699 -57 -5s-40.667 -2.66602 -62 -3.99902c-3.33301 -42.667 -6.16602 -85.167 -8.49902 -127.5
s-3.5 -83.5 -3.5 -123.5c0 -14 -7.66699 -21 -23 -21c-16.667 0 -33.834 1.83301 -51.501 5.5s-34.334 8.5 -50.001 14.5s-29.667 12.833 -42 20.5s-21.5 15.167 -27.5 22.5c-6.66699 8.66699 -10 19.667 -10 33c0 28 1.16699 61.333 3.5 100s5.83301 79.334 10.5 122.001
c-10.667 15.333 -20.167 31.666 -28.5 48.999s-12.5 30.333 -12.5 39c0 10 4.66699 15 14 15h38c4 33.333 8 65.666 12 96.999s7.83301 60 11.5 86s7.16699 48.167 10.5 66.5s6 31.166 8 38.499c1.33301 4.66699 3.83301 9 7.5 13s9.5 6 17.5 6
c8.66699 0 20.167 -0.833008 34.5 -2.5s29.333 -3.66699 45 -6s30.167 -4.83301 43.5 -7.5s23.333 -5.33398 30 -8.00098c8 -3.33301 13.833 -7.16602 17.5 -11.499s4.83398 -10.5 3.50098 -18.5c-4.66699 -25.333 -10.167 -59.333 -16.5 -102s-12.5 -90 -18.5 -142l121 8
c4 32 7.83301 62.833 11.5 92.5s7.33398 56.5 11.001 80.5s7 44.5 10 61.5s5.5 29.167 7.5 36.5c1.33301 4.66699 3.83301 9 7.5 13s9.5 6 17.5 6s19.333 -0.833008 34 -2.5s29.667 -3.66699 45 -6s29.833 -4.83301 43.5 -7.5s23.834 -5.33398 30.501 -8.00098
c7.33301 -3.33301 13 -7.16602 17 -11.499s5.33301 -10.5 4 -18.5z" />
    <glyph glyph-name="I" unicode="I" horiz-adv-x="327" 
d="M296 667c-4.66699 -28.667 -10.498 -67.8281 -17.498 -117.495s-13.833 -104.334 -20.5 -164.001s-12.334 -121.834 -17.001 -186.501s-7 -126.334 -7 -185.001c0 -14 -7.66699 -21 -23 -21c-16.667 0 -33.834 1.83301 -51.501 5.5s-34.334 8.5 -50.001 14.5
s-29.667 12.833 -42 20.5s-21.5 15.167 -27.5 22.5c-6.66699 8.66699 -10 19.667 -10 33c0 28 1.33301 61.167 4 99.5s6 78.666 10 120.999s8.66699 84.833 14 127.5s10.5 82 15.5 118s9.66699 67.167 14 93.5s7.83301 44.166 10.5 53.499
c1.33301 4.66699 3.66602 9 6.99902 13s9 6 17 6c8.66699 0 20.334 -0.833008 35.001 -2.5s29.667 -3.66699 45 -6s29.833 -4.83301 43.5 -7.5s23.5 -5.33398 29.5 -8.00098c8 -3.33301 13.833 -7.16602 17.5 -11.499s4.83398 -10.5 3.50098 -18.5z" />
    <glyph glyph-name="J" unicode="J" horiz-adv-x="605" 
d="M237 166c14.667 0 26.6689 3.49609 36.002 10.4961s16.666 16 21.999 27s9.5 23 12.5 36s5.83301 25.833 8.5 38.5l7 33c0 2.66699 0.333008 4.66699 1 6c4.66699 28.667 9 55.834 13 81.501s7.83301 53.5 11.5 83.5s7 64 10 102s6.16699 83.667 9.5 137
c1.33301 14 9 21 23 21c16.667 0 34 -1.33301 52 -4s35 -6.5 51 -11.5s30.167 -10.833 42.5 -17.5s21.5 -13.667 27.5 -21c7.33301 -10 10.666 -21 9.99902 -33c-2.66699 -34 -5.66699 -69.167 -9 -105.5s-6.66602 -71.5 -9.99902 -105.5
c-6.66699 -90.667 -17.834 -163.834 -33.501 -219.501s-35.667 -99.167 -60 -130.5s-52.833 -53.166 -85.5 -65.499s-69.667 -20.833 -111 -25.5c-28.667 -3.33301 -59.167 -0.166016 -91.5 9.50098s-61.833 22.5 -88.5 38.5s-48.167 34 -64.5 54s-22.833 38.333 -19.5 55
c4 21.333 14.667 44.5 32 69.5s35 50.5 53 76.5c2 3.33301 4.33301 6.5 7 9.5s6.83398 5 12.501 6s13.167 0.666992 22.5 -1s21.666 -5.5 36.999 -11.5c25.333 -5.33301 40.5 -13.666 45.5 -24.999s4.83301 -28.333 -0.5 -51c-6.66699 -26.667 -6.66699 -44.167 0 -52.5
s15.667 -13.166 27 -14.499z" />
    <glyph glyph-name="K" unicode="K" horiz-adv-x="653" 
d="M324 667c-4.66699 -25.333 -9.82617 -58.501 -15.4932 -99.501s-11.5 -86.833 -17.5 -137.5l47 4c10.667 22 22.667 46.5 36 73.5s26.666 53.333 39.999 79s25.833 49.334 37.5 71.001s20.834 38.5 27.501 50.5c2.66699 4.66699 6.66699 8.5 12 11.5
s11.666 3.16699 18.999 0.5c9.33301 -3.33301 20 -8.16602 32 -14.499s24.167 -13.333 36.5 -21s24.166 -15.334 35.499 -23.001s20.333 -14.5 27 -20.5c12 -9.33301 14.667 -20.666 8 -33.999c-3.33301 -6.66699 -12 -20.834 -26 -42.501s-29.667 -45.834 -47 -72.501
s-35.166 -53.5 -53.499 -80.5s-33.833 -49.167 -46.5 -66.5c9.33301 -21.333 21 -43.666 35 -66.999s28.5 -45.5 43.5 -66.5s29.5 -39.5 43.5 -55.5s25.333 -27.667 34 -35c7.33301 -6 10.666 -12.833 9.99902 -20.5s-4.66699 -15.167 -12 -22.5
c-6.66699 -7.33301 -15.334 -16 -26.001 -26s-22.334 -19.333 -35.001 -28s-25.334 -16 -38.001 -22s-24.334 -9 -35.001 -9c-12.667 0 -27.334 8.33301 -44.001 25s-33.167 38 -49.5 64s-32 54.5 -47 85.5s-27.167 60.5 -36.5 88.5l-46 -3c-3.33301 -41.333 -6 -82 -8 -122
s-3 -79 -3 -117c0 -14 -7.66699 -21 -23 -21c-16.667 0 -33.834 1.83301 -51.501 5.5s-34.334 8.5 -50.001 14.5s-29.667 12.833 -42 20.5s-21.5 15.167 -27.5 22.5c-6.66699 8.66699 -10 19.667 -10 33c0 27.333 1.16699 59.5 3.5 96.5s5.5 76.5 9.5 118.5
c-10.667 18.667 -20.167 38 -28.5 58s-12.5 34.667 -12.5 44c0 10 5 15 15 15c5.33301 -0.666992 11.333 -0.833984 18 -0.500977s13.667 0.5 21 0.5c4 32.667 8 64.334 12 95.001s7.83301 58.5 11.5 83.5s7.16699 46.5 10.5 64.5s6 30.667 8 38
c1.33301 4.66699 3.66602 9 6.99902 13s9 6 17 6c8.66699 0 20.334 -0.833008 35.001 -2.5s29.667 -3.66699 45 -6s29.833 -4.83301 43.5 -7.5s23.834 -5.33398 30.501 -8.00098c7.33301 -3.33301 12.833 -7.16602 16.5 -11.499s4.83398 -10.5 3.50098 -18.5z" />
    <glyph glyph-name="L" unicode="L" 
d="M447 218c1.33301 0 2.83105 0.161133 4.49805 0.494141s3.16699 0.5 4.5 0.5c9.33301 0 16.333 -4 21 -12c14 -25.333 22.833 -51.166 26.5 -77.499s5.5 -47.166 5.5 -62.499c-0.666992 -14.667 -3 -24.834 -7 -30.501s-9.33301 -10.167 -16 -13.5
c-13.333 -7.33301 -36.5 -14 -69.5 -20s-69.833 -9 -110.5 -9c-24 0 -48.667 1.33301 -74 4s-49.833 7.33398 -73.5 14.001s-45.667 15.5 -66 26.5s-38.166 24.833 -53.499 41.5c-2.66699 2.66699 -4 7 -4 13c-3.33301 8.66699 -5 17.334 -5 26.001
c0 28 0.833008 60.167 2.5 96.5s4 74.333 7 114s6.66699 79.5 11 119.5s9 77.333 14 112s10.167 65.334 15.5 92.001s11 46.334 17 59.001c2 4 4.66699 8.16699 8 12.5s9 6.5 17 6.5c8.66699 0 20.167 -1.33301 34.5 -4s29.333 -6.16699 45 -10.5s30.167 -9 43.5 -14
s23.333 -10.167 30 -15.5c6 -4.66699 11.167 -9.66699 15.5 -15s6.5 -11.666 6.5 -18.999c0 -1.33301 -0.166992 -2.33301 -0.5 -3s-0.5 -1.66699 -0.5 -3c-3.33301 -19.333 -7.5 -44.5 -12.5 -75.5s-10 -65 -15 -102s-9.83301 -75.833 -14.5 -116.5s-9 -81 -13 -121v-5
c0 -16 8 -24 24 -24h3c37.333 2 71.333 4.5 102 7.5s56.334 5.5 77.001 7.5z" />
    <glyph glyph-name="M" unicode="M" horiz-adv-x="817" 
d="M786 653c-4.66699 -28.667 -10.668 -67.1641 -18.001 -115.497s-14.166 -101.666 -20.499 -159.999s-11.833 -119.166 -16.5 -182.499s-7 -124.333 -7 -183c0 -14 -8 -21 -24 -21c-16.667 0 -33.334 1.83301 -50.001 5.5s-32.334 8.5 -47.001 14.5
s-27.667 12.833 -39 20.5s-20 15.167 -26 22.5c-6.66699 8.66699 -10 19.667 -10 33c0 21.333 0.5 47.166 1.5 77.499s2.5 60.5 4.5 90.5c-0.666992 16 2.16602 34 8.49902 54s11.166 37.667 14.499 53v3c-8.66699 -12.667 -15.5 -24.5 -20.5 -35.5
s-12.167 -25.833 -21.5 -44.5c-4 -8 -8.5 -17.333 -13.5 -28s-10.167 -21.334 -15.5 -32.001s-11 -20.667 -17 -30s-12 -16.333 -18 -21c-3.33301 -6 -10.333 -9 -21 -9c-6 -0.666992 -12.833 -0.5 -20.5 0.5s-15.334 2.5 -23.001 4.5s-14.667 4.16699 -21 6.5
s-11.166 3.83301 -14.499 4.5c-14 4 -23.333 11.333 -28 22c-3.33301 9.33301 -8.33301 21 -15 35s-14 29.667 -22 47c-8 15.333 -14.333 31.333 -19 48s-10.667 33.667 -18 51c-2 -20.667 -3 -41 -3 -61s-1 -41.333 -3 -64c-3.33301 -39.333 -6.33301 -80.333 -9 -123
s-4.66699 -83 -6 -121c-0.666992 -14 -8.33398 -21 -23.001 -21c-16.667 0 -33.5 1.83301 -50.5 5.5s-32.833 8.5 -47.5 14.5s-27.834 12.667 -39.501 20s-20.5 14.666 -26.5 21.999c-7.33301 10 -10.666 21 -9.99902 33c1.33301 28 3.5 60.833 6.5 98.5s6.5 77 10.5 118
s8.33301 82.167 13 123.5s9.33398 79.5 14.001 114.5s8.83398 65.333 12.501 91s6.83398 43.167 9.50098 52.5c1.33301 4.66699 3.83301 9 7.5 13s9.5 6 17.5 6c8.66699 0 20.167 -0.833008 34.5 -2.5s29.333 -3.66699 45 -6s30.167 -4.83301 43.5 -7.5
s23.333 -5.33398 30 -8.00098c12.667 -5.33301 19.667 -11.333 21 -18c4 -7.33301 8.16699 -16.333 12.5 -27s9.16602 -21.667 14.499 -33c14.667 -42.667 29 -85.167 43 -127.5s26.667 -82.5 38 -120.5c13.333 29.333 30.333 64.5 51 105.5s44.667 88.5 72 142.5
c3.33301 7.33301 7.83301 15.833 13.5 25.5s11.834 19.167 18.501 28.5s13 17.666 19 24.999s10.667 12.333 14 15c4.66699 6 11.334 9 20.001 9c8 0 19.333 -0.833008 34 -2.5s29.667 -3.66699 45 -6s29.833 -4.83301 43.5 -7.5s23.834 -5.33398 30.501 -8.00098
c7.33301 -3.33301 13 -7.16602 17 -11.499s5.33301 -10.5 4 -18.5z" />
    <glyph glyph-name="N" unicode="N" horiz-adv-x="615" 
d="M584 617c-4.66699 -28.667 -10.6709 -64.4941 -18.0039 -107.494s-14.666 -90.5 -21.999 -142.5s-14 -107 -20 -165s-10.333 -116.333 -13 -175c-0.666992 -14 -8.66699 -21 -24 -21c-16.667 0 -33.834 2.16699 -51.501 6.5s-34.334 9.83301 -50.001 16.5
s-29.5 14 -41.5 22s-21 15.667 -27 23c-4 5.33301 -7 10.666 -9 15.999c-3.33301 11.333 -8.16602 29.5 -14.499 54.5s-14.166 51.167 -23.499 78.5c-6 16.667 -10.833 35.667 -14.5 57s-8.16699 42.666 -13.5 63.999c-5.33301 -54 -9.5 -109.667 -12.5 -167
s-4.5 -113 -4.5 -167c0 -14 -7.66699 -21 -23 -21c-34 0 -62.667 4.16699 -86 12.5s-41.666 19.5 -54.999 33.5c-13.333 14.667 -21.833 30.5 -25.5 47.5s-5.5 28.833 -5.5 35.5c0.666992 28 2.5 60 5.5 96s6.5 73.333 10.5 112s8.5 77.167 13.5 115.5s10 73.666 15 105.999
s9.5 60.5 13.5 84.5s7.33301 40.667 10 50c1.33301 4.66699 3.83301 9 7.5 13s9.5 6 17.5 6c11.333 0 23.5 -0.833008 36.5 -2.5s25.833 -3.66699 38.5 -6s24.334 -4.83301 35.001 -7.5s19.334 -5.33398 26.001 -8.00098c7.33301 -3.33301 12.833 -6.83301 16.5 -10.5
s5.16699 -8.83398 4.5 -15.501c2.66699 -7.33301 5.16699 -16.833 7.5 -28.5s4.66602 -24.334 6.99902 -38.001s4.83301 -27.5 7.5 -41.5s5.33398 -27 8.00098 -39l26 -142c3.33301 38 6.5 74 9.5 108s6.33301 64.833 10 92.5s8.16699 51.667 13.5 72
s11.666 35.833 18.999 46.5c2.66699 4 5.5 8.16699 8.5 12.5s8.5 6.5 16.5 6.5s19.333 -1.5 34 -4.5s29.667 -6.5 45 -10.5s29.833 -8 43.5 -12s23.834 -7.33301 30.501 -10c7.33301 -3.33301 12.5 -9.83301 15.5 -19.5s3.83301 -18.5 2.5 -26.5z" />
    <glyph glyph-name="O" unicode="O" horiz-adv-x="619" 
d="M290 715c17.333 0 35.1631 -1 53.4961 -3s35.833 -5 52.5 -9s32.334 -8.66699 47.001 -14s27 -11.333 37 -18s21.333 -16.667 34 -30s24.5 -30.833 35.5 -52.5s20.333 -47.334 28 -77.001s11.5 -64.5 11.5 -104.5c0 -60 -6.66699 -116.167 -20 -168.5
s-31.666 -97.666 -54.999 -135.999s-50.833 -68.5 -82.5 -90.5s-65.5 -33 -101.5 -33c-17.333 0 -35.166 1 -53.499 3s-36 4.83301 -53 8.5s-32.667 8.16699 -47 13.5s-26.5 11.333 -36.5 18s-21.5 16.667 -34.5 30s-25 30.833 -36 52.5s-20.333 47.5 -28 77.5
s-11.5 65 -11.5 105c0 60 6.66699 116 20 168s31.833 97.333 55.5 136s51.334 69 83.001 91s65.5 33 101.5 33zM327.997 559c-10.667 0 -18.8311 -1.16895 -24.498 -3.50195s-9.83398 -4.83301 -12.501 -7.5c-4.66699 -4.66699 -10.334 -14.5 -17.001 -29.5
s-13 -34.5 -19 -58.5s-11.167 -52.667 -15.5 -86s-6.5 -71 -6.5 -113c0 -26 1.66699 -47.333 5 -64s7.83301 -29.667 13.5 -39s12 -15.666 19 -18.999s14.5 -5 22.5 -5c10.667 0 18.667 1.33301 24 4s9.33301 5.33398 12 8.00098c5.33301 4.66699 11.333 14.167 18 28.5
s13 33.5 19 57.5s11.167 52.667 15.5 86s6.5 71 6.5 113c0 26.667 -1.66699 48.334 -5 65.001s-7.83301 29.667 -13.5 39s-12 15.666 -19 18.999s-14.5 5 -22.5 5z" />
    <glyph glyph-name="P" unicode="P" horiz-adv-x="560" 
d="M34 599c-6 18 -4.33203 30.6689 5.00098 38.002c6 4.66699 17.333 11.5 34 20.5s36.834 18 60.501 27s50 16.833 79 23.5s59.167 10 90.5 10c4 0 16.167 -2.66699 36.5 -8s42.5 -11.833 66.5 -19.5s46.5 -15.334 67.5 -23.001s34.5 -13.834 40.5 -18.501
c3.33301 -2.66699 7.66602 -9 12.999 -19s10.5 -21.5 15.5 -34.5s9.16699 -26.667 12.5 -41s5 -27.5 5 -39.5c0 -28.667 -3.83301 -57.667 -11.5 -87s-19.334 -56.5 -35.001 -81.5s-35.5 -47 -59.5 -66s-52 -32.5 -84 -40.5c-20 -4.66699 -36.167 -7 -48.5 -7
s-22.5 1.66699 -30.5 5s-14.5 8 -19.5 14s-10.167 12.333 -15.5 19l-3 3c-2.66699 2.66699 -4.66699 5 -6 7c-3.33301 -36 -6.5 -75.167 -9.5 -117.5s-5.5 -90.5 -7.5 -144.5c-0.666992 -14 -8.33398 -21 -23.001 -21c-16.667 0 -33.334 1.83301 -50.001 5.5
s-32.167 8.5 -46.5 14.5s-27.166 12.833 -38.499 20.5s-20 15.167 -26 22.5c-6.66699 8.66699 -10 19.667 -10 33c0 40.667 1.5 82.667 4.5 126s6.66699 84.5 11 123.5s9 74 14 105s9.5 54.167 13.5 69.5c-4 6 -8.33301 13 -13 21s-9.16699 16 -13.5 24
s-8.16602 15.333 -11.499 22zM272.001 487.002c-3.33301 -20.667 -6.33008 -41.6699 -8.99707 -63.0029s-5.66699 -43.666 -9 -66.999c15.333 2 30.166 6.5 44.499 13.5s27.333 15.833 39 26.5s21 23.167 28 37.5s10.5 29.833 10.5 46.5c0 18.667 -6.5 35.834 -19.5 51.501
s-32.833 23.5 -59.5 23.5c-17.333 0 -37.333 -4.33301 -60 -13c1.33301 0 2.16602 -0.166992 2.49902 -0.5s1.16602 -0.5 2.49902 -0.5c7.33301 -3.33301 14.833 -9.16602 22.5 -17.499s10.167 -20.833 7.5 -37.5z" />
    <glyph glyph-name="Q" unicode="Q" horiz-adv-x="606" 
d="M287 715c17.333 0 35.667 -1.33789 55 -4.00488s38 -6.16699 56 -10.5s34.833 -8.83301 50.5 -13.5s28.5 -9 38.5 -13c23.333 -9.33301 44 -36.166 62 -80.499s27 -106.5 27 -186.5c0 -74 -11 -140.667 -33 -200s-49 -107 -81 -143c10 -23.333 20.667 -43.333 32 -60
s23.333 -34 36 -52c5.33301 -7.33301 8.16602 -16.5 8.49902 -27.5s-3.16699 -20.167 -10.5 -27.5c-6.66699 -7.33301 -15.5 -15.333 -26.5 -24s-22.833 -16.667 -35.5 -24s-25.5 -13.5 -38.5 -18.5s-24.833 -7.5 -35.5 -7.5c-12.667 0 -24 5 -34 15
s-19.167 23.333 -27.5 40s-15.833 35.834 -22.5 57.501s-12.667 44.5 -18 68.5c-30 3.33301 -59 8.33301 -87 15s-50 14.334 -66 23.001c-12.667 6.66699 -25.667 19.167 -39 37.5s-25.166 40.833 -35.499 67.5s-18.666 56.334 -24.999 89.001s-8.5 66.334 -6.5 101.001
c2.66699 52.667 11.667 102 27 148s34.833 86 58.5 120s50.167 60.833 79.5 80.5s59.666 29.5 90.999 29.5zM325.001 555.995c-10.667 0 -18.8301 -1.16699 -24.4971 -3.5s-9.83398 -4.83301 -12.501 -7.5c-4.66699 -4.66699 -10.334 -12.334 -17.001 -23.001
s-13 -25.667 -19 -45s-11.167 -44 -15.5 -74s-6.5 -67.333 -6.5 -112c0 -26 1.66699 -47.5 5 -64.5s7.83301 -30.5 13.5 -40.5s12 -16.833 19 -20.5s14.5 -5.5 22.5 -5.5c10.667 0 18.667 1.33301 24 4s9.33301 5.33398 12 8.00098c5.33301 4.66699 11.166 13.667 17.499 27
s12.5 31 18.5 53s11.333 48 16 78s7.66699 63.667 9 101c1.33301 26.667 0.5 48.167 -2.5 64.5s-7.33301 29 -13 38s-12.5 15 -20.5 18s-16.667 4.5 -26 4.5z" />
    <glyph glyph-name="R" unicode="R" horiz-adv-x="580" 
d="M34 576c-6 18 -4.33008 30.6699 5.00293 38.0029c6 4.66699 18 12.5 36 23.5s39.5 22 64.5 33s52.167 20.833 81.5 29.5s58.333 13 87 13c12 0 27 -2.83301 45 -8.5s36.333 -12.167 55 -19.5s35.667 -14.666 51 -21.999s26.333 -12.666 33 -15.999
c6 -3.33301 12 -8.83301 18 -16.5s11.167 -16.5 15.5 -26.5s8 -21 11 -33s4.5 -24 4.5 -36c0 -58 -8.66699 -107.833 -26 -149.5s-48 -73.167 -92 -94.5c10.667 -14 22.167 -27.833 34.5 -41.5s24.333 -26.5 36 -38.5s22.5 -22.833 32.5 -32.5s18 -17.167 24 -22.5
c8 -7.33301 11.167 -15.333 9.5 -24s-5.16699 -17.667 -10.5 -27c-4.66699 -7.33301 -12.167 -16.833 -22.5 -28.5s-21.666 -23 -33.999 -34s-25.166 -20.333 -38.499 -28s-25.333 -11.5 -36 -11.5c-12 0 -25.667 9.5 -41 28.5s-31 42.5 -47 70.5s-31.333 58.333 -46 91
s-27 63 -37 91c-3.33301 -32.667 -6.33301 -69.334 -9 -110.001s-5.33398 -89 -8.00098 -145c-0.666992 -14 -8.33398 -21 -23.001 -21c-16.667 0 -32.834 2.16699 -48.501 6.5s-30.334 9.66602 -44.001 15.999s-25.667 13.5 -36 21.5s-18.5 15.667 -24.5 23
c-6.66699 8.66699 -10 19.667 -10 33c1.33301 40 3.33301 79.833 6 119.5s5.66699 76.667 9 111s7 65.166 11 92.499s7.33301 48.666 10 63.999c0 0.666992 -0.166992 1 -0.5 1s-0.5 0.333008 -0.5 1c-2.66699 3.33301 -6.33398 8.5 -11.001 15.5s-9.16699 14.667 -13.5 23
s-8.5 16.166 -12.5 23.499s-6.66699 13 -8 17zM270.003 467.003c-3.33301 -20.667 -6.33203 -41.0029 -8.99902 -61.0029s-5.33398 -40.667 -8.00098 -62c14.667 2.66699 29 8.16699 43 16.5s26.5 18.5 37.5 30.5s19.833 25.833 26.5 41.5s10 31.834 10 48.501
c0 18.667 -6.66699 35.334 -20 50.001s-33.333 22 -60 22c-12 0 -23.833 -2.66699 -35.5 -8s-23.167 -12 -34.5 -20c3.33301 0 6.33301 -0.333008 9 -1l8 -2c7.33301 -3.33301 15.333 -9.16602 24 -17.499s11.667 -20.833 9 -37.5z" />
    <glyph glyph-name="S" unicode="S" horiz-adv-x="539" 
d="M274 217c-3.33301 12 -11.998 21.4971 -25.998 28.4971s-30.5 14 -49.5 21s-39 14.833 -60 23.5s-40.333 19.834 -58 33.501s-32.334 31.334 -44.001 53.001s-17.5 48.834 -17.5 81.501c0 38 8.16699 73 24.5 105s37.166 59.667 62.499 83s53.5 41.666 84.5 54.999
s61.167 20 90.5 20c40 0 73.5 -4.16699 100.5 -12.5s52.833 -17.833 77.5 -28.5c19.333 -8 36.333 -19.833 51 -35.5s20.667 -34.167 18 -55.5c-1.33301 -10.667 -2.5 -22 -3.5 -34s-3 -24.833 -6 -38.5s-7.33301 -28.334 -13 -44.001s-13.5 -32.5 -23.5 -50.5
c-1.33301 -2 -3.16602 -5.5 -5.49902 -10.5s-5.33301 -10 -9 -15s-8 -9.66699 -13 -14s-10.833 -7.5 -17.5 -9.5c-7.33301 -2 -15.666 -1.5 -24.999 1.5s-19.666 6.16699 -30.999 9.5c-25.333 5.33301 -40 13.833 -44 25.5s-2.66699 28.5 4 50.5
c9.33301 32 10.666 55.333 3.99902 70s-18.667 22 -36 22c-11.333 0 -22.5 -2.5 -33.5 -7.5s-20.833 -11.667 -29.5 -20s-15.834 -18 -21.501 -29s-8.5 -22.833 -8.5 -35.5c-0.666992 -26.667 5.5 -47.334 18.5 -62.001s29.5 -26.667 49.5 -36s41.833 -17.666 65.5 -24.999
s45.667 -17 66 -29s37.333 -28.167 51 -48.5s20.5 -48.166 20.5 -83.499c0 -32.667 -5.5 -61 -16.5 -85s-25.5 -43.667 -43.5 -59s-38.5 -26.666 -61.5 -33.999s-46.5 -11 -70.5 -11c-30 0 -56.167 2.16699 -78.5 6.5s-42 10 -59 17s-31.667 14.667 -44 23
s-23.833 16.5 -34.5 24.5c-12 8.66699 -22.167 19.167 -30.5 31.5s-15.166 24.666 -20.499 36.999s-9.5 24.333 -12.5 36s-4.5 21.167 -4.5 28.5c-0.666992 21.333 0.833008 35 4.5 41s8.5 10 14.5 12c7.33301 2 15.166 1.33301 23.499 -2s16.666 -7.66602 24.999 -12.999
s16.333 -11 24 -17s14.167 -10.667 19.5 -14c22.667 -12 44 -19.667 64 -23s35.333 -5 46 -5c18.667 0 31.667 3.16699 39 9.5s8.33301 18.833 3 37.5z" />
    <glyph glyph-name="T" unicode="T" horiz-adv-x="586" 
d="M106 524c-9.33301 0.666992 -16.8301 1.83203 -22.4971 3.49902s-10.667 4 -15 7s-8.33301 6.83301 -12 11.5s-8.16699 10 -13.5 16c-2 2 -5.16699 6.83301 -9.5 14.5s-8.66602 17 -12.999 28s-8.33301 22.833 -12 35.5s-6.16699 25 -7.5 37
c-0.666992 8.66699 -0.5 15.834 0.5 21.501s5.16699 9.16699 12.5 10.5c12.667 2 33.5 3.66699 62.5 5s62.167 2.33301 99.5 3s76.666 0.833984 117.999 0.500977s81 -1.5 119 -3.5c8 -0.666992 18.667 -1.16699 32 -1.5s26.666 -1 39.999 -2s25.333 -2 36 -3
s17.667 -2.5 21 -4.5c5.33301 -2.66699 11.333 -8.5 18 -17.5s13.167 -20 19.5 -33s12.5 -27.333 18.5 -43s11.333 -31.5 16 -47.5c2.66699 -8.66699 2 -18.334 -2 -29.001s-14.333 -15.667 -31 -15c-4 0 -12.167 0.833008 -24.5 2.5s-28.5 3.5 -48.5 5.5
s-42.833 3.83301 -68.5 5.5s-53.834 2.5 -84.501 2.5c14 -2 24.667 -6.33301 32 -13s12.5 -14 15.5 -22s4.5 -16.167 4.5 -24.5s-0.333008 -15.166 -1 -20.499c-2.66699 -28.667 -5.5 -55.167 -8.5 -79.5s-6 -50.833 -9 -79.5s-5.5 -61.167 -7.5 -97.5s-3 -80.833 -3 -133.5
c0 -22 -3.33301 -39.167 -10 -51.5s-16.334 -18.166 -29.001 -17.499c-16.667 0.666992 -33.167 3 -49.5 7s-31.5 9 -45.5 15s-26.333 12.667 -37 20s-19 14.666 -25 21.999c-6.66699 8.66699 -10 19.667 -10 33c0.666992 41.333 2.66699 84.666 6 129.999
s7.33301 88.166 12 128.499s9 76.333 13 108s6.66699 54.834 8 69.501c-19.333 0 -37.833 -0.333008 -55.5 -1s-34.167 -1.66699 -49.5 -3z" />
    <glyph glyph-name="U" unicode="U" horiz-adv-x="653" 
d="M622 668c-3.33301 -46.667 -8.00293 -98.1699 -14.0029 -154.503s-14.667 -124.166 -26 -203.499c-3.33301 -29.333 -7.33301 -56 -12 -80l-2 -16c-1.33301 -6 -2.66602 -10.333 -3.99902 -13c-19.333 -76.667 -52.166 -132 -98.499 -166s-107.833 -50.333 -184.5 -49
c-17.333 0 -35 2.33301 -53 7s-35.167 10.334 -51.5 17.001s-31.666 14 -45.999 22s-26.5 15.333 -36.5 22s-19.833 15 -29.5 25s-17.5 23.5 -23.5 40.5s-9.5 38.667 -10.5 65s2.16699 59.166 9.5 98.499l2 21v6c3.33301 40 7 80.333 11 121s8.16699 78.834 12.5 114.501
s8.5 67.167 12.5 94.5s7.66699 47.666 11 60.999c1.33301 4.66699 5.16602 8.83398 11.499 12.501s13.5 5.5 21.5 5.5c8.66699 0 19.167 -0.333008 31.5 -1s25 -1.66699 38 -3s25.833 -3.16602 38.5 -5.49902s23.334 -5.5 32.001 -9.5c4 -2 7.83301 -3.83301 11.5 -5.5
s7 -4.5 10 -8.5s5.16699 -9.5 6.5 -16.5s1.33301 -16.167 0 -27.5c-2.66699 -28.667 -6.33398 -60.167 -11.001 -94.5s-9.5 -68.5 -14.5 -102.5s-9.33301 -66.833 -13 -98.5s-5.5 -59.167 -5.5 -82.5c0 -1.33301 -0.166992 -3 -0.5 -5s-0.5 -4.33301 -0.5 -7
c0 -19.333 1.16699 -34.833 3.5 -46.5s5.5 -20.5 9.5 -26.5s8.83301 -10 14.5 -12s12.167 -3 19.5 -3c12 0 22 3.5 30 10.5s14.833 16 20.5 27s10.167 23.5 13.5 37.5s6 27.667 8 41c0 4 0.333008 7 1 9c5.33301 42 10 83.833 14 125.5s8 81 12 118s7.66699 70.667 11 101
s7 55.166 11 74.499c1.33301 4.66699 3.83301 9 7.5 13s9.5 6 17.5 6c10.667 0 24 -1 40 -3s32 -4.5 48 -7.5s30.833 -6.16699 44.5 -9.5s23.834 -6.33301 30.501 -9c7.33301 -3.33301 13 -7.16602 17 -11.499s5.33301 -10.5 4 -18.5z" />
    <glyph glyph-name="V" unicode="V" horiz-adv-x="634" 
d="M622 651c4 -4.66699 7.33203 -9.17188 9.99902 -13.5049s2.66699 -10.166 0 -17.499c-8 -26.667 -17.5 -58 -28.5 -94s-22.667 -73.833 -35 -113.5s-25.166 -80 -38.499 -121s-26.333 -79.833 -39 -116.5s-25 -70 -37 -100s-22.667 -54 -32 -72
c-4.66699 -9.33301 -12.667 -12.666 -24 -9.99902c-12.667 -1.33301 -29 -1.16602 -49 0.500977s-39.667 4.16699 -59 7.5h-6c-8 0 -18.333 1.83301 -31 5.5s-25.5 8.16699 -38.5 13.5s-25.333 11.166 -37 17.499s-20.834 11.833 -27.501 16.5c-13.333 10 -21 22.667 -23 38
c-0.666992 7.33301 -3.16699 21.833 -7.5 43.5s-9.66602 49.334 -15.999 83.001s-13.5 73.334 -21.5 119.001s-16.333 96.167 -25 151.5c-9.33301 57.333 -15.833 101.666 -19.5 132.999s-5.83398 50.333 -6.50098 57c-1.33301 6.66699 2 15.167 10 25.5s18 15.5 30 15.5
c16 0 32.833 -1.83301 50.5 -5.5s34.334 -8.33398 50.001 -14.001s29.667 -12.167 42 -19.5s21.5 -15 27.5 -23c4 -5.33301 8.5 -23.166 13.5 -53.499s10 -67.166 15 -110.499s9.83301 -90.166 14.5 -140.499s8.66699 -98.5 12 -144.5c12 39.333 23.167 80.5 33.5 123.5
s20.5 85.833 30.5 128.5s20 84.167 30 124.5s20.333 77.5 31 111.5c2 6.66699 4 12.167 6 16.5s6.66699 6.5 14 6.5c16 0 33.167 -2 51.5 -6s35.833 -9.33301 52.5 -16s32 -14.167 46 -22.5s24.333 -16.5 31 -24.5z" />
    <glyph glyph-name="W" unicode="W" horiz-adv-x="765" 
d="M755 641c9.33301 -10.667 12.332 -24.3203 8.99902 -40.9873c-9.33301 -52.667 -20.5 -108 -33.5 -166s-26.833 -114 -41.5 -168s-29.5 -104 -44.5 -150s-29.167 -83.667 -42.5 -113c-2.66699 -6 -7.5 -11.5 -14.5 -16.5s-13.833 -6.16699 -20.5 -3.5
c-10.667 1.33301 -23.167 3.66602 -37.5 6.99902s-28.833 7.16602 -43.5 11.499s-28.5 9.16602 -41.5 14.499s-23.5 10.333 -31.5 15c-8.66699 5.33301 -13.834 12.5 -15.501 21.5s-4.5 19.833 -8.5 32.5c-7.33301 22 -13.166 51.167 -17.499 87.5
s-8.16602 73.166 -11.499 110.499c-4 -1.33301 -6.33301 -2.33301 -7 -3c-2 -8 -6.16699 -23.667 -12.5 -47s-13.666 -49 -21.999 -77s-16.833 -55.167 -25.5 -81.5s-16.334 -46.166 -23.001 -59.499c-2.66699 -8 -5.83398 -14 -9.50098 -18s-7.5 -6.66699 -11.5 -8
s-7.83301 -1.83301 -11.5 -1.5s-6.83398 0.5 -9.50098 0.5c-8 0.666992 -17 2.5 -27 5.5s-20 6.66699 -30 11s-19.5 9.16602 -28.5 14.499s-16.833 10.333 -23.5 15c-6.66699 5.33301 -11.667 11.166 -15 17.499s-6 13.166 -8 20.499c-6.66699 25.333 -14 61 -22 107
s-17.667 109.333 -29 190c-4.66699 33.333 -8 65.666 -10 96.999s-3.33301 60.5 -4 87.5s-0.833984 51 -0.500977 72s0.5 38.167 0.5 51.5c0 3.33301 0.666992 7.5 2 12.5s3.33301 9.66699 6 14s6.16699 8.16602 10.5 11.499s9.5 5 15.5 5c16 0 32.833 -1.66699 50.5 -5
s34.5 -7.83301 50.5 -13.5s30.667 -11.834 44 -18.501s23.333 -13.334 30 -20.001c6 -5.33301 10 -24.5 12 -57.5s4 -72.833 6 -119.5c1.33301 -26 2.16602 -55.5 2.49902 -88.5s0.833008 -65.167 1.5 -96.5c6 17.333 12.333 38.666 19 63.999s13.167 51 19.5 77
s12.333 50.167 18 72.5s10.834 38.833 15.501 49.5c8 17.333 16.167 26.166 24.5 26.499s17.833 -1.16699 28.5 -4.5c4.66699 -1.33301 10.167 -3.33301 16.5 -6s12.5 -6.66699 18.5 -12s10.833 -12.333 14.5 -21s5.5 -19.334 5.5 -32.001c0 -4 0.166992 -12.833 0.5 -26.5
s0.833008 -31 1.5 -52s1.66699 -44.5 3 -70.5s3.33301 -53 6 -81c0.666992 0 1 0.333008 1 1c10 33.333 19.333 68 28 104s17.334 71.833 26.001 107.5s17.167 70.5 25.5 104.5s16.833 65.667 25.5 95c2 6.66699 5 12.167 9 16.5s9.66699 6.5 17 6.5
c16 0 32.5 -2.5 49.5 -7.5s33.333 -11.5 49 -19.5s29.834 -16.667 42.501 -26s22.334 -18 29.001 -26z" />
    <glyph glyph-name="X" unicode="X" horiz-adv-x="598" 
d="M589 557c-4.66699 -6.66699 -13.5049 -17.8301 -26.5049 -33.4971s-27.833 -32.834 -44.5 -51.501s-33.667 -37.667 -51 -57s-33 -36.666 -47 -51.999c26 -42 48 -83.333 66 -124s34.667 -81 50 -121c3.33301 -9.33301 5.66602 -18.666 6.99902 -27.999
s-1.66699 -17.666 -9 -24.999c-6.66699 -7.33301 -16.167 -15.666 -28.5 -24.999s-25.833 -18 -40.5 -26s-29.167 -14.833 -43.5 -20.5s-26.833 -8.5 -37.5 -8.5c-7.33301 0 -15.333 7.5 -24 22.5s-17.667 34.167 -27 57.5s-18.333 49.333 -27 78s-16.667 56.667 -24 84
c-10 -19.333 -20.333 -39.333 -31 -60s-21.334 -40.834 -32.001 -60.501s-21.167 -38.334 -31.5 -56.001s-19.5 -33.167 -27.5 -46.5c-7.33301 -12 -19 -15.333 -35 -10c-18 6.66699 -38.667 17.834 -62 33.501s-42 33.167 -56 52.5
c-5.33301 7.33301 -7.66602 17.666 -6.99902 30.999s3.66699 24 9 32c4.66699 6.66699 13.334 19.667 26.001 39s27.167 40.666 43.5 63.999s33.666 47.166 51.999 71.499s35.5 44.833 51.5 61.5c-23.333 38.667 -44.666 78 -63.999 118s-35.666 78 -48.999 114
c-3.33301 9.33301 -5.66602 18.666 -6.99902 27.999s1.66699 17.666 9 24.999c6.66699 7.33301 17.167 14.5 31.5 21.5s30 13.167 47 18.5s33.667 9.66602 50 12.999s29.833 5 40.5 5c6.66699 0 13.334 -6 20.001 -18s13.5 -27.5 20.5 -46.5s13.833 -40.667 20.5 -65
s13 -49.166 19 -74.499c10 18 20.333 36.333 31 55s21.167 36.334 31.5 53.001s20 32 29 46s16.833 25.333 23.5 34c3.33301 4 9.83301 8.66699 19.5 14s18.167 6.66602 25.5 3.99902c9.33301 -3.33301 19 -8.5 29 -15.5s19.833 -15.167 29.5 -24.5s19.167 -19.5 28.5 -30.5
s17.333 -21.833 24 -32.5c4.66699 -7.33301 6.83398 -17.833 6.50098 -31.5s-3.16602 -24.5 -8.49902 -32.5z" />
    <glyph glyph-name="Y" unicode="Y" horiz-adv-x="573" 
d="M267 -7l-102.002 49.998c-6.66699 3.33301 -12 8.66602 -16 15.999s-6.66699 15.166 -8 23.499s-1.66602 16.5 -0.999023 24.5s1.66699 14 3 18c5.33301 16 12.833 35 22.5 57s20.167 46 31.5 72c-19.333 -2 -35 0.833008 -47 8.5s-23 23.834 -33 48.501
c-18.667 46 -35.5 93.833 -50.5 143.5s-26.833 99.5 -35.5 149.5c-1.33301 9.33301 -0.833008 21.333 1.5 36s7.16602 25.667 14.499 33c6.66699 7.33301 16 13.666 28 18.999s25 9.83301 39 13.5s28.333 6.83398 43 9.50098s27.667 5 39 7
c3.33301 0.666992 7.83301 1 13.5 1s11.334 -0.666992 17.001 -2s10.667 -3.66602 15 -6.99902s6.83301 -8 7.5 -14c10 -60.667 17.167 -115 21.5 -163s10.166 -92.667 17.499 -134c13.333 36.667 27.333 71.834 42 105.501s28.667 64.167 42 91.5s25.666 50.5 36.999 69.5
s20.333 31.833 27 38.5c3.33301 3.33301 7.5 7.66602 12.5 12.999s10.5 8.33301 16.5 9c8 2 16.833 1 26.5 -3s19.167 -9.33301 28.5 -16s18.333 -13.667 27 -21s16.334 -13.333 23.001 -18c4 -2.66699 8.33301 -6.66699 13 -12s7.66699 -11.666 9 -18.999
c1.33301 -9.33301 0.166016 -18.833 -3.50098 -28.5s-7.5 -18.167 -11.5 -25.5c-19.333 -32 -41.166 -72.5 -65.499 -121.5s-48.166 -100.333 -71.499 -154s-44.833 -106.5 -64.5 -158.5s-34.5 -97 -44.5 -135c-1.33301 -4.66699 -3.83301 -9.5 -7.5 -14.5
s-8.16699 -9 -13.5 -12s-11.666 -4.66699 -18.999 -5s-15.333 1.83398 -24 6.50098z" />
    <glyph glyph-name="Z" unicode="Z" horiz-adv-x="588" 
d="M112 -2c-18.667 1.33301 -32.6719 8.66895 -42.0049 22.002s-19.333 28.666 -30 45.999c-1.33301 2.66699 -3.66602 6.5 -6.99902 11.5s-6.66602 10.833 -9.99902 17.5s-6.16602 13.667 -8.49902 21s-3.5 14.333 -3.5 21c0.666992 14.667 7.66699 28 21 40
c12.667 16 32.334 37.667 59.001 65s56.667 57 90 89s68.5 64.333 105.5 97s71.833 62.334 104.5 89.001c-9.33301 1.33301 -19 2 -29 2h-32c-31.333 -1.33301 -65.333 -1.66602 -102 -0.999023s-68.667 1.66699 -96 3c-9.33301 0.666992 -16.333 1.83398 -21 3.50098
s-8.66699 4 -12 7s-6.33301 6.83301 -9 11.5s-6.66699 10 -12 16c-2 2 -5.16699 7.16699 -9.5 15.5s-8.66602 18.333 -12.999 30s-8.66602 24.167 -12.999 37.5s-7.5 26 -9.5 38c-1.33301 8.66699 0.333984 15.834 5.00098 21.501s10.667 9.16699 18 10.5
c25.333 3.33301 65.833 5 121.5 5s121.5 -0.666992 197.5 -2c13.333 0 26.833 -1 40.5 -3s26.5 -4.16699 38.5 -6.5s22.333 -4.83301 31 -7.5s14.667 -5 18 -7c5.33301 -2.66699 11.333 -8.5 18 -17.5s13.5 -19.833 20.5 -32.5s13.5 -26.834 19.5 -42.501
s11.333 -31.5 16 -47.5c1.33301 -6 0.833008 -14.5 -1.5 -25.5s-6.83301 -20.5 -13.5 -28.5l-2 -3c-17.333 -18.667 -38.666 -38.334 -63.999 -59.001s-53 -43.5 -83 -68.5s-61.333 -52.5 -94 -82.5s-65 -63.333 -97 -100c-0.666992 -0.666992 -1 -1.33398 -1 -2.00098
c12.667 2.66699 24.667 5 36 7s22.833 3.5 34.5 4.5s24.334 1.5 38.001 1.5h45.5c26.667 -0.666992 50 -2.16699 70 -4.5s33.333 -5.16602 40 -8.49902c4.66699 -2.66699 9.66699 -8.33398 15 -17.001s10.5 -19.334 15.5 -32.001s10 -26.834 15 -42.501
s9.83301 -31.5 14.5 -47.5c1.33301 -4 2.66602 -9 3.99902 -15s1.66602 -11.833 0.999023 -17.5s-2.33398 -10.834 -5.00098 -15.501s-7.66699 -7.66699 -15 -9c-4 -0.666992 -11.167 -0.166992 -21.5 1.5s-24.333 3.83398 -42 6.50098s-39.334 5 -65.001 7
s-56.167 3 -91.5 3c-15.333 0 -31.833 -0.333008 -49.5 -1s-35.167 -1.5 -52.5 -2.5s-34.333 -1.83301 -51 -2.5s-31.667 -0.666992 -45 0z" />
    <glyph glyph-name="bracketleft" unicode="[" horiz-adv-x="459" 
d="M246 -39c9.33301 0 18.6699 -0.338867 28.0029 -1.00586s17.666 -1.33398 24.999 -2.00098c16.667 -1.33301 29 -2.16602 37 -2.49902s15 -2.5 21 -6.5c5.33301 -3.33301 11.833 -9.5 19.5 -18.5s15 -19.167 22 -30.5s13 -23.333 18 -36s7.16699 -24.334 6.5 -35.001
c0 -5.33301 -2.5 -9.5 -7.5 -12.5s-10.167 -4.5 -15.5 -4.5c-10.667 0 -23 0.333008 -37 1s-28.5 1.33398 -43.5 2.00098s-30.333 1.33398 -46 2.00098s-30.167 1.66699 -43.5 3c-2.66699 -0.666992 -6 -0.666992 -10 0c-32.667 7.33301 -63.167 19 -91.5 35
s-51.166 31.667 -68.499 47c-4.66699 4 -7.5 8.83301 -8.5 14.5s-1.5 11.834 -1.5 18.501c0 28 1 64.167 3 108.5s4.66699 91.833 8 142.5s7 102.167 11 154.5s8.16699 100.833 12.5 145.5s8.5 83.167 12.5 115.5s7.66699 53.5 11 63.5
c1.33301 4.66699 4.33301 9.83398 9 15.501s10 10.834 16 15.501s12 8.66699 18 12s11 5 15 5c12 0 26.333 0.166992 43 0.5s32.334 -0.166992 47.001 -1.5c13.333 -0.666992 26.5 -1 39.5 -1s26.167 -0.666992 39.5 -2c16.667 -1.33301 32.834 -3.5 48.501 -6.5
s26.5 -6.5 32.5 -10.5c5.33301 -3.33301 11.666 -9.83301 18.999 -19.5s14.166 -20.667 20.499 -33s11.833 -25 16.5 -38s6.66699 -24.833 6 -35.5c0 -5.33301 -2 -9.5 -6 -12.5s-8.33301 -4.16699 -13 -3.5c-28 3.33301 -55.333 5.5 -82 6.5s-54 2.16699 -82 3.5
c-4.66699 -39.333 -9.33398 -83.833 -14.001 -133.5s-9.33398 -101.167 -14.001 -154.5s-8.83398 -106.666 -12.501 -159.999s-6.5 -103.666 -8.5 -150.999z" />
    <glyph glyph-name="backslash" unicode="\" horiz-adv-x="563" 
d="M34 614c-6.66699 12.667 -4.33594 25.6641 6.99707 38.9971c9.33301 12 21.833 25.167 37.5 39.5s31.167 25.166 46.5 32.499c7.33301 3.33301 13.333 3.83301 18 1.5s8.66699 -5.16602 12 -8.49902c8 -7.33301 21.167 -23.666 39.5 -48.999s39.333 -56 63 -92
s48.667 -75.333 75 -118s52 -85 77 -127s47.667 -82.167 68 -120.5s36.166 -71.166 47.499 -98.499c2.66699 -5.33301 4.83398 -11.166 6.50098 -17.499s0.833984 -11.833 -2.49902 -16.5c-15.333 -18.667 -30.666 -34 -45.999 -46s-33.666 -22.333 -54.999 -31
c-13.333 -5.33301 -23 -2 -29 10c-28.667 53.333 -60.5 108.333 -95.5 165s-69.333 111.667 -103 165s-65.167 103.5 -94.5 150.5s-53.333 87.5 -72 121.5z" />
    <glyph glyph-name="bracketright" unicode="]" horiz-adv-x="459" 
d="M213 567c-10 0 -19.5049 0.335938 -28.5049 1.00293s-17.167 1.33398 -24.5 2.00098c-16.667 1.33301 -29 2.16602 -37 2.49902s-15 2.5 -21 6.5c-5.33301 3.33301 -11.833 9.5 -19.5 18.5s-15 19.167 -22 30.5s-13 23.333 -18 36s-7.16699 24.334 -6.5 35.001
c0 5.33301 2.5 9.5 7.5 12.5s10.167 4.5 15.5 4.5c10.667 0 22.834 -0.333008 36.501 -1s28.167 -1.33398 43.5 -2.00098l46 -2c15.333 -0.666992 29.666 -1.66699 42.999 -3c3.33301 1.33301 7 1.33301 11 0c16 -3.33301 31.833 -5.83301 47.5 -7.5
s30.334 -3.33398 44.001 -5.00098s26.334 -3.66699 38.001 -6s21.834 -6.16602 30.501 -11.499c5.33301 -3.33301 8.33301 -8 9 -14s1 -12.333 1 -19c0 -28 -1 -65.333 -3 -112s-4.66699 -97.334 -8 -152.001s-7 -110.5 -11 -167.5s-8.16699 -109.833 -12.5 -158.5
s-8.5 -90.334 -12.5 -125.001s-7.66699 -57 -11 -67c-1.33301 -4.66699 -4.33301 -9.83398 -9 -15.501s-10 -10.834 -16 -15.501s-12 -8.66699 -18 -12s-11 -5 -15 -5c-12 0 -26.333 -0.166992 -43 -0.5s-32.667 0.166992 -48 1.5c-13.333 0.666992 -26.333 1 -39 1
s-25.667 0.666992 -39 2c-16.667 1.33301 -32.834 3.5 -48.501 6.5s-26.5 6.5 -32.5 10.5c-5.33301 3.33301 -11.666 9.83301 -18.999 19.5s-14.166 20.667 -20.499 33s-11.833 25 -16.5 38s-6.66699 24.833 -6 35.5c0 5.33301 2 9.5 6 12.5s8.33301 4.16699 13 3.5
c27.333 -3.33301 54.5 -5.5 81.5 -6.5s54.167 -2.16699 81.5 -3.5c4.66699 39.333 9.5 83.833 14.5 133.5s9.83301 101.167 14.5 154.5s8.83398 106.833 12.501 160.5s6.5 103.834 8.5 150.501z" />
    <glyph glyph-name="asciicircum" unicode="^" horiz-adv-x="447" 
d="M141 420c-4.66699 -6 -8.99707 -9.83398 -12.9971 -11.501s-9.33301 -1.16699 -16 1.5s-12.5 5.66699 -17.5 9s-10.333 7.5 -16 12.5s-11.834 11.167 -18.501 18.5s-15.334 16.333 -26.001 27c-4 4 -5 9.33301 -3 16s4.33301 12.667 7 18c4 10 12.5 23 25.5 39
s27 32.667 42 50s29.833 34 44.5 50s25.334 28.667 32.001 38c5.33301 8 12.833 14.5 22.5 19.5s19.167 7.5 28.5 7.5c10.667 0 20.167 -2.66699 28.5 -8s16.166 -11.666 23.499 -18.999c7.33301 -9.33301 17 -22 29 -38l37.5 -50c13 -17.333 24.833 -34 35.5 -50
s18 -29 22 -39c2.66699 -5.33301 5 -11.333 7 -18s1 -12 -3 -16c-10.667 -10.667 -18.834 -19.667 -24.501 -27s-10.667 -13.5 -15 -18.5s-8.5 -9.16699 -12.5 -12.5s-9.33301 -6.33301 -16 -9s-12 -3.16699 -16 -1.5s-8.33301 5.5 -13 11.5
c-12.667 17.333 -26.667 37.166 -42 59.499s-30.666 42.5 -45.999 60.5c-14.667 -18 -29.834 -38.167 -45.501 -60.5s-29.5 -42.166 -41.5 -59.499z" />
    <glyph glyph-name="underscore" unicode="_" horiz-adv-x="414" 
d="M322 -104c8.66699 2 17.001 -1.66895 25.001 -11.002c2 -2 4.5 -6.66699 7.5 -14s6 -15.833 9 -25.5s5.5 -19.334 7.5 -29.001s3 -18.167 3 -25.5c0 -18.667 -6.33301 -27.334 -19 -26.001c-15.333 0.666992 -37.333 0.333984 -66 -0.999023s-58.5 -3 -89.5 -5
s-60.167 -4.33301 -87.5 -7s-47.666 -4.66699 -60.999 -6c-12.667 -1.33301 -22.667 0.666992 -30 6s-12.333 10.333 -15 15c-8.66699 14.667 -16.834 29.334 -24.501 44.001s-11.5 27.334 -11.5 38.001c0 8.66699 2.66699 15.5 8 20.5s9.66602 7.5 12.999 7.5
c17.333 0 41.5 1.16699 72.5 3.5s63 4.83301 96 7.5s64.5 4.83398 94.5 6.50098s52.667 2.16699 68 1.5z" />
    <glyph glyph-name="grave" unicode="`" horiz-adv-x="289" 
d="M144 717c10 -8 20.1699 -18.5049 30.5029 -31.5049s20.666 -26.5 30.999 -40.5s20.5 -28 30.5 -42s19 -26.333 27 -37c2.66699 -1.33301 4.5 -5.33301 5.5 -12s-1.16699 -13.667 -6.5 -21c-2.66699 -3.33301 -5 -5.83301 -7 -7.5s-4 -3.16699 -6 -4.5
s-4.83301 -2.66602 -8.5 -3.99902s-8.83398 -3.66602 -15.501 -6.99902c-4.66699 -1.33301 -11.167 -2.16602 -19.5 -2.49902s-16.833 3.83398 -25.5 12.501c-6 6.66699 -14 14.667 -24 24s-20.833 19.333 -32.5 30s-23.334 21.167 -35.001 31.5s-22.167 19.833 -31.5 28.5
c-3.33301 3.33301 -5.33301 7.33301 -6 12s1.33301 10.334 6 17.001c4 5.33301 9 11.333 15 18s12 13 18 19s11.5 11.167 16.5 15.5s8.83301 6.5 11.5 6.5c11.333 2 20 0.333008 26 -5z" />
    <glyph glyph-name="a" unicode="a" horiz-adv-x="487" 
d="M456 321c-2.66699 -16.667 -5.17188 -40.165 -7.50488 -70.498s-4.5 -61.333 -6.5 -93s-3.5 -60.834 -4.5 -87.501s-1.5 -44.667 -1.5 -54c0 -6 -2 -11 -6 -15s-9.66699 -6 -17 -6c-10 0 -22.5 1.83301 -37.5 5.5s-30 8.5 -45 14.5s-29 12.833 -42 20.5
s-22.5 15.167 -28.5 22.5c-7.33301 9.33301 -11 20.333 -11 33v3v4c0 0.666992 0.166992 1 0.5 1s0.5 0.333008 0.5 1c0.666992 2.66699 1.16699 5 1.5 7s0.5 4 0.5 6c0 2.66699 -1 4 -3 4c-1.33301 0 -3.66602 -2.33301 -6.99902 -7
c-3.33301 -5.33301 -7 -12.166 -11 -20.499s-8 -16.833 -12 -25.5s-8 -17 -12 -25s-7.66699 -14.333 -11 -19c-6.66699 -7.33301 -13.334 -13.333 -20.001 -18s-14.667 -7 -24 -7c-4.66699 0 -11.5 0.833008 -20.5 2.5s-18.5 4.16699 -28.5 7.5s-19.333 7.33301 -28 12
s-15.667 9.66699 -21 15c-14.667 16.667 -25.667 38.167 -33 64.5s-11 55.5 -11 87.5c0 40 6.33301 77 19 111s29.334 63.5 50.001 88.5s43.834 44.5 69.501 58.5s51.834 21 78.501 21c6.66699 0 16.334 -1.5 29.001 -4.5s25.5 -6.5 38.5 -10.5s24.833 -8.33301 35.5 -13
s17.334 -8.66699 20.001 -12c4.66699 -5.33301 7.83398 -11.333 9.50098 -18s2.83398 -15.334 3.50098 -26.001c14.667 -4 28.5 -8.5 41.5 -13.5s23.5 -9.16699 31.5 -12.5c7.33301 -3.33301 12.666 -7.33301 15.999 -12s4.66602 -11.334 3.99902 -20.001zM266.995 301.002
c0.666992 4 -0.166016 7.99707 -2.49902 11.9971s-6.16602 6 -11.499 6c-8 0 -16 -4.66699 -24 -14s-15.167 -20.666 -21.5 -33.999s-11.5 -27.5 -15.5 -42.5s-6 -28.167 -6 -39.5c0 -10.667 3.33301 -16 10 -16c3.33301 0 7.5 2 12.5 6s9.83301 8.66699 14.5 14
c5.33301 6.66699 12.166 17.334 20.499 32.001s15.166 28.334 20.499 41.001l3 31v4z" />
    <glyph glyph-name="b" unicode="b" 
d="M477 263c-4.66699 -48 -15.9951 -87.5049 -33.9951 -118.505s-37.5 -55.833 -58.5 -74.5s-41.167 -32 -60.5 -40s-32.666 -13 -39.999 -15c-8.66699 -2.66699 -19.334 -4.33398 -32.001 -5.00098s-25 -0.666992 -37 0s-22.667 1.5 -32 2.5s-15 1.83301 -17 2.5
c-16.667 2 -35.334 7.16699 -56.001 15.5s-36.667 17.166 -48 26.499c-6.66699 5.33301 -13.834 13.5 -21.501 24.5s-10.834 25.5 -9.50098 43.5c0.666992 15.333 2.16699 42.833 4.5 82.5s5.16602 84.834 8.49902 135.501s7.5 103.334 12.5 158.001
s10.5 104.334 16.5 149.001c0.666992 3.33301 1.83398 7.5 3.50098 12.5s3.66699 9.66699 6 14s5.16602 8 8.49902 11s7 4.16699 11 3.5c32.667 -3.33301 61.834 -6.66602 87.501 -9.99902s44.167 -12.333 55.5 -27c6.66699 -11.333 10 -22 10 -32
c0 -26 -2.16699 -56.833 -6.5 -92.5s-9.5 -73.167 -15.5 -112.5c21.333 10.667 43.666 16.834 66.999 18.501s45.333 0.5 66 -3.5s38.667 -9.66699 54 -17s25.333 -14.666 30 -21.999c7.33301 -10.667 14.666 -27.167 21.999 -49.5s9 -49.166 5 -80.499zM204.005 157.995
l-1.00195 -0.999023c0 -5.33301 0.166992 -9.33301 0.5 -12s2.16602 -4.33398 5.49902 -5.00098c10 -2 19.167 -0.666992 27.5 4s15.833 11.167 22.5 19.5s12 17.5 16 27.5s6.66699 19.667 8 29c0.666992 10.667 3.33398 23 8.00098 37
c1.33301 18.667 -0.5 34.834 -5.5 48.501s-10.833 20.167 -17.5 19.5c-17.333 -1.33301 -30.166 -5.33301 -38.499 -12s-12.5 -14.334 -12.5 -23.001c-1.33301 -4.66699 -2.66602 -13.167 -3.99902 -25.5s-2.5 -25.5 -3.5 -39.5s-2 -27.333 -3 -40
s-1.83301 -21.667 -2.5 -27z" />
    <glyph glyph-name="c" unicode="c" horiz-adv-x="454" 
d="M230 339c-4 0 -7.33594 -1.99902 -10.0029 -5.99902c-3.33301 -2.66699 -8 -14.834 -14 -36.501s-8.66699 -51.5 -8 -89.5c0.666992 -20 3.83398 -35.667 9.50098 -47s11.167 -17.333 16.5 -18c1.33301 0 6.5 -0.5 15.5 -1.5s20.167 2.83301 33.5 11.5
c1.33301 0.666992 4.16602 2.33398 8.49902 5.00098s9.33301 5.83398 15 9.50098s11.667 7.66699 18 12s11.5 8.16602 15.5 11.499c11.333 4 21.5 5.5 30.5 4.5s18.5 -8.16699 28.5 -21.5c3.33301 -8.66699 6.5 -16.667 9.5 -24s6.16699 -15.333 9.5 -24
c2 -9.33301 2.66699 -18.5 2 -27.5s-4 -17.167 -10 -24.5c-7.33301 -7.33301 -16 -15 -26 -23s-21.167 -15.5 -33.5 -22.5s-26.333 -13 -42 -18s-33.167 -8.16699 -52.5 -9.5c-18 -1.33301 -35 -0.5 -51 2.5s-30.5 6.5 -43.5 10.5s-24.167 8.16699 -33.5 12.5
s-16.666 7.83301 -21.999 10.5c-5.33301 3.33301 -12.833 9.16602 -22.5 17.499s-19.167 19.5 -28.5 33.5s-17.5 30.667 -24.5 50s-10.5 41.333 -10.5 66c0 40.667 5.66699 77.5 17 110.5s26.333 61.5 45 85.5s40.334 42.833 65.001 56.5s50.334 21.167 77.001 22.5
c33.333 2 60.666 1.66699 81.999 -1s42.666 -6.66699 63.999 -12c5.33301 -2.66699 12.833 -6 22.5 -10s18.334 -10.5 26.001 -19.5s12.5 -21.167 14.5 -36.5s-1.66699 -35.333 -11 -60c-5.33301 -19.333 -11.166 -34 -17.499 -44s-13.5 -21.667 -21.5 -35
c-7.33301 -6 -14.5 -10.5 -21.5 -13.5s-13.167 -4.83301 -18.5 -5.5c-19.333 1.33301 -34.833 4 -46.5 8s-22.167 10 -31.5 18c-2.66699 1.33301 -4.66699 5 -6 11s0.666992 16.667 6 32c0 10 -0.833008 17.167 -2.5 21.5s-3.66699 7 -6 8s-5 1.16699 -8 0.5
s-5.83301 -1 -8.5 -1z" />
    <glyph glyph-name="d" unicode="d" horiz-adv-x="489" 
d="M11 192c0 52.667 7.49707 96.8281 22.4971 132.495s32.333 64.334 52 86.001s39 37.167 58 46.5s32.167 13.666 39.5 12.999c12 -1.33301 23.167 -2.83301 33.5 -4.5s19.166 -3.16699 26.499 -4.5v1c3.33301 40.667 8.16602 80.5 14.499 119.5s12.833 73.167 19.5 102.5
c3.33301 14 10 26.167 20 36.5s18.667 14.833 26 13.5c32.667 -3.33301 61.834 -10.5 87.501 -21.5s44.167 -23.833 55.5 -38.5c3.33301 -5.33301 6.66602 -11.833 9.99902 -19.5s3.66602 -17.167 0.999023 -28.5c-6 -27.333 -11.833 -59.333 -17.5 -96
s-11.167 -75.167 -16.5 -115.5s-10.166 -80.666 -14.499 -120.999s-7.66602 -77.666 -9.99902 -111.999s-3.66602 -64.5 -3.99902 -90.5s0.833984 -44.333 3.50098 -55c1.33301 -5.33301 0.5 -10 -2.5 -14s-7 -7.16699 -12 -9.5s-10.5 -4.16602 -16.5 -5.49902
s-11.333 -2 -16 -2c-8 0 -16.5 2 -25.5 6s-17.833 8.66699 -26.5 14s-17 11.333 -25 18s-15 12.334 -21 17.001c-2.66699 2 -6.33398 8 -11.001 18c-8 14.667 -13.167 26.667 -15.5 36s-4.16602 16.333 -5.49902 21c-0.666992 2 -2.5 1 -5.5 -3s-6.66699 -9 -11 -15
s-8.66602 -12.333 -12.999 -19s-8.16602 -12 -11.499 -16c-15.333 -17.333 -28.666 -32.666 -39.999 -45.999s-22.666 -20.333 -33.999 -21h-2l-10 3c-13.333 5.33301 -28.5 14 -45.5 26s-29.167 25 -36.5 39c-0.666992 2 -2.5 6.16699 -5.5 12.5s-5.83301 14.333 -8.5 24
s-4.83398 20.667 -6.50098 33s-1.83398 25.5 -0.500977 39.5zM230.997 234.994l3.99902 112.998c-12 -3.33301 -23 -9.83301 -33 -19.5s-18.5 -20.334 -25.5 -32.001s-12.333 -23.167 -16 -34.5s-5.16699 -20.666 -4.5 -27.999c0 -12.667 1.66699 -21.834 5 -27.501
s7.33301 -9 12 -10s9.83398 -0.166992 15.501 2.5s10.834 6.33398 15.501 11.001c5.33301 4.66699 10.166 8.83398 14.499 12.501s8.5 7.83398 12.5 12.501z" />
    <glyph glyph-name="e" unicode="e" horiz-adv-x="450" 
d="M375 251c-14.667 -16 -30.9961 -27.165 -48.9961 -33.498s-35.167 -9.83301 -51.5 -10.5s-30.833 0.5 -43.5 3.5s-20.667 6.16699 -24 9.5v-12c0.666992 -20 4.66699 -36.5 12 -49.5s13.666 -19.833 18.999 -20.5c1.33301 0 5.83301 -0.5 13.5 -1.5
s18.167 2.83301 31.5 11.5c1.33301 0.666992 4 2.5 8 5.5l14 10.5c5.33301 4 10.833 7.83301 16.5 11.5s10.5 6.16699 14.5 7.5c11.333 4 21.5 5.5 30.5 4.5s18.5 -8.16699 28.5 -21.5c3.33301 -8.66699 6.66602 -17.167 9.99902 -25.5s6.66602 -16.833 9.99902 -25.5
c2 -9.33301 2.16699 -18.5 0.5 -27.5s-5.5 -17.167 -11.5 -24.5c-14.667 -19.333 -35 -35.333 -61 -48s-58.333 -20 -97 -22c-36 -2 -67 1.16699 -93 9.5s-44.333 16.166 -55 23.499c-5.33301 3.33301 -12.833 9.66602 -22.5 18.999s-19.334 21.666 -29.001 36.999
s-18.167 33.333 -25.5 54s-11 43.334 -11 68.001c0 40.667 6.66699 77.5 20 110.5s30.333 61.333 51 85s43.667 42.334 69 56.001s50 21.167 74 22.5c16.667 1.33301 31 1.83301 43 1.5s22.833 -1.16602 32.5 -2.49902s19 -3 28 -5s18.833 -4.33301 29.5 -7
c5.33301 -2.66699 12.5 -6.16699 21.5 -10.5s17.167 -11.333 24.5 -21s12.5 -22.834 15.5 -39.501s0.833008 -38.334 -6.5 -65.001c-5.33301 -19.333 -10.833 -33.833 -16.5 -43.5s-12.5 -21.167 -20.5 -34.5zM237.004 335.002
c-9.33301 -2 -16.168 -9.83398 -20.501 -23.501s-7.16602 -28.5 -8.49902 -44.5c16 -2.66699 27.833 -1.66699 35.5 3s14.167 14.667 19.5 30c2 19.333 -0.166992 30.333 -6.5 33s-12.833 3.33398 -19.5 2.00098z" />
    <glyph glyph-name="f" unicode="f" horiz-adv-x="359" 
d="M307 455c8.66699 2 17.0029 -1.6709 25.0029 -11.0039c2 -2 4.66699 -6.5 8 -13.5s6.5 -15 9.5 -24s5.66699 -18.167 8 -27.5s3.5 -17.666 3.5 -24.999c0 -16 -6.33301 -24.667 -19 -26c-11.333 -0.666992 -25.666 -1.83398 -42.999 -3.50098s-36 -3.5 -56 -5.5
c-4.66699 -42 -8.83398 -86.833 -12.501 -134.5s-6.83398 -99.5 -9.50098 -155.5c-0.666992 -14 -8.66699 -21 -24 -21c-32.667 0 -59 7.83301 -79 23.5s-35.667 33.5 -47 53.5c-3.33301 2 -5.83301 6.5 -7.5 13.5s-2.5 14.167 -2.5 21.5c0 28 1 57 3 87
s4.66699 60.333 8 91c-4 -0.666992 -7.83301 -1.16699 -11.5 -1.5s-6.83398 -0.5 -9.50098 -0.5c-12.667 -1.33301 -22.667 0.666992 -30 6s-12.333 10.333 -15 15c-8.66699 14.667 -15.167 29.5 -19.5 44.5s-6.5 27.833 -6.5 38.5c0 8.66699 2.66699 15.834 8 21.501
s9.66602 8.5 12.999 8.5c11.333 -0.666992 24.5 -0.333984 39.5 0.999023s31.5 3 49.5 5c4.66699 30 9.16699 56.5 13.5 79.5s8.16602 40.167 11.499 51.5v2c5.33301 19.333 13.833 38.833 25.5 58.5s27.334 37.5 47.001 53.5s44 29 73 39s62.833 15 101.5 15
c10 0 17.333 -1.66699 22 -5s9.66699 -9.66602 15 -18.999c8.66699 -16 13.334 -32.167 14.001 -48.5s2.66699 -32.5 6 -48.5c0 -14 -3.16699 -24 -9.5 -30s-14 -10 -23 -12s-18.667 -2.66699 -29 -2s-19.833 0.333984 -28.5 -0.999023c-18 -2 -31.167 -8 -39.5 -18
s-14.5 -24.667 -18.5 -44l-6 -31c0 -1.33301 -0.166992 -2.66602 -0.5 -3.99902s-0.5 -2.66602 -0.5 -3.99902v-3h-1c0 -1.33301 -0.166992 -3 -0.5 -5s-0.5 -4 -0.5 -6c9.33301 0.666992 17.666 1 24.999 1h20z" />
    <glyph glyph-name="g" unicode="g" horiz-adv-x="502" 
d="M12 214c3.33301 47.333 12.999 86.4961 28.999 117.496s33.833 55.833 53.5 74.5s38.667 32.167 57 40.5s31.166 13.5 38.499 15.5c8.66699 2.66699 19.5 4.33398 32.5 5.00098s25.833 0.666992 38.5 0s23.834 -1.5 33.501 -2.5s15.5 -2.16699 17.5 -3.5
c10.667 -1.33301 22.334 -4.33301 35.001 -9s25 -10 37 -16s23.167 -12.167 33.5 -18.5s18.5 -11.5 24.5 -15.5c3.33301 -2.66699 6.83301 -7.16699 10.5 -13.5s7 -13.166 10 -20.499s5.33301 -14.666 7 -21.999s2.16699 -13 1.5 -17
c1.33301 -43.333 0.166016 -85.333 -3.50098 -126s-8.5 -78.5 -14.5 -113.5s-12.333 -66.5 -19 -94.5s-12.667 -51 -18 -69c-1.33301 -2.66699 -2 -4.66699 -2 -6c-6.66699 -23.333 -14.667 -43.833 -24 -61.5s-18.666 -32.834 -27.999 -45.501s-18 -23 -26 -31
s-14.667 -13.333 -20 -16c-10.667 -5.33301 -28.5 -12 -53.5 -20s-55.5 -11 -91.5 -9c-19.333 0.666992 -36.5 3.5 -51.5 8.5s-28.333 10.833 -40 17.5s-22.167 14 -31.5 22s-17.666 15.667 -24.999 23c-2.66699 4 -5.5 9.66699 -8.5 17s-5.66699 15 -8 23
s-3.83301 15.833 -4.5 23.5s-0.666992 13.834 0 18.501c-2 8.66699 -2.5 18.334 -1.5 29.001s3.16699 20.334 6.5 29.001c5.33301 6.66699 10.666 11 15.999 13s10.666 2.66699 15.999 2s10.666 -2.33398 15.999 -5.00098s11 -5 17 -7
c5.33301 -3.33301 11.5 -6.83301 18.5 -10.5s14 -6.83398 21 -9.50098s13.167 -5 18.5 -7s8.33301 -3.33301 9 -4c6.66699 -4 13.334 -6.16699 20.001 -6.5s12.834 0.166992 18.501 1.5s10.334 2.83301 14.001 4.5s5.83398 2.5 6.50098 2.5c2 0 5.66699 3 11 9
s10.666 13.5 15.999 22.5s10.5 18.667 15.5 29s8.5 20.5 10.5 30.5v1c1.33301 9.33301 2.33301 17.166 3 23.499s1.5 12.833 2.5 19.5s2.33301 14.167 4 22.5s3.5 19.166 5.5 32.499c0.666992 10 -0.166016 14.833 -2.49902 14.5s-5 -2.5 -8 -6.5s-6 -8.66699 -9 -14
s-4.83301 -8.66602 -5.5 -9.99902c-6.66699 -9.33301 -14.334 -20 -23.001 -32s-17.834 -23 -27.501 -33s-19 -18.167 -28 -24.5s-17.167 -8.5 -24.5 -6.5c-8.66699 0.666992 -18.667 3.16699 -30 7.5s-22.333 10 -33 17s-20.334 15 -29.001 24s-14.667 18.167 -18 27.5
c-0.666992 2 -2.16699 7.33301 -4.5 16s-4.66602 19.334 -6.99902 32.001s-4 26.834 -5 42.501s-0.833008 31.5 0.5 47.5zM298.999 317.996c0 8.66699 -2.33105 14.001 -6.99805 16.001c-8 2 -16.333 0.666992 -25 -4s-17.167 -11.5 -25.5 -20.5
s-15.833 -19.833 -22.5 -32.5s-11.667 -26.334 -15 -41.001l-5 -18c-2.66699 -14.667 -3.16699 -24.5 -1.5 -29.5s5.16699 -7.83301 10.5 -8.5c4.66699 -0.666992 10.167 1.5 16.5 6.5s12.666 11 18.999 18s12.333 14.5 18 22.5s10.167 15 13.5 21
c3.33301 6.66699 7.16602 15.5 11.499 26.5s7.83301 21.5 10.5 31.5c0 2.66699 0.666992 6.66699 2 12z" />
    <glyph glyph-name="h" unicode="h" horiz-adv-x="521" 
d="M490 371c-1.33301 -28.667 -3.16992 -54.6689 -5.50293 -78.002s-4.5 -47.5 -6.5 -72.5s-3.83301 -53 -5.5 -84s-3.16699 -68.167 -4.5 -111.5c0 -14 -8 -21 -24 -21c-33.333 0 -63.833 6.5 -91.5 19.5s-47.167 27.167 -58.5 42.5c-6.66699 8.66699 -10 19.667 -10 33
c0.666992 18 1.5 37 2.5 57s2.5 40 4.5 60c-0.666992 8 -0.5 16.5 0.5 25.5s1.83301 17.5 2.5 25.5s0.666992 14.833 0 20.5s-3 9.16699 -7 10.5c-5.33301 2 -11.833 0 -19.5 -6s-14.5 -12.333 -20.5 -19c-3.33301 -3.33301 -6.33301 -6.5 -9 -9.5s-5 -6.16699 -7 -9.5
c-4 -44 -7.5 -85.833 -10.5 -125.5s-5.16699 -74.5 -6.5 -104.5c-0.666992 -14 -8.33398 -21 -23.001 -21c-34 0 -64.667 6.66699 -92 20s-47 27.666 -59 42.999c-6.66699 8.66699 -10 19.667 -10 33c0 21.333 1.33301 49.666 4 84.999s6.33398 73.833 11.001 115.5
s9.66699 84.334 15 128.001s10.666 84.334 15.999 122.001s10.166 70.334 14.499 98.001s7.83301 46.167 10.5 55.5c1.33301 4.66699 3.83301 9 7.5 13s9.5 6 17.5 6c8.66699 0 19.167 -0.833008 31.5 -2.5s25 -3.66699 38 -6s25.167 -5 36.5 -8s20.333 -5.83301 27 -8.5
c8 -3.33301 13.833 -7.16602 17.5 -11.499s4.83398 -10.5 3.50098 -18.5c-2.66699 -14 -5.33398 -31 -8.00098 -51s-5.5 -42.333 -8.5 -67s-6.16699 -51 -9.5 -79s-6.66602 -56.667 -9.99902 -86c0.666992 -1.33301 0.833984 -2.16602 0.500977 -2.49902
s-0.5 -1.16602 -0.5 -2.49902l-1 -2c0 -2.66699 -0.166992 -5.33398 -0.5 -8.00098s-0.5 -5.33398 -0.5 -8.00098c0.666992 -2 1.83398 -2.33301 3.50098 -1s3.66699 3.16602 6 5.49902s4.5 5 6.5 8s3.33301 4.83301 4 5.5c14.667 15.333 28.334 30.833 41.001 46.5
s24.334 25.5 35.001 29.5c2 1.33301 5 2 9 2c8.66699 -2 18.667 -5 30 -9s22.833 -8.5 34.5 -13.5s22.667 -10 33 -15s18.833 -10.167 25.5 -15.5s12 -10.166 16 -14.499s5.33301 -10.5 4 -18.5z" />
    <glyph glyph-name="i" unicode="i" horiz-adv-x="293" 
d="M250 382c-2.66699 -16 -6.50098 -35.6699 -11.501 -59.0029s-9.66699 -50.166 -14 -80.499s-8.16602 -64.166 -11.499 -101.499s-5 -78.333 -5 -123c0 -14 -7.33301 -21 -22 -21c-16 0 -32.167 2.33301 -48.5 7s-31.5 10.5 -45.5 17.5s-26.333 14.667 -37 23
s-19 16.166 -25 23.499c-6.66699 11.333 -10 22 -10 32c1.33301 82.667 6.16602 152.667 14.499 210s14.833 100.333 19.5 129c1.33301 9.33301 8 16.5 20 21.5s22 7.5 30 7.5s17.5 -1.66699 28.5 -5s22 -7.16602 33 -11.499s21.5 -8.66602 31.5 -12.999s18 -7.5 24 -9.5
c7.33301 -3.33301 14.333 -10 21 -20s9.33398 -19 8.00098 -27zM271.999 651.997c-2 -19.333 -4.17188 -36.501 -6.50488 -51.501s-6.16602 -31.5 -11.499 -49.5c-2 -7.33301 -4.5 -12.833 -7.5 -16.5s-8.5 -5.5 -16.5 -5.5c-35.333 0 -64.833 5.16699 -88.5 15.5
s-42.167 23.5 -55.5 39.5c-6.66699 9.33301 -10 21 -10 35c0 38 8.33301 70.667 25 98c2.66699 4.66699 5.33398 9.16699 8.00098 13.5s8.33398 6.5 17.001 6.5c18 0 37.5 -2.5 58.5 -7.5s40.833 -13.5 59.5 -25.5c6.66699 -5.33301 13.334 -13.166 20.001 -23.499
s9.33398 -19.833 8.00098 -28.5z" />
    <glyph glyph-name="j" unicode="j" horiz-adv-x="304" 
d="M1 -68c0 2 1.3291 8.16992 3.99609 18.5029s5.5 23 8.5 38s6.16699 31.5 9.5 49.5s6 35 8 51c-1.33301 3.33301 -1.33301 7 0 11l2 14c0 1.33301 0.166992 2.33301 0.5 3s0.5 1.66699 0.5 3v-1c13.333 75.333 22.333 138.833 27 190.5s9.33398 91.5 14.001 119.5
c1.33301 9.33301 8 16.5 20 21.5s22 7.5 30 7.5s16.833 -1.66699 26.5 -5s19.5 -7.16602 29.5 -11.499s19.5 -8.66602 28.5 -12.999s16.5 -7.5 22.5 -9.5c7.33301 -3.33301 14.333 -10 21 -20s9.33398 -19 8.00098 -27c-6 -32.667 -14.833 -77.5 -26.5 -134.5
s-20.167 -130.167 -25.5 -219.5l-2 -11c-3.33301 -44 -11.166 -83.833 -23.499 -119.5s-28 -66 -47 -91s-41 -44.333 -66 -58s-51.5 -20.5 -79.5 -20.5c-36 0 -66.5 3.16699 -91.5 9.5s-41.5 13.5 -49.5 21.5c-10 10 -18.833 20.333 -26.5 31s-14.667 22.5 -21 35.5
s-12.166 27.667 -17.499 44s-10 35.5 -14 57.5c-0.666992 2.66699 0.333008 5.66699 3 9s6 6.16602 10 8.49902s8.33301 3.66602 13 3.99902s8.66699 -0.833984 12 -3.50098c6 -2.66699 14 -7.83398 24 -15.501s18 -12.834 24 -15.501c18.667 -8 32 -13.167 40 -15.5
s14.667 -3.83301 20 -4.5c12.667 -1.33301 23.834 -0.5 33.501 2.5s18 7 25 12s12.667 10.5 17 16.5s7.16602 11.667 8.49902 17zM282.996 652.003c-2 -19.333 -4.17188 -36.501 -6.50488 -51.501s-6.16602 -31.5 -11.499 -49.5c-2 -7.33301 -4.5 -12.833 -7.5 -16.5
s-8.5 -5.5 -16.5 -5.5c-35.333 0 -64.833 5.16699 -88.5 15.5s-42.167 23.5 -55.5 39.5c-6.66699 9.33301 -10 21 -10 35c0 38 8.33301 70.667 25 98c2.66699 4.66699 5.33398 9.16699 8.00098 13.5s8.33398 6.5 17.001 6.5c18 0 37.5 -2.5 58.5 -7.5
s40.833 -13.5 59.5 -25.5c6.66699 -5.33301 13.334 -13.166 20.001 -23.499s9.33398 -19.833 8.00098 -28.5z" />
    <glyph glyph-name="k" unicode="k" horiz-adv-x="555" 
d="M309 657c-2.66699 -16.667 -6.33008 -37.1689 -10.9971 -61.502s-9.66699 -51.666 -15 -81.999s-10.833 -62.833 -16.5 -97.5s-11.167 -70.334 -16.5 -107.001l31 -3c7.33301 14 15.166 28.333 23.499 43s16.5 28.667 24.5 42s15.667 25.5 23 36.5
s13.666 19.833 18.999 26.5c3.33301 4 9.16602 7.33301 17.499 10s15.166 3 20.499 1c6.66699 -2 14.5 -5.5 23.5 -10.5s18.167 -10.5 27.5 -16.5s18.333 -12 27 -18s15.334 -11 20.001 -15c5.33301 -3.33301 10.166 -9.5 14.499 -18.5s4.83301 -16.167 1.5 -21.5
c-13.333 -20 -30.333 -40.333 -51 -61s-40.667 -40.334 -60 -59.001c8 -12.667 16.833 -25.5 26.5 -38.5s19.334 -25.5 29.001 -37.5s18.667 -23.167 27 -33.5s15.166 -19.833 20.499 -28.5c8.66699 -13.333 8.33398 -25.333 -0.999023 -36
c-4.66699 -5.33301 -12.167 -11.833 -22.5 -19.5s-21.333 -15 -33 -22s-23.167 -13 -34.5 -18s-21 -7.5 -29 -7.5c-7.33301 0 -15.5 5.16699 -24.5 15.5s-18.167 23.5 -27.5 39.5s-18.833 33.833 -28.5 53.5s-18.834 38.834 -27.501 57.501l-54 10
c-3.33301 -28 -6.16602 -55.667 -8.49902 -83s-4.16602 -53.666 -5.49902 -78.999c-0.666992 -7.33301 -2.66699 -13.166 -6 -17.499s-8.66602 -5.5 -15.999 -3.5c-32.667 10 -62.834 22.333 -90.501 37s-47.167 29.334 -58.5 44.001c-3.33301 5.33301 -6 8.83301 -8 10.5
s-2.66699 5.5 -2 11.5c1.33301 19.333 3 40.833 5 64.5s4.66699 48.5 8 74.5c-8 13.333 -15.167 26.833 -21.5 40.5s-9.5 24.167 -9.5 31.5c0 4 1.5 9.16699 4.5 15.5s6.16699 9.5 9.5 9.5c4 0 8.5 -0.166992 13.5 -0.5s10.167 -0.833008 15.5 -1.5
c5.33301 37.333 10.666 74.5 15.999 111.5s10.5 72 15.5 105s9.66699 62.5 14 88.5s7.83301 46.667 10.5 62c0.666992 4.66699 3 9 7 13s10 6 18 6s18.833 -1.33301 32.5 -4s27.667 -5.83398 42 -9.50098s28 -7.5 41 -11.5s22.5 -7 28.5 -9c7.33301 -3.33301 13 -7 17 -11
s5.33301 -10 4 -18z" />
    <glyph glyph-name="l" unicode="l" horiz-adv-x="312" 
d="M291 682c-4.66699 -27.333 -10.667 -66.667 -18 -118s-14.333 -108 -21 -170s-12.334 -126 -17.001 -192s-7 -127.333 -7 -184c0 -14 -7.33301 -21 -22 -21c-16 0 -32.667 1.83301 -50 5.5s-33.666 8.33398 -48.999 14.001s-28.833 12.167 -40.5 19.5
s-20.5 14.666 -26.5 21.999c-6.66699 11.333 -10 22 -10 32c0 27.333 1.33301 60.333 4 99s6 79.667 10 123s8.66699 87 14 131s10.333 84.667 15 122s9.16699 69.5 13.5 96.5s7.83301 45.167 10.5 54.5c1.33301 4.66699 3.83301 9 7.5 13s9.5 6 17.5 6
s19 -0.833008 33 -2.5s28.5 -3.66699 43.5 -6s29.167 -5 42.5 -8s23 -5.5 29 -7.5c7.33301 -3.33301 13 -7 17 -11s5.33301 -10 4 -18z" />
    <glyph glyph-name="m" unicode="m" horiz-adv-x="726" 
d="M448 207c-1.33301 -22.667 -2.33203 -47.6729 -2.99902 -75.0059s-1.66699 -61 -3 -101c0 -7.33301 -2 -14 -6 -20s-10 -9 -18 -9c-16.667 0 -33 2 -49 6s-31 9 -45 15s-26.333 12.833 -37 20.5s-19 15.167 -25 22.5c-6.66699 8.66699 -10 19.667 -10 33
c0.666992 24.667 1.83398 50.667 3.50098 78s4.16699 54.333 7.5 81c0 9.33301 -0.666992 17.333 -2 24s-4.66602 10.334 -9.99902 11.001s-9.5 0 -12.5 -2s-7.5 -6.33301 -13.5 -13c-4.66699 -5.33301 -8 -14.333 -10 -27
c-3.33301 -30.667 -6.16602 -63.834 -8.49902 -99.501s-4.5 -77.5 -6.5 -125.5c-0.666992 -14 -8.33398 -21 -23.001 -21c-16.667 0 -32.667 2.16699 -48 6.5s-29.333 9.66602 -42 15.999s-23.834 13.5 -33.501 21.5s-17.5 15.667 -23.5 23
c-6.66699 8.66699 -10 19.667 -10 33c0 32 1 64.333 3 97s4.5 63.834 7.5 93.501s6.33301 56.5 10 80.5s7.5 43 11.5 57c1.33301 4.66699 6 10.667 14 18s16 11 24 11c8.66699 0 18.334 -1.16699 29.001 -3.5s21.167 -5.16602 31.5 -8.49902s20.333 -6.66602 30 -9.99902
s17.834 -6.33301 24.501 -9c15.333 -6 22.666 -18.667 21.999 -38v-1c0 -7.33301 0.666992 -11.666 2 -12.999s2.83301 -1 4.5 1s3.5 4.66699 5.5 8s3.33301 5.33301 4 6c17.333 18.667 33.333 33.167 48 43.5s27.667 13.833 39 10.5
c17.333 -5.33301 36.333 -12.666 57 -21.999s37.334 -18.666 50.001 -27.999l2 -2c1.33301 -1.33301 2.33301 -2 3 -2c7.33301 -4 12.333 -6 15 -6s4.66699 0.666992 6 2c15.333 16.667 30.666 30.5 45.999 41.5s29 16.833 41 17.5h6c8.66699 -2 18.5 -5 29.5 -9
s22 -8.16699 33 -12.5s21.5 -9 31.5 -14s18.333 -10.167 25 -15.5s12 -11.833 16 -19.5s5.33301 -15.5 4 -23.5c-1.33301 -28.667 -2.83301 -54 -4.5 -76s-3.33398 -44.5 -5.00098 -67.5s-3.66699 -48.5 -6 -76.5s-4.83301 -62.667 -7.5 -104
c-0.666992 -7.33301 -2.83398 -14.333 -6.50098 -21s-9.5 -9.33398 -17.5 -8.00098c-33.333 4 -64 11.167 -92 21.5s-47.667 20.5 -59 30.5c-4.66699 3.33301 -7.5 8 -8.5 14s-1.5 12.333 -1.5 19l3 124v5c0 2 0.166992 5.33301 0.5 10s0.666016 11 0.999023 19
s0.833008 18.667 1.5 32c-1.33301 10 -4 15.333 -8 16c-5.33301 0.666992 -9.5 -0.166016 -12.5 -2.49902s-7.5 -6.83301 -13.5 -13.5c-4.66699 -5.33301 -7.5 -13.166 -8.5 -23.499s-1.83301 -25.833 -2.5 -46.5z" />
    <glyph glyph-name="n" unicode="n" horiz-adv-x="507" 
d="M476 365c-1.33301 -28.667 -3 -54.334 -5 -77.001s-4 -46.167 -6 -70.5s-3.83301 -51.666 -5.5 -81.999s-3.16699 -67.166 -4.5 -110.499c0 -14 -8 -21 -24 -21c-33.333 0 -63.833 6.5 -91.5 19.5s-47.167 27.167 -58.5 42.5c-6.66699 8.66699 -10 19.667 -10 33
c0.666992 18 1.5 36.833 2.5 56.5s2.16699 39.167 3.5 58.5c0 8 0.333008 16.333 1 25s1.16699 16.834 1.5 24.501s0 14.167 -1 19.5s-3.5 8.66602 -7.5 9.99902c-5.33301 2 -11.833 0 -19.5 -6s-14.5 -12.333 -20.5 -19l-17 -20c-2 -30.667 -3.66699 -63.834 -5 -99.501
s-3 -77.167 -5 -124.5c-0.666992 -14 -8.33398 -21 -23.001 -21c-34 0 -64.667 6.66699 -92 20s-47 27.666 -59 42.999c-6.66699 8.66699 -10 19.667 -10 33c0 32 1 64.667 3 98s4.66699 65.166 8 95.499s6.83301 57.833 10.5 82.5s7.5 44 11.5 58
c1.33301 4.66699 3.83301 9 7.5 13s9.5 6 17.5 6c8.66699 0 19.167 -0.833008 31.5 -2.5s25 -3.66699 38 -6s25.167 -5 36.5 -8s20.333 -5.83301 27 -8.5c8 -3.33301 13.833 -7.16602 17.5 -11.499s4.83398 -10.5 3.50098 -18.5l-7 -40v-1c0.666992 -2 2 -2.33301 4 -1
s4.16699 3.16602 6.5 5.49902s4.5 5 6.5 8s3.33301 4.83301 4 5.5c9.33301 10 18.166 20.167 26.499 30.5s16.333 19.333 24 27s14.834 13.334 21.501 17.001s13 4.16699 19 1.5c8.66699 -2.66699 18.667 -6 30 -10s22.5 -8.33301 33.5 -13s21.5 -9.5 31.5 -14.5
s18 -9.83301 24 -14.5c6.66699 -5.33301 12 -10.166 16 -14.499s5.33301 -10.5 4 -18.5z" />
    <glyph glyph-name="o" unicode="o" horiz-adv-x="465" 
d="M197 454c36 0 67.667 -3.49902 95 -10.499s45.666 -13.5 54.999 -19.5c5.33301 -2.66699 13 -7.83398 23 -15.501s19.833 -18 29.5 -31s18 -29 25 -48s10.5 -41.167 10.5 -66.5c0 -36 -4.83301 -70.167 -14.5 -102.5s-22.834 -61 -39.501 -86s-36.5 -44.833 -59.5 -59.5
s-48.167 -22 -75.5 -22c-36 0 -67.5 3.33301 -94.5 10s-45.833 12.667 -56.5 18c-5.33301 3.33301 -12.666 8.83301 -21.999 16.5s-18.666 18.167 -27.999 31.5s-17.5 29.5 -24.5 48.5s-10.5 40.833 -10.5 65.5c0 35.333 4.66699 69.333 14 102s22.333 61.5 39 86.5
s36.5 45 59.5 60s47.833 22.5 74.5 22.5zM227 323.001c-4 0 -7.33203 -2.00195 -9.99902 -6.00195c-2 -1.33301 -4.33301 -6.16602 -7 -14.499s-5.16699 -19.166 -7.5 -32.499s-4.5 -28.333 -6.5 -45s-3 -34 -3 -52c0 -20 2.16699 -33 6.5 -39s9.16602 -9.33301 14.499 -10
c3.33301 0 7 2 11 6c2 2 4.33301 7.16699 7 15.5s5.16699 19 7.5 32s4.5 28 6.5 45s3 34.5 3 52.5c0 20 -2.33301 33 -7 39s-9.66699 9 -15 9z" />
    <glyph glyph-name="p" unicode="p" horiz-adv-x="514" 
d="M482 265c0 -36.667 -4.49316 -68.1641 -13.4932 -94.4971s-20.333 -48.5 -34 -66.5s-28.834 -32.333 -45.501 -43s-32.834 -18.834 -48.501 -24.501s-29.5 -9.16699 -41.5 -10.5s-20.667 -2 -26 -2c-16.667 1.33301 -29.834 6.83301 -39.501 16.5
s-16.167 16.5 -19.5 20.5c-2.66699 -51.333 -4.83398 -101.333 -6.50098 -150s-2.5 -91.334 -2.5 -128.001c0 -7.33301 -1.83301 -13 -5.5 -17s-9.16699 -5.33301 -16.5 -4c-32.667 3.33301 -63.5 10.666 -92.5 21.999s-49.167 24.333 -60.5 39
c-6.66699 11.333 -10 22 -10 32c0 27.333 0.833008 59.333 2.5 96s3.83398 75.167 6.50098 115.5s5.66699 80.833 9 121.5s6.66602 78.167 9.99902 112.5s6.66602 64 9.99902 89s6.33301 42.167 9 51.5c1.33301 4.66699 3.83301 9 7.5 13s9.5 6 17.5 6s18 -0.333008 30 -1
s24.167 -1.5 36.5 -2.5s24.166 -2.5 35.499 -4.5s20 -4 26 -6c7.33301 -3.33301 13 -7 17 -11s5.33301 -10 4 -18c-1.33301 -5.33301 -2.5 -13.333 -3.5 -24s-2.16699 -23.667 -3.5 -39c1.33301 -1.33301 3.33301 -1 6 1s5.5 4.83301 8.5 8.5s5.83301 7.16699 8.5 10.5
s4.33398 5.33301 5.00098 6c8 10 15.333 19.667 22 29s13.167 17.5 19.5 24.5s12.666 12.333 18.999 16s12.5 4.5 18.5 2.5c11.333 1.33301 23.333 0.5 36 -2.5s24.667 -7.16699 36 -12.5s21.5 -11.5 30.5 -18.5s15.5 -14.167 19.5 -21.5c1.33301 -2 3.33301 -7.5 6 -16.5
s5.16699 -19.667 7.5 -32s4.16602 -25.833 5.49902 -40.5s1.33301 -29 0 -43zM221.007 183.003l-3.00098 -56.001c12 0 23.833 4.16699 35.5 12.5s22.334 18 32.001 29s17.667 22.5 24 34.5s9.83301 22 10.5 30l3 27c0 14.667 -1.66699 25.5 -5 32.5s-7.5 11.333 -12.5 13
s-10.5 1.16699 -16.5 -1.5s-11.667 -6.33398 -17 -11.001c-13.333 -11.333 -24.333 -26.666 -33 -45.999s-14.667 -40.666 -18 -63.999z" />
    <glyph glyph-name="q" unicode="q" horiz-adv-x="478" 
d="M12 214c0 47.333 8.67188 86.5049 26.0049 117.505s37.166 55.833 59.499 74.5s44.166 32.167 65.499 40.5s35.666 13.5 42.999 15.5c9.33301 2.66699 19.833 4.16699 31.5 4.5s22.834 0.333008 33.501 0s19.834 -1.16602 27.501 -2.49902s12.167 -2.33301 13.5 -3
c8 -0.666992 17 -2.66699 27 -6s19.667 -7.33301 29 -12s18.166 -9.5 26.499 -14.5s15.5 -9.5 21.5 -13.5c3.33301 -2.66699 7 -6.83398 11 -12.501s7.5 -12 10.5 -19s5.5 -13.833 7.5 -20.5s2.66699 -12 2 -16c-2 -10 -4.66699 -26.667 -8 -50
s-6.83301 -50.833 -10.5 -82.5s-7.33398 -66.334 -11.001 -104.001s-7 -76 -10 -115s-5.33301 -77.333 -7 -115s-2.5 -72.167 -2.5 -103.5c0 -7.33301 -1.83301 -13 -5.5 -17s-9.16699 -5.33301 -16.5 -4c-16 2 -31.5 5.66699 -46.5 11s-28.667 11.666 -41 18.999
s-23.166 15.166 -32.499 23.499s-17 16.166 -23 23.499c-6.66699 11.333 -10 22 -10 32c0 30 1.16699 64.833 3.5 104.5s5.16602 81.167 8.49902 124.5c-0.666992 1.33301 -0.666992 3.33301 0 6c1.33301 11.333 1 17.333 -1 18s-4.5 -0.666016 -7.5 -3.99902
s-6.16699 -7.5 -9.5 -12.5s-5.33301 -8.16699 -6 -9.5c-8 -10.667 -15.167 -21.334 -21.5 -32.001s-12.166 -20.167 -17.499 -28.5s-10.666 -14.666 -15.999 -18.999s-11 -5.16602 -17 -2.49902c-8.66699 1.33301 -18.834 4.66602 -30.501 9.99902
s-22.834 11.666 -33.501 18.999s-20.334 15.166 -29.001 23.499s-14.667 16.166 -18 23.499c-0.666992 2 -2.33398 6.66699 -5.00098 14s-5 16.833 -7 28.5s-3.5 24.834 -4.5 39.501s-0.833008 30 0.5 46zM253.005 271.005l5.99707 53.9971c0 6 -1.66699 9.66699 -5 11
c-8 2 -16.667 0.833008 -26 -3.5s-18.166 -10.5 -26.499 -18.5s-15.666 -17.167 -21.999 -27.5s-10.166 -20.166 -11.499 -29.499c-0.666992 -5.33301 -1.16699 -10.5 -1.5 -15.5s-0.5 -10.167 -0.5 -15.5c2 -11.333 5 -19.166 9 -23.499s7.66699 -6.16602 11 -5.49902
c9.33301 2 19.833 9.5 31.5 22.5s22.167 24.5 31.5 34.5z" />
    <glyph glyph-name="r" unicode="r" horiz-adv-x="412" 
d="M240 376l-3.99902 -21.002c1.33301 0 2.83301 1.33301 4.5 4s3.5 5.5 5.5 8.5l6 9c2 3 3.33301 4.83301 4 5.5c19.333 20.667 36.333 37.334 51 50.001s28.667 19 42 19c10 0 20.667 -2.66699 32 -8s19.333 -18 24 -38l7 -89c0 -14 -3.16699 -23.5 -9.5 -28.5
s-14.166 -7.83301 -23.499 -8.5s-19.166 -0.333984 -29.499 0.999023s-19.833 1 -28.5 -1c-18.667 -4 -33.834 -9.66699 -45.501 -17s-21.334 -16.166 -29.001 -26.499s-14 -22 -19 -35s-10.5 -27.167 -16.5 -42.5c-1.33301 -17.333 -2.83301 -36 -4.5 -56
s-3.83398 -42.667 -6.50098 -68c-0.666992 -7.33301 -4 -13.5 -10 -18.5s-12.667 -7.5 -20 -7.5c-34 0 -62.833 5.83301 -86.5 17.5s-41.5 25.167 -53.5 40.5c-6.66699 8.66699 -10 19.667 -10 33c0 32 1.33301 64.5 4 97.5s6 64.5 10 94.5s8.33301 57.333 13 82s9 44 13 58
c1.33301 4.66699 3.83301 9 7.5 13s9.5 6 17.5 6c8.66699 0 19.167 -1 31.5 -3s25 -4.5 38 -7.5s25.167 -6.16699 36.5 -9.5s20.333 -6.33301 27 -9c8 -3.33301 14 -9.66602 18 -18.999s5.33301 -18 4 -26z" />
    <glyph glyph-name="s" unicode="s" horiz-adv-x="373" 
d="M149 292c-2.66699 -18.667 -0.334961 -33.3359 6.99805 -44.0029s17.166 -19.167 29.499 -25.5s26.166 -11.666 41.499 -15.999s30.166 -9.83301 44.499 -16.5s26.833 -15.667 37.5 -27s17.667 -26.666 21 -45.999c4 -24.667 1.33301 -45 -8 -61s-22.333 -28.333 -39 -37
s-36.167 -13.834 -58.5 -15.501s-44.5 -0.5 -66.5 3.5c-18.667 3.33301 -33.667 6.83301 -45 10.5s-21 7.5 -29 11.5s-15.167 8.33301 -21.5 13s-14.166 10.334 -23.499 17.001c-18 21.333 -28.667 42 -32 62s-4 34 -2 42c2 8.66699 4 13.667 6 15s9.33301 0.333008 22 -3
c4 -3.33301 10 -7 18 -11s16 -7.66699 24 -11s15.333 -6.16602 22 -8.49902s10.334 -3.83301 11.001 -4.5c2 -1.33301 6.16699 -3 12.5 -5s13 -3.5 20 -4.5s13.333 -0.833008 19 0.5s8.83398 4.66602 9.50098 9.99902c1.33301 8 -2.5 14.833 -11.5 20.5
s-20.5 11.334 -34.5 17.001s-29 12.167 -45 19.5s-30.333 16.333 -43 27s-22.334 23.834 -29.001 39.501s-7.66699 34.5 -3 56.5c3.33301 16 9.66602 32 18.999 48s20.666 30.5 33.999 43.5s28.5 24 45.5 33s34.833 13.833 53.5 14.5c16.667 1.33301 30.667 1 42 -1
s21.5 -4.66699 30.5 -8s17.5 -6.83301 25.5 -10.5s17.333 -6.83398 28 -9.50098c5.33301 -2.66699 13.166 -5.66699 23.499 -9s19.833 -8.83301 28.5 -16.5s14.834 -18.334 18.501 -32.001s1.5 -32.167 -6.5 -55.5c-3.33301 -8.66699 -6.66602 -15.834 -9.99902 -21.501
s-6.66602 -10.667 -9.99902 -15s-6.83301 -8.66602 -10.5 -12.999s-7.5 -9.83301 -11.5 -16.5c-7.33301 -6 -13.333 -11.667 -18 -17s-9.66699 -8.33301 -15 -9c-8.66699 2.66699 -17.5 6.5 -26.5 11.5s-18.167 11.5 -27.5 19.5c-2.66699 1.33301 -5 5 -7 11
s-0.333008 16.667 5 32c2.66699 11.333 0.333984 19.333 -6.99902 24s-14.666 7.33398 -21.999 8.00098c-9.33301 0.666992 -16.333 -0.666016 -21 -3.99902s-8.16699 -7.33301 -10.5 -12s-3.66602 -9.33398 -3.99902 -14.001s-0.5 -8 -0.5 -10z" />
    <glyph glyph-name="t" unicode="t" horiz-adv-x="407" 
d="M352 473c8.66699 2 17 -1.66504 25 -10.998c2 -2 4.66699 -6.5 8 -13.5s6.66602 -14.833 9.99902 -23.5s6.16602 -17.667 8.49902 -27s3.5 -17.666 3.5 -24.999c0 -18.667 -6.33301 -27.334 -19 -26.001c-11.333 0.666992 -25.833 0.666992 -43.5 0
s-36.834 -1.66699 -57.501 -3c-7.33301 -52 -14 -105.667 -20 -161s-10.667 -109 -14 -161c-0.666992 -14 -8.66699 -21 -24 -21c-16 0 -30.667 3 -44 9s-25.166 13.667 -35.499 23s-19.333 19.5 -27 30.5s-14.167 21.5 -19.5 31.5c-3.33301 2 -5.83301 6.5 -7.5 13.5
s-2.5 14.167 -2.5 21.5c0 27.333 1.33301 58.333 4 93s6 71 10 109c-5.33301 -0.666992 -10.166 -1.33398 -14.499 -2.00098s-8.16602 -1 -11.499 -1c-12.667 -1.33301 -22.667 0.666992 -30 6s-12.333 10.333 -15 15c-8.66699 14.667 -16.834 27.667 -24.501 39
s-11.5 22.333 -11.5 33c0 8.66699 2.66699 15.5 8 20.5s9.66602 7.5 12.999 7.5c11.333 -0.666992 25.833 -0.333984 43.5 0.999023s37.167 3 58.5 5c4 26 7.83301 50.667 11.5 74s7.33398 44.5 11.001 63.5s6.83398 35.5 9.50098 49.5s5 24.333 7 31
c1.33301 4.66699 3.83301 9 7.5 13s9.5 6 17.5 6s17.833 -1 29.5 -3s23.5 -4.33301 35.5 -7s23.333 -5.5 34 -8.5s19 -5.5 25 -7.5c7.33301 -3.33301 13 -7 17 -11s5.33301 -10 4 -18c-3.33301 -19.333 -7.33301 -43 -12 -71s-9.66699 -59.667 -15 -95
c9.33301 0.666992 18 1 26 1h21z" />
    <glyph glyph-name="u" unicode="u" 
d="M21 97c1.33301 28.667 3.16895 52.4941 5.50195 71.4941s4.66602 38.5 6.99902 58.5s4.5 43.167 6.5 69.5s3.33301 61.166 4 104.499c0 3.33301 1 8 3 14s4.66699 11.833 8 17.5s7 10.5 11 14.5s8 6 12 6c33.333 0 63.166 -2 89.499 -6s45.166 -13.667 56.499 -29
c6.66699 -8.66699 10 -19.667 10 -33c-0.666992 -15.333 -2.66699 -32.333 -6 -51l-10 -56l1 1l-4 -26c-0.666992 -2 -1 -5.33301 -1 -10l-3 -37c1.33301 -6 3.66602 -9.33301 6.99902 -10c5.33301 -2 11.833 0.333008 19.5 7s14.5 13.334 20.5 20.001
c3.33301 4.66699 6.66602 8.83398 9.99902 12.501s6.66602 7.5 9.99902 11.5v3c3.33301 24 7.33301 50.333 12 79s7.66699 60 9 94c1.33301 14 9 21 23 21c16.667 0 32.5 0.166992 47.5 0.5s28.833 0 41.5 -1s23.834 -3.16699 33.501 -6.5s17.5 -8.66602 23.5 -15.999
c7.33301 -10 10.666 -21 9.99902 -33c-1.33301 -31.333 -3.5 -64.166 -6.5 -98.499s-6 -67.166 -9 -98.499s-5.66699 -60 -8 -86s-3.5 -46.333 -3.5 -61c0 -9.33301 -2.83301 -18.166 -8.5 -26.499s-12.5 -12.5 -20.5 -12.5c-17.333 0 -33.833 2.83301 -49.5 8.5
s-30.167 11.167 -43.5 16.5c-8 3.33301 -15 11 -21 23s-9.33301 22 -10 30l-3 29v4l-3 13c-1.33301 3.33301 -3 4.83301 -5 4.5s-3.83301 -1.66602 -5.5 -3.99902s-3.33398 -4.83301 -5.00098 -7.5s-2.5 -4.33398 -2.5 -5.00098c-8 -16 -18.667 -32.333 -32 -49
s-23.666 -30 -30.999 -40c-6.66699 -9.33301 -13.167 -15.166 -19.5 -17.499s-13.166 -2.83301 -20.499 -1.5h-2c-10 2 -21.167 5 -33.5 9s-24.666 8.5 -36.999 13.5s-23.666 10.333 -33.999 16s-18.166 11.167 -23.499 16.5c-6 6 -11.167 11 -15.5 15s-5.83301 10 -4.5 18z
" />
    <glyph glyph-name="v" unicode="v" horiz-adv-x="462" 
d="M233 6l-91.9932 22.9932c-20.667 6 -33.334 11.667 -38.001 17c-6 4 -11.167 8.66699 -15.5 14s-7.16602 12 -8.49902 20c-2.66699 16.667 -7 36.334 -13 59.001s-12.333 46.834 -19 72.501s-13.5 51.834 -20.5 78.501s-12.833 52.334 -17.5 77.001
c-0.666992 4.66699 -1.83398 11 -3.50098 19s-3 16.333 -4 25s-1.33301 16.834 -1 24.501s2.16602 13.5 5.49902 17.5c6 6.66699 14 10.5 24 11.5s20.667 0.166992 32 -2.5s22.5 -6.16699 33.5 -10.5s19.833 -8.16602 26.5 -11.499
c2.66699 -1.33301 6.66699 -3.83301 12 -7.5s10.5 -7.83398 15.5 -12.501s9.66699 -9.66699 14 -15s6.83301 -11 7.5 -17c5.33301 -34 10.166 -68.333 14.499 -103s11.166 -70.667 20.499 -108c21.333 62 40.333 116.5 57 163.5s28.667 82.167 36 105.5
c1.33301 4 4.66602 8.66699 9.99902 14s11.666 8 18.999 8c16.667 -2 34.334 -8 53.001 -18s34.667 -20.333 48 -31c4 -3.33301 8.33301 -7.5 13 -12.5s7.66699 -11.167 9 -18.5c1.33301 -9.33301 0.166016 -18.833 -3.50098 -28.5s-7.5 -18.167 -11.5 -25.5
c-12 -22 -23.167 -46.167 -33.5 -72.5s-21 -52.833 -32 -79.5s-22.5 -52.667 -34.5 -78s-25 -48 -39 -68c-2.66699 -4 -5.83398 -8.33301 -9.50098 -13s-8 -8.66699 -13 -12s-10.833 -5.66602 -17.5 -6.99902s-14.667 -0.666016 -24 2.00098z" />
    <glyph glyph-name="w" unicode="w" horiz-adv-x="571" 
d="M271 377c4.66699 -1.33301 10 -2.6748 16 -4.00781s11.833 -3.5 17.5 -6.5s10.5 -7.16699 14.5 -12.5s6.33301 -13 7 -23c0 -4 2.16699 -16.167 6.5 -36.5s8.16602 -44.166 11.499 -71.499c12 51.333 21.167 96.5 27.5 135.5s12.833 68.833 19.5 89.5
c1.33301 4 4.66602 8.66699 9.99902 14s11.666 8 18.999 8c8 -0.666992 17.5 -2.66699 28.5 -6s22 -7.33301 33 -12s21.5 -9.66699 31.5 -15s18.333 -10.666 25 -15.999c4 -3.33301 8.33301 -7.5 13 -12.5s7.66699 -11.167 9 -18.5
c1.33301 -9.33301 0.5 -18.666 -2.5 -27.999s-5.5 -18 -7.5 -26c-5.33301 -24 -12 -49.333 -20 -76s-16.667 -53.334 -26 -80.001s-18.666 -52.667 -27.999 -78s-18.333 -48 -27 -68c-4 -9.33301 -11 -18 -21 -26s-24.333 -9.33301 -43 -4l-33 15
c-5.33301 2.66699 -10.333 5 -15 7s-8.66699 4.33301 -12 7c-8 2 -17.5 6.16699 -28.5 12.5s-18.5 16.166 -22.5 29.499l-12.5 42.5c-5 17 -9.16699 36.167 -12.5 57.5c-8.66699 -18 -15.667 -38.333 -21 -61s-13.666 -47 -24.999 -73c-3.33301 -8 -6.33301 -14.667 -9 -20
s-5.66699 -8 -9 -8c-5.33301 0 -12.5 0.5 -21.5 1.5s-15.167 2.16699 -18.5 3.5c-1.33301 0 -2 0.333008 -2 1l-44 15c-0.666992 0 -5 1.66699 -13 5c-8.66699 3.33301 -14 6.66602 -16 9.99902c-7.33301 4.66699 -14 10.334 -20 17.001s-9.66699 14.667 -11 24
c-2.66699 16.667 -5.66699 35.834 -9 57.501s-6.66602 44.667 -9.99902 69s-6.33301 49.333 -9 75s-4.66699 50.834 -6 75.501c0 4.66699 -0.666992 11.5 -2 20.5s-2.16602 18.5 -2.49902 28.5s-0.166016 19.333 0.500977 28s2.33398 14.334 5.00098 17.001
c5.33301 5.33301 13.333 7.66602 24 6.99902s22 -2.5 34 -5.5s24 -6.83301 36 -11.5s21.333 -8.66699 28 -12c5.33301 -3.33301 13 -9.33301 23 -18s15.667 -18.667 17 -30c4 -30 5.5 -60.667 4.5 -92s0.833008 -63.666 5.5 -96.999c9.33301 32 18.166 62.5 26.499 91.5
s15.166 50.167 20.499 63.5c4 8.66699 7.66699 14.834 11 18.501s6.66602 5.83398 9.99902 6.50098s7 0.333984 11 -0.999023s8.66699 -2.66602 14 -3.99902z" />
    <glyph glyph-name="x" unicode="x" horiz-adv-x="472" 
d="M448 344c-14.667 -21.333 -30.1592 -42.5029 -46.4922 -63.5029s-31.833 -41.167 -46.5 -60.5c9.33301 -19.333 18.666 -37.666 27.999 -54.999s18.666 -33.666 27.999 -48.999c3.33301 -6 5 -13.5 5 -22.5s-2.33301 -16.5 -7 -22.5
c-4.66699 -6.66699 -11.834 -14.167 -21.501 -22.5s-20 -16 -31 -23s-22 -12.833 -33 -17.5s-20.5 -7 -28.5 -7c-5.33301 0 -11.333 3.83301 -18 11.5s-13.5 17.834 -20.5 30.501s-14.167 27.167 -21.5 43.5s-14.666 32.833 -21.999 49.5c-14 -24 -27.833 -47 -41.5 -69
s-24.834 -38.667 -33.501 -50c-3.33301 -4 -9.16602 -7.33301 -17.499 -10s-15.166 -3 -20.499 -1c-13.333 4.66699 -27.833 11.834 -43.5 21.501s-28.5 18.834 -38.5 27.501c-2.66699 2 -5.33398 5 -8.00098 9s-4.83398 8.5 -6.50098 13.5s-2.66699 10.167 -3 15.5
s0.5 9.66602 2.5 12.999c14 24 29.667 47.333 47 70s33.666 43.667 48.999 63c-10.667 23.333 -21.334 46 -32.001 68s-20 41.667 -28 59c-3.33301 6 -5 13.5 -5 22.5s2.33301 16.5 7 22.5c5.33301 6.66699 14 14 26 22s25.167 15 39.5 21s28.166 10.667 41.499 14
s24 3.66602 32 0.999023c6 -2 11.5 -7.5 16.5 -16.5s10 -20.333 15 -34s10 -28.667 15 -45s10.167 -32.833 15.5 -49.5c13.333 24.667 27 48.167 41 70.5s25.333 39.166 34 50.499c3.33301 4 9.16602 7.33301 17.499 10s15.166 3 20.499 1c6.66699 -2 13.5 -5.5 20.5 -10.5
s14 -10.5 21 -16.5s13.667 -12.167 20 -18.5s11.833 -11.5 16.5 -15.5c2.66699 -2 5.33398 -5 8.00098 -9s5 -8.5 7 -13.5s3.16699 -10.167 3.5 -15.5s-0.833984 -9.66602 -3.50098 -12.999z" />
    <glyph glyph-name="y" unicode="y" horiz-adv-x="529" 
d="M201 -277l-91.9961 50.0059c-6.66699 3.33301 -12 8.66602 -16 15.999s-6.66699 15.166 -8 23.499s-1.66602 16.5 -0.999023 24.5s1.66699 14 3 18c6.66699 19.333 16.667 45.166 30 77.499s27.666 65.166 42.999 98.499l-2 -1
c-12 -0.666992 -22.167 -0.833984 -30.5 -0.500977s-15.5 2.33301 -21.5 6s-11.333 9.16699 -16 16.5s-9.66699 17 -15 29c-18.667 46 -33.334 92.167 -44.001 138.5s-20.334 94.5 -29.001 144.5c-0.666992 4.66699 -1.16699 10.5 -1.5 17.5s0 14.167 1 21.5
s2.5 14.333 4.5 21s4.66699 12 8 16c6.66699 7.33301 15.5 12.833 26.5 16.5s23 6.16699 36 7.5s26.167 2 39.5 2s25.666 0.333008 36.999 1h14c6 0 11.833 -0.666992 17.5 -2s10.667 -3.5 15 -6.5s6.5 -7.5 6.5 -13.5c0.666992 -30 1.5 -57.333 2.5 -82
s2.5 -47.667 4.5 -69s4.83301 -41.833 8.5 -61.5s8.5 -39.167 14.5 -58.5c12.667 34 25.834 66.5 39.501 97.5s26.667 58.667 39 83s23.666 45 33.999 62s18.5 28.833 24.5 35.5c3.33301 3.33301 7.5 7.66602 12.5 12.999s10.5 8.33301 16.5 9c8 2 16.833 1.83301 26.5 -0.5
s19.167 -6 28.5 -11s18.166 -10.5 26.499 -16.5s15.833 -11.667 22.5 -17c4 -3.33301 8.33301 -7.5 13 -12.5s7.66699 -11.167 9 -18.5c1.33301 -9.33301 0.333008 -18.833 -3 -28.5s-7.33301 -18.167 -12 -25.5c-14 -21.333 -29 -47.333 -45 -78s-32 -63.834 -48 -99.501
s-31.833 -72.834 -47.5 -111.501s-30.334 -76.5 -44.001 -113.5s-26 -72.167 -37 -105.5s-19.833 -62.666 -26.5 -87.999c-1.33301 -5.33301 -3.83301 -10.333 -7.5 -15s-8.16699 -8.5 -13.5 -11.5s-11.666 -4.66699 -18.999 -5s-15.333 1.83398 -24 6.50098z" />
    <glyph glyph-name="z" unicode="z" horiz-adv-x="463" 
d="M93 10c-12 -2 -22 1.67285 -30 11.0059c-2.66699 3.33301 -6.83398 10.166 -12.501 20.499s-11.5 22 -17.5 35s-11.833 25.5 -17.5 37.5s-9.5 21 -11.5 27c-4 8 -4.33301 15.667 -1 23c1.33301 4.66699 3.33301 8.83398 6 12.501s11 8.83398 25 15.501
s29.667 14.334 47 23.001s35.166 17.5 53.499 26.5s36.5 17.667 54.5 26s34 15.5 48 21.5c5.33301 2 6.83301 3 4.5 3s-7.5 0.333008 -15.5 1c-2.66699 0 -4.83398 0.166992 -6.50098 0.5s-2.83398 0.5 -3.50098 0.5c-23.333 1.33301 -45.166 2 -65.499 2
s-38.166 -0.333008 -53.499 -1c-12 -2 -22 1.66699 -30 11c-2.66699 3.33301 -6.16699 9.16602 -10.5 17.499s-8.66602 17.5 -12.999 27.5s-8.66602 19.833 -12.999 29.5s-7.5 17.5 -9.5 23.5c-3.33301 8 -4.16602 17.5 -2.49902 28.5s6.16699 17.5 13.5 19.5
c10 3.33301 21.833 5.66602 35.5 6.99902s30.167 2.5 49.5 3.5s42.5 1.5 69.5 1.5h97.5c16.667 0 34.334 -1.5 53.001 -4.5s31.334 -6.16699 38.001 -9.5c5.33301 -2.66699 11.333 -10.667 18 -24s13 -28 19 -44s11.5 -31.667 16.5 -47s8.83301 -26.333 11.5 -33v-3
c2.66699 -4.66699 3.5 -9.83398 2.5 -15.501s-4.16699 -10.167 -9.5 -13.5c-8.66699 -5.33301 -21.834 -11.5 -39.501 -18.5s-36.834 -14.5 -57.501 -22.5s-41.834 -16 -63.501 -24s-41.167 -16 -58.5 -24c-5.33301 -2.66699 -8.5 -4.83398 -9.5 -6.50098
s4.16699 -2.5 15.5 -2.5l2 -1h52c8 0 17 -0.333008 27 -1s19.5 -1.66699 28.5 -3s17.167 -2.83301 24.5 -4.5s12.666 -3.5 15.999 -5.5c5.33301 -2.66699 11.333 -9.33398 18 -20.001s13 -22.5 19 -35.5s11.5 -25.833 16.5 -38.5s8.83301 -22.334 11.5 -29.001
c1.33301 -4.66699 -1.66699 -10.834 -9 -18.501s-15.666 -11.5 -24.999 -11.5c-22 0 -46.5 1 -73.5 3s-54.5 3.66699 -82.5 5s-55.167 2.16602 -81.5 2.49902s-49.833 -1.16699 -70.5 -4.5z" />
    <glyph glyph-name="braceleft" unicode="{" horiz-adv-x="382" 
d="M330 567h1h-1zM333 568l-2.99023 -0.00488281v-1c-14.667 3.33301 -25.334 -0.166992 -32.001 -10.5s-12.334 -20.833 -17.001 -31.5c-2.66699 -7.33301 -4.83398 -17.833 -6.50098 -31.5s-3 -28 -4 -43s-2.16699 -29.333 -3.5 -43s-3.33301 -24.5 -6 -32.5
c-3.33301 -10.667 -6.5 -20.667 -9.5 -30s-6.83301 -18.166 -11.5 -26.499s-10.5 -16.166 -17.5 -23.499s-16.5 -14.333 -28.5 -21c18.667 -8 32.167 -17.5 40.5 -28.5s13.5 -23.833 15.5 -38.5c1.33301 -7.33301 1.5 -14 0.5 -20s-2.33301 -12 -4 -18
s-3.16699 -12.5 -4.5 -19.5s-1.66602 -15.167 -0.999023 -24.5c0 -6 0.166992 -15.667 0.5 -29s1.16602 -27 2.49902 -41s3.83301 -26.833 7.5 -38.5s9.5 -18.5 17.5 -20.5c2.66699 -0.666992 6 -0.666992 10 0s8 1.5 12 2.5s8 1.33301 12 1s7.33301 -1.83301 10 -4.5l2 -2
c0.666992 0.666992 1.16699 1 1.5 1s1.5 -1.66699 3.5 -5c3.33301 -4.66699 7.16602 -10.834 11.499 -18.501s8.66602 -16.167 12.999 -25.5s8 -19.333 11 -30s4.83301 -21.334 5.5 -32.001c0 -4 -2.83301 -8.33301 -8.5 -13s-10.834 -8 -15.501 -10
c-13.333 -5.33301 -28.5 -9 -45.5 -11s-38.833 -1.66699 -65.5 1l-2 -1c-16 3.33301 -29.667 8.5 -41 15.5s-21 14.833 -29 23.5s-15 17.834 -21 27.501s-12 18.5 -18 26.5c-2 2.66699 -3.83301 7.16699 -5.5 13.5s-3.33398 13.166 -5.00098 20.499s-3.16699 14.5 -4.5 21.5
s-2 12.5 -2 16.5c-2 8 -3.16699 17.167 -3.5 27.5s-0.5 21 -0.5 32s-0.166992 21.667 -0.5 32s-1.5 19.5 -3.5 27.5c-0.666992 4 -2 9.16699 -4 15.5s-4.5 12.333 -7.5 18s-7 10.834 -12 15.501s-11.167 7.66699 -18.5 9c-4 0.666992 -8.66699 2.5 -14 5.5
s-8.66602 9.5 -9.99902 19.5c-1.33301 11.333 -5.83301 24.333 -13.5 39s-10.834 31.334 -9.50098 50.001c0.666992 10.667 5.16699 18.167 13.5 22.5s15.166 6.83301 20.499 7.5c11.333 1.33301 20.666 3.5 27.999 6.5s13.666 7.66699 18.999 14s10.166 15 14.499 26
s8.83301 24.833 13.5 41.5c2.66699 41.333 5.66699 77.333 9 108s7 52 11 64c8.66699 25.333 19.5 47 32.5 65s23.167 28.667 30.5 32l7 3h1c0.666992 0 1.33398 0.333008 2.00098 1c10 4.66699 20.5 9.16699 31.5 13.5s24.5 5.5 40.5 3.5
c16.667 -2 29.834 -5.33301 39.501 -10s17.5 -9 23.5 -13c5.33301 -3.33301 10.666 -9.16602 15.999 -17.499s10 -17.833 14 -28.5s7.33301 -22 10 -34s3.66699 -23.333 3 -34c0 -5.33301 -1.5 -11.166 -4.5 -17.499s-6.83301 -9.16602 -11.5 -8.49902
c-10 1.33301 -16.167 4.33301 -18.5 9s-6.83301 7.66699 -13.5 9z" />
    <glyph glyph-name="bar" unicode="|" horiz-adv-x="332" 
d="M281 712c-3.33301 -18 -7.16602 -43.332 -11.499 -75.999s-8.83301 -69.5 -13.5 -110.5s-9.33398 -85 -14.001 -132s-8.66699 -94.167 -12 -141.5s-6.16602 -93.666 -8.49902 -138.999s-3.5 -87 -3.5 -125c0 -14 -7.33301 -21 -22 -21c-16 0 -31 3.33301 -45 10
s-26.833 14.834 -38.5 24.501s-21.834 19.667 -30.501 30s-16 19.166 -22 26.499c-6.66699 11.333 -10 22 -10 32c0 27.333 1.33301 61.166 4 101.499s6 83.166 10 128.499s8.66699 91.333 14 138s10.333 89.834 15 129.501s9.16699 73.667 13.5 102
s7.83301 47.166 10.5 56.499c1.33301 4.66699 3.83301 9 7.5 13s9.5 6 17.5 6s17.5 -0.833008 28.5 -2.5s22 -3.66699 33 -6s21.667 -5 32 -8s18.5 -5.5 24.5 -7.5c7.33301 -3.33301 13 -7 17 -11s5.33301 -10 4 -18z" />
    <glyph glyph-name="braceright" unicode="}" horiz-adv-x="422" 
d="M50 -4c15.333 -4 26.502 -0.663086 33.502 10.0039s12.833 21.334 17.5 32.001c3.33301 7.33301 5.66602 17.833 6.99902 31.5s2.5 28 3.5 43s2.16699 29.333 3.5 43s3.33301 24.5 6 32.5c3.33301 10.667 6.5 20.667 9.5 30s6.83301 18.166 11.5 26.499
s10.5 16.166 17.5 23.499s16.5 14.333 28.5 21c-18.667 8 -32.167 17.5 -40.5 28.5s-13.5 23.833 -15.5 38.5c-0.666992 7.33301 -0.5 14 0.5 20s2.16699 12 3.5 18s2.66602 12.5 3.99902 19.5s1.66602 15.167 0.999023 24.5v29c0 13.333 -0.833008 27 -2.5 41
s-4.33398 26.833 -8.00098 38.5s-9.5 18.5 -17.5 20.5c-2.66699 0.666992 -6 0.666992 -10 0s-8 -1.5 -12 -2.5s-8 -1.33301 -12 -1s-7.33301 1.83301 -10 4.5c-0.666992 0 -1.66699 0.666992 -3 2c-0.666992 -0.666992 -1.16699 -1 -1.5 -1s-1.16602 1.66699 -2.49902 5
c-2.66699 4.66699 -6.33398 10.834 -11.001 18.501s-9.16699 16.167 -13.5 25.5s-8 19.333 -11 30s-4.83301 21.334 -5.5 32.001c0 4 2.83301 8.33301 8.5 13s10.834 8 15.501 10c12.667 5.33301 27.667 9 45 11s39.333 1.66699 66 -1c0 0.666992 0.666992 1 2 1
c16 -3.33301 29.667 -8.5 41 -15.5s21 -14.833 29 -23.5s15 -17.834 21 -27.501s12 -18.5 18 -26.5c1.33301 -2.66699 3 -7.16699 5 -13.5s3.83301 -13.166 5.5 -20.499s3.16699 -14.5 4.5 -21.5s2 -12.5 2 -16.5c2 -8 3.16699 -17.167 3.5 -27.5s0.5 -21 0.5 -32
s0.166992 -21.667 0.5 -32s1.5 -19.5 3.5 -27.5c1.33301 -4 2.83301 -9.16699 4.5 -15.5s4 -12.333 7 -18s7 -10.834 12 -15.501s11.167 -7.66699 18.5 -9c4 -0.666992 8.66699 -2.5 14 -5.5s8.66602 -9.5 9.99902 -19.5c1.33301 -11.333 5.83301 -24.333 13.5 -39
s10.834 -31.334 9.50098 -50.001c-0.666992 -10.667 -5.16699 -18.167 -13.5 -22.5s-15.166 -6.83301 -20.499 -7.5c-11.333 -1.33301 -20.666 -3.5 -27.999 -6.5s-13.833 -7.83301 -19.5 -14.5s-10.5 -15.334 -14.5 -26.001s-8.66699 -24.667 -14 -42
c-2.66699 -41.333 -5.66699 -77.166 -9 -107.499s-6.66602 -51.5 -9.99902 -63.5c-8.66699 -25.333 -19.5 -47 -32.5 -65s-23.167 -28.667 -30.5 -32l-6 -2c-10.667 -5.33301 -21.834 -10.333 -33.501 -15s-25.834 -6 -42.501 -4s-29.834 5.33301 -39.501 10
s-17.5 9 -23.5 13c-5.33301 3.33301 -10.666 9.16602 -15.999 17.499s-10 17.833 -14 28.5s-7.33301 22 -10 34s-3.66699 23.333 -3 34c0 5.33301 1.5 11.166 4.5 17.499s6.83301 9.16602 11.5 8.49902c10 -1.33301 16.167 -4.33301 18.5 -9s6.83301 -7.66699 13.5 -9h3z
M49.002 -3.99609v0z" />
    <glyph glyph-name="asciitilde" unicode="~" horiz-adv-x="491" 
d="M380 390c10 0.666992 18.335 -2.66699 25.002 -10c2 -2 6.16699 -6.66699 12.5 -14s13.166 -15.333 20.499 -24s14 -16.834 20 -24.501s9.66699 -13.167 11 -16.5c3.33301 -8 3.33301 -13.667 0 -17s-6.66602 -7 -9.99902 -11
c-11.333 -12.667 -27.833 -24.334 -49.5 -35.001s-42.5 -16.667 -62.5 -18c-17.333 -0.666992 -33.333 0.666016 -48 3.99902s-28.667 7 -42 11s-26.5 7.66699 -39.5 11s-26.5 4.33301 -40.5 3s-25.333 -5.83301 -34 -13.5s-16.667 -12.167 -24 -13.5
s-13 -1.16602 -17 0.500977s-8 4.16699 -12 7.5c-4.66699 3.33301 -11 7.83301 -19 13.5s-15.833 11.834 -23.5 18.501s-14.167 13.167 -19.5 19.5s-8 12.166 -8 17.499c0 8.66699 2.66699 16.334 8 23.001s9.66602 11.667 12.999 15s8.5 7.83301 15.5 13.5
s15.5 11.167 25.5 16.5s21.667 10 35 14s27.666 6.33301 42.999 7c12 0.666992 23.667 -0.666016 35 -3.99902s22.833 -7 34.5 -11s24 -7.5 37 -10.5s27.5 -4.16699 43.5 -3.5c12 0.666992 21.167 2.66699 27.5 6s11.833 6.83301 16.5 10.5s8.66699 7 12 10s8 4.5 14 4.5z
" />
    <glyph glyph-name="nonbreakingspace" unicode="&#xa0;" horiz-adv-x="220" 
 />
    <glyph glyph-name="exclamdown" unicode="&#xa1;" horiz-adv-x="301" 
d="M-29 -178c4.66699 28.667 11.1641 59.833 19.4971 93.5s17 66.834 26 99.501s17.833 63.5 26.5 92.5s16 53.167 22 72.5c2 6.66699 7.16699 13.5 15.5 20.5s16.166 10.5 23.499 10.5c16.667 0 30.334 -1.16699 41.001 -3.5s19.334 -5.33301 26.001 -9s12 -7.66699 16 -12
s7.33301 -8.83301 10 -13.5c3.33301 -5.33301 6.33301 -13.833 9 -25.5s4.33398 -20.834 5.00098 -27.501c3.33301 -42 4.66602 -81.833 3.99902 -119.5s-2.5 -72.167 -5.5 -103.5s-6.83301 -59 -11.5 -83s-9.66699 -43 -15 -57c-1.33301 -4 -5.66602 -8.33301 -12.999 -13
s-15 -7 -23 -7c-8.66699 0 -19.334 0.833008 -32.001 2.5s-25.667 3.66699 -39 6s-26 5 -38 8s-21 5.83301 -27 8.5c-4 1.33301 -8.66699 3.5 -14 6.5s-10.166 7 -14.499 12s-7.66602 10.833 -9.99902 17.5s-2.83301 14.667 -1.5 24zM49.9971 321.999
c4.66699 27.333 7.99902 52.999 9.99902 76.999s5.66699 44.667 11 62c2 6.66699 4.5 11.834 7.5 15.501s8.16699 5.5 15.5 5.5c16.667 0 32 -2.66699 46 -8s26.833 -12 38.5 -20s21.834 -16.667 30.501 -26s16 -17.666 22 -24.999c6.66699 -8.66699 10 -19.667 10 -33
c0 -18.667 -1.33301 -38.834 -4 -60.501s-5.66699 -39.167 -9 -52.5c-1.33301 -4.66699 -3.66602 -9 -6.99902 -13s-9 -6 -17 -6c-8.66699 0 -18.5 0.666992 -29.5 2s-22.333 3.5 -34 6.5s-23.167 6.5 -34.5 10.5s-21.333 9 -30 15c-7.33301 4.66699 -13.833 12 -19.5 22
s-7.83398 19.333 -6.50098 28z" />
    <glyph glyph-name="cent" unicode="&#xa2;" horiz-adv-x="428" 
d="M327 542l-16.0068 -85.0039l25 -6c5.33301 -2.66699 12.833 -6 22.5 -10s18 -10.5 25 -19.5s11.333 -21 13 -36s-2.5 -34.5 -12.5 -58.5c-7.33301 -24 -16.333 -45.5 -27 -64.5s-26 -30.833 -46 -35.5c-14.667 0.666992 -26 2.83398 -34 6.50098
s-14.667 7.16699 -20 10.5c-1.33301 1.33301 -4.16602 5.33301 -8.49902 12s-5.16602 17.667 -2.49902 33c2 11.333 1.66699 19.333 -1 24s-6.16699 7.33398 -10.5 8.00098s-9.16602 0 -14.499 -2s-9.66602 -4 -12.999 -6s-8 -10.667 -14 -26s-8.66699 -42 -8 -80
c0.666992 -20 4.33398 -35.667 11.001 -47s12 -18.666 16 -21.999c5.33301 -4 12 -5.16699 20 -3.5s16.833 4.66699 26.5 9s19.834 9.33301 30.501 15s21 10.834 31 15.501c11.333 4 20.833 6.5 28.5 7.5s15.5 -5.16699 23.5 -18.5c4.66699 -8 8.33398 -14.167 11.001 -18.5
s5.33398 -10.833 8.00098 -19.5c2.66699 -9.33301 3.5 -18.5 2.5 -27.5s-4.5 -17.167 -10.5 -24.5c-14.667 -14 -32.834 -27.833 -54.501 -41.5s-50.5 -23.834 -86.5 -30.501c-2 -16.667 -3.83301 -33.334 -5.5 -50.001s-2.5 -32.667 -2.5 -48c0 -14 -7.33301 -21 -22 -21
c-22.667 0 -41.334 6.5 -56.001 19.5s-27.667 26.833 -39 41.5c-6.66699 11.333 -10 22 -10 32v21c0 8 0.666992 16.667 2 26c-4 2 -8.33301 4.33301 -13 7c-5.33301 3.33301 -12.833 9.5 -22.5 18.5s-19.167 21 -28.5 36s-17.5 32.5 -24.5 52.5s-10.5 42.333 -10.5 67
c0 38 4.33301 72.167 13 102.5s20.5 56.5 35.5 78.5s33 39.667 54 53s43.5 22 67.5 26c5.33301 27.333 10 50.833 14 70.5s7 33.834 9 42.501c1.33301 4.66699 3.83301 9 7.5 13s9.5 6 17.5 6c16 0 29.833 -2.16699 41.5 -6.5s23.834 -8.83301 36.501 -13.5
c7.33301 -3.33301 13 -7.66602 17 -12.999s5.33301 -12 4 -20z" />
    <glyph glyph-name="sterling" unicode="&#xa3;" horiz-adv-x="571" 
d="M455 196c6.66699 1.33301 12.0029 0.666992 16.0029 -2s8.66699 -5.66699 14 -9c6 -4 13.167 -11.667 21.5 -23s16.666 -23.833 24.999 -37.5s16 -26.834 23 -39.501s11.5 -22 13.5 -28c3.33301 -8 3.83301 -14.833 1.5 -20.5s-7.16602 -9.5 -14.499 -11.5
c-10 -2.66699 -29.667 -4.83398 -59 -6.50098s-63.333 -3 -102 -4s-79.5 -2 -122.5 -3s-83.5 -2.5 -121.5 -4.5c-16.667 -1.33301 -33.167 -1.16602 -49.5 0.500977s-27.833 4.16699 -34.5 7.5c-5.33301 2.66699 -13.333 10.667 -24 24s-21.334 28.166 -32.001 44.499
s-20 32.166 -28 47.499s-12 26.333 -12 33c0 5.33301 2.5 10.833 7.5 16.5s9.83301 8.5 14.5 8.5c17.333 -0.666992 41.166 -1 71.499 -1s63.5 0.333008 99.5 1c-23.333 8 -40.333 21.667 -51 41c-1.33301 1.33301 -2.5 5 -3.5 11s-1.66699 12.833 -2 20.5
s-0.5 15.167 -0.5 22.5s0.333008 12.666 1 15.999l3 30c-5.33301 -0.666992 -9.83301 -1.16699 -13.5 -1.5s-7.16699 -0.5 -10.5 -0.5c-12.667 -1.33301 -22.5 0.833984 -29.5 6.50098s-12.167 10.5 -15.5 14.5c-8.66699 9.33301 -17.834 20 -27.501 32
s-14.5 23.333 -14.5 34c0 8.66699 2.66699 15.834 8 21.501s9.66602 8.5 12.999 8.5c11.333 -0.666992 27.166 -0.166992 47.499 1.5s42.5 3.83398 66.5 6.50098c3.33301 16 7 31 11 45s7.66699 27 11 39c0 0.666992 0.666992 3 2 7c4 13.333 10.833 28.666 20.5 45.999
s21.5 34.166 35.5 50.499s30.167 31.5 48.5 45.5s38.833 24.333 61.5 31c18.667 5.33301 37.667 7.33301 57 6s38 -4.16602 56 -8.49902s34.667 -9.66602 50 -15.999s28 -11.833 38 -16.5c11.333 -5.33301 17.666 -21 18.999 -47s-7 -57.667 -25 -95
c-5.33301 -6 -10.333 -10.5 -15 -13.5s-11.334 -3.5 -20.001 -1.5c-4.66699 1.33301 -9 2.83301 -13 4.5s-11.667 4.16699 -23 7.5c-10 2.66699 -15.833 7.5 -17.5 14.5s-4.16699 13.5 -7.5 19.5c-2.66699 4.66699 -9.33398 10 -20.001 16s-23.667 6.33301 -39 1
c-22.667 -8 -39 -34 -49 -78c-1.33301 -6.66699 -2.5 -13 -3.5 -19s-2.16699 -12.333 -3.5 -19c18 2 34.333 3.5 49 4.5s26.334 1.16699 35.001 0.5c8.66699 2 17 -1.66699 25 -11c2 -2 5 -5.66699 9 -11s8 -11.166 12 -17.499s7.83301 -13.333 11.5 -21
s5.83398 -15.167 6.50098 -22.5c1.33301 -8.66699 -0.166992 -15 -4.5 -19s-9.16602 -6.33301 -14.499 -7l-60 -6c-26.667 -2.66699 -56 -5.66699 -88 -9c-3.33301 -22.667 -6.16602 -47 -8.49902 -73s-5.16602 -56 -8.49902 -90c39.333 1.33301 75.333 2.33301 108 3
s57.667 1.66699 75 3z" />
    <glyph glyph-name="currency" unicode="&#xa4;" horiz-adv-x="610" 
d="M472 226c8.66699 2 17.002 -1.66406 25.002 -10.9971c4 -4.66699 7.83301 -12.834 11.5 -24.501s5.5 -24.834 5.5 -39.501c0 -18.667 -6.33301 -27.334 -19 -26.001c-8 0 -19.5 0.333008 -34.5 1s-32.333 1.5 -52 2.5s-41 2 -64 3s-46.167 1.83301 -69.5 2.5
c-1.33301 -17.333 -2.33301 -35.5 -3 -54.5s-1.33398 -39.167 -2.00098 -60.5c-0.666992 -14 -8.33398 -21 -23.001 -21c-16.667 0 -33.334 1.83301 -50.001 5.5s-32.167 8.5 -46.5 14.5s-27.166 12.833 -38.499 20.5s-20 15.167 -26 22.5
c-6.66699 8.66699 -10 19.667 -10 33v43c-3.33301 0 -6.33301 -0.166992 -9 -0.5s-4.66699 -0.5 -6 -0.5c-12.667 -1.33301 -21 -1 -25 1s-7.33301 5.33301 -10 10c-8.66699 14.667 -15.167 27.667 -19.5 39s-6.5 22.333 -6.5 33c0 8.66699 2.66699 13.834 8 15.501
s9.66602 2.5 12.999 2.5c6.66699 0 15 -0.166992 25 -0.5s21.667 -0.5 35 -0.5l3 31c-2 0 -4.16699 -0.166992 -6.5 -0.5s-4.5 -0.5 -6.5 -0.5c-12.667 -1.33301 -21 -1 -25 1s-7.33301 5.33301 -10 10c-8.66699 14.667 -15.167 27.667 -19.5 39s-6.5 22.333 -6.5 33
c0 8.66699 2.66699 13.834 8 15.501s9.66602 2.5 12.999 2.5c23.333 -0.666992 44.333 -0.666992 63 0c4 34 8.33301 64.167 13 90.5s8.66699 46.5 12 60.5c-4 6 -8.33301 13 -13 21s-9.16699 16 -13.5 24s-8.16602 15.333 -11.499 22l-7 14c-6 18 -4.33301 30.667 5 38
c6 4.66699 17.333 11.5 34 20.5s36.834 18 60.501 27s50 16.833 79 23.5s59.167 10 90.5 10c4 0 16.167 -2.66699 36.5 -8s42.5 -11.833 66.5 -19.5s46.5 -15.334 67.5 -23.001s34.5 -13.834 40.5 -18.501c3.33301 -2.66699 7.66602 -9 12.999 -19s10.5 -21.5 15.5 -34.5
s9.16699 -26.667 12.5 -41s5 -27.5 5 -39.5c0 -58 -15.5 -107.667 -46.5 -149s-78.833 -70 -143.5 -86c-8 -2 -17.667 -4 -29 -6s-23 -3.66699 -35 -5s-23.333 -1.83301 -34 -1.5s-19 1.5 -25 3.5c-1.33301 -6.66699 -2.16602 -13.167 -2.49902 -19.5
s-0.833008 -12.833 -1.5 -19.5c42 -1.33301 80.5 -2.33301 115.5 -3s59.5 -1.66699 73.5 -3zM312.002 487.003c-3.33301 -20.667 -6.33008 -41.6699 -8.99707 -63.0029s-5.66699 -43.666 -9 -66.999c15.333 2 30.166 6.5 44.499 13.5s27.333 15.833 39 26.5
s21 23.167 28 37.5s10.5 29.833 10.5 46.5c0 18.667 -6.5 35.834 -19.5 51.501s-32.833 23.5 -59.5 23.5c-17.333 0 -37.333 -4.33301 -60 -13c1.33301 0 2.16602 -0.166992 2.49902 -0.5s1.16602 -0.5 2.49902 -0.5c7.33301 -3.33301 14.833 -9.16602 22.5 -17.499
s10.167 -20.833 7.5 -37.5z" />
    <glyph glyph-name="yen" unicode="&#xa5;" horiz-adv-x="580" 
d="M439 169c8.66699 2 17 -1.66699 25 -11c4 -4.66699 10.667 -11.667 20 -21s14 -21.333 14 -36c0 -8.66699 -1.83301 -13.667 -5.5 -15s-8.16699 -1.66602 -13.5 -0.999023h-103l-2 -62c-0.666992 -7.33301 -2.16699 -12.833 -4.5 -16.5s-7.16602 -5.16699 -14.499 -4.5
c-16.667 1.33301 -33.667 3.83301 -51 7.5s-33.5 8.5 -48.5 14.5s-28.333 12.667 -40 20s-20.5 14.666 -26.5 21.999c-6.66699 7.33301 -10 17.666 -10 30.999c-6.66699 0.666992 -12.667 1.33398 -18 2.00098s-9.66602 1.33398 -12.999 2.00098
c-10.667 1.33301 -20 4.16602 -28 8.49902s-13.667 8.5 -17 12.5c-7.33301 9.33301 -13.833 18.166 -19.5 26.499s-8.5 15.166 -8.5 20.499c0 8.66699 2.66699 15.667 8 21s9.66602 7.66602 12.999 6.99902c9.33301 -1.33301 21.333 -2.83301 36 -4.5
s30.667 -3.16699 48 -4.5v13.5c0 4.33301 0.333008 8.83301 1 13.5l-33 6c-10.667 1.33301 -20.167 4 -28.5 8s-13.833 8.33301 -16.5 13c-4 7.33301 -7.83301 12.833 -11.5 16.5s-6.66699 7 -9 10s-4.16602 5.83301 -5.49902 8.5s-2 6.66699 -2 12
c0 8.66699 2.66699 15.667 8 21s9.66602 7.66602 12.999 6.99902c10 -1.33301 22.833 -3 38.5 -5s32.834 -3.66699 51.501 -5c0 5.33301 0.166992 10.5 0.5 15.5s0.833008 10.167 1.5 15.5c-12 21.333 -26 45.833 -42 73.5s-32.333 56.334 -49 86.001
s-32.667 58.834 -48 87.501s-28.666 54.334 -39.999 77.001c-4.66699 8.66699 -7.33398 17.834 -8.00098 27.501s2.66602 18.167 9.99902 25.5c5.33301 5.33301 14.5 8 27.5 8s27.333 -1.33301 43 -4s31.334 -6 47.001 -10s28.5 -7.66699 38.5 -11
c8 -2.66699 17.5 -11.667 28.5 -27s22.333 -34.166 34 -56.499s23 -46.833 34 -73.5s20.833 -52.667 29.5 -78c10 21.333 20.5 43.833 31.5 67.5s22.167 46.5 33.5 68.5s22.333 42.5 33 61.5s20.334 33.833 29.001 44.5c3.33301 4 9.83301 8.66699 19.5 14
s18.167 6.66602 25.5 3.99902c18 -6.66699 37.333 -18.5 58 -35.5s38 -39.833 52 -68.5c3.33301 -7.33301 4.66602 -16 3.99902 -26s-3.66699 -19 -9 -27c-4.66699 -6.66699 -13.834 -19.667 -27.501 -39s-29.334 -40.666 -47.001 -63.999s-36 -47 -55 -71
s-35.5 -44.333 -49.5 -61l-4 -39l52 -3c8.66699 2 17 -1.66699 25 -11c4 -4.66699 10.5 -11.834 19.5 -21.501s13.5 -21.834 13.5 -36.501c0 -8.66699 -1.83301 -13.667 -5.5 -15s-8.16699 -1.66602 -13.5 -0.999023l-97 -4c-0.666992 -4.66699 -1 -9.16699 -1 -13.5v-14.5z
" />
    <glyph glyph-name="brokenbar" unicode="&#xa6;" horiz-adv-x="292" 
d="M211 272c0 -20 -0.665039 -42 -1.99805 -66s-2.83301 -48.5 -4.5 -73.5s-3.16699 -49.833 -4.5 -74.5s-2 -48 -2 -70c0 -14 -7.33301 -21 -22 -21c-16 0 -31 3.33301 -45 10s-26.833 14.834 -38.5 24.501s-21.834 19.667 -30.501 30s-16 19.166 -22 26.499
c-6.66699 11.333 -10 22 -10 32c0 18 0.666992 36.833 2 56.5s2.83301 39 4.5 58s3.5 37.167 5.5 54.5s3.66699 33 5 47c0.666992 4.66699 3 9 7 13s10 6 18 6s17.5 -0.833008 28.5 -2.5s22 -3.66699 33 -6s21.667 -5 32 -8s18.5 -5.5 24.5 -7.5
c7.33301 -3.33301 12.666 -7 15.999 -11s5 -10 5 -18zM261.002 712c-7.33301 -40 -13.333 -84.668 -18 -134.001s-9.66699 -96 -15 -140c-1.33301 -7.33301 -3.5 -12.666 -6.5 -15.999s-8.16699 -5 -15.5 -5c-16 0 -30.667 3.33301 -44 10s-25.333 14.834 -36 24.501
s-20 19.667 -28 30s-15 19.166 -21 26.499c-3.33301 5.33301 -6 10.5 -8 15.5s-2.66699 10.5 -2 16.5c3.33301 36.667 7.83301 73.167 13.5 109.5s11.167 68.5 16.5 96.5c1.33301 4.66699 3.83301 9 7.5 13s9.5 6 17.5 6s17.5 -0.833008 28.5 -2.5s22 -3.66699 33 -6
s21.667 -5 32 -8s18.5 -5.5 24.5 -7.5c7.33301 -3.33301 13 -7 17 -11s5.33301 -10 4 -18z" />
    <glyph glyph-name="section" unicode="&#xa7;" horiz-adv-x="468" 
d="M232 123c2.66699 13.333 0.838867 25.6611 -5.49414 36.9941s-15.333 21.666 -27 30.999s-24.5 18 -38.5 26s-27.333 15.333 -40 22c-6.66699 2 -12.667 5.33301 -18 10c-9.33301 7.33301 -17 15.833 -23 25.5s-10.667 19.5 -14 29.5s-5.5 19.667 -6.5 29
s-1.16699 17.666 -0.5 24.999c0 3.33301 1.33301 9.5 4 18.5s6.5 18.5 11.5 28.5s11.167 19.667 18.5 29s16 16.333 26 21c-4 4.66699 -10 10 -18 16s-15.667 13.833 -23 23.5s-13.5 21.5 -18.5 35.5s-6.83301 31 -5.5 51c1.33301 16 6.5 32.5 15.5 49.5
s21.167 32.5 36.5 46.5s33.666 25.833 54.999 35.5s44.666 14.834 69.999 15.501c16.667 0.666992 31 0.333984 43 -0.999023s23 -3.66602 33 -6.99902s19.5 -7.16602 28.5 -11.499s18.833 -9.16602 29.5 -14.499c4.66699 -2 11 -5 19 -9s16 -8.83301 24 -14.5
s14.833 -11.834 20.5 -18.501s8.5 -13.667 8.5 -21c0 -6 -1.5 -13.833 -4.5 -23.5s-6.16699 -18.834 -9.5 -27.501c-2.66699 -6.66699 -6.16699 -14.5 -10.5 -23.5s-9.5 -17.667 -15.5 -26s-12.5 -15.666 -19.5 -21.999s-14.833 -10.5 -23.5 -12.5
c-8.66699 2.66699 -18.5 5.5 -29.5 8.5s-21.167 8.5 -30.5 16.5c-2.66699 1.33301 -4.83398 5.16602 -6.50098 11.499s0.166016 17.166 5.49902 32.499c-0.666992 17.333 -4.5 29.833 -11.5 37.5s-14.5 11.834 -22.5 12.501c-9.33301 0.666992 -16.333 -0.833008 -21 -4.5
s-8 -8 -10 -13s-3.33301 -10 -4 -15s-1.33398 -8.5 -2.00098 -10.5c-6 -16 -5.66699 -29.5 1 -40.5s16.834 -21.167 30.501 -30.5s29.167 -18.5 46.5 -27.5s33.666 -19.333 48.999 -31s28.5 -25.5 39.5 -41.5s16.5 -36 16.5 -60c0 -32.667 -7.66699 -58 -23 -76
s-35 -29.667 -59 -35c5.33301 -4.66699 12 -10 20 -16s15.833 -13.833 23.5 -23.5s14 -21.667 19 -36s6.83301 -32.166 5.5 -53.499c-0.666992 -16 -4.33398 -31.833 -11.001 -47.5s-16.334 -29.667 -29.001 -42s-28.5 -22.166 -47.5 -29.499s-41.167 -10.333 -66.5 -9
c-33.333 1.33301 -63 5.5 -89 12.5s-49.667 15.833 -71 26.5c-4.66699 2 -10.167 4.83301 -16.5 8.5s-12.5 8 -18.5 13s-11 10.667 -15 17s-6 13.166 -6 20.499c0 6 1.16699 13.833 3.5 23.5s5.16602 18.834 8.49902 27.501c2.66699 7.33301 5.5 15.666 8.5 24.999
s6.5 18.333 10.5 27s8.83301 15.834 14.5 21.501s12.5 8.16699 20.5 7.5c6 -0.666992 12 -1.16699 18 -1.5s13.667 -4.16602 23 -11.499c2.66699 -1.33301 7.33398 -4.66602 14.001 -9.99902s9.33398 -15.666 8.00098 -30.999c0.666992 -17.333 6 -29.5 16 -36.5
s19 -10.833 27 -11.5c13.333 -1.33301 22.833 1 28.5 7s9.16699 11 10.5 15zM256.005 269.995c4 4 8.00098 12.667 12.001 26s4 29.666 0 48.999c-4 18.667 -10 33.834 -18 45.501s-16.333 20.167 -25 25.5c-4 -4 -9.83301 -12.833 -17.5 -26.5
s-9.83398 -33.167 -6.50098 -58.5c1.33301 -12 4.16602 -21.333 8.49902 -28s9.33301 -12 15 -16s11.334 -7.16699 17.001 -9.5s10.5 -4.83301 14.5 -7.5z" />
    <glyph glyph-name="dieresis" unicode="&#xa8;" horiz-adv-x="414" 
d="M183 673c-2.66699 -12 -5.00195 -20.9971 -7.00195 -26.9971s-3.5 -10.833 -4.5 -14.5s-2 -7.16699 -3 -10.5l-4.5 -15c-2 -5.33301 -5.66699 -11 -11 -17s-11 -9 -17 -9c-26 0 -46.5 2.16699 -61.5 6.5s-27.167 12.5 -36.5 24.5c-5.33301 6.66699 -8 15 -8 25
c0 14.667 2.66699 27.167 8 37.5s9.33301 21.166 12 32.499c1.33301 3.33301 4.83301 8.16602 10.5 14.499s11.834 9.5 18.501 9.5c13.333 0 27.333 -0.833008 42 -2.5s28.667 -7.16699 42 -16.5c5.33301 -3.33301 10.333 -8.83301 15 -16.5
s6.33398 -14.834 5.00098 -21.501zM382.998 673.003c-2.66699 -12 -5.00195 -20.9971 -7.00195 -26.9971s-3.5 -10.833 -4.5 -14.5s-2 -7.16699 -3 -10.5l-4.5 -15c-2 -5.33301 -5.66699 -11 -11 -17s-11 -9 -17 -9c-26 0 -46.5 2.16699 -61.5 6.5s-27.167 12.5 -36.5 24.5
c-5.33301 6.66699 -8 15 -8 25c0 14.667 2.66699 27.167 8 37.5s9.33301 21.166 12 32.499c1.33301 3.33301 4.83301 8.16602 10.5 14.499s11.834 9.5 18.501 9.5c13.333 0 27.333 -0.833008 42 -2.5s28.667 -7.16699 42 -16.5c5.33301 -3.33301 10.333 -8.83301 15 -16.5
s6.33398 -14.834 5.00098 -21.501z" />
    <glyph glyph-name="copyright" unicode="&#xa9;" horiz-adv-x="720" 
d="M500 40l-0.99707 -0.000976562c-25.333 -13.333 -52 -22.666 -80 -27.999s-50.667 -8 -68 -8c-20 0 -41 1.83301 -63 5.5s-42.833 8.66699 -62.5 15s-37.334 13.833 -53.001 22.5s-27.167 17.667 -34.5 27c-10.667 14 -22.334 27.5 -35.001 40.5s-24.5 28.667 -35.5 47
s-20 40.5 -27 66.5s-10.5 59 -10.5 99c0 60 7.83301 112.667 23.5 158s35.667 83.666 60 114.999s51.333 55.666 81 72.999s58.167 28 85.5 32c17.333 2 35.666 3.83301 54.999 5.5s38.333 2.5 57 2.5s36.5 -0.666992 53.5 -2s31.833 -3.66602 44.5 -6.99902
c25.333 -6 50.166 -13 74.499 -21s46 -21.333 65 -40s34.167 -45.167 45.5 -79.5s16 -81.166 14 -140.499c-0.666992 -16.667 -3.16699 -39.167 -7.5 -67.5s-11.833 -59 -22.5 -92s-25 -66 -43 -99s-41 -62.5 -69 -88.5c-5.33301 -6.66699 -11.666 -12.667 -18.999 -18
s-15 -10.333 -23 -15zM360.003 133.999c6 0 13.333 0.666016 22 1.99902s17.167 2.66602 25.5 3.99902s16.333 2.83301 24 4.5s13.834 3.5 18.501 5.5v1c19.333 10.667 36.333 27.834 51 51.501s27 48.834 37 75.501s18 52.334 24 77.001s9.33301 43.334 10 56.001
c3.33301 45.333 -0.5 81.166 -11.5 107.499s-26.333 46.5 -46 60.5s-41.834 23.167 -66.501 27.5s-49 6.83301 -73 7.5c-77.333 3.33301 -136 -19 -176 -67s-60 -126.667 -60 -236c0 -56.667 17 -102.334 51 -137.001c13.333 -14 35.5 -24.5 66.5 -31.5
s65.5 -9.83301 103.5 -8.5zM385.003 408.998c1.33301 8 -1.16699 12.6641 -7.5 13.9971s-12.833 -0.666992 -19.5 -6c-0.666992 -0.666992 -2.66699 -2.5 -6 -5.5s-6.5 -7 -9.5 -12s-5.66699 -11.167 -8 -18.5s-3.5 -16 -3.5 -26c0.666992 -13.333 2.5 -22.5 5.5 -27.5
s8.83301 -7.83301 17.5 -8.5s18.667 0 30 2s21.333 4.66699 30 8c8 2.66699 14.5 4 19.5 4s9.5 -2.66699 13.5 -8c4.66699 -6 8 -11 10 -15s4.66699 -8.33301 8 -13c2.66699 -11.333 -0.333008 -22.666 -9 -33.999c-2.66699 -6.66699 -7 -13.667 -13 -21
s-13 -14.166 -21 -20.499s-17.333 -11.666 -28 -15.999s-22.334 -6.83301 -35.001 -7.5c-44.667 -1.33301 -81.667 9.66699 -111 33s-44 58.333 -44 105c0 29.333 3.5 56.666 10.5 81.999s16.5 47.333 28.5 66s25.833 33.667 41.5 45s32.5 17.333 50.5 18
c22 1.33301 40.5 0.5 55.5 -2.5s29.5 -6.16699 43.5 -9.5c4 -2 9.83301 -5 17.5 -9s14.834 -9.66699 21.501 -17s11.334 -16.666 14.001 -27.999s1 -25 -5 -41c-3.33301 -13.333 -6.83301 -25 -10.5 -35s-8.16699 -19.333 -13.5 -28c-2 -3.33301 -5.33301 -5.83301 -10 -7.5
s-9.5 -2.66699 -14.5 -3s-9.83301 -0.5 -14.5 -0.5s-8.33398 0.333008 -11.001 1c-14 3.33301 -22.333 8.33301 -25 15s-2 15.667 2 27z" />
    <glyph glyph-name="ordfeminine" unicode="&#xaa;" horiz-adv-x="368" 
d="M328 617c-2 -11.333 -3.83789 -27.501 -5.50488 -48.501s-3.16699 -42.5 -4.5 -64.5s-2.33301 -42.333 -3 -61s-1 -31 -1 -37c0 -10 -5.33301 -15 -16 -15c-6.66699 0 -14.167 1.33301 -22.5 4s-16.5 6 -24.5 10s-15.5 8.66699 -22.5 14s-12.5 10.333 -16.5 15
c-5.33301 7.33301 -8 15.333 -8 24v2c0 2 0.333008 4 1 6s1 4 1 6c0 0.666992 -0.333008 1.33398 -1 2.00098l-1 1c-1.33301 0 -2.66602 -1.66699 -3.99902 -5c-5.33301 -7.33301 -11 -16.166 -17 -26.499s-11.333 -18.833 -16 -25.5
c-4.66699 -5.33301 -9.16699 -9.5 -13.5 -12.5s-9.83301 -4.5 -16.5 -4.5c-7.33301 0 -17.166 2.33301 -29.499 7s-22.166 10.667 -29.499 18c-9.33301 11.333 -16.666 24.5 -21.999 39.5s-8 33.833 -8 56.5c0 28 3.83301 53.833 11.5 77.5s18 44.167 31 61.5
s28 30.833 45 40.5s34.833 14.5 53.5 14.5c4.66699 0 11.334 -1 20.001 -3s17.5 -4.5 26.5 -7.5s17.167 -6 24.5 -9s12 -5.5 14 -7.5c4 -4 6.5 -8.83301 7.5 -14.5s1.83301 -12.834 2.5 -21.501c5.33301 -2.66699 10.5 -5.16699 15.5 -7.5s9.83301 -4.16602 14.5 -5.49902
c9.33301 -4.66699 14 -12.334 14 -23.001zM215.995 602.999c0.666992 3.33301 0.169922 6.33398 -1.49707 9.00098s-4.16699 4 -7.5 4c-6 0 -11.667 -3.16699 -17 -9.5s-10.333 -14.333 -15 -24s-8.33398 -19.667 -11.001 -30s-4 -19.5 -4 -27.5
c0 -7.33301 2.33301 -11 7 -11c6 0 12.333 4.66699 19 14c3.33301 4.66699 8.16602 12.167 14.499 22.5s11.166 20.166 14.499 29.499c0 6.66699 0.333008 11.667 1 15v8zM271.998 326c8.66699 2 17 -1.6709 25 -11.0039c4 -4.66699 9.5 -14 16.5 -28s10.5 -28.333 10.5 -43
c0 -18.667 -6.33301 -27.334 -19 -26.001c-15.333 0.666992 -32.666 0.333984 -51.999 -0.999023s-38.833 -3 -58.5 -5s-38.5 -4.33301 -56.5 -7s-33.667 -4.66699 -47 -6c-12.667 -1.33301 -22.667 0.666992 -30 6s-12.333 10.333 -15 15
c-8.66699 14.667 -15.167 27.667 -19.5 39s-6.5 22.333 -6.5 33c0 8.66699 2.66699 15.334 8 20.001s9.66602 7.33398 12.999 8.00098c17.333 2 36.333 3.66699 57 5s41.167 2.33301 61.5 3s40.333 0.833984 60 0.500977s37.167 -1.16602 52.5 -2.49902z" />
    <glyph glyph-name="guillemotleft" unicode="&#xab;" horiz-adv-x="553" 
d="M39 286c18.667 33.333 37.166 63.8398 55.499 91.5068s38.5 55.5 60.5 83.5c5.33301 6 12 10.667 20 14s16 3 24 -1c4.66699 -2 10.667 -5.66699 18 -11s14.833 -11.333 22.5 -18s15 -13.334 22 -20.001s12.5 -12.334 16.5 -17.001c3.33301 -4.66699 5.5 -11.5 6.5 -20.5
s-2.16699 -18.5 -9.5 -28.5c-9.33301 -12.667 -21.666 -29 -36.999 -49s-30.666 -40.667 -45.999 -62c15.333 -24 31.666 -47.833 48.999 -71.5s31.666 -43.167 42.999 -58.5c7.33301 -10 10.666 -19.5 9.99902 -28.5s-2.66699 -15.833 -6 -20.5
c-4 -4.66699 -10.5 -10.334 -19.5 -17.001s-18.667 -13.334 -29 -20.001s-20.166 -12.667 -29.499 -18l-21 -12c-4 -2 -8.16699 -2.83301 -12.5 -2.5s-8.66602 1.5 -12.999 3.5s-8.16602 4.16699 -11.499 6.5s-5.66602 4.16602 -6.99902 5.49902
c-22.667 25.333 -43.167 54.666 -61.5 87.999s-36.833 68.333 -55.5 105c-2.66699 6 -4.33398 11.5 -5.00098 16.5s-1.33398 9.83301 -2.00098 14.5c-0.666992 5.33301 0.5 11.666 3.5 18.999s6.83301 15.333 11.5 24zM278.999 286.007
c9.33301 16.667 17.6689 32.332 25.002 46.999s14.666 28.834 21.999 42.501s15.166 27.167 23.499 40.5s17.833 27 28.5 41c5.33301 6 12 10.667 20 14s16 3 24 -1c4.66699 -2 10.834 -6.16699 18.501 -12.5s15.667 -13.166 24 -20.499s16.333 -14.833 24 -22.5
s13.5 -13.834 17.5 -18.501c3.33301 -4.66699 5.5 -11.5 6.5 -20.5s-2.16699 -18.5 -9.5 -28.5c-11.333 -14.667 -25.333 -32.667 -42 -54s-32.667 -42.666 -48 -63.999c14 -19.333 29 -37.666 45 -54.999s30.333 -34.333 43 -51c7.33301 -10 10.666 -20.167 9.99902 -30.5
s-2.66699 -17.833 -6 -22.5c-4 -4.66699 -9.33301 -10 -16 -16s-13.667 -12 -21 -18s-14.5 -11.333 -21.5 -16s-12.833 -8.33398 -17.5 -11.001c-4 -2 -9 -3 -15 -3s-12 0.833008 -18 2.5s-11.667 4 -17 7s-9.33301 6.5 -12 10.5
c-11.333 18.667 -21.166 35.167 -29.499 49.5s-16 28.333 -23 42s-14.167 27.667 -21.5 42s-15.666 30.5 -24.999 48.5c-2.66699 6 -4.33398 11.5 -5.00098 16.5s-1.33398 9.83301 -2.00098 14.5c-0.666992 5.33301 0.5 11.666 3.5 18.999s6.83301 15.333 11.5 24z" />
    <glyph glyph-name="logicalnot" unicode="&#xac;" horiz-adv-x="517" 
d="M435 408c0.666992 -5.33301 2.33203 -11.8398 4.99902 -19.5068s5.33398 -19.167 8.00098 -34.5s4.83398 -35.666 6.50098 -60.999s2.16699 -58.666 1.5 -99.999c0 -7.33301 -2 -14.666 -6 -21.999s-9.66699 -10.333 -17 -9c-8.66699 1.33301 -17.667 3.33301 -27 6
s-18 5.66699 -26 9s-15 6.5 -21 9.5s-10 5.16699 -12 6.5c-5.33301 2 -11.333 6.83301 -18 14.5s-10 15.167 -10 22.5l-3 61c-16 -0.666992 -33.833 -1.66699 -53.5 -3s-39.5 -2.66602 -59.5 -3.99902s-39 -2.83301 -57 -4.5s-33.333 -3.16699 -46 -4.5
s-22.667 0.666992 -30 6s-12.333 10.333 -15 15c-4 7.33301 -9.16699 14.833 -15.5 22.5s-12.5 15 -18.5 22s-11 13.833 -15 20.5s-6 12.667 -6 18c0 8.66699 2.66699 15 8 19s9.66602 6 12.999 6c17.333 0 43.333 0.833008 78 2.5s71.167 3.83398 109.5 6.50098
s75.5 5.33398 111.5 8.00098s64.333 4.33398 85 5.00098c8 1.33301 16 -2.33398 24 -11.001c3.33301 -1.33301 5.33301 -3.66602 6 -6.99902z" />
    <glyph glyph-name="uni00AD" unicode="&#xad;" horiz-adv-x="464" 
d="M372 356c8.66699 2 17.001 -1.66797 25.001 -11.001c2 -2 4.5 -6.66699 7.5 -14s6 -15.833 9 -25.5s5.5 -19.334 7.5 -29.001s3 -18.167 3 -25.5c0 -18.667 -6.33301 -27.334 -19 -26.001c-15.333 0.666992 -37.333 0.333984 -66 -0.999023s-58.5 -3 -89.5 -5
s-60.167 -4.33301 -87.5 -7s-47.666 -4.66699 -60.999 -6c-12.667 -1.33301 -22.667 0.666992 -30 6s-12.333 10.333 -15 15c-8.66699 14.667 -16.834 29.334 -24.501 44.001s-11.5 27.334 -11.5 38.001c0 8.66699 2.66699 15.5 8 20.5s9.66602 7.5 12.999 7.5
c17.333 0 41.5 1.16699 72.5 3.5s63 4.83301 96 7.5s64.5 5 94.5 7s52.667 2.33301 68 1z" />
    <glyph glyph-name="registered" unicode="&#xae;" horiz-adv-x="800" 
d="M560 43l-1.99902 -0.000976562c-16 -7.33301 -33 -13.5 -51 -18.5s-35.667 -9 -53 -12s-33.333 -5.16699 -48 -6.5s-26.334 -2 -35.001 -2c-20 0 -40.667 2 -62 6s-41.666 9.5 -60.999 16.5s-36.833 14.667 -52.5 23s-28.167 16.5 -37.5 24.5
c-16 14 -31.667 28.5 -47 43.5s-29 32.167 -41 51.5s-21.667 41.833 -29 67.5s-11 55.834 -11 90.501c0 60 8.83301 112.667 26.5 158s40 83.666 67 114.999s56.333 55.666 88 72.999s61.167 28 88.5 32c17.333 2 35.666 3.83301 54.999 5.5s38.333 2.5 57 2.5
s36.5 -0.666992 53.5 -2s31.833 -3.66602 44.5 -6.99902c25.333 -6 53.333 -14 84 -24s59.167 -25.667 85.5 -47s48.333 -50.166 66 -86.499s25.5 -84.166 23.5 -143.499c-0.666992 -16 -4 -37.333 -10 -64s-15.333 -55 -28 -85s-29 -60.333 -49 -91
s-44 -58.334 -72 -83.001v-1c-10 -12 -24.333 -22.667 -43 -32zM380.001 113.999c6 0 13.3281 0.669922 21.9951 2.00293s17.167 2.66602 25.5 3.99902s16.333 2.83301 24 4.5s13.834 3.5 18.501 5.5v1c30 17.333 54.667 39.333 74 66s34.5 53.667 45.5 81
s19 53.166 24 77.499s7.83301 42.833 8.5 55.5c3.33301 45.333 -2.16699 81 -16.5 107s-33.166 45.833 -56.499 59.5s-48.833 22.667 -76.5 27s-53.5 7.5 -77.5 9.5s-49.667 -2.5 -77 -13.5s-52.833 -28.833 -76.5 -53.5s-43.334 -56.5 -59.001 -95.5
s-23.5 -85.833 -23.5 -140.5c0 -56.667 17 -102.334 51 -137.001c6.66699 -6.66699 15.834 -13.667 27.501 -21s24.834 -14 39.501 -20s30.834 -10.833 48.501 -14.5s35.834 -5.16699 54.501 -4.5zM262.996 483.002c-2.66699 8.66699 -1.99902 15.0039 2.00098 19.0039
c3.33301 2.66699 9.33301 6.5 18 11.5s19.167 10 31.5 15s25.833 9.33301 40.5 13s29 5.5 43 5.5c17.333 0 33.666 -2 48.999 -6s28.666 -9.66699 39.999 -17s20.5 -16.166 27.5 -26.499s10.5 -22.166 10.5 -35.499c0 -22 -5.5 -43.333 -16.5 -64s-25.167 -37.667 -42.5 -51
c3.33301 -8.66699 7.33301 -17.834 12 -27.501s9.16699 -18.667 13.5 -27s8.66602 -15.833 12.999 -22.5s8.16602 -11.334 11.499 -14.001c4 -4 5.5 -8.16699 4.5 -12.5s-2.83301 -8.83301 -5.5 -13.5c-2 -3.33301 -6 -6.83301 -12 -10.5s-12.5 -7 -19.5 -10
s-14.167 -5.33301 -21.5 -7s-13.666 -2.5 -18.999 -2.5s-10.5 3.83301 -15.5 11.5s-9.66699 17.167 -14 28.5s-8.66602 24.166 -12.999 38.499s-8.5 28.166 -12.5 41.499c-8 -1.33301 -14.833 -2.33301 -20.5 -3s-10.167 -1 -13.5 -1c-2.66699 -14 -5 -29.5 -7 -46.5
s-3.33301 -36.167 -4 -57.5c-0.666992 -6 -4.66699 -9 -12 -9c-16.667 0 -31.834 0.166992 -45.501 0.5s-23.834 4.5 -30.501 12.5c-1.33301 2 -2.5 4.33301 -3.5 7s-1.16699 5.66699 -0.5 9c2.66699 17.333 5.33398 35.166 8.00098 53.499s5.33398 36.166 8.00098 53.499
s5.33398 33.5 8.00098 48.5s5 27.833 7 38.5zM379.997 429.006c-1.33301 -8 -2.83301 -15.832 -4.5 -23.499s-3.5 -15.5 -5.5 -23.5c14 1.33301 26.5 6.5 37.5 15.5s16.5 22.167 16.5 39.5c0 5.33301 -2.16699 10.5 -6.5 15.5s-10.5 7.5 -18.5 7.5c-4 0 -8 -1 -12 -3
s-8.33301 -4.66699 -13 -8c4.66699 -4.66699 6.66699 -11.334 6 -20.001z" />
    <glyph glyph-name="macron" unicode="&#xaf;" horiz-adv-x="414" 
d="M322 716c8.66699 2 16.999 -1.67188 24.999 -11.0049c2 -2 5 -6.16699 9 -12.5s8.16699 -13.666 12.5 -21.999s8 -16.833 11 -25.5s4.5 -16.667 4.5 -24c0 -18.667 -6.33301 -27.334 -19 -26.001c-15.333 0.666992 -35.333 0.833984 -60 0.500977s-49.834 -1 -75.501 -2
s-50.167 -2.16699 -73.5 -3.5s-41.666 -2.66602 -54.999 -3.99902c-12.667 -1.33301 -22.667 0.666992 -30 6s-12.333 10.333 -15 15c-8.66699 14.667 -15.167 27.667 -19.5 39s-6.5 22.333 -6.5 33c0 8.66699 2.66699 15.334 8 20.001s9.66602 7.33398 12.999 8.00098
c17.333 2 38.333 3.83301 63 5.5s49.834 2.83398 75.501 3.50098s50.334 1.16699 74.001 1.5s43.167 -0.166992 58.5 -1.5z" />
    <glyph glyph-name="degree" unicode="&#xb0;" horiz-adv-x="343" 
d="M194 724c15.333 0 30.999 -3.33398 46.999 -10.001s29.833 -16.834 41.5 -30.501s20.334 -30.5 26.001 -50.5s5.83398 -43.333 0.500977 -70c-2.66699 -13.333 -9.66699 -27.666 -21 -42.999s-26.333 -28.5 -45 -39.5s-40.334 -18 -65.001 -21s-51.667 1.16699 -81 12.5
c-6 2 -12.833 5.83301 -20.5 11.5s-15 13 -22 22s-12.833 19.833 -17.5 32.5s-7 27.667 -7 45c0 15.333 3.5 31.333 10.5 48s17.5 31.834 31.5 45.501s31.167 25 51.5 34s43.833 13.5 70.5 13.5zM224.999 609.999c-2 12 -7.3291 20.668 -15.9961 26.001
s-19.334 8.33301 -32.001 9c-10 0.666992 -18.5 -1.5 -25.5 -6.5s-12.667 -10.667 -17 -17s-7.66602 -12.666 -9.99902 -18.999s-3.5 -10.833 -3.5 -13.5c-1.33301 -12 0 -22.167 4 -30.5s9.66699 -14.5 17 -18.5s15.666 -5.66699 24.999 -5s18.666 4 27.999 10
c7.33301 4.66699 13.166 10.167 17.499 16.5s7.5 12.666 9.5 18.999s3.16699 12.166 3.5 17.499s0.166016 9.33301 -0.500977 12z" />
    <glyph glyph-name="plusminus" unicode="&#xb1;" horiz-adv-x="486" 
d="M403 489c8.66699 2 17.002 -1.66602 25.002 -10.999c2 -2 4 -7 6 -15s4 -17.167 6 -27.5s3.5 -20.666 4.5 -30.999s1.5 -19.166 1.5 -26.499c0 -8.66699 -2.33301 -15.334 -7 -20.001s-9.66699 -7.33398 -15 -8.00098c-12.667 -1.33301 -30.334 -2.83301 -53.001 -4.5
s-47.334 -3.5 -74.001 -5.5c-3.33301 -24 -6.16602 -46.333 -8.49902 -67s-3.5 -37.667 -3.5 -51c-0.666992 -3.33301 -3.66699 -7.66602 -9 -12.999s-12.333 -7.66602 -21 -6.99902c-10 0 -23.5 0.833008 -40.5 2.5s-32.833 6.16699 -47.5 13.5
c-4.66699 2 -8.83398 8.66699 -12.501 20s-4.83398 23.333 -3.50098 36l5 57l-56 -5c-12.667 -1.33301 -22.834 0.666992 -30.501 6s-12.5 10.333 -14.5 15c-7.33301 14.667 -13.333 30.667 -18 48s-7 31.333 -7 42c0 8.66699 2.66699 15.5 8 20.5s9.66602 7.5 12.999 7.5
c12.667 -0.666992 29.834 -0.166992 51.501 1.5s45.167 3.5 70.5 5.5c3.33301 26 6.33301 50.167 9 72.5s5 39.833 7 52.5c0.666992 5.33301 3.33398 10.166 8.00098 14.499s11.667 6.5 21 6.5c7.33301 -0.666992 16.333 -2.33398 27 -5.00098
s21.334 -5.83398 32.001 -9.50098s20 -7.33398 28 -11.001s13 -6.5 15 -8.5c8.66699 -8.66699 11.667 -17 9 -25c-1.33301 -8.66699 -2.66602 -19.167 -3.99902 -31.5s-3.33301 -26.166 -6 -41.499c18 1.33301 34.167 2.33301 48.5 3s26.166 0.666992 35.499 0z
M372.002 156.001c8.66699 2 17.001 -1.66797 25.001 -11.001c2 -2 4.5 -6.66699 7.5 -14s6 -15.833 9 -25.5s5.5 -19.334 7.5 -29.001s3 -18.167 3 -25.5c0 -18.667 -6.33301 -27.334 -19 -26.001c-15.333 0.666992 -37.333 0.333984 -66 -0.999023s-58.5 -3 -89.5 -5
s-60.167 -4.33301 -87.5 -7s-47.666 -4.66699 -60.999 -6c-12.667 -1.33301 -22.667 0.666992 -30 6s-12.333 10.333 -15 15c-8.66699 14.667 -16.834 29.334 -24.501 44.001s-11.5 27.334 -11.5 38.001c0 8.66699 2.66699 15.5 8 20.5s9.66602 7.5 12.999 7.5
c17.333 0 41.5 1.16699 72.5 3.5s63 4.83301 96 7.5s64.5 5 94.5 7s52.667 2.33301 68 1z" />
    <glyph glyph-name="twosuperior" unicode="&#xb2;" horiz-adv-x="318" 
d="M277 652c1.33301 -2 2.5 -6.83008 3.5 -14.4971s0.166992 -16.167 -2.5 -25.5c-2.66699 -14 -8.33398 -27.5 -17.001 -40.5s-18.334 -25.833 -29.001 -38.5s-21.834 -25.334 -33.501 -38.001s-22.5 -26 -32.5 -40c-4 -4 -3.66699 -7 1 -9h38
c14 -0.666992 24.667 -2 32 -4s12.666 -4 15.999 -6c5.33301 -2 10.166 -9.33301 14.499 -22s10.166 -27.334 17.499 -44.001c3.33301 -7.33301 4 -14 2 -20s-6.66699 -10 -14 -12c-3.33301 -1.33301 -14.5 0.166992 -33.5 4.5s-41.5 7.16602 -67.5 8.49902h-19
c-4.66699 0 -8.66699 -0.166992 -12 -0.5s-6.83301 -0.5 -10.5 -0.5h-15.5c-12 -2 -20.333 -2.33301 -25 -1s-9.66699 4.33301 -15 9c-1.33301 0.666992 -4.83301 3 -10.5 7s-11.834 8.66699 -18.501 14s-12.5 10.833 -17.5 16.5s-7.5 10.167 -7.5 13.5c0 6.66699 2 12 6 16
c6.66699 14 15.834 28.5 27.501 43.5s24 30 37 45s25.667 29.5 38 43.5s22.166 26.667 29.499 38h-1c3.33301 5.33301 5.33301 9.66602 6 12.999s-2.66602 5 -9.99902 5c-5.33301 0.666992 -14.666 -0.833008 -27.999 -4.5s-24.666 -7.5 -33.999 -11.5
c-7.33301 -4 -12.666 -4.5 -15.999 -1.5s-6.33301 6.16699 -9 9.5l-23 57c-2.66699 7.33301 -3 12.5 -1 15.5s6.66699 6.16699 14 9.5c9.33301 4.66699 19.166 8.83398 29.499 12.501s20.333 6.66699 30 9s18.834 4.33301 27.501 6s15.334 2.5 20.001 2.5
c8 0.666992 17.333 -1 28 -5s21.334 -9.16699 32.001 -15.5s20.834 -13.333 30.501 -21s17.167 -15.5 22.5 -23.5z" />
    <glyph glyph-name="threesuperior" unicode="&#xb3;" horiz-adv-x="312" 
d="M79 606c-10 0.666992 -15.667 2.33398 -17 5.00098s-4.66602 7.66699 -9.99902 15c-2 2 -5.5 8.83301 -10.5 20.5s-8.5 24.167 -10.5 37.5c-1.33301 4 -0.666016 7.66699 2.00098 11s6 5.33301 10 6c13.333 1.33301 31.5 4.5 54.5 9.5s54.5 8.5 94.5 10.5
c13.333 0.666992 23.5 -1.83301 30.5 -7.5s12.167 -9.5 15.5 -11.5c6 -2.66699 13.333 -8.66699 22 -18s15.334 -16.666 20.001 -21.999c1.33301 -2 1.66602 -5.66699 0.999023 -11s-2 -11.166 -4 -17.499s-4.66699 -12.5 -8 -18.5s-6.66602 -10.667 -9.99902 -14l-1 -1
c-10.667 -16.667 -20 -30.667 -28 -42s-15.667 -19.666 -23 -24.999l-1 -1c12.667 -4.66699 23.167 -9.66699 31.5 -15s14.833 -11.5 19.5 -18.5s7.66699 -15.833 9 -26.5s1 -24 -1 -40c-1.33301 -12.667 -5.83301 -25 -13.5 -37s-17 -22.667 -28 -32s-23 -16.833 -36 -22.5
s-25.833 -8.5 -38.5 -8.5c-21.333 0 -38.5 3.33301 -51.5 10s-24.833 16 -35.5 28c-8.66699 9.33301 -15.834 19.166 -21.501 29.499s-8.83398 17.833 -9.50098 22.5c-0.666992 5.33301 0.666016 9.33301 3.99902 12s6.66602 4.66699 9.99902 6
c7.33301 2 13.833 1.5 19.5 -1.5s11.834 -5.83301 18.501 -8.5c16 -7.33301 31.667 -8.5 47 -3.5s25.666 16.167 30.999 33.5c3.33301 8 3.16602 15.167 -0.500977 21.5s-8.5 10.833 -14.5 13.5c-2.66699 1.33301 -5.5 1.16602 -8.5 -0.500977
s-6.83301 -2.83398 -11.5 -3.50098c-3.33301 -0.666992 -5.16602 0 -5.49902 2s-1.16602 4 -2.49902 6c-2 1.33301 -5 5.5 -9 12.5s-7 11.5 -9 13.5c-1.33301 3.33301 -3 6.5 -5 9.5s-1.33301 5.83301 2 8.5c6 4 12 7.66699 18 11s11.833 7.5 17.5 12.5s11.5 11.5 17.5 19.5
s12 18.333 18 31c-3.33301 0 -6.83301 0.166992 -10.5 0.5s-7.5 0.5 -11.5 0.5c-20 0 -34.333 -1.83301 -43 -5.5s-16.667 -5.83398 -24 -6.50098z" />
    <glyph glyph-name="acute" unicode="&#xb4;" horiz-adv-x="279" 
d="M155 717c6 5.33301 14.6699 7.00488 26.0029 5.00488c2.66699 0 6.5 -2.16699 11.5 -6.5s10.5 -9.5 16.5 -15.5s12 -12.333 18 -19s11 -12.667 15 -18c4.66699 -6.66699 6.66699 -12.334 6 -17.001s-2.66699 -8.66699 -6 -12
c-9.33301 -8.66699 -19.833 -18.167 -31.5 -28.5s-23.334 -20.833 -35.001 -31.5s-22.5 -20.667 -32.5 -30s-18 -17.333 -24 -24c-8.66699 -8.66699 -17.167 -12.834 -25.5 -12.501s-14.833 1.16602 -19.5 2.49902c-6.66699 3.33301 -11.834 5.66602 -15.501 6.99902
s-6.5 2.66602 -8.5 3.99902s-3.83301 2.83301 -5.5 4.5l-7.5 7.5c-5.33301 7.33301 -7.5 14.333 -6.5 21s2.83301 10.667 5.5 12c8 10.667 17 23 27 37s20.167 28 30.5 42s20.666 27.5 30.999 40.5s20.5 23.5 30.5 31.5z" />
    <glyph glyph-name="mu" unicode="&#xb5;" horiz-adv-x="506" 
d="M295 83l-2.99609 28.9941v4l-3 13c-1.33301 3.33301 -3 4.83301 -5 4.5s-3.83301 -1.66602 -5.5 -3.99902s-3.33398 -4.83301 -5.00098 -7.5s-2.5 -4.33398 -2.5 -5.00098c-8 -16 -15.667 -31.167 -23 -45.5s-14.666 -26.5 -21.999 -36.5
c-4 -5.33301 -10.167 -11 -18.5 -17s-17.166 -11.667 -26.499 -17c-4 -44.667 -7.66699 -89.667 -11 -135s-6.66602 -90 -9.99902 -134c-0.666992 -14 -8.66699 -21 -24 -21c-16 0 -30.667 3 -44 9s-25.166 13.667 -35.499 23s-19.333 19.5 -27 30.5
s-14.167 21.5 -19.5 31.5c-3.33301 2 -5.83301 6.5 -7.5 13.5s-2.5 14.167 -2.5 21.5c0 34 1.5 73.167 4.5 117.5s7.16699 89.5 12.5 135.5v2c0 0.666992 0.166992 1.33398 0.5 2.00098s0.5 1.66699 0.5 3c1.33301 28 3.16602 51.167 5.49902 69.5
s4.66602 37.5 6.99902 57.5s4.5 43.167 6.5 69.5s3.33301 61.166 4 104.499c0 3.33301 1 8 3 14s4.66699 11.833 8 17.5s7 10.5 11 14.5s8 6 12 6c33.333 0 63.166 -2 89.499 -6s45.166 -13.667 56.499 -29c6.66699 -8.66699 10 -19.667 10 -33
c-0.666992 -15.333 -2.66699 -32.333 -6 -51l-10 -56l1 1l-4 -26c-0.666992 -2 -1 -5.33301 -1 -10l-3 -37c1.33301 -6 3.66602 -9.33301 6.99902 -10c5.33301 -2 11.833 0.333008 19.5 7s14.5 13.334 20.5 20.001c3.33301 4.66699 6.66602 8.83398 9.99902 12.501
s6.66602 7.5 9.99902 11.5v3c3.33301 24 7.33301 50.333 12 79s7.66699 60 9 94c1.33301 14 9 21 23 21c16.667 0 32.5 0.166992 47.5 0.5s28.833 0 41.5 -1s23.834 -3.16699 33.501 -6.5s17.5 -8.66602 23.5 -15.999c7.33301 -10 10.666 -21 9.99902 -33
c-1.33301 -31.333 -3.5 -64.166 -6.5 -98.499s-6 -67.166 -9 -98.499s-5.66699 -60 -8 -86s-3.5 -46.333 -3.5 -61c0 -9.33301 -2.83301 -18.166 -8.5 -26.499s-12.5 -12.5 -20.5 -12.5c-17.333 0 -33.833 2.83301 -49.5 8.5s-30.167 11.167 -43.5 16.5
c-8 3.33301 -15 11 -21 23s-9.33301 22 -10 30z" />
    <glyph glyph-name="paragraph" unicode="&#xb6;" horiz-adv-x="542" 
d="M521 622c-4.66699 -27.333 -11.1641 -63.334 -19.4971 -108.001s-16.5 -93.834 -24.5 -147.501s-14.833 -110.167 -20.5 -169.5s-8.5 -117.333 -8.5 -174c0 -14 -7.33301 -21 -22 -21c-16 0 -29 2.33301 -39 7s-18.167 10.5 -24.5 17.5s-11.666 14.667 -15.999 23
s-9.5 16.166 -15.5 23.499c-6.66699 11.333 -10 22 -10 32c0 29.333 1.83301 63.5 5.5 102.5s8.16699 79 13.5 120s11.166 81.5 17.499 121.5s12.5 75.667 18.5 107l-44 6c-5.33301 -32.667 -11.5 -70.167 -18.5 -112.5s-13.667 -87.333 -20 -135s-12 -96.667 -17 -147
s-8.5 -99.5 -10.5 -147.5c-0.666992 -14 -8 -21 -22 -21c-16 0 -29 2 -39 6s-18 9.33301 -24 16s-11 13.834 -15 21.501s-8 15.167 -12 22.5c-6.66699 11.333 -10 22 -10 32c0 30 1.83301 64.667 5.5 104s8.16699 80 13.5 122c-49.333 14.667 -85.5 34.5 -108.5 59.5
s-34.5 54.5 -34.5 88.5c0 40 7.83301 75.5 23.5 106.5s35.667 57.333 60 79s51 38 80 49s56.833 16.5 83.5 16.5c6.66699 0 16.167 -1.16699 28.5 -3.5s25.166 -5 38.499 -8s26.5 -6.16699 39.5 -9.5s23.167 -6.33301 30.5 -9c27.333 -8.66699 49.166 -16.167 65.499 -22.5
s28.5 -12.166 36.5 -17.499l5 -3c7.33301 -5.33301 10.333 -10 9 -14c1.33301 -5.33301 1.66602 -9.66602 0.999023 -12.999z" />
    <glyph glyph-name="periodcentered" unicode="&#xb7;" horiz-adv-x="226" 
d="M195 397c-2 -12.667 -3.66602 -23 -4.99902 -31s-2.66602 -15.167 -3.99902 -21.5s-2.83301 -12.333 -4.5 -18s-3.5 -12.5 -5.5 -20.5c-2 -6 -4.16699 -10.667 -6.5 -14s-7.16602 -5 -14.499 -5c-30.667 0 -54.834 2.5 -72.501 7.5s-32.167 14.5 -43.5 28.5
c-6 8 -9 18 -9 30c0 17.333 1.16699 34.166 3.5 50.499s5.16602 30.833 8.49902 43.5c1.33301 4 3.5 7.83301 6.5 11.5s8.16699 5.5 15.5 5.5c15.333 0 33.166 -1 53.499 -3s38.5 -8.33301 54.5 -19c6 -4 11.667 -10.667 17 -20s7.33301 -17.666 6 -24.999z" />
    <glyph glyph-name="cedilla" unicode="&#xb8;" horiz-adv-x="259" 
d="M32 -99c7.33301 16.667 14.334 33.001 21.001 49.001s17 32.667 31 50h103c-2.66699 -2.66699 -6 -7.16699 -10 -13.5s-7.83301 -13.166 -11.5 -20.499l-10.5 -21c-3.33301 -6.66699 -6 -11.667 -8 -15c74.667 -4 112 -39.667 112 -107
c0 -21.333 -3.83301 -40.5 -11.5 -57.5s-17.667 -31.5 -30 -43.5s-26.333 -21.333 -42 -28s-31.5 -10 -47.5 -10c-27.333 0 -50.166 4 -68.499 12s-34.5 18.333 -48.5 31c-5.33301 5.33301 -8.83301 9 -10.5 11s0.166016 6 5.49902 12l32 55
c5.33301 5.33301 8.5 7.83301 9.5 7.5s4.83301 -2.5 11.5 -6.5c7.33301 -4 16.333 -9.33301 27 -16s19 -10 25 -10c10.667 0 20.167 4 28.5 12s12.5 17.333 12.5 28c0 11.333 -3.66699 18.833 -11 22.5s-12 6.16699 -14 7.5c-6 1.33301 -12.333 -0.333984 -19 -5.00098
c-6 -4.66699 -11 -7.5 -15 -8.5s-9 0.166992 -15 3.5c-6.66699 4 -13.334 9.5 -20.001 16.5s-13.334 12.5 -20.001 16.5c-6 3.33301 -9.16699 7.16602 -9.5 11.499s0.833984 9.83301 3.50098 16.5z" />
    <glyph glyph-name="onesuperior" unicode="&#xb9;" horiz-adv-x="262" 
d="M221 681c-2.66699 -15.333 -5.66797 -35.166 -9.00098 -59.499s-7 -51 -11 -80s-7.83301 -59.5 -11.5 -91.5s-6.83398 -63.667 -9.50098 -95c0 -7.33301 -4 -11 -12 -11c-6.66699 0 -14.167 1.66699 -22.5 5s-16.5 7.33301 -24.5 12s-15.5 9.5 -22.5 14.5
s-12.5 8.83301 -16.5 11.5c-2.66699 2 -4.5 5 -5.5 9s-1.5 7.66699 -1.5 11c0 20.667 1.5 43.334 4.5 68.001s6.16699 50 9.5 76c-9.33301 4.66699 -17.666 9 -24.999 13c-7.33301 3.33301 -13.666 6.66602 -18.999 9.99902s-8.66602 6 -9.99902 8
c-2.66699 4 -4.33398 8.16699 -5.00098 12.5s3.33301 8.83301 12 13.5c8.66699 5.33301 16.834 13.166 24.501 23.499s14.667 20.833 21 31.5s11.666 20.5 15.999 29.5s6.83301 14.5 7.5 16.5c2.66699 6.66699 7.33398 10 14.001 10c4.66699 0 10.5 -0.333008 17.5 -1
s14.5 -1.66699 22.5 -3s15.5 -3 22.5 -5s12.833 -4.66699 17.5 -8c3.33301 -2 7.16602 -5 11.499 -9s5.83301 -8 4.5 -12z" />
    <glyph glyph-name="ordmasculine" unicode="&#xba;" horiz-adv-x="370" 
d="M190 725c16 0 32.3359 -2 49.0029 -6s29.667 -9 39 -15c5.33301 -2.66699 11 -7.16699 17 -13.5s11.5 -14.5 16.5 -24.5s9.33301 -22.167 13 -36.5s5.5 -30.833 5.5 -49.5c0 -25.333 -3.66699 -50 -11 -74s-17 -45.333 -29 -64s-25.333 -33.667 -40 -45
s-29.334 -17 -44.001 -17c-16.667 0 -33.334 2.66699 -50.001 8s-30.334 10.333 -41.001 15c-14.667 6 -27.334 18.333 -38.001 37s-16 47 -16 85c0 28 3.5 54.167 10.5 78.5s16.5 45.5 28.5 63.5s25.833 32.167 41.5 42.5s31.834 15.5 48.501 15.5zM207.003 627
c-5.33301 0 -8.16797 -0.5 -8.50098 -1.5s-1.16602 -2.16699 -2.49902 -3.5c-5.33301 -5.33301 -12.166 -16.5 -20.499 -33.5s-12.5 -37.5 -12.5 -61.5c0 -12.667 0.666992 -22.5 2 -29.5s3 -12.333 5 -16s4 -6 6 -7s3.66699 -1.5 5 -1.5
c5.33301 0 10.833 4.83301 16.5 14.5s11.167 21 16.5 34s9.66602 25.833 12.999 38.5s5 21.667 5 27c0 15.333 -2.33301 25.833 -7 31.5s-10.667 8.5 -18 8.5zM272.001 326c8.66699 2 17 -1.6709 25 -11.0039c4 -4.66699 9.5 -14 16.5 -28s10.5 -28.333 10.5 -43
c0 -18.667 -6.33301 -27.334 -19 -26.001c-15.333 0.666992 -32.666 0.333984 -51.999 -0.999023s-38.833 -3 -58.5 -5s-38.5 -4.33301 -56.5 -7s-33.667 -4.66699 -47 -6c-12.667 -1.33301 -22.667 0.666992 -30 6s-12.333 10.333 -15 15
c-8.66699 14.667 -15.167 27.667 -19.5 39s-6.5 22.333 -6.5 33c0 8.66699 2.66699 15.334 8 20.001s9.66602 7.33398 12.999 8.00098c17.333 2 36.333 3.66699 57 5s41.167 2.33301 61.5 3s40.333 0.833984 60 0.500977s37.167 -1.16602 52.5 -2.49902z" />
    <glyph glyph-name="guillemotright" unicode="&#xbb;" horiz-adv-x="553" 
d="M494 189c-18.667 -33.333 -37.166 -63.8369 -55.499 -91.5039s-38.5 -55.5 -60.5 -83.5c-5.33301 -6 -12 -10.667 -20 -14s-16 -3 -24 1c-4.66699 2 -10.667 5.83301 -18 11.5s-14.833 11.667 -22.5 18s-15 12.833 -22 19.5s-12.5 12.334 -16.5 17.001
c-3.33301 4.66699 -5.5 11.5 -6.5 20.5s2.16699 18.5 9.5 28.5c9.33301 12 21.5 28.167 36.5 48.5s30.167 41.166 45.5 62.499c-15.333 23.333 -31.5 47 -48.5 71s-31.167 43.667 -42.5 59c-7.33301 10 -10.666 19.5 -9.99902 28.5s2.66699 15.833 6 20.5
c4 4.66699 10.5 10.334 19.5 17.001s18.667 13.334 29 20.001s20.166 12.667 29.499 18l21 12c4 2 8.16699 2.83301 12.5 2.5s8.66602 -1.5 12.999 -3.5s8.16602 -4.16699 11.499 -6.5s5.66602 -4.16602 6.99902 -5.49902c22.667 -25.333 43.167 -54.666 61.5 -87.999
s36.833 -68.333 55.5 -105c2.66699 -6 4.33398 -11.5 5.00098 -16.5s1.33398 -9.83301 2.00098 -14.5c0.666992 -5.33301 -0.5 -11.833 -3.5 -19.5s-7.16699 -15.5 -12.5 -23.5zM254.001 188.996c-9.33301 -16.667 -17.668 -32.3311 -25.001 -46.998
s-14.666 -28.834 -21.999 -42.501s-15 -27.167 -23 -40.5s-17.667 -27 -29 -41c-5.33301 -6 -12 -10.667 -20 -14s-16 -3 -24 1c-4.66699 2 -10.834 6.16699 -18.501 12.5s-15.667 13.333 -24 21s-16.333 15.167 -24 22.5s-13.5 13.333 -17.5 18
c-3.33301 4.66699 -5.5 11.5 -6.5 20.5s2.16699 18.5 9.5 28.5c10.667 14.667 24.5 32.5 41.5 53.5s33.167 42.167 48.5 63.5c-14 19.333 -29 37.666 -45 54.999s-30.333 34.666 -43 51.999c-7.33301 10 -10.666 20.167 -9.99902 30.5s2.66699 17.833 6 22.5
c4 4.66699 9.33301 10 16 16s13.667 12 21 18s14.5 11.333 21.5 16s12.833 8.33398 17.5 11.001c4 2 9 3 15 3s12 -0.833008 18 -2.5s11.667 -4 17 -7s9.33301 -6.5 12 -10.5c11.333 -18.667 21.166 -35.167 29.499 -49.5s16 -28.333 23 -42s14.167 -27.667 21.5 -42
s15.666 -30.5 24.999 -48.5c2.66699 -6 4.33398 -11.5 5.00098 -16.5s1.33398 -9.83301 2.00098 -14.5c0.666992 -5.33301 -0.5 -11.833 -3.5 -19.5s-7.16699 -15.5 -12.5 -23.5z" />
    <glyph glyph-name="onequarter" unicode="&#xbc;" horiz-adv-x="759" 
d="M671 601c-30.667 -28.667 -68.3281 -66.8291 -112.995 -114.496s-91.334 -99.667 -140.001 -156s-97 -114.5 -145 -174.5s-91 -116.667 -129 -170c-8.66699 -12.667 -19.334 -16 -32.001 -10c-8.66699 4 -16.167 7.66699 -22.5 11s-12.333 7 -18 11
s-11.5 8.83301 -17.5 14.5s-12.667 13.167 -20 22.5c-3.33301 4.66699 -4.33301 10.167 -3 16.5s3.66602 12.166 6.99902 17.499c16 27.333 38.333 60.166 67 98.499s60.5 78.666 95.5 120.999s71.333 85.166 109 128.499s73.667 83.333 108 120s65.333 68.334 93 95.001
s48.834 45 63.501 55c4 2.66699 9.16699 5.66699 15.5 9s13.166 3.33301 20.499 0c15.333 -7.33301 26.166 -15.5 32.499 -24.5s14.166 -19.5 23.499 -31.5c5.33301 -6.66699 9 -13.334 11 -20.001s0 -13 -6 -19zM683.006 182.005
c3.33301 0.666992 6.16309 0.168945 8.49609 -1.49805s4.5 -3.5 6.5 -5.5c1.33301 -1.33301 3.16602 -4.16602 5.49902 -8.49902s4.66602 -9.16602 6.99902 -14.499s4.33301 -10.833 6 -16.5s2.5 -10.5 2.5 -14.5c0 -10.667 -3.33301 -15.334 -10 -14.001
c-5.33301 0 -14 -0.166992 -26 -0.5s-25.667 -1.16602 -41 -2.49902c-2.66699 -18.667 -4.83398 -37.334 -6.50098 -56.001s-3.16699 -37.334 -4.5 -56.001c0 -4 -1.16699 -7.33301 -3.5 -10s-5.16602 -3.33398 -8.49902 -2.00098
c-19.333 8.66699 -36.666 17.334 -51.999 26.001s-26.666 17.334 -33.999 26.001c-3.33301 4 -5 10 -5 18v21.5c0 7.66699 0.333008 15.5 1 23.5c-15.333 -1.33301 -29 -2.5 -41 -3.5s-20.333 -1.83301 -25 -2.5c-7.33301 -0.666992 -13 0.5 -17 3.5
s-6.66699 5.83301 -8 8.5c-4.66699 8 -9.16699 14.667 -13.5 20s-6.5 11 -6.5 17c0 4 1 7 3 9c4.66699 12 11.834 27.833 21.501 47.5s20.667 40.167 33 61.5s25.666 42.166 39.999 62.499s28.5 37.5 42.5 51.5c4 4 8.5 5.5 13.5 4.5s9.5 -2.5 13.5 -4.5
c6 -0.666992 12.833 -2 20.5 -4s15.334 -4.33301 23.001 -7s14.834 -5.5 21.501 -8.5s11.334 -5.83301 14.001 -8.5c4 -2.66699 7.33301 -4.83398 10 -6.50098s3.33398 -4.83398 2.00098 -9.50098c-2.66699 -16 -6 -36.333 -10 -61s-8.33301 -52 -13 -82h16.5
c5 0 9.5 -0.333008 13.5 -1zM545.003 245.007c-11.333 -16 -20.667 -31.501 -28 -46.501s-12 -25.833 -14 -32.5c5.33301 0.666992 10.833 1.33398 16.5 2.00098s11.167 1.66699 16.5 3zM225.002 681.006c-2.66699 -15.333 -5.66797 -35.166 -9.00098 -59.499
s-7 -51 -11 -80s-7.83301 -59.5 -11.5 -91.5s-6.83398 -63.667 -9.50098 -95c0 -7.33301 -4 -11 -12 -11c-6.66699 0 -13.5 1.66699 -20.5 5s-14 7.33301 -21 12s-13.5 9.5 -19.5 14.5s-11 8.83301 -15 11.5c-2.66699 2 -4.5 5 -5.5 9s-1.5 7.66699 -1.5 11
c0 20.667 1.5 43.334 4.5 68.001s6.16699 50 9.5 76c-9.33301 4.66699 -17.666 9 -24.999 13c-7.33301 3.33301 -13.666 6.66602 -18.999 9.99902s-8.66602 6 -9.99902 8c-2.66699 4 -4.33398 8.16699 -5.00098 12.5s3.33301 8.83301 12 13.5
c8.66699 5.33301 16.834 13.166 24.501 23.499s14.667 20.833 21 31.5s11.666 20.5 15.999 29.5s6.83301 14.5 7.5 16.5c2.66699 6.66699 7.33398 10 14.001 10c9.33301 0 21 -1.33301 35 -4s25.667 -7 35 -13c3.33301 -2 7.16602 -5 11.499 -9s5.83301 -8 4.5 -12z" />
    <glyph glyph-name="onehalf" unicode="&#xbd;" horiz-adv-x="775" 
d="M681 601c-30.667 -28.667 -68.3281 -66.8291 -112.995 -114.496s-91.334 -99.667 -140.001 -156s-97 -114.5 -145 -174.5s-91 -116.667 -129 -170c-8.66699 -12.667 -19.334 -16 -32.001 -10c-8.66699 4 -16.167 7.66699 -22.5 11s-12.333 7 -18 11
s-11.5 8.83301 -17.5 14.5s-12.667 13.167 -20 22.5c-3.33301 4.66699 -4.33301 10.167 -3 16.5s3.66602 12.166 6.99902 17.499c16 27.333 38.333 60.166 67 98.499s60.5 78.666 95.5 120.999s71.333 85.166 109 128.499s73.667 83.333 108 120s65.333 68.334 93 95.001
s48.834 45 63.501 55c4 2.66699 9.16699 5.66699 15.5 9s13.166 3.33301 20.499 0c15.333 -7.33301 26.166 -15.5 32.499 -24.5s14.166 -19.5 23.499 -31.5c5.33301 -6.66699 9 -13.334 11 -20.001s0 -13 -6 -19zM705.006 262.005
c-2.66699 -14 -8.33398 -27.4971 -17.001 -40.4971s-18.334 -25.833 -29.001 -38.5s-21.834 -25.334 -33.501 -38.001s-22.5 -26 -32.5 -40c-4 -4 -3.33301 -7 2 -9h37c14 -0.666992 24.667 -2 32 -4s12.666 -4 15.999 -6c5.33301 -2 10.166 -9.33301 14.499 -22
s10.166 -27.334 17.499 -44.001c3.33301 -7.33301 4 -14 2 -20s-6.66699 -10 -14 -12c-3.33301 -1.33301 -14.5 0.166992 -33.5 4.5s-41.5 7.16602 -67.5 8.49902h-19c-4.66699 0 -8.66699 -0.166992 -12 -0.5s-6.83301 -0.5 -10.5 -0.5h-15.5
c-12 -2 -20.333 -2.33301 -25 -1s-9.66699 4.33301 -15 9c-1.33301 0.666992 -4.83301 3 -10.5 7s-11.834 8.66699 -18.501 14s-12.5 10.833 -17.5 16.5s-7.5 10.167 -7.5 13.5c0 6.66699 2 12 6 16c6.66699 14 15.834 28.5 27.501 43.5s24 30 37 45s25.667 29.5 38 43.5
s22.166 26.667 29.499 38h-1c3.33301 5.33301 5.33301 9.66602 6 12.999s-2.66602 5 -9.99902 5c-5.33301 0.666992 -14.666 -0.833008 -27.999 -4.5s-24.666 -7.5 -33.999 -11.5c-7.33301 -4 -12.666 -4.5 -15.999 -1.5s-6.33301 6.16699 -9 9.5l-23 57
c-2.66699 7.33301 -3 12.5 -1 15.5s6.66699 6.16699 14 9.5c9.33301 4.66699 19.166 8.83398 29.499 12.501s20.333 6.66699 30 9s18.834 4.33301 27.501 6s15.334 2.5 20.001 2.5c8 0.666992 17.333 -1 28 -5s21.334 -9.16699 32.001 -15.5s20.834 -13.333 30.501 -21
s17.167 -15.5 22.5 -23.5c1.33301 -2 2.5 -6.83301 3.5 -14.5s0.166992 -16.167 -2.5 -25.5zM235.006 681.008c-2.66699 -15.333 -5.66797 -35.166 -9.00098 -59.499s-7 -51 -11 -80s-7.83301 -59.5 -11.5 -91.5s-6.83398 -63.667 -9.50098 -95c0 -7.33301 -4 -11 -12 -11
c-6.66699 0 -13.5 1.66699 -20.5 5s-14 7.33301 -21 12s-13.5 9.5 -19.5 14.5s-11 8.83301 -15 11.5c-2.66699 2 -4.5 5 -5.5 9s-1.5 7.66699 -1.5 11c0 20.667 1.5 43.334 4.5 68.001s6.16699 50 9.5 76c-9.33301 4.66699 -17.666 9 -24.999 13
c-7.33301 3.33301 -13.666 6.66602 -18.999 9.99902s-8.66602 6 -9.99902 8c-2.66699 4 -4.33398 8.16699 -5.00098 12.5s3.33301 8.83301 12 13.5c8.66699 5.33301 16.834 13.166 24.501 23.499s14.667 20.833 21 31.5s11.666 20.5 15.999 29.5s6.83301 14.5 7.5 16.5
c2.66699 6.66699 7.33398 10 14.001 10c9.33301 0 21 -1.33301 35 -4s25.667 -7 35 -13c3.33301 -2 7.16602 -5 11.499 -9s5.83301 -8 4.5 -12z" />
    <glyph glyph-name="threequarters" unicode="&#xbe;" horiz-adv-x="770" 
d="M682 601c-30.667 -28.667 -68.3281 -66.8291 -112.995 -114.496s-91.334 -99.667 -140.001 -156s-97 -114.5 -145 -174.5s-91 -116.667 -129 -170c-8.66699 -12.667 -19.334 -16 -32.001 -10c-8.66699 4 -16.167 7.66699 -22.5 11s-12.333 7 -18 11
s-11.5 8.83301 -17.5 14.5s-12.667 13.167 -20 22.5c-3.33301 4.66699 -4.33301 10.167 -3 16.5s3.66602 12.166 6.99902 17.499c16 27.333 38.333 60.166 67 98.499s60.5 78.666 95.5 120.999s71.333 85.166 109 128.499s73.667 83.333 108 120s65.333 68.334 93 95.001
s48.834 45 63.501 55c4 2.66699 9.16699 5.66699 15.5 9s13.166 3.33301 20.499 0c15.333 -7.33301 26.166 -15.5 32.499 -24.5s14.166 -19.5 23.499 -31.5c5.33301 -6.66699 9 -13.334 11 -20.001s0 -13 -6 -19zM694.006 182.005
c3.33301 0.666992 6.16309 0.168945 8.49609 -1.49805s4.5 -3.5 6.5 -5.5c1.33301 -1.33301 3.16602 -4.16602 5.49902 -8.49902s4.66602 -9.16602 6.99902 -14.499s4.33301 -10.833 6 -16.5s2.5 -10.5 2.5 -14.5c0 -10.667 -3.33301 -15.334 -10 -14.001
c-5.33301 0 -14 -0.166992 -26 -0.5s-25.667 -1.16602 -41 -2.49902c-2.66699 -18.667 -4.83398 -37.334 -6.50098 -56.001s-3.16699 -37.334 -4.5 -56.001c0 -4 -1.16699 -7.33301 -3.5 -10s-5.16602 -3.33398 -8.49902 -2.00098
c-19.333 8.66699 -36.666 17.334 -51.999 26.001s-26.666 17.334 -33.999 26.001c-3.33301 4 -5 10 -5 18v21.5c0 7.66699 0.333008 15.5 1 23.5c-15.333 -1.33301 -29 -2.5 -41 -3.5s-20.333 -1.83301 -25 -2.5c-7.33301 -0.666992 -13 0.5 -17 3.5
s-6.66699 5.83301 -8 8.5c-4.66699 8 -9.16699 14.667 -13.5 20s-6.5 11 -6.5 17c0 4 1 7 3 9c4.66699 12 11.834 27.833 21.501 47.5s20.667 40.167 33 61.5s25.666 42.166 39.999 62.499s28.5 37.5 42.5 51.5c4 4 8.5 5.5 13.5 4.5s9.5 -2.5 13.5 -4.5
c6 -0.666992 12.833 -2 20.5 -4s15.334 -4.33301 23.001 -7s14.834 -5.5 21.501 -8.5s11.334 -5.83301 14.001 -8.5c4 -2.66699 7.33301 -4.83398 10 -6.50098s3.33398 -4.83398 2.00098 -9.50098c-2.66699 -16 -6 -36.333 -10 -61s-8.33301 -52 -13 -82h16.5
c5 0 9.5 -0.333008 13.5 -1zM556.003 245.007c-11.333 -16 -20.667 -31.501 -28 -46.501s-12 -25.833 -14 -32.5c5.33301 0.666992 10.833 1.33398 16.5 2.00098s11.167 1.66699 16.5 3zM59.002 606.006c-10 0.666992 -15.667 2.33398 -17 5.00098
s-4.66602 7.66699 -9.99902 15c-2 2 -5.5 8.83301 -10.5 20.5s-8.5 24.167 -10.5 37.5c-1.33301 4 -0.666016 7.66699 2.00098 11s6 5.33301 10 6c13.333 1.33301 31.5 4.5 54.5 9.5s54.5 8.5 94.5 10.5c13.333 0.666992 23.5 -1.83301 30.5 -7.5s12.167 -9.5 15.5 -11.5
c6 -2.66699 13.333 -8.66699 22 -18s15.334 -16.666 20.001 -21.999c1.33301 -2 1.66602 -5.66699 0.999023 -11s-2 -11.166 -4 -17.499s-4.66699 -12.5 -8 -18.5s-6.66602 -10.667 -9.99902 -14l-1 -1c-10.667 -16.667 -20 -30.667 -28 -42s-15.667 -19.666 -23 -24.999
l-1 -1c12.667 -4.66699 23.167 -9.66699 31.5 -15s14.833 -11.5 19.5 -18.5s7.66699 -15.833 9 -26.5s1 -24 -1 -40c-1.33301 -12.667 -5.83301 -25 -13.5 -37s-17 -22.667 -28 -32s-23 -16.833 -36 -22.5s-25.833 -8.5 -38.5 -8.5c-21.333 0 -38.5 3.33301 -51.5 10
s-24.833 16 -35.5 28c-8.66699 9.33301 -15.834 19.166 -21.501 29.499s-8.83398 17.833 -9.50098 22.5c-0.666992 5.33301 0.666016 9.33301 3.99902 12s6.66602 4.66699 9.99902 6c7.33301 2 13.833 1.5 19.5 -1.5s11.834 -5.83301 18.501 -8.5
c16 -7.33301 31.667 -8.5 47 -3.5s25.666 16.167 30.999 33.5c3.33301 8 3.16602 15.167 -0.500977 21.5s-8.5 10.833 -14.5 13.5c-2.66699 1.33301 -5.5 1.16602 -8.5 -0.500977s-6.83301 -2.83398 -11.5 -3.50098c-3.33301 -0.666992 -5.16602 0 -5.49902 2
s-1.16602 4 -2.49902 6c-2 1.33301 -5 5.5 -9 12.5s-7 11.5 -9 13.5c-1.33301 3.33301 -3 6.5 -5 9.5s-1.33301 5.83301 2 8.5c6 4 12 7.66699 18 11s11.833 7.5 17.5 12.5s11.5 11.5 17.5 19.5s12 18.333 18 31c-3.33301 0 -6.83301 0.166992 -10.5 0.5s-7.5 0.5 -11.5 0.5
c-20 0 -34.333 -1.83301 -43 -5.5s-16.667 -5.83398 -24 -6.50098z" />
    <glyph glyph-name="questiondown" unicode="&#xbf;" horiz-adv-x="447" 
d="M-28 -43c0.666992 30 7.3291 54.502 19.9961 73.502s27.834 35.167 45.501 48.5s36.167 25.666 55.5 36.999s36.333 25 51 41c3.33301 4 7.16602 8.83301 11.499 14.5s8.16602 12.167 11.499 19.5c6.66699 6.66699 13.167 11.5 19.5 14.5s15.166 3.83301 26.499 2.5
c7.33301 -1.33301 19 -3.66602 35 -6.99902s29.667 -10.333 41 -21c4.66699 -4 7.83398 -11.167 9.50098 -21.5s1.83398 -19.5 0.500977 -27.5c-5.33301 -30 -14.333 -52 -27 -66s-25.834 -25.167 -39.501 -33.5s-26 -16.333 -37 -24s-17.5 -19.834 -19.5 -36.501
c-3.33301 -13.333 0 -24.5 10 -33.5s22 -13.833 36 -14.5c8.66699 0 17.334 2.66699 26.001 8s16.5 12.166 23.5 20.499s13 17.5 18 27.5s8.5 19.667 10.5 29c1.33301 7.33301 5.16602 13.166 11.499 17.499s13.5 7.33301 21.5 9s16 1.83398 24 0.500977s14.333 -4 19 -8
l68 -43c4.66699 -4 8.33398 -11.667 11.001 -23s2 -24.333 -2 -39c-6 -22 -15.5 -43.167 -28.5 -63.5s-28 -38.166 -45 -53.499s-35.167 -27.666 -54.5 -36.999s-38.666 -14.333 -57.999 -15c-16 -0.666992 -37.167 1.66602 -63.5 6.99902s-53.166 12.5 -80.499 21.5
s-53 19.5 -77 31.5s-41.667 24.667 -53 38c-2 2 -4.66699 6.66699 -8 14s-6.16602 16 -8.49902 26s-4.16602 20.667 -5.49902 32s-1 22.666 1 33.999zM151.995 324.002c4.66699 28.667 8.16602 52 10.499 70s6.16602 35.667 11.499 53
c2.66699 7.33301 5.33398 12.833 8.00098 16.5s8 5.5 16 5.5c34.667 0 62 -6.16699 82 -18.5s36.333 -26.5 49 -42.5c7.33301 -9.33301 11 -20.666 11 -33.999c0 -19.333 -1.5 -38.333 -4.5 -57s-6.16699 -35.334 -9.5 -50.001c-1.33301 -4.66699 -3.66602 -9 -6.99902 -13
s-9.33301 -6 -18 -6c-17.333 0 -37.5 1.16699 -60.5 3.5s-43.5 9.5 -61.5 21.5c-7.33301 4.66699 -14 12.167 -20 22.5s-8.33301 19.833 -7 28.5z" />
    <glyph glyph-name="Agrave" unicode="&#xc0;" horiz-adv-x="592" 
d="M50 60c-4 4.66699 -6.66602 9.16992 -7.99902 13.5029s-2 10.166 -2 17.499c0 11.333 0.5 23.166 1.5 35.499s2.16699 25.166 3.5 38.499c-5.33301 8.66699 -10.666 18.167 -15.999 28.5s-10.166 20.5 -14.499 30.5s-7.83301 19.333 -10.5 28s-4 15.334 -4 20.001
c0 9.33301 4.66699 14 14 14c14 -1.33301 31.667 -1.33301 53 0c9.33301 38.667 20 77.834 32 117.501s24.667 77.5 38 113.5s27.166 68.833 41.499 98.5s28.166 53.834 41.499 72.501c2.66699 4 5.66699 7 9 9s8.33301 2.33301 15 1
c9.33301 -3.33301 21.5 -6.83301 36.5 -10.5s29.833 -7.83398 44.5 -12.501c0 8 0.333008 13.667 1 17c0.666992 5.33301 2.66699 9.66602 6 12.999s8.66602 5 15.999 5c8 0 18.333 -0.666992 31 -2s25.5 -3.16602 38.5 -5.49902s25.333 -4.83301 37 -7.5
s20.834 -5.33398 27.501 -8.00098c8 -3.33301 13.5 -7 16.5 -11s5.16699 -9.66699 6.5 -17c0.666992 -7.33301 1.5 -23.833 2.5 -49.5s2.5 -58 4.5 -97s4.83301 -83.333 8.5 -133s8.5 -102.167 14.5 -157.5c6 -58 11.667 -104.167 17 -138.5s8.33301 -54.833 9 -61.5
c2 -14 -4.66699 -21 -20 -21c-16 0 -32.333 0.5 -49 1.5s-32.667 2.66699 -48 5s-29 5.5 -41 9.5s-21.667 9.33301 -29 16c-4.66699 4 -8.83398 15.5 -12.501 34.5s-7.16699 43.5 -10.5 73.5c-18 -2 -36.833 -3.83301 -56.5 -5.5s-39.834 -3.16699 -60.501 -4.5
c-3.33301 -37.333 -4.33301 -73 -3 -107c0 -6.66699 -1.5 -12.167 -4.5 -16.5s-8.16699 -6.5 -15.5 -6.5c-16 0 -32 1.5 -48 4.5s-31.333 7.16699 -46 12.5s-27.667 11.666 -39 18.999s-20.666 15 -27.999 23zM337.001 301.003c-2.66699 36 -4.83301 72.1641 -6.5 108.497
s-3.16699 71.5 -4.5 105.5c0 8 -2.66699 12.667 -8 14c-4 0.666992 -7.33301 -1.66602 -10 -6.99902c-11.333 -35.333 -21.5 -72.166 -30.5 -110.499s-16.833 -77.166 -23.5 -116.499zM301.002 985c10 -8 20.1699 -18.5049 30.5029 -31.5049s20.666 -26.5 30.999 -40.5
s20.5 -28 30.5 -42s19 -26.333 27 -37c2.66699 -1.33301 4.5 -5.33301 5.5 -12s-1.16699 -13.667 -6.5 -21c-2.66699 -3.33301 -5 -5.83301 -7 -7.5s-4 -3.16699 -6 -4.5s-4.83301 -2.66602 -8.5 -3.99902s-8.83398 -3.66602 -15.501 -6.99902
c-4.66699 -1.33301 -11.167 -2.16602 -19.5 -2.49902s-16.833 3.83398 -25.5 12.501c-6 6.66699 -14 14.667 -24 24s-20.833 19.333 -32.5 30s-23.334 21.167 -35.001 31.5s-22.167 19.833 -31.5 28.5c-3.33301 3.33301 -5.33301 7.33301 -6 12s1.33301 10.334 6 17.001
c4 5.33301 9 11.333 15 18s12 13 18 19s11.5 11.167 16.5 15.5s8.83301 6.5 11.5 6.5c11.333 2 20 0.333008 26 -5z" />
    <glyph glyph-name="Aacute" unicode="&#xc1;" horiz-adv-x="592" 
d="M50 60c-4 4.66699 -6.66602 9.16992 -7.99902 13.5029s-2 10.166 -2 17.499c0 11.333 0.5 23.166 1.5 35.499s2.16699 25.166 3.5 38.499c-5.33301 8.66699 -10.666 18.167 -15.999 28.5s-10.166 20.5 -14.499 30.5s-7.83301 19.333 -10.5 28s-4 15.334 -4 20.001
c0 9.33301 4.66699 14 14 14c14 -1.33301 31.667 -1.33301 53 0c9.33301 38.667 20 77.834 32 117.501s24.667 77.5 38 113.5s27.166 68.833 41.499 98.5s28.166 53.834 41.499 72.501c2.66699 4 5.66699 7 9 9s8.33301 2.33301 15 1
c9.33301 -3.33301 21.5 -6.83301 36.5 -10.5s29.833 -7.83398 44.5 -12.501c0 8 0.333008 13.667 1 17c0.666992 5.33301 2.66699 9.66602 6 12.999s8.66602 5 15.999 5c8 0 18.333 -0.666992 31 -2s25.5 -3.16602 38.5 -5.49902s25.333 -4.83301 37 -7.5
s20.834 -5.33398 27.501 -8.00098c8 -3.33301 13.5 -7 16.5 -11s5.16699 -9.66699 6.5 -17c0.666992 -7.33301 1.5 -23.833 2.5 -49.5s2.5 -58 4.5 -97s4.83301 -83.333 8.5 -133s8.5 -102.167 14.5 -157.5c6 -58 11.667 -104.167 17 -138.5s8.33301 -54.833 9 -61.5
c2 -14 -4.66699 -21 -20 -21c-16 0 -32.333 0.5 -49 1.5s-32.667 2.66699 -48 5s-29 5.5 -41 9.5s-21.667 9.33301 -29 16c-4.66699 4 -8.83398 15.5 -12.501 34.5s-7.16699 43.5 -10.5 73.5c-18 -2 -36.833 -3.83301 -56.5 -5.5s-39.834 -3.16699 -60.501 -4.5
c-3.33301 -37.333 -4.33301 -73 -3 -107c0 -6.66699 -1.5 -12.167 -4.5 -16.5s-8.16699 -6.5 -15.5 -6.5c-16 0 -32 1.5 -48 4.5s-31.333 7.16699 -46 12.5s-27.667 11.666 -39 18.999s-20.666 15 -27.999 23zM337.001 301.003c-2.66699 36 -4.83301 72.1641 -6.5 108.497
s-3.16699 71.5 -4.5 105.5c0 8 -2.66699 12.667 -8 14c-4 0.666992 -7.33301 -1.66602 -10 -6.99902c-11.333 -35.333 -21.5 -72.166 -30.5 -110.499s-16.833 -77.166 -23.5 -116.499zM419.002 989c6 5.33301 14.6699 7.00488 26.0029 5.00488
c2.66699 0 6.5 -2.16699 11.5 -6.5s10.5 -9.5 16.5 -15.5s12 -12.333 18 -19s11 -12.667 15 -18c4.66699 -6.66699 6.66699 -12.334 6 -17.001s-2.66699 -8.66699 -6 -12c-9.33301 -8.66699 -19.833 -18.167 -31.5 -28.5s-23.334 -20.833 -35.001 -31.5
s-22.5 -20.667 -32.5 -30s-18 -17.333 -24 -24c-8.66699 -8.66699 -17.167 -12.834 -25.5 -12.501s-14.833 1.16602 -19.5 2.49902c-6.66699 3.33301 -11.834 5.66602 -15.501 6.99902s-6.5 2.66602 -8.5 3.99902s-3.83301 2.83301 -5.5 4.5l-7.5 7.5
c-5.33301 7.33301 -7.5 14.333 -6.5 21s2.83301 10.667 5.5 12c8 10.667 17 23 27 37s20.167 28 30.5 42s20.666 27.5 30.999 40.5s20.5 23.5 30.5 31.5z" />
    <glyph glyph-name="Acircumflex" unicode="&#xc2;" horiz-adv-x="592" 
d="M50 60c-4 4.66699 -6.66602 9.16992 -7.99902 13.5029s-2 10.166 -2 17.499c0 11.333 0.5 23.166 1.5 35.499s2.16699 25.166 3.5 38.499c-5.33301 8.66699 -10.666 18.167 -15.999 28.5s-10.166 20.5 -14.499 30.5s-7.83301 19.333 -10.5 28s-4 15.334 -4 20.001
c0 9.33301 4.66699 14 14 14c14 -1.33301 31.667 -1.33301 53 0c9.33301 38.667 20 77.834 32 117.501s24.667 77.5 38 113.5s27.166 68.833 41.499 98.5s28.166 53.834 41.499 72.501c2.66699 4 5.66699 7 9 9s8.33301 2.33301 15 1
c9.33301 -3.33301 21.5 -6.83301 36.5 -10.5s29.833 -7.83398 44.5 -12.501c0 8 0.333008 13.667 1 17c0.666992 5.33301 2.66699 9.66602 6 12.999s8.66602 5 15.999 5c8 0 18.333 -0.666992 31 -2s25.5 -3.16602 38.5 -5.49902s25.333 -4.83301 37 -7.5
s20.834 -5.33398 27.501 -8.00098c8 -3.33301 13.5 -7 16.5 -11s5.16699 -9.66699 6.5 -17c0.666992 -7.33301 1.5 -23.833 2.5 -49.5s2.5 -58 4.5 -97s4.83301 -83.333 8.5 -133s8.5 -102.167 14.5 -157.5c6 -58 11.667 -104.167 17 -138.5s8.33301 -54.833 9 -61.5
c2 -14 -4.66699 -21 -20 -21c-16 0 -32.333 0.5 -49 1.5s-32.667 2.66699 -48 5s-29 5.5 -41 9.5s-21.667 9.33301 -29 16c-4.66699 4 -8.83398 15.5 -12.501 34.5s-7.16699 43.5 -10.5 73.5c-18 -2 -36.833 -3.83301 -56.5 -5.5s-39.834 -3.16699 -60.501 -4.5
c-3.33301 -37.333 -4.33301 -73 -3 -107c0 -6.66699 -1.5 -12.167 -4.5 -16.5s-8.16699 -6.5 -15.5 -6.5c-16 0 -32 1.5 -48 4.5s-31.333 7.16699 -46 12.5s-27.667 11.666 -39 18.999s-20.666 15 -27.999 23zM337.001 301.003c-2.66699 36 -4.83301 72.1641 -6.5 108.497
s-3.16699 71.5 -4.5 105.5c0 8 -2.66699 12.667 -8 14c-4 0.666992 -7.33301 -1.66602 -10 -6.99902c-11.333 -35.333 -21.5 -72.166 -30.5 -110.499s-16.833 -77.166 -23.5 -116.499zM392.002 982c7.33301 -6.66699 17.1641 -15.165 29.4971 -25.498
s24.833 -21.5 37.5 -33.5s24.667 -24.167 36 -36.5s20 -24.166 26 -35.499c1.33301 -2.66699 2.83301 -7 4.5 -13s-0.166016 -12.667 -5.49902 -20c-6 -7.33301 -12 -11.5 -18 -12.5s-15.667 -4.5 -29 -10.5c-4.66699 -1.33301 -11.167 -2.16602 -19.5 -2.49902
s-16.833 3.83398 -25.5 12.501l-28 35c-13.333 16.667 -25.666 32.667 -36.999 48c-5.33301 -6.66699 -11.666 -14.334 -18.999 -23.001s-14.666 -17.167 -21.999 -25.5s-14 -15.833 -20 -22.5s-10.667 -11.667 -14 -15c-8.66699 -8.66699 -17.167 -12.834 -25.5 -12.501
s-14.833 1.16602 -19.5 2.49902c-13.333 6 -23 9.5 -29 10.5s-12 5.16699 -18 12.5c-5.33301 7.33301 -7.5 14.333 -6.5 21s2.83301 10.667 5.5 12c15.333 18 34.166 37.667 56.499 59s42.5 42.333 60.5 63c3.33301 3.33301 8.33301 6.66602 15 9.99902
s14 5.66602 22 6.99902s16 1.83301 24 1.5s14.333 -2.5 19 -6.5z" />
    </font>
</defs>
</svg>
